M48
; DRILL file {KiCad 9.0.4} date 2025-11-21T11:06:16-0500
; FORMAT={-:-/ absolute / metric / decimal}
; #@! TF.CreationDate,2025-11-21T11:06:16-05:00
; #@! TF.GenerationSoftware,Kicad,Pcbnew,9.0.4
; #@! TF.FileFunction,Plated,1,2,PTH
FMAT,2
METRIC
; #@! TA.AperFunction,Plated,PTH,ViaDrill
T1C0.300
; #@! TA.AperFunction,Plated,PTH,ComponentDrill
T2C0.500
; #@! TA.AperFunction,Plated,PTH,ComponentDrill
T3C0.750
; #@! TA.AperFunction,Plated,PTH,ComponentDrill
T4C1.000
; #@! TA.AperFunction,Plated,PTH,ComponentDrill
T5C1.100
; #@! TA.AperFunction,Plated,PTH,ComponentDrill
T6C2.500
%
G90
G05
T1
X16.55Y-59.7
X19.4Y-49.55
X19.4Y-53.45
X19.4Y-57.55
X19.4Y-61.55
X21.05Y-41.7
X21.05Y-46.2
X21.05Y-68.7
X21.05Y-73.2
X25.55Y-41.7
X25.55Y-68.7
X27.3Y-65.95
X27.6Y-51.5
X28.6Y-49.6
X29.1Y-65.95
X30.05Y-41.7
X30.05Y-59.7
X30.05Y-68.7
X30.05Y-73.2
X30.735Y-49.615
X32.7Y-49.6
X34.55Y-41.7
X34.55Y-45.75
X34.55Y-68.7
X35.576Y-55.476
X36.062Y-50.475
X36.45Y-47.75
X36.95Y-58.1
X37.549Y-57.449
X37.7Y-46.25
X37.901Y-65.901
X38.749Y-66.749
X40.45Y-64.2
X42.451Y-61.351
X43.55Y-41.7
X43.55Y-73.2
X45.134Y-59.55
X45.95Y-58.95
X46.3Y-66.055
X46.5Y-59.55
X46.7Y-54.95
X47.7Y-60.45
X47.75Y-58.35
X48.05Y-41.7
X48.05Y-73.2
X49.95Y-52.2
X50.05Y-50.8
X52.45Y-58.117
X52.55Y-41.7
X53.901Y-59.517
X54.2Y-55.517
X55.874Y-59.776
X57.05Y-41.7
X57.05Y-73.2
X61.55Y-41.7
X65.15Y-66.0
X65.7Y-63.95
X66.05Y-41.7
X70.55Y-41.7
X74.7Y-53.85
X74.7Y-57.85
X74.7Y-61.85
X74.7Y-65.85
X75.05Y-41.7
X75.05Y-68.7
X75.05Y-73.2
T2
X13.525Y-43.55
X13.525Y-71.95
X14.074Y-42.224
X14.074Y-44.876
X14.074Y-70.624
X14.074Y-73.276
X15.4Y-41.675
X15.4Y-45.425
X15.4Y-70.075
X15.4Y-73.825
X16.726Y-42.224
X16.726Y-44.876
X16.726Y-70.624
X16.726Y-73.276
X17.275Y-43.55
X17.275Y-71.95
X76.925Y-43.55
X76.925Y-71.95
X77.474Y-42.224
X77.474Y-44.876
X77.474Y-70.624
X77.474Y-73.276
X78.8Y-41.675
X78.8Y-45.425
X78.8Y-70.075
X78.8Y-73.825
X80.126Y-42.224
X80.126Y-44.876
X80.126Y-70.624
X80.126Y-73.276
X80.675Y-43.55
X80.675Y-71.95
T3
X14.435Y-50.617
X14.435Y-52.617
X14.435Y-54.617
X14.435Y-56.617
X14.435Y-58.617
X14.435Y-60.617
X14.435Y-62.617
X14.435Y-64.617
X25.45Y-70.65
X27.45Y-70.65
X36.2Y-70.65
X36.7Y-44.5
X38.2Y-70.65
X38.7Y-44.5
X40.1Y-80.4
X40.15Y-17.4
X42.1Y-80.4
X42.15Y-17.4
X44.1Y-80.4
X44.15Y-17.4
X46.1Y-80.4
X46.15Y-17.4
X46.65Y-70.65
X48.1Y-80.4
X48.15Y-17.4
X48.65Y-70.65
X50.1Y-80.4
X50.15Y-17.4
X52.1Y-80.4
X52.15Y-17.4
X54.1Y-80.4
X54.15Y-17.4
X79.687Y-50.68
X79.687Y-52.68
X79.687Y-54.68
X79.687Y-56.68
X79.687Y-58.68
X79.687Y-60.68
X79.687Y-62.68
X79.687Y-64.68
T4
X23.71Y-44.05
X23.71Y-46.59
X26.25Y-44.05
X26.25Y-46.59
X28.79Y-44.05
X28.79Y-46.59
T5
X56.25Y-48.4
X56.25Y-52.9
X62.75Y-48.4
X62.75Y-52.9
T6
X15.4Y-15.5
X15.4Y-36.9
X15.4Y-43.55
X15.4Y-71.95
X15.4Y-78.6
X15.4Y-100.0
X78.8Y-15.5
X78.8Y-36.9
X78.8Y-43.55
X78.8Y-71.95
X78.8Y-78.6
X78.8Y-100.0
M30
