%TF.GenerationSoftware,KiCad,Pcbnew,9.0.4*%
%TF.CreationDate,2025-11-21T11:06:10-05:00*%
%TF.ProjectId,merged_lights,6d657267-6564-45f6-9c69-676874732e6b,rev?*%
%TF.SameCoordinates,Original*%
%TF.FileFunction,Soldermask,Bot*%
%TF.FilePolarity,Negative*%
%FSLAX46Y46*%
G04 Gerber Fmt 4.6, Leading zero omitted, Abs format (unit mm)*
G04 Created by KiCad (PCBNEW 9.0.4) date 2025-11-21 11:06:10*
%MOMM*%
%LPD*%
G01*
G04 APERTURE LIST*
G04 Aperture macros list*
%AMRoundRect*
0 Rectangle with rounded corners*
0 $1 Rounding radius*
0 $2 $3 $4 $5 $6 $7 $8 $9 X,Y pos of 4 corners*
0 Add a 4 corners polygon primitive as box body*
4,1,4,$2,$3,$4,$5,$6,$7,$8,$9,$2,$3,0*
0 Add four circle primitives for the rounded corners*
1,1,$1+$1,$2,$3*
1,1,$1+$1,$4,$5*
1,1,$1+$1,$6,$7*
1,1,$1+$1,$8,$9*
0 Add four rect primitives between the rounded corners*
20,1,$1+$1,$2,$3,$4,$5,0*
20,1,$1+$1,$4,$5,$6,$7,0*
20,1,$1+$1,$6,$7,$8,$9,0*
20,1,$1+$1,$8,$9,$2,$3,0*%
G04 Aperture macros list end*
%ADD10C,1.700000*%
%ADD11R,1.700000X1.700000*%
%ADD12O,1.200000X1.750000*%
%ADD13RoundRect,0.250000X0.350000X0.625000X-0.350000X0.625000X-0.350000X-0.625000X0.350000X-0.625000X0*%
%ADD14C,2.000000*%
%ADD15RoundRect,0.250000X-0.350000X-0.625000X0.350000X-0.625000X0.350000X0.625000X-0.350000X0.625000X0*%
%ADD16RoundRect,0.250000X-0.625000X0.350000X-0.625000X-0.350000X0.625000X-0.350000X0.625000X0.350000X0*%
%ADD17O,1.750000X1.200000*%
%ADD18RoundRect,0.250000X0.625000X-0.350000X0.625000X0.350000X-0.625000X0.350000X-0.625000X-0.350000X0*%
%ADD19C,0.800000*%
%ADD20C,5.000000*%
G04 APERTURE END LIST*
D10*
%TO.C,J3*%
X28790000Y-44050000D03*
X28790000Y-46590000D03*
X26250000Y-44050000D03*
X26250000Y-46590000D03*
X23710000Y-44050000D03*
D11*
X23710000Y-46590000D03*
%TD*%
D12*
%TO.C,J6*%
X46650000Y-70650000D03*
D13*
X48650000Y-70650000D03*
%TD*%
D12*
%TO.C,J4*%
X25450000Y-70650000D03*
D13*
X27450000Y-70650000D03*
%TD*%
D14*
%TO.C,SW1*%
X56250000Y-48400000D03*
X62750000Y-48400000D03*
X56250000Y-52900000D03*
X62750000Y-52900000D03*
%TD*%
D12*
%TO.C,J5*%
X36200000Y-70650000D03*
D13*
X38200000Y-70650000D03*
%TD*%
D15*
%TO.C,J8*%
X36700000Y-44500000D03*
D12*
X38700000Y-44500000D03*
%TD*%
D16*
%TO.C,J2*%
X79687236Y-50679556D03*
D17*
X79687236Y-52679556D03*
X79687236Y-54679556D03*
X79687236Y-56679556D03*
X79687236Y-58679556D03*
X79687236Y-60679556D03*
X79687236Y-62679556D03*
X79687236Y-64679556D03*
%TD*%
D18*
%TO.C,J9*%
X14435389Y-64617354D03*
D17*
X14435389Y-62617354D03*
X14435389Y-60617354D03*
X14435389Y-58617354D03*
X14435389Y-56617354D03*
X14435389Y-54617354D03*
X14435389Y-52617354D03*
X14435389Y-50617354D03*
%TD*%
D19*
%TO.C,H1*%
X76925000Y-43550000D03*
X77474175Y-42224175D03*
X77474175Y-44875825D03*
X78800000Y-41675000D03*
D20*
X78800000Y-43550000D03*
D19*
X78800000Y-45425000D03*
X80125825Y-42224175D03*
X80125825Y-44875825D03*
X80675000Y-43550000D03*
%TD*%
%TO.C,H2*%
X13525000Y-43550000D03*
X14074175Y-42224175D03*
X14074175Y-44875825D03*
X15400000Y-41675000D03*
D20*
X15400000Y-43550000D03*
D19*
X15400000Y-45425000D03*
X16725825Y-42224175D03*
X16725825Y-44875825D03*
X17275000Y-43550000D03*
%TD*%
%TO.C,H4*%
X76925000Y-71950000D03*
X77474175Y-70624175D03*
X77474175Y-73275825D03*
X78800000Y-70075000D03*
D20*
X78800000Y-71950000D03*
D19*
X78800000Y-73825000D03*
X80125825Y-70624175D03*
X80125825Y-73275825D03*
X80675000Y-71950000D03*
%TD*%
%TO.C,H3*%
X13525000Y-71950000D03*
X14074175Y-70624175D03*
X14074175Y-73275825D03*
X15400000Y-70075000D03*
D20*
X15400000Y-71950000D03*
D19*
X15400000Y-73825000D03*
X16725825Y-70624175D03*
X16725825Y-73275825D03*
X17275000Y-71950000D03*
%TD*%
D12*
%TO.C,J1*%
X40100000Y-80400000D03*
X42100000Y-80400000D03*
X44100000Y-80400000D03*
X46100000Y-80400000D03*
X48100000Y-80400000D03*
X50100000Y-80400000D03*
X52100000Y-80400000D03*
D13*
X54100000Y-80400000D03*
%TD*%
D20*
%TO.C,H7*%
X78800000Y-78600000D03*
%TD*%
%TO.C,H11*%
X78800000Y-100000000D03*
%TD*%
%TO.C,H6*%
X15400000Y-100000000D03*
%TD*%
%TO.C,H5*%
X15400000Y-78600000D03*
%TD*%
%TO.C,H12*%
X78800000Y-36900000D03*
%TD*%
%TO.C,H10*%
X15400000Y-36900000D03*
%TD*%
%TO.C,H9*%
X78800000Y-15500000D03*
%TD*%
%TO.C,H8*%
X15400000Y-15500000D03*
%TD*%
D13*
%TO.C,J7*%
X54150000Y-17400000D03*
D12*
X52150000Y-17400000D03*
X50150000Y-17400000D03*
X48150000Y-17400000D03*
X46150000Y-17400000D03*
X44150000Y-17400000D03*
X42150000Y-17400000D03*
X40150000Y-17400000D03*
%TD*%
M02*
