%TF.GenerationSoftware,KiCad,Pcbnew,9.0.4*%
%TF.CreationDate,2025-11-21T04:25:38-05:00*%
%TF.ProjectId,pdb_v2,7064625f-7632-42e6-9b69-6361645f7063,v1*%
%TF.SameCoordinates,Original*%
%TF.FileFunction,Copper,L4,Bot*%
%TF.FilePolarity,Positive*%
%FSLAX46Y46*%
G04 Gerber Fmt 4.6, Leading zero omitted, Abs format (unit mm)*
G04 Created by KiCad (PCBNEW 9.0.4) date 2025-11-21 04:25:38*
%MOMM*%
%LPD*%
G01*
G04 APERTURE LIST*
G04 Aperture macros list*
%AMRoundRect*
0 Rectangle with rounded corners*
0 $1 Rounding radius*
0 $2 $3 $4 $5 $6 $7 $8 $9 X,Y pos of 4 corners*
0 Add a 4 corners polygon primitive as box body*
4,1,4,$2,$3,$4,$5,$6,$7,$8,$9,$2,$3,0*
0 Add four circle primitives for the rounded corners*
1,1,$1+$1,$2,$3*
1,1,$1+$1,$4,$5*
1,1,$1+$1,$6,$7*
1,1,$1+$1,$8,$9*
0 Add four rect primitives between the rounded corners*
20,1,$1+$1,$2,$3,$4,$5,0*
20,1,$1+$1,$4,$5,$6,$7,0*
20,1,$1+$1,$6,$7,$8,$9,0*
20,1,$1+$1,$8,$9,$2,$3,0*%
G04 Aperture macros list end*
%TA.AperFunction,HeatsinkPad*%
%ADD10C,0.600000*%
%TD*%
%TA.AperFunction,ComponentPad*%
%ADD11RoundRect,0.250000X0.350000X0.625000X-0.350000X0.625000X-0.350000X-0.625000X0.350000X-0.625000X0*%
%TD*%
%TA.AperFunction,ComponentPad*%
%ADD12O,1.200000X1.750000*%
%TD*%
%TA.AperFunction,ComponentPad*%
%ADD13O,1.600000X2.000000*%
%TD*%
%TA.AperFunction,ComponentPad*%
%ADD14C,5.000000*%
%TD*%
%TA.AperFunction,ComponentPad*%
%ADD15RoundRect,0.250000X-0.625000X0.350000X-0.625000X-0.350000X0.625000X-0.350000X0.625000X0.350000X0*%
%TD*%
%TA.AperFunction,ComponentPad*%
%ADD16O,1.750000X1.200000*%
%TD*%
%TA.AperFunction,ComponentPad*%
%ADD17C,2.000000*%
%TD*%
%TA.AperFunction,ComponentPad*%
%ADD18RoundRect,0.760000X-1.140000X1.140000X-1.140000X-1.140000X1.140000X-1.140000X1.140000X1.140000X0*%
%TD*%
%TA.AperFunction,ComponentPad*%
%ADD19C,3.800000*%
%TD*%
%TA.AperFunction,ComponentPad*%
%ADD20R,1.700000X1.700000*%
%TD*%
%TA.AperFunction,ComponentPad*%
%ADD21C,1.700000*%
%TD*%
%TA.AperFunction,ViaPad*%
%ADD22C,0.600000*%
%TD*%
%TA.AperFunction,Conductor*%
%ADD23C,0.200000*%
%TD*%
%TA.AperFunction,Conductor*%
%ADD24C,0.530000*%
%TD*%
G04 APERTURE END LIST*
D10*
%TO.P,U2,39,GND*%
%TO.N,GND*%
X72756795Y-61967500D03*
X72756795Y-63492500D03*
X73519295Y-61205000D03*
X73519295Y-62730000D03*
X73519295Y-64255000D03*
X74281795Y-61967500D03*
X74281795Y-63492500D03*
X75044295Y-61205000D03*
X75044295Y-62730000D03*
X75044295Y-64255000D03*
X75806795Y-61967500D03*
X75806795Y-63492500D03*
%TD*%
D11*
%TO.P,J2,1,Pin_1*%
%TO.N,GND*%
X69487500Y-17475000D03*
D12*
%TO.P,J2,2,Pin_2*%
%TO.N,Net-(D3-A)*%
X67487500Y-17475000D03*
%TD*%
D13*
%TO.P,J8,1,Pin_1*%
%TO.N,GND*%
X30180000Y-52200000D03*
%TO.P,J8,2,Pin_2*%
%TO.N,3V3_BUS*%
X32720000Y-52200000D03*
%TO.P,J8,3,Pin_3*%
%TO.N,/OLED SCL*%
X35260000Y-52200000D03*
%TO.P,J8,4,Pin_4*%
%TO.N,/OLED SDA*%
X37800000Y-52200000D03*
%TD*%
D14*
%TO.P,H2,1,1*%
%TO.N,unconnected-(H2-Pad1)*%
X89044497Y-15100000D03*
%TD*%
%TO.P,H1,1,1*%
%TO.N,unconnected-(H1-Pad1)*%
X15110000Y-75100000D03*
%TD*%
D15*
%TO.P,J7,1,Pin_1*%
%TO.N,/VESC TX*%
X87500000Y-56500000D03*
D16*
%TO.P,J7,2,Pin_2*%
%TO.N,/VESC RX*%
X87500000Y-58500000D03*
%TO.P,J7,3,Pin_3*%
%TO.N,GND*%
X87500000Y-60500000D03*
%TD*%
D17*
%TO.P,SW1,1,1*%
%TO.N,GND*%
X49600000Y-65200000D03*
X56100000Y-65200000D03*
%TO.P,SW1,2,2*%
%TO.N,/EN*%
X49600000Y-69700000D03*
X56100000Y-69700000D03*
%TD*%
D18*
%TO.P,J1,1,Pin_1*%
%TO.N,GND*%
X23400000Y-35900000D03*
D19*
%TO.P,J1,2,Pin_2*%
%TO.N,Net-(J1-Pin_2)*%
X23400000Y-40900000D03*
%TD*%
D20*
%TO.P,J3,1,Pin_1*%
%TO.N,GND*%
X18085000Y-55860000D03*
D21*
%TO.P,J3,2,Pin_2*%
%TO.N,3V3_BUS*%
X18085000Y-58400000D03*
%TO.P,J3,3,Pin_3*%
%TO.N,/TX*%
X18085000Y-60940000D03*
%TO.P,J3,4,Pin_4*%
%TO.N,/RX*%
X18085000Y-63480000D03*
%TO.P,J3,5,Pin_5*%
%TO.N,/BOOT*%
X18085000Y-66020000D03*
%TO.P,J3,6,Pin_6*%
%TO.N,/EN*%
X18085000Y-68560000D03*
%TD*%
D15*
%TO.P,J6,1,Pin_1*%
%TO.N,/BMS TX*%
X87500000Y-46900000D03*
D16*
%TO.P,J6,2,Pin_2*%
%TO.N,/BMS RX*%
X87500000Y-48900000D03*
%TO.P,J6,3,Pin_3*%
%TO.N,GND*%
X87500000Y-50900000D03*
%TD*%
D17*
%TO.P,SW2,1,1*%
%TO.N,GND*%
X56100000Y-59750000D03*
X49600000Y-59750000D03*
%TO.P,SW2,2,2*%
%TO.N,/BOOT*%
X56100000Y-55250000D03*
X49600000Y-55250000D03*
%TD*%
D11*
%TO.P,J5,1,Pin_1*%
%TO.N,GND*%
X80137500Y-17465950D03*
D12*
%TO.P,J5,2,Pin_2*%
%TO.N,Net-(J5-Pin_2)*%
X78137500Y-17465950D03*
%TD*%
D22*
%TO.N,/OLED SDA*%
X69796162Y-50303838D03*
X67000000Y-50300000D03*
%TO.N,GND*%
X68400000Y-43200000D03*
X16900000Y-46500000D03*
X46900000Y-46500000D03*
X36900000Y-71500000D03*
X16900000Y-31500000D03*
X16900000Y-41500000D03*
X16900000Y-36500000D03*
X16900000Y-71500000D03*
X46900000Y-76500000D03*
X16900000Y-51500000D03*
X21900000Y-16500000D03*
X46900000Y-36500000D03*
X21900000Y-26500000D03*
X26900000Y-51500000D03*
X21900000Y-46500000D03*
X21900000Y-51500000D03*
X46900000Y-56500000D03*
X21900000Y-56500000D03*
X21900000Y-61500000D03*
X41900000Y-46500000D03*
X21900000Y-66500000D03*
X51900000Y-31500000D03*
X21900000Y-71500000D03*
X21900000Y-76500000D03*
X26900000Y-16500000D03*
X26900000Y-26500000D03*
X26900000Y-41500000D03*
X26900000Y-61500000D03*
X26900000Y-66500000D03*
X26900000Y-71500000D03*
X51900000Y-26500000D03*
X26900000Y-76500000D03*
X51900000Y-56500000D03*
X31900000Y-56500000D03*
X31900000Y-61500000D03*
X31900000Y-66500000D03*
X31900000Y-71500000D03*
X31900000Y-76500000D03*
X36900000Y-46500000D03*
X36900000Y-56500000D03*
X36900000Y-61500000D03*
X36900000Y-66500000D03*
X36900000Y-76500000D03*
X41900000Y-51500000D03*
X41900000Y-56500000D03*
X41900000Y-66500000D03*
X41900000Y-71500000D03*
X41900000Y-76500000D03*
X46900000Y-31500000D03*
X46900000Y-41500000D03*
X46900000Y-51500000D03*
X46900000Y-61500000D03*
X46900000Y-71500000D03*
X51900000Y-41500000D03*
X51900000Y-46500000D03*
X51900000Y-51500000D03*
X51900000Y-61500000D03*
X56900000Y-16500000D03*
X56900000Y-21500000D03*
X56900000Y-31500000D03*
X56900000Y-41500000D03*
X56900000Y-46500000D03*
X56900000Y-51500000D03*
X61900000Y-26500000D03*
X61900000Y-36500000D03*
X61900000Y-46500000D03*
X66900000Y-61500000D03*
X66900000Y-66500000D03*
X71900000Y-21500000D03*
X71900000Y-26500000D03*
X71900000Y-66500000D03*
X76900000Y-26500000D03*
X76900000Y-66500000D03*
X81900000Y-46500000D03*
X86900000Y-21500000D03*
X86900000Y-31500000D03*
%TO.N,VBAT*%
X29850000Y-28750000D03*
X17022673Y-27000000D03*
%TO.N,GND*%
X33500000Y-26500000D03*
X21250000Y-20500000D03*
X60700000Y-55719647D03*
X33500000Y-25000000D03*
X33500000Y-29500000D03*
X35000000Y-21000000D03*
X62887500Y-64250000D03*
X64937500Y-29425000D03*
X43325000Y-43100000D03*
X25700000Y-35900000D03*
X79351795Y-50900000D03*
X52300000Y-19300000D03*
X66687500Y-31925000D03*
X38800000Y-43100000D03*
X41127498Y-39872502D03*
X21100000Y-35900000D03*
X24000000Y-22250000D03*
X52350000Y-22150000D03*
X33600000Y-14100000D03*
X86750000Y-69300000D03*
X33500000Y-27750000D03*
X62887500Y-56950000D03*
X16912013Y-16100000D03*
X63187500Y-31925000D03*
X23400000Y-33600000D03*
X60937500Y-19725000D03*
X68300000Y-40900000D03*
X23400000Y-38100000D03*
X21250000Y-24250000D03*
X66900000Y-69700000D03*
X36085750Y-22114250D03*
%TO.N,12V_BUS*%
X68625735Y-39611765D03*
X85837500Y-41175000D03*
X60175000Y-15087500D03*
X63587500Y-42575000D03*
X32800000Y-14800000D03*
X51800000Y-24200000D03*
X51600000Y-16750000D03*
%TO.N,3V3_BUS*%
X79937500Y-34875000D03*
X78037500Y-36775000D03*
X86054167Y-36100000D03*
X85450000Y-34000000D03*
X77637500Y-44234700D03*
X81837500Y-32975000D03*
X65474828Y-39337498D03*
X59526795Y-51975000D03*
X88350000Y-64400000D03*
%TO.N,Net-(U1-EN)*%
X30000000Y-18200000D03*
X17022673Y-21400000D03*
%TO.N,/BOOT*%
X41000000Y-60900000D03*
X37500000Y-64300000D03*
%TO.N,/TX*%
X40800000Y-62400000D03*
X43000000Y-64600000D03*
%TO.N,/BMS TX*%
X83698018Y-50398018D03*
%TO.N,GND*%
X81100000Y-24900000D03*
X77400000Y-24900000D03*
X80037500Y-38475000D03*
X80037500Y-41675000D03*
X81337500Y-17815950D03*
X81287500Y-16615950D03*
X80687500Y-15765950D03*
X69587500Y-15775000D03*
X70437500Y-16525000D03*
X70637500Y-17925000D03*
X42000000Y-30500000D03*
%TD*%
D23*
%TO.N,/OLED SDA*%
X67000000Y-50300000D02*
X69792324Y-50300000D01*
X69792324Y-50300000D02*
X69796162Y-50303838D01*
D24*
%TO.N,GND*%
X49650000Y-59800000D02*
X49600000Y-59750000D01*
D23*
%TO.N,/BOOT*%
X37500000Y-64300000D02*
X40900000Y-60900000D01*
X40900000Y-60900000D02*
X41000000Y-60900000D01*
%TO.N,/TX*%
X43000000Y-64600000D02*
X40800000Y-62400000D01*
%TO.N,/BMS TX*%
X84900000Y-47600000D02*
X85600000Y-46900000D01*
X85600000Y-46900000D02*
X87500000Y-46900000D01*
X83698018Y-50398018D02*
X84900000Y-49196036D01*
X84900000Y-49196036D02*
X84900000Y-47600000D01*
%TD*%
%TA.AperFunction,Conductor*%
%TO.N,GND*%
G36*
X87026981Y-12588622D02*
G01*
X87093999Y-12608369D01*
X87139705Y-12661215D01*
X87149584Y-12730383D01*
X87120501Y-12793912D01*
X87104177Y-12809568D01*
X87041975Y-12859173D01*
X86803671Y-13097477D01*
X86593550Y-13360962D01*
X86414249Y-13646316D01*
X86268029Y-13949945D01*
X86156724Y-14268034D01*
X86156720Y-14268046D01*
X86081730Y-14596602D01*
X86081728Y-14596618D01*
X86043997Y-14931491D01*
X86043997Y-15268508D01*
X86081728Y-15603381D01*
X86081730Y-15603397D01*
X86156720Y-15931953D01*
X86156724Y-15931965D01*
X86268029Y-16250054D01*
X86414249Y-16553683D01*
X86414251Y-16553686D01*
X86593551Y-16839039D01*
X86724567Y-17003328D01*
X86803669Y-17102520D01*
X86803672Y-17102523D01*
X87041974Y-17340825D01*
X87305458Y-17550946D01*
X87590811Y-17730246D01*
X87894446Y-17876469D01*
X88133345Y-17960063D01*
X88212531Y-17987772D01*
X88212543Y-17987776D01*
X88541103Y-18062767D01*
X88875989Y-18100499D01*
X88875990Y-18100500D01*
X88875993Y-18100500D01*
X89213004Y-18100500D01*
X89213004Y-18100499D01*
X89547891Y-18062767D01*
X89876451Y-17987776D01*
X90194548Y-17876469D01*
X90498183Y-17730246D01*
X90783536Y-17550946D01*
X91047020Y-17340825D01*
X91285322Y-17102523D01*
X91332417Y-17043467D01*
X91389602Y-17003328D01*
X91459414Y-17000476D01*
X91519684Y-17035821D01*
X91551279Y-17098139D01*
X91553363Y-17120764D01*
X91557169Y-45799500D01*
X91560539Y-71200500D01*
X91560579Y-71495984D01*
X91540903Y-71563026D01*
X91488105Y-71608788D01*
X91436579Y-71620000D01*
X49601795Y-71620000D01*
X49601795Y-77700568D01*
X49582110Y-77767607D01*
X49529306Y-77813362D01*
X49477705Y-77824568D01*
X16881615Y-77800867D01*
X16814590Y-77781134D01*
X16768873Y-77728296D01*
X16758980Y-77659131D01*
X16788051Y-77595596D01*
X16815729Y-77571875D01*
X16849039Y-77550946D01*
X17112523Y-77340825D01*
X17350825Y-77102523D01*
X17560946Y-76839039D01*
X17740246Y-76553686D01*
X17886469Y-76250051D01*
X17997776Y-75931954D01*
X18072767Y-75603394D01*
X18110500Y-75268504D01*
X18110500Y-74931496D01*
X18072767Y-74596606D01*
X17997776Y-74268046D01*
X17886469Y-73949949D01*
X17740246Y-73646314D01*
X17560946Y-73360961D01*
X17350825Y-73097477D01*
X17112523Y-72859175D01*
X16849039Y-72649054D01*
X16563686Y-72469754D01*
X16563683Y-72469752D01*
X16260054Y-72323532D01*
X15941965Y-72212227D01*
X15941953Y-72212223D01*
X15613397Y-72137233D01*
X15613381Y-72137231D01*
X15278508Y-72099500D01*
X15278504Y-72099500D01*
X14941496Y-72099500D01*
X14941491Y-72099500D01*
X14606618Y-72137231D01*
X14606602Y-72137233D01*
X14278046Y-72212223D01*
X14278034Y-72212227D01*
X13959945Y-72323532D01*
X13656316Y-72469752D01*
X13370962Y-72649053D01*
X13107477Y-72859174D01*
X12869174Y-73097477D01*
X12713402Y-73292809D01*
X12656213Y-73332949D01*
X12586402Y-73335799D01*
X12526132Y-73300453D01*
X12494539Y-73238134D01*
X12492455Y-73215441D01*
X12500000Y-58293713D01*
X16734500Y-58293713D01*
X16734500Y-58506287D01*
X16767754Y-58716243D01*
X16781223Y-58757697D01*
X16833444Y-58918414D01*
X16929951Y-59107820D01*
X17054890Y-59279786D01*
X17205213Y-59430109D01*
X17377182Y-59555050D01*
X17385946Y-59559516D01*
X17436742Y-59607491D01*
X17453536Y-59675312D01*
X17430998Y-59741447D01*
X17385946Y-59780484D01*
X17377182Y-59784949D01*
X17205213Y-59909890D01*
X17054890Y-60060213D01*
X16929951Y-60232179D01*
X16833444Y-60421585D01*
X16767753Y-60623760D01*
X16734500Y-60833713D01*
X16734500Y-61046286D01*
X16748311Y-61133489D01*
X16767754Y-61256243D01*
X16817806Y-61410288D01*
X16833444Y-61458414D01*
X16929951Y-61647820D01*
X17054890Y-61819786D01*
X17205213Y-61970109D01*
X17377182Y-62095050D01*
X17385946Y-62099516D01*
X17436742Y-62147491D01*
X17453536Y-62215312D01*
X17430998Y-62281447D01*
X17385946Y-62320484D01*
X17377182Y-62324949D01*
X17205213Y-62449890D01*
X17054890Y-62600213D01*
X16929951Y-62772179D01*
X16833444Y-62961585D01*
X16767753Y-63163760D01*
X16734500Y-63373713D01*
X16734500Y-63586287D01*
X16735184Y-63590606D01*
X16766718Y-63789707D01*
X16767754Y-63796243D01*
X16826879Y-63978211D01*
X16833444Y-63998414D01*
X16929951Y-64187820D01*
X17054890Y-64359786D01*
X17205213Y-64510109D01*
X17377182Y-64635050D01*
X17385946Y-64639516D01*
X17436742Y-64687491D01*
X17453536Y-64755312D01*
X17430998Y-64821447D01*
X17385946Y-64860484D01*
X17377182Y-64864949D01*
X17205213Y-64989890D01*
X17054890Y-65140213D01*
X16929951Y-65312179D01*
X16833444Y-65501585D01*
X16767753Y-65703760D01*
X16734500Y-65913713D01*
X16734500Y-66126286D01*
X16767753Y-66336239D01*
X16833444Y-66538414D01*
X16929951Y-66727820D01*
X17054890Y-66899786D01*
X17205213Y-67050109D01*
X17377182Y-67175050D01*
X17385946Y-67179516D01*
X17436742Y-67227491D01*
X17453536Y-67295312D01*
X17430998Y-67361447D01*
X17385946Y-67400484D01*
X17377182Y-67404949D01*
X17205213Y-67529890D01*
X17054890Y-67680213D01*
X16929951Y-67852179D01*
X16833444Y-68041585D01*
X16767753Y-68243760D01*
X16757352Y-68309432D01*
X16734500Y-68453713D01*
X16734500Y-68666287D01*
X16767754Y-68876243D01*
X16779881Y-68913567D01*
X16833444Y-69078414D01*
X16929951Y-69267820D01*
X17054890Y-69439786D01*
X17205213Y-69590109D01*
X17377179Y-69715048D01*
X17377181Y-69715049D01*
X17377184Y-69715051D01*
X17566588Y-69811557D01*
X17768757Y-69877246D01*
X17978713Y-69910500D01*
X17978714Y-69910500D01*
X18191286Y-69910500D01*
X18191287Y-69910500D01*
X18401243Y-69877246D01*
X18603412Y-69811557D01*
X18792816Y-69715051D01*
X18814789Y-69699086D01*
X18964786Y-69590109D01*
X18964788Y-69590106D01*
X18964792Y-69590104D01*
X18972994Y-69581902D01*
X48099500Y-69581902D01*
X48099500Y-69818097D01*
X48136446Y-70051368D01*
X48209433Y-70275996D01*
X48316657Y-70486433D01*
X48455483Y-70677510D01*
X48622490Y-70844517D01*
X48813567Y-70983343D01*
X48912991Y-71034002D01*
X49024003Y-71090566D01*
X49024005Y-71090566D01*
X49024008Y-71090568D01*
X49144412Y-71129689D01*
X49248631Y-71163553D01*
X49481903Y-71200500D01*
X49481908Y-71200500D01*
X49718097Y-71200500D01*
X49951368Y-71163553D01*
X50175992Y-71090568D01*
X50386433Y-70983343D01*
X50577510Y-70844517D01*
X50744517Y-70677510D01*
X50883343Y-70486433D01*
X50990568Y-70275992D01*
X51063553Y-70051368D01*
X51100500Y-69818097D01*
X51100500Y-69581902D01*
X54599500Y-69581902D01*
X54599500Y-69818097D01*
X54636446Y-70051368D01*
X54709433Y-70275996D01*
X54816657Y-70486433D01*
X54955483Y-70677510D01*
X55122490Y-70844517D01*
X55313567Y-70983343D01*
X55412991Y-71034002D01*
X55524003Y-71090566D01*
X55524005Y-71090566D01*
X55524008Y-71090568D01*
X55644412Y-71129689D01*
X55748631Y-71163553D01*
X55981903Y-71200500D01*
X55981908Y-71200500D01*
X56218097Y-71200500D01*
X56451368Y-71163553D01*
X56675992Y-71090568D01*
X56886433Y-70983343D01*
X57077510Y-70844517D01*
X57244517Y-70677510D01*
X57383343Y-70486433D01*
X57490568Y-70275992D01*
X57563553Y-70051368D01*
X57600500Y-69818097D01*
X57600500Y-69581902D01*
X57563553Y-69348631D01*
X57490566Y-69124003D01*
X57383342Y-68913566D01*
X57356225Y-68876243D01*
X57244517Y-68722490D01*
X57077510Y-68555483D01*
X56886433Y-68416657D01*
X56675996Y-68309433D01*
X56451368Y-68236446D01*
X56218097Y-68199500D01*
X56218092Y-68199500D01*
X55981908Y-68199500D01*
X55981903Y-68199500D01*
X55748631Y-68236446D01*
X55524003Y-68309433D01*
X55313566Y-68416657D01*
X55204550Y-68495862D01*
X55122490Y-68555483D01*
X55122488Y-68555485D01*
X55122487Y-68555485D01*
X54955485Y-68722487D01*
X54955485Y-68722488D01*
X54955483Y-68722490D01*
X54895862Y-68804550D01*
X54816657Y-68913566D01*
X54709433Y-69124003D01*
X54636446Y-69348631D01*
X54599500Y-69581902D01*
X51100500Y-69581902D01*
X51063553Y-69348631D01*
X50990566Y-69124003D01*
X50883342Y-68913566D01*
X50856225Y-68876243D01*
X50744517Y-68722490D01*
X50577510Y-68555483D01*
X50386433Y-68416657D01*
X50175996Y-68309433D01*
X49951368Y-68236446D01*
X49718097Y-68199500D01*
X49718092Y-68199500D01*
X49481908Y-68199500D01*
X49481903Y-68199500D01*
X49248631Y-68236446D01*
X49024003Y-68309433D01*
X48813566Y-68416657D01*
X48704550Y-68495862D01*
X48622490Y-68555483D01*
X48622488Y-68555485D01*
X48622487Y-68555485D01*
X48455485Y-68722487D01*
X48455485Y-68722488D01*
X48455483Y-68722490D01*
X48395862Y-68804550D01*
X48316657Y-68913566D01*
X48209433Y-69124003D01*
X48136446Y-69348631D01*
X48099500Y-69581902D01*
X18972994Y-69581902D01*
X19115104Y-69439792D01*
X19115106Y-69439788D01*
X19115109Y-69439786D01*
X19240048Y-69267820D01*
X19240047Y-69267820D01*
X19240051Y-69267816D01*
X19336557Y-69078412D01*
X19402246Y-68876243D01*
X19435500Y-68666287D01*
X19435500Y-68453713D01*
X19402246Y-68243757D01*
X19336557Y-68041588D01*
X19240051Y-67852184D01*
X19240049Y-67852181D01*
X19240048Y-67852179D01*
X19115109Y-67680213D01*
X18964786Y-67529890D01*
X18792820Y-67404951D01*
X18792115Y-67404591D01*
X18784054Y-67400485D01*
X18733259Y-67352512D01*
X18716463Y-67284692D01*
X18738999Y-67218556D01*
X18784054Y-67179515D01*
X18792816Y-67175051D01*
X18814789Y-67159086D01*
X18964786Y-67050109D01*
X18964788Y-67050106D01*
X18964792Y-67050104D01*
X19115104Y-66899792D01*
X19115106Y-66899788D01*
X19115109Y-66899786D01*
X19240048Y-66727820D01*
X19240047Y-66727820D01*
X19240051Y-66727816D01*
X19336557Y-66538412D01*
X19402246Y-66336243D01*
X19435500Y-66126287D01*
X19435500Y-65913713D01*
X19402246Y-65703757D01*
X19336557Y-65501588D01*
X19240051Y-65312184D01*
X19240049Y-65312181D01*
X19240048Y-65312179D01*
X19115109Y-65140213D01*
X18964786Y-64989890D01*
X18792820Y-64864951D01*
X18792115Y-64864591D01*
X18784054Y-64860485D01*
X18733259Y-64812512D01*
X18716463Y-64744692D01*
X18738999Y-64678556D01*
X18784054Y-64639515D01*
X18792816Y-64635051D01*
X18932589Y-64533501D01*
X18964786Y-64510109D01*
X18964788Y-64510106D01*
X18964792Y-64510104D01*
X19115104Y-64359792D01*
X19115106Y-64359788D01*
X19115109Y-64359786D01*
X19215830Y-64221153D01*
X36699500Y-64221153D01*
X36699500Y-64378846D01*
X36730261Y-64533489D01*
X36730264Y-64533501D01*
X36790602Y-64679172D01*
X36790609Y-64679185D01*
X36878210Y-64810288D01*
X36878213Y-64810292D01*
X36989707Y-64921786D01*
X36989711Y-64921789D01*
X37120814Y-65009390D01*
X37120827Y-65009397D01*
X37266498Y-65069735D01*
X37266503Y-65069737D01*
X37421153Y-65100499D01*
X37421156Y-65100500D01*
X37421158Y-65100500D01*
X37578844Y-65100500D01*
X37578845Y-65100499D01*
X37733497Y-65069737D01*
X37879179Y-65009394D01*
X38010289Y-64921789D01*
X38121789Y-64810289D01*
X38209394Y-64679179D01*
X38269737Y-64533497D01*
X38289113Y-64436085D01*
X38300638Y-64378150D01*
X38333023Y-64316239D01*
X38334519Y-64314715D01*
X39895559Y-62753674D01*
X39956880Y-62720191D01*
X40026572Y-62725175D01*
X40082505Y-62767047D01*
X40087067Y-62774216D01*
X40087221Y-62774114D01*
X40178210Y-62910288D01*
X40178213Y-62910292D01*
X40289707Y-63021786D01*
X40289711Y-63021789D01*
X40420814Y-63109390D01*
X40420827Y-63109397D01*
X40552066Y-63163757D01*
X40566503Y-63169737D01*
X40631147Y-63182595D01*
X40721849Y-63200638D01*
X40783760Y-63233023D01*
X40785339Y-63234574D01*
X42165425Y-64614660D01*
X42198910Y-64675983D01*
X42199361Y-64678149D01*
X42230261Y-64833491D01*
X42230264Y-64833501D01*
X42290602Y-64979172D01*
X42290609Y-64979185D01*
X42378210Y-65110288D01*
X42378213Y-65110292D01*
X42489707Y-65221786D01*
X42489711Y-65221789D01*
X42620814Y-65309390D01*
X42620827Y-65309397D01*
X42766498Y-65369735D01*
X42766503Y-65369737D01*
X42921153Y-65400499D01*
X42921156Y-65400500D01*
X42921158Y-65400500D01*
X43078844Y-65400500D01*
X43078845Y-65400499D01*
X43233497Y-65369737D01*
X43372443Y-65312184D01*
X43379172Y-65309397D01*
X43379172Y-65309396D01*
X43379179Y-65309394D01*
X43510289Y-65221789D01*
X43621789Y-65110289D01*
X43709394Y-64979179D01*
X43769737Y-64833497D01*
X43800500Y-64678842D01*
X43800500Y-64521158D01*
X43800500Y-64521155D01*
X43800499Y-64521153D01*
X43798301Y-64510104D01*
X43769737Y-64366503D01*
X43750955Y-64321158D01*
X43750953Y-64321153D01*
X87549500Y-64321153D01*
X87549500Y-64478846D01*
X87580261Y-64633489D01*
X87580264Y-64633501D01*
X87640602Y-64779172D01*
X87640609Y-64779185D01*
X87728210Y-64910288D01*
X87728213Y-64910292D01*
X87839707Y-65021786D01*
X87839711Y-65021789D01*
X87970814Y-65109390D01*
X87970827Y-65109397D01*
X88045225Y-65140213D01*
X88116503Y-65169737D01*
X88271153Y-65200499D01*
X88271156Y-65200500D01*
X88271158Y-65200500D01*
X88428844Y-65200500D01*
X88428845Y-65200499D01*
X88583497Y-65169737D01*
X88729179Y-65109394D01*
X88860289Y-65021789D01*
X88971789Y-64910289D01*
X89059394Y-64779179D01*
X89119737Y-64633497D01*
X89150500Y-64478842D01*
X89150500Y-64321158D01*
X89150500Y-64321155D01*
X89150499Y-64321153D01*
X89149207Y-64314660D01*
X89119737Y-64166503D01*
X89087929Y-64089711D01*
X89059397Y-64020827D01*
X89059390Y-64020814D01*
X88971789Y-63889711D01*
X88971786Y-63889707D01*
X88860292Y-63778213D01*
X88860288Y-63778210D01*
X88729185Y-63690609D01*
X88729172Y-63690602D01*
X88583501Y-63630264D01*
X88583489Y-63630261D01*
X88428845Y-63599500D01*
X88428842Y-63599500D01*
X88271158Y-63599500D01*
X88271155Y-63599500D01*
X88116510Y-63630261D01*
X88116498Y-63630264D01*
X87970827Y-63690602D01*
X87970814Y-63690609D01*
X87839711Y-63778210D01*
X87839707Y-63778213D01*
X87728213Y-63889707D01*
X87728210Y-63889711D01*
X87640609Y-64020814D01*
X87640602Y-64020827D01*
X87580264Y-64166498D01*
X87580261Y-64166510D01*
X87549500Y-64321153D01*
X43750953Y-64321153D01*
X43709397Y-64220827D01*
X43709390Y-64220814D01*
X43621789Y-64089711D01*
X43621786Y-64089707D01*
X43510292Y-63978213D01*
X43510288Y-63978210D01*
X43379185Y-63890609D01*
X43379172Y-63890602D01*
X43233501Y-63830264D01*
X43233491Y-63830261D01*
X43078149Y-63799361D01*
X43016238Y-63766976D01*
X43014660Y-63765425D01*
X41634574Y-62385339D01*
X41601089Y-62324016D01*
X41600638Y-62321849D01*
X41577333Y-62204692D01*
X41569737Y-62166503D01*
X41558161Y-62138556D01*
X41509397Y-62020827D01*
X41509390Y-62020814D01*
X41421789Y-61889711D01*
X41421786Y-61889707D01*
X41342319Y-61810240D01*
X41308834Y-61748917D01*
X41313818Y-61679225D01*
X41355690Y-61623292D01*
X41374102Y-61612812D01*
X41373809Y-61612264D01*
X41379172Y-61609396D01*
X41379179Y-61609394D01*
X41510289Y-61521789D01*
X41621789Y-61410289D01*
X41709394Y-61279179D01*
X41769737Y-61133497D01*
X41800500Y-60978842D01*
X41800500Y-60821158D01*
X41800500Y-60821155D01*
X41800499Y-60821153D01*
X41769738Y-60666510D01*
X41769737Y-60666503D01*
X41769735Y-60666498D01*
X41709397Y-60520827D01*
X41709390Y-60520814D01*
X41621789Y-60389711D01*
X41621786Y-60389707D01*
X41510292Y-60278213D01*
X41510288Y-60278210D01*
X41379185Y-60190609D01*
X41379172Y-60190602D01*
X41233501Y-60130264D01*
X41233489Y-60130261D01*
X41078845Y-60099500D01*
X41078842Y-60099500D01*
X40921158Y-60099500D01*
X40921155Y-60099500D01*
X40766510Y-60130261D01*
X40766498Y-60130264D01*
X40620827Y-60190602D01*
X40620814Y-60190609D01*
X40489711Y-60278210D01*
X40489707Y-60278213D01*
X40378213Y-60389707D01*
X40378210Y-60389711D01*
X40290609Y-60520814D01*
X40290602Y-60520827D01*
X40230263Y-60666500D01*
X40230261Y-60666507D01*
X40224192Y-60697019D01*
X40191806Y-60758930D01*
X40190256Y-60760507D01*
X37485339Y-63465425D01*
X37424016Y-63498910D01*
X37421850Y-63499361D01*
X37266508Y-63530261D01*
X37266498Y-63530264D01*
X37120827Y-63590602D01*
X37120814Y-63590609D01*
X36989711Y-63678210D01*
X36989707Y-63678213D01*
X36878213Y-63789707D01*
X36878210Y-63789711D01*
X36790609Y-63920814D01*
X36790602Y-63920827D01*
X36730264Y-64066498D01*
X36730261Y-64066510D01*
X36699500Y-64221153D01*
X19215830Y-64221153D01*
X19240048Y-64187820D01*
X19240047Y-64187820D01*
X19240051Y-64187816D01*
X19336557Y-63998412D01*
X19402246Y-63796243D01*
X19435500Y-63586287D01*
X19435500Y-63373713D01*
X19402246Y-63163757D01*
X19336557Y-62961588D01*
X19240051Y-62772184D01*
X19240049Y-62772181D01*
X19240048Y-62772179D01*
X19115109Y-62600213D01*
X18964786Y-62449890D01*
X18792820Y-62324951D01*
X18790985Y-62324016D01*
X18784054Y-62320485D01*
X18733259Y-62272512D01*
X18716463Y-62204692D01*
X18738999Y-62138556D01*
X18784054Y-62099515D01*
X18792816Y-62095051D01*
X18814789Y-62079086D01*
X18964786Y-61970109D01*
X18964788Y-61970106D01*
X18964792Y-61970104D01*
X19115104Y-61819792D01*
X19115106Y-61819788D01*
X19115109Y-61819786D01*
X19240048Y-61647820D01*
X19240047Y-61647820D01*
X19240051Y-61647816D01*
X19336557Y-61458412D01*
X19402246Y-61256243D01*
X19435500Y-61046287D01*
X19435500Y-60833713D01*
X19402246Y-60623757D01*
X19336557Y-60421588D01*
X19240051Y-60232184D01*
X19240049Y-60232181D01*
X19240048Y-60232179D01*
X19115109Y-60060213D01*
X18964786Y-59909890D01*
X18792820Y-59784951D01*
X18792115Y-59784591D01*
X18784054Y-59780485D01*
X18733259Y-59732512D01*
X18716463Y-59664692D01*
X18738999Y-59598556D01*
X18784054Y-59559515D01*
X18792816Y-59555051D01*
X18841235Y-59519873D01*
X18964786Y-59430109D01*
X18964788Y-59430106D01*
X18964792Y-59430104D01*
X19115104Y-59279792D01*
X19115106Y-59279788D01*
X19115109Y-59279786D01*
X19240048Y-59107820D01*
X19240047Y-59107820D01*
X19240051Y-59107816D01*
X19336557Y-58918412D01*
X19402246Y-58716243D01*
X19435500Y-58506287D01*
X19435500Y-58293713D01*
X19402246Y-58083757D01*
X19336557Y-57881588D01*
X19240051Y-57692184D01*
X19240049Y-57692181D01*
X19240048Y-57692179D01*
X19115109Y-57520213D01*
X18964786Y-57369890D01*
X18792820Y-57244951D01*
X18603414Y-57148444D01*
X18603413Y-57148443D01*
X18603412Y-57148443D01*
X18401243Y-57082754D01*
X18401241Y-57082753D01*
X18401240Y-57082753D01*
X18239957Y-57057208D01*
X18191287Y-57049500D01*
X17978713Y-57049500D01*
X17930042Y-57057208D01*
X17768760Y-57082753D01*
X17566585Y-57148444D01*
X17377179Y-57244951D01*
X17205213Y-57369890D01*
X17054890Y-57520213D01*
X16929951Y-57692179D01*
X16833444Y-57881585D01*
X16767753Y-58083760D01*
X16742643Y-58242299D01*
X16734500Y-58293713D01*
X12500000Y-58293713D01*
X12501599Y-55131902D01*
X48099500Y-55131902D01*
X48099500Y-55368097D01*
X48136446Y-55601368D01*
X48209433Y-55825996D01*
X48296667Y-55997200D01*
X48316657Y-56036433D01*
X48455483Y-56227510D01*
X48622490Y-56394517D01*
X48813567Y-56533343D01*
X48912991Y-56584002D01*
X49024003Y-56640566D01*
X49024005Y-56640566D01*
X49024008Y-56640568D01*
X49144412Y-56679689D01*
X49248631Y-56713553D01*
X49481903Y-56750500D01*
X49481908Y-56750500D01*
X49718097Y-56750500D01*
X49951368Y-56713553D01*
X50175992Y-56640568D01*
X50386433Y-56533343D01*
X50577510Y-56394517D01*
X50744517Y-56227510D01*
X50883343Y-56036433D01*
X50990568Y-55825992D01*
X51063553Y-55601368D01*
X51100500Y-55368097D01*
X51100500Y-55131902D01*
X54599500Y-55131902D01*
X54599500Y-55368097D01*
X54636446Y-55601368D01*
X54709433Y-55825996D01*
X54796667Y-55997200D01*
X54816657Y-56036433D01*
X54955483Y-56227510D01*
X55122490Y-56394517D01*
X55313567Y-56533343D01*
X55412991Y-56584002D01*
X55524003Y-56640566D01*
X55524005Y-56640566D01*
X55524008Y-56640568D01*
X55644412Y-56679689D01*
X55748631Y-56713553D01*
X55981903Y-56750500D01*
X55981908Y-56750500D01*
X56218097Y-56750500D01*
X56451368Y-56713553D01*
X56675992Y-56640568D01*
X56886433Y-56533343D01*
X57077510Y-56394517D01*
X57244517Y-56227510D01*
X57337171Y-56099983D01*
X86124500Y-56099983D01*
X86124500Y-56900001D01*
X86124501Y-56900019D01*
X86135000Y-57002796D01*
X86135001Y-57002799D01*
X86161496Y-57082754D01*
X86190186Y-57169334D01*
X86282288Y-57318656D01*
X86406344Y-57442712D01*
X86470543Y-57482310D01*
X86517268Y-57534258D01*
X86528489Y-57603221D01*
X86500646Y-57667303D01*
X86493128Y-57675530D01*
X86385585Y-57783073D01*
X86283768Y-57923211D01*
X86205128Y-58077552D01*
X86151597Y-58242302D01*
X86124500Y-58413389D01*
X86124500Y-58586610D01*
X86145031Y-58716243D01*
X86151598Y-58757701D01*
X86205127Y-58922445D01*
X86283768Y-59076788D01*
X86385586Y-59216928D01*
X86508072Y-59339414D01*
X86648212Y-59441232D01*
X86802555Y-59519873D01*
X86967299Y-59573402D01*
X87138389Y-59600500D01*
X87138390Y-59600500D01*
X87861610Y-59600500D01*
X87861611Y-59600500D01*
X88032701Y-59573402D01*
X88197445Y-59519873D01*
X88351788Y-59441232D01*
X88491928Y-59339414D01*
X88614414Y-59216928D01*
X88716232Y-59076788D01*
X88794873Y-58922445D01*
X88848402Y-58757701D01*
X88875500Y-58586611D01*
X88875500Y-58413389D01*
X88848402Y-58242299D01*
X88794873Y-58077555D01*
X88716232Y-57923212D01*
X88614414Y-57783072D01*
X88506872Y-57675530D01*
X88473387Y-57614207D01*
X88478371Y-57544515D01*
X88520243Y-57488582D01*
X88529457Y-57482310D01*
X88593656Y-57442712D01*
X88717712Y-57318656D01*
X88809814Y-57169334D01*
X88864999Y-57002797D01*
X88875500Y-56900009D01*
X88875499Y-56099992D01*
X88864999Y-55997203D01*
X88809814Y-55830666D01*
X88717712Y-55681344D01*
X88593656Y-55557288D01*
X88444334Y-55465186D01*
X88277797Y-55410001D01*
X88277795Y-55410000D01*
X88175010Y-55399500D01*
X86824998Y-55399500D01*
X86824981Y-55399501D01*
X86722203Y-55410000D01*
X86722200Y-55410001D01*
X86555668Y-55465185D01*
X86555663Y-55465187D01*
X86406342Y-55557289D01*
X86282289Y-55681342D01*
X86190187Y-55830663D01*
X86190186Y-55830666D01*
X86135001Y-55997203D01*
X86135001Y-55997204D01*
X86135000Y-55997204D01*
X86124500Y-56099983D01*
X57337171Y-56099983D01*
X57383343Y-56036433D01*
X57488185Y-55830668D01*
X57490566Y-55825996D01*
X57490566Y-55825995D01*
X57490568Y-55825992D01*
X57563553Y-55601368D01*
X57600500Y-55368097D01*
X57600500Y-55131902D01*
X57563553Y-54898631D01*
X57490566Y-54674003D01*
X57383342Y-54463566D01*
X57244517Y-54272490D01*
X57077510Y-54105483D01*
X56886433Y-53966657D01*
X56675996Y-53859433D01*
X56451368Y-53786446D01*
X56218097Y-53749500D01*
X56218092Y-53749500D01*
X55981908Y-53749500D01*
X55981903Y-53749500D01*
X55748631Y-53786446D01*
X55524003Y-53859433D01*
X55313566Y-53966657D01*
X55204550Y-54045862D01*
X55122490Y-54105483D01*
X55122488Y-54105485D01*
X55122487Y-54105485D01*
X54955485Y-54272487D01*
X54955485Y-54272488D01*
X54955483Y-54272490D01*
X54895862Y-54354550D01*
X54816657Y-54463566D01*
X54709433Y-54674003D01*
X54636446Y-54898631D01*
X54599500Y-55131902D01*
X51100500Y-55131902D01*
X51063553Y-54898631D01*
X50990566Y-54674003D01*
X50883342Y-54463566D01*
X50744517Y-54272490D01*
X50577510Y-54105483D01*
X50386433Y-53966657D01*
X50175996Y-53859433D01*
X49951368Y-53786446D01*
X49718097Y-53749500D01*
X49718092Y-53749500D01*
X49481908Y-53749500D01*
X49481903Y-53749500D01*
X49248631Y-53786446D01*
X49024003Y-53859433D01*
X48813566Y-53966657D01*
X48704550Y-54045862D01*
X48622490Y-54105483D01*
X48622488Y-54105485D01*
X48622487Y-54105485D01*
X48455485Y-54272487D01*
X48455485Y-54272488D01*
X48455483Y-54272490D01*
X48395862Y-54354550D01*
X48316657Y-54463566D01*
X48209433Y-54674003D01*
X48136446Y-54898631D01*
X48099500Y-55131902D01*
X12501599Y-55131902D01*
X12503234Y-51897648D01*
X31419500Y-51897648D01*
X31419500Y-52502351D01*
X31451522Y-52704534D01*
X31514781Y-52899223D01*
X31607715Y-53081613D01*
X31728028Y-53247213D01*
X31872786Y-53391971D01*
X32027749Y-53504556D01*
X32038390Y-53512287D01*
X32154607Y-53571503D01*
X32220776Y-53605218D01*
X32220778Y-53605218D01*
X32220781Y-53605220D01*
X32325137Y-53639127D01*
X32415465Y-53668477D01*
X32516557Y-53684488D01*
X32617648Y-53700500D01*
X32617649Y-53700500D01*
X32822351Y-53700500D01*
X32822352Y-53700500D01*
X33024534Y-53668477D01*
X33219219Y-53605220D01*
X33401610Y-53512287D01*
X33494590Y-53444732D01*
X33567213Y-53391971D01*
X33567215Y-53391968D01*
X33567219Y-53391966D01*
X33711966Y-53247219D01*
X33711968Y-53247215D01*
X33711971Y-53247213D01*
X33832284Y-53081614D01*
X33832285Y-53081613D01*
X33832287Y-53081610D01*
X33879516Y-52988917D01*
X33927489Y-52938123D01*
X33995310Y-52921328D01*
X34061445Y-52943865D01*
X34100485Y-52988919D01*
X34147715Y-53081614D01*
X34268028Y-53247213D01*
X34412786Y-53391971D01*
X34567749Y-53504556D01*
X34578390Y-53512287D01*
X34694607Y-53571503D01*
X34760776Y-53605218D01*
X34760778Y-53605218D01*
X34760781Y-53605220D01*
X34865137Y-53639127D01*
X34955465Y-53668477D01*
X35056557Y-53684488D01*
X35157648Y-53700500D01*
X35157649Y-53700500D01*
X35362351Y-53700500D01*
X35362352Y-53700500D01*
X35564534Y-53668477D01*
X35759219Y-53605220D01*
X35941610Y-53512287D01*
X36034590Y-53444732D01*
X36107213Y-53391971D01*
X36107215Y-53391968D01*
X36107219Y-53391966D01*
X36251966Y-53247219D01*
X36251968Y-53247215D01*
X36251971Y-53247213D01*
X36372284Y-53081614D01*
X36372285Y-53081613D01*
X36372287Y-53081610D01*
X36419516Y-52988917D01*
X36467489Y-52938123D01*
X36535310Y-52921328D01*
X36601445Y-52943865D01*
X36640485Y-52988919D01*
X36687715Y-53081614D01*
X36808028Y-53247213D01*
X36952786Y-53391971D01*
X37107749Y-53504556D01*
X37118390Y-53512287D01*
X37234607Y-53571503D01*
X37300776Y-53605218D01*
X37300778Y-53605218D01*
X37300781Y-53605220D01*
X37405137Y-53639127D01*
X37495465Y-53668477D01*
X37596557Y-53684488D01*
X37697648Y-53700500D01*
X37697649Y-53700500D01*
X37902351Y-53700500D01*
X37902352Y-53700500D01*
X38104534Y-53668477D01*
X38299219Y-53605220D01*
X38481610Y-53512287D01*
X38574590Y-53444732D01*
X38647213Y-53391971D01*
X38647215Y-53391968D01*
X38647219Y-53391966D01*
X38791966Y-53247219D01*
X38791968Y-53247215D01*
X38791971Y-53247213D01*
X38844732Y-53174590D01*
X38912287Y-53081610D01*
X39005220Y-52899219D01*
X39068477Y-52704534D01*
X39100500Y-52502352D01*
X39100500Y-51897648D01*
X39100263Y-51896153D01*
X58726295Y-51896153D01*
X58726295Y-52053846D01*
X58757056Y-52208489D01*
X58757059Y-52208501D01*
X58817397Y-52354172D01*
X58817404Y-52354185D01*
X58905005Y-52485288D01*
X58905008Y-52485292D01*
X59016502Y-52596786D01*
X59016506Y-52596789D01*
X59147609Y-52684390D01*
X59147622Y-52684397D01*
X59293293Y-52744735D01*
X59293298Y-52744737D01*
X59447948Y-52775499D01*
X59447951Y-52775500D01*
X59447953Y-52775500D01*
X59605639Y-52775500D01*
X59605640Y-52775499D01*
X59760292Y-52744737D01*
X59905974Y-52684394D01*
X60037084Y-52596789D01*
X60148584Y-52485289D01*
X60236189Y-52354179D01*
X60296532Y-52208497D01*
X60327295Y-52053842D01*
X60327295Y-51896158D01*
X60327295Y-51896155D01*
X60327294Y-51896153D01*
X60296533Y-51741510D01*
X60296532Y-51741503D01*
X60277463Y-51695465D01*
X60236192Y-51595827D01*
X60236185Y-51595814D01*
X60148584Y-51464711D01*
X60148581Y-51464707D01*
X60037087Y-51353213D01*
X60037083Y-51353210D01*
X59905980Y-51265609D01*
X59905967Y-51265602D01*
X59760296Y-51205264D01*
X59760284Y-51205261D01*
X59605640Y-51174500D01*
X59605637Y-51174500D01*
X59447953Y-51174500D01*
X59447950Y-51174500D01*
X59293305Y-51205261D01*
X59293293Y-51205264D01*
X59147622Y-51265602D01*
X59147609Y-51265609D01*
X59016506Y-51353210D01*
X59016502Y-51353213D01*
X58905008Y-51464707D01*
X58905005Y-51464711D01*
X58817404Y-51595814D01*
X58817397Y-51595827D01*
X58757059Y-51741498D01*
X58757056Y-51741510D01*
X58726295Y-51896153D01*
X39100263Y-51896153D01*
X39068477Y-51695466D01*
X39005220Y-51500781D01*
X39005218Y-51500778D01*
X39005218Y-51500776D01*
X38930029Y-51353211D01*
X38912287Y-51318390D01*
X38873940Y-51265609D01*
X38791971Y-51152786D01*
X38647213Y-51008028D01*
X38481613Y-50887715D01*
X38481612Y-50887714D01*
X38481610Y-50887713D01*
X38424653Y-50858691D01*
X38299223Y-50794781D01*
X38104534Y-50731522D01*
X37929995Y-50703878D01*
X37902352Y-50699500D01*
X37697648Y-50699500D01*
X37673329Y-50703351D01*
X37495465Y-50731522D01*
X37300776Y-50794781D01*
X37118386Y-50887715D01*
X36952786Y-51008028D01*
X36808028Y-51152786D01*
X36687715Y-51318386D01*
X36640485Y-51411080D01*
X36592510Y-51461876D01*
X36524689Y-51478671D01*
X36458554Y-51456134D01*
X36419515Y-51411080D01*
X36390029Y-51353211D01*
X36372287Y-51318390D01*
X36333940Y-51265609D01*
X36251971Y-51152786D01*
X36107213Y-51008028D01*
X35941613Y-50887715D01*
X35941612Y-50887714D01*
X35941610Y-50887713D01*
X35884653Y-50858691D01*
X35759223Y-50794781D01*
X35564534Y-50731522D01*
X35389995Y-50703878D01*
X35362352Y-50699500D01*
X35157648Y-50699500D01*
X35133329Y-50703351D01*
X34955465Y-50731522D01*
X34760776Y-50794781D01*
X34578386Y-50887715D01*
X34412786Y-51008028D01*
X34268028Y-51152786D01*
X34147715Y-51318386D01*
X34100485Y-51411080D01*
X34052510Y-51461876D01*
X33984689Y-51478671D01*
X33918554Y-51456134D01*
X33879515Y-51411080D01*
X33850029Y-51353211D01*
X33832287Y-51318390D01*
X33793940Y-51265609D01*
X33711971Y-51152786D01*
X33567213Y-51008028D01*
X33401613Y-50887715D01*
X33401612Y-50887714D01*
X33401610Y-50887713D01*
X33344653Y-50858691D01*
X33219223Y-50794781D01*
X33024534Y-50731522D01*
X32849995Y-50703878D01*
X32822352Y-50699500D01*
X32617648Y-50699500D01*
X32593329Y-50703351D01*
X32415465Y-50731522D01*
X32220776Y-50794781D01*
X32038386Y-50887715D01*
X31872786Y-51008028D01*
X31728028Y-51152786D01*
X31607715Y-51318386D01*
X31514781Y-51500776D01*
X31451522Y-51695465D01*
X31419500Y-51897648D01*
X12503234Y-51897648D01*
X12504082Y-50221153D01*
X66199500Y-50221153D01*
X66199500Y-50378846D01*
X66230261Y-50533489D01*
X66230264Y-50533501D01*
X66290602Y-50679172D01*
X66290609Y-50679185D01*
X66378210Y-50810288D01*
X66378213Y-50810292D01*
X66489707Y-50921786D01*
X66489711Y-50921789D01*
X66620814Y-51009390D01*
X66620827Y-51009397D01*
X66766498Y-51069735D01*
X66766503Y-51069737D01*
X66921153Y-51100499D01*
X66921156Y-51100500D01*
X66921158Y-51100500D01*
X67078844Y-51100500D01*
X67078845Y-51100499D01*
X67233497Y-51069737D01*
X67379179Y-51009394D01*
X67381223Y-51008028D01*
X67510875Y-50921398D01*
X67577553Y-50900520D01*
X67579766Y-50900500D01*
X69210887Y-50900500D01*
X69277926Y-50920185D01*
X69280790Y-50922269D01*
X69280808Y-50922243D01*
X69416976Y-51013228D01*
X69416989Y-51013235D01*
X69562660Y-51073573D01*
X69562665Y-51073575D01*
X69698020Y-51100499D01*
X69717315Y-51104337D01*
X69717318Y-51104338D01*
X69717320Y-51104338D01*
X69875006Y-51104338D01*
X69875007Y-51104337D01*
X70029659Y-51073575D01*
X70142328Y-51026905D01*
X70175334Y-51013235D01*
X70175334Y-51013234D01*
X70175341Y-51013232D01*
X70306451Y-50925627D01*
X70417951Y-50814127D01*
X70505556Y-50683017D01*
X70565899Y-50537335D01*
X70596662Y-50382680D01*
X70596662Y-50319171D01*
X82897518Y-50319171D01*
X82897518Y-50476864D01*
X82928279Y-50631507D01*
X82928282Y-50631519D01*
X82988620Y-50777190D01*
X82988627Y-50777203D01*
X83076228Y-50908306D01*
X83076231Y-50908310D01*
X83187725Y-51019804D01*
X83187729Y-51019807D01*
X83318832Y-51107408D01*
X83318845Y-51107415D01*
X83428370Y-51152781D01*
X83464521Y-51167755D01*
X83619171Y-51198517D01*
X83619174Y-51198518D01*
X83619176Y-51198518D01*
X83776862Y-51198518D01*
X83776863Y-51198517D01*
X83931515Y-51167755D01*
X84077197Y-51107412D01*
X84208307Y-51019807D01*
X84319807Y-50908307D01*
X84407412Y-50777197D01*
X84467755Y-50631515D01*
X84487254Y-50533489D01*
X84498656Y-50476168D01*
X84531041Y-50414257D01*
X84532539Y-50412731D01*
X85258506Y-49686763D01*
X85258511Y-49686760D01*
X85268714Y-49676556D01*
X85268716Y-49676556D01*
X85380520Y-49564752D01*
X85442096Y-49458099D01*
X85459577Y-49427821D01*
X85500500Y-49275094D01*
X85500500Y-49116979D01*
X85500500Y-47900097D01*
X85520185Y-47833058D01*
X85536819Y-47812416D01*
X85812416Y-47536819D01*
X85839343Y-47522115D01*
X85865162Y-47505523D01*
X85871362Y-47504631D01*
X85873739Y-47503334D01*
X85900097Y-47500500D01*
X86079092Y-47500500D01*
X86146131Y-47520185D01*
X86184636Y-47564271D01*
X86186395Y-47563187D01*
X86190185Y-47569331D01*
X86190186Y-47569334D01*
X86282288Y-47718656D01*
X86406344Y-47842712D01*
X86470543Y-47882310D01*
X86517268Y-47934258D01*
X86528489Y-48003221D01*
X86500646Y-48067303D01*
X86493128Y-48075530D01*
X86385585Y-48183073D01*
X86283768Y-48323211D01*
X86205128Y-48477552D01*
X86151597Y-48642302D01*
X86124500Y-48813389D01*
X86124500Y-48986611D01*
X86151598Y-49157701D01*
X86205127Y-49322445D01*
X86283768Y-49476788D01*
X86385586Y-49616928D01*
X86508072Y-49739414D01*
X86648212Y-49841232D01*
X86802555Y-49919873D01*
X86967299Y-49973402D01*
X87138389Y-50000500D01*
X87138390Y-50000500D01*
X87861610Y-50000500D01*
X87861611Y-50000500D01*
X88032701Y-49973402D01*
X88197445Y-49919873D01*
X88351788Y-49841232D01*
X88491928Y-49739414D01*
X88614414Y-49616928D01*
X88716232Y-49476788D01*
X88794873Y-49322445D01*
X88848402Y-49157701D01*
X88875500Y-48986611D01*
X88875500Y-48813389D01*
X88848402Y-48642299D01*
X88794873Y-48477555D01*
X88716232Y-48323212D01*
X88614414Y-48183072D01*
X88506872Y-48075530D01*
X88473387Y-48014207D01*
X88478371Y-47944515D01*
X88520243Y-47888582D01*
X88529457Y-47882310D01*
X88593656Y-47842712D01*
X88717712Y-47718656D01*
X88809814Y-47569334D01*
X88864999Y-47402797D01*
X88875500Y-47300009D01*
X88875499Y-46499992D01*
X88864999Y-46397203D01*
X88809814Y-46230666D01*
X88717712Y-46081344D01*
X88593656Y-45957288D01*
X88444334Y-45865186D01*
X88277797Y-45810001D01*
X88277795Y-45810000D01*
X88175010Y-45799500D01*
X86824998Y-45799500D01*
X86824981Y-45799501D01*
X86722203Y-45810000D01*
X86722200Y-45810001D01*
X86555668Y-45865185D01*
X86555663Y-45865187D01*
X86406342Y-45957289D01*
X86282289Y-46081342D01*
X86186395Y-46236813D01*
X86184600Y-46235706D01*
X86145313Y-46280337D01*
X86079092Y-46299500D01*
X85520940Y-46299500D01*
X85480019Y-46310464D01*
X85480019Y-46310465D01*
X85442751Y-46320451D01*
X85368214Y-46340423D01*
X85368209Y-46340426D01*
X85231290Y-46419475D01*
X85231282Y-46419481D01*
X84419479Y-47231284D01*
X84404289Y-47257594D01*
X84397869Y-47268716D01*
X84340423Y-47368215D01*
X84299499Y-47520943D01*
X84299499Y-47520945D01*
X84299499Y-47689046D01*
X84299500Y-47689059D01*
X84299500Y-48895939D01*
X84279815Y-48962978D01*
X84263181Y-48983620D01*
X83683357Y-49563443D01*
X83622034Y-49596928D01*
X83619868Y-49597379D01*
X83464526Y-49628279D01*
X83464516Y-49628282D01*
X83318845Y-49688620D01*
X83318832Y-49688627D01*
X83187729Y-49776228D01*
X83187725Y-49776231D01*
X83076231Y-49887725D01*
X83076228Y-49887729D01*
X82988627Y-50018832D01*
X82988620Y-50018845D01*
X82928282Y-50164516D01*
X82928279Y-50164528D01*
X82897518Y-50319171D01*
X70596662Y-50319171D01*
X70596662Y-50224996D01*
X70596662Y-50224993D01*
X70596661Y-50224991D01*
X70565900Y-50070348D01*
X70565899Y-50070341D01*
X70544569Y-50018845D01*
X70505559Y-49924665D01*
X70505552Y-49924652D01*
X70417951Y-49793549D01*
X70417948Y-49793545D01*
X70306454Y-49682051D01*
X70306450Y-49682048D01*
X70175347Y-49594447D01*
X70175334Y-49594440D01*
X70029663Y-49534102D01*
X70029651Y-49534099D01*
X69875007Y-49503338D01*
X69875004Y-49503338D01*
X69717320Y-49503338D01*
X69717317Y-49503338D01*
X69562672Y-49534099D01*
X69562660Y-49534102D01*
X69416989Y-49594440D01*
X69416976Y-49594447D01*
X69291031Y-49678602D01*
X69224353Y-49699480D01*
X69222140Y-49699500D01*
X67579766Y-49699500D01*
X67512727Y-49679815D01*
X67510875Y-49678602D01*
X67379185Y-49590609D01*
X67379172Y-49590602D01*
X67233501Y-49530264D01*
X67233489Y-49530261D01*
X67078845Y-49499500D01*
X67078842Y-49499500D01*
X66921158Y-49499500D01*
X66921155Y-49499500D01*
X66766510Y-49530261D01*
X66766498Y-49530264D01*
X66620827Y-49590602D01*
X66620814Y-49590609D01*
X66489711Y-49678210D01*
X66489707Y-49678213D01*
X66378213Y-49789707D01*
X66378210Y-49789711D01*
X66290609Y-49920814D01*
X66290602Y-49920827D01*
X66230264Y-50066498D01*
X66230261Y-50066510D01*
X66199500Y-50221153D01*
X12504082Y-50221153D01*
X12507149Y-44155853D01*
X76837000Y-44155853D01*
X76837000Y-44313546D01*
X76867761Y-44468189D01*
X76867764Y-44468201D01*
X76928102Y-44613872D01*
X76928109Y-44613885D01*
X77015710Y-44744988D01*
X77015713Y-44744992D01*
X77127207Y-44856486D01*
X77127211Y-44856489D01*
X77258314Y-44944090D01*
X77258327Y-44944097D01*
X77403998Y-45004435D01*
X77404003Y-45004437D01*
X77558653Y-45035199D01*
X77558656Y-45035200D01*
X77558658Y-45035200D01*
X77716344Y-45035200D01*
X77716345Y-45035199D01*
X77870997Y-45004437D01*
X78016679Y-44944094D01*
X78147789Y-44856489D01*
X78259289Y-44744989D01*
X78346894Y-44613879D01*
X78407237Y-44468197D01*
X78438000Y-44313542D01*
X78438000Y-44155858D01*
X78438000Y-44155855D01*
X78437999Y-44155853D01*
X78407238Y-44001210D01*
X78407237Y-44001203D01*
X78407235Y-44001198D01*
X78346897Y-43855527D01*
X78346890Y-43855514D01*
X78259289Y-43724411D01*
X78259286Y-43724407D01*
X78147792Y-43612913D01*
X78147788Y-43612910D01*
X78016685Y-43525309D01*
X78016672Y-43525302D01*
X77871001Y-43464964D01*
X77870989Y-43464961D01*
X77716345Y-43434200D01*
X77716342Y-43434200D01*
X77558658Y-43434200D01*
X77558655Y-43434200D01*
X77404010Y-43464961D01*
X77403998Y-43464964D01*
X77258327Y-43525302D01*
X77258314Y-43525309D01*
X77127211Y-43612910D01*
X77127207Y-43612913D01*
X77015713Y-43724407D01*
X77015710Y-43724411D01*
X76928109Y-43855514D01*
X76928102Y-43855527D01*
X76867764Y-44001198D01*
X76867761Y-44001210D01*
X76837000Y-44155853D01*
X12507149Y-44155853D01*
X12508864Y-40765186D01*
X20999500Y-40765186D01*
X20999500Y-41034813D01*
X21029686Y-41302719D01*
X21029688Y-41302731D01*
X21089684Y-41565594D01*
X21089687Y-41565602D01*
X21178734Y-41820082D01*
X21295714Y-42062994D01*
X21295716Y-42062997D01*
X21439162Y-42291289D01*
X21607266Y-42502085D01*
X21797915Y-42692734D01*
X22008711Y-42860838D01*
X22237003Y-43004284D01*
X22479921Y-43121267D01*
X22671049Y-43188145D01*
X22734397Y-43210312D01*
X22734405Y-43210315D01*
X22734408Y-43210315D01*
X22734409Y-43210316D01*
X22997268Y-43270312D01*
X23265187Y-43300499D01*
X23265188Y-43300500D01*
X23265191Y-43300500D01*
X23534812Y-43300500D01*
X23534812Y-43300499D01*
X23802732Y-43270312D01*
X24065591Y-43210316D01*
X24320079Y-43121267D01*
X24562997Y-43004284D01*
X24791289Y-42860838D01*
X25002085Y-42692734D01*
X25192734Y-42502085D01*
X25197465Y-42496153D01*
X62787000Y-42496153D01*
X62787000Y-42653846D01*
X62817761Y-42808489D01*
X62817764Y-42808501D01*
X62878102Y-42954172D01*
X62878109Y-42954185D01*
X62965710Y-43085288D01*
X62965713Y-43085292D01*
X63077207Y-43196786D01*
X63077211Y-43196789D01*
X63208314Y-43284390D01*
X63208327Y-43284397D01*
X63353998Y-43344735D01*
X63354003Y-43344737D01*
X63508653Y-43375499D01*
X63508656Y-43375500D01*
X63508658Y-43375500D01*
X63666344Y-43375500D01*
X63666345Y-43375499D01*
X63820997Y-43344737D01*
X63966679Y-43284394D01*
X64097789Y-43196789D01*
X64209289Y-43085289D01*
X64296894Y-42954179D01*
X64357237Y-42808497D01*
X64388000Y-42653842D01*
X64388000Y-42496158D01*
X64388000Y-42496155D01*
X64387999Y-42496153D01*
X64357237Y-42341503D01*
X64336437Y-42291287D01*
X64296897Y-42195827D01*
X64296890Y-42195814D01*
X64209289Y-42064711D01*
X64209286Y-42064707D01*
X64097792Y-41953213D01*
X64097788Y-41953210D01*
X63966685Y-41865609D01*
X63966672Y-41865602D01*
X63821001Y-41805264D01*
X63820989Y-41805261D01*
X63666345Y-41774500D01*
X63666342Y-41774500D01*
X63508658Y-41774500D01*
X63508655Y-41774500D01*
X63354010Y-41805261D01*
X63353998Y-41805264D01*
X63208327Y-41865602D01*
X63208314Y-41865609D01*
X63077211Y-41953210D01*
X63077207Y-41953213D01*
X62965713Y-42064707D01*
X62965710Y-42064711D01*
X62878109Y-42195814D01*
X62878102Y-42195827D01*
X62817764Y-42341498D01*
X62817761Y-42341510D01*
X62787000Y-42496153D01*
X25197465Y-42496153D01*
X25360838Y-42291289D01*
X25504284Y-42062997D01*
X25621267Y-41820079D01*
X25710316Y-41565591D01*
X25770312Y-41302732D01*
X25793588Y-41096155D01*
X25793588Y-41096153D01*
X85037000Y-41096153D01*
X85037000Y-41253846D01*
X85067761Y-41408489D01*
X85067764Y-41408501D01*
X85128102Y-41554172D01*
X85128109Y-41554185D01*
X85215710Y-41685288D01*
X85215713Y-41685292D01*
X85327207Y-41796786D01*
X85327211Y-41796789D01*
X85458314Y-41884390D01*
X85458327Y-41884397D01*
X85603998Y-41944735D01*
X85604003Y-41944737D01*
X85758653Y-41975499D01*
X85758656Y-41975500D01*
X85758658Y-41975500D01*
X85916344Y-41975500D01*
X85916345Y-41975499D01*
X86070997Y-41944737D01*
X86216679Y-41884394D01*
X86347789Y-41796789D01*
X86459289Y-41685289D01*
X86546894Y-41554179D01*
X86607237Y-41408497D01*
X86638000Y-41253842D01*
X86638000Y-41096158D01*
X86638000Y-41096155D01*
X86637999Y-41096153D01*
X86625798Y-41034815D01*
X86607237Y-40941503D01*
X86607235Y-40941498D01*
X86546897Y-40795827D01*
X86546890Y-40795814D01*
X86459289Y-40664711D01*
X86459286Y-40664707D01*
X86347792Y-40553213D01*
X86347788Y-40553210D01*
X86216685Y-40465609D01*
X86216672Y-40465602D01*
X86071001Y-40405264D01*
X86070989Y-40405261D01*
X85916345Y-40374500D01*
X85916342Y-40374500D01*
X85758658Y-40374500D01*
X85758655Y-40374500D01*
X85604010Y-40405261D01*
X85603998Y-40405264D01*
X85458327Y-40465602D01*
X85458314Y-40465609D01*
X85327211Y-40553210D01*
X85327207Y-40553213D01*
X85215713Y-40664707D01*
X85215710Y-40664711D01*
X85128109Y-40795814D01*
X85128102Y-40795827D01*
X85067764Y-40941498D01*
X85067761Y-40941510D01*
X85037000Y-41096153D01*
X25793588Y-41096153D01*
X25795839Y-41076182D01*
X25795839Y-41076181D01*
X25800499Y-41034815D01*
X25800500Y-41034813D01*
X25800500Y-41034809D01*
X25800500Y-40765191D01*
X25770312Y-40497268D01*
X25710316Y-40234409D01*
X25621267Y-39979921D01*
X25504284Y-39737003D01*
X25360838Y-39508711D01*
X25192734Y-39297915D01*
X25153470Y-39258651D01*
X64674328Y-39258651D01*
X64674328Y-39416344D01*
X64705089Y-39570987D01*
X64705092Y-39570999D01*
X64765430Y-39716670D01*
X64765437Y-39716683D01*
X64853038Y-39847786D01*
X64853041Y-39847790D01*
X64964535Y-39959284D01*
X64964539Y-39959287D01*
X65095642Y-40046888D01*
X65095655Y-40046895D01*
X65241326Y-40107233D01*
X65241331Y-40107235D01*
X65395981Y-40137997D01*
X65395984Y-40137998D01*
X65395986Y-40137998D01*
X65553672Y-40137998D01*
X65553673Y-40137997D01*
X65708325Y-40107235D01*
X65854007Y-40046892D01*
X65985117Y-39959287D01*
X66096617Y-39847787D01*
X66184222Y-39716677D01*
X66244565Y-39570995D01*
X66252139Y-39532918D01*
X67825235Y-39532918D01*
X67825235Y-39690611D01*
X67855996Y-39845254D01*
X67855999Y-39845266D01*
X67916337Y-39990937D01*
X67916344Y-39990950D01*
X68003945Y-40122053D01*
X68003948Y-40122057D01*
X68115442Y-40233551D01*
X68115446Y-40233554D01*
X68246549Y-40321155D01*
X68246562Y-40321162D01*
X68392233Y-40381500D01*
X68392238Y-40381502D01*
X68511682Y-40405261D01*
X68546888Y-40412264D01*
X68546891Y-40412265D01*
X68546893Y-40412265D01*
X68704579Y-40412265D01*
X68704580Y-40412264D01*
X68859232Y-40381502D01*
X69004914Y-40321159D01*
X69136024Y-40233554D01*
X69247524Y-40122054D01*
X69335129Y-39990944D01*
X69339697Y-39979917D01*
X69394426Y-39847787D01*
X69395472Y-39845262D01*
X69426235Y-39690607D01*
X69426235Y-39532923D01*
X69426235Y-39532920D01*
X69426234Y-39532918D01*
X69395473Y-39378275D01*
X69395472Y-39378268D01*
X69362189Y-39297915D01*
X69335132Y-39232592D01*
X69335125Y-39232579D01*
X69247524Y-39101476D01*
X69247521Y-39101472D01*
X69136027Y-38989978D01*
X69136023Y-38989975D01*
X69004920Y-38902374D01*
X69004907Y-38902367D01*
X68859236Y-38842029D01*
X68859224Y-38842026D01*
X68704580Y-38811265D01*
X68704577Y-38811265D01*
X68546893Y-38811265D01*
X68546890Y-38811265D01*
X68392245Y-38842026D01*
X68392233Y-38842029D01*
X68246562Y-38902367D01*
X68246549Y-38902374D01*
X68115446Y-38989975D01*
X68115442Y-38989978D01*
X68003948Y-39101472D01*
X68003945Y-39101476D01*
X67916344Y-39232579D01*
X67916337Y-39232592D01*
X67855999Y-39378263D01*
X67855996Y-39378275D01*
X67825235Y-39532918D01*
X66252139Y-39532918D01*
X66258162Y-39502639D01*
X66275328Y-39416342D01*
X66275328Y-39258653D01*
X66275327Y-39258651D01*
X66244565Y-39104001D01*
X66243519Y-39101476D01*
X66184225Y-38958325D01*
X66184218Y-38958312D01*
X66096617Y-38827209D01*
X66096614Y-38827205D01*
X65985120Y-38715711D01*
X65985116Y-38715708D01*
X65854013Y-38628107D01*
X65854000Y-38628100D01*
X65708329Y-38567762D01*
X65708317Y-38567759D01*
X65553673Y-38536998D01*
X65553670Y-38536998D01*
X65395986Y-38536998D01*
X65395983Y-38536998D01*
X65241338Y-38567759D01*
X65241326Y-38567762D01*
X65095655Y-38628100D01*
X65095642Y-38628107D01*
X64964539Y-38715708D01*
X64964535Y-38715711D01*
X64853041Y-38827205D01*
X64853038Y-38827209D01*
X64765437Y-38958312D01*
X64765430Y-38958325D01*
X64705092Y-39103996D01*
X64705089Y-39104008D01*
X64674328Y-39258651D01*
X25153470Y-39258651D01*
X25002085Y-39107266D01*
X24791289Y-38939162D01*
X24562997Y-38795716D01*
X24562994Y-38795714D01*
X24320082Y-38678734D01*
X24065602Y-38589687D01*
X24065594Y-38589684D01*
X23834759Y-38536998D01*
X23802732Y-38529688D01*
X23802728Y-38529687D01*
X23802719Y-38529686D01*
X23534813Y-38499500D01*
X23534809Y-38499500D01*
X23265191Y-38499500D01*
X23265186Y-38499500D01*
X22997280Y-38529686D01*
X22997268Y-38529688D01*
X22734405Y-38589684D01*
X22734397Y-38589687D01*
X22479917Y-38678734D01*
X22237005Y-38795714D01*
X22008712Y-38939161D01*
X21797915Y-39107265D01*
X21607265Y-39297915D01*
X21439161Y-39508712D01*
X21295714Y-39737005D01*
X21178734Y-39979917D01*
X21089687Y-40234397D01*
X21089684Y-40234405D01*
X21029688Y-40497268D01*
X21029686Y-40497280D01*
X20999500Y-40765186D01*
X12508864Y-40765186D01*
X12510921Y-36696153D01*
X77237000Y-36696153D01*
X77237000Y-36853846D01*
X77267761Y-37008489D01*
X77267764Y-37008501D01*
X77328102Y-37154172D01*
X77328109Y-37154185D01*
X77415710Y-37285288D01*
X77415713Y-37285292D01*
X77527207Y-37396786D01*
X77527211Y-37396789D01*
X77658314Y-37484390D01*
X77658327Y-37484397D01*
X77803998Y-37544735D01*
X77804003Y-37544737D01*
X77958653Y-37575499D01*
X77958656Y-37575500D01*
X77958658Y-37575500D01*
X78116344Y-37575500D01*
X78116345Y-37575499D01*
X78270997Y-37544737D01*
X78416679Y-37484394D01*
X78547789Y-37396789D01*
X78659289Y-37285289D01*
X78746894Y-37154179D01*
X78807237Y-37008497D01*
X78838000Y-36853842D01*
X78838000Y-36696158D01*
X78838000Y-36696155D01*
X78837999Y-36696153D01*
X78807238Y-36541510D01*
X78807237Y-36541503D01*
X78781419Y-36479172D01*
X78746897Y-36395827D01*
X78746890Y-36395814D01*
X78659289Y-36264711D01*
X78659286Y-36264707D01*
X78547792Y-36153213D01*
X78547788Y-36153210D01*
X78495344Y-36118168D01*
X78416685Y-36065609D01*
X78416672Y-36065602D01*
X78309361Y-36021153D01*
X85253667Y-36021153D01*
X85253667Y-36178846D01*
X85284428Y-36333489D01*
X85284431Y-36333501D01*
X85344769Y-36479172D01*
X85344776Y-36479185D01*
X85432377Y-36610288D01*
X85432380Y-36610292D01*
X85543874Y-36721786D01*
X85543878Y-36721789D01*
X85674981Y-36809390D01*
X85674994Y-36809397D01*
X85782305Y-36853846D01*
X85820670Y-36869737D01*
X85975320Y-36900499D01*
X85975323Y-36900500D01*
X85975325Y-36900500D01*
X86133011Y-36900500D01*
X86133012Y-36900499D01*
X86287664Y-36869737D01*
X86433346Y-36809394D01*
X86564456Y-36721789D01*
X86675956Y-36610289D01*
X86763561Y-36479179D01*
X86823904Y-36333497D01*
X86854667Y-36178842D01*
X86854667Y-36021158D01*
X86854667Y-36021155D01*
X86854666Y-36021153D01*
X86823905Y-35866510D01*
X86823904Y-35866503D01*
X86823902Y-35866498D01*
X86763564Y-35720827D01*
X86763557Y-35720814D01*
X86675956Y-35589711D01*
X86675953Y-35589707D01*
X86564459Y-35478213D01*
X86564455Y-35478210D01*
X86433352Y-35390609D01*
X86433339Y-35390602D01*
X86287668Y-35330264D01*
X86287656Y-35330261D01*
X86133012Y-35299500D01*
X86133009Y-35299500D01*
X85975325Y-35299500D01*
X85975322Y-35299500D01*
X85820677Y-35330261D01*
X85820665Y-35330264D01*
X85674994Y-35390602D01*
X85674981Y-35390609D01*
X85543878Y-35478210D01*
X85543874Y-35478213D01*
X85432380Y-35589707D01*
X85432377Y-35589711D01*
X85344776Y-35720814D01*
X85344769Y-35720827D01*
X85284431Y-35866498D01*
X85284428Y-35866510D01*
X85253667Y-36021153D01*
X78309361Y-36021153D01*
X78271001Y-36005264D01*
X78270989Y-36005261D01*
X78116345Y-35974500D01*
X78116342Y-35974500D01*
X77958658Y-35974500D01*
X77958655Y-35974500D01*
X77804010Y-36005261D01*
X77803998Y-36005264D01*
X77658327Y-36065602D01*
X77658314Y-36065609D01*
X77527211Y-36153210D01*
X77527207Y-36153213D01*
X77415713Y-36264707D01*
X77415710Y-36264711D01*
X77328109Y-36395814D01*
X77328102Y-36395827D01*
X77267764Y-36541498D01*
X77267761Y-36541510D01*
X77237000Y-36696153D01*
X12510921Y-36696153D01*
X12511453Y-35644735D01*
X12511882Y-34796153D01*
X79137000Y-34796153D01*
X79137000Y-34953846D01*
X79167761Y-35108489D01*
X79167764Y-35108501D01*
X79228102Y-35254172D01*
X79228109Y-35254185D01*
X79315710Y-35385288D01*
X79315713Y-35385292D01*
X79427207Y-35496786D01*
X79427211Y-35496789D01*
X79558314Y-35584390D01*
X79558327Y-35584397D01*
X79703998Y-35644735D01*
X79704003Y-35644737D01*
X79858653Y-35675499D01*
X79858656Y-35675500D01*
X79858658Y-35675500D01*
X80016344Y-35675500D01*
X80016345Y-35675499D01*
X80170997Y-35644737D01*
X80316679Y-35584394D01*
X80447789Y-35496789D01*
X80559289Y-35385289D01*
X80646894Y-35254179D01*
X80707237Y-35108497D01*
X80738000Y-34953842D01*
X80738000Y-34796158D01*
X80738000Y-34796155D01*
X80737999Y-34796153D01*
X80732745Y-34769738D01*
X80707237Y-34641503D01*
X80699070Y-34621786D01*
X80646897Y-34495827D01*
X80646890Y-34495814D01*
X80559289Y-34364711D01*
X80559286Y-34364707D01*
X80447792Y-34253213D01*
X80447788Y-34253210D01*
X80316685Y-34165609D01*
X80316672Y-34165602D01*
X80171001Y-34105264D01*
X80170989Y-34105261D01*
X80016345Y-34074500D01*
X80016342Y-34074500D01*
X79858658Y-34074500D01*
X79858655Y-34074500D01*
X79704010Y-34105261D01*
X79703998Y-34105264D01*
X79558327Y-34165602D01*
X79558314Y-34165609D01*
X79427211Y-34253210D01*
X79427207Y-34253213D01*
X79315713Y-34364707D01*
X79315710Y-34364711D01*
X79228109Y-34495814D01*
X79228102Y-34495827D01*
X79167764Y-34641498D01*
X79167761Y-34641510D01*
X79137000Y-34796153D01*
X12511882Y-34796153D01*
X12511885Y-34790003D01*
X12512166Y-34233489D01*
X12512324Y-33921153D01*
X84649500Y-33921153D01*
X84649500Y-34078846D01*
X84680261Y-34233489D01*
X84680264Y-34233501D01*
X84740602Y-34379172D01*
X84740609Y-34379185D01*
X84828210Y-34510288D01*
X84828213Y-34510292D01*
X84939707Y-34621786D01*
X84939711Y-34621789D01*
X85070814Y-34709390D01*
X85070827Y-34709397D01*
X85216498Y-34769735D01*
X85216503Y-34769737D01*
X85371153Y-34800499D01*
X85371156Y-34800500D01*
X85371158Y-34800500D01*
X85528844Y-34800500D01*
X85528845Y-34800499D01*
X85683497Y-34769737D01*
X85829179Y-34709394D01*
X85960289Y-34621789D01*
X86071789Y-34510289D01*
X86159394Y-34379179D01*
X86165389Y-34364707D01*
X86211571Y-34253211D01*
X86219737Y-34233497D01*
X86250500Y-34078842D01*
X86250500Y-33921158D01*
X86250500Y-33921155D01*
X86250499Y-33921153D01*
X86249276Y-33915003D01*
X86219737Y-33766503D01*
X86210721Y-33744737D01*
X86159397Y-33620827D01*
X86159390Y-33620814D01*
X86071789Y-33489711D01*
X86071786Y-33489707D01*
X85960292Y-33378213D01*
X85960288Y-33378210D01*
X85829185Y-33290609D01*
X85829172Y-33290602D01*
X85683501Y-33230264D01*
X85683489Y-33230261D01*
X85528845Y-33199500D01*
X85528842Y-33199500D01*
X85371158Y-33199500D01*
X85371155Y-33199500D01*
X85216510Y-33230261D01*
X85216498Y-33230264D01*
X85070827Y-33290602D01*
X85070814Y-33290609D01*
X84939711Y-33378210D01*
X84939707Y-33378213D01*
X84828213Y-33489707D01*
X84828210Y-33489711D01*
X84740609Y-33620814D01*
X84740602Y-33620827D01*
X84680264Y-33766498D01*
X84680261Y-33766510D01*
X84649500Y-33921153D01*
X12512324Y-33921153D01*
X12512842Y-32896153D01*
X81037000Y-32896153D01*
X81037000Y-33053846D01*
X81067761Y-33208489D01*
X81067764Y-33208501D01*
X81128102Y-33354172D01*
X81128109Y-33354185D01*
X81215710Y-33485288D01*
X81215713Y-33485292D01*
X81327207Y-33596786D01*
X81327211Y-33596789D01*
X81458314Y-33684390D01*
X81458327Y-33684397D01*
X81603998Y-33744735D01*
X81604003Y-33744737D01*
X81713463Y-33766510D01*
X81758653Y-33775499D01*
X81758656Y-33775500D01*
X81758658Y-33775500D01*
X81916344Y-33775500D01*
X81916345Y-33775499D01*
X82070997Y-33744737D01*
X82216679Y-33684394D01*
X82347789Y-33596789D01*
X82459289Y-33485289D01*
X82546894Y-33354179D01*
X82607237Y-33208497D01*
X82638000Y-33053842D01*
X82638000Y-32896158D01*
X82638000Y-32896155D01*
X82637999Y-32896153D01*
X82607238Y-32741510D01*
X82607237Y-32741503D01*
X82607235Y-32741498D01*
X82546897Y-32595827D01*
X82546890Y-32595814D01*
X82459289Y-32464711D01*
X82459286Y-32464707D01*
X82347792Y-32353213D01*
X82347788Y-32353210D01*
X82216685Y-32265609D01*
X82216672Y-32265602D01*
X82071001Y-32205264D01*
X82070989Y-32205261D01*
X81916345Y-32174500D01*
X81916342Y-32174500D01*
X81758658Y-32174500D01*
X81758655Y-32174500D01*
X81604010Y-32205261D01*
X81603998Y-32205264D01*
X81458327Y-32265602D01*
X81458314Y-32265609D01*
X81327211Y-32353210D01*
X81327207Y-32353213D01*
X81215713Y-32464707D01*
X81215710Y-32464711D01*
X81128109Y-32595814D01*
X81128102Y-32595827D01*
X81067764Y-32741498D01*
X81067761Y-32741510D01*
X81037000Y-32896153D01*
X12512842Y-32896153D01*
X12514978Y-28671153D01*
X29049500Y-28671153D01*
X29049500Y-28828846D01*
X29080261Y-28983489D01*
X29080264Y-28983501D01*
X29140602Y-29129172D01*
X29140609Y-29129185D01*
X29228210Y-29260288D01*
X29228213Y-29260292D01*
X29339707Y-29371786D01*
X29339711Y-29371789D01*
X29470814Y-29459390D01*
X29470827Y-29459397D01*
X29616498Y-29519735D01*
X29616503Y-29519737D01*
X29771153Y-29550499D01*
X29771156Y-29550500D01*
X29771158Y-29550500D01*
X29928844Y-29550500D01*
X29928845Y-29550499D01*
X30083497Y-29519737D01*
X30229179Y-29459394D01*
X30360289Y-29371789D01*
X30471789Y-29260289D01*
X30559394Y-29129179D01*
X30619737Y-28983497D01*
X30650500Y-28828842D01*
X30650500Y-28671158D01*
X30650500Y-28671155D01*
X30650499Y-28671153D01*
X30619738Y-28516510D01*
X30619737Y-28516503D01*
X30619735Y-28516498D01*
X30559397Y-28370827D01*
X30559390Y-28370814D01*
X30471789Y-28239711D01*
X30471786Y-28239707D01*
X30360292Y-28128213D01*
X30360288Y-28128210D01*
X30229185Y-28040609D01*
X30229172Y-28040602D01*
X30083501Y-27980264D01*
X30083489Y-27980261D01*
X29928845Y-27949500D01*
X29928842Y-27949500D01*
X29771158Y-27949500D01*
X29771155Y-27949500D01*
X29616510Y-27980261D01*
X29616498Y-27980264D01*
X29470827Y-28040602D01*
X29470814Y-28040609D01*
X29339711Y-28128210D01*
X29339707Y-28128213D01*
X29228213Y-28239707D01*
X29228210Y-28239711D01*
X29140609Y-28370814D01*
X29140602Y-28370827D01*
X29080264Y-28516498D01*
X29080261Y-28516510D01*
X29049500Y-28671153D01*
X12514978Y-28671153D01*
X12515863Y-26921153D01*
X16222173Y-26921153D01*
X16222173Y-27078846D01*
X16252934Y-27233489D01*
X16252937Y-27233501D01*
X16313275Y-27379172D01*
X16313282Y-27379185D01*
X16400883Y-27510288D01*
X16400886Y-27510292D01*
X16512380Y-27621786D01*
X16512384Y-27621789D01*
X16643487Y-27709390D01*
X16643500Y-27709397D01*
X16789171Y-27769735D01*
X16789176Y-27769737D01*
X16943826Y-27800499D01*
X16943829Y-27800500D01*
X16943831Y-27800500D01*
X17101517Y-27800500D01*
X17101518Y-27800499D01*
X17256170Y-27769737D01*
X17401852Y-27709394D01*
X17532962Y-27621789D01*
X17644462Y-27510289D01*
X17732067Y-27379179D01*
X17792410Y-27233497D01*
X17823173Y-27078842D01*
X17823173Y-26921158D01*
X17823173Y-26921155D01*
X17823172Y-26921153D01*
X17792411Y-26766510D01*
X17792410Y-26766503D01*
X17792408Y-26766498D01*
X17732070Y-26620827D01*
X17732063Y-26620814D01*
X17644462Y-26489711D01*
X17644459Y-26489707D01*
X17532965Y-26378213D01*
X17532961Y-26378210D01*
X17401858Y-26290609D01*
X17401845Y-26290602D01*
X17256174Y-26230264D01*
X17256162Y-26230261D01*
X17101518Y-26199500D01*
X17101515Y-26199500D01*
X16943831Y-26199500D01*
X16943828Y-26199500D01*
X16789183Y-26230261D01*
X16789171Y-26230264D01*
X16643500Y-26290602D01*
X16643487Y-26290609D01*
X16512384Y-26378210D01*
X16512380Y-26378213D01*
X16400886Y-26489707D01*
X16400883Y-26489711D01*
X16313282Y-26620814D01*
X16313275Y-26620827D01*
X16252937Y-26766498D01*
X16252934Y-26766510D01*
X16222173Y-26921153D01*
X12515863Y-26921153D01*
X12517279Y-24121153D01*
X50999500Y-24121153D01*
X50999500Y-24278846D01*
X51030261Y-24433489D01*
X51030264Y-24433501D01*
X51090602Y-24579172D01*
X51090609Y-24579185D01*
X51178210Y-24710288D01*
X51178213Y-24710292D01*
X51289707Y-24821786D01*
X51289711Y-24821789D01*
X51420814Y-24909390D01*
X51420827Y-24909397D01*
X51566498Y-24969735D01*
X51566503Y-24969737D01*
X51721153Y-25000499D01*
X51721156Y-25000500D01*
X51721158Y-25000500D01*
X51878844Y-25000500D01*
X51878845Y-25000499D01*
X52033497Y-24969737D01*
X52179179Y-24909394D01*
X52310289Y-24821789D01*
X52421789Y-24710289D01*
X52509394Y-24579179D01*
X52569737Y-24433497D01*
X52600500Y-24278842D01*
X52600500Y-24121158D01*
X52600500Y-24121155D01*
X52600499Y-24121153D01*
X52569738Y-23966510D01*
X52569737Y-23966503D01*
X52569735Y-23966498D01*
X52509397Y-23820827D01*
X52509390Y-23820814D01*
X52421789Y-23689711D01*
X52421786Y-23689707D01*
X52310292Y-23578213D01*
X52310288Y-23578210D01*
X52179185Y-23490609D01*
X52179172Y-23490602D01*
X52033501Y-23430264D01*
X52033489Y-23430261D01*
X51878845Y-23399500D01*
X51878842Y-23399500D01*
X51721158Y-23399500D01*
X51721155Y-23399500D01*
X51566510Y-23430261D01*
X51566498Y-23430264D01*
X51420827Y-23490602D01*
X51420814Y-23490609D01*
X51289711Y-23578210D01*
X51289707Y-23578213D01*
X51178213Y-23689707D01*
X51178210Y-23689711D01*
X51090609Y-23820814D01*
X51090602Y-23820827D01*
X51030264Y-23966498D01*
X51030261Y-23966510D01*
X50999500Y-24121153D01*
X12517279Y-24121153D01*
X12518695Y-21321153D01*
X16222173Y-21321153D01*
X16222173Y-21478846D01*
X16252934Y-21633489D01*
X16252937Y-21633501D01*
X16313275Y-21779172D01*
X16313282Y-21779185D01*
X16400883Y-21910288D01*
X16400886Y-21910292D01*
X16512380Y-22021786D01*
X16512384Y-22021789D01*
X16643487Y-22109390D01*
X16643500Y-22109397D01*
X16789171Y-22169735D01*
X16789176Y-22169737D01*
X16943826Y-22200499D01*
X16943829Y-22200500D01*
X16943831Y-22200500D01*
X17101517Y-22200500D01*
X17101518Y-22200499D01*
X17256170Y-22169737D01*
X17401852Y-22109394D01*
X17532962Y-22021789D01*
X17644462Y-21910289D01*
X17732067Y-21779179D01*
X17792410Y-21633497D01*
X17823173Y-21478842D01*
X17823173Y-21321158D01*
X17823173Y-21321155D01*
X17823172Y-21321153D01*
X17792411Y-21166510D01*
X17792410Y-21166503D01*
X17792408Y-21166498D01*
X17732070Y-21020827D01*
X17732063Y-21020814D01*
X17644462Y-20889711D01*
X17644459Y-20889707D01*
X17532965Y-20778213D01*
X17532961Y-20778210D01*
X17401858Y-20690609D01*
X17401845Y-20690602D01*
X17256174Y-20630264D01*
X17256162Y-20630261D01*
X17101518Y-20599500D01*
X17101515Y-20599500D01*
X16943831Y-20599500D01*
X16943828Y-20599500D01*
X16789183Y-20630261D01*
X16789171Y-20630264D01*
X16643500Y-20690602D01*
X16643487Y-20690609D01*
X16512384Y-20778210D01*
X16512380Y-20778213D01*
X16400886Y-20889707D01*
X16400883Y-20889711D01*
X16313282Y-21020814D01*
X16313275Y-21020827D01*
X16252937Y-21166498D01*
X16252934Y-21166510D01*
X16222173Y-21321153D01*
X12518695Y-21321153D01*
X12520313Y-18121153D01*
X29199500Y-18121153D01*
X29199500Y-18278846D01*
X29230261Y-18433489D01*
X29230264Y-18433501D01*
X29290602Y-18579172D01*
X29290609Y-18579185D01*
X29378210Y-18710288D01*
X29378213Y-18710292D01*
X29489707Y-18821786D01*
X29489711Y-18821789D01*
X29620814Y-18909390D01*
X29620827Y-18909397D01*
X29766498Y-18969735D01*
X29766503Y-18969737D01*
X29921153Y-19000499D01*
X29921156Y-19000500D01*
X29921158Y-19000500D01*
X30078844Y-19000500D01*
X30078845Y-19000499D01*
X30233497Y-18969737D01*
X30379179Y-18909394D01*
X30510289Y-18821789D01*
X30621789Y-18710289D01*
X30709394Y-18579179D01*
X30769737Y-18433497D01*
X30800500Y-18278842D01*
X30800500Y-18121158D01*
X30800500Y-18121155D01*
X30800499Y-18121153D01*
X30777931Y-18007697D01*
X30769737Y-17966503D01*
X30732443Y-17876467D01*
X30709397Y-17820827D01*
X30709390Y-17820814D01*
X30621789Y-17689711D01*
X30621786Y-17689707D01*
X30510292Y-17578213D01*
X30510288Y-17578210D01*
X30379185Y-17490609D01*
X30379172Y-17490602D01*
X30233501Y-17430264D01*
X30233489Y-17430261D01*
X30078845Y-17399500D01*
X30078842Y-17399500D01*
X29921158Y-17399500D01*
X29921155Y-17399500D01*
X29766510Y-17430261D01*
X29766498Y-17430264D01*
X29620827Y-17490602D01*
X29620814Y-17490609D01*
X29489711Y-17578210D01*
X29489707Y-17578213D01*
X29378213Y-17689707D01*
X29378210Y-17689711D01*
X29290609Y-17820814D01*
X29290602Y-17820827D01*
X29230264Y-17966498D01*
X29230261Y-17966510D01*
X29199500Y-18121153D01*
X12520313Y-18121153D01*
X12521046Y-16671153D01*
X50799500Y-16671153D01*
X50799500Y-16828846D01*
X50830261Y-16983489D01*
X50830264Y-16983501D01*
X50890602Y-17129172D01*
X50890609Y-17129185D01*
X50978210Y-17260288D01*
X50978213Y-17260292D01*
X51089707Y-17371786D01*
X51089711Y-17371789D01*
X51220814Y-17459390D01*
X51220827Y-17459397D01*
X51296181Y-17490609D01*
X51366503Y-17519737D01*
X51521153Y-17550499D01*
X51521156Y-17550500D01*
X51521158Y-17550500D01*
X51678844Y-17550500D01*
X51678845Y-17550499D01*
X51833497Y-17519737D01*
X51979179Y-17459394D01*
X52110289Y-17371789D01*
X52221789Y-17260289D01*
X52309394Y-17129179D01*
X52315932Y-17113394D01*
X52315934Y-17113389D01*
X66387000Y-17113389D01*
X66387000Y-17836610D01*
X66412664Y-17998651D01*
X66414098Y-18007701D01*
X66467627Y-18172445D01*
X66546268Y-18326788D01*
X66648086Y-18466928D01*
X66770572Y-18589414D01*
X66910712Y-18691232D01*
X67065055Y-18769873D01*
X67229799Y-18823402D01*
X67400889Y-18850500D01*
X67400890Y-18850500D01*
X67574110Y-18850500D01*
X67574111Y-18850500D01*
X67745201Y-18823402D01*
X67909945Y-18769873D01*
X68064288Y-18691232D01*
X68204428Y-18589414D01*
X68326914Y-18466928D01*
X68428732Y-18326788D01*
X68507373Y-18172445D01*
X68560902Y-18007701D01*
X68588000Y-17836611D01*
X68588000Y-17113389D01*
X68586567Y-17104339D01*
X77037000Y-17104339D01*
X77037000Y-17827561D01*
X77044746Y-17876467D01*
X77062375Y-17987776D01*
X77064098Y-17998651D01*
X77117627Y-18163395D01*
X77196268Y-18317738D01*
X77298086Y-18457878D01*
X77420572Y-18580364D01*
X77560712Y-18682182D01*
X77715055Y-18760823D01*
X77879799Y-18814352D01*
X78050889Y-18841450D01*
X78050890Y-18841450D01*
X78224110Y-18841450D01*
X78224111Y-18841450D01*
X78395201Y-18814352D01*
X78559945Y-18760823D01*
X78714288Y-18682182D01*
X78854428Y-18580364D01*
X78976914Y-18457878D01*
X79078732Y-18317738D01*
X79157373Y-18163395D01*
X79210902Y-17998651D01*
X79238000Y-17827561D01*
X79238000Y-17104339D01*
X79210902Y-16933249D01*
X79157373Y-16768505D01*
X79078732Y-16614162D01*
X78976914Y-16474022D01*
X78854428Y-16351536D01*
X78714288Y-16249718D01*
X78559945Y-16171077D01*
X78395201Y-16117548D01*
X78395199Y-16117547D01*
X78395198Y-16117547D01*
X78263771Y-16096731D01*
X78224111Y-16090450D01*
X78050889Y-16090450D01*
X78011228Y-16096731D01*
X77879802Y-16117547D01*
X77715052Y-16171078D01*
X77560711Y-16249718D01*
X77480756Y-16307809D01*
X77420572Y-16351536D01*
X77420570Y-16351538D01*
X77420569Y-16351538D01*
X77298088Y-16474019D01*
X77298088Y-16474020D01*
X77298086Y-16474022D01*
X77291511Y-16483072D01*
X77196268Y-16614161D01*
X77117628Y-16768502D01*
X77064097Y-16933252D01*
X77047852Y-17035821D01*
X77037000Y-17104339D01*
X68586567Y-17104339D01*
X68560902Y-16942299D01*
X68507373Y-16777555D01*
X68428732Y-16623212D01*
X68326914Y-16483072D01*
X68204428Y-16360586D01*
X68064288Y-16258768D01*
X67909945Y-16180127D01*
X67745201Y-16126598D01*
X67745199Y-16126597D01*
X67745198Y-16126597D01*
X67613771Y-16105781D01*
X67574111Y-16099500D01*
X67400889Y-16099500D01*
X67361228Y-16105781D01*
X67229802Y-16126597D01*
X67065052Y-16180128D01*
X66910711Y-16258768D01*
X66830756Y-16316859D01*
X66770572Y-16360586D01*
X66770570Y-16360588D01*
X66770569Y-16360588D01*
X66648088Y-16483069D01*
X66648088Y-16483070D01*
X66648086Y-16483072D01*
X66623801Y-16516498D01*
X66546268Y-16623211D01*
X66467628Y-16777552D01*
X66414097Y-16942302D01*
X66387000Y-17113389D01*
X52315934Y-17113389D01*
X52337608Y-17061065D01*
X52369735Y-16983501D01*
X52369737Y-16983497D01*
X52400500Y-16828842D01*
X52400500Y-16671158D01*
X52400500Y-16671155D01*
X52400499Y-16671153D01*
X52389163Y-16614162D01*
X52369737Y-16516503D01*
X52352140Y-16474019D01*
X52309397Y-16370827D01*
X52309390Y-16370814D01*
X52221789Y-16239711D01*
X52221786Y-16239707D01*
X52110292Y-16128213D01*
X52110288Y-16128210D01*
X51979185Y-16040609D01*
X51979172Y-16040602D01*
X51833501Y-15980264D01*
X51833489Y-15980261D01*
X51678845Y-15949500D01*
X51678842Y-15949500D01*
X51521158Y-15949500D01*
X51521155Y-15949500D01*
X51366510Y-15980261D01*
X51366498Y-15980264D01*
X51220827Y-16040602D01*
X51220814Y-16040609D01*
X51089711Y-16128210D01*
X51089707Y-16128213D01*
X50978213Y-16239707D01*
X50978210Y-16239711D01*
X50890609Y-16370814D01*
X50890602Y-16370827D01*
X50830264Y-16516498D01*
X50830261Y-16516510D01*
X50799500Y-16671153D01*
X12521046Y-16671153D01*
X12521879Y-15024019D01*
X12522105Y-15016600D01*
X12539591Y-14727522D01*
X12540365Y-14721153D01*
X31999500Y-14721153D01*
X31999500Y-14878846D01*
X32030261Y-15033489D01*
X32030264Y-15033501D01*
X32090602Y-15179172D01*
X32090609Y-15179185D01*
X32178210Y-15310288D01*
X32178213Y-15310292D01*
X32289707Y-15421786D01*
X32289711Y-15421789D01*
X32420814Y-15509390D01*
X32420827Y-15509397D01*
X32566498Y-15569735D01*
X32566503Y-15569737D01*
X32707524Y-15597788D01*
X32721153Y-15600499D01*
X32721156Y-15600500D01*
X32721158Y-15600500D01*
X32878844Y-15600500D01*
X32878845Y-15600499D01*
X33033497Y-15569737D01*
X33179179Y-15509394D01*
X33310289Y-15421789D01*
X33421789Y-15310289D01*
X33509394Y-15179179D01*
X33569737Y-15033497D01*
X33574679Y-15008653D01*
X59374500Y-15008653D01*
X59374500Y-15166346D01*
X59405261Y-15320989D01*
X59405264Y-15321001D01*
X59465602Y-15466672D01*
X59465609Y-15466685D01*
X59553210Y-15597788D01*
X59553213Y-15597792D01*
X59664707Y-15709286D01*
X59664711Y-15709289D01*
X59795814Y-15796890D01*
X59795827Y-15796897D01*
X59941498Y-15857235D01*
X59941503Y-15857237D01*
X60096153Y-15887999D01*
X60096156Y-15888000D01*
X60096158Y-15888000D01*
X60253844Y-15888000D01*
X60253845Y-15887999D01*
X60408497Y-15857237D01*
X60554179Y-15796894D01*
X60685289Y-15709289D01*
X60796789Y-15597789D01*
X60884394Y-15466679D01*
X60944737Y-15320997D01*
X60975500Y-15166342D01*
X60975500Y-15008658D01*
X60975500Y-15008655D01*
X60975499Y-15008653D01*
X60960150Y-14931491D01*
X60944737Y-14854003D01*
X60942810Y-14849351D01*
X60884397Y-14708327D01*
X60884390Y-14708314D01*
X60796789Y-14577211D01*
X60796786Y-14577207D01*
X60685292Y-14465713D01*
X60685288Y-14465710D01*
X60554185Y-14378109D01*
X60554172Y-14378102D01*
X60408501Y-14317764D01*
X60408489Y-14317761D01*
X60253845Y-14287000D01*
X60253842Y-14287000D01*
X60096158Y-14287000D01*
X60096155Y-14287000D01*
X59941510Y-14317761D01*
X59941498Y-14317764D01*
X59795827Y-14378102D01*
X59795814Y-14378109D01*
X59664711Y-14465710D01*
X59664707Y-14465713D01*
X59553213Y-14577207D01*
X59553210Y-14577211D01*
X59465609Y-14708314D01*
X59465602Y-14708327D01*
X59405264Y-14853998D01*
X59405261Y-14854010D01*
X59374500Y-15008653D01*
X33574679Y-15008653D01*
X33580702Y-14978374D01*
X33600500Y-14878844D01*
X33600500Y-14721155D01*
X33600499Y-14721153D01*
X33569738Y-14566510D01*
X33569737Y-14566503D01*
X33527988Y-14465711D01*
X33509397Y-14420827D01*
X33509390Y-14420814D01*
X33421789Y-14289711D01*
X33421786Y-14289707D01*
X33310292Y-14178213D01*
X33310288Y-14178210D01*
X33179185Y-14090609D01*
X33179172Y-14090602D01*
X33033501Y-14030264D01*
X33033489Y-14030261D01*
X32878845Y-13999500D01*
X32878842Y-13999500D01*
X32721158Y-13999500D01*
X32721155Y-13999500D01*
X32566510Y-14030261D01*
X32566498Y-14030264D01*
X32420827Y-14090602D01*
X32420814Y-14090609D01*
X32289711Y-14178210D01*
X32289707Y-14178213D01*
X32178213Y-14289707D01*
X32178210Y-14289711D01*
X32090609Y-14420814D01*
X32090602Y-14420827D01*
X32030264Y-14566498D01*
X32030261Y-14566510D01*
X31999500Y-14721153D01*
X12540365Y-14721153D01*
X12541396Y-14712662D01*
X12545051Y-14692716D01*
X12545051Y-14692714D01*
X12562662Y-14596618D01*
X12593100Y-14430517D01*
X12596684Y-14415983D01*
X12608487Y-14378106D01*
X12682016Y-14142142D01*
X12687318Y-14128161D01*
X12805051Y-13866569D01*
X12811996Y-13853336D01*
X12960400Y-13607846D01*
X12968887Y-13595550D01*
X13145800Y-13369737D01*
X13155715Y-13358546D01*
X13358546Y-13155715D01*
X13369737Y-13145800D01*
X13595550Y-12968887D01*
X13607846Y-12960400D01*
X13853336Y-12811996D01*
X13866569Y-12805051D01*
X14128161Y-12687318D01*
X14142142Y-12682016D01*
X14415988Y-12596682D01*
X14430517Y-12593100D01*
X14712664Y-12541395D01*
X14727522Y-12539591D01*
X15017533Y-12522048D01*
X15025099Y-12521823D01*
X87026981Y-12588622D01*
G37*
%TD.AperFunction*%
%TD*%
M02*
