%TF.GenerationSoftware,KiCad,Pcbnew,9.0.4*%
%TF.CreationDate,2025-11-21T04:25:38-05:00*%
%TF.ProjectId,pdb_v2,7064625f-7632-42e6-9b69-6361645f7063,v1*%
%TF.SameCoordinates,Original*%
%TF.FileFunction,Copper,L1,Top*%
%TF.FilePolarity,Positive*%
%FSLAX46Y46*%
G04 Gerber Fmt 4.6, Leading zero omitted, Abs format (unit mm)*
G04 Created by KiCad (PCBNEW 9.0.4) date 2025-11-21 04:25:38*
%MOMM*%
%LPD*%
G01*
G04 APERTURE LIST*
G04 Aperture macros list*
%AMRoundRect*
0 Rectangle with rounded corners*
0 $1 Rounding radius*
0 $2 $3 $4 $5 $6 $7 $8 $9 X,Y pos of 4 corners*
0 Add a 4 corners polygon primitive as box body*
4,1,4,$2,$3,$4,$5,$6,$7,$8,$9,$2,$3,0*
0 Add four circle primitives for the rounded corners*
1,1,$1+$1,$2,$3*
1,1,$1+$1,$4,$5*
1,1,$1+$1,$6,$7*
1,1,$1+$1,$8,$9*
0 Add four rect primitives between the rounded corners*
20,1,$1+$1,$2,$3,$4,$5,0*
20,1,$1+$1,$4,$5,$6,$7,0*
20,1,$1+$1,$6,$7,$8,$9,0*
20,1,$1+$1,$8,$9,$2,$3,0*%
G04 Aperture macros list end*
%TA.AperFunction,SMDPad,CuDef*%
%ADD10R,0.914400X3.708400*%
%TD*%
%TA.AperFunction,SMDPad,CuDef*%
%ADD11R,5.562600X5.791200*%
%TD*%
%TA.AperFunction,SMDPad,CuDef*%
%ADD12R,1.050000X1.050000*%
%TD*%
%TA.AperFunction,HeatsinkPad*%
%ADD13C,0.600000*%
%TD*%
%TA.AperFunction,HeatsinkPad*%
%ADD14R,4.200000X4.200000*%
%TD*%
%TA.AperFunction,SMDPad,CuDef*%
%ADD15R,1.500000X0.900000*%
%TD*%
%TA.AperFunction,SMDPad,CuDef*%
%ADD16R,0.900000X1.500000*%
%TD*%
%TA.AperFunction,SMDPad,CuDef*%
%ADD17C,1.000000*%
%TD*%
%TA.AperFunction,SMDPad,CuDef*%
%ADD18RoundRect,0.250000X1.750000X1.000000X-1.750000X1.000000X-1.750000X-1.000000X1.750000X-1.000000X0*%
%TD*%
%TA.AperFunction,ComponentPad*%
%ADD19RoundRect,0.250000X0.350000X0.625000X-0.350000X0.625000X-0.350000X-0.625000X0.350000X-0.625000X0*%
%TD*%
%TA.AperFunction,ComponentPad*%
%ADD20O,1.200000X1.750000*%
%TD*%
%TA.AperFunction,SMDPad,CuDef*%
%ADD21R,0.508000X0.355600*%
%TD*%
%TA.AperFunction,ComponentPad*%
%ADD22O,1.600000X2.000000*%
%TD*%
%TA.AperFunction,SMDPad,CuDef*%
%ADD23RoundRect,0.237500X0.287500X0.237500X-0.287500X0.237500X-0.287500X-0.237500X0.287500X-0.237500X0*%
%TD*%
%TA.AperFunction,SMDPad,CuDef*%
%ADD24RoundRect,0.237500X-0.300000X-0.237500X0.300000X-0.237500X0.300000X0.237500X-0.300000X0.237500X0*%
%TD*%
%TA.AperFunction,SMDPad,CuDef*%
%ADD25RoundRect,0.250000X-1.000000X1.500000X-1.000000X-1.500000X1.000000X-1.500000X1.000000X1.500000X0*%
%TD*%
%TA.AperFunction,SMDPad,CuDef*%
%ADD26RoundRect,0.250000X-0.412500X-1.100000X0.412500X-1.100000X0.412500X1.100000X-0.412500X1.100000X0*%
%TD*%
%TA.AperFunction,ComponentPad*%
%ADD27C,5.000000*%
%TD*%
%TA.AperFunction,SMDPad,CuDef*%
%ADD28RoundRect,0.237500X0.250000X0.237500X-0.250000X0.237500X-0.250000X-0.237500X0.250000X-0.237500X0*%
%TD*%
%TA.AperFunction,SMDPad,CuDef*%
%ADD29R,1.100000X0.599999*%
%TD*%
%TA.AperFunction,ComponentPad*%
%ADD30RoundRect,0.250000X-0.625000X0.350000X-0.625000X-0.350000X0.625000X-0.350000X0.625000X0.350000X0*%
%TD*%
%TA.AperFunction,ComponentPad*%
%ADD31O,1.750000X1.200000*%
%TD*%
%TA.AperFunction,ComponentPad*%
%ADD32C,2.000000*%
%TD*%
%TA.AperFunction,SMDPad,CuDef*%
%ADD33R,0.990600X2.794000*%
%TD*%
%TA.AperFunction,SMDPad,CuDef*%
%ADD34R,2.180400X2.210000*%
%TD*%
%TA.AperFunction,SMDPad,CuDef*%
%ADD35RoundRect,0.250000X-0.412500X-0.650000X0.412500X-0.650000X0.412500X0.650000X-0.412500X0.650000X0*%
%TD*%
%TA.AperFunction,SMDPad,CuDef*%
%ADD36RoundRect,0.237500X-0.237500X0.250000X-0.237500X-0.250000X0.237500X-0.250000X0.237500X0.250000X0*%
%TD*%
%TA.AperFunction,ComponentPad*%
%ADD37RoundRect,0.760000X-1.140000X1.140000X-1.140000X-1.140000X1.140000X-1.140000X1.140000X1.140000X0*%
%TD*%
%TA.AperFunction,ComponentPad*%
%ADD38C,3.800000*%
%TD*%
%TA.AperFunction,SMDPad,CuDef*%
%ADD39RoundRect,0.250000X-1.000000X1.750000X-1.000000X-1.750000X1.000000X-1.750000X1.000000X1.750000X0*%
%TD*%
%TA.AperFunction,SMDPad,CuDef*%
%ADD40R,2.700000X3.600000*%
%TD*%
%TA.AperFunction,SMDPad,CuDef*%
%ADD41RoundRect,0.250000X-0.325000X-0.450000X0.325000X-0.450000X0.325000X0.450000X-0.325000X0.450000X0*%
%TD*%
%TA.AperFunction,SMDPad,CuDef*%
%ADD42RoundRect,0.092500X-0.517500X-0.277500X0.517500X-0.277500X0.517500X0.277500X-0.517500X0.277500X0*%
%TD*%
%TA.AperFunction,SMDPad,CuDef*%
%ADD43RoundRect,0.237500X0.237500X-0.300000X0.237500X0.300000X-0.237500X0.300000X-0.237500X-0.300000X0*%
%TD*%
%TA.AperFunction,SMDPad,CuDef*%
%ADD44RoundRect,0.250000X-1.100000X0.412500X-1.100000X-0.412500X1.100000X-0.412500X1.100000X0.412500X0*%
%TD*%
%TA.AperFunction,ComponentPad*%
%ADD45R,1.700000X1.700000*%
%TD*%
%TA.AperFunction,ComponentPad*%
%ADD46C,1.700000*%
%TD*%
%TA.AperFunction,SMDPad,CuDef*%
%ADD47RoundRect,0.237500X0.300000X0.237500X-0.300000X0.237500X-0.300000X-0.237500X0.300000X-0.237500X0*%
%TD*%
%TA.AperFunction,SMDPad,CuDef*%
%ADD48R,1.270000X1.778000*%
%TD*%
%TA.AperFunction,SMDPad,CuDef*%
%ADD49RoundRect,0.237500X0.237500X-0.250000X0.237500X0.250000X-0.237500X0.250000X-0.237500X-0.250000X0*%
%TD*%
%TA.AperFunction,SMDPad,CuDef*%
%ADD50RoundRect,0.237500X-0.250000X-0.237500X0.250000X-0.237500X0.250000X0.237500X-0.250000X0.237500X0*%
%TD*%
%TA.AperFunction,SMDPad,CuDef*%
%ADD51R,2.794000X0.990600*%
%TD*%
%TA.AperFunction,SMDPad,CuDef*%
%ADD52R,0.901700X0.508000*%
%TD*%
%TA.AperFunction,SMDPad,CuDef*%
%ADD53R,1.600200X4.495800*%
%TD*%
%TA.AperFunction,SMDPad,CuDef*%
%ADD54RoundRect,0.250000X0.550000X-1.250000X0.550000X1.250000X-0.550000X1.250000X-0.550000X-1.250000X0*%
%TD*%
%TA.AperFunction,SMDPad,CuDef*%
%ADD55RoundRect,0.237500X-0.237500X0.300000X-0.237500X-0.300000X0.237500X-0.300000X0.237500X0.300000X0*%
%TD*%
%TA.AperFunction,ViaPad*%
%ADD56C,0.600000*%
%TD*%
%TA.AperFunction,Conductor*%
%ADD57C,0.200000*%
%TD*%
%TA.AperFunction,Conductor*%
%ADD58C,0.530000*%
%TD*%
%TA.AperFunction,Conductor*%
%ADD59C,0.310000*%
%TD*%
G04 APERTURE END LIST*
D10*
%TO.P,Q1,3,S*%
%TO.N,VBAT*%
X29637500Y-36787500D03*
D11*
%TO.P,Q1,2,D*%
%TO.N,Net-(Q1-D)*%
X31832499Y-43137500D03*
D10*
%TO.P,Q1,1,G*%
%TO.N,Net-(D2-A)*%
X34027498Y-36787500D03*
%TD*%
D12*
%TO.P,U2,39,GND*%
%TO.N,GND*%
X72756795Y-61205000D03*
D13*
X72756795Y-61967500D03*
D12*
X72756795Y-62730000D03*
D13*
X72756795Y-63492500D03*
D12*
X72756795Y-64255000D03*
D13*
X73519295Y-61205000D03*
X73519295Y-62730000D03*
X73519295Y-64255000D03*
D12*
X74281795Y-61205000D03*
D13*
X74281795Y-61967500D03*
D14*
X74281795Y-62730000D03*
D12*
X74281795Y-62730000D03*
D13*
X74281795Y-63492500D03*
D12*
X74281795Y-64255000D03*
D13*
X75044295Y-61205000D03*
X75044295Y-62730000D03*
X75044295Y-64255000D03*
D12*
X75806795Y-61205000D03*
D13*
X75806795Y-61967500D03*
D12*
X75806795Y-62730000D03*
D13*
X75806795Y-63492500D03*
D12*
X75806795Y-64255000D03*
D15*
%TO.P,U2,38,GND*%
X64851795Y-70070000D03*
%TO.P,U2,37,IO23*%
%TO.N,unconnected-(U2-IO23-Pad37)*%
X64851795Y-68800000D03*
%TO.P,U2,36,IO22*%
%TO.N,unconnected-(U2-IO22-Pad36)*%
X64851795Y-67530000D03*
%TO.P,U2,35,TXD0/IO1*%
%TO.N,/TX*%
X64851795Y-66260000D03*
%TO.P,U2,34,RXD0/IO3*%
%TO.N,/RX*%
X64851795Y-64990000D03*
%TO.P,U2,33,IO21*%
%TO.N,unconnected-(U2-IO21-Pad33)*%
X64851795Y-63720000D03*
%TO.P,U2,32,NC*%
%TO.N,unconnected-(U2-NC-Pad32)*%
X64851795Y-62450000D03*
%TO.P,U2,31,IO19*%
%TO.N,Net-(U2-IO19)*%
X64851795Y-61180000D03*
%TO.P,U2,30,IO18*%
%TO.N,/LED*%
X64851795Y-59910000D03*
%TO.P,U2,29,IO5*%
%TO.N,unconnected-(U2-IO5-Pad29)*%
X64851795Y-58640000D03*
%TO.P,U2,28,IO17*%
%TO.N,/BMS TX*%
X64851795Y-57370000D03*
%TO.P,U2,27,IO16*%
%TO.N,/BMS RX*%
X64851795Y-56100000D03*
%TO.P,U2,26,IO4*%
%TO.N,unconnected-(U2-IO4-Pad26)*%
X64851795Y-54830000D03*
%TO.P,U2,25,IO0*%
%TO.N,/BOOT*%
X64851795Y-53560000D03*
D16*
%TO.P,U2,24,IO2*%
%TO.N,unconnected-(U2-IO2-Pad24)*%
X67881795Y-52310000D03*
%TO.P,U2,23,IO15*%
%TO.N,unconnected-(U2-IO15-Pad23)*%
X69151795Y-52310000D03*
%TO.P,U2,22,SDI/SD1*%
%TO.N,/OLED SCL*%
X70421795Y-52310000D03*
%TO.P,U2,21,SDO/SD0*%
%TO.N,/OLED SDA*%
X71691795Y-52310000D03*
%TO.P,U2,20,SCK/CLK*%
%TO.N,unconnected-(U2-SCK{slash}CLK-Pad20)*%
X72961795Y-52310000D03*
%TO.P,U2,19,SCS/CMD*%
%TO.N,unconnected-(U2-SCS{slash}CMD-Pad19)*%
X74231795Y-52310000D03*
%TO.P,U2,18,SWP/SD3*%
%TO.N,unconnected-(U2-SWP{slash}SD3-Pad18)*%
X75501795Y-52310000D03*
%TO.P,U2,17,SHD/SD2*%
%TO.N,unconnected-(U2-SHD{slash}SD2-Pad17)*%
X76771795Y-52310000D03*
%TO.P,U2,16,IO13*%
%TO.N,unconnected-(U2-IO13-Pad16)*%
X78041795Y-52310000D03*
%TO.P,U2,15,GND*%
%TO.N,GND*%
X79311795Y-52310000D03*
D15*
%TO.P,U2,14,IO12*%
%TO.N,unconnected-(U2-IO12-Pad14)*%
X82351795Y-53560000D03*
%TO.P,U2,13,IO14*%
%TO.N,unconnected-(U2-IO14-Pad13)*%
X82351795Y-54830000D03*
%TO.P,U2,12,IO27*%
%TO.N,unconnected-(U2-IO27-Pad12)*%
X82351795Y-56100000D03*
%TO.P,U2,11,IO26*%
%TO.N,/VESC TX*%
X82351795Y-57370000D03*
%TO.P,U2,10,IO25*%
%TO.N,/VESC RX*%
X82351795Y-58640000D03*
%TO.P,U2,9,IO33*%
%TO.N,unconnected-(U2-IO33-Pad9)*%
X82351795Y-59910000D03*
%TO.P,U2,8,IO32*%
%TO.N,unconnected-(U2-IO32-Pad8)*%
X82351795Y-61180000D03*
%TO.P,U2,7,IO35*%
%TO.N,unconnected-(U2-IO35-Pad7)*%
X82351795Y-62450000D03*
%TO.P,U2,6,IO34*%
%TO.N,unconnected-(U2-IO34-Pad6)*%
X82351795Y-63720000D03*
%TO.P,U2,5,SENSOR_VN*%
%TO.N,unconnected-(U2-SENSOR_VN-Pad5)*%
X82351795Y-64990000D03*
%TO.P,U2,4,SENSOR_VP*%
%TO.N,unconnected-(U2-SENSOR_VP-Pad4)*%
X82351795Y-66260000D03*
%TO.P,U2,3,EN*%
%TO.N,/EN*%
X82351795Y-67530000D03*
%TO.P,U2,2,VDD*%
%TO.N,3V3_BUS*%
X82351795Y-68800000D03*
%TO.P,U2,1,GND*%
%TO.N,GND*%
X82351795Y-70070000D03*
%TD*%
D17*
%TO.P,12V1,1,1*%
%TO.N,12V_BUS*%
X51900000Y-28200000D03*
%TD*%
%TO.P,SW_12V1,1,1*%
%TO.N,Net-(U1-SW)*%
X40200000Y-28300000D03*
%TD*%
%TO.P,GND1,1,1*%
%TO.N,GND*%
X15600000Y-16100000D03*
%TD*%
D18*
%TO.P,C9,1*%
%TO.N,VBAT*%
X29137500Y-22337500D03*
%TO.P,C9,2*%
%TO.N,GND*%
X21137500Y-22337500D03*
%TD*%
D19*
%TO.P,J2,1,Pin_1*%
%TO.N,GND*%
X69487500Y-17475000D03*
D20*
%TO.P,J2,2,Pin_2*%
%TO.N,Net-(D3-A)*%
X67487500Y-17475000D03*
%TD*%
D21*
%TO.P,D9,1*%
%TO.N,Net-(J5-Pin_2)*%
X83074900Y-24725001D03*
%TO.P,D9,2*%
%TO.N,GND*%
X84675100Y-24725001D03*
%TD*%
D22*
%TO.P,J8,1,Pin_1*%
%TO.N,GND*%
X30180000Y-52200000D03*
%TO.P,J8,2,Pin_2*%
%TO.N,3V3_BUS*%
X32720000Y-52200000D03*
%TO.P,J8,3,Pin_3*%
%TO.N,/OLED SCL*%
X35260000Y-52200000D03*
%TO.P,J8,4,Pin_4*%
%TO.N,/OLED SDA*%
X37800000Y-52200000D03*
%TD*%
D23*
%TO.P,D6,1,K*%
%TO.N,GND*%
X62862500Y-63000000D03*
%TO.P,D6,2,A*%
%TO.N,Net-(D6-A)*%
X61112500Y-63000000D03*
%TD*%
D24*
%TO.P,C21,1*%
%TO.N,Net-(U3-BST)*%
X68100000Y-37687500D03*
%TO.P,C21,2*%
%TO.N,Net-(U3-SW)*%
X69825000Y-37687500D03*
%TD*%
D23*
%TO.P,D5,1,K*%
%TO.N,GND*%
X62862500Y-58150000D03*
%TO.P,D5,2,A*%
%TO.N,Net-(D5-A)*%
X61112500Y-58150000D03*
%TD*%
D24*
%TO.P,C12,1*%
%TO.N,VBAT*%
X33575000Y-22900000D03*
%TO.P,C12,2*%
%TO.N,GND*%
X35300000Y-22900000D03*
%TD*%
D25*
%TO.P,C3,1*%
%TO.N,Net-(D3-A)*%
X64937500Y-25334700D03*
%TO.P,C3,2*%
%TO.N,GND*%
X64937500Y-31834700D03*
%TD*%
D17*
%TO.P,EN_3V3,1,1*%
%TO.N,12V_BUS*%
X87987500Y-41625000D03*
%TD*%
D26*
%TO.P,C11,1*%
%TO.N,VBAT*%
X31487500Y-25500000D03*
%TO.P,C11,2*%
%TO.N,GND*%
X34612500Y-25500000D03*
%TD*%
D27*
%TO.P,H2,1,1*%
%TO.N,unconnected-(H2-Pad1)*%
X89044497Y-15100000D03*
%TD*%
D28*
%TO.P,R3,1*%
%TO.N,3V3_BUS*%
X87812500Y-65650000D03*
%TO.P,R3,2*%
%TO.N,/EN*%
X85987500Y-65650000D03*
%TD*%
D29*
%TO.P,U1,1,FB*%
%TO.N,Net-(U1-FB)*%
X33521516Y-19550998D03*
%TO.P,U1,2,EN*%
%TO.N,Net-(U1-EN)*%
X33521516Y-20500999D03*
%TO.P,U1,3,VIN*%
%TO.N,VBAT*%
X33521516Y-21451000D03*
%TO.P,U1,4,GND*%
%TO.N,GND*%
X36221500Y-21451000D03*
%TO.P,U1,5,SW*%
%TO.N,Net-(U1-SW)*%
X36221500Y-20500999D03*
%TO.P,U1,6,CB*%
%TO.N,Net-(U1-CB)*%
X36221500Y-19550998D03*
%TD*%
D27*
%TO.P,H1,1,1*%
%TO.N,unconnected-(H1-Pad1)*%
X15110000Y-75100000D03*
%TD*%
D30*
%TO.P,J7,1,Pin_1*%
%TO.N,/VESC TX*%
X87500000Y-56500000D03*
D31*
%TO.P,J7,2,Pin_2*%
%TO.N,/VESC RX*%
X87500000Y-58500000D03*
%TO.P,J7,3,Pin_3*%
%TO.N,GND*%
X87500000Y-60500000D03*
%TD*%
D28*
%TO.P,R1,1*%
%TO.N,Net-(D2-A)*%
X31712500Y-31600000D03*
%TO.P,R1,2*%
%TO.N,GND*%
X29887500Y-31600000D03*
%TD*%
D32*
%TO.P,SW1,1,1*%
%TO.N,GND*%
X49600000Y-65200000D03*
X56100000Y-65200000D03*
%TO.P,SW1,2,2*%
%TO.N,/EN*%
X49600000Y-69700000D03*
X56100000Y-69700000D03*
%TD*%
D33*
%TO.P,F6,1*%
%TO.N,Net-(J5-Pin_2)*%
X85972200Y-27275001D03*
%TO.P,F6,2*%
%TO.N,/3V3_SPLIT*%
X82975000Y-27275001D03*
%TD*%
D34*
%TO.P,D1,1*%
%TO.N,Net-(Q1-D)*%
X26200000Y-30200000D03*
%TO.P,D1,2*%
%TO.N,GND*%
X22485600Y-30200000D03*
%TD*%
D33*
%TO.P,F4,1*%
%TO.N,/3V3_SPLIT*%
X82476400Y-30775001D03*
%TO.P,F4,2*%
%TO.N,3V3_BUS*%
X85473600Y-30775001D03*
%TD*%
D35*
%TO.P,C14,1*%
%TO.N,12V_BUS*%
X50337500Y-22150000D03*
%TO.P,C14,2*%
%TO.N,GND*%
X53462500Y-22150000D03*
%TD*%
D36*
%TO.P,R4,1*%
%TO.N,GND*%
X72125000Y-29861251D03*
%TO.P,R4,2*%
%TO.N,Net-(D8-K)*%
X72125000Y-31686251D03*
%TD*%
D26*
%TO.P,C23,1*%
%TO.N,3V3_BUS*%
X77975000Y-41787500D03*
%TO.P,C23,2*%
%TO.N,GND*%
X81100000Y-41787500D03*
%TD*%
D37*
%TO.P,J1,1,Pin_1*%
%TO.N,GND*%
X23400000Y-35900000D03*
D38*
%TO.P,J1,2,Pin_2*%
%TO.N,Net-(J1-Pin_2)*%
X23400000Y-40900000D03*
%TD*%
D39*
%TO.P,C1,1*%
%TO.N,VBAT*%
X41127498Y-34687500D03*
%TO.P,C1,2*%
%TO.N,GND*%
X41127498Y-42687500D03*
%TD*%
D40*
%TO.P,L1,1,1*%
%TO.N,Net-(U1-SW)*%
X38800000Y-20787500D03*
%TO.P,L1,2,2*%
%TO.N,12V_BUS*%
X47500000Y-20787500D03*
%TD*%
D35*
%TO.P,C20,1*%
%TO.N,12V_BUS*%
X66600000Y-43287500D03*
%TO.P,C20,2*%
%TO.N,GND*%
X69725000Y-43287500D03*
%TD*%
D41*
%TO.P,D3,1,K*%
%TO.N,Net-(D3-K)*%
X61712500Y-21584700D03*
%TO.P,D3,2,A*%
%TO.N,Net-(D3-A)*%
X63762500Y-21584700D03*
%TD*%
D26*
%TO.P,C22,1*%
%TO.N,3V3_BUS*%
X77975000Y-38537500D03*
%TO.P,C22,2*%
%TO.N,GND*%
X81100000Y-38537500D03*
%TD*%
D42*
%TO.P,D2,1,K*%
%TO.N,VBAT*%
X29952498Y-33487500D03*
%TO.P,D2,2,A*%
%TO.N,Net-(D2-A)*%
X33302498Y-33487500D03*
%TD*%
D43*
%TO.P,C5,1*%
%TO.N,/EN*%
X84350000Y-67362500D03*
%TO.P,C5,2*%
%TO.N,GND*%
X84350000Y-65637500D03*
%TD*%
D28*
%TO.P,R2,1*%
%TO.N,GND*%
X62600000Y-23384700D03*
%TO.P,R2,2*%
%TO.N,Net-(D3-K)*%
X60775000Y-23384700D03*
%TD*%
D43*
%TO.P,C13,1*%
%TO.N,Net-(U1-CB)*%
X36387500Y-17850000D03*
%TO.P,C13,2*%
%TO.N,Net-(U1-SW)*%
X36387500Y-16125000D03*
%TD*%
D24*
%TO.P,C4,1*%
%TO.N,Net-(D3-A)*%
X67275000Y-21825000D03*
%TO.P,C4,2*%
%TO.N,GND*%
X69000000Y-21825000D03*
%TD*%
D44*
%TO.P,C16,1*%
%TO.N,3V3_BUS*%
X86750000Y-67487500D03*
%TO.P,C16,2*%
%TO.N,GND*%
X86750000Y-70612500D03*
%TD*%
D17*
%TO.P,SW_3V3,1,1*%
%TO.N,Net-(U3-SW)*%
X72437500Y-35775000D03*
%TD*%
D45*
%TO.P,J3,1,Pin_1*%
%TO.N,GND*%
X18085000Y-55860000D03*
D46*
%TO.P,J3,2,Pin_2*%
%TO.N,3V3_BUS*%
X18085000Y-58400000D03*
%TO.P,J3,3,Pin_3*%
%TO.N,/TX*%
X18085000Y-60940000D03*
%TO.P,J3,4,Pin_4*%
%TO.N,/RX*%
X18085000Y-63480000D03*
%TO.P,J3,5,Pin_5*%
%TO.N,/BOOT*%
X18085000Y-66020000D03*
%TO.P,J3,6,Pin_6*%
%TO.N,/EN*%
X18085000Y-68560000D03*
%TD*%
D30*
%TO.P,J6,1,Pin_1*%
%TO.N,/BMS TX*%
X87500000Y-46900000D03*
D31*
%TO.P,J6,2,Pin_2*%
%TO.N,/BMS RX*%
X87500000Y-48900000D03*
%TO.P,J6,3,Pin_3*%
%TO.N,GND*%
X87500000Y-50900000D03*
%TD*%
D17*
%TO.P,FB_3V3,1,1*%
%TO.N,3V3_BUS*%
X63500000Y-37250000D03*
%TD*%
D47*
%TO.P,C6,1*%
%TO.N,/BOOT*%
X62964295Y-54469647D03*
%TO.P,C6,2*%
%TO.N,GND*%
X61239295Y-54469647D03*
%TD*%
D48*
%TO.P,F1,1*%
%TO.N,Net-(J1-Pin_2)*%
X23955200Y-45400000D03*
%TO.P,F1,2*%
%TO.N,Net-(Q1-D)*%
X26800000Y-45400000D03*
%TD*%
D49*
%TO.P,R6,1*%
%TO.N,Net-(U1-FB)*%
X34637500Y-17912500D03*
%TO.P,R6,2*%
%TO.N,GND*%
X34637500Y-16087500D03*
%TD*%
D41*
%TO.P,D8,1,K*%
%TO.N,Net-(D8-K)*%
X75150000Y-30875001D03*
%TO.P,D8,2,A*%
%TO.N,/3V3_SPLIT*%
X77200000Y-30875001D03*
%TD*%
D17*
%TO.P,3V3,1,1*%
%TO.N,3V3_BUS*%
X88000000Y-36541666D03*
%TD*%
D50*
%TO.P,R8,1*%
%TO.N,3V3_BUS*%
X61189295Y-52850000D03*
%TO.P,R8,2*%
%TO.N,/BOOT*%
X63014295Y-52850000D03*
%TD*%
D24*
%TO.P,C2,1*%
%TO.N,VBAT*%
X40275000Y-31662500D03*
%TO.P,C2,2*%
%TO.N,GND*%
X42000000Y-31662500D03*
%TD*%
D51*
%TO.P,F2,1*%
%TO.N,Net-(D3-A)*%
X62837500Y-18084700D03*
%TO.P,F2,2*%
%TO.N,12V_BUS*%
X62837500Y-15087500D03*
%TD*%
D36*
%TO.P,R5,1*%
%TO.N,12V_BUS*%
X32887500Y-16087500D03*
%TO.P,R5,2*%
%TO.N,Net-(U1-FB)*%
X32887500Y-17912500D03*
%TD*%
D17*
%TO.P,EN_12V1,1,1*%
%TO.N,Net-(U1-EN)*%
X15577326Y-21400000D03*
%TD*%
D52*
%TO.P,U3,1,FB*%
%TO.N,3V3_BUS*%
X67259000Y-39337498D03*
%TO.P,U3,2,EN*%
%TO.N,12V_BUS*%
X67259000Y-40287499D03*
%TO.P,U3,3,VIN*%
X67259000Y-41237500D03*
%TO.P,U3,4,GND*%
%TO.N,GND*%
X69862500Y-41237500D03*
%TO.P,U3,5,SW*%
%TO.N,Net-(U3-SW)*%
X69862500Y-40287499D03*
%TO.P,U3,6,BST*%
%TO.N,Net-(U3-BST)*%
X69862500Y-39337498D03*
%TD*%
D32*
%TO.P,SW2,1,1*%
%TO.N,GND*%
X56100000Y-59750000D03*
X49600000Y-59750000D03*
%TO.P,SW2,2,2*%
%TO.N,/BOOT*%
X56100000Y-55250000D03*
X49600000Y-55250000D03*
%TD*%
D28*
%TO.P,R9,1*%
%TO.N,/LED*%
X62900000Y-59800000D03*
%TO.P,R9,2*%
%TO.N,Net-(D5-A)*%
X61075000Y-59800000D03*
%TD*%
D17*
%TO.P,FB_12V1,1,1*%
%TO.N,Net-(U1-FB)*%
X27600000Y-15350000D03*
%TD*%
%TO.P,VBAT1,1,1*%
%TO.N,VBAT*%
X15577326Y-27000000D03*
%TD*%
D21*
%TO.P,D4,1*%
%TO.N,Net-(D3-A)*%
X63637600Y-19734700D03*
%TO.P,D4,2*%
%TO.N,GND*%
X62037400Y-19734700D03*
%TD*%
D53*
%TO.P,L3,1,1*%
%TO.N,Net-(U3-SW)*%
X71887499Y-40275000D03*
%TO.P,L3,2,2*%
%TO.N,3V3_BUS*%
X75787501Y-40275000D03*
%TD*%
D28*
%TO.P,R10,1*%
%TO.N,Net-(U2-IO19)*%
X62900000Y-61400000D03*
%TO.P,R10,2*%
%TO.N,Net-(D6-A)*%
X61075000Y-61400000D03*
%TD*%
D26*
%TO.P,C15,1*%
%TO.N,12V_BUS*%
X50337500Y-19300000D03*
%TO.P,C15,2*%
%TO.N,GND*%
X53462500Y-19300000D03*
%TD*%
%TO.P,C10,1*%
%TO.N,VBAT*%
X31487500Y-28750000D03*
%TO.P,C10,2*%
%TO.N,GND*%
X34612500Y-28750000D03*
%TD*%
D54*
%TO.P,C7,1*%
%TO.N,/3V3_SPLIT*%
X79175000Y-29075001D03*
%TO.P,C7,2*%
%TO.N,GND*%
X79175000Y-24675001D03*
%TD*%
D24*
%TO.P,C24,1*%
%TO.N,Net-(J5-Pin_2)*%
X78525000Y-21215950D03*
%TO.P,C24,2*%
%TO.N,GND*%
X80250000Y-21215950D03*
%TD*%
D36*
%TO.P,R7,1*%
%TO.N,Net-(U1-EN)*%
X31337500Y-18187500D03*
%TO.P,R7,2*%
%TO.N,VBAT*%
X31337500Y-20012500D03*
%TD*%
D55*
%TO.P,C17,1*%
%TO.N,3V3_BUS*%
X84351795Y-69037500D03*
%TO.P,C17,2*%
%TO.N,GND*%
X84351795Y-70762500D03*
%TD*%
D19*
%TO.P,J5,1,Pin_1*%
%TO.N,GND*%
X80137500Y-17465950D03*
D20*
%TO.P,J5,2,Pin_2*%
%TO.N,Net-(J5-Pin_2)*%
X78137500Y-17465950D03*
%TD*%
D56*
%TO.N,/OLED SDA*%
X69796162Y-50303838D03*
X67000000Y-50300000D03*
%TO.N,GND*%
X68400000Y-43200000D03*
X16900000Y-46500000D03*
X46900000Y-46500000D03*
X36900000Y-71500000D03*
X16900000Y-31500000D03*
X16900000Y-41500000D03*
X16900000Y-36500000D03*
X16900000Y-71500000D03*
X46900000Y-76500000D03*
X16900000Y-51500000D03*
X21900000Y-16500000D03*
X46900000Y-36500000D03*
X21900000Y-26500000D03*
X26900000Y-51500000D03*
X21900000Y-46500000D03*
X21900000Y-51500000D03*
X46900000Y-56500000D03*
X21900000Y-56500000D03*
X21900000Y-61500000D03*
X41900000Y-46500000D03*
X21900000Y-66500000D03*
X51900000Y-31500000D03*
X21900000Y-71500000D03*
X21900000Y-76500000D03*
X26900000Y-16500000D03*
X26900000Y-26500000D03*
X26900000Y-41500000D03*
X26900000Y-61500000D03*
X26900000Y-66500000D03*
X26900000Y-71500000D03*
X51900000Y-26500000D03*
X26900000Y-76500000D03*
X51900000Y-56500000D03*
X31900000Y-56500000D03*
X31900000Y-61500000D03*
X31900000Y-66500000D03*
X31900000Y-71500000D03*
X31900000Y-76500000D03*
X36900000Y-46500000D03*
X36900000Y-56500000D03*
X36900000Y-61500000D03*
X36900000Y-66500000D03*
X36900000Y-76500000D03*
X41900000Y-51500000D03*
X41900000Y-56500000D03*
X41900000Y-66500000D03*
X41900000Y-71500000D03*
X41900000Y-76500000D03*
X46900000Y-31500000D03*
X46900000Y-41500000D03*
X46900000Y-51500000D03*
X46900000Y-61500000D03*
X46900000Y-71500000D03*
X51900000Y-41500000D03*
X51900000Y-46500000D03*
X51900000Y-51500000D03*
X51900000Y-61500000D03*
X56900000Y-16500000D03*
X56900000Y-21500000D03*
X56900000Y-31500000D03*
X56900000Y-41500000D03*
X56900000Y-46500000D03*
X56900000Y-51500000D03*
X61900000Y-26500000D03*
X61900000Y-36500000D03*
X61900000Y-46500000D03*
X66900000Y-61500000D03*
X66900000Y-66500000D03*
X71900000Y-21500000D03*
X71900000Y-26500000D03*
X71900000Y-66500000D03*
X76900000Y-26500000D03*
X76900000Y-66500000D03*
X81900000Y-46500000D03*
X86900000Y-21500000D03*
X86900000Y-31500000D03*
%TO.N,VBAT*%
X29850000Y-28750000D03*
X17022673Y-27000000D03*
%TO.N,GND*%
X33500000Y-26500000D03*
X21250000Y-20500000D03*
X60700000Y-55719647D03*
X33500000Y-25000000D03*
X33500000Y-29500000D03*
X35000000Y-21000000D03*
X62887500Y-64250000D03*
X64937500Y-29425000D03*
X43325000Y-43100000D03*
X25700000Y-35900000D03*
X79351795Y-50900000D03*
X52300000Y-19300000D03*
X66687500Y-31925000D03*
X38800000Y-43100000D03*
X41127498Y-39872502D03*
X21100000Y-35900000D03*
X24000000Y-22250000D03*
X52350000Y-22150000D03*
X33600000Y-14100000D03*
X86750000Y-69300000D03*
X33500000Y-27750000D03*
X62887500Y-56950000D03*
X16912013Y-16100000D03*
X63187500Y-31925000D03*
X23400000Y-33600000D03*
X60937500Y-19725000D03*
X68300000Y-40900000D03*
X23400000Y-38100000D03*
X21250000Y-24250000D03*
X66900000Y-69700000D03*
X36085750Y-22114250D03*
%TO.N,12V_BUS*%
X68625735Y-39611765D03*
X85837500Y-41175000D03*
X60175000Y-15087500D03*
X63587500Y-42575000D03*
X32800000Y-14800000D03*
X51800000Y-24200000D03*
X51600000Y-16750000D03*
%TO.N,3V3_BUS*%
X79937500Y-34875000D03*
X78037500Y-36775000D03*
X86054167Y-36100000D03*
X85450000Y-34000000D03*
X77637500Y-44234700D03*
X81837500Y-32975000D03*
X65474828Y-39337498D03*
X59526795Y-51975000D03*
X88350000Y-64400000D03*
%TO.N,Net-(U1-EN)*%
X30000000Y-18200000D03*
X17022673Y-21400000D03*
%TO.N,/BOOT*%
X41000000Y-60900000D03*
X37500000Y-64300000D03*
%TO.N,/TX*%
X40800000Y-62400000D03*
X43000000Y-64600000D03*
%TO.N,/BMS TX*%
X83698018Y-50398018D03*
%TO.N,GND*%
X81100000Y-24900000D03*
X77400000Y-24900000D03*
X80037500Y-38475000D03*
X80037500Y-41675000D03*
X81337500Y-17815950D03*
X81287500Y-16615950D03*
X80687500Y-15765950D03*
X69587500Y-15775000D03*
X70437500Y-16525000D03*
X70637500Y-17925000D03*
X42000000Y-30500000D03*
%TD*%
D57*
%TO.N,/OLED SCL*%
X35800000Y-52200000D02*
X35260000Y-52200000D01*
X68143795Y-49500000D02*
X38500000Y-49500000D01*
X38500000Y-49500000D02*
X35800000Y-52200000D01*
X70421795Y-51778000D02*
X68143795Y-49500000D01*
X70421795Y-52310000D02*
X70421795Y-51778000D01*
%TO.N,/OLED SDA*%
X38200000Y-52200000D02*
X37800000Y-52200000D01*
X40100000Y-50300000D02*
X38200000Y-52200000D01*
X67000000Y-50300000D02*
X40100000Y-50300000D01*
X69796162Y-50303838D02*
X69992324Y-50500000D01*
X71100000Y-50500000D02*
X71691795Y-51091795D01*
X71691795Y-51091795D02*
X71691795Y-52310000D01*
X69992324Y-50500000D02*
X71100000Y-50500000D01*
%TO.N,GND*%
X68700000Y-41237500D02*
X69862500Y-41237500D01*
X68300000Y-40900000D02*
X68362500Y-40900000D01*
X68362500Y-40900000D02*
X68700000Y-41237500D01*
D58*
X42912500Y-42687500D02*
X41127498Y-42687500D01*
X43325000Y-43100000D02*
X42912500Y-42687500D01*
X39187500Y-42687500D02*
X41127498Y-42687500D01*
X38800000Y-43075000D02*
X39187500Y-42687500D01*
X38800000Y-43100000D02*
X38800000Y-43075000D01*
D57*
%TO.N,12V_BUS*%
X68625735Y-39986765D02*
X68325001Y-40287499D01*
X68325001Y-40287499D02*
X67259000Y-40287499D01*
X68625735Y-39611765D02*
X68625735Y-39986765D01*
D58*
%TO.N,GND*%
X66900000Y-69700000D02*
X66530000Y-70070000D01*
X66530000Y-70070000D02*
X64851795Y-70070000D01*
X42000000Y-30500000D02*
X42000000Y-31662500D01*
D57*
%TO.N,3V3_BUS*%
X79937500Y-34875000D02*
X81837500Y-32975000D01*
X88000000Y-36541666D02*
X86495833Y-36541666D01*
X86495833Y-36541666D02*
X86054167Y-36100000D01*
X19185000Y-57300000D02*
X18085000Y-58400000D01*
X27620000Y-57300000D02*
X19185000Y-57300000D01*
X32720000Y-52200000D02*
X27620000Y-57300000D01*
%TO.N,/BOOT*%
X46650000Y-55250000D02*
X49600000Y-55250000D01*
X41000000Y-60900000D02*
X46650000Y-55250000D01*
%TO.N,/TX*%
X19525000Y-59500000D02*
X18085000Y-60940000D01*
X37900000Y-59500000D02*
X19525000Y-59500000D01*
X40800000Y-62400000D02*
X37900000Y-59500000D01*
%TO.N,/BOOT*%
X34500000Y-67400000D02*
X37500000Y-64400000D01*
X37500000Y-64400000D02*
X37500000Y-64300000D01*
X19465000Y-67400000D02*
X34500000Y-67400000D01*
X18085000Y-66020000D02*
X19465000Y-67400000D01*
%TO.N,/EN*%
X19375000Y-69850000D02*
X18085000Y-68560000D01*
X56100000Y-69850000D02*
X19375000Y-69850000D01*
X57150000Y-70900000D02*
X56100000Y-69850000D01*
X77300000Y-70900000D02*
X57150000Y-70900000D01*
X82351795Y-67530000D02*
X80670000Y-67530000D01*
X80670000Y-67530000D02*
X77300000Y-70900000D01*
%TO.N,GND*%
X68487500Y-43287500D02*
X68400000Y-43200000D01*
X69725000Y-43287500D02*
X68487500Y-43287500D01*
X79175000Y-24675001D02*
X80875001Y-24675001D01*
X80875001Y-24675001D02*
X81100000Y-24900000D01*
X77400000Y-24900000D02*
X77624999Y-24675001D01*
X77624999Y-24675001D02*
X79175000Y-24675001D01*
%TO.N,3V3_BUS*%
X65474828Y-39224828D02*
X65474828Y-39337498D01*
X63500000Y-37250000D02*
X65474828Y-39224828D01*
%TO.N,Net-(U1-SW)*%
X38800000Y-20787500D02*
X38800000Y-26900000D01*
X38800000Y-26900000D02*
X40200000Y-28300000D01*
D58*
%TO.N,GND*%
X22378218Y-30200000D02*
X20700000Y-31878218D01*
X20700000Y-31878218D02*
X20700000Y-33200000D01*
X22485600Y-30200000D02*
X22378218Y-30200000D01*
X20700000Y-33200000D02*
X23400000Y-35900000D01*
X23400000Y-33600000D02*
X23400000Y-35900000D01*
X25700000Y-35900000D02*
X23400000Y-35900000D01*
X23400000Y-35900000D02*
X21100000Y-35900000D01*
D59*
X23400000Y-38100000D02*
X23400000Y-35900000D01*
D58*
%TO.N,VBAT*%
X33575000Y-22900000D02*
X33575000Y-23412500D01*
X33012500Y-22337500D02*
X33575000Y-22900000D01*
X31487500Y-29487500D02*
X33662500Y-31662500D01*
X31957700Y-39107700D02*
X29637500Y-36787500D01*
X33662500Y-31662500D02*
X40275000Y-31662500D01*
X33521516Y-21451000D02*
X33521516Y-22846516D01*
X31487500Y-28750000D02*
X31487500Y-25500000D01*
X40275000Y-33835002D02*
X41127498Y-34687500D01*
X31487500Y-25500000D02*
X31487500Y-24687500D01*
X29637500Y-36787500D02*
X29637500Y-33802498D01*
X29850000Y-28750000D02*
X31487500Y-28750000D01*
X33521516Y-22846516D02*
X33575000Y-22900000D01*
X31487500Y-24687500D02*
X29137500Y-22337500D01*
D57*
X31337500Y-20012500D02*
X32776000Y-21451000D01*
X32776000Y-21451000D02*
X33521516Y-21451000D01*
D58*
X31487500Y-28750000D02*
X31487500Y-29487500D01*
X17022673Y-27000000D02*
X15577326Y-27000000D01*
X41127498Y-34687500D02*
X36707298Y-39107700D01*
X29137500Y-22337500D02*
X33012500Y-22337500D01*
X40275000Y-31662500D02*
X40275000Y-33835002D01*
X29637500Y-33802498D02*
X29952498Y-33487500D01*
X33575000Y-23412500D02*
X31487500Y-25500000D01*
X36707298Y-39107700D02*
X31957700Y-39107700D01*
%TO.N,GND*%
X34000000Y-25500000D02*
X33500000Y-25000000D01*
X53800000Y-19200000D02*
X53050000Y-19200000D01*
X34500000Y-28750000D02*
X33500000Y-27750000D01*
D57*
X80250000Y-17578450D02*
X80137500Y-17465950D01*
X53462500Y-19300000D02*
X52300000Y-19300000D01*
X84350000Y-65637500D02*
X84562500Y-65637500D01*
X53462500Y-22150000D02*
X52350000Y-22150000D01*
D58*
X62862500Y-56975000D02*
X62887500Y-56950000D01*
D57*
X80250000Y-21215950D02*
X80250000Y-21328450D01*
D58*
X86750000Y-70612500D02*
X86750000Y-69300000D01*
X34250000Y-28750000D02*
X33500000Y-29500000D01*
X64937500Y-31834700D02*
X63277800Y-31834700D01*
X63277800Y-31834700D02*
X63187500Y-31925000D01*
X36085750Y-22114250D02*
X36221500Y-21978500D01*
X23912500Y-22337500D02*
X21137500Y-22337500D01*
X62862500Y-63000000D02*
X62862500Y-64225000D01*
D57*
X69862500Y-41237500D02*
X69862500Y-43150000D01*
X80250000Y-21215950D02*
X80250000Y-17578450D01*
D58*
X16912013Y-16100000D02*
X15600000Y-16100000D01*
D57*
X81100000Y-38537500D02*
X81100000Y-41787500D01*
D58*
X66597200Y-31834700D02*
X64937500Y-31834700D01*
X34612500Y-23587500D02*
X35300000Y-22900000D01*
D57*
X34637500Y-15637500D02*
X34637500Y-16087500D01*
D58*
X84094295Y-70762500D02*
X83401795Y-70070000D01*
D57*
X61239295Y-55280352D02*
X61239295Y-54469647D01*
X69862500Y-43150000D02*
X69725000Y-43287500D01*
D58*
X49650000Y-59800000D02*
X49600000Y-59750000D01*
X35000000Y-21000000D02*
X35451000Y-21451000D01*
D57*
X60700000Y-55600000D02*
X60800000Y-55600000D01*
D58*
X34612500Y-25500000D02*
X34000000Y-25500000D01*
X34500000Y-25500000D02*
X33500000Y-26500000D01*
X35799000Y-21451000D02*
X36221500Y-21451000D01*
X84351795Y-70762500D02*
X84094295Y-70762500D01*
X62862500Y-58150000D02*
X62862500Y-56975000D01*
X35451000Y-21451000D02*
X36221500Y-21451000D01*
X60947200Y-19734700D02*
X60937500Y-19725000D01*
D57*
X74281795Y-62681795D02*
X74281795Y-62730000D01*
X33600000Y-14100000D02*
X33600000Y-14600000D01*
D58*
X34612500Y-25500000D02*
X34612500Y-23587500D01*
X34612500Y-28750000D02*
X34250000Y-28750000D01*
X19650000Y-22250000D02*
X19737500Y-22337500D01*
X41127498Y-39872502D02*
X41127498Y-42687500D01*
X34612500Y-28750000D02*
X34500000Y-28750000D01*
D57*
X60800000Y-55719647D02*
X61239295Y-55280352D01*
D58*
X36085750Y-22114250D02*
X35300000Y-22900000D01*
X62862500Y-64225000D02*
X62887500Y-64250000D01*
X34612500Y-25500000D02*
X34500000Y-25500000D01*
X34612500Y-28750000D02*
X34612500Y-25500000D01*
X21137500Y-22337500D02*
X21137500Y-20612500D01*
X79311795Y-50940000D02*
X79351795Y-50900000D01*
X83401795Y-70070000D02*
X82351795Y-70070000D01*
X24000000Y-22250000D02*
X23912500Y-22337500D01*
X62037400Y-19734700D02*
X60947200Y-19734700D01*
X21137500Y-22337500D02*
X21137500Y-24137500D01*
X36221500Y-21978500D02*
X36221500Y-21451000D01*
X66687500Y-31925000D02*
X66597200Y-31834700D01*
X53800000Y-22000000D02*
X53250000Y-22000000D01*
X53462500Y-19300000D02*
X53462500Y-22150000D01*
X84501795Y-70612500D02*
X84351795Y-70762500D01*
D59*
X18085000Y-55860000D02*
X18085000Y-55815000D01*
D57*
X33600000Y-14600000D02*
X34637500Y-15637500D01*
D58*
X86600000Y-70762500D02*
X86750000Y-70612500D01*
X21137500Y-24137500D02*
X21250000Y-24250000D01*
X22485600Y-30200000D02*
X21950000Y-30200000D01*
X64937500Y-31834700D02*
X64937500Y-29425000D01*
X84351795Y-70762500D02*
X86600000Y-70762500D01*
X53250000Y-22000000D02*
X53162500Y-22087500D01*
X21137500Y-20612500D02*
X21250000Y-20500000D01*
X79311795Y-52310000D02*
X79311795Y-50940000D01*
D57*
%TO.N,Net-(D3-A)*%
X67275000Y-22997200D02*
X67275000Y-21825000D01*
D58*
X63637600Y-19734700D02*
X63637600Y-21459800D01*
X63762500Y-21584700D02*
X63762500Y-21550000D01*
X63762500Y-21550000D02*
X63737500Y-21525000D01*
X63637600Y-21459800D02*
X63762500Y-21584700D01*
X64937500Y-25334700D02*
X65337500Y-25334700D01*
X64937500Y-22759700D02*
X63762500Y-21584700D01*
D57*
X67275000Y-17687500D02*
X67487500Y-17475000D01*
X64937500Y-25334700D02*
X67275000Y-22997200D01*
X67275000Y-21825000D02*
X67275000Y-17687500D01*
D58*
X62837500Y-18084700D02*
X63637600Y-18884800D01*
X64937500Y-25334700D02*
X64937500Y-22759700D01*
X63637600Y-18884800D02*
X63637600Y-19734700D01*
D57*
%TO.N,Net-(U1-SW)*%
X39040850Y-20987500D02*
X39040850Y-21100000D01*
X38800000Y-20859150D02*
X39040850Y-21100000D01*
D58*
X38787500Y-18525000D02*
X38787500Y-20587500D01*
X36387500Y-16125000D02*
X38787500Y-18525000D01*
D57*
X38800000Y-20787500D02*
X38800000Y-20859150D01*
D58*
X38700999Y-20500999D02*
X38787500Y-20587500D01*
X36221500Y-20500999D02*
X38700999Y-20500999D01*
%TO.N,Net-(U1-CB)*%
X36221500Y-19550998D02*
X36221500Y-18016000D01*
X36221500Y-18016000D02*
X36387500Y-17850000D01*
D57*
%TO.N,12V_BUS*%
X67259000Y-41237500D02*
X67259000Y-41953500D01*
D58*
X47388950Y-20787500D02*
X48975000Y-20787500D01*
D59*
X66600000Y-43287500D02*
X64300000Y-43287500D01*
D57*
X51787500Y-24200000D02*
X51800000Y-24200000D01*
X67259000Y-40287499D02*
X67259000Y-41237500D01*
X86287500Y-41625000D02*
X85837500Y-41175000D01*
D58*
X47087500Y-20587500D02*
X48425000Y-20587500D01*
X47087500Y-20587500D02*
X48175000Y-20587500D01*
X48975000Y-20787500D02*
X50337500Y-22150000D01*
X48850000Y-20787500D02*
X50337500Y-19300000D01*
X50337500Y-19300000D02*
X50337500Y-18012500D01*
D57*
X32800000Y-14800000D02*
X32800000Y-16000000D01*
X66600000Y-42612500D02*
X66600000Y-43287500D01*
D58*
X60175000Y-15087500D02*
X62837500Y-15087500D01*
X50337500Y-19300000D02*
X50337500Y-22150000D01*
X50337500Y-22150000D02*
X50337500Y-22737500D01*
X50337500Y-18012500D02*
X51600000Y-16750000D01*
D57*
X67259000Y-41953500D02*
X66600000Y-42612500D01*
D59*
X64300000Y-43287500D02*
X63587500Y-42575000D01*
D57*
X32800000Y-16000000D02*
X32887500Y-16087500D01*
X87987500Y-41625000D02*
X86287500Y-41625000D01*
D58*
X47388950Y-20787500D02*
X48850000Y-20787500D01*
X50337500Y-22737500D02*
X51800000Y-24200000D01*
D57*
%TO.N,Net-(U3-BST)*%
X69862500Y-39337498D02*
X69199998Y-39337498D01*
X68100000Y-38237500D02*
X68100000Y-37687500D01*
X69199998Y-39337498D02*
X68100000Y-38237500D01*
%TO.N,Net-(U3-SW)*%
X71612499Y-40287499D02*
X71662500Y-40337500D01*
X72437500Y-35775000D02*
X72437500Y-39724999D01*
X70750000Y-37687500D02*
X71887499Y-38824999D01*
X71662500Y-38600000D02*
X71662500Y-40337500D01*
X69825000Y-37687500D02*
X70750000Y-37687500D01*
X71875000Y-40287499D02*
X71887499Y-40275000D01*
X72437500Y-39724999D02*
X71887499Y-40275000D01*
X69862500Y-40287499D02*
X71875000Y-40287499D01*
X71887499Y-38824999D02*
X71887499Y-40275000D01*
%TO.N,3V3_BUS*%
X65474828Y-39337498D02*
X67259000Y-39337498D01*
X77975000Y-43897200D02*
X77637500Y-44234700D01*
D59*
X84114295Y-68800000D02*
X84351795Y-69037500D01*
D57*
X87812500Y-66425000D02*
X86750000Y-67487500D01*
X87812500Y-65650000D02*
X87812500Y-66425000D01*
X76462500Y-40275000D02*
X77975000Y-41787500D01*
X78037500Y-38475000D02*
X77975000Y-38537500D01*
X85200000Y-69037500D02*
X84351795Y-69037500D01*
X78037500Y-36775000D02*
X78037500Y-38475000D01*
X88350000Y-64400000D02*
X88350000Y-65112500D01*
X86750000Y-67487500D02*
X85200000Y-69037500D01*
X76237500Y-40275000D02*
X77975000Y-38537500D01*
X84651795Y-68887500D02*
X84514295Y-68887500D01*
D59*
X82351795Y-68800000D02*
X84114295Y-68800000D01*
D57*
X75787501Y-40275000D02*
X76237500Y-40275000D01*
X84514295Y-68887500D02*
X84426795Y-68800000D01*
X77975000Y-41787500D02*
X77975000Y-43897200D01*
X88350000Y-65112500D02*
X87812500Y-65650000D01*
X85450000Y-34000000D02*
X85450000Y-30798601D01*
X61189295Y-52737500D02*
X61126795Y-52800000D01*
X77975000Y-38537500D02*
X77975000Y-41787500D01*
X85450000Y-30798601D02*
X85473600Y-30775001D01*
X75787501Y-40275000D02*
X76462500Y-40275000D01*
X60401795Y-52850000D02*
X59526795Y-51975000D01*
X61189295Y-52850000D02*
X60401795Y-52850000D01*
D58*
%TO.N,Net-(D2-A)*%
X31712500Y-31897502D02*
X33302498Y-33487500D01*
X34027498Y-34212500D02*
X33302498Y-33487500D01*
X34027498Y-36787500D02*
X34027498Y-34212500D01*
X31712500Y-31600000D02*
X31712500Y-31897502D01*
%TO.N,Net-(D3-K)*%
X60775000Y-22522200D02*
X61712500Y-21584700D01*
X60775000Y-23384700D02*
X60775000Y-22522200D01*
D57*
%TO.N,Net-(D8-K)*%
X75150000Y-30875001D02*
X73937500Y-30875001D01*
X73126250Y-31686251D02*
X72125000Y-31686251D01*
X73937500Y-30875001D02*
X73126250Y-31686251D01*
D58*
%TO.N,Net-(J1-Pin_2)*%
X23400000Y-40900000D02*
X23400000Y-44844800D01*
X23400000Y-44844800D02*
X23955200Y-45400000D01*
D57*
%TO.N,Net-(U1-FB)*%
X30325000Y-15350000D02*
X27600000Y-15350000D01*
X33521516Y-18921516D02*
X33521516Y-18478484D01*
X32887500Y-18487500D02*
X32887500Y-17912500D01*
X33521516Y-18478484D02*
X34087500Y-17912500D01*
X33521516Y-19550998D02*
X33521516Y-19121516D01*
X33521516Y-19550998D02*
X33521516Y-18921516D01*
X33521516Y-19121516D02*
X32887500Y-18487500D01*
X32887500Y-17912500D02*
X30325000Y-15350000D01*
X34087500Y-17912500D02*
X34637500Y-17912500D01*
D58*
%TO.N,Net-(Q1-D)*%
X29569999Y-45400000D02*
X31832499Y-43137500D01*
X26307382Y-30200000D02*
X26200000Y-30200000D01*
X27800000Y-31692618D02*
X26307382Y-30200000D01*
X26800000Y-45400000D02*
X29569999Y-45400000D01*
X31832499Y-43137500D02*
X27800000Y-39105001D01*
X27800000Y-39105001D02*
X27800000Y-31692618D01*
D57*
%TO.N,Net-(J5-Pin_2)*%
X83074900Y-24956737D02*
X83074900Y-24725001D01*
X78137500Y-20828450D02*
X78525000Y-21215950D01*
X85972200Y-27275001D02*
X85972200Y-25736701D01*
X85598000Y-25362501D02*
X83480664Y-25362501D01*
X78137500Y-17465950D02*
X78137500Y-20828450D01*
X78525000Y-21215950D02*
X82034051Y-24725001D01*
X85972200Y-25736701D02*
X85598000Y-25362501D01*
X82034051Y-24725001D02*
X83074900Y-24725001D01*
X83480664Y-25362501D02*
X83074900Y-24956737D01*
%TO.N,/3V3_SPLIT*%
X82137500Y-27275001D02*
X82975000Y-27275001D01*
X79175000Y-29075001D02*
X79168750Y-29081251D01*
X80875000Y-30775001D02*
X79175000Y-29075001D01*
X77200000Y-30875001D02*
X77375000Y-30875001D01*
X82476400Y-30775001D02*
X80875000Y-30775001D01*
X79175000Y-29075001D02*
X80337500Y-29075001D01*
X80337500Y-29075001D02*
X82137500Y-27275001D01*
X77375000Y-30875001D02*
X79175000Y-29075001D01*
%TO.N,Net-(U1-EN)*%
X32250000Y-19731481D02*
X33019518Y-20500999D01*
X30012500Y-18187500D02*
X30000000Y-18200000D01*
X31337500Y-18187500D02*
X30012500Y-18187500D01*
X31337500Y-18187500D02*
X32250000Y-19100000D01*
X32250000Y-19100000D02*
X32250000Y-19731481D01*
X17022673Y-21400000D02*
X15577326Y-21400000D01*
X33019518Y-20500999D02*
X33521516Y-20500999D01*
%TO.N,/EN*%
X84182500Y-67530000D02*
X84350000Y-67362500D01*
X84350000Y-67287500D02*
X85987500Y-65650000D01*
X18340000Y-68305000D02*
X18085000Y-68560000D01*
X82351795Y-67530000D02*
X84182500Y-67530000D01*
X84350000Y-67362500D02*
X84350000Y-67287500D01*
D58*
%TO.N,/BOOT*%
X63724295Y-53560000D02*
X63014295Y-52850000D01*
D57*
X60664295Y-56650000D02*
X62964295Y-54350000D01*
X60664295Y-56650000D02*
X57500000Y-56650000D01*
D58*
X64851795Y-53560000D02*
X63724295Y-53560000D01*
D57*
X18135000Y-65970000D02*
X18085000Y-66020000D01*
D58*
X63754295Y-53560000D02*
X64851795Y-53560000D01*
D57*
X57500000Y-56650000D02*
X56100000Y-55250000D01*
X56100000Y-55250000D02*
X49600000Y-55250000D01*
D58*
X62964295Y-54350000D02*
X63754295Y-53560000D01*
D57*
%TO.N,/RX*%
X59910000Y-64990000D02*
X57850000Y-67050000D01*
X43480000Y-63480000D02*
X18085000Y-63480000D01*
X47050000Y-67050000D02*
X43480000Y-63480000D01*
X18125000Y-63495000D02*
X18085000Y-63455000D01*
X64851795Y-64990000D02*
X59910000Y-64990000D01*
X57850000Y-67050000D02*
X47050000Y-67050000D01*
X18135000Y-63430000D02*
X18085000Y-63480000D01*
%TO.N,/TX*%
X60160000Y-66260000D02*
X64851795Y-66260000D01*
X58300000Y-68100000D02*
X46500000Y-68100000D01*
X46500000Y-68100000D02*
X43000000Y-64600000D01*
X64851795Y-66260000D02*
X64786795Y-66325000D01*
X58300000Y-68100000D02*
X60150000Y-66250000D01*
X60150000Y-66250000D02*
X60160000Y-66260000D01*
%TO.N,/VESC RX*%
X82351795Y-58640000D02*
X87360000Y-58640000D01*
X87360000Y-58640000D02*
X87500000Y-58500000D01*
X86890000Y-58640000D02*
X87050000Y-58800000D01*
%TO.N,/BMS RX*%
X87500000Y-48900000D02*
X84347506Y-48900000D01*
X84347506Y-48900000D02*
X77147506Y-56100000D01*
X77147506Y-56100000D02*
X64851795Y-56100000D01*
%TO.N,/LED*%
X64851795Y-59910000D02*
X63010000Y-59910000D01*
X63010000Y-59910000D02*
X62900000Y-59800000D01*
%TO.N,Net-(D5-A)*%
X61075000Y-58187500D02*
X61112500Y-58150000D01*
X61075000Y-59800000D02*
X61075000Y-58187500D01*
%TO.N,/BMS TX*%
X81859795Y-52250000D02*
X81859795Y-52236241D01*
X81859795Y-52250000D02*
X76739795Y-57370000D01*
X76739795Y-57370000D02*
X64851795Y-57370000D01*
X81859795Y-52236241D02*
X83698018Y-50398018D01*
%TO.N,/VESC TX*%
X86630000Y-57370000D02*
X87500000Y-56500000D01*
X82351795Y-57370000D02*
X86630000Y-57370000D01*
%TO.N,Net-(D6-A)*%
X61075000Y-62962500D02*
X61112500Y-63000000D01*
X61075000Y-61400000D02*
X61075000Y-62962500D01*
%TO.N,Net-(U2-IO19)*%
X64851795Y-61180000D02*
X63120000Y-61180000D01*
X63120000Y-61180000D02*
X62900000Y-61400000D01*
%TO.N,GND*%
X80100000Y-38537500D02*
X80037500Y-38475000D01*
X81100000Y-38537500D02*
X80100000Y-38537500D01*
X80150000Y-41787500D02*
X80037500Y-41675000D01*
X81100000Y-41787500D02*
X80150000Y-41787500D01*
X75806795Y-61193205D02*
X75806795Y-61205000D01*
X80987500Y-17465950D02*
X81337500Y-17815950D01*
X80137500Y-17465950D02*
X80987500Y-17465950D01*
X80987500Y-16615950D02*
X81287500Y-16615950D01*
X80137500Y-17465950D02*
X80987500Y-16615950D01*
X80137500Y-17465950D02*
X80137500Y-16315950D01*
X80137500Y-16315950D02*
X80687500Y-15765950D01*
X69000000Y-17962500D02*
X69487500Y-17475000D01*
X69000000Y-21825000D02*
X69000000Y-17962500D01*
X69487500Y-15875000D02*
X69587500Y-15775000D01*
X69487500Y-17475000D02*
X69487500Y-15875000D01*
X69487500Y-17475000D02*
X70437500Y-16525000D01*
X69487500Y-17475000D02*
X70187500Y-17475000D01*
X70187500Y-17475000D02*
X70637500Y-17925000D01*
%TO.N,12V_BUS*%
X50337500Y-26637500D02*
X51900000Y-28200000D01*
X50337500Y-22150000D02*
X50337500Y-26637500D01*
%TD*%
%TA.AperFunction,Conductor*%
%TO.N,GND*%
G36*
X35190945Y-18911632D02*
G01*
X35222138Y-18974151D01*
X35216262Y-19039341D01*
X35177409Y-19143512D01*
X35177408Y-19143514D01*
X35171134Y-19201880D01*
X35171001Y-19203121D01*
X35171000Y-19203133D01*
X35171000Y-19817651D01*
X35151315Y-19884690D01*
X35143553Y-19895455D01*
X35126080Y-19917137D01*
X35094433Y-19961025D01*
X35034663Y-20091899D01*
X35014976Y-20158944D01*
X34994500Y-20301363D01*
X34994500Y-20698640D01*
X34997397Y-20752688D01*
X34997397Y-20752689D01*
X35000229Y-20779022D01*
X35000232Y-20779049D01*
X35008885Y-20832445D01*
X35008885Y-20832447D01*
X35056844Y-20961026D01*
X35059168Y-20967257D01*
X35067166Y-20981904D01*
X35088419Y-21020827D01*
X35092653Y-21028580D01*
X35178877Y-21143761D01*
X35306739Y-21271623D01*
X35306755Y-21271637D01*
X35306762Y-21271644D01*
X35346980Y-21307771D01*
X35346987Y-21307777D01*
X35346994Y-21307782D01*
X35347000Y-21307788D01*
X35367642Y-21324422D01*
X35411567Y-21356093D01*
X35421810Y-21360770D01*
X35450175Y-21378999D01*
X35513309Y-21402546D01*
X35517329Y-21404382D01*
X35517331Y-21404382D01*
X35542451Y-21415852D01*
X35545047Y-21416614D01*
X35545047Y-21416613D01*
X35568852Y-21423601D01*
X35568875Y-21423607D01*
X35573105Y-21424849D01*
X35584984Y-21429280D01*
X35597329Y-21431965D01*
X35603018Y-21433635D01*
X35603822Y-21433872D01*
X35605686Y-21434517D01*
X35609443Y-21435523D01*
X35609446Y-21435524D01*
X35751862Y-21456000D01*
X36620500Y-21456000D01*
X36687539Y-21475685D01*
X36733294Y-21528489D01*
X36744500Y-21580000D01*
X36744500Y-22448640D01*
X36747397Y-22502688D01*
X36747397Y-22502689D01*
X36749258Y-22519995D01*
X36500000Y-22270737D01*
X34755500Y-22270737D01*
X34755500Y-21301362D01*
X34752603Y-21247322D01*
X34749769Y-21220964D01*
X34741114Y-21167552D01*
X34690832Y-21032743D01*
X34657347Y-20971420D01*
X34649566Y-20961026D01*
X34596748Y-20890469D01*
X34572331Y-20825005D01*
X34572015Y-20816185D01*
X34572015Y-20153127D01*
X34565607Y-20093516D01*
X34565606Y-20093513D01*
X34556587Y-20069331D01*
X34551602Y-19999640D01*
X34556582Y-19982675D01*
X34565607Y-19958481D01*
X34572016Y-19898871D01*
X34572015Y-19203126D01*
X34565607Y-19143515D01*
X34560312Y-19129319D01*
X34542103Y-19080498D01*
X34537378Y-19067831D01*
X34532395Y-18998141D01*
X34565880Y-18936818D01*
X34627203Y-18903333D01*
X34653561Y-18900499D01*
X34924170Y-18900499D01*
X34924176Y-18900499D01*
X35025253Y-18890174D01*
X35061074Y-18878303D01*
X35130903Y-18875901D01*
X35190945Y-18911632D01*
G37*
%TD.AperFunction*%
%TA.AperFunction,Conductor*%
G36*
X87026981Y-12588622D02*
G01*
X87093999Y-12608369D01*
X87139705Y-12661215D01*
X87149584Y-12730383D01*
X87120501Y-12793912D01*
X87104177Y-12809568D01*
X87041975Y-12859173D01*
X86803671Y-13097477D01*
X86593550Y-13360962D01*
X86414249Y-13646316D01*
X86268029Y-13949945D01*
X86156724Y-14268034D01*
X86156720Y-14268046D01*
X86081730Y-14596602D01*
X86081728Y-14596618D01*
X86043997Y-14931491D01*
X86043997Y-15268508D01*
X86081728Y-15603381D01*
X86081730Y-15603397D01*
X86156720Y-15931953D01*
X86156724Y-15931965D01*
X86268029Y-16250054D01*
X86414249Y-16553683D01*
X86452250Y-16614161D01*
X86593551Y-16839039D01*
X86742933Y-17026358D01*
X86803669Y-17102520D01*
X86803672Y-17102523D01*
X87041974Y-17340825D01*
X87305458Y-17550946D01*
X87590811Y-17730246D01*
X87894446Y-17876469D01*
X88070669Y-17938132D01*
X88212531Y-17987772D01*
X88212543Y-17987776D01*
X88541103Y-18062767D01*
X88875989Y-18100499D01*
X88875990Y-18100500D01*
X88875993Y-18100500D01*
X89213004Y-18100500D01*
X89213004Y-18100499D01*
X89547891Y-18062767D01*
X89876451Y-17987776D01*
X90194548Y-17876469D01*
X90498183Y-17730246D01*
X90783536Y-17550946D01*
X91047020Y-17340825D01*
X91285322Y-17102523D01*
X91332417Y-17043467D01*
X91389602Y-17003328D01*
X91459414Y-17000476D01*
X91519684Y-17035821D01*
X91551279Y-17098139D01*
X91553363Y-17120764D01*
X91557115Y-45391798D01*
X91560576Y-71478353D01*
X91560579Y-71495984D01*
X91540903Y-71563026D01*
X91488105Y-71608788D01*
X91436579Y-71620000D01*
X77716697Y-71620000D01*
X77649658Y-71600315D01*
X77603903Y-71547511D01*
X77593959Y-71478353D01*
X77622984Y-71414797D01*
X77632426Y-71405036D01*
X77642637Y-71395576D01*
X77668716Y-71380520D01*
X77780520Y-71268716D01*
X77780521Y-71268713D01*
X80882417Y-68166819D01*
X80943740Y-68133334D01*
X80970098Y-68130500D01*
X80981701Y-68130500D01*
X81048740Y-68150185D01*
X81094495Y-68202989D01*
X81104990Y-68267752D01*
X81101295Y-68302127D01*
X81101295Y-68302128D01*
X81101295Y-68302132D01*
X81101295Y-69297870D01*
X81101296Y-69297876D01*
X81107703Y-69357483D01*
X81157997Y-69492328D01*
X81158001Y-69492335D01*
X81244247Y-69607544D01*
X81244250Y-69607547D01*
X81359459Y-69693793D01*
X81359466Y-69693797D01*
X81494312Y-69744091D01*
X81494311Y-69744091D01*
X81501239Y-69744835D01*
X81553922Y-69750500D01*
X83149667Y-69750499D01*
X83209278Y-69744091D01*
X83344126Y-69693796D01*
X83344126Y-69693795D01*
X83348579Y-69692135D01*
X83418270Y-69687151D01*
X83479593Y-69720636D01*
X83497448Y-69743217D01*
X83531455Y-69798350D01*
X83653445Y-69920340D01*
X83800279Y-70010908D01*
X83964042Y-70065174D01*
X84065118Y-70075500D01*
X84638471Y-70075499D01*
X84638479Y-70075498D01*
X84638482Y-70075498D01*
X84693825Y-70069844D01*
X84739548Y-70065174D01*
X84903311Y-70010908D01*
X85050145Y-69920340D01*
X85172135Y-69798350D01*
X85243591Y-69682500D01*
X85260480Y-69667309D01*
X85273932Y-69649001D01*
X85289145Y-69641526D01*
X85295536Y-69635778D01*
X85304756Y-69631810D01*
X85310786Y-69629498D01*
X85431785Y-69597077D01*
X85495138Y-69560500D01*
X85568716Y-69518020D01*
X85680520Y-69406216D01*
X85680520Y-69406214D01*
X85690724Y-69396011D01*
X85690728Y-69396006D01*
X86399916Y-68686818D01*
X86461239Y-68653333D01*
X86487597Y-68650499D01*
X87900002Y-68650499D01*
X87900008Y-68650499D01*
X88002797Y-68639999D01*
X88169334Y-68584814D01*
X88318656Y-68492712D01*
X88442712Y-68368656D01*
X88534814Y-68219334D01*
X88589999Y-68052797D01*
X88600500Y-67950009D01*
X88600499Y-67024992D01*
X88589999Y-66922203D01*
X88534814Y-66755666D01*
X88469263Y-66649390D01*
X88450823Y-66581998D01*
X88471746Y-66515335D01*
X88509704Y-66478756D01*
X88523350Y-66470340D01*
X88645340Y-66348350D01*
X88735908Y-66201516D01*
X88790174Y-66037753D01*
X88800500Y-65936677D01*
X88800499Y-65562430D01*
X88820183Y-65495392D01*
X88826127Y-65486939D01*
X88830513Y-65481222D01*
X88830520Y-65481216D01*
X88909577Y-65344285D01*
X88950501Y-65191557D01*
X88950501Y-65033442D01*
X88950501Y-65025847D01*
X88950500Y-65025829D01*
X88950500Y-64979765D01*
X88970185Y-64912726D01*
X88971398Y-64910874D01*
X89059390Y-64779185D01*
X89059390Y-64779184D01*
X89059394Y-64779179D01*
X89119737Y-64633497D01*
X89150500Y-64478842D01*
X89150500Y-64321158D01*
X89150500Y-64321155D01*
X89150499Y-64321153D01*
X89150470Y-64321006D01*
X89119737Y-64166503D01*
X89112073Y-64148001D01*
X89059397Y-64020827D01*
X89059390Y-64020814D01*
X88971789Y-63889711D01*
X88971786Y-63889707D01*
X88860292Y-63778213D01*
X88860288Y-63778210D01*
X88729185Y-63690609D01*
X88729172Y-63690602D01*
X88583501Y-63630264D01*
X88583489Y-63630261D01*
X88428845Y-63599500D01*
X88428842Y-63599500D01*
X88271158Y-63599500D01*
X88271155Y-63599500D01*
X88116510Y-63630261D01*
X88116498Y-63630264D01*
X87970827Y-63690602D01*
X87970814Y-63690609D01*
X87839711Y-63778210D01*
X87839707Y-63778213D01*
X87728213Y-63889707D01*
X87728210Y-63889711D01*
X87640609Y-64020814D01*
X87640602Y-64020827D01*
X87580264Y-64166498D01*
X87580261Y-64166510D01*
X87549500Y-64321153D01*
X87549500Y-64478846D01*
X87560329Y-64533286D01*
X87554102Y-64602877D01*
X87511239Y-64658055D01*
X87451314Y-64680835D01*
X87412247Y-64684826D01*
X87248484Y-64739092D01*
X87248481Y-64739093D01*
X87101648Y-64829661D01*
X86987681Y-64943629D01*
X86926358Y-64977114D01*
X86856666Y-64972130D01*
X86812319Y-64943629D01*
X86698351Y-64829661D01*
X86698350Y-64829660D01*
X86551516Y-64739092D01*
X86387753Y-64684826D01*
X86387751Y-64684825D01*
X86286678Y-64674500D01*
X85688330Y-64674500D01*
X85688312Y-64674501D01*
X85587247Y-64684825D01*
X85423484Y-64739092D01*
X85423481Y-64739093D01*
X85276648Y-64829661D01*
X85154661Y-64951648D01*
X85064093Y-65098481D01*
X85064091Y-65098486D01*
X85060180Y-65110289D01*
X85009826Y-65262247D01*
X85009826Y-65262248D01*
X85009825Y-65262248D01*
X84999500Y-65363315D01*
X84999500Y-65737401D01*
X84979815Y-65804440D01*
X84963181Y-65825082D01*
X84500082Y-66288181D01*
X84438759Y-66321666D01*
X84412401Y-66324500D01*
X84063330Y-66324500D01*
X84063312Y-66324501D01*
X83962247Y-66334825D01*
X83798484Y-66389092D01*
X83798474Y-66389097D01*
X83791388Y-66393468D01*
X83723995Y-66411907D01*
X83657332Y-66390983D01*
X83612564Y-66337339D01*
X83602294Y-66287928D01*
X83602294Y-65762129D01*
X83602293Y-65762123D01*
X83602292Y-65762116D01*
X83595886Y-65702517D01*
X83583135Y-65668332D01*
X83578152Y-65598642D01*
X83583135Y-65581669D01*
X83595886Y-65547483D01*
X83602295Y-65487873D01*
X83602294Y-64492128D01*
X83595886Y-64432517D01*
X83583135Y-64398332D01*
X83578152Y-64328642D01*
X83583135Y-64311669D01*
X83595886Y-64277483D01*
X83602295Y-64217873D01*
X83602294Y-63222128D01*
X83595886Y-63162517D01*
X83583135Y-63128332D01*
X83578152Y-63058642D01*
X83583135Y-63041669D01*
X83595886Y-63007483D01*
X83602295Y-62947873D01*
X83602294Y-61952128D01*
X83595886Y-61892517D01*
X83583135Y-61858332D01*
X83578152Y-61788642D01*
X83583135Y-61771669D01*
X83595886Y-61737483D01*
X83602295Y-61677873D01*
X83602294Y-60682128D01*
X83595886Y-60622517D01*
X83583135Y-60588332D01*
X83578152Y-60518642D01*
X83583135Y-60501669D01*
X83595886Y-60467483D01*
X83602295Y-60407873D01*
X83602294Y-59412128D01*
X83598599Y-59377753D01*
X83611006Y-59308994D01*
X83658617Y-59257857D01*
X83721889Y-59240500D01*
X86357796Y-59240500D01*
X86424835Y-59260185D01*
X86445477Y-59276819D01*
X86508072Y-59339414D01*
X86648212Y-59441232D01*
X86802555Y-59519873D01*
X86967299Y-59573402D01*
X87138389Y-59600500D01*
X87138390Y-59600500D01*
X87861610Y-59600500D01*
X87861611Y-59600500D01*
X88032701Y-59573402D01*
X88197445Y-59519873D01*
X88351788Y-59441232D01*
X88491928Y-59339414D01*
X88614414Y-59216928D01*
X88716232Y-59076788D01*
X88794873Y-58922445D01*
X88848402Y-58757701D01*
X88875500Y-58586611D01*
X88875500Y-58413389D01*
X88848402Y-58242299D01*
X88794873Y-58077555D01*
X88716232Y-57923212D01*
X88614414Y-57783072D01*
X88506872Y-57675530D01*
X88473387Y-57614207D01*
X88478371Y-57544515D01*
X88520243Y-57488582D01*
X88529457Y-57482310D01*
X88593656Y-57442712D01*
X88717712Y-57318656D01*
X88809814Y-57169334D01*
X88864999Y-57002797D01*
X88875500Y-56900009D01*
X88875499Y-56099992D01*
X88864999Y-55997203D01*
X88809814Y-55830666D01*
X88717712Y-55681344D01*
X88593656Y-55557288D01*
X88444334Y-55465186D01*
X88277797Y-55410001D01*
X88277795Y-55410000D01*
X88175010Y-55399500D01*
X86824998Y-55399500D01*
X86824981Y-55399501D01*
X86722203Y-55410000D01*
X86722200Y-55410001D01*
X86555668Y-55465185D01*
X86555663Y-55465187D01*
X86406342Y-55557289D01*
X86282289Y-55681342D01*
X86190187Y-55830663D01*
X86190185Y-55830668D01*
X86173100Y-55882229D01*
X86135001Y-55997203D01*
X86135001Y-55997204D01*
X86135000Y-55997204D01*
X86124500Y-56099983D01*
X86124500Y-56099991D01*
X86124500Y-56394517D01*
X86124501Y-56645500D01*
X86104817Y-56712539D01*
X86052013Y-56758294D01*
X86000501Y-56769500D01*
X83721889Y-56769500D01*
X83654850Y-56749815D01*
X83609095Y-56697011D01*
X83598599Y-56632246D01*
X83602295Y-56597873D01*
X83602294Y-55602128D01*
X83595886Y-55542517D01*
X83583135Y-55508332D01*
X83578152Y-55438642D01*
X83583135Y-55421669D01*
X83595886Y-55387483D01*
X83602295Y-55327873D01*
X83602294Y-54332128D01*
X83595886Y-54272517D01*
X83583135Y-54238332D01*
X83578152Y-54168642D01*
X83583133Y-54151672D01*
X83595886Y-54117483D01*
X83602295Y-54057873D01*
X83602294Y-53062128D01*
X83595886Y-53002517D01*
X83590814Y-52988919D01*
X83545592Y-52867671D01*
X83545588Y-52867664D01*
X83459342Y-52752455D01*
X83459339Y-52752452D01*
X83344130Y-52666206D01*
X83344123Y-52666202D01*
X83209277Y-52615908D01*
X83209278Y-52615908D01*
X83149678Y-52609501D01*
X83149676Y-52609500D01*
X83149668Y-52609500D01*
X83149660Y-52609500D01*
X82635132Y-52609500D01*
X82568093Y-52589815D01*
X82522338Y-52537011D01*
X82512394Y-52467853D01*
X82541419Y-52404297D01*
X82547451Y-52397819D01*
X83049117Y-51896153D01*
X83712680Y-51232590D01*
X83774001Y-51199107D01*
X83776168Y-51198656D01*
X83854461Y-51183082D01*
X83931515Y-51167755D01*
X84077197Y-51107412D01*
X84208307Y-51019807D01*
X84319807Y-50908307D01*
X84407412Y-50777197D01*
X84467755Y-50631515D01*
X84498518Y-50476860D01*
X84498518Y-50319176D01*
X84498518Y-50319173D01*
X84498517Y-50319171D01*
X84467756Y-50164528D01*
X84467755Y-50164521D01*
X84407678Y-50019480D01*
X84407415Y-50018845D01*
X84407408Y-50018832D01*
X84331966Y-49905926D01*
X84311088Y-49839249D01*
X84329572Y-49771869D01*
X84347385Y-49749355D01*
X84559924Y-49536818D01*
X84621247Y-49503334D01*
X84647605Y-49500500D01*
X86237815Y-49500500D01*
X86304854Y-49520185D01*
X86338131Y-49551612D01*
X86385586Y-49616928D01*
X86508072Y-49739414D01*
X86648212Y-49841232D01*
X86802555Y-49919873D01*
X86967299Y-49973402D01*
X87138389Y-50000500D01*
X87138390Y-50000500D01*
X87861610Y-50000500D01*
X87861611Y-50000500D01*
X88032701Y-49973402D01*
X88197445Y-49919873D01*
X88351788Y-49841232D01*
X88491928Y-49739414D01*
X88614414Y-49616928D01*
X88716232Y-49476788D01*
X88794873Y-49322445D01*
X88848402Y-49157701D01*
X88875500Y-48986611D01*
X88875500Y-48813389D01*
X88848402Y-48642299D01*
X88794873Y-48477555D01*
X88716232Y-48323212D01*
X88614414Y-48183072D01*
X88506872Y-48075530D01*
X88473387Y-48014207D01*
X88478371Y-47944515D01*
X88520243Y-47888582D01*
X88529457Y-47882310D01*
X88593656Y-47842712D01*
X88717712Y-47718656D01*
X88809814Y-47569334D01*
X88864999Y-47402797D01*
X88875500Y-47300009D01*
X88875499Y-46499992D01*
X88873139Y-46476893D01*
X88864999Y-46397203D01*
X88864998Y-46397200D01*
X88862826Y-46390644D01*
X88809814Y-46230666D01*
X88717712Y-46081344D01*
X88593656Y-45957288D01*
X88444334Y-45865186D01*
X88277797Y-45810001D01*
X88277795Y-45810000D01*
X88175010Y-45799500D01*
X86824998Y-45799500D01*
X86824981Y-45799501D01*
X86722203Y-45810000D01*
X86722200Y-45810001D01*
X86555668Y-45865185D01*
X86555663Y-45865187D01*
X86406342Y-45957289D01*
X86282289Y-46081342D01*
X86190187Y-46230663D01*
X86190185Y-46230668D01*
X86185050Y-46246165D01*
X86135001Y-46397203D01*
X86135001Y-46397204D01*
X86135000Y-46397204D01*
X86124500Y-46499983D01*
X86124500Y-47300001D01*
X86124501Y-47300019D01*
X86135000Y-47402796D01*
X86135001Y-47402799D01*
X86190185Y-47569331D01*
X86190186Y-47569334D01*
X86282288Y-47718656D01*
X86406344Y-47842712D01*
X86470543Y-47882310D01*
X86517268Y-47934258D01*
X86528489Y-48003221D01*
X86500646Y-48067303D01*
X86493128Y-48075530D01*
X86385585Y-48183073D01*
X86338133Y-48248386D01*
X86282803Y-48291051D01*
X86237815Y-48299500D01*
X84434176Y-48299500D01*
X84434160Y-48299499D01*
X84426564Y-48299499D01*
X84268449Y-48299499D01*
X84192085Y-48319961D01*
X84115720Y-48340423D01*
X84115715Y-48340426D01*
X83978796Y-48419475D01*
X83978788Y-48419481D01*
X79203975Y-53194294D01*
X79142652Y-53227779D01*
X79072960Y-53222795D01*
X79017027Y-53180923D01*
X78992610Y-53115459D01*
X78992294Y-53106640D01*
X78992294Y-51512128D01*
X78985886Y-51452517D01*
X78948847Y-51353211D01*
X78935592Y-51317671D01*
X78935588Y-51317664D01*
X78849342Y-51202455D01*
X78849339Y-51202452D01*
X78734130Y-51116206D01*
X78734123Y-51116202D01*
X78599277Y-51065908D01*
X78599278Y-51065908D01*
X78539678Y-51059501D01*
X78539676Y-51059500D01*
X78539668Y-51059500D01*
X78539659Y-51059500D01*
X77543924Y-51059500D01*
X77543918Y-51059501D01*
X77484313Y-51065908D01*
X77450126Y-51078659D01*
X77380434Y-51083642D01*
X77363464Y-51078659D01*
X77329275Y-51065908D01*
X77329277Y-51065908D01*
X77269678Y-51059501D01*
X77269676Y-51059500D01*
X77269668Y-51059500D01*
X77269659Y-51059500D01*
X76273924Y-51059500D01*
X76273918Y-51059501D01*
X76214313Y-51065908D01*
X76180126Y-51078659D01*
X76110434Y-51083642D01*
X76093464Y-51078659D01*
X76059275Y-51065908D01*
X76059277Y-51065908D01*
X75999678Y-51059501D01*
X75999676Y-51059500D01*
X75999668Y-51059500D01*
X75999659Y-51059500D01*
X75003924Y-51059500D01*
X75003918Y-51059501D01*
X74944313Y-51065908D01*
X74910126Y-51078659D01*
X74840434Y-51083642D01*
X74823464Y-51078659D01*
X74789275Y-51065908D01*
X74789277Y-51065908D01*
X74729678Y-51059501D01*
X74729676Y-51059500D01*
X74729668Y-51059500D01*
X74729659Y-51059500D01*
X73733924Y-51059500D01*
X73733918Y-51059501D01*
X73674313Y-51065908D01*
X73640126Y-51078659D01*
X73570434Y-51083642D01*
X73553464Y-51078659D01*
X73519275Y-51065908D01*
X73519277Y-51065908D01*
X73459678Y-51059501D01*
X73459676Y-51059500D01*
X73459668Y-51059500D01*
X73459659Y-51059500D01*
X72463924Y-51059500D01*
X72463918Y-51059501D01*
X72414831Y-51064778D01*
X72346072Y-51052371D01*
X72294935Y-51004760D01*
X72281805Y-50973588D01*
X72251372Y-50860011D01*
X72251368Y-50860004D01*
X72172319Y-50723085D01*
X72172313Y-50723077D01*
X71468717Y-50019481D01*
X71468716Y-50019480D01*
X71381904Y-49969360D01*
X71381904Y-49969359D01*
X71381900Y-49969358D01*
X71331785Y-49940423D01*
X71179057Y-49899499D01*
X71020943Y-49899499D01*
X71013347Y-49899499D01*
X71013331Y-49899500D01*
X70555025Y-49899500D01*
X70487986Y-49879815D01*
X70451923Y-49844391D01*
X70417951Y-49793549D01*
X70417948Y-49793545D01*
X70306454Y-49682051D01*
X70306450Y-49682048D01*
X70175347Y-49594447D01*
X70175334Y-49594440D01*
X70029663Y-49534102D01*
X70029651Y-49534099D01*
X69875007Y-49503338D01*
X69875004Y-49503338D01*
X69717320Y-49503338D01*
X69717317Y-49503338D01*
X69562672Y-49534099D01*
X69562660Y-49534102D01*
X69416989Y-49594440D01*
X69416971Y-49594450D01*
X69304069Y-49669889D01*
X69237392Y-49690767D01*
X69170012Y-49672282D01*
X69147498Y-49654468D01*
X68631385Y-49138355D01*
X68631383Y-49138352D01*
X68512512Y-49019481D01*
X68512511Y-49019480D01*
X68425699Y-48969360D01*
X68425699Y-48969359D01*
X68425695Y-48969358D01*
X68375580Y-48940423D01*
X68222852Y-48899499D01*
X68064738Y-48899499D01*
X68057142Y-48899499D01*
X68057126Y-48899500D01*
X38586670Y-48899500D01*
X38586654Y-48899499D01*
X38579058Y-48899499D01*
X38420943Y-48899499D01*
X38344579Y-48919961D01*
X38268214Y-48940423D01*
X38268209Y-48940426D01*
X38131290Y-49019475D01*
X38131282Y-49019481D01*
X36202673Y-50948089D01*
X36141350Y-50981574D01*
X36071658Y-50976590D01*
X36042108Y-50960727D01*
X35941612Y-50887714D01*
X35759223Y-50794781D01*
X35564534Y-50731522D01*
X35389995Y-50703878D01*
X35362352Y-50699500D01*
X35157648Y-50699500D01*
X35133329Y-50703351D01*
X34955465Y-50731522D01*
X34760776Y-50794781D01*
X34578386Y-50887715D01*
X34412786Y-51008028D01*
X34268028Y-51152786D01*
X34147715Y-51318386D01*
X34100485Y-51411080D01*
X34052510Y-51461876D01*
X33984689Y-51478671D01*
X33918554Y-51456134D01*
X33879515Y-51411080D01*
X33850029Y-51353211D01*
X33832287Y-51318390D01*
X33793940Y-51265609D01*
X33711971Y-51152786D01*
X33567213Y-51008028D01*
X33401613Y-50887715D01*
X33401612Y-50887714D01*
X33401610Y-50887713D01*
X33323312Y-50847818D01*
X33219223Y-50794781D01*
X33024534Y-50731522D01*
X32849995Y-50703878D01*
X32822352Y-50699500D01*
X32617648Y-50699500D01*
X32593329Y-50703351D01*
X32415465Y-50731522D01*
X32220776Y-50794781D01*
X32038386Y-50887715D01*
X31872786Y-51008028D01*
X31728028Y-51152786D01*
X31607715Y-51318386D01*
X31514781Y-51500776D01*
X31451522Y-51695465D01*
X31419500Y-51897648D01*
X31419500Y-52502356D01*
X31429976Y-52568500D01*
X31421021Y-52637794D01*
X31395184Y-52675579D01*
X27407584Y-56663181D01*
X27346261Y-56696666D01*
X27319903Y-56699500D01*
X19271669Y-56699500D01*
X19271653Y-56699499D01*
X19264057Y-56699499D01*
X19105943Y-56699499D01*
X18998587Y-56728265D01*
X18953210Y-56740424D01*
X18953209Y-56740425D01*
X18903096Y-56769359D01*
X18903095Y-56769360D01*
X18902853Y-56769500D01*
X18816285Y-56819479D01*
X18816282Y-56819481D01*
X18704480Y-56931283D01*
X18704480Y-56931284D01*
X18704478Y-56931286D01*
X18632969Y-57002795D01*
X18569522Y-57066242D01*
X18508199Y-57099726D01*
X18443523Y-57096491D01*
X18401245Y-57082754D01*
X18261272Y-57060584D01*
X18191287Y-57049500D01*
X17978713Y-57049500D01*
X17930042Y-57057208D01*
X17768760Y-57082753D01*
X17566585Y-57148444D01*
X17377179Y-57244951D01*
X17205213Y-57369890D01*
X17054890Y-57520213D01*
X16929951Y-57692179D01*
X16833444Y-57881585D01*
X16767753Y-58083760D01*
X16742643Y-58242299D01*
X16734500Y-58293713D01*
X16734500Y-58506287D01*
X16739484Y-58537752D01*
X16767753Y-58716239D01*
X16767753Y-58716241D01*
X16767754Y-58716243D01*
X16823916Y-58889092D01*
X16833444Y-58918414D01*
X16929951Y-59107820D01*
X17054890Y-59279786D01*
X17205213Y-59430109D01*
X17377182Y-59555050D01*
X17385946Y-59559516D01*
X17436742Y-59607491D01*
X17453536Y-59675312D01*
X17430998Y-59741447D01*
X17385946Y-59780484D01*
X17377182Y-59784949D01*
X17205213Y-59909890D01*
X17054890Y-60060213D01*
X16929951Y-60232179D01*
X16833444Y-60421585D01*
X16767753Y-60623760D01*
X16734500Y-60833713D01*
X16734500Y-61046286D01*
X16748311Y-61133489D01*
X16767754Y-61256243D01*
X16817806Y-61410288D01*
X16833444Y-61458414D01*
X16929951Y-61647820D01*
X17054890Y-61819786D01*
X17205213Y-61970109D01*
X17377182Y-62095050D01*
X17385946Y-62099516D01*
X17436742Y-62147491D01*
X17453536Y-62215312D01*
X17430998Y-62281447D01*
X17385946Y-62320484D01*
X17377182Y-62324949D01*
X17205213Y-62449890D01*
X17054890Y-62600213D01*
X16929951Y-62772179D01*
X16833444Y-62961585D01*
X16767753Y-63163760D01*
X16734500Y-63373713D01*
X16734500Y-63586287D01*
X16767754Y-63796243D01*
X16825998Y-63975500D01*
X16833444Y-63998414D01*
X16929951Y-64187820D01*
X17054890Y-64359786D01*
X17205213Y-64510109D01*
X17377182Y-64635050D01*
X17385946Y-64639516D01*
X17436742Y-64687491D01*
X17453536Y-64755312D01*
X17430998Y-64821447D01*
X17385946Y-64860484D01*
X17377182Y-64864949D01*
X17205213Y-64989890D01*
X17054890Y-65140213D01*
X16929951Y-65312179D01*
X16833444Y-65501585D01*
X16767753Y-65703760D01*
X16734500Y-65913713D01*
X16734500Y-66126286D01*
X16767753Y-66336239D01*
X16767753Y-66336241D01*
X16767754Y-66336243D01*
X16822431Y-66504522D01*
X16833444Y-66538414D01*
X16929951Y-66727820D01*
X17054890Y-66899786D01*
X17205213Y-67050109D01*
X17377182Y-67175050D01*
X17385946Y-67179516D01*
X17436742Y-67227491D01*
X17453536Y-67295312D01*
X17430998Y-67361447D01*
X17385946Y-67400484D01*
X17377182Y-67404949D01*
X17205213Y-67529890D01*
X17054890Y-67680213D01*
X16929951Y-67852179D01*
X16833444Y-68041585D01*
X16767753Y-68243760D01*
X16734500Y-68453713D01*
X16734500Y-68666286D01*
X16767753Y-68876239D01*
X16767753Y-68876241D01*
X16767754Y-68876243D01*
X16822431Y-69044522D01*
X16833444Y-69078414D01*
X16929951Y-69267820D01*
X17054890Y-69439786D01*
X17205213Y-69590109D01*
X17377179Y-69715048D01*
X17377181Y-69715049D01*
X17377184Y-69715051D01*
X17566588Y-69811557D01*
X17768757Y-69877246D01*
X17978713Y-69910500D01*
X17978714Y-69910500D01*
X18191286Y-69910500D01*
X18191287Y-69910500D01*
X18401243Y-69877246D01*
X18443523Y-69863507D01*
X18513362Y-69861511D01*
X18569522Y-69893757D01*
X18890139Y-70214374D01*
X18890149Y-70214385D01*
X18894479Y-70218715D01*
X18894480Y-70218716D01*
X19006284Y-70330520D01*
X19006286Y-70330521D01*
X19006290Y-70330524D01*
X19143209Y-70409573D01*
X19143216Y-70409577D01*
X19255019Y-70439534D01*
X19295942Y-70450500D01*
X19295943Y-70450500D01*
X48227369Y-70450500D01*
X48294408Y-70470185D01*
X48327685Y-70501613D01*
X48455483Y-70677510D01*
X48622490Y-70844517D01*
X48813567Y-70983343D01*
X48912991Y-71034002D01*
X49024003Y-71090566D01*
X49024005Y-71090566D01*
X49024008Y-71090568D01*
X49144412Y-71129689D01*
X49248631Y-71163553D01*
X49481903Y-71200500D01*
X49481908Y-71200500D01*
X49718097Y-71200500D01*
X49951368Y-71163553D01*
X49970496Y-71157338D01*
X50175992Y-71090568D01*
X50386433Y-70983343D01*
X50577510Y-70844517D01*
X50744517Y-70677510D01*
X50872313Y-70501613D01*
X50927643Y-70458949D01*
X50972631Y-70450500D01*
X54727369Y-70450500D01*
X54794408Y-70470185D01*
X54827685Y-70501613D01*
X54955483Y-70677510D01*
X55122490Y-70844517D01*
X55313567Y-70983343D01*
X55412991Y-71034002D01*
X55524003Y-71090566D01*
X55524005Y-71090566D01*
X55524008Y-71090568D01*
X55644412Y-71129689D01*
X55748631Y-71163553D01*
X55981903Y-71200500D01*
X55981908Y-71200500D01*
X56218097Y-71200500D01*
X56347689Y-71179973D01*
X56451368Y-71163553D01*
X56464349Y-71159334D01*
X56479561Y-71158899D01*
X56493822Y-71153581D01*
X56513775Y-71157921D01*
X56534188Y-71157338D01*
X56548275Y-71165426D01*
X56562095Y-71168433D01*
X56590349Y-71189584D01*
X56665139Y-71264374D01*
X56665149Y-71264385D01*
X56669479Y-71268715D01*
X56669480Y-71268716D01*
X56781284Y-71380520D01*
X56781286Y-71380521D01*
X56781287Y-71380522D01*
X56795301Y-71388613D01*
X56843516Y-71439179D01*
X56856740Y-71507786D01*
X56830772Y-71572651D01*
X56773858Y-71613180D01*
X56733301Y-71620000D01*
X49601795Y-71620000D01*
X49601795Y-77700568D01*
X49582110Y-77767607D01*
X49529306Y-77813362D01*
X49477705Y-77824568D01*
X16881615Y-77800867D01*
X16814590Y-77781134D01*
X16768873Y-77728296D01*
X16758980Y-77659131D01*
X16788051Y-77595596D01*
X16815729Y-77571875D01*
X16849039Y-77550946D01*
X17112523Y-77340825D01*
X17350825Y-77102523D01*
X17560946Y-76839039D01*
X17740246Y-76553686D01*
X17886469Y-76250051D01*
X17997776Y-75931954D01*
X18072767Y-75603394D01*
X18110500Y-75268504D01*
X18110500Y-74931496D01*
X18072767Y-74596606D01*
X17997776Y-74268046D01*
X17886469Y-73949949D01*
X17740246Y-73646314D01*
X17560946Y-73360961D01*
X17350825Y-73097477D01*
X17112523Y-72859175D01*
X16849039Y-72649054D01*
X16563686Y-72469754D01*
X16563683Y-72469752D01*
X16260054Y-72323532D01*
X15941965Y-72212227D01*
X15941953Y-72212223D01*
X15613397Y-72137233D01*
X15613381Y-72137231D01*
X15278508Y-72099500D01*
X15278504Y-72099500D01*
X14941496Y-72099500D01*
X14941491Y-72099500D01*
X14606618Y-72137231D01*
X14606602Y-72137233D01*
X14278046Y-72212223D01*
X14278034Y-72212227D01*
X13959945Y-72323532D01*
X13656316Y-72469752D01*
X13370962Y-72649053D01*
X13107477Y-72859174D01*
X12869174Y-73097477D01*
X12713402Y-73292809D01*
X12656213Y-73332949D01*
X12586402Y-73335799D01*
X12526132Y-73300453D01*
X12494539Y-73238134D01*
X12492455Y-73215441D01*
X12508863Y-40765186D01*
X20999500Y-40765186D01*
X20999500Y-41034813D01*
X21029686Y-41302719D01*
X21029688Y-41302731D01*
X21089684Y-41565594D01*
X21089687Y-41565602D01*
X21178734Y-41820082D01*
X21295714Y-42062994D01*
X21295716Y-42062997D01*
X21439162Y-42291289D01*
X21607266Y-42502085D01*
X21797915Y-42692734D01*
X22008711Y-42860838D01*
X22237003Y-43004284D01*
X22479921Y-43121267D01*
X22551454Y-43146297D01*
X22608230Y-43187018D01*
X22633978Y-43251971D01*
X22634500Y-43263339D01*
X22634500Y-44769405D01*
X22634500Y-44920195D01*
X22634500Y-44920197D01*
X22634499Y-44920197D01*
X22663916Y-45068082D01*
X22663918Y-45068088D01*
X22721622Y-45207399D01*
X22721623Y-45207400D01*
X22798802Y-45322908D01*
X22819680Y-45389585D01*
X22819700Y-45391798D01*
X22819700Y-46336870D01*
X22819701Y-46336876D01*
X22826108Y-46396483D01*
X22876402Y-46531328D01*
X22876406Y-46531335D01*
X22962652Y-46646544D01*
X22962655Y-46646547D01*
X23077864Y-46732793D01*
X23077871Y-46732797D01*
X23212717Y-46783091D01*
X23212716Y-46783091D01*
X23219644Y-46783835D01*
X23272327Y-46789500D01*
X24638072Y-46789499D01*
X24697683Y-46783091D01*
X24832531Y-46732796D01*
X24947746Y-46646546D01*
X25033996Y-46531331D01*
X25084291Y-46396483D01*
X25089402Y-46348941D01*
X25116139Y-46284394D01*
X25173532Y-46244546D01*
X25212691Y-46238200D01*
X25542509Y-46238200D01*
X25609548Y-46257885D01*
X25655303Y-46310689D01*
X25665799Y-46348947D01*
X25670908Y-46396483D01*
X25721202Y-46531328D01*
X25721206Y-46531335D01*
X25807452Y-46646544D01*
X25807455Y-46646547D01*
X25922664Y-46732793D01*
X25922671Y-46732797D01*
X26057517Y-46783091D01*
X26057516Y-46783091D01*
X26064444Y-46783835D01*
X26117127Y-46789500D01*
X27482872Y-46789499D01*
X27542483Y-46783091D01*
X27677331Y-46732796D01*
X27792546Y-46646546D01*
X27878796Y-46531331D01*
X27929091Y-46396483D01*
X27935500Y-46336873D01*
X27935500Y-46289500D01*
X27955185Y-46222461D01*
X28007989Y-46176706D01*
X28059500Y-46165500D01*
X28480306Y-46165500D01*
X28547345Y-46185185D01*
X28593100Y-46237989D01*
X28596487Y-46246165D01*
X28607403Y-46275432D01*
X28607404Y-46275434D01*
X28693651Y-46390644D01*
X28693654Y-46390647D01*
X28808863Y-46476893D01*
X28808870Y-46476897D01*
X28943716Y-46527191D01*
X28943715Y-46527191D01*
X28950643Y-46527935D01*
X29003326Y-46533600D01*
X34661671Y-46533599D01*
X34721282Y-46527191D01*
X34856130Y-46476896D01*
X34971345Y-46390646D01*
X35057595Y-46275431D01*
X35107890Y-46140583D01*
X35114299Y-46080973D01*
X35114298Y-40194028D01*
X35107890Y-40134417D01*
X35097769Y-40107281D01*
X35072874Y-40040533D01*
X35067890Y-39970841D01*
X35101375Y-39909518D01*
X35162699Y-39876034D01*
X35189056Y-39873200D01*
X35856954Y-39873200D01*
X35923993Y-39892885D01*
X35944634Y-39909518D01*
X36106239Y-40071123D01*
X36106246Y-40071129D01*
X36106262Y-40071144D01*
X36146480Y-40107271D01*
X36146492Y-40107281D01*
X36146500Y-40107288D01*
X36167142Y-40123922D01*
X36211026Y-40155567D01*
X36341903Y-40215338D01*
X36408942Y-40235023D01*
X36408946Y-40235024D01*
X36551362Y-40255500D01*
X36551365Y-40255500D01*
X36948640Y-40255500D01*
X36958786Y-40254955D01*
X37002678Y-40252603D01*
X37002686Y-40252602D01*
X37002688Y-40252602D01*
X37002689Y-40252602D01*
X37009682Y-40251849D01*
X37029036Y-40249769D01*
X37029046Y-40249767D01*
X37029049Y-40249767D01*
X37038648Y-40248211D01*
X37082448Y-40241114D01*
X37217257Y-40190832D01*
X37278580Y-40157347D01*
X37393762Y-40071123D01*
X39923065Y-37541818D01*
X39984388Y-37508334D01*
X40010746Y-37505500D01*
X42198640Y-37505500D01*
X42208786Y-37504955D01*
X42252678Y-37502603D01*
X42252686Y-37502602D01*
X42252688Y-37502602D01*
X42252689Y-37502602D01*
X42259682Y-37501849D01*
X42279036Y-37499769D01*
X42279046Y-37499767D01*
X42279049Y-37499767D01*
X42289385Y-37498092D01*
X42332448Y-37491114D01*
X42467257Y-37440832D01*
X42528580Y-37407347D01*
X42607132Y-37348543D01*
X62499499Y-37348543D01*
X62537947Y-37541829D01*
X62537950Y-37541839D01*
X62613364Y-37723907D01*
X62613371Y-37723920D01*
X62722860Y-37887781D01*
X62722863Y-37887785D01*
X62862214Y-38027136D01*
X62862218Y-38027139D01*
X63026079Y-38136628D01*
X63026092Y-38136635D01*
X63208160Y-38212049D01*
X63208165Y-38212051D01*
X63208169Y-38212051D01*
X63208170Y-38212052D01*
X63401456Y-38250500D01*
X63599903Y-38250500D01*
X63666942Y-38270185D01*
X63687584Y-38286819D01*
X64638009Y-39237244D01*
X64671494Y-39298567D01*
X64674328Y-39324925D01*
X64674328Y-39416344D01*
X64705089Y-39570987D01*
X64705092Y-39570999D01*
X64765430Y-39716670D01*
X64765437Y-39716683D01*
X64853038Y-39847786D01*
X64853041Y-39847790D01*
X64964535Y-39959284D01*
X64964539Y-39959287D01*
X65095642Y-40046888D01*
X65095655Y-40046895D01*
X65241326Y-40107233D01*
X65241331Y-40107235D01*
X65377978Y-40134416D01*
X65395981Y-40137997D01*
X65395984Y-40137998D01*
X65395986Y-40137998D01*
X65553672Y-40137998D01*
X65553673Y-40137997D01*
X65708325Y-40107235D01*
X65854007Y-40046892D01*
X65924831Y-39999569D01*
X65985703Y-39958896D01*
X66003749Y-39953245D01*
X66019659Y-39943021D01*
X66050620Y-39938569D01*
X66052381Y-39938018D01*
X66054594Y-39937998D01*
X66183650Y-39937998D01*
X66250689Y-39957683D01*
X66296444Y-40010487D01*
X66307650Y-40061998D01*
X66307650Y-40589369D01*
X66307651Y-40589375D01*
X66314059Y-40648983D01*
X66340235Y-40719167D01*
X66345219Y-40788859D01*
X66340235Y-40805831D01*
X66314060Y-40876011D01*
X66314059Y-40876015D01*
X66314059Y-40876017D01*
X66307650Y-40935627D01*
X66307650Y-40935634D01*
X66307650Y-40935635D01*
X66307650Y-41539370D01*
X66307651Y-41539376D01*
X66314058Y-41598983D01*
X66359071Y-41719667D01*
X66364055Y-41789359D01*
X66330570Y-41850682D01*
X66269247Y-41884166D01*
X66242890Y-41887000D01*
X66137499Y-41887000D01*
X66137480Y-41887001D01*
X66034703Y-41897500D01*
X66034700Y-41897501D01*
X65868168Y-41952685D01*
X65868163Y-41952687D01*
X65718842Y-42044789D01*
X65594789Y-42168842D01*
X65502687Y-42318163D01*
X65502685Y-42318168D01*
X65492079Y-42350175D01*
X65447501Y-42484703D01*
X65447501Y-42484704D01*
X65447500Y-42484704D01*
X65443833Y-42520604D01*
X65417436Y-42585295D01*
X65360255Y-42625446D01*
X65320475Y-42632000D01*
X64622879Y-42632000D01*
X64593438Y-42623355D01*
X64563452Y-42616832D01*
X64558436Y-42613077D01*
X64555840Y-42612315D01*
X64535198Y-42595681D01*
X64402759Y-42463242D01*
X64369274Y-42401919D01*
X64368846Y-42399865D01*
X64357237Y-42341503D01*
X64347915Y-42318998D01*
X64296897Y-42195827D01*
X64296890Y-42195814D01*
X64209289Y-42064711D01*
X64209286Y-42064707D01*
X64097792Y-41953213D01*
X64097788Y-41953210D01*
X63966685Y-41865609D01*
X63966672Y-41865602D01*
X63821001Y-41805264D01*
X63820989Y-41805261D01*
X63666345Y-41774500D01*
X63666342Y-41774500D01*
X63508658Y-41774500D01*
X63508655Y-41774500D01*
X63354010Y-41805261D01*
X63353998Y-41805264D01*
X63208327Y-41865602D01*
X63208314Y-41865609D01*
X63077211Y-41953210D01*
X63077207Y-41953213D01*
X62965713Y-42064707D01*
X62965710Y-42064711D01*
X62878109Y-42195814D01*
X62878102Y-42195827D01*
X62817764Y-42341498D01*
X62817761Y-42341510D01*
X62787000Y-42496153D01*
X62787000Y-42653846D01*
X62817761Y-42808489D01*
X62817764Y-42808501D01*
X62878102Y-42954172D01*
X62878109Y-42954185D01*
X62965710Y-43085288D01*
X62965713Y-43085292D01*
X63077207Y-43196786D01*
X63077211Y-43196789D01*
X63208314Y-43284390D01*
X63208327Y-43284397D01*
X63343378Y-43340336D01*
X63354003Y-43344737D01*
X63412253Y-43356323D01*
X63474162Y-43388706D01*
X63475742Y-43390259D01*
X63882139Y-43796657D01*
X63882143Y-43796660D01*
X63989504Y-43868397D01*
X63989505Y-43868397D01*
X63989506Y-43868398D01*
X63989508Y-43868399D01*
X64063198Y-43898922D01*
X64108798Y-43917810D01*
X64108800Y-43917810D01*
X64108805Y-43917812D01*
X64235434Y-43942999D01*
X64235438Y-43943000D01*
X64235439Y-43943000D01*
X64364561Y-43943000D01*
X65320476Y-43943000D01*
X65387515Y-43962685D01*
X65433270Y-44015489D01*
X65443834Y-44054399D01*
X65447500Y-44090296D01*
X65447501Y-44090299D01*
X65502685Y-44256831D01*
X65502687Y-44256836D01*
X65533979Y-44307568D01*
X65594788Y-44406156D01*
X65718844Y-44530212D01*
X65868166Y-44622314D01*
X66034703Y-44677499D01*
X66137491Y-44688000D01*
X67062508Y-44687999D01*
X67062516Y-44687998D01*
X67062519Y-44687998D01*
X67118802Y-44682248D01*
X67165297Y-44677499D01*
X67331834Y-44622314D01*
X67481156Y-44530212D01*
X67605212Y-44406156D01*
X67697314Y-44256834D01*
X67752499Y-44090297D01*
X67763000Y-43987509D01*
X67762999Y-42587492D01*
X67752499Y-42484703D01*
X67731057Y-42419999D01*
X67728656Y-42350175D01*
X67741374Y-42319003D01*
X67818577Y-42185284D01*
X67859501Y-42032557D01*
X67859501Y-42032555D01*
X67861604Y-42024707D01*
X67865087Y-42025640D01*
X67886554Y-41976854D01*
X67938057Y-41940564D01*
X67952177Y-41935298D01*
X67952179Y-41935296D01*
X67952181Y-41935296D01*
X68067396Y-41849046D01*
X68153646Y-41733831D01*
X68203941Y-41598983D01*
X68210350Y-41539373D01*
X68210349Y-41011999D01*
X68230033Y-40944961D01*
X68282837Y-40899206D01*
X68334349Y-40888000D01*
X68404055Y-40888000D01*
X68404058Y-40888000D01*
X68556786Y-40847076D01*
X68627439Y-40806284D01*
X68693717Y-40768019D01*
X68758200Y-40703535D01*
X68764389Y-40698741D01*
X68789912Y-40688736D01*
X68813974Y-40675598D01*
X68821972Y-40676170D01*
X68829440Y-40673243D01*
X68856322Y-40678626D01*
X68883666Y-40680582D01*
X68890086Y-40685388D01*
X68897950Y-40686963D01*
X68917652Y-40706023D01*
X68939600Y-40722453D01*
X68945158Y-40732633D01*
X68948166Y-40735543D01*
X68949237Y-40740103D01*
X68956514Y-40753430D01*
X68967850Y-40783823D01*
X68967856Y-40783834D01*
X69054102Y-40899043D01*
X69054105Y-40899046D01*
X69169314Y-40985292D01*
X69169321Y-40985296D01*
X69304167Y-41035590D01*
X69304166Y-41035590D01*
X69311094Y-41036334D01*
X69363777Y-41041999D01*
X70361222Y-41041998D01*
X70420833Y-41035590D01*
X70420835Y-41035589D01*
X70420837Y-41035589D01*
X70428381Y-41033807D01*
X70428759Y-41035407D01*
X70489244Y-41031075D01*
X70550571Y-41064553D01*
X70584062Y-41125873D01*
X70586899Y-41152244D01*
X70586899Y-42570770D01*
X70586900Y-42570776D01*
X70593307Y-42630383D01*
X70643601Y-42765228D01*
X70643605Y-42765235D01*
X70729851Y-42880444D01*
X70729854Y-42880447D01*
X70845063Y-42966693D01*
X70845070Y-42966697D01*
X70979916Y-43016991D01*
X70979915Y-43016991D01*
X70986843Y-43017735D01*
X71039526Y-43023400D01*
X72735471Y-43023399D01*
X72795082Y-43016991D01*
X72929930Y-42966696D01*
X73045145Y-42880446D01*
X73131395Y-42765231D01*
X73181690Y-42630383D01*
X73188099Y-42570773D01*
X73188098Y-38126363D01*
X74132000Y-38126363D01*
X74132000Y-42513002D01*
X74139990Y-42602519D01*
X74147771Y-42645763D01*
X74171493Y-42732461D01*
X74212927Y-42808501D01*
X74240334Y-42858800D01*
X74265502Y-42892484D01*
X74282156Y-42914773D01*
X74333983Y-42966693D01*
X74383800Y-43016600D01*
X74701133Y-43254600D01*
X74715976Y-43265318D01*
X74723337Y-43270433D01*
X74738497Y-43280567D01*
X74869374Y-43340338D01*
X74936413Y-43360023D01*
X74936417Y-43360024D01*
X75078833Y-43380500D01*
X76351853Y-43380500D01*
X76418892Y-43400185D01*
X76445172Y-43422845D01*
X76604364Y-43604778D01*
X76615662Y-43617264D01*
X76621300Y-43623290D01*
X76632987Y-43635371D01*
X76633022Y-43635407D01*
X76794273Y-43796657D01*
X76843739Y-43846123D01*
X76843755Y-43846137D01*
X76844957Y-43847277D01*
X76844390Y-43847875D01*
X76879500Y-43904687D01*
X76878267Y-43974546D01*
X76874487Y-43984967D01*
X76867764Y-44001197D01*
X76867761Y-44001205D01*
X76837000Y-44155853D01*
X76837000Y-44313546D01*
X76867761Y-44468189D01*
X76867764Y-44468201D01*
X76928102Y-44613872D01*
X76928109Y-44613885D01*
X77015710Y-44744988D01*
X77015713Y-44744992D01*
X77127207Y-44856486D01*
X77127211Y-44856489D01*
X77258314Y-44944090D01*
X77258327Y-44944097D01*
X77403998Y-45004435D01*
X77404003Y-45004437D01*
X77558653Y-45035199D01*
X77558656Y-45035200D01*
X77558658Y-45035200D01*
X77716344Y-45035200D01*
X77716345Y-45035199D01*
X77870997Y-45004437D01*
X78016679Y-44944094D01*
X78147789Y-44856489D01*
X78259289Y-44744989D01*
X78346894Y-44613879D01*
X78407237Y-44468197D01*
X78421988Y-44394034D01*
X78439189Y-44307568D01*
X78440590Y-44307846D01*
X78440325Y-44302279D01*
X78453443Y-44269513D01*
X78512962Y-44166423D01*
X78512963Y-44166422D01*
X78534574Y-44128990D01*
X78534576Y-44128986D01*
X78534577Y-44128985D01*
X78536339Y-44122407D01*
X78572703Y-44062747D01*
X78635549Y-44032217D01*
X78656114Y-44030500D01*
X78686140Y-44030500D01*
X78696286Y-44029955D01*
X78740178Y-44027603D01*
X78740186Y-44027602D01*
X78740188Y-44027602D01*
X78740189Y-44027602D01*
X78747182Y-44026849D01*
X78766536Y-44024769D01*
X78766546Y-44024767D01*
X78766549Y-44024767D01*
X78776148Y-44023211D01*
X78819948Y-44016114D01*
X78954757Y-43965832D01*
X79016080Y-43932347D01*
X79131261Y-43846123D01*
X79308623Y-43668761D01*
X79344788Y-43628500D01*
X79361422Y-43607858D01*
X79393067Y-43563974D01*
X79452838Y-43433097D01*
X79472523Y-43366058D01*
X79472524Y-43366054D01*
X79493000Y-43223638D01*
X79493000Y-37326362D01*
X79492927Y-37325000D01*
X79787500Y-37325000D01*
X79787500Y-40075000D01*
X79787500Y-43325000D01*
X80287500Y-43825000D01*
X82037500Y-43825000D01*
X82537500Y-43325000D01*
X82537500Y-41096153D01*
X85037000Y-41096153D01*
X85037000Y-41253846D01*
X85067761Y-41408489D01*
X85067764Y-41408501D01*
X85128102Y-41554172D01*
X85128109Y-41554185D01*
X85215710Y-41685288D01*
X85215713Y-41685292D01*
X85327207Y-41796786D01*
X85327211Y-41796789D01*
X85458314Y-41884390D01*
X85458327Y-41884397D01*
X85581203Y-41935293D01*
X85604003Y-41944737D01*
X85716935Y-41967200D01*
X85759346Y-41975637D01*
X85821257Y-42008022D01*
X85822836Y-42009572D01*
X85918784Y-42105520D01*
X86005595Y-42155639D01*
X86005597Y-42155641D01*
X86043651Y-42177611D01*
X86055715Y-42184577D01*
X86208443Y-42225500D01*
X87121716Y-42225500D01*
X87188755Y-42245185D01*
X87209397Y-42261819D01*
X87349714Y-42402136D01*
X87349718Y-42402139D01*
X87513579Y-42511628D01*
X87513592Y-42511635D01*
X87695660Y-42587049D01*
X87695665Y-42587051D01*
X87695669Y-42587051D01*
X87695670Y-42587052D01*
X87888956Y-42625500D01*
X87888959Y-42625500D01*
X88086043Y-42625500D01*
X88216082Y-42599632D01*
X88279335Y-42587051D01*
X88458107Y-42513002D01*
X88461407Y-42511635D01*
X88461407Y-42511634D01*
X88461414Y-42511632D01*
X88625282Y-42402139D01*
X88764639Y-42262782D01*
X88874132Y-42098914D01*
X88949551Y-41916835D01*
X88973430Y-41796789D01*
X88988000Y-41723543D01*
X88988000Y-41526456D01*
X88949552Y-41333170D01*
X88949551Y-41333169D01*
X88949551Y-41333165D01*
X88936940Y-41302719D01*
X88874135Y-41151092D01*
X88874128Y-41151079D01*
X88764639Y-40987218D01*
X88764636Y-40987214D01*
X88625285Y-40847863D01*
X88625281Y-40847860D01*
X88461420Y-40738371D01*
X88461407Y-40738364D01*
X88279339Y-40662950D01*
X88279329Y-40662947D01*
X88086043Y-40624500D01*
X88086041Y-40624500D01*
X87888959Y-40624500D01*
X87888957Y-40624500D01*
X87695670Y-40662947D01*
X87695660Y-40662950D01*
X87513592Y-40738364D01*
X87513579Y-40738371D01*
X87349718Y-40847860D01*
X87349714Y-40847863D01*
X87209397Y-40988181D01*
X87148074Y-41021666D01*
X87121716Y-41024500D01*
X86724378Y-41024500D01*
X86657339Y-41004815D01*
X86611584Y-40952011D01*
X86609715Y-40947069D01*
X86609568Y-40947131D01*
X86604803Y-40935628D01*
X86580110Y-40876011D01*
X86546897Y-40795827D01*
X86546890Y-40795814D01*
X86459289Y-40664711D01*
X86459286Y-40664707D01*
X86347792Y-40553213D01*
X86347788Y-40553210D01*
X86216685Y-40465609D01*
X86216672Y-40465602D01*
X86071001Y-40405264D01*
X86070989Y-40405261D01*
X85916345Y-40374500D01*
X85916342Y-40374500D01*
X85758658Y-40374500D01*
X85758655Y-40374500D01*
X85604010Y-40405261D01*
X85603998Y-40405264D01*
X85458327Y-40465602D01*
X85458314Y-40465609D01*
X85327211Y-40553210D01*
X85327207Y-40553213D01*
X85215713Y-40664707D01*
X85215710Y-40664711D01*
X85128109Y-40795814D01*
X85128102Y-40795827D01*
X85067764Y-40941498D01*
X85067761Y-40941510D01*
X85037000Y-41096153D01*
X82537500Y-41096153D01*
X82537500Y-37325000D01*
X81787500Y-36575000D01*
X80537500Y-36575000D01*
X79787500Y-37325000D01*
X79492927Y-37325000D01*
X79490103Y-37272322D01*
X79487269Y-37245964D01*
X79478614Y-37192552D01*
X79428332Y-37057743D01*
X79394847Y-36996420D01*
X79308623Y-36881239D01*
X79308618Y-36881234D01*
X79308613Y-36881228D01*
X79131276Y-36703892D01*
X79131261Y-36703877D01*
X79131237Y-36703855D01*
X79091019Y-36667728D01*
X79091007Y-36667718D01*
X79070356Y-36651076D01*
X79026474Y-36619433D01*
X78895594Y-36559660D01*
X78860485Y-36549351D01*
X78801707Y-36511576D01*
X78780863Y-36477831D01*
X78746894Y-36395821D01*
X78746889Y-36395814D01*
X78659289Y-36264711D01*
X78659286Y-36264707D01*
X78547792Y-36153213D01*
X78547788Y-36153210D01*
X78495344Y-36118168D01*
X78416685Y-36065609D01*
X78416672Y-36065602D01*
X78309361Y-36021153D01*
X85253667Y-36021153D01*
X85253667Y-36178846D01*
X85284428Y-36333489D01*
X85284431Y-36333501D01*
X85344769Y-36479172D01*
X85344776Y-36479185D01*
X85432377Y-36610288D01*
X85432380Y-36610292D01*
X85543874Y-36721786D01*
X85543878Y-36721789D01*
X85674981Y-36809390D01*
X85674994Y-36809397D01*
X85814451Y-36867161D01*
X85820670Y-36869737D01*
X85933602Y-36892200D01*
X85976013Y-36900637D01*
X86037924Y-36933022D01*
X86039503Y-36934572D01*
X86127117Y-37022186D01*
X86188624Y-37057696D01*
X86213928Y-37072305D01*
X86213930Y-37072307D01*
X86251984Y-37094277D01*
X86264048Y-37101243D01*
X86416776Y-37142167D01*
X86416779Y-37142167D01*
X86582486Y-37142167D01*
X86582502Y-37142166D01*
X87134216Y-37142166D01*
X87201255Y-37161851D01*
X87221897Y-37178485D01*
X87362214Y-37318802D01*
X87362218Y-37318805D01*
X87526079Y-37428294D01*
X87526092Y-37428301D01*
X87708160Y-37503715D01*
X87708165Y-37503717D01*
X87708169Y-37503717D01*
X87708170Y-37503718D01*
X87901456Y-37542166D01*
X87901459Y-37542166D01*
X88098543Y-37542166D01*
X88233131Y-37515394D01*
X88291835Y-37503717D01*
X88443654Y-37440832D01*
X88473907Y-37428301D01*
X88473907Y-37428300D01*
X88473914Y-37428298D01*
X88637782Y-37318805D01*
X88777139Y-37179448D01*
X88886632Y-37015580D01*
X88962051Y-36833501D01*
X88986219Y-36712001D01*
X89000500Y-36640209D01*
X89000500Y-36443122D01*
X88962052Y-36249836D01*
X88962051Y-36249835D01*
X88962051Y-36249831D01*
X88961668Y-36248907D01*
X88886635Y-36067758D01*
X88886628Y-36067745D01*
X88777139Y-35903884D01*
X88777136Y-35903880D01*
X88637785Y-35764529D01*
X88637781Y-35764526D01*
X88473920Y-35655037D01*
X88473907Y-35655030D01*
X88291839Y-35579616D01*
X88291829Y-35579613D01*
X88098543Y-35541166D01*
X88098541Y-35541166D01*
X87901459Y-35541166D01*
X87901457Y-35541166D01*
X87708170Y-35579613D01*
X87708160Y-35579616D01*
X87526092Y-35655030D01*
X87526079Y-35655037D01*
X87362218Y-35764526D01*
X87362214Y-35764529D01*
X87221897Y-35904847D01*
X87194969Y-35919550D01*
X87169151Y-35936143D01*
X87162950Y-35937034D01*
X87160574Y-35938332D01*
X87134216Y-35941166D01*
X86937684Y-35941166D01*
X86870645Y-35921481D01*
X86824890Y-35868677D01*
X86823123Y-35864618D01*
X86763564Y-35720827D01*
X86763557Y-35720814D01*
X86675956Y-35589711D01*
X86675953Y-35589707D01*
X86564459Y-35478213D01*
X86564455Y-35478210D01*
X86433352Y-35390609D01*
X86433339Y-35390602D01*
X86287668Y-35330264D01*
X86287656Y-35330261D01*
X86133012Y-35299500D01*
X86133009Y-35299500D01*
X85975325Y-35299500D01*
X85975322Y-35299500D01*
X85820677Y-35330261D01*
X85820665Y-35330264D01*
X85674994Y-35390602D01*
X85674981Y-35390609D01*
X85543878Y-35478210D01*
X85543874Y-35478213D01*
X85432380Y-35589707D01*
X85432377Y-35589711D01*
X85344776Y-35720814D01*
X85344769Y-35720827D01*
X85284431Y-35866498D01*
X85284428Y-35866510D01*
X85253667Y-36021153D01*
X78309361Y-36021153D01*
X78271001Y-36005264D01*
X78270989Y-36005261D01*
X78116345Y-35974500D01*
X78116342Y-35974500D01*
X77958658Y-35974500D01*
X77958655Y-35974500D01*
X77804010Y-36005261D01*
X77803998Y-36005264D01*
X77658327Y-36065602D01*
X77658314Y-36065609D01*
X77527211Y-36153210D01*
X77527207Y-36153213D01*
X77415713Y-36264707D01*
X77415710Y-36264711D01*
X77328109Y-36395814D01*
X77328104Y-36395824D01*
X77305846Y-36449560D01*
X77262004Y-36503964D01*
X77207714Y-36525014D01*
X77175244Y-36529354D01*
X77175243Y-36529354D01*
X77038666Y-36574610D01*
X76976141Y-36605805D01*
X76857847Y-36687706D01*
X76857842Y-36687710D01*
X76443666Y-37072305D01*
X76375093Y-37135981D01*
X76374678Y-37136366D01*
X76312158Y-37167559D01*
X76290302Y-37169500D01*
X75088860Y-37169500D01*
X75034811Y-37172397D01*
X75034810Y-37172397D01*
X75008477Y-37175229D01*
X75008450Y-37175232D01*
X74955054Y-37183885D01*
X74955052Y-37183885D01*
X74820247Y-37234166D01*
X74758922Y-37267651D01*
X74643740Y-37353876D01*
X74643728Y-37353886D01*
X74316392Y-37681223D01*
X74316355Y-37681262D01*
X74280228Y-37721480D01*
X74280218Y-37721492D01*
X74263576Y-37742143D01*
X74231933Y-37786025D01*
X74172163Y-37916899D01*
X74152476Y-37983944D01*
X74139348Y-38075252D01*
X74136548Y-38094733D01*
X74132000Y-38126363D01*
X73188098Y-38126363D01*
X73188098Y-37979228D01*
X73181690Y-37919617D01*
X73180676Y-37916899D01*
X73131396Y-37784771D01*
X73131392Y-37784764D01*
X73062734Y-37693049D01*
X73038316Y-37627585D01*
X73038000Y-37618738D01*
X73038000Y-36640784D01*
X73057685Y-36573745D01*
X73074319Y-36553103D01*
X73214636Y-36412785D01*
X73214639Y-36412782D01*
X73324132Y-36248914D01*
X73399551Y-36066835D01*
X73417918Y-35974500D01*
X73438000Y-35873543D01*
X73438000Y-35676456D01*
X73399552Y-35483170D01*
X73399551Y-35483169D01*
X73399551Y-35483165D01*
X73397499Y-35478210D01*
X73324135Y-35301092D01*
X73324128Y-35301079D01*
X73214639Y-35137218D01*
X73214636Y-35137214D01*
X73075285Y-34997863D01*
X73075281Y-34997860D01*
X72911420Y-34888371D01*
X72911407Y-34888364D01*
X72729339Y-34812950D01*
X72729329Y-34812947D01*
X72536043Y-34774500D01*
X72536041Y-34774500D01*
X72338959Y-34774500D01*
X72338957Y-34774500D01*
X72145670Y-34812947D01*
X72145660Y-34812950D01*
X71963592Y-34888364D01*
X71963579Y-34888371D01*
X71799718Y-34997860D01*
X71799714Y-34997863D01*
X71660363Y-35137214D01*
X71660360Y-35137218D01*
X71550871Y-35301079D01*
X71550864Y-35301092D01*
X71475450Y-35483160D01*
X71475447Y-35483170D01*
X71437000Y-35676456D01*
X71437000Y-35676459D01*
X71437000Y-35873541D01*
X71437000Y-35873543D01*
X71436999Y-35873543D01*
X71475447Y-36066829D01*
X71475450Y-36066839D01*
X71550864Y-36248907D01*
X71550871Y-36248920D01*
X71660360Y-36412781D01*
X71660363Y-36412785D01*
X71800681Y-36553103D01*
X71834166Y-36614426D01*
X71837000Y-36640784D01*
X71837000Y-37402600D01*
X71834449Y-37411285D01*
X71835738Y-37420247D01*
X71824759Y-37444287D01*
X71817315Y-37469639D01*
X71810474Y-37475566D01*
X71806713Y-37483803D01*
X71784478Y-37498092D01*
X71764511Y-37515394D01*
X71753996Y-37517681D01*
X71747935Y-37521577D01*
X71713000Y-37526600D01*
X71489698Y-37526600D01*
X71422659Y-37506915D01*
X71402021Y-37490285D01*
X71237584Y-37325849D01*
X71237580Y-37325844D01*
X71118717Y-37206981D01*
X71118709Y-37206975D01*
X71018454Y-37149094D01*
X71018453Y-37149093D01*
X71006454Y-37142166D01*
X70981785Y-37127923D01*
X70829057Y-37086999D01*
X70818510Y-37086999D01*
X70800642Y-37081450D01*
X70779998Y-37067726D01*
X70757330Y-37057696D01*
X70747190Y-37045914D01*
X70742457Y-37042768D01*
X70740358Y-37037976D01*
X70731882Y-37028128D01*
X70707840Y-36989150D01*
X70585850Y-36867160D01*
X70461753Y-36790616D01*
X70439018Y-36776593D01*
X70439013Y-36776591D01*
X70437468Y-36776079D01*
X70275253Y-36722326D01*
X70275251Y-36722325D01*
X70174178Y-36712000D01*
X69475830Y-36712000D01*
X69475812Y-36712001D01*
X69374747Y-36722325D01*
X69210984Y-36776592D01*
X69210981Y-36776593D01*
X69064148Y-36867161D01*
X69050181Y-36881129D01*
X68988858Y-36914614D01*
X68919166Y-36909630D01*
X68874819Y-36881129D01*
X68860851Y-36867161D01*
X68860850Y-36867160D01*
X68736753Y-36790616D01*
X68714018Y-36776593D01*
X68714013Y-36776591D01*
X68712468Y-36776079D01*
X68550253Y-36722326D01*
X68550251Y-36722325D01*
X68449178Y-36712000D01*
X67750830Y-36712000D01*
X67750812Y-36712001D01*
X67649747Y-36722325D01*
X67485984Y-36776592D01*
X67485981Y-36776593D01*
X67339148Y-36867161D01*
X67217161Y-36989148D01*
X67126593Y-37135981D01*
X67126591Y-37135986D01*
X67121465Y-37151456D01*
X67072326Y-37299747D01*
X67072326Y-37299748D01*
X67072325Y-37299748D01*
X67062000Y-37400815D01*
X67062000Y-37974169D01*
X67062001Y-37974187D01*
X67072325Y-38075252D01*
X67126592Y-38239015D01*
X67126593Y-38239018D01*
X67133675Y-38250500D01*
X67190236Y-38342200D01*
X67220952Y-38391997D01*
X67218737Y-38393362D01*
X67240327Y-38446904D01*
X67227275Y-38515544D01*
X67179185Y-38566231D01*
X67116918Y-38582998D01*
X66760280Y-38582998D01*
X66760273Y-38582999D01*
X66700666Y-38589406D01*
X66565821Y-38639700D01*
X66565814Y-38639704D01*
X66468888Y-38712264D01*
X66403424Y-38736682D01*
X66394577Y-38736998D01*
X66054594Y-38736998D01*
X65987555Y-38717313D01*
X65985703Y-38716100D01*
X65854013Y-38628107D01*
X65854000Y-38628100D01*
X65708326Y-38567761D01*
X65708321Y-38567760D01*
X65693622Y-38564836D01*
X65631712Y-38532449D01*
X65630135Y-38530900D01*
X64536819Y-37437584D01*
X64503334Y-37376261D01*
X64500500Y-37349903D01*
X64500500Y-37151456D01*
X64462052Y-36958170D01*
X64462051Y-36958169D01*
X64462051Y-36958165D01*
X64441947Y-36909630D01*
X64386635Y-36776092D01*
X64386628Y-36776079D01*
X64277139Y-36612218D01*
X64277136Y-36612214D01*
X64137785Y-36472863D01*
X64137781Y-36472860D01*
X63973920Y-36363371D01*
X63973907Y-36363364D01*
X63791839Y-36287950D01*
X63791829Y-36287947D01*
X63598543Y-36249500D01*
X63598541Y-36249500D01*
X63401459Y-36249500D01*
X63401457Y-36249500D01*
X63208170Y-36287947D01*
X63208160Y-36287950D01*
X63026092Y-36363364D01*
X63026079Y-36363371D01*
X62862218Y-36472860D01*
X62862214Y-36472863D01*
X62722863Y-36612214D01*
X62722860Y-36612218D01*
X62613371Y-36776079D01*
X62613364Y-36776092D01*
X62537950Y-36958160D01*
X62537947Y-36958170D01*
X62499500Y-37151456D01*
X62499500Y-37151459D01*
X62499500Y-37348541D01*
X62499500Y-37348543D01*
X62499499Y-37348543D01*
X42607132Y-37348543D01*
X42643761Y-37321123D01*
X43071123Y-36893761D01*
X43107288Y-36853500D01*
X43123922Y-36832858D01*
X43155567Y-36788974D01*
X43215338Y-36658097D01*
X43235023Y-36591058D01*
X43235024Y-36591054D01*
X43255500Y-36448638D01*
X43255500Y-33051362D01*
X43252603Y-32997322D01*
X43249769Y-32970964D01*
X43241114Y-32917552D01*
X43190832Y-32782743D01*
X43157347Y-32721420D01*
X43071123Y-32606239D01*
X43071118Y-32606234D01*
X43071113Y-32606228D01*
X42643776Y-32178892D01*
X42643761Y-32178877D01*
X42630979Y-32167395D01*
X42603519Y-32142728D01*
X42603507Y-32142718D01*
X42582856Y-32126076D01*
X42538974Y-32094433D01*
X42408100Y-32034663D01*
X42341055Y-32014976D01*
X42293582Y-32008150D01*
X42198638Y-31994500D01*
X42198636Y-31994500D01*
X41639052Y-31994500D01*
X41624004Y-31990081D01*
X41608329Y-31990634D01*
X41591163Y-31980438D01*
X41572013Y-31974815D01*
X41560948Y-31962491D01*
X41548257Y-31954953D01*
X41528142Y-31925952D01*
X41518590Y-31906847D01*
X41505500Y-31851395D01*
X41505500Y-31387066D01*
X71149500Y-31387066D01*
X71149500Y-31985420D01*
X71149501Y-31985438D01*
X71159825Y-32086503D01*
X71192279Y-32184439D01*
X71211750Y-32243200D01*
X71214092Y-32250266D01*
X71214093Y-32250269D01*
X71236596Y-32286752D01*
X71304660Y-32397101D01*
X71426650Y-32519091D01*
X71573484Y-32609659D01*
X71737247Y-32663925D01*
X71838323Y-32674251D01*
X72411676Y-32674250D01*
X72411684Y-32674249D01*
X72411687Y-32674249D01*
X72491539Y-32666092D01*
X72512753Y-32663925D01*
X72676516Y-32609659D01*
X72823350Y-32519091D01*
X72945340Y-32397101D01*
X72977071Y-32345655D01*
X73029018Y-32298931D01*
X73082610Y-32286752D01*
X73205304Y-32286752D01*
X73205307Y-32286752D01*
X73358035Y-32245828D01*
X73408154Y-32216890D01*
X73494966Y-32166771D01*
X73606770Y-32054967D01*
X73606770Y-32054965D01*
X73616978Y-32044758D01*
X73616980Y-32044755D01*
X73982454Y-31679280D01*
X74043775Y-31645797D01*
X74113467Y-31650781D01*
X74169400Y-31692653D01*
X74175672Y-31701867D01*
X74229590Y-31789284D01*
X74232288Y-31793657D01*
X74356344Y-31917713D01*
X74505666Y-32009815D01*
X74672203Y-32065000D01*
X74774991Y-32075501D01*
X75525008Y-32075500D01*
X75525016Y-32075499D01*
X75525019Y-32075499D01*
X75581302Y-32069749D01*
X75627797Y-32065000D01*
X75794334Y-32009815D01*
X75943656Y-31917713D01*
X76067712Y-31793657D01*
X76069461Y-31790820D01*
X76071169Y-31789284D01*
X76072193Y-31787990D01*
X76072414Y-31788164D01*
X76121406Y-31744097D01*
X76190368Y-31732873D01*
X76254451Y-31760714D01*
X76280537Y-31790818D01*
X76282288Y-31793657D01*
X76406344Y-31917713D01*
X76555666Y-32009815D01*
X76722203Y-32065000D01*
X76824991Y-32075501D01*
X77575008Y-32075500D01*
X77575016Y-32075499D01*
X77575019Y-32075499D01*
X77631302Y-32069749D01*
X77677797Y-32065000D01*
X77844334Y-32009815D01*
X77993656Y-31917713D01*
X78117712Y-31793657D01*
X78209814Y-31644335D01*
X78264999Y-31477798D01*
X78275500Y-31375010D01*
X78275499Y-31171537D01*
X78295183Y-31104499D01*
X78347987Y-31058744D01*
X78417145Y-31048800D01*
X78438501Y-31053832D01*
X78472203Y-31065000D01*
X78574991Y-31075501D01*
X79775008Y-31075500D01*
X79877797Y-31065000D01*
X80044334Y-31009815D01*
X80094634Y-30978789D01*
X80123169Y-30970981D01*
X80150884Y-30960644D01*
X80156489Y-30961863D01*
X80162024Y-30960349D01*
X80190251Y-30969207D01*
X80219157Y-30975496D01*
X80225560Y-30980289D01*
X80228688Y-30981271D01*
X80247411Y-30996647D01*
X80390139Y-31139375D01*
X80390149Y-31139386D01*
X80394479Y-31143716D01*
X80394480Y-31143717D01*
X80506284Y-31255521D01*
X80585684Y-31301362D01*
X80643215Y-31334578D01*
X80795943Y-31375501D01*
X81356601Y-31375501D01*
X81423640Y-31395186D01*
X81469395Y-31447990D01*
X81480601Y-31499501D01*
X81480601Y-32184439D01*
X81460916Y-32251478D01*
X81425492Y-32287541D01*
X81327211Y-32353210D01*
X81327207Y-32353213D01*
X81215713Y-32464707D01*
X81215710Y-32464711D01*
X81128109Y-32595814D01*
X81128102Y-32595827D01*
X81067764Y-32741498D01*
X81067761Y-32741508D01*
X81036862Y-32896848D01*
X81004477Y-32958759D01*
X81002926Y-32960337D01*
X79922839Y-34040425D01*
X79861516Y-34073910D01*
X79859350Y-34074361D01*
X79704008Y-34105261D01*
X79703998Y-34105264D01*
X79558327Y-34165602D01*
X79558314Y-34165609D01*
X79427211Y-34253210D01*
X79427207Y-34253213D01*
X79315713Y-34364707D01*
X79315710Y-34364711D01*
X79228109Y-34495814D01*
X79228102Y-34495827D01*
X79167764Y-34641498D01*
X79167761Y-34641510D01*
X79137000Y-34796153D01*
X79137000Y-34953846D01*
X79167761Y-35108489D01*
X79167764Y-35108501D01*
X79228102Y-35254172D01*
X79228109Y-35254185D01*
X79315710Y-35385288D01*
X79315713Y-35385292D01*
X79427207Y-35496786D01*
X79427211Y-35496789D01*
X79558314Y-35584390D01*
X79558327Y-35584397D01*
X79703998Y-35644735D01*
X79704003Y-35644737D01*
X79858653Y-35675499D01*
X79858656Y-35675500D01*
X79858658Y-35675500D01*
X80016344Y-35675500D01*
X80016345Y-35675499D01*
X80170997Y-35644737D01*
X80316679Y-35584394D01*
X80447789Y-35496789D01*
X80559289Y-35385289D01*
X80646894Y-35254179D01*
X80707237Y-35108497D01*
X80730956Y-34989254D01*
X80738138Y-34953150D01*
X80770523Y-34891239D01*
X80772016Y-34889718D01*
X81852164Y-33809571D01*
X81913485Y-33776088D01*
X81915652Y-33775637D01*
X81916341Y-33775500D01*
X81916342Y-33775500D01*
X82070997Y-33744737D01*
X82216679Y-33684394D01*
X82347789Y-33596789D01*
X82459289Y-33485289D01*
X82546894Y-33354179D01*
X82607237Y-33208497D01*
X82638000Y-33053842D01*
X82638000Y-32896158D01*
X82638000Y-32896155D01*
X82622989Y-32820692D01*
X82629216Y-32751100D01*
X82672079Y-32695923D01*
X82737968Y-32672678D01*
X82744606Y-32672500D01*
X83019571Y-32672500D01*
X83019572Y-32672500D01*
X83079183Y-32666092D01*
X83214031Y-32615797D01*
X83329246Y-32529547D01*
X83415496Y-32414332D01*
X83465791Y-32279484D01*
X83470902Y-32231942D01*
X83497639Y-32167395D01*
X83555032Y-32127547D01*
X83594191Y-32121201D01*
X84355809Y-32121201D01*
X84422848Y-32140886D01*
X84468603Y-32193690D01*
X84479099Y-32231948D01*
X84484208Y-32279484D01*
X84534502Y-32414329D01*
X84534506Y-32414336D01*
X84620752Y-32529545D01*
X84620755Y-32529548D01*
X84735964Y-32615794D01*
X84735969Y-32615797D01*
X84768832Y-32628054D01*
X84824765Y-32669923D01*
X84849184Y-32735387D01*
X84849500Y-32744236D01*
X84849500Y-33420234D01*
X84829815Y-33487273D01*
X84828602Y-33489125D01*
X84740609Y-33620814D01*
X84740602Y-33620827D01*
X84680264Y-33766498D01*
X84680261Y-33766510D01*
X84649500Y-33921153D01*
X84649500Y-34078846D01*
X84680261Y-34233489D01*
X84680264Y-34233501D01*
X84740602Y-34379172D01*
X84740609Y-34379185D01*
X84828210Y-34510288D01*
X84828213Y-34510292D01*
X84939707Y-34621786D01*
X84939711Y-34621789D01*
X85070814Y-34709390D01*
X85070827Y-34709397D01*
X85216498Y-34769735D01*
X85216503Y-34769737D01*
X85371153Y-34800499D01*
X85371156Y-34800500D01*
X85371158Y-34800500D01*
X85528844Y-34800500D01*
X85528845Y-34800499D01*
X85683497Y-34769737D01*
X85829179Y-34709394D01*
X85960289Y-34621789D01*
X86071789Y-34510289D01*
X86159394Y-34379179D01*
X86165389Y-34364707D01*
X86199238Y-34282986D01*
X86219737Y-34233497D01*
X86250500Y-34078842D01*
X86250500Y-33921158D01*
X86250500Y-33921155D01*
X86250499Y-33921153D01*
X86227169Y-33803868D01*
X86219737Y-33766503D01*
X86210721Y-33744737D01*
X86159397Y-33620827D01*
X86159390Y-33620814D01*
X86071398Y-33489125D01*
X86050520Y-33422447D01*
X86050500Y-33420234D01*
X86050500Y-32761840D01*
X86070185Y-32694801D01*
X86122989Y-32649046D01*
X86131140Y-32645668D01*
X86211231Y-32615797D01*
X86326446Y-32529547D01*
X86412696Y-32414332D01*
X86462991Y-32279484D01*
X86469400Y-32219874D01*
X86469399Y-29330129D01*
X86466426Y-29302475D01*
X86478832Y-29233717D01*
X86526443Y-29182580D01*
X86567665Y-29168863D01*
X86567432Y-29167877D01*
X86574979Y-29166093D01*
X86574981Y-29166092D01*
X86574983Y-29166092D01*
X86709831Y-29115797D01*
X86825046Y-29029547D01*
X86911296Y-28914332D01*
X86961591Y-28779484D01*
X86968000Y-28719874D01*
X86967999Y-25830129D01*
X86961591Y-25770518D01*
X86911296Y-25635670D01*
X86911295Y-25635669D01*
X86911293Y-25635665D01*
X86825047Y-25520456D01*
X86825044Y-25520453D01*
X86709835Y-25434207D01*
X86709828Y-25434203D01*
X86574982Y-25383909D01*
X86574983Y-25383909D01*
X86515383Y-25377502D01*
X86515381Y-25377501D01*
X86515373Y-25377501D01*
X86515365Y-25377501D01*
X86513598Y-25377501D01*
X86513202Y-25377384D01*
X86512048Y-25377323D01*
X86512062Y-25377050D01*
X86446559Y-25357816D01*
X86425917Y-25341182D01*
X85966717Y-24881982D01*
X85966716Y-24881981D01*
X85868889Y-24825501D01*
X85829785Y-24802924D01*
X85677057Y-24762000D01*
X85518943Y-24762000D01*
X85511347Y-24762000D01*
X85511331Y-24762001D01*
X84494300Y-24762001D01*
X84427261Y-24742316D01*
X84381506Y-24689512D01*
X84370300Y-24638001D01*
X84370300Y-24331301D01*
X83854552Y-24331301D01*
X83787513Y-24311616D01*
X83755286Y-24281612D01*
X83686447Y-24189656D01*
X83686444Y-24189653D01*
X83571235Y-24103407D01*
X83571228Y-24103403D01*
X83436386Y-24053111D01*
X83436385Y-24053110D01*
X83436383Y-24053110D01*
X83376773Y-24046701D01*
X83376763Y-24046701D01*
X82773029Y-24046701D01*
X82773023Y-24046702D01*
X82713416Y-24053109D01*
X82578571Y-24103403D01*
X82570786Y-24107655D01*
X82569345Y-24105017D01*
X82562687Y-24107501D01*
X82544052Y-24119478D01*
X82522151Y-24122626D01*
X82517978Y-24124184D01*
X82509117Y-24124501D01*
X82334149Y-24124501D01*
X82267110Y-24104816D01*
X82246468Y-24088182D01*
X79599318Y-21441032D01*
X79565833Y-21379709D01*
X79562999Y-21353351D01*
X79562999Y-20929280D01*
X79562998Y-20929263D01*
X79552674Y-20828197D01*
X79543131Y-20799398D01*
X79498408Y-20664434D01*
X79407840Y-20517600D01*
X79285850Y-20395610D01*
X79194629Y-20339345D01*
X79139018Y-20305043D01*
X79139013Y-20305041D01*
X79137569Y-20304562D01*
X78975253Y-20250776D01*
X78975251Y-20250775D01*
X78874184Y-20240450D01*
X78874177Y-20240450D01*
X78862000Y-20240450D01*
X78794961Y-20220765D01*
X78749206Y-20167961D01*
X78738000Y-20116450D01*
X78738000Y-18728134D01*
X78757685Y-18661095D01*
X78789109Y-18627820D01*
X78854428Y-18580364D01*
X78976914Y-18457878D01*
X79078732Y-18317738D01*
X79157373Y-18163395D01*
X79210902Y-17998651D01*
X79238000Y-17827561D01*
X79238000Y-17104339D01*
X79210902Y-16933249D01*
X79157373Y-16768505D01*
X79078732Y-16614162D01*
X78976914Y-16474022D01*
X78854428Y-16351536D01*
X78714288Y-16249718D01*
X78559945Y-16171077D01*
X78395201Y-16117548D01*
X78395199Y-16117547D01*
X78395198Y-16117547D01*
X78237035Y-16092497D01*
X78224111Y-16090450D01*
X78050889Y-16090450D01*
X78037965Y-16092497D01*
X77879802Y-16117547D01*
X77715052Y-16171078D01*
X77560711Y-16249718D01*
X77480756Y-16307809D01*
X77420572Y-16351536D01*
X77420570Y-16351538D01*
X77420569Y-16351538D01*
X77298088Y-16474019D01*
X77298088Y-16474020D01*
X77298086Y-16474022D01*
X77288110Y-16487753D01*
X77196268Y-16614161D01*
X77117628Y-16768502D01*
X77064097Y-16933252D01*
X77052565Y-17006065D01*
X77037000Y-17104339D01*
X77037000Y-17827561D01*
X77044746Y-17876467D01*
X77063887Y-17997322D01*
X77064098Y-17998651D01*
X77117627Y-18163395D01*
X77196268Y-18317738D01*
X77298086Y-18457878D01*
X77420572Y-18580364D01*
X77485888Y-18627818D01*
X77528551Y-18683145D01*
X77537000Y-18728134D01*
X77537000Y-20688459D01*
X77530706Y-20727463D01*
X77497326Y-20828197D01*
X77497325Y-20828198D01*
X77487000Y-20929265D01*
X77487000Y-21502619D01*
X77487001Y-21502637D01*
X77497325Y-21603702D01*
X77551592Y-21767465D01*
X77551593Y-21767468D01*
X77558820Y-21779185D01*
X77642160Y-21914300D01*
X77764150Y-22036290D01*
X77910984Y-22126858D01*
X78074747Y-22181124D01*
X78175823Y-22191450D01*
X78599902Y-22191449D01*
X78666941Y-22211133D01*
X78687582Y-22227767D01*
X81665335Y-25205521D01*
X81665337Y-25205522D01*
X81665341Y-25205525D01*
X81802260Y-25284574D01*
X81802267Y-25284578D01*
X81954994Y-25325502D01*
X81954996Y-25325502D01*
X82020374Y-25325502D01*
X82087413Y-25345187D01*
X82133168Y-25397991D01*
X82143112Y-25467149D01*
X82119640Y-25523813D01*
X82035906Y-25635665D01*
X82035902Y-25635672D01*
X81985608Y-25770518D01*
X81979201Y-25830117D01*
X81979201Y-25830124D01*
X81979200Y-25830136D01*
X81979200Y-26602131D01*
X81959515Y-26669170D01*
X81912110Y-26710246D01*
X81912754Y-26711360D01*
X81906974Y-26714696D01*
X81906711Y-26714925D01*
X81906173Y-26715159D01*
X81768790Y-26794476D01*
X81768782Y-26794482D01*
X80687180Y-27876085D01*
X80625857Y-27909570D01*
X80556165Y-27904586D01*
X80500232Y-27862714D01*
X80475815Y-27797250D01*
X80475499Y-27788404D01*
X80475499Y-27774999D01*
X80475498Y-27774982D01*
X80464999Y-27672204D01*
X80464998Y-27672201D01*
X80448292Y-27621786D01*
X80409814Y-27505667D01*
X80317712Y-27356345D01*
X80193656Y-27232289D01*
X80100888Y-27175070D01*
X80044336Y-27140188D01*
X80044331Y-27140186D01*
X80042862Y-27139699D01*
X79877797Y-27085002D01*
X79877795Y-27085001D01*
X79775010Y-27074501D01*
X78574998Y-27074501D01*
X78574981Y-27074502D01*
X78472203Y-27085001D01*
X78472200Y-27085002D01*
X78305668Y-27140186D01*
X78305663Y-27140188D01*
X78156342Y-27232290D01*
X78032289Y-27356343D01*
X77940187Y-27505664D01*
X77940185Y-27505669D01*
X77934489Y-27522860D01*
X77885001Y-27672204D01*
X77885001Y-27672205D01*
X77885000Y-27672205D01*
X77874500Y-27774984D01*
X77874500Y-29474903D01*
X77865855Y-29504340D01*
X77859332Y-29534331D01*
X77855576Y-29539347D01*
X77854815Y-29541942D01*
X77838185Y-29562579D01*
X77795368Y-29605397D01*
X77753909Y-29646856D01*
X77692585Y-29680340D01*
X77653626Y-29682532D01*
X77575011Y-29674501D01*
X76824998Y-29674501D01*
X76824980Y-29674502D01*
X76722203Y-29685001D01*
X76722200Y-29685002D01*
X76555668Y-29740186D01*
X76555663Y-29740188D01*
X76406342Y-29832290D01*
X76282285Y-29956347D01*
X76280537Y-29959183D01*
X76278829Y-29960718D01*
X76277807Y-29962012D01*
X76277585Y-29961837D01*
X76228589Y-30005906D01*
X76159626Y-30017127D01*
X76095544Y-29989283D01*
X76069463Y-29959183D01*
X76067714Y-29956347D01*
X75943657Y-29832290D01*
X75943656Y-29832289D01*
X75794334Y-29740187D01*
X75627797Y-29685002D01*
X75627795Y-29685001D01*
X75525010Y-29674501D01*
X74774998Y-29674501D01*
X74774980Y-29674502D01*
X74672203Y-29685001D01*
X74672200Y-29685002D01*
X74505668Y-29740186D01*
X74505663Y-29740188D01*
X74356342Y-29832290D01*
X74232289Y-29956343D01*
X74140187Y-30105664D01*
X74140186Y-30105667D01*
X74112405Y-30189505D01*
X74072632Y-30246949D01*
X74008116Y-30273772D01*
X73994699Y-30274500D01*
X73858443Y-30274500D01*
X73782079Y-30294962D01*
X73705714Y-30315424D01*
X73705709Y-30315427D01*
X73568790Y-30394476D01*
X73568782Y-30394482D01*
X73054283Y-30908981D01*
X72992960Y-30942466D01*
X72923268Y-30937482D01*
X72878921Y-30908982D01*
X72875500Y-30905561D01*
X72823350Y-30853411D01*
X72676516Y-30762843D01*
X72512753Y-30708577D01*
X72512751Y-30708576D01*
X72411678Y-30698251D01*
X71838330Y-30698251D01*
X71838312Y-30698252D01*
X71737247Y-30708576D01*
X71573484Y-30762843D01*
X71573481Y-30762844D01*
X71426648Y-30853412D01*
X71304661Y-30975399D01*
X71214093Y-31122232D01*
X71214091Y-31122237D01*
X71199075Y-31167552D01*
X71159826Y-31285998D01*
X71159826Y-31285999D01*
X71159825Y-31285999D01*
X71149500Y-31387066D01*
X41505500Y-31387066D01*
X41505500Y-31301359D01*
X41504676Y-31285998D01*
X41502603Y-31247322D01*
X41499769Y-31220964D01*
X41498356Y-31212247D01*
X41491114Y-31167554D01*
X41491114Y-31167552D01*
X41456780Y-31075501D01*
X41440832Y-31032743D01*
X41407347Y-30971420D01*
X41321123Y-30856239D01*
X41321118Y-30856234D01*
X41321113Y-30856228D01*
X41143776Y-30678892D01*
X41143761Y-30678877D01*
X41143737Y-30678855D01*
X41103519Y-30642728D01*
X41103507Y-30642718D01*
X41082856Y-30626076D01*
X41038974Y-30594433D01*
X40908100Y-30534663D01*
X40841055Y-30514976D01*
X40793582Y-30508150D01*
X40698638Y-30494500D01*
X40698636Y-30494500D01*
X35505500Y-30494500D01*
X35750000Y-30250000D01*
X35750000Y-24750000D01*
X36250000Y-24250000D01*
X37000000Y-23500000D01*
X37000000Y-22964884D01*
X37032060Y-22996944D01*
X37106239Y-23071123D01*
X37106255Y-23071137D01*
X37106262Y-23071144D01*
X37146480Y-23107271D01*
X37146492Y-23107281D01*
X37146500Y-23107288D01*
X37167142Y-23123922D01*
X37211026Y-23155567D01*
X37341903Y-23215338D01*
X37408942Y-23235023D01*
X37408946Y-23235024D01*
X37551362Y-23255500D01*
X38075500Y-23255500D01*
X38142539Y-23275185D01*
X38188294Y-23327989D01*
X38199500Y-23379500D01*
X38199500Y-26813330D01*
X38199499Y-26813348D01*
X38199499Y-26979054D01*
X38199498Y-26979054D01*
X38201761Y-26987499D01*
X38240423Y-27131785D01*
X38240424Y-27131786D01*
X38245272Y-27140185D01*
X38245274Y-27140187D01*
X38319477Y-27268712D01*
X38319481Y-27268717D01*
X38438349Y-27387585D01*
X38438355Y-27387590D01*
X39163181Y-28112416D01*
X39196666Y-28173739D01*
X39199500Y-28200097D01*
X39199500Y-28201459D01*
X39199500Y-28398541D01*
X39199500Y-28398543D01*
X39199499Y-28398543D01*
X39237947Y-28591829D01*
X39237950Y-28591839D01*
X39313364Y-28773907D01*
X39313371Y-28773920D01*
X39422860Y-28937781D01*
X39422863Y-28937785D01*
X39562214Y-29077136D01*
X39562218Y-29077139D01*
X39726079Y-29186628D01*
X39726092Y-29186635D01*
X39903909Y-29260288D01*
X39908165Y-29262051D01*
X39908169Y-29262051D01*
X39908170Y-29262052D01*
X40101456Y-29300500D01*
X40101459Y-29300500D01*
X40298543Y-29300500D01*
X40449289Y-29270514D01*
X40491835Y-29262051D01*
X40673914Y-29186632D01*
X40837782Y-29077139D01*
X40977139Y-28937782D01*
X41086632Y-28773914D01*
X41162051Y-28591835D01*
X41181942Y-28491839D01*
X41200500Y-28398543D01*
X41200500Y-28201456D01*
X41162052Y-28008170D01*
X41162051Y-28008169D01*
X41162051Y-28008165D01*
X41142949Y-27962049D01*
X41086635Y-27826092D01*
X41086628Y-27826079D01*
X40977139Y-27662218D01*
X40977136Y-27662214D01*
X40837785Y-27522863D01*
X40837781Y-27522860D01*
X40673920Y-27413371D01*
X40673907Y-27413364D01*
X40491839Y-27337950D01*
X40491829Y-27337947D01*
X40298543Y-27299500D01*
X40298541Y-27299500D01*
X40101459Y-27299500D01*
X40100097Y-27299500D01*
X40033058Y-27279815D01*
X40012416Y-27263181D01*
X39436819Y-26687584D01*
X39403334Y-26626261D01*
X39400500Y-26599903D01*
X39400500Y-23379500D01*
X39420185Y-23312461D01*
X39472989Y-23266706D01*
X39524500Y-23255500D01*
X39948640Y-23255500D01*
X39958786Y-23254955D01*
X40002678Y-23252603D01*
X40002686Y-23252602D01*
X40002688Y-23252602D01*
X40002689Y-23252602D01*
X40009682Y-23251849D01*
X40029036Y-23249769D01*
X40029046Y-23249767D01*
X40029049Y-23249767D01*
X40038648Y-23248211D01*
X40082448Y-23241114D01*
X40217257Y-23190832D01*
X40278580Y-23157347D01*
X40393761Y-23071123D01*
X41021123Y-22443761D01*
X41057288Y-22403500D01*
X41073922Y-22382858D01*
X41105567Y-22338974D01*
X41165338Y-22208097D01*
X41185023Y-22141058D01*
X41185024Y-22141054D01*
X41205500Y-21998638D01*
X41205500Y-19001362D01*
X41202603Y-18947322D01*
X41199769Y-18920964D01*
X41191114Y-18867552D01*
X41191111Y-18867543D01*
X41180947Y-18840291D01*
X41180937Y-18840267D01*
X41166426Y-18801363D01*
X44494500Y-18801363D01*
X44494500Y-22448640D01*
X44497397Y-22502688D01*
X44497397Y-22502689D01*
X44500228Y-22529013D01*
X44500232Y-22529049D01*
X44508885Y-22582445D01*
X44508885Y-22582447D01*
X44546876Y-22684302D01*
X44559168Y-22717257D01*
X44592653Y-22778580D01*
X44678877Y-22893761D01*
X44678881Y-22893765D01*
X44678886Y-22893771D01*
X45020139Y-23235023D01*
X45356239Y-23571123D01*
X45356255Y-23571137D01*
X45356262Y-23571144D01*
X45396480Y-23607271D01*
X45396492Y-23607281D01*
X45396500Y-23607288D01*
X45417142Y-23623922D01*
X45461026Y-23655567D01*
X45591903Y-23715338D01*
X45658942Y-23735023D01*
X45658946Y-23735024D01*
X45801362Y-23755500D01*
X47989254Y-23755500D01*
X48056293Y-23775185D01*
X48076935Y-23791819D01*
X48356239Y-24071123D01*
X48356255Y-24071137D01*
X48356262Y-24071144D01*
X48396480Y-24107271D01*
X48396492Y-24107281D01*
X48396500Y-24107288D01*
X48417142Y-24123922D01*
X48461026Y-24155567D01*
X48591903Y-24215338D01*
X48658942Y-24235023D01*
X48658946Y-24235024D01*
X48801362Y-24255500D01*
X49613000Y-24255500D01*
X49680039Y-24275185D01*
X49725794Y-24327989D01*
X49737000Y-24379500D01*
X49737000Y-26550830D01*
X49736999Y-26550848D01*
X49736999Y-26716554D01*
X49736998Y-26716554D01*
X49764969Y-26820943D01*
X49777923Y-26869285D01*
X49796499Y-26901459D01*
X49841298Y-26979054D01*
X49856979Y-27006214D01*
X49856981Y-27006217D01*
X49975849Y-27125085D01*
X49975854Y-27125089D01*
X50863182Y-28012418D01*
X50896666Y-28073739D01*
X50899500Y-28100097D01*
X50899500Y-28101459D01*
X50899500Y-28298541D01*
X50899500Y-28298543D01*
X50899499Y-28298543D01*
X50937947Y-28491829D01*
X50937950Y-28491839D01*
X51013364Y-28673907D01*
X51013371Y-28673920D01*
X51122860Y-28837781D01*
X51122863Y-28837785D01*
X51262214Y-28977136D01*
X51262218Y-28977139D01*
X51426079Y-29086628D01*
X51426092Y-29086635D01*
X51608160Y-29162049D01*
X51608165Y-29162051D01*
X51608169Y-29162051D01*
X51608170Y-29162052D01*
X51801456Y-29200500D01*
X51801459Y-29200500D01*
X51998543Y-29200500D01*
X52162546Y-29167877D01*
X52191835Y-29162051D01*
X52373914Y-29086632D01*
X52537782Y-28977139D01*
X52677139Y-28837782D01*
X52786632Y-28673914D01*
X52862051Y-28491835D01*
X52886121Y-28370827D01*
X52900500Y-28298543D01*
X52900500Y-28101456D01*
X52862052Y-27908170D01*
X52862051Y-27908169D01*
X52862051Y-27908165D01*
X52828050Y-27826079D01*
X52786635Y-27726092D01*
X52786628Y-27726079D01*
X52677139Y-27562218D01*
X52677136Y-27562214D01*
X52537785Y-27422863D01*
X52537781Y-27422860D01*
X52373920Y-27313371D01*
X52373907Y-27313364D01*
X52191839Y-27237950D01*
X52191829Y-27237947D01*
X51998543Y-27199500D01*
X51998541Y-27199500D01*
X51801459Y-27199500D01*
X51800098Y-27199500D01*
X51733059Y-27179815D01*
X51712417Y-27163181D01*
X50974319Y-26425083D01*
X50940834Y-26363760D01*
X50938000Y-26337402D01*
X50938000Y-24759561D01*
X50957685Y-24692522D01*
X51010489Y-24646767D01*
X51079647Y-24636823D01*
X51143203Y-24665848D01*
X51165101Y-24690669D01*
X51171724Y-24700581D01*
X51178212Y-24710291D01*
X51289707Y-24821786D01*
X51289711Y-24821789D01*
X51420814Y-24909390D01*
X51420827Y-24909397D01*
X51566498Y-24969735D01*
X51566503Y-24969737D01*
X51687400Y-24993785D01*
X51721153Y-25000499D01*
X51721156Y-25000500D01*
X51721158Y-25000500D01*
X51878844Y-25000500D01*
X51878845Y-25000499D01*
X52033497Y-24969737D01*
X52179179Y-24909394D01*
X52310289Y-24821789D01*
X52421789Y-24710289D01*
X52509394Y-24579179D01*
X52569737Y-24433497D01*
X52600500Y-24278842D01*
X52600500Y-24121158D01*
X52600500Y-24121155D01*
X52600499Y-24121153D01*
X52592920Y-24083050D01*
X52569737Y-23966503D01*
X52557192Y-23936216D01*
X52509397Y-23820827D01*
X52509390Y-23820814D01*
X52467133Y-23757572D01*
X53492428Y-23757572D01*
X54692428Y-22557572D01*
X54692428Y-18207572D01*
X53492428Y-17007572D01*
X52492428Y-17007572D01*
X51502606Y-17997393D01*
X51502603Y-17997327D01*
X51502603Y-17997322D01*
X51502409Y-17995522D01*
X51514801Y-17926763D01*
X51538012Y-17894567D01*
X51953299Y-17479280D01*
X51974590Y-17463495D01*
X51974112Y-17462780D01*
X52022780Y-17430261D01*
X52110289Y-17371789D01*
X52221789Y-17260289D01*
X52309394Y-17129179D01*
X52312277Y-17122220D01*
X52348840Y-17033947D01*
X52369737Y-16983497D01*
X52400500Y-16828842D01*
X52400500Y-16671158D01*
X52400500Y-16671155D01*
X52400499Y-16671153D01*
X52389163Y-16614162D01*
X52369737Y-16516503D01*
X52369735Y-16516498D01*
X52309397Y-16370827D01*
X52309390Y-16370814D01*
X52221789Y-16239711D01*
X52221786Y-16239707D01*
X52110292Y-16128213D01*
X52110288Y-16128210D01*
X51979185Y-16040609D01*
X51979172Y-16040602D01*
X51833501Y-15980264D01*
X51833489Y-15980261D01*
X51678845Y-15949500D01*
X51678842Y-15949500D01*
X51521158Y-15949500D01*
X51521155Y-15949500D01*
X51366510Y-15980261D01*
X51366498Y-15980264D01*
X51220827Y-16040602D01*
X51220814Y-16040609D01*
X51089711Y-16128210D01*
X51089707Y-16128213D01*
X50978213Y-16239707D01*
X50978210Y-16239711D01*
X50887222Y-16375885D01*
X50886511Y-16375410D01*
X50870719Y-16396698D01*
X50517833Y-16749584D01*
X50456510Y-16783069D01*
X50395217Y-16780880D01*
X50341058Y-16764977D01*
X50341060Y-16764977D01*
X50341055Y-16764976D01*
X50293582Y-16758150D01*
X50198638Y-16744500D01*
X49051362Y-16744500D01*
X49051360Y-16744500D01*
X48997311Y-16747397D01*
X48997310Y-16747397D01*
X48970977Y-16750229D01*
X48970950Y-16750232D01*
X48917554Y-16758885D01*
X48917552Y-16758885D01*
X48782747Y-16809166D01*
X48721422Y-16842651D01*
X48606240Y-16928876D01*
X48606228Y-16928886D01*
X48076935Y-17458181D01*
X48015612Y-17491666D01*
X47989254Y-17494500D01*
X45801360Y-17494500D01*
X45747311Y-17497397D01*
X45747310Y-17497397D01*
X45720977Y-17500229D01*
X45720950Y-17500232D01*
X45667554Y-17508885D01*
X45667552Y-17508885D01*
X45532747Y-17559166D01*
X45471422Y-17592651D01*
X45356240Y-17678876D01*
X45356228Y-17678886D01*
X44678892Y-18356223D01*
X44678855Y-18356262D01*
X44642728Y-18396480D01*
X44642718Y-18396492D01*
X44626076Y-18417143D01*
X44594433Y-18461025D01*
X44534663Y-18591899D01*
X44514976Y-18658944D01*
X44513182Y-18671422D01*
X44495218Y-18796372D01*
X44494500Y-18801363D01*
X41166426Y-18801363D01*
X41148360Y-18752926D01*
X41140832Y-18732743D01*
X41107347Y-18671420D01*
X41021123Y-18556239D01*
X41021118Y-18556234D01*
X41021113Y-18556228D01*
X40643776Y-18178892D01*
X40643761Y-18178877D01*
X40636601Y-18172445D01*
X40603519Y-18142728D01*
X40603507Y-18142718D01*
X40582856Y-18126076D01*
X40538974Y-18094433D01*
X40408100Y-18034663D01*
X40341055Y-18014976D01*
X40290427Y-18007697D01*
X40198638Y-17994500D01*
X40198636Y-17994500D01*
X39390943Y-17994500D01*
X39323904Y-17974815D01*
X39303262Y-17958181D01*
X37399318Y-16054237D01*
X37365833Y-15992914D01*
X37362999Y-15966556D01*
X37362999Y-15775830D01*
X37362998Y-15775813D01*
X37352674Y-15674747D01*
X37341766Y-15641829D01*
X37298408Y-15510984D01*
X37207840Y-15364150D01*
X37085850Y-15242160D01*
X36939016Y-15151592D01*
X36775253Y-15097326D01*
X36775251Y-15097325D01*
X36674178Y-15087000D01*
X36100830Y-15087000D01*
X36100812Y-15087001D01*
X35999747Y-15097325D01*
X35835984Y-15151592D01*
X35835981Y-15151593D01*
X35689148Y-15242161D01*
X35567161Y-15364148D01*
X35476593Y-15510981D01*
X35476592Y-15510984D01*
X35422326Y-15674747D01*
X35422326Y-15674748D01*
X35422325Y-15674748D01*
X35412000Y-15775815D01*
X35412000Y-16474169D01*
X35412001Y-16474187D01*
X35422325Y-16575252D01*
X35476592Y-16739015D01*
X35476593Y-16739018D01*
X35481478Y-16746937D01*
X35538285Y-16839037D01*
X35567161Y-16885851D01*
X35581129Y-16899819D01*
X35582980Y-16903209D01*
X35586253Y-16905262D01*
X35599589Y-16933627D01*
X35614614Y-16961142D01*
X35614338Y-16964995D01*
X35615982Y-16968491D01*
X35611866Y-16999559D01*
X35609630Y-17030834D01*
X35607167Y-17035038D01*
X35606807Y-17037756D01*
X35598374Y-17050046D01*
X35588057Y-17067657D01*
X35584751Y-17071558D01*
X35567160Y-17089150D01*
X35559967Y-17100811D01*
X35553935Y-17107931D01*
X35532234Y-17122220D01*
X35512914Y-17139597D01*
X35503524Y-17141124D01*
X35495580Y-17146356D01*
X35469596Y-17146644D01*
X35443951Y-17150817D01*
X35435227Y-17147026D01*
X35425715Y-17147132D01*
X35403701Y-17133327D01*
X35379870Y-17122972D01*
X35371645Y-17115455D01*
X35335851Y-17079661D01*
X35335850Y-17079660D01*
X35212096Y-17003328D01*
X35189018Y-16989093D01*
X35189013Y-16989091D01*
X35184212Y-16987500D01*
X35025253Y-16934826D01*
X35025251Y-16934825D01*
X34924178Y-16924500D01*
X34350830Y-16924500D01*
X34350812Y-16924501D01*
X34249747Y-16934825D01*
X34085984Y-16989092D01*
X34085981Y-16989093D01*
X33939148Y-17079661D01*
X33850181Y-17168629D01*
X33842235Y-17172967D01*
X33836810Y-17180215D01*
X33812050Y-17189449D01*
X33788858Y-17202114D01*
X33779828Y-17201468D01*
X33771346Y-17204632D01*
X33745525Y-17199015D01*
X33719166Y-17197130D01*
X33710112Y-17191311D01*
X33703073Y-17189780D01*
X33674819Y-17168629D01*
X33593871Y-17087681D01*
X33560386Y-17026358D01*
X33565370Y-16956666D01*
X33593871Y-16912319D01*
X33620340Y-16885850D01*
X33707840Y-16798350D01*
X33798408Y-16651516D01*
X33852674Y-16487753D01*
X33863000Y-16386677D01*
X33862999Y-15788324D01*
X33852674Y-15687247D01*
X33798408Y-15523484D01*
X33707840Y-15376650D01*
X33585850Y-15254660D01*
X33580183Y-15250179D01*
X33581793Y-15248142D01*
X33543185Y-15205195D01*
X33531980Y-15136229D01*
X33540459Y-15104180D01*
X33569737Y-15033497D01*
X33574679Y-15008653D01*
X59374500Y-15008653D01*
X59374500Y-15166346D01*
X59405261Y-15320989D01*
X59405264Y-15321001D01*
X59465602Y-15466672D01*
X59465609Y-15466685D01*
X59553210Y-15597788D01*
X59553213Y-15597792D01*
X59664707Y-15709286D01*
X59664711Y-15709289D01*
X59795814Y-15796890D01*
X59795827Y-15796897D01*
X59864001Y-15825135D01*
X59941503Y-15857237D01*
X60096153Y-15887999D01*
X60096156Y-15888000D01*
X60096158Y-15888000D01*
X60253844Y-15888000D01*
X60253845Y-15887999D01*
X60299831Y-15878852D01*
X60414472Y-15856049D01*
X60414639Y-15856890D01*
X60440858Y-15853000D01*
X60955497Y-15853000D01*
X61022536Y-15872685D01*
X61054763Y-15902688D01*
X61082955Y-15940347D01*
X61198164Y-16026593D01*
X61198171Y-16026597D01*
X61235721Y-16040602D01*
X61333017Y-16076891D01*
X61380558Y-16082002D01*
X61445106Y-16108739D01*
X61484954Y-16166132D01*
X61491300Y-16205291D01*
X61491300Y-16966908D01*
X61471615Y-17033947D01*
X61418811Y-17079702D01*
X61380555Y-17090197D01*
X61333020Y-17095307D01*
X61198171Y-17145602D01*
X61198164Y-17145606D01*
X61082955Y-17231852D01*
X61082952Y-17231855D01*
X60996706Y-17347064D01*
X60996702Y-17347071D01*
X60946408Y-17481917D01*
X60943509Y-17508886D01*
X60940001Y-17541523D01*
X60940000Y-17541535D01*
X60940000Y-18627870D01*
X60940001Y-18627876D01*
X60946408Y-18687483D01*
X60996702Y-18822328D01*
X60996706Y-18822335D01*
X61082952Y-18937544D01*
X61082955Y-18937547D01*
X61198164Y-19023793D01*
X61198171Y-19023797D01*
X61333017Y-19074091D01*
X61333016Y-19074091D01*
X61339944Y-19074835D01*
X61392627Y-19080500D01*
X62699357Y-19080499D01*
X62728797Y-19089143D01*
X62758784Y-19095667D01*
X62763799Y-19099421D01*
X62766396Y-19100184D01*
X62787038Y-19116818D01*
X62799539Y-19129319D01*
X62833024Y-19190642D01*
X62828040Y-19260334D01*
X62786168Y-19316267D01*
X62720704Y-19340684D01*
X62711858Y-19341000D01*
X62342200Y-19341000D01*
X62342200Y-20128400D01*
X62748100Y-20128400D01*
X62815139Y-20148085D01*
X62860894Y-20200889D01*
X62872100Y-20252400D01*
X62872100Y-20588402D01*
X62866527Y-20607380D01*
X62865890Y-20627151D01*
X62854506Y-20648317D01*
X62852415Y-20655441D01*
X62850202Y-20658767D01*
X62846071Y-20664760D01*
X62844788Y-20666044D01*
X62841387Y-20671557D01*
X62839602Y-20674148D01*
X62814814Y-20694265D01*
X62791089Y-20715605D01*
X62787878Y-20716127D01*
X62785352Y-20718178D01*
X62753621Y-20721701D01*
X62722126Y-20726826D01*
X62719143Y-20725529D01*
X62715909Y-20725889D01*
X62687317Y-20711701D01*
X62658044Y-20698982D01*
X62655298Y-20695813D01*
X62653321Y-20694832D01*
X62650809Y-20690633D01*
X62631963Y-20668882D01*
X62630214Y-20666046D01*
X62506157Y-20541989D01*
X62506156Y-20541988D01*
X62356834Y-20449886D01*
X62190297Y-20394701D01*
X62190295Y-20394700D01*
X62087510Y-20384200D01*
X61337498Y-20384200D01*
X61337480Y-20384201D01*
X61234703Y-20394700D01*
X61234700Y-20394701D01*
X61068168Y-20449885D01*
X61068163Y-20449887D01*
X60918842Y-20541989D01*
X60794789Y-20666042D01*
X60702687Y-20815363D01*
X60702685Y-20815368D01*
X60695667Y-20836548D01*
X60647501Y-20981903D01*
X60647501Y-20981904D01*
X60647500Y-20981904D01*
X60637000Y-21084683D01*
X60637000Y-21526256D01*
X60617315Y-21593295D01*
X60600681Y-21613937D01*
X60180401Y-22034216D01*
X60180395Y-22034223D01*
X60096623Y-22159597D01*
X60038918Y-22298911D01*
X60038916Y-22298917D01*
X60009500Y-22446802D01*
X60009500Y-22567648D01*
X59989815Y-22634687D01*
X59973181Y-22655329D01*
X59942161Y-22686348D01*
X59851593Y-22833181D01*
X59851591Y-22833186D01*
X59836617Y-22878375D01*
X59797326Y-22996947D01*
X59797326Y-22996948D01*
X59797325Y-22996948D01*
X59787000Y-23098015D01*
X59787000Y-23671369D01*
X59787001Y-23671387D01*
X59797325Y-23772452D01*
X59851592Y-23936215D01*
X59851593Y-23936218D01*
X59876660Y-23976857D01*
X59942160Y-24083050D01*
X60064150Y-24205040D01*
X60210984Y-24295608D01*
X60374747Y-24349874D01*
X60475823Y-24360200D01*
X61074176Y-24360199D01*
X61074184Y-24360198D01*
X61074187Y-24360198D01*
X61129530Y-24354544D01*
X61175253Y-24349874D01*
X61339016Y-24295608D01*
X61485850Y-24205040D01*
X61607840Y-24083050D01*
X61698408Y-23936216D01*
X61752674Y-23772453D01*
X61763000Y-23671377D01*
X61762999Y-23098024D01*
X61762659Y-23094700D01*
X61752674Y-22996947D01*
X61752673Y-22996944D01*
X61736522Y-22948203D01*
X61734120Y-22878375D01*
X61769852Y-22818333D01*
X61832372Y-22787140D01*
X61854228Y-22785199D01*
X62087502Y-22785199D01*
X62087508Y-22785199D01*
X62190297Y-22774699D01*
X62356834Y-22719514D01*
X62506156Y-22627412D01*
X62630212Y-22503356D01*
X62631961Y-22500519D01*
X62633669Y-22498983D01*
X62634693Y-22497689D01*
X62634914Y-22497863D01*
X62683906Y-22453796D01*
X62752868Y-22442572D01*
X62816951Y-22470413D01*
X62843037Y-22500517D01*
X62844788Y-22503356D01*
X62968844Y-22627412D01*
X63118166Y-22719514D01*
X63284703Y-22774699D01*
X63387491Y-22785200D01*
X63829056Y-22785199D01*
X63858502Y-22793845D01*
X63888483Y-22800367D01*
X63893496Y-22804119D01*
X63896095Y-22804883D01*
X63916737Y-22821518D01*
X63967946Y-22872727D01*
X64001431Y-22934050D01*
X63996447Y-23003742D01*
X63954575Y-23059675D01*
X63890597Y-23083537D01*
X63890632Y-23083880D01*
X63889320Y-23084014D01*
X63889111Y-23084092D01*
X63887723Y-23084177D01*
X63784703Y-23094700D01*
X63784700Y-23094701D01*
X63618168Y-23149885D01*
X63618163Y-23149887D01*
X63468842Y-23241989D01*
X63344789Y-23366042D01*
X63252687Y-23515363D01*
X63252685Y-23515368D01*
X63230457Y-23582448D01*
X63197501Y-23681903D01*
X63197501Y-23681904D01*
X63197500Y-23681904D01*
X63187000Y-23784683D01*
X63187000Y-26884701D01*
X63187001Y-26884718D01*
X63197500Y-26987496D01*
X63197501Y-26987499D01*
X63248098Y-27140188D01*
X63252686Y-27154034D01*
X63344788Y-27303356D01*
X63468844Y-27427412D01*
X63618166Y-27519514D01*
X63784703Y-27574699D01*
X63887491Y-27585200D01*
X65987508Y-27585199D01*
X66090297Y-27574699D01*
X66256834Y-27519514D01*
X66406156Y-27427412D01*
X66530212Y-27303356D01*
X66622314Y-27154034D01*
X66677499Y-26987497D01*
X66688000Y-26884709D01*
X66687999Y-24484795D01*
X66707684Y-24417757D01*
X66724313Y-24397120D01*
X67633506Y-23487928D01*
X67633511Y-23487924D01*
X67643714Y-23477720D01*
X67643716Y-23477720D01*
X67755520Y-23365916D01*
X67820941Y-23252603D01*
X67834577Y-23228985D01*
X67875500Y-23076258D01*
X67875500Y-22918143D01*
X67875500Y-22813451D01*
X67895185Y-22746412D01*
X67934402Y-22707913D01*
X68035850Y-22645340D01*
X68157840Y-22523350D01*
X68248408Y-22376516D01*
X68302674Y-22212753D01*
X68313000Y-22111677D01*
X68312999Y-21538324D01*
X68311994Y-21528489D01*
X68302674Y-21437247D01*
X68295171Y-21414604D01*
X68248408Y-21273484D01*
X68157840Y-21126650D01*
X68035850Y-21004660D01*
X68035846Y-21004657D01*
X67934403Y-20942086D01*
X67887678Y-20890138D01*
X67875500Y-20836548D01*
X67875500Y-18863411D01*
X67895185Y-18796372D01*
X67943206Y-18752926D01*
X68064286Y-18691233D01*
X68064285Y-18691233D01*
X68064288Y-18691232D01*
X68204428Y-18589414D01*
X68326914Y-18466928D01*
X68428732Y-18326788D01*
X68507373Y-18172445D01*
X68560902Y-18007701D01*
X68588000Y-17836611D01*
X68588000Y-17113389D01*
X68560902Y-16942299D01*
X68507373Y-16777555D01*
X68428732Y-16623212D01*
X68326914Y-16483072D01*
X68204428Y-16360586D01*
X68064288Y-16258768D01*
X67909945Y-16180127D01*
X67745201Y-16126598D01*
X67745199Y-16126597D01*
X67745198Y-16126597D01*
X67613771Y-16105781D01*
X67574111Y-16099500D01*
X67400889Y-16099500D01*
X67361228Y-16105781D01*
X67229802Y-16126597D01*
X67065052Y-16180128D01*
X66910711Y-16258768D01*
X66837377Y-16312049D01*
X66770572Y-16360586D01*
X66770570Y-16360588D01*
X66770569Y-16360588D01*
X66648088Y-16483069D01*
X66648088Y-16483070D01*
X66648086Y-16483072D01*
X66623801Y-16516498D01*
X66546268Y-16623211D01*
X66467628Y-16777552D01*
X66414097Y-16942302D01*
X66387000Y-17113389D01*
X66387000Y-17836610D01*
X66412664Y-17998651D01*
X66414098Y-18007701D01*
X66467627Y-18172445D01*
X66546268Y-18326788D01*
X66648086Y-18466928D01*
X66648088Y-18466930D01*
X66650818Y-18470687D01*
X66674298Y-18536493D01*
X66674500Y-18543573D01*
X66674500Y-20836548D01*
X66654815Y-20903587D01*
X66615597Y-20942086D01*
X66514153Y-21004657D01*
X66514149Y-21004660D01*
X66392161Y-21126648D01*
X66301593Y-21273481D01*
X66301591Y-21273486D01*
X66292355Y-21301359D01*
X66247326Y-21437247D01*
X66247326Y-21437248D01*
X66247325Y-21437248D01*
X66237000Y-21538315D01*
X66237000Y-22111669D01*
X66237001Y-22111687D01*
X66247325Y-22212752D01*
X66301592Y-22376515D01*
X66301593Y-22376518D01*
X66335895Y-22432129D01*
X66379409Y-22502678D01*
X66392161Y-22523351D01*
X66514150Y-22645340D01*
X66543633Y-22663525D01*
X66590358Y-22715472D01*
X66601581Y-22784435D01*
X66573738Y-22848517D01*
X66566218Y-22856745D01*
X66323117Y-23099846D01*
X66261794Y-23133331D01*
X66196432Y-23129871D01*
X66090297Y-23094701D01*
X66090295Y-23094700D01*
X65987516Y-23084200D01*
X65987509Y-23084200D01*
X65827000Y-23084200D01*
X65759961Y-23064515D01*
X65714206Y-23011711D01*
X65703000Y-22960200D01*
X65703000Y-22684302D01*
X65673583Y-22536417D01*
X65673582Y-22536416D01*
X65673582Y-22536412D01*
X65618528Y-22403500D01*
X65615876Y-22397097D01*
X65532104Y-22271723D01*
X65532103Y-22271722D01*
X65488149Y-22227768D01*
X65425478Y-22165097D01*
X64874318Y-21613937D01*
X64840833Y-21552614D01*
X64837999Y-21526256D01*
X64837999Y-21084698D01*
X64837998Y-21084681D01*
X64827499Y-20981903D01*
X64827498Y-20981900D01*
X64809003Y-20926086D01*
X64772314Y-20815366D01*
X64680212Y-20666044D01*
X64556156Y-20541988D01*
X64556155Y-20541987D01*
X64462004Y-20483915D01*
X64415279Y-20431967D01*
X64403100Y-20378376D01*
X64403100Y-19137391D01*
X64422785Y-19070352D01*
X64469870Y-19029552D01*
X64469048Y-19028046D01*
X64476825Y-19023797D01*
X64476831Y-19023796D01*
X64592046Y-18937546D01*
X64678296Y-18822331D01*
X64728591Y-18687483D01*
X64735000Y-18627873D01*
X64734999Y-17541528D01*
X64728591Y-17481917D01*
X64721770Y-17463630D01*
X64678297Y-17347071D01*
X64678293Y-17347064D01*
X64592047Y-17231855D01*
X64592044Y-17231852D01*
X64476835Y-17145606D01*
X64476828Y-17145602D01*
X64341983Y-17095308D01*
X64294443Y-17090197D01*
X64229892Y-17063458D01*
X64190045Y-17006065D01*
X64183700Y-16966908D01*
X64183700Y-16205291D01*
X64203385Y-16138252D01*
X64256189Y-16092497D01*
X64294447Y-16082001D01*
X64341983Y-16076891D01*
X64341988Y-16076889D01*
X64476831Y-16026596D01*
X64592046Y-15940346D01*
X64678296Y-15825131D01*
X64728591Y-15690283D01*
X64735000Y-15630673D01*
X64734999Y-14544328D01*
X64728591Y-14484717D01*
X64721502Y-14465711D01*
X64678297Y-14349871D01*
X64678293Y-14349864D01*
X64592047Y-14234655D01*
X64592044Y-14234652D01*
X64476835Y-14148406D01*
X64476828Y-14148402D01*
X64341982Y-14098108D01*
X64341983Y-14098108D01*
X64282383Y-14091701D01*
X64282381Y-14091700D01*
X64282373Y-14091700D01*
X64282364Y-14091700D01*
X61392629Y-14091700D01*
X61392623Y-14091701D01*
X61333016Y-14098108D01*
X61198171Y-14148402D01*
X61198164Y-14148406D01*
X61082955Y-14234652D01*
X61054763Y-14272312D01*
X60998829Y-14314182D01*
X60955497Y-14322000D01*
X60440858Y-14322000D01*
X60414639Y-14318109D01*
X60414472Y-14318951D01*
X60253845Y-14287000D01*
X60253842Y-14287000D01*
X60096158Y-14287000D01*
X60096155Y-14287000D01*
X59941510Y-14317761D01*
X59941498Y-14317764D01*
X59795827Y-14378102D01*
X59795814Y-14378109D01*
X59664711Y-14465710D01*
X59664707Y-14465713D01*
X59553213Y-14577207D01*
X59553210Y-14577211D01*
X59465609Y-14708314D01*
X59465602Y-14708327D01*
X59405264Y-14853998D01*
X59405261Y-14854010D01*
X59374500Y-15008653D01*
X33574679Y-15008653D01*
X33600500Y-14878842D01*
X33600500Y-14721158D01*
X33600500Y-14721155D01*
X33600499Y-14721153D01*
X33571002Y-14572863D01*
X33569737Y-14566503D01*
X33545119Y-14507070D01*
X33509397Y-14420827D01*
X33509390Y-14420814D01*
X33421789Y-14289711D01*
X33421786Y-14289707D01*
X33310292Y-14178213D01*
X33310288Y-14178210D01*
X33179185Y-14090609D01*
X33179172Y-14090602D01*
X33033501Y-14030264D01*
X33033489Y-14030261D01*
X32878845Y-13999500D01*
X32878842Y-13999500D01*
X32721158Y-13999500D01*
X32721155Y-13999500D01*
X32566510Y-14030261D01*
X32566498Y-14030264D01*
X32420827Y-14090602D01*
X32420814Y-14090609D01*
X32289711Y-14178210D01*
X32289707Y-14178213D01*
X32178213Y-14289707D01*
X32178210Y-14289711D01*
X32090609Y-14420814D01*
X32090602Y-14420827D01*
X32030264Y-14566498D01*
X32030261Y-14566510D01*
X31999500Y-14721153D01*
X31999500Y-14878846D01*
X32030261Y-15033489D01*
X32030264Y-15033501D01*
X32090602Y-15179171D01*
X32090612Y-15179189D01*
X32103773Y-15198886D01*
X32124651Y-15265563D01*
X32106166Y-15332943D01*
X32088354Y-15355456D01*
X32067160Y-15376650D01*
X31976593Y-15523481D01*
X31976592Y-15523484D01*
X31922326Y-15687247D01*
X31922326Y-15687248D01*
X31922325Y-15687248D01*
X31912000Y-15788315D01*
X31912000Y-15788403D01*
X31911995Y-15788418D01*
X31911840Y-15791471D01*
X31911679Y-15791462D01*
X31911679Y-15791464D01*
X31911655Y-15791461D01*
X31911110Y-15791433D01*
X31892315Y-15855442D01*
X31839511Y-15901197D01*
X31770353Y-15911141D01*
X31706797Y-15882116D01*
X31700319Y-15876084D01*
X30812590Y-14988355D01*
X30812588Y-14988352D01*
X30693717Y-14869481D01*
X30693716Y-14869480D01*
X30606904Y-14819360D01*
X30606904Y-14819359D01*
X30606900Y-14819358D01*
X30556785Y-14790423D01*
X30404057Y-14749499D01*
X30245943Y-14749499D01*
X30238347Y-14749499D01*
X30238331Y-14749500D01*
X28465784Y-14749500D01*
X28398745Y-14729815D01*
X28378103Y-14713181D01*
X28237785Y-14572863D01*
X28237781Y-14572860D01*
X28073920Y-14463371D01*
X28073907Y-14463364D01*
X27891839Y-14387950D01*
X27891829Y-14387947D01*
X27698543Y-14349500D01*
X27698541Y-14349500D01*
X27501459Y-14349500D01*
X27501457Y-14349500D01*
X27308170Y-14387947D01*
X27308160Y-14387950D01*
X27126092Y-14463364D01*
X27126079Y-14463371D01*
X26962218Y-14572860D01*
X26962214Y-14572863D01*
X26822863Y-14712214D01*
X26822860Y-14712218D01*
X26713371Y-14876079D01*
X26713364Y-14876092D01*
X26637950Y-15058160D01*
X26637947Y-15058170D01*
X26599500Y-15251456D01*
X26599500Y-15251459D01*
X26599500Y-15448541D01*
X26599500Y-15448543D01*
X26599499Y-15448543D01*
X26637947Y-15641829D01*
X26637950Y-15641839D01*
X26713364Y-15823907D01*
X26713371Y-15823920D01*
X26822860Y-15987781D01*
X26822863Y-15987785D01*
X26962214Y-16127136D01*
X26962218Y-16127139D01*
X27126079Y-16236628D01*
X27126092Y-16236635D01*
X27179527Y-16258768D01*
X27308165Y-16312051D01*
X27308169Y-16312051D01*
X27308170Y-16312052D01*
X27501456Y-16350500D01*
X27501459Y-16350500D01*
X27698543Y-16350500D01*
X27828582Y-16324632D01*
X27891835Y-16312051D01*
X28073914Y-16236632D01*
X28237782Y-16127139D01*
X28288032Y-16076889D01*
X28378103Y-15986819D01*
X28439426Y-15953334D01*
X28465784Y-15950500D01*
X30024903Y-15950500D01*
X30091942Y-15970185D01*
X30112584Y-15986819D01*
X31115309Y-16989544D01*
X31148794Y-17050867D01*
X31143810Y-17120559D01*
X31101938Y-17176492D01*
X31040229Y-17200583D01*
X30949747Y-17209825D01*
X30785984Y-17264092D01*
X30785981Y-17264093D01*
X30639151Y-17354659D01*
X30525031Y-17468779D01*
X30463708Y-17502263D01*
X30394016Y-17497279D01*
X30379809Y-17490866D01*
X30233501Y-17430264D01*
X30233489Y-17430261D01*
X30078845Y-17399500D01*
X30078842Y-17399500D01*
X29921158Y-17399500D01*
X29921155Y-17399500D01*
X29766510Y-17430261D01*
X29766498Y-17430264D01*
X29620827Y-17490602D01*
X29620814Y-17490609D01*
X29489711Y-17578210D01*
X29489707Y-17578213D01*
X29378213Y-17689707D01*
X29378210Y-17689711D01*
X29290609Y-17820814D01*
X29290602Y-17820827D01*
X29230264Y-17966498D01*
X29230261Y-17966510D01*
X29199500Y-18121153D01*
X29199500Y-18278846D01*
X29230261Y-18433489D01*
X29230264Y-18433501D01*
X29290602Y-18579172D01*
X29290609Y-18579185D01*
X29378210Y-18710288D01*
X29378213Y-18710292D01*
X29489707Y-18821786D01*
X29489711Y-18821789D01*
X29620814Y-18909390D01*
X29620827Y-18909397D01*
X29766498Y-18969735D01*
X29766503Y-18969737D01*
X29909299Y-18998141D01*
X29921153Y-19000499D01*
X29921156Y-19000500D01*
X30003951Y-19000500D01*
X30070990Y-19020185D01*
X30116745Y-19072989D01*
X30126689Y-19142147D01*
X30104529Y-19197024D01*
X30100130Y-19203126D01*
X30094432Y-19211027D01*
X30034663Y-19341899D01*
X30014976Y-19408944D01*
X29994500Y-19551363D01*
X29994500Y-20120500D01*
X29974815Y-20187539D01*
X29922011Y-20233294D01*
X29870500Y-20244500D01*
X27301360Y-20244500D01*
X27247311Y-20247397D01*
X27247310Y-20247397D01*
X27220977Y-20250229D01*
X27220950Y-20250232D01*
X27167554Y-20258885D01*
X27167552Y-20258885D01*
X27032747Y-20309166D01*
X26971422Y-20342651D01*
X26856240Y-20428876D01*
X26856228Y-20428886D01*
X26428892Y-20856223D01*
X26428855Y-20856262D01*
X26392728Y-20896480D01*
X26392718Y-20896492D01*
X26376076Y-20917143D01*
X26344433Y-20961025D01*
X26284663Y-21091899D01*
X26264976Y-21158944D01*
X26263738Y-21167554D01*
X26244501Y-21301359D01*
X26244500Y-21301363D01*
X26244500Y-23448640D01*
X26247397Y-23502688D01*
X26247397Y-23502689D01*
X26250229Y-23529022D01*
X26250232Y-23529049D01*
X26258885Y-23582445D01*
X26258885Y-23582447D01*
X26308451Y-23715336D01*
X26309168Y-23717257D01*
X26342653Y-23778580D01*
X26428877Y-23893761D01*
X26428881Y-23893765D01*
X26428886Y-23893771D01*
X26642617Y-24107501D01*
X26856239Y-24321123D01*
X26856255Y-24321137D01*
X26856262Y-24321144D01*
X26896480Y-24357271D01*
X26896492Y-24357281D01*
X26896500Y-24357288D01*
X26917142Y-24373922D01*
X26961026Y-24405567D01*
X27091903Y-24465338D01*
X27158942Y-24485023D01*
X27158946Y-24485024D01*
X27301362Y-24505500D01*
X29739254Y-24505500D01*
X29768694Y-24514144D01*
X29798681Y-24520668D01*
X29803696Y-24524422D01*
X29806293Y-24525185D01*
X29826935Y-24541819D01*
X29958181Y-24673065D01*
X29991666Y-24734388D01*
X29994500Y-24760746D01*
X29994500Y-27825500D01*
X29974815Y-27892539D01*
X29922011Y-27938294D01*
X29870500Y-27949500D01*
X29771155Y-27949500D01*
X29616510Y-27980261D01*
X29616498Y-27980264D01*
X29470827Y-28040602D01*
X29470814Y-28040609D01*
X29339711Y-28128210D01*
X29339707Y-28128213D01*
X29228213Y-28239707D01*
X29228210Y-28239711D01*
X29140609Y-28370814D01*
X29140602Y-28370827D01*
X29080264Y-28516498D01*
X29080261Y-28516510D01*
X29049500Y-28671153D01*
X29049500Y-28828846D01*
X29080261Y-28983489D01*
X29080264Y-28983501D01*
X29140602Y-29129172D01*
X29140609Y-29129185D01*
X29228210Y-29260288D01*
X29228213Y-29260292D01*
X29339707Y-29371786D01*
X29339711Y-29371789D01*
X29470814Y-29459390D01*
X29470827Y-29459397D01*
X29579331Y-29504340D01*
X29616503Y-29519737D01*
X29771153Y-29550499D01*
X29771156Y-29550500D01*
X29870500Y-29550500D01*
X29937539Y-29570185D01*
X29983294Y-29622989D01*
X29994500Y-29674500D01*
X29994500Y-29948640D01*
X29997397Y-30002688D01*
X29997397Y-30002689D01*
X30000229Y-30029022D01*
X30000232Y-30029049D01*
X30008885Y-30082445D01*
X30008885Y-30082447D01*
X30048817Y-30189505D01*
X30059168Y-30217257D01*
X30075381Y-30246949D01*
X30090425Y-30274501D01*
X30092653Y-30278580D01*
X30178877Y-30393761D01*
X30178881Y-30393765D01*
X30178886Y-30393771D01*
X30411192Y-30626076D01*
X30606239Y-30821123D01*
X30606255Y-30821137D01*
X30606262Y-30821144D01*
X30646480Y-30857271D01*
X30646492Y-30857281D01*
X30646500Y-30857288D01*
X30667142Y-30873922D01*
X30711026Y-30905567D01*
X30718782Y-30909109D01*
X30771584Y-30954862D01*
X30791269Y-31021901D01*
X30784975Y-31060905D01*
X30734826Y-31212244D01*
X30734825Y-31212248D01*
X30724500Y-31313315D01*
X30724500Y-31886669D01*
X30724501Y-31886687D01*
X30734825Y-31987752D01*
X30760423Y-32064999D01*
X30784906Y-32138885D01*
X30789092Y-32151515D01*
X30789093Y-32151518D01*
X30830440Y-32218551D01*
X30848880Y-32285944D01*
X30827957Y-32352607D01*
X30774315Y-32397377D01*
X30704985Y-32406038D01*
X30669447Y-32394557D01*
X30502258Y-32310963D01*
X30502248Y-32310958D01*
X30435466Y-32286752D01*
X30392323Y-32271114D01*
X30336872Y-32258023D01*
X30220730Y-32244500D01*
X30220728Y-32244500D01*
X29279272Y-32244500D01*
X29279270Y-32244500D01*
X29163127Y-32258023D01*
X29107676Y-32271114D01*
X28997759Y-32310955D01*
X28997741Y-32310963D01*
X28744954Y-32437356D01*
X28676189Y-32449730D01*
X28611650Y-32422963D01*
X28571828Y-32365553D01*
X28565500Y-32326447D01*
X28565500Y-31774148D01*
X28565501Y-31774127D01*
X28565501Y-31617220D01*
X28536083Y-31469335D01*
X28536082Y-31469331D01*
X28527242Y-31447990D01*
X28480266Y-31334578D01*
X28478376Y-31330015D01*
X28394604Y-31204641D01*
X28394598Y-31204634D01*
X27827018Y-30637054D01*
X27793533Y-30575731D01*
X27790699Y-30549373D01*
X27790699Y-29047129D01*
X27790698Y-29047123D01*
X27787831Y-29020453D01*
X27784291Y-28987517D01*
X27780420Y-28977139D01*
X27733997Y-28852671D01*
X27733993Y-28852664D01*
X27647747Y-28737455D01*
X27647744Y-28737452D01*
X27532535Y-28651206D01*
X27532528Y-28651202D01*
X27397682Y-28600908D01*
X27397683Y-28600908D01*
X27338083Y-28594501D01*
X27338081Y-28594500D01*
X27338073Y-28594500D01*
X27338065Y-28594500D01*
X27211000Y-28594500D01*
X27143961Y-28574815D01*
X27098206Y-28522011D01*
X27087000Y-28470500D01*
X27087000Y-28280800D01*
X21598600Y-28280800D01*
X21598600Y-29044200D01*
X23502600Y-29044200D01*
X23569639Y-29063885D01*
X23615394Y-29116689D01*
X23626600Y-29168200D01*
X23626600Y-31231800D01*
X23606915Y-31298839D01*
X23554111Y-31344594D01*
X23502600Y-31355800D01*
X21598600Y-31355800D01*
X21598600Y-32119200D01*
X26910500Y-32119200D01*
X26977539Y-32138885D01*
X27023294Y-32191689D01*
X27034500Y-32243200D01*
X27034500Y-39029606D01*
X27034500Y-39180396D01*
X27034500Y-39180398D01*
X27034499Y-39180398D01*
X27063916Y-39328283D01*
X27063918Y-39328289D01*
X27121623Y-39467603D01*
X27205395Y-39592977D01*
X27205401Y-39592984D01*
X28514380Y-40901962D01*
X28547865Y-40963285D01*
X28550699Y-40989643D01*
X28550699Y-42765235D01*
X28550700Y-44510500D01*
X28531015Y-44577539D01*
X28478211Y-44623294D01*
X28426700Y-44634500D01*
X28059499Y-44634500D01*
X27992460Y-44614815D01*
X27946705Y-44562011D01*
X27935499Y-44510500D01*
X27935499Y-44463129D01*
X27935498Y-44463123D01*
X27929091Y-44403516D01*
X27878797Y-44268671D01*
X27878793Y-44268664D01*
X27792547Y-44153455D01*
X27792544Y-44153452D01*
X27677335Y-44067206D01*
X27677328Y-44067202D01*
X27542482Y-44016908D01*
X27542483Y-44016908D01*
X27482883Y-44010501D01*
X27482881Y-44010500D01*
X27482873Y-44010500D01*
X27482864Y-44010500D01*
X26117129Y-44010500D01*
X26117123Y-44010501D01*
X26057516Y-44016908D01*
X25922671Y-44067202D01*
X25922664Y-44067206D01*
X25807455Y-44153452D01*
X25807452Y-44153455D01*
X25721206Y-44268664D01*
X25721202Y-44268671D01*
X25670910Y-44403513D01*
X25670909Y-44403517D01*
X25665797Y-44451058D01*
X25639061Y-44515606D01*
X25581668Y-44555454D01*
X25542509Y-44561800D01*
X25212691Y-44561800D01*
X25145652Y-44542115D01*
X25099897Y-44489311D01*
X25089401Y-44451053D01*
X25084291Y-44403516D01*
X25033997Y-44268671D01*
X25033993Y-44268664D01*
X24947747Y-44153455D01*
X24947744Y-44153452D01*
X24832535Y-44067206D01*
X24832528Y-44067202D01*
X24697682Y-44016908D01*
X24697683Y-44016908D01*
X24638083Y-44010501D01*
X24638081Y-44010500D01*
X24638073Y-44010500D01*
X24638065Y-44010500D01*
X24289500Y-44010500D01*
X24222461Y-43990815D01*
X24176706Y-43938011D01*
X24165500Y-43886500D01*
X24165500Y-43263339D01*
X24185185Y-43196300D01*
X24237989Y-43150545D01*
X24248541Y-43146298D01*
X24320079Y-43121267D01*
X24562997Y-43004284D01*
X24791289Y-42860838D01*
X25002085Y-42692734D01*
X25192734Y-42502085D01*
X25360838Y-42291289D01*
X25504284Y-42062997D01*
X25621267Y-41820079D01*
X25710316Y-41565591D01*
X25770312Y-41302732D01*
X25800500Y-41034809D01*
X25800500Y-40765191D01*
X25770312Y-40497268D01*
X25710316Y-40234409D01*
X25696186Y-40194029D01*
X25671655Y-40123922D01*
X25621267Y-39979921D01*
X25504284Y-39737003D01*
X25360838Y-39508711D01*
X25192734Y-39297915D01*
X25002085Y-39107266D01*
X24791289Y-38939162D01*
X24562997Y-38795716D01*
X24562994Y-38795714D01*
X24320082Y-38678734D01*
X24065602Y-38589687D01*
X24065594Y-38589684D01*
X23868446Y-38544687D01*
X23802732Y-38529688D01*
X23802728Y-38529687D01*
X23802719Y-38529686D01*
X23534813Y-38499500D01*
X23534809Y-38499500D01*
X23265191Y-38499500D01*
X23265186Y-38499500D01*
X22997280Y-38529686D01*
X22997268Y-38529688D01*
X22734405Y-38589684D01*
X22734397Y-38589687D01*
X22479917Y-38678734D01*
X22237005Y-38795714D01*
X22008712Y-38939161D01*
X21797915Y-39107265D01*
X21607265Y-39297915D01*
X21439161Y-39508712D01*
X21295714Y-39737005D01*
X21178734Y-39979917D01*
X21089687Y-40234397D01*
X21089684Y-40234405D01*
X21029688Y-40497268D01*
X21029686Y-40497280D01*
X20999500Y-40765186D01*
X12508863Y-40765186D01*
X12515773Y-27098543D01*
X14576825Y-27098543D01*
X14615273Y-27291829D01*
X14615276Y-27291839D01*
X14690690Y-27473907D01*
X14690697Y-27473920D01*
X14800186Y-27637781D01*
X14800189Y-27637785D01*
X14939540Y-27777136D01*
X14939544Y-27777139D01*
X15103405Y-27886628D01*
X15103418Y-27886635D01*
X15228136Y-27938294D01*
X15285491Y-27962051D01*
X15285495Y-27962051D01*
X15285496Y-27962052D01*
X15478782Y-28000500D01*
X15478785Y-28000500D01*
X15675869Y-28000500D01*
X15805908Y-27974632D01*
X15869161Y-27962051D01*
X16051240Y-27886632D01*
X16201251Y-27786398D01*
X16267928Y-27765520D01*
X16270142Y-27765500D01*
X16756815Y-27765500D01*
X16783033Y-27769390D01*
X16783201Y-27768549D01*
X16943826Y-27800499D01*
X16943829Y-27800500D01*
X16943831Y-27800500D01*
X17101517Y-27800500D01*
X17101518Y-27800499D01*
X17256170Y-27769737D01*
X17401852Y-27709394D01*
X17532962Y-27621789D01*
X17644462Y-27510289D01*
X17732067Y-27379179D01*
X17792410Y-27233497D01*
X17823173Y-27078842D01*
X17823173Y-26921158D01*
X17823173Y-26921155D01*
X17823172Y-26921153D01*
X17818030Y-26895304D01*
X17792410Y-26766503D01*
X17768244Y-26708160D01*
X17732070Y-26620827D01*
X17732063Y-26620814D01*
X17644462Y-26489711D01*
X17644459Y-26489707D01*
X17532965Y-26378213D01*
X17532961Y-26378210D01*
X17401858Y-26290609D01*
X17401845Y-26290602D01*
X17256174Y-26230264D01*
X17256162Y-26230261D01*
X17101518Y-26199500D01*
X17101515Y-26199500D01*
X16943831Y-26199500D01*
X16943828Y-26199500D01*
X16783201Y-26231451D01*
X16783033Y-26230609D01*
X16756815Y-26234500D01*
X16270142Y-26234500D01*
X16203103Y-26214815D01*
X16201251Y-26213602D01*
X16051246Y-26113371D01*
X16051233Y-26113364D01*
X15869165Y-26037950D01*
X15869155Y-26037947D01*
X15675869Y-25999500D01*
X15675867Y-25999500D01*
X15478785Y-25999500D01*
X15478783Y-25999500D01*
X15285496Y-26037947D01*
X15285486Y-26037950D01*
X15103418Y-26113364D01*
X15103405Y-26113371D01*
X14939544Y-26222860D01*
X14939540Y-26222863D01*
X14800189Y-26362214D01*
X14800186Y-26362218D01*
X14690697Y-26526079D01*
X14690690Y-26526092D01*
X14615276Y-26708160D01*
X14615273Y-26708170D01*
X14576826Y-26901456D01*
X14576826Y-26901457D01*
X14576826Y-26901459D01*
X14576826Y-27098541D01*
X14576826Y-27098543D01*
X14576825Y-27098543D01*
X12515773Y-27098543D01*
X12518605Y-21498543D01*
X14576825Y-21498543D01*
X14615273Y-21691829D01*
X14615276Y-21691839D01*
X14690690Y-21873907D01*
X14690697Y-21873920D01*
X14800186Y-22037781D01*
X14800189Y-22037785D01*
X14939540Y-22177136D01*
X14939544Y-22177139D01*
X15103405Y-22286628D01*
X15103418Y-22286635D01*
X15266136Y-22354034D01*
X15285491Y-22362051D01*
X15285495Y-22362051D01*
X15285496Y-22362052D01*
X15478782Y-22400500D01*
X15478785Y-22400500D01*
X15675869Y-22400500D01*
X15805908Y-22374632D01*
X15869161Y-22362051D01*
X16051240Y-22286632D01*
X16215108Y-22177139D01*
X16354465Y-22037782D01*
X16354467Y-22037778D01*
X16355346Y-22036900D01*
X16416669Y-22003415D01*
X16486361Y-22008399D01*
X16511919Y-22021479D01*
X16643487Y-22109390D01*
X16643500Y-22109397D01*
X16764703Y-22159600D01*
X16789176Y-22169737D01*
X16898329Y-22191449D01*
X16943826Y-22200499D01*
X16943829Y-22200500D01*
X16943831Y-22200500D01*
X17101517Y-22200500D01*
X17101518Y-22200499D01*
X17256170Y-22169737D01*
X17396316Y-22111687D01*
X17401845Y-22109397D01*
X17401845Y-22109396D01*
X17401852Y-22109394D01*
X17532962Y-22021789D01*
X17644462Y-21910289D01*
X17732067Y-21779179D01*
X17792410Y-21633497D01*
X17823173Y-21478842D01*
X17823173Y-21321158D01*
X17823173Y-21321155D01*
X17823172Y-21321153D01*
X17792410Y-21166503D01*
X17782989Y-21143759D01*
X17732070Y-21020827D01*
X17732063Y-21020814D01*
X17644462Y-20889711D01*
X17644459Y-20889707D01*
X17532965Y-20778213D01*
X17532961Y-20778210D01*
X17401858Y-20690609D01*
X17401845Y-20690602D01*
X17256174Y-20630264D01*
X17256162Y-20630261D01*
X17101518Y-20599500D01*
X17101515Y-20599500D01*
X16943831Y-20599500D01*
X16943828Y-20599500D01*
X16789183Y-20630261D01*
X16789171Y-20630264D01*
X16643500Y-20690602D01*
X16643489Y-20690608D01*
X16511918Y-20778521D01*
X16445241Y-20799398D01*
X16377861Y-20780913D01*
X16355347Y-20763099D01*
X16215111Y-20622863D01*
X16215107Y-20622860D01*
X16051246Y-20513371D01*
X16051233Y-20513364D01*
X15869165Y-20437950D01*
X15869155Y-20437947D01*
X15675869Y-20399500D01*
X15675867Y-20399500D01*
X15478785Y-20399500D01*
X15478783Y-20399500D01*
X15285496Y-20437947D01*
X15285486Y-20437950D01*
X15103418Y-20513364D01*
X15103405Y-20513371D01*
X14939544Y-20622860D01*
X14939540Y-20622863D01*
X14800189Y-20762214D01*
X14800186Y-20762218D01*
X14690697Y-20926079D01*
X14690690Y-20926092D01*
X14615276Y-21108160D01*
X14615273Y-21108170D01*
X14576826Y-21301456D01*
X14576826Y-21301459D01*
X14576826Y-21498541D01*
X14576826Y-21498543D01*
X14576825Y-21498543D01*
X12518605Y-21498543D01*
X12521879Y-15024019D01*
X12522105Y-15016600D01*
X12539591Y-14727522D01*
X12541396Y-14712660D01*
X12542193Y-14708314D01*
X12593100Y-14430517D01*
X12596684Y-14415983D01*
X12682016Y-14142142D01*
X12687318Y-14128161D01*
X12805051Y-13866569D01*
X12811996Y-13853336D01*
X12960400Y-13607846D01*
X12968887Y-13595550D01*
X13145800Y-13369737D01*
X13155715Y-13358546D01*
X13358546Y-13155715D01*
X13369737Y-13145800D01*
X13595550Y-12968887D01*
X13607846Y-12960400D01*
X13853336Y-12811996D01*
X13866569Y-12805051D01*
X14128161Y-12687318D01*
X14142142Y-12682016D01*
X14415988Y-12596682D01*
X14430517Y-12593100D01*
X14712664Y-12541395D01*
X14727522Y-12539591D01*
X15017533Y-12522048D01*
X15025099Y-12521823D01*
X87026981Y-12588622D01*
G37*
%TD.AperFunction*%
%TA.AperFunction,Conductor*%
G36*
X80996752Y-54028497D02*
G01*
X81030622Y-54030920D01*
X81031461Y-54031548D01*
X81032505Y-54031640D01*
X81059353Y-54052428D01*
X81086555Y-54072792D01*
X81087067Y-54073887D01*
X81087750Y-54074416D01*
X81104159Y-54105663D01*
X81107422Y-54114868D01*
X81107704Y-54117483D01*
X81120799Y-54152595D01*
X81121142Y-54153561D01*
X81123013Y-54187470D01*
X81125437Y-54221361D01*
X81124935Y-54222279D01*
X81124993Y-54223325D01*
X81120454Y-54238331D01*
X81107703Y-54272518D01*
X81101296Y-54332116D01*
X81101296Y-54332123D01*
X81101295Y-54332135D01*
X81101295Y-55327870D01*
X81101296Y-55327876D01*
X81107703Y-55387481D01*
X81120454Y-55421669D01*
X81125437Y-55491361D01*
X81120454Y-55508331D01*
X81107703Y-55542518D01*
X81101296Y-55602116D01*
X81101296Y-55602123D01*
X81101295Y-55602135D01*
X81101295Y-56597870D01*
X81101296Y-56597876D01*
X81107703Y-56657481D01*
X81120454Y-56691669D01*
X81125437Y-56761361D01*
X81120454Y-56778331D01*
X81107703Y-56812518D01*
X81101296Y-56872116D01*
X81101295Y-56872135D01*
X81101295Y-57867870D01*
X81101296Y-57867876D01*
X81107703Y-57927481D01*
X81120454Y-57961669D01*
X81125437Y-58031361D01*
X81120454Y-58048331D01*
X81107703Y-58082518D01*
X81101296Y-58142116D01*
X81101296Y-58142123D01*
X81101295Y-58142135D01*
X81101295Y-59137870D01*
X81101296Y-59137876D01*
X81107703Y-59197481D01*
X81120454Y-59231669D01*
X81125437Y-59301361D01*
X81120454Y-59318331D01*
X81107703Y-59352518D01*
X81101296Y-59412116D01*
X81101296Y-59412123D01*
X81101295Y-59412135D01*
X81101295Y-60407870D01*
X81101296Y-60407876D01*
X81107703Y-60467481D01*
X81120454Y-60501669D01*
X81125437Y-60571361D01*
X81120454Y-60588331D01*
X81107703Y-60622518D01*
X81101296Y-60682116D01*
X81101296Y-60682123D01*
X81101295Y-60682135D01*
X81101295Y-61677870D01*
X81101296Y-61677876D01*
X81107703Y-61737481D01*
X81120454Y-61771669D01*
X81125437Y-61841361D01*
X81120454Y-61858331D01*
X81107703Y-61892518D01*
X81101361Y-61951515D01*
X81101296Y-61952123D01*
X81101295Y-61952135D01*
X81101295Y-62947870D01*
X81101296Y-62947874D01*
X81107703Y-63007481D01*
X81120454Y-63041669D01*
X81125437Y-63111361D01*
X81120454Y-63128331D01*
X81107703Y-63162518D01*
X81101296Y-63222116D01*
X81101296Y-63222123D01*
X81101295Y-63222135D01*
X81101295Y-64217870D01*
X81101296Y-64217876D01*
X81107703Y-64277481D01*
X81120454Y-64311669D01*
X81125437Y-64381361D01*
X81120454Y-64398331D01*
X81107703Y-64432518D01*
X81102723Y-64478842D01*
X81101296Y-64492123D01*
X81101295Y-64492135D01*
X81101295Y-65487870D01*
X81101296Y-65487876D01*
X81107703Y-65547481D01*
X81120454Y-65581669D01*
X81125437Y-65651361D01*
X81120454Y-65668331D01*
X81107703Y-65702518D01*
X81103953Y-65737401D01*
X81101296Y-65762123D01*
X81101295Y-65762135D01*
X81101295Y-66757870D01*
X81101296Y-66757876D01*
X81104991Y-66792247D01*
X81102211Y-66807652D01*
X81104439Y-66823147D01*
X81096133Y-66841332D01*
X81092584Y-66861006D01*
X81081917Y-66872462D01*
X81075414Y-66886703D01*
X81058595Y-66897511D01*
X81044973Y-66912143D01*
X81029017Y-66916519D01*
X81016636Y-66924477D01*
X80981701Y-66929500D01*
X80756670Y-66929500D01*
X80756654Y-66929499D01*
X80749058Y-66929499D01*
X80590943Y-66929499D01*
X80514579Y-66949961D01*
X80438214Y-66970423D01*
X80438209Y-66970426D01*
X80301290Y-67049475D01*
X80301282Y-67049481D01*
X77087584Y-70263181D01*
X77026261Y-70296666D01*
X76999903Y-70299500D01*
X57653602Y-70299500D01*
X57586563Y-70279815D01*
X57540808Y-70227011D01*
X57530864Y-70157853D01*
X57535671Y-70137182D01*
X57563552Y-70051372D01*
X57563552Y-70051371D01*
X57563553Y-70051368D01*
X57591131Y-69877246D01*
X57600500Y-69818097D01*
X57600500Y-69581902D01*
X57563553Y-69348631D01*
X57490566Y-69124003D01*
X57383343Y-68913567D01*
X57371586Y-68897385D01*
X57348107Y-68831578D01*
X57363933Y-68763524D01*
X57414039Y-68714830D01*
X57471905Y-68700500D01*
X58213331Y-68700500D01*
X58213347Y-68700501D01*
X58220943Y-68700501D01*
X58379054Y-68700501D01*
X58379057Y-68700501D01*
X58531785Y-68659577D01*
X58600952Y-68619643D01*
X58668716Y-68580520D01*
X58780520Y-68468716D01*
X58780520Y-68468714D01*
X58790724Y-68458511D01*
X58790727Y-68458506D01*
X60352416Y-66896819D01*
X60413739Y-66863334D01*
X60440097Y-66860500D01*
X63481701Y-66860500D01*
X63548740Y-66880185D01*
X63594495Y-66932989D01*
X63604990Y-66997752D01*
X63601295Y-67032127D01*
X63601295Y-67032128D01*
X63601295Y-67032132D01*
X63601295Y-68027870D01*
X63601296Y-68027876D01*
X63607703Y-68087481D01*
X63620454Y-68121669D01*
X63625437Y-68191361D01*
X63620454Y-68208331D01*
X63607703Y-68242518D01*
X63601296Y-68302116D01*
X63601296Y-68302123D01*
X63601295Y-68302135D01*
X63601295Y-69297870D01*
X63601296Y-69297876D01*
X63607703Y-69357483D01*
X63657997Y-69492328D01*
X63658001Y-69492335D01*
X63744247Y-69607544D01*
X63744250Y-69607547D01*
X63859459Y-69693793D01*
X63859466Y-69693797D01*
X63994312Y-69744091D01*
X63994311Y-69744091D01*
X64001239Y-69744835D01*
X64053922Y-69750500D01*
X65649667Y-69750499D01*
X65709278Y-69744091D01*
X65844126Y-69693796D01*
X65959341Y-69607546D01*
X66045591Y-69492331D01*
X66095886Y-69357483D01*
X66102295Y-69297873D01*
X66102294Y-68302128D01*
X66095886Y-68242517D01*
X66083135Y-68208332D01*
X66078152Y-68138642D01*
X66083135Y-68121669D01*
X66095886Y-68087483D01*
X66102295Y-68027873D01*
X66102294Y-67032128D01*
X66095886Y-66972517D01*
X66083135Y-66938332D01*
X66078152Y-66868642D01*
X66083133Y-66851672D01*
X66095886Y-66817483D01*
X66102295Y-66757873D01*
X66102294Y-65762128D01*
X66095886Y-65702517D01*
X66083135Y-65668332D01*
X66078152Y-65598642D01*
X66083135Y-65581669D01*
X66095886Y-65547483D01*
X66102295Y-65487873D01*
X66102294Y-64492128D01*
X66095886Y-64432517D01*
X66083135Y-64398332D01*
X66078152Y-64328642D01*
X66083135Y-64311669D01*
X66095886Y-64277483D01*
X66102295Y-64217873D01*
X66102294Y-63222128D01*
X66095886Y-63162517D01*
X66083135Y-63128332D01*
X66078152Y-63058642D01*
X66083135Y-63041669D01*
X66095886Y-63007483D01*
X66102295Y-62947873D01*
X66102294Y-61952128D01*
X66095886Y-61892517D01*
X66083135Y-61858332D01*
X66078152Y-61788642D01*
X66083135Y-61771669D01*
X66095886Y-61737483D01*
X66102295Y-61677873D01*
X66102294Y-60682128D01*
X66095886Y-60622517D01*
X66083135Y-60588332D01*
X66078152Y-60518642D01*
X66083135Y-60501669D01*
X66095886Y-60467483D01*
X66102295Y-60407873D01*
X66102294Y-59412128D01*
X66095886Y-59352517D01*
X66083135Y-59318332D01*
X66078152Y-59248642D01*
X66083135Y-59231669D01*
X66095886Y-59197483D01*
X66102295Y-59137873D01*
X66102294Y-58142128D01*
X66098599Y-58107753D01*
X66111006Y-58038994D01*
X66158617Y-57987857D01*
X66221889Y-57970500D01*
X76653126Y-57970500D01*
X76653142Y-57970501D01*
X76660738Y-57970501D01*
X76818849Y-57970501D01*
X76818852Y-57970501D01*
X76971580Y-57929577D01*
X77023676Y-57899499D01*
X77108511Y-57850520D01*
X77220315Y-57738716D01*
X77220315Y-57738714D01*
X77230519Y-57728511D01*
X77230523Y-57728506D01*
X80899609Y-54059419D01*
X80900526Y-54058918D01*
X80901044Y-54058007D01*
X80931124Y-54042211D01*
X80960930Y-54025936D01*
X80961975Y-54026010D01*
X80962904Y-54025523D01*
X80996752Y-54028497D01*
G37*
%TD.AperFunction*%
%TA.AperFunction,Conductor*%
G36*
X42230189Y-64100185D02*
G01*
X42275944Y-64152989D01*
X42285888Y-64222147D01*
X42277711Y-64251952D01*
X42230264Y-64366498D01*
X42230261Y-64366510D01*
X42199500Y-64521153D01*
X42199500Y-64678846D01*
X42230261Y-64833489D01*
X42230264Y-64833501D01*
X42290602Y-64979172D01*
X42290609Y-64979185D01*
X42378210Y-65110288D01*
X42378213Y-65110292D01*
X42489707Y-65221786D01*
X42489711Y-65221789D01*
X42620814Y-65309390D01*
X42620827Y-65309397D01*
X42705063Y-65344288D01*
X42766503Y-65369737D01*
X42831147Y-65382595D01*
X42921849Y-65400638D01*
X42983760Y-65433023D01*
X42985339Y-65434574D01*
X46015139Y-68464374D01*
X46015149Y-68464385D01*
X46019479Y-68468715D01*
X46019480Y-68468716D01*
X46131284Y-68580520D01*
X46131286Y-68580521D01*
X46131290Y-68580524D01*
X46252492Y-68650499D01*
X46268216Y-68659577D01*
X46380019Y-68689534D01*
X46420942Y-68700500D01*
X46420943Y-68700500D01*
X48228095Y-68700500D01*
X48295134Y-68720185D01*
X48340889Y-68772989D01*
X48350833Y-68842147D01*
X48328414Y-68897385D01*
X48316656Y-68913567D01*
X48209433Y-69124003D01*
X48196497Y-69163819D01*
X48157059Y-69221494D01*
X48092700Y-69248692D01*
X48078566Y-69249500D01*
X19675097Y-69249500D01*
X19645656Y-69240855D01*
X19615670Y-69234332D01*
X19610654Y-69230577D01*
X19608058Y-69229815D01*
X19587416Y-69213181D01*
X19418757Y-69044522D01*
X19385272Y-68983199D01*
X19388507Y-68918523D01*
X19402246Y-68876243D01*
X19435500Y-68666287D01*
X19435500Y-68453713D01*
X19402246Y-68243757D01*
X19375946Y-68162817D01*
X19375143Y-68134698D01*
X19371140Y-68106856D01*
X19374159Y-68100243D01*
X19373952Y-68092978D01*
X19388479Y-68068886D01*
X19400164Y-68043300D01*
X19406277Y-68039370D01*
X19410032Y-68033145D01*
X19435276Y-68020732D01*
X19458941Y-68005524D01*
X19469214Y-68004046D01*
X19472733Y-68002317D01*
X19493876Y-68000501D01*
X19544058Y-68000501D01*
X19544061Y-68000500D01*
X19551668Y-68000500D01*
X34413331Y-68000500D01*
X34413347Y-68000501D01*
X34420943Y-68000501D01*
X34579054Y-68000501D01*
X34579057Y-68000501D01*
X34731785Y-67959577D01*
X34796492Y-67922218D01*
X34868716Y-67880520D01*
X34980520Y-67768716D01*
X34980520Y-67768714D01*
X34990724Y-67758511D01*
X34990728Y-67758506D01*
X37639493Y-65109740D01*
X37700814Y-65076257D01*
X37702885Y-65075825D01*
X37733497Y-65069737D01*
X37879179Y-65009394D01*
X38010289Y-64921789D01*
X38121789Y-64810289D01*
X38209394Y-64679179D01*
X38269737Y-64533497D01*
X38300500Y-64378842D01*
X38300500Y-64221158D01*
X38300500Y-64221156D01*
X38300056Y-64216646D01*
X38313079Y-64148001D01*
X38361147Y-64097294D01*
X38423460Y-64080500D01*
X42163150Y-64080500D01*
X42230189Y-64100185D01*
G37*
%TD.AperFunction*%
%TA.AperFunction,Conductor*%
G36*
X36643579Y-64100185D02*
G01*
X36689334Y-64152989D01*
X36699944Y-64216646D01*
X36699500Y-64221156D01*
X36699500Y-64299902D01*
X36679815Y-64366941D01*
X36663181Y-64387583D01*
X34287584Y-66763181D01*
X34226261Y-66796666D01*
X34199903Y-66799500D01*
X19765098Y-66799500D01*
X19698059Y-66779815D01*
X19677417Y-66763181D01*
X19418757Y-66504522D01*
X19385272Y-66443199D01*
X19388507Y-66378523D01*
X19402246Y-66336243D01*
X19435500Y-66126287D01*
X19435500Y-65913713D01*
X19402246Y-65703757D01*
X19336557Y-65501588D01*
X19240051Y-65312184D01*
X19240049Y-65312181D01*
X19240048Y-65312179D01*
X19115109Y-65140213D01*
X18964786Y-64989890D01*
X18792820Y-64864951D01*
X18792115Y-64864591D01*
X18784054Y-64860485D01*
X18733259Y-64812512D01*
X18716463Y-64744692D01*
X18738999Y-64678556D01*
X18784054Y-64639515D01*
X18792816Y-64635051D01*
X18932589Y-64533501D01*
X18964786Y-64510109D01*
X18964788Y-64510106D01*
X18964792Y-64510104D01*
X19115104Y-64359792D01*
X19115106Y-64359788D01*
X19115109Y-64359786D01*
X19215108Y-64222147D01*
X19240051Y-64187816D01*
X19240349Y-64187230D01*
X19260235Y-64148205D01*
X19308209Y-64097409D01*
X19370719Y-64080500D01*
X36576540Y-64080500D01*
X36643579Y-64100185D01*
G37*
%TD.AperFunction*%
%TA.AperFunction,Conductor*%
G36*
X48160534Y-55854787D02*
G01*
X48175739Y-55854136D01*
X48193377Y-55864431D01*
X48212971Y-55870185D01*
X48223867Y-55882229D01*
X48236081Y-55889358D01*
X48256415Y-55918202D01*
X48316657Y-56036433D01*
X48455483Y-56227510D01*
X48622490Y-56394517D01*
X48813567Y-56533343D01*
X48912991Y-56584002D01*
X49024003Y-56640566D01*
X49024005Y-56640566D01*
X49024008Y-56640568D01*
X49116292Y-56670553D01*
X49248631Y-56713553D01*
X49481903Y-56750500D01*
X49481908Y-56750500D01*
X49718097Y-56750500D01*
X49951368Y-56713553D01*
X49984468Y-56702798D01*
X50175992Y-56640568D01*
X50386433Y-56533343D01*
X50577510Y-56394517D01*
X50744517Y-56227510D01*
X50883343Y-56036433D01*
X50943583Y-55918204D01*
X50991558Y-55867409D01*
X51054068Y-55850500D01*
X54645932Y-55850500D01*
X54712971Y-55870185D01*
X54756416Y-55918203D01*
X54816657Y-56036433D01*
X54955483Y-56227510D01*
X55122490Y-56394517D01*
X55313567Y-56533343D01*
X55412991Y-56584002D01*
X55524003Y-56640566D01*
X55524005Y-56640566D01*
X55524008Y-56640568D01*
X55616292Y-56670553D01*
X55748631Y-56713553D01*
X55981903Y-56750500D01*
X55981908Y-56750500D01*
X56218097Y-56750500D01*
X56324126Y-56733705D01*
X56451368Y-56713553D01*
X56577566Y-56672547D01*
X56647404Y-56670553D01*
X56703563Y-56702798D01*
X57015139Y-57014374D01*
X57015149Y-57014385D01*
X57019479Y-57018715D01*
X57019480Y-57018716D01*
X57131284Y-57130520D01*
X57207462Y-57174501D01*
X57268215Y-57209577D01*
X57420943Y-57250501D01*
X57420946Y-57250501D01*
X57586653Y-57250501D01*
X57586669Y-57250500D01*
X60145083Y-57250500D01*
X60212122Y-57270185D01*
X60257877Y-57322989D01*
X60267821Y-57392147D01*
X60245111Y-57444984D01*
X60245952Y-57445503D01*
X60242443Y-57451191D01*
X60242349Y-57451411D01*
X60242162Y-57451647D01*
X60151593Y-57598481D01*
X60151592Y-57598484D01*
X60097326Y-57762247D01*
X60097326Y-57762248D01*
X60097325Y-57762248D01*
X60087000Y-57863315D01*
X60087000Y-58436669D01*
X60087001Y-58436687D01*
X60097325Y-58537752D01*
X60113516Y-58586611D01*
X60151592Y-58701516D01*
X60233818Y-58834826D01*
X60242161Y-58848351D01*
X60281129Y-58887319D01*
X60314614Y-58948642D01*
X60309630Y-59018334D01*
X60281129Y-59062681D01*
X60242161Y-59101648D01*
X60151593Y-59248481D01*
X60151591Y-59248486D01*
X60141219Y-59279786D01*
X60097326Y-59412247D01*
X60097326Y-59412248D01*
X60097325Y-59412248D01*
X60087000Y-59513315D01*
X60087000Y-60086669D01*
X60087001Y-60086687D01*
X60097325Y-60187752D01*
X60151592Y-60351515D01*
X60151593Y-60351518D01*
X60175148Y-60389707D01*
X60215714Y-60455475D01*
X60242161Y-60498351D01*
X60256129Y-60512319D01*
X60289614Y-60573642D01*
X60284630Y-60643334D01*
X60256129Y-60687681D01*
X60242161Y-60701648D01*
X60151593Y-60848481D01*
X60151592Y-60848484D01*
X60097326Y-61012247D01*
X60097326Y-61012248D01*
X60097325Y-61012248D01*
X60087000Y-61113315D01*
X60087000Y-61686669D01*
X60087001Y-61686687D01*
X60097325Y-61787752D01*
X60151592Y-61951515D01*
X60151593Y-61951518D01*
X60163057Y-61970104D01*
X60240125Y-62095051D01*
X60242161Y-62098351D01*
X60256129Y-62112319D01*
X60289614Y-62173642D01*
X60284630Y-62243334D01*
X60256129Y-62287681D01*
X60242161Y-62301648D01*
X60151593Y-62448481D01*
X60151591Y-62448486D01*
X60141531Y-62478846D01*
X60097326Y-62612247D01*
X60097326Y-62612248D01*
X60097325Y-62612248D01*
X60087000Y-62713315D01*
X60087000Y-63286669D01*
X60087001Y-63286687D01*
X60097325Y-63387752D01*
X60133609Y-63497249D01*
X60151592Y-63551516D01*
X60242160Y-63698350D01*
X60364150Y-63820340D01*
X60510984Y-63910908D01*
X60674747Y-63965174D01*
X60775823Y-63975500D01*
X61449176Y-63975499D01*
X61449184Y-63975498D01*
X61449187Y-63975498D01*
X61504530Y-63969844D01*
X61550253Y-63965174D01*
X61714016Y-63910908D01*
X61860850Y-63820340D01*
X61982840Y-63698350D01*
X62073408Y-63551516D01*
X62127674Y-63387753D01*
X62138000Y-63286677D01*
X62137999Y-62713324D01*
X62127674Y-62612247D01*
X62073408Y-62448484D01*
X62073404Y-62448478D01*
X62073403Y-62448475D01*
X62049863Y-62410311D01*
X62031422Y-62342919D01*
X62052344Y-62276255D01*
X62105986Y-62231485D01*
X62175317Y-62222824D01*
X62220495Y-62239674D01*
X62335984Y-62310908D01*
X62499747Y-62365174D01*
X62600823Y-62375500D01*
X63199176Y-62375499D01*
X63199184Y-62375498D01*
X63199187Y-62375498D01*
X63254530Y-62369844D01*
X63300253Y-62365174D01*
X63438292Y-62319431D01*
X63508119Y-62317030D01*
X63568161Y-62352761D01*
X63599354Y-62415282D01*
X63601295Y-62437138D01*
X63601295Y-62947870D01*
X63601296Y-62947874D01*
X63607703Y-63007481D01*
X63620454Y-63041669D01*
X63625437Y-63111361D01*
X63620454Y-63128331D01*
X63607703Y-63162518D01*
X63601296Y-63222116D01*
X63601296Y-63222123D01*
X63601295Y-63222135D01*
X63601295Y-64217870D01*
X63601296Y-64217876D01*
X63604991Y-64252247D01*
X63592584Y-64321006D01*
X63544973Y-64372143D01*
X63481701Y-64389500D01*
X59996669Y-64389500D01*
X59996653Y-64389499D01*
X59989057Y-64389499D01*
X59830943Y-64389499D01*
X59723587Y-64418265D01*
X59678210Y-64430424D01*
X59678209Y-64430425D01*
X59628096Y-64459359D01*
X59628095Y-64459360D01*
X59594344Y-64478846D01*
X59541285Y-64509479D01*
X59541282Y-64509481D01*
X59429478Y-64621286D01*
X57637584Y-66413181D01*
X57576261Y-66446666D01*
X57549903Y-66449500D01*
X47350097Y-66449500D01*
X47283058Y-66429815D01*
X47262416Y-66413181D01*
X43967590Y-63118355D01*
X43967588Y-63118352D01*
X43848717Y-62999481D01*
X43848716Y-62999480D01*
X43759329Y-62947873D01*
X43759328Y-62947872D01*
X43711783Y-62920422D01*
X43655881Y-62905443D01*
X43559057Y-62879499D01*
X43400943Y-62879499D01*
X43393347Y-62879499D01*
X43393331Y-62879500D01*
X41653418Y-62879500D01*
X41586379Y-62859815D01*
X41540624Y-62807011D01*
X41530680Y-62737853D01*
X41538855Y-62708051D01*
X41569737Y-62633497D01*
X41600500Y-62478842D01*
X41600500Y-62321158D01*
X41600500Y-62321155D01*
X41600499Y-62321153D01*
X41582663Y-62231485D01*
X41569737Y-62166503D01*
X41558161Y-62138556D01*
X41509397Y-62020827D01*
X41509390Y-62020814D01*
X41421789Y-61889711D01*
X41421786Y-61889707D01*
X41342319Y-61810240D01*
X41308834Y-61748917D01*
X41313818Y-61679225D01*
X41355690Y-61623292D01*
X41374102Y-61612812D01*
X41373809Y-61612264D01*
X41379172Y-61609396D01*
X41379179Y-61609394D01*
X41510289Y-61521789D01*
X41621789Y-61410289D01*
X41709394Y-61279179D01*
X41769737Y-61133497D01*
X41800500Y-60978842D01*
X41800638Y-60978150D01*
X41833023Y-60916239D01*
X41834518Y-60914716D01*
X46862417Y-55886819D01*
X46923740Y-55853334D01*
X46950098Y-55850500D01*
X48145932Y-55850500D01*
X48160534Y-55854787D01*
G37*
%TD.AperFunction*%
%TA.AperFunction,Conductor*%
G36*
X37666942Y-60120185D02*
G01*
X37687584Y-60136819D01*
X39965425Y-62414660D01*
X39998910Y-62475983D01*
X39999361Y-62478149D01*
X40030261Y-62633491D01*
X40030263Y-62633497D01*
X40061143Y-62708049D01*
X40068612Y-62777516D01*
X40037337Y-62839996D01*
X39977248Y-62875648D01*
X39946582Y-62879500D01*
X19370719Y-62879500D01*
X19303680Y-62859815D01*
X19260235Y-62811795D01*
X19240052Y-62772185D01*
X19240051Y-62772184D01*
X19115109Y-62600213D01*
X18964786Y-62449890D01*
X18792820Y-62324951D01*
X18792115Y-62324591D01*
X18784054Y-62320485D01*
X18733259Y-62272512D01*
X18716463Y-62204692D01*
X18738999Y-62138556D01*
X18784054Y-62099515D01*
X18792816Y-62095051D01*
X18814789Y-62079086D01*
X18964786Y-61970109D01*
X18964788Y-61970106D01*
X18964792Y-61970104D01*
X19115104Y-61819792D01*
X19115106Y-61819788D01*
X19115109Y-61819786D01*
X19240048Y-61647820D01*
X19240047Y-61647820D01*
X19240051Y-61647816D01*
X19336557Y-61458412D01*
X19402246Y-61256243D01*
X19435500Y-61046287D01*
X19435500Y-60833713D01*
X19402246Y-60623757D01*
X19388506Y-60581473D01*
X19386512Y-60511635D01*
X19418753Y-60455480D01*
X19737418Y-60136817D01*
X19798740Y-60103334D01*
X19825098Y-60100500D01*
X37599903Y-60100500D01*
X37666942Y-60120185D01*
G37*
%TD.AperFunction*%
%TA.AperFunction,Conductor*%
G36*
X66487273Y-50920185D02*
G01*
X66489125Y-50921398D01*
X66620814Y-51009390D01*
X66620827Y-51009397D01*
X66741791Y-51059501D01*
X66766503Y-51069737D01*
X66824227Y-51081219D01*
X66927132Y-51101689D01*
X66926604Y-51104341D01*
X66980555Y-51126078D01*
X67020958Y-51183082D01*
X67024128Y-51252880D01*
X67002955Y-51297689D01*
X66988001Y-51317664D01*
X66987997Y-51317671D01*
X66937703Y-51452517D01*
X66932515Y-51500776D01*
X66931296Y-51512123D01*
X66931295Y-51512135D01*
X66931295Y-53107870D01*
X66931296Y-53107876D01*
X66937703Y-53167483D01*
X66987997Y-53302328D01*
X66988001Y-53302335D01*
X67074247Y-53417544D01*
X67074250Y-53417547D01*
X67189459Y-53503793D01*
X67189466Y-53503797D01*
X67324312Y-53554091D01*
X67324311Y-53554091D01*
X67331239Y-53554835D01*
X67383922Y-53560500D01*
X68379667Y-53560499D01*
X68439278Y-53554091D01*
X68473462Y-53541340D01*
X68543153Y-53536357D01*
X68560122Y-53541338D01*
X68594312Y-53554091D01*
X68653922Y-53560500D01*
X69649667Y-53560499D01*
X69709278Y-53554091D01*
X69743462Y-53541340D01*
X69813153Y-53536357D01*
X69830122Y-53541338D01*
X69864312Y-53554091D01*
X69923922Y-53560500D01*
X70919667Y-53560499D01*
X70979278Y-53554091D01*
X71013462Y-53541340D01*
X71083153Y-53536357D01*
X71100122Y-53541338D01*
X71134312Y-53554091D01*
X71193922Y-53560500D01*
X72189667Y-53560499D01*
X72249278Y-53554091D01*
X72283462Y-53541340D01*
X72353153Y-53536357D01*
X72370122Y-53541338D01*
X72404312Y-53554091D01*
X72463922Y-53560500D01*
X73459667Y-53560499D01*
X73519278Y-53554091D01*
X73553462Y-53541340D01*
X73623153Y-53536357D01*
X73640122Y-53541338D01*
X73674312Y-53554091D01*
X73733922Y-53560500D01*
X74729667Y-53560499D01*
X74789278Y-53554091D01*
X74823462Y-53541340D01*
X74893153Y-53536357D01*
X74910122Y-53541338D01*
X74944312Y-53554091D01*
X75003922Y-53560500D01*
X75999667Y-53560499D01*
X76059278Y-53554091D01*
X76093462Y-53541340D01*
X76163153Y-53536357D01*
X76180122Y-53541338D01*
X76214312Y-53554091D01*
X76273922Y-53560500D01*
X77269667Y-53560499D01*
X77329278Y-53554091D01*
X77363462Y-53541340D01*
X77433153Y-53536357D01*
X77450122Y-53541338D01*
X77484312Y-53554091D01*
X77543922Y-53560500D01*
X78538409Y-53560499D01*
X78605448Y-53580183D01*
X78651203Y-53632987D01*
X78661147Y-53702146D01*
X78632122Y-53765702D01*
X78626090Y-53772180D01*
X76935090Y-55463181D01*
X76873767Y-55496666D01*
X76847409Y-55499500D01*
X66221889Y-55499500D01*
X66154850Y-55479815D01*
X66109095Y-55427011D01*
X66098599Y-55362246D01*
X66102295Y-55327873D01*
X66102294Y-54332128D01*
X66095886Y-54272517D01*
X66083135Y-54238332D01*
X66078152Y-54168642D01*
X66083133Y-54151672D01*
X66095886Y-54117483D01*
X66102295Y-54057873D01*
X66102294Y-53062128D01*
X66095886Y-53002517D01*
X66090814Y-52988919D01*
X66045592Y-52867671D01*
X66045588Y-52867664D01*
X65959342Y-52752455D01*
X65959339Y-52752452D01*
X65844130Y-52666206D01*
X65844123Y-52666202D01*
X65709277Y-52615908D01*
X65709278Y-52615908D01*
X65649678Y-52609501D01*
X65649676Y-52609500D01*
X65649668Y-52609500D01*
X65649660Y-52609500D01*
X64118989Y-52609500D01*
X64051950Y-52589815D01*
X64006195Y-52537011D01*
X63995631Y-52498100D01*
X63994322Y-52485289D01*
X63991969Y-52462247D01*
X63937703Y-52298484D01*
X63847135Y-52151650D01*
X63725145Y-52029660D01*
X63578311Y-51939092D01*
X63414548Y-51884826D01*
X63414546Y-51884825D01*
X63313473Y-51874500D01*
X62715125Y-51874500D01*
X62715107Y-51874501D01*
X62614042Y-51884825D01*
X62450279Y-51939092D01*
X62450276Y-51939093D01*
X62303443Y-52029661D01*
X62189476Y-52143629D01*
X62128153Y-52177114D01*
X62058461Y-52172130D01*
X62014114Y-52143629D01*
X61900146Y-52029661D01*
X61900145Y-52029660D01*
X61753311Y-51939092D01*
X61589548Y-51884826D01*
X61589546Y-51884825D01*
X61488473Y-51874500D01*
X60890125Y-51874500D01*
X60890107Y-51874501D01*
X60789042Y-51884825D01*
X60625279Y-51939092D01*
X60625276Y-51939093D01*
X60561309Y-51978549D01*
X60536383Y-51993924D01*
X60532357Y-51996407D01*
X60503818Y-52004215D01*
X60476106Y-52014552D01*
X60470499Y-52013332D01*
X60464964Y-52014847D01*
X60436738Y-52005988D01*
X60407833Y-51999700D01*
X60401428Y-51994905D01*
X60398301Y-51993924D01*
X60379579Y-51978549D01*
X60361369Y-51960339D01*
X60327884Y-51899016D01*
X60327433Y-51896849D01*
X60296533Y-51741510D01*
X60296532Y-51741503D01*
X60277463Y-51695465D01*
X60236192Y-51595827D01*
X60236185Y-51595814D01*
X60148584Y-51464711D01*
X60148581Y-51464707D01*
X60037087Y-51353213D01*
X60037083Y-51353210D01*
X59905980Y-51265609D01*
X59905967Y-51265602D01*
X59760296Y-51205264D01*
X59760284Y-51205261D01*
X59605640Y-51174500D01*
X59605637Y-51174500D01*
X59447953Y-51174500D01*
X59447950Y-51174500D01*
X59293305Y-51205261D01*
X59293293Y-51205264D01*
X59147622Y-51265602D01*
X59147609Y-51265609D01*
X59016506Y-51353210D01*
X59016502Y-51353213D01*
X58905008Y-51464707D01*
X58905005Y-51464711D01*
X58817404Y-51595814D01*
X58817397Y-51595827D01*
X58757059Y-51741498D01*
X58757056Y-51741510D01*
X58726295Y-51896153D01*
X58726295Y-52053846D01*
X58757056Y-52208489D01*
X58757059Y-52208501D01*
X58817397Y-52354172D01*
X58817404Y-52354185D01*
X58905005Y-52485288D01*
X58905008Y-52485292D01*
X59016502Y-52596786D01*
X59016506Y-52596789D01*
X59147609Y-52684390D01*
X59147622Y-52684397D01*
X59293293Y-52744735D01*
X59293298Y-52744737D01*
X59357942Y-52757595D01*
X59448644Y-52775638D01*
X59510555Y-52808023D01*
X59512134Y-52809574D01*
X59916934Y-53214374D01*
X59916944Y-53214385D01*
X59921274Y-53218715D01*
X59921275Y-53218716D01*
X60033079Y-53330520D01*
X60033081Y-53330521D01*
X60033085Y-53330524D01*
X60077180Y-53355982D01*
X60077184Y-53355984D01*
X60083408Y-53359577D01*
X60170010Y-53409577D01*
X60252016Y-53431550D01*
X60260346Y-53435151D01*
X60280510Y-53451915D01*
X60302903Y-53465564D01*
X60312896Y-53478839D01*
X60314073Y-53479818D01*
X60314391Y-53480826D01*
X60316686Y-53483875D01*
X60356455Y-53548350D01*
X60478445Y-53670340D01*
X60625279Y-53760908D01*
X60789042Y-53815174D01*
X60890118Y-53825500D01*
X61488471Y-53825499D01*
X61488479Y-53825498D01*
X61488482Y-53825498D01*
X61543825Y-53819844D01*
X61589548Y-53815174D01*
X61753311Y-53760908D01*
X61848007Y-53702498D01*
X61915395Y-53684059D01*
X61982059Y-53704981D01*
X62026829Y-53758622D01*
X62035491Y-53827953D01*
X62018641Y-53873133D01*
X61990890Y-53918126D01*
X61990887Y-53918131D01*
X61936621Y-54081894D01*
X61936621Y-54081895D01*
X61936620Y-54081895D01*
X61926295Y-54182962D01*
X61926295Y-54487402D01*
X61906610Y-54554441D01*
X61889976Y-54575083D01*
X60451879Y-56013181D01*
X60390556Y-56046666D01*
X60364198Y-56049500D01*
X57800097Y-56049500D01*
X57770656Y-56040855D01*
X57740670Y-56034332D01*
X57735654Y-56030577D01*
X57733058Y-56029815D01*
X57712416Y-56013181D01*
X57552798Y-55853563D01*
X57519313Y-55792240D01*
X57522547Y-55727566D01*
X57563553Y-55601368D01*
X57585151Y-55465000D01*
X57600500Y-55368097D01*
X57600500Y-55131902D01*
X57563553Y-54898631D01*
X57521587Y-54769475D01*
X57490568Y-54674008D01*
X57490566Y-54674005D01*
X57490566Y-54674003D01*
X57421658Y-54538764D01*
X57383343Y-54463567D01*
X57244517Y-54272490D01*
X57077510Y-54105483D01*
X56886433Y-53966657D01*
X56675996Y-53859433D01*
X56451368Y-53786446D01*
X56218097Y-53749500D01*
X56218092Y-53749500D01*
X55981908Y-53749500D01*
X55981903Y-53749500D01*
X55748631Y-53786446D01*
X55524003Y-53859433D01*
X55313566Y-53966657D01*
X55231875Y-54026010D01*
X55122490Y-54105483D01*
X55122488Y-54105485D01*
X55122487Y-54105485D01*
X54955485Y-54272487D01*
X54955485Y-54272488D01*
X54955483Y-54272490D01*
X54955463Y-54272518D01*
X54816657Y-54463566D01*
X54756417Y-54581795D01*
X54708442Y-54632591D01*
X54645932Y-54649500D01*
X51054068Y-54649500D01*
X50987029Y-54629815D01*
X50943583Y-54581795D01*
X50940163Y-54575083D01*
X50883343Y-54463567D01*
X50744517Y-54272490D01*
X50577510Y-54105483D01*
X50386433Y-53966657D01*
X50175996Y-53859433D01*
X49951368Y-53786446D01*
X49718097Y-53749500D01*
X49718092Y-53749500D01*
X49481908Y-53749500D01*
X49481903Y-53749500D01*
X49248631Y-53786446D01*
X49024003Y-53859433D01*
X48813566Y-53966657D01*
X48731875Y-54026010D01*
X48622490Y-54105483D01*
X48622488Y-54105485D01*
X48622487Y-54105485D01*
X48455485Y-54272487D01*
X48455485Y-54272488D01*
X48455483Y-54272490D01*
X48455463Y-54272518D01*
X48316657Y-54463566D01*
X48256417Y-54581795D01*
X48208442Y-54632591D01*
X48145932Y-54649500D01*
X46736670Y-54649500D01*
X46736654Y-54649499D01*
X46729058Y-54649499D01*
X46570943Y-54649499D01*
X46494579Y-54669961D01*
X46418214Y-54690423D01*
X46418209Y-54690426D01*
X46281290Y-54769475D01*
X46281282Y-54769481D01*
X40985339Y-60065425D01*
X40924016Y-60098910D01*
X40921850Y-60099361D01*
X40766508Y-60130261D01*
X40766498Y-60130264D01*
X40620827Y-60190602D01*
X40620814Y-60190609D01*
X40489711Y-60278210D01*
X40489707Y-60278213D01*
X40378213Y-60389707D01*
X40378210Y-60389711D01*
X40290609Y-60520814D01*
X40290602Y-60520827D01*
X40230264Y-60666498D01*
X40230262Y-60666504D01*
X40223337Y-60701318D01*
X40190950Y-60763228D01*
X40130233Y-60797800D01*
X40060464Y-60794059D01*
X40014039Y-60764804D01*
X38387590Y-59138355D01*
X38387588Y-59138352D01*
X38268717Y-59019481D01*
X38268716Y-59019480D01*
X38181904Y-58969360D01*
X38181904Y-58969359D01*
X38181900Y-58969358D01*
X38131785Y-58940423D01*
X37979057Y-58899499D01*
X37820943Y-58899499D01*
X37813347Y-58899499D01*
X37813331Y-58899500D01*
X19611669Y-58899500D01*
X19604061Y-58899499D01*
X19604058Y-58899499D01*
X19513372Y-58899499D01*
X19446332Y-58879814D01*
X19400578Y-58827009D01*
X19390635Y-58757851D01*
X19390635Y-58757849D01*
X19395443Y-58737179D01*
X19402246Y-58716243D01*
X19435500Y-58506287D01*
X19435500Y-58293713D01*
X19402246Y-58083757D01*
X19395441Y-58062816D01*
X19393447Y-57992978D01*
X19429527Y-57933145D01*
X19492228Y-57902316D01*
X19513373Y-57900500D01*
X27533331Y-57900500D01*
X27533347Y-57900501D01*
X27540943Y-57900501D01*
X27699054Y-57900501D01*
X27699057Y-57900501D01*
X27851785Y-57859577D01*
X27922440Y-57818784D01*
X27988716Y-57780520D01*
X28100520Y-57668716D01*
X28100520Y-57668714D01*
X28110724Y-57658511D01*
X28110728Y-57658506D01*
X32124205Y-53645028D01*
X32185526Y-53611545D01*
X32250202Y-53614780D01*
X32408034Y-53666062D01*
X32415466Y-53668477D01*
X32617648Y-53700500D01*
X32617649Y-53700500D01*
X32822351Y-53700500D01*
X32822352Y-53700500D01*
X33024534Y-53668477D01*
X33219219Y-53605220D01*
X33401610Y-53512287D01*
X33498421Y-53441950D01*
X33567213Y-53391971D01*
X33567215Y-53391968D01*
X33567219Y-53391966D01*
X33711966Y-53247219D01*
X33711968Y-53247215D01*
X33711971Y-53247213D01*
X33832284Y-53081614D01*
X33832285Y-53081613D01*
X33832287Y-53081610D01*
X33879516Y-52988917D01*
X33927489Y-52938123D01*
X33995310Y-52921328D01*
X34061445Y-52943865D01*
X34100485Y-52988919D01*
X34147715Y-53081614D01*
X34268028Y-53247213D01*
X34412786Y-53391971D01*
X34566699Y-53503793D01*
X34578390Y-53512287D01*
X34694607Y-53571503D01*
X34760776Y-53605218D01*
X34760778Y-53605218D01*
X34760781Y-53605220D01*
X34790204Y-53614780D01*
X34955465Y-53668477D01*
X35053845Y-53684059D01*
X35157648Y-53700500D01*
X35157649Y-53700500D01*
X35362351Y-53700500D01*
X35362352Y-53700500D01*
X35564534Y-53668477D01*
X35759219Y-53605220D01*
X35941610Y-53512287D01*
X36038421Y-53441950D01*
X36107213Y-53391971D01*
X36107215Y-53391968D01*
X36107219Y-53391966D01*
X36251966Y-53247219D01*
X36251968Y-53247215D01*
X36251971Y-53247213D01*
X36372284Y-53081614D01*
X36372285Y-53081613D01*
X36372287Y-53081610D01*
X36419516Y-52988917D01*
X36467489Y-52938123D01*
X36535310Y-52921328D01*
X36601445Y-52943865D01*
X36640485Y-52988919D01*
X36687715Y-53081614D01*
X36808028Y-53247213D01*
X36952786Y-53391971D01*
X37106699Y-53503793D01*
X37118390Y-53512287D01*
X37234607Y-53571503D01*
X37300776Y-53605218D01*
X37300778Y-53605218D01*
X37300781Y-53605220D01*
X37330204Y-53614780D01*
X37495465Y-53668477D01*
X37593845Y-53684059D01*
X37697648Y-53700500D01*
X37697649Y-53700500D01*
X37902351Y-53700500D01*
X37902352Y-53700500D01*
X38104534Y-53668477D01*
X38299219Y-53605220D01*
X38481610Y-53512287D01*
X38578421Y-53441950D01*
X38647213Y-53391971D01*
X38647215Y-53391968D01*
X38647219Y-53391966D01*
X38791966Y-53247219D01*
X38791968Y-53247215D01*
X38791971Y-53247213D01*
X38887694Y-53115459D01*
X38912287Y-53081610D01*
X39005220Y-52899219D01*
X39068477Y-52704534D01*
X39100500Y-52502352D01*
X39100500Y-52200097D01*
X39120185Y-52133058D01*
X39136819Y-52112416D01*
X40312417Y-50936819D01*
X40373740Y-50903334D01*
X40400098Y-50900500D01*
X66420234Y-50900500D01*
X66487273Y-50920185D01*
G37*
%TD.AperFunction*%
%TA.AperFunction,Conductor*%
G36*
X63573825Y-55458402D02*
G01*
X63605019Y-55520922D01*
X63606250Y-55556032D01*
X63601295Y-55602127D01*
X63601295Y-55602133D01*
X63601295Y-55602134D01*
X63601295Y-56597870D01*
X63601296Y-56597876D01*
X63607703Y-56657481D01*
X63620454Y-56691669D01*
X63625437Y-56761361D01*
X63620454Y-56778331D01*
X63607703Y-56812518D01*
X63601296Y-56872116D01*
X63601295Y-56872135D01*
X63601295Y-57867870D01*
X63601296Y-57867876D01*
X63607703Y-57927481D01*
X63620454Y-57961669D01*
X63625437Y-58031361D01*
X63620454Y-58048331D01*
X63607703Y-58082518D01*
X63601296Y-58142116D01*
X63601296Y-58142123D01*
X63601295Y-58142135D01*
X63601295Y-58762861D01*
X63581610Y-58829900D01*
X63528806Y-58875655D01*
X63459648Y-58885599D01*
X63438292Y-58880567D01*
X63300255Y-58834826D01*
X63300251Y-58834825D01*
X63199178Y-58824500D01*
X62600830Y-58824500D01*
X62600812Y-58824501D01*
X62499747Y-58834825D01*
X62335984Y-58889092D01*
X62335981Y-58889093D01*
X62189147Y-58979661D01*
X62183487Y-58984138D01*
X62182624Y-58983047D01*
X62128208Y-59012753D01*
X62058517Y-59007761D01*
X62002588Y-58965884D01*
X61978178Y-58900417D01*
X61993037Y-58832146D01*
X61996325Y-58826487D01*
X62038662Y-58757849D01*
X62073408Y-58701516D01*
X62127674Y-58537753D01*
X62138000Y-58436677D01*
X62137999Y-57863324D01*
X62127674Y-57762247D01*
X62073408Y-57598484D01*
X61982840Y-57451650D01*
X61860850Y-57329660D01*
X61732513Y-57250501D01*
X61714018Y-57239093D01*
X61714013Y-57239091D01*
X61712569Y-57238612D01*
X61550253Y-57184826D01*
X61550251Y-57184825D01*
X61449184Y-57174500D01*
X61449177Y-57174500D01*
X61288391Y-57174500D01*
X61221352Y-57154815D01*
X61175597Y-57102011D01*
X61165653Y-57032853D01*
X61194678Y-56969297D01*
X61200710Y-56962819D01*
X62682064Y-55481465D01*
X62743387Y-55447980D01*
X62769745Y-55445146D01*
X63313465Y-55445146D01*
X63313471Y-55445146D01*
X63414548Y-55434821D01*
X63443956Y-55425075D01*
X63513782Y-55422672D01*
X63573825Y-55458402D01*
G37*
%TD.AperFunction*%
%TD*%
%TA.AperFunction,Conductor*%
%TO.N,GND*%
G36*
X37000000Y-22770737D02*
G01*
X37000000Y-23500000D01*
X36250000Y-24250000D01*
X35750000Y-24750000D01*
X35750000Y-30250000D01*
X35250000Y-30750000D01*
X34000000Y-30770737D01*
X33000000Y-29770737D01*
X33000000Y-25020737D01*
X34500000Y-23520737D01*
X34500000Y-22520737D01*
X34750000Y-22270737D01*
X36500000Y-22270737D01*
X37000000Y-22770737D01*
G37*
%TD.AperFunction*%
%TD*%
%TA.AperFunction,Conductor*%
%TO.N,12V_BUS*%
G36*
X50265677Y-17269685D02*
G01*
X50286319Y-17286319D01*
X50963681Y-17963681D01*
X50997166Y-18025004D01*
X51000000Y-18051362D01*
X51000000Y-23626000D01*
X50980315Y-23693039D01*
X50927511Y-23738794D01*
X50876000Y-23750000D01*
X48801362Y-23750000D01*
X48734323Y-23730315D01*
X48713681Y-23713681D01*
X48250000Y-23250000D01*
X45801362Y-23250000D01*
X45734323Y-23230315D01*
X45713681Y-23213681D01*
X45036319Y-22536319D01*
X45002834Y-22474996D01*
X45000000Y-22448638D01*
X45000000Y-18801362D01*
X45019685Y-18734323D01*
X45036319Y-18713681D01*
X45713681Y-18036319D01*
X45775004Y-18002834D01*
X45801362Y-18000000D01*
X48250000Y-18000000D01*
X48963681Y-17286319D01*
X49025004Y-17252834D01*
X49051362Y-17250000D01*
X50198638Y-17250000D01*
X50265677Y-17269685D01*
G37*
%TD.AperFunction*%
%TD*%
%TA.AperFunction,Conductor*%
%TO.N,3V3_BUS*%
G36*
X78753177Y-37044685D02*
G01*
X78773819Y-37061319D01*
X78951181Y-37238681D01*
X78984666Y-37300004D01*
X78987500Y-37326362D01*
X78987500Y-43223638D01*
X78967815Y-43290677D01*
X78951181Y-43311319D01*
X78773819Y-43488681D01*
X78712496Y-43522166D01*
X78686138Y-43525000D01*
X77288862Y-43525000D01*
X77221823Y-43505315D01*
X77201181Y-43488681D01*
X76990429Y-43277929D01*
X76984791Y-43271903D01*
X76637500Y-42875000D01*
X75837500Y-42875000D01*
X75078833Y-42875000D01*
X75011794Y-42855315D01*
X75004433Y-42850200D01*
X74687100Y-42612200D01*
X74645279Y-42556229D01*
X74637500Y-42513000D01*
X74637500Y-38126362D01*
X74657185Y-38059323D01*
X74673819Y-38038681D01*
X75001181Y-37711319D01*
X75062504Y-37677834D01*
X75088862Y-37675000D01*
X76537499Y-37675000D01*
X76537500Y-37675000D01*
X77201817Y-37058133D01*
X77264338Y-37026941D01*
X77286193Y-37025000D01*
X78686138Y-37025000D01*
X78753177Y-37044685D01*
G37*
%TD.AperFunction*%
%TD*%
%TA.AperFunction,Conductor*%
%TO.N,GND*%
G36*
X54692428Y-18207572D02*
G01*
X54692428Y-22557572D01*
X53492428Y-23757572D01*
X52292428Y-23757572D01*
X51342428Y-22807572D01*
X51342428Y-18157572D01*
X52492428Y-17007572D01*
X53492428Y-17007572D01*
X54692428Y-18207572D01*
G37*
%TD.AperFunction*%
%TD*%
%TA.AperFunction,Conductor*%
%TO.N,GND*%
G36*
X82537500Y-37325000D02*
G01*
X82537500Y-43325000D01*
X82037500Y-43825000D01*
X80287500Y-43825000D01*
X79787500Y-43325000D01*
X79787500Y-40075000D01*
X79787500Y-37325000D01*
X80537500Y-36575000D01*
X81787500Y-36575000D01*
X82537500Y-37325000D01*
G37*
%TD.AperFunction*%
%TD*%
%TA.AperFunction,Conductor*%
%TO.N,Net-(U1-SW)*%
G36*
X40265677Y-18519685D02*
G01*
X40286319Y-18536319D01*
X40663681Y-18913681D01*
X40697166Y-18975004D01*
X40700000Y-19001362D01*
X40700000Y-21998638D01*
X40680315Y-22065677D01*
X40663681Y-22086319D01*
X40036319Y-22713681D01*
X39974996Y-22747166D01*
X39948638Y-22750000D01*
X37551362Y-22750000D01*
X37484323Y-22730315D01*
X37463681Y-22713681D01*
X37286319Y-22536319D01*
X37252834Y-22474996D01*
X37250000Y-22448638D01*
X37250000Y-21250000D01*
X37000000Y-21000000D01*
X36944018Y-21000000D01*
X36876979Y-20980315D01*
X36875127Y-20979102D01*
X36849730Y-20962132D01*
X36849729Y-20962131D01*
X36791252Y-20950500D01*
X36791248Y-20950500D01*
X35751862Y-20950500D01*
X35722421Y-20941855D01*
X35692435Y-20935332D01*
X35687419Y-20931577D01*
X35684823Y-20930815D01*
X35664181Y-20914181D01*
X35536319Y-20786319D01*
X35502834Y-20724996D01*
X35500000Y-20698638D01*
X35500000Y-20301362D01*
X35519685Y-20234323D01*
X35536319Y-20213681D01*
X35662183Y-20087817D01*
X35723506Y-20054332D01*
X35749864Y-20051498D01*
X36791250Y-20051498D01*
X36791251Y-20051497D01*
X36806068Y-20048550D01*
X36849729Y-20039866D01*
X36849729Y-20039865D01*
X36849731Y-20039865D01*
X36878117Y-20020898D01*
X36944794Y-20000020D01*
X36947008Y-20000000D01*
X37000000Y-20000000D01*
X37250000Y-19750000D01*
X37250000Y-18801362D01*
X37269685Y-18734323D01*
X37286319Y-18713681D01*
X37463681Y-18536319D01*
X37525004Y-18502834D01*
X37551362Y-18500000D01*
X40198638Y-18500000D01*
X40265677Y-18519685D01*
G37*
%TD.AperFunction*%
%TD*%
%TA.AperFunction,Conductor*%
%TO.N,VBAT*%
G36*
X31765677Y-19269685D02*
G01*
X31786319Y-19286319D01*
X31913181Y-19413181D01*
X31946666Y-19474504D01*
X31949500Y-19500862D01*
X31949500Y-19771043D01*
X31964635Y-19827526D01*
X31969980Y-19847472D01*
X31983386Y-19870691D01*
X32000000Y-19932693D01*
X32000000Y-20000000D01*
X32734697Y-20734697D01*
X32768182Y-20796020D01*
X32770191Y-20814709D01*
X32770419Y-20814687D01*
X32771016Y-20820751D01*
X32782647Y-20879228D01*
X32782648Y-20879229D01*
X32826963Y-20945551D01*
X32893285Y-20989866D01*
X32893286Y-20989867D01*
X32951763Y-21001498D01*
X32951766Y-21001499D01*
X33950137Y-21001499D01*
X33979577Y-21010143D01*
X34009564Y-21016667D01*
X34014579Y-21020421D01*
X34017176Y-21021184D01*
X34037818Y-21037818D01*
X34213681Y-21213681D01*
X34247166Y-21275004D01*
X34250000Y-21301362D01*
X34250000Y-23251142D01*
X34233387Y-23313142D01*
X34178724Y-23407820D01*
X34178723Y-23407823D01*
X34147000Y-23526216D01*
X34147000Y-23531755D01*
X34127315Y-23598794D01*
X34110681Y-23619436D01*
X32854692Y-24875424D01*
X32812171Y-24935350D01*
X32798726Y-24951271D01*
X32750000Y-24999998D01*
X32750000Y-25000000D01*
X32750000Y-30000000D01*
X33750000Y-31000000D01*
X36750000Y-31000000D01*
X40698638Y-31000000D01*
X40765677Y-31019685D01*
X40786319Y-31036319D01*
X40963681Y-31213681D01*
X40997166Y-31275004D01*
X41000000Y-31301362D01*
X41000000Y-32000001D01*
X41249998Y-32499998D01*
X41249999Y-32499999D01*
X41250000Y-32500000D01*
X42198638Y-32500000D01*
X42265677Y-32519685D01*
X42286319Y-32536319D01*
X42713681Y-32963681D01*
X42747166Y-33025004D01*
X42750000Y-33051362D01*
X42750000Y-36448638D01*
X42730315Y-36515677D01*
X42713681Y-36536319D01*
X42286319Y-36963681D01*
X42224996Y-36997166D01*
X42198638Y-37000000D01*
X39749999Y-37000000D01*
X37036319Y-39713681D01*
X36974996Y-39747166D01*
X36948638Y-39750000D01*
X36551362Y-39750000D01*
X36484323Y-39730315D01*
X36463681Y-39713681D01*
X36036319Y-39286319D01*
X36002834Y-39224996D01*
X36000000Y-39198638D01*
X36000000Y-38801362D01*
X36019685Y-38734323D01*
X36036319Y-38713681D01*
X37752834Y-36997166D01*
X39500000Y-35250000D01*
X39500000Y-32250000D01*
X33796592Y-32250000D01*
X33729553Y-32230315D01*
X33714937Y-32219320D01*
X31750000Y-30500000D01*
X31749998Y-30500000D01*
X31051362Y-30500000D01*
X30984323Y-30480315D01*
X30963681Y-30463681D01*
X30536319Y-30036319D01*
X30502834Y-29974996D01*
X30500000Y-29948638D01*
X30500000Y-24500000D01*
X30000000Y-24000000D01*
X27301362Y-24000000D01*
X27234323Y-23980315D01*
X27213681Y-23963681D01*
X26786319Y-23536319D01*
X26752834Y-23474996D01*
X26750000Y-23448638D01*
X26750000Y-21301362D01*
X26769685Y-21234323D01*
X26786319Y-21213681D01*
X27213681Y-20786319D01*
X27275004Y-20752834D01*
X27301362Y-20750000D01*
X30500000Y-20750000D01*
X30500000Y-19551362D01*
X30519685Y-19484323D01*
X30536319Y-19463681D01*
X30713681Y-19286319D01*
X30775004Y-19252834D01*
X30801362Y-19250000D01*
X31698638Y-19250000D01*
X31765677Y-19269685D01*
G37*
%TD.AperFunction*%
%TD*%
%TA.AperFunction,Conductor*%
%TO.N,VBAT*%
G36*
X30276182Y-32763091D02*
G01*
X30681454Y-32965727D01*
X30732613Y-33013314D01*
X30750000Y-33076636D01*
X30750000Y-37000000D01*
X32250000Y-38500000D01*
X32720728Y-38500000D01*
X32776182Y-38513091D01*
X33181454Y-38715727D01*
X33232613Y-38763314D01*
X33250000Y-38826636D01*
X33250000Y-39423364D01*
X33230315Y-39490403D01*
X33181454Y-39534273D01*
X32776182Y-39736909D01*
X32720728Y-39750000D01*
X31551362Y-39750000D01*
X31484323Y-39730315D01*
X31463681Y-39713681D01*
X31000000Y-39250000D01*
X29301362Y-39250000D01*
X29234323Y-39230315D01*
X29213681Y-39213681D01*
X28786319Y-38786319D01*
X28752834Y-38724996D01*
X28750000Y-38698638D01*
X28750000Y-33076636D01*
X28769685Y-33009597D01*
X28818546Y-32965727D01*
X29223818Y-32763091D01*
X29279272Y-32750000D01*
X30220728Y-32750000D01*
X30276182Y-32763091D01*
G37*
%TD.AperFunction*%
%TD*%
M02*
