%TF.GenerationSoftware,KiCad,Pcbnew,9.0.4*%
%TF.CreationDate,2025-11-01T22:13:15-04:00*%
%TF.ProjectId,power_distribution,706f7765-725f-4646-9973-747269627574,v1*%
%TF.SameCoordinates,Original*%
%TF.FileFunction,Copper,L3,Inr*%
%TF.FilePolarity,Positive*%
%FSLAX46Y46*%
G04 Gerber Fmt 4.6, Leading zero omitted, Abs format (unit mm)*
G04 Created by KiCad (PCBNEW 9.0.4) date 2025-11-01 22:13:15*
%MOMM*%
%LPD*%
G01*
G04 APERTURE LIST*
G04 Aperture macros list*
%AMRoundRect*
0 Rectangle with rounded corners*
0 $1 Rounding radius*
0 $2 $3 $4 $5 $6 $7 $8 $9 X,Y pos of 4 corners*
0 Add a 4 corners polygon primitive as box body*
4,1,4,$2,$3,$4,$5,$6,$7,$8,$9,$2,$3,0*
0 Add four circle primitives for the rounded corners*
1,1,$1+$1,$2,$3*
1,1,$1+$1,$4,$5*
1,1,$1+$1,$6,$7*
1,1,$1+$1,$8,$9*
0 Add four rect primitives between the rounded corners*
20,1,$1+$1,$2,$3,$4,$5,0*
20,1,$1+$1,$4,$5,$6,$7,0*
20,1,$1+$1,$6,$7,$8,$9,0*
20,1,$1+$1,$8,$9,$2,$3,0*%
G04 Aperture macros list end*
%TA.AperFunction,ComponentPad*%
%ADD10C,0.800000*%
%TD*%
%TA.AperFunction,ComponentPad*%
%ADD11C,5.000000*%
%TD*%
%TA.AperFunction,ComponentPad*%
%ADD12RoundRect,0.250000X0.350000X0.625000X-0.350000X0.625000X-0.350000X-0.625000X0.350000X-0.625000X0*%
%TD*%
%TA.AperFunction,ComponentPad*%
%ADD13O,1.200000X1.750000*%
%TD*%
%TA.AperFunction,ComponentPad*%
%ADD14RoundRect,0.750000X-0.750000X0.750000X-0.750000X-0.750000X0.750000X-0.750000X0.750000X0.750000X0*%
%TD*%
%TA.AperFunction,ComponentPad*%
%ADD15C,3.000000*%
%TD*%
%TA.AperFunction,ViaPad*%
%ADD16C,0.600000*%
%TD*%
%TA.AperFunction,Conductor*%
%ADD17C,0.200000*%
%TD*%
%TA.AperFunction,Conductor*%
%ADD18C,0.530000*%
%TD*%
%TA.AperFunction,Conductor*%
%ADD19C,0.310000*%
%TD*%
G04 APERTURE END LIST*
D10*
%TO.N,unconnected-(H1-Pad1)*%
%TO.C,H1*%
X17400000Y-15600000D03*
X16850825Y-16925825D03*
X16850825Y-14274175D03*
X15525000Y-17475000D03*
D11*
X15525000Y-15600000D03*
D10*
X15525000Y-13725000D03*
X14199175Y-16925825D03*
X14199175Y-14274175D03*
X13650000Y-15600000D03*
%TD*%
%TO.N,unconnected-(H4-Pad1)_8*%
%TO.C,H4*%
X102450000Y-43400000D03*
X102999175Y-42074175D03*
X102999175Y-44725825D03*
X104325000Y-41525000D03*
D11*
X104325000Y-43400000D03*
D10*
X104325000Y-45275000D03*
X105650825Y-42074175D03*
X105650825Y-44725825D03*
X106200000Y-43400000D03*
%TD*%
%TO.N,unconnected-(H3-Pad1)_5*%
%TO.C,H3*%
X13650000Y-43400000D03*
X14199175Y-42074175D03*
X14199175Y-44725825D03*
X15525000Y-41525000D03*
D11*
X15525000Y-43400000D03*
D10*
X15525000Y-45275000D03*
X16850825Y-42074175D03*
X16850825Y-44725825D03*
X17400000Y-43400000D03*
%TD*%
%TO.N,unconnected-(H2-Pad1)_2*%
%TO.C,H2*%
X102399175Y-15674175D03*
X102948350Y-14348350D03*
X102948350Y-17000000D03*
X104274175Y-13799175D03*
D11*
X104274175Y-15674175D03*
D10*
X104274175Y-17549175D03*
X105600000Y-14348350D03*
X105600000Y-17000000D03*
X106149175Y-15674175D03*
%TD*%
D12*
%TO.N,GND*%
%TO.C,J2*%
X66262500Y-20709700D03*
D13*
%TO.N,Net-(D3-A)*%
X64262500Y-20709700D03*
%TD*%
D12*
%TO.N,GND*%
%TO.C,J4*%
X90225000Y-20562500D03*
D13*
%TO.N,Net-(J4-Pin_2)*%
X88225000Y-20562500D03*
%TD*%
D12*
%TO.N,GND*%
%TO.C,J3*%
X80262500Y-20609700D03*
D13*
%TO.N,Net-(D6-A)*%
X78262500Y-20609700D03*
%TD*%
D14*
%TO.N,GND*%
%TO.C,J1*%
X22200000Y-35800000D03*
D15*
%TO.N,Net-(J1-Pin_2)*%
X22200000Y-40800000D03*
%TD*%
D12*
%TO.N,GND*%
%TO.C,J5*%
X97175000Y-20562500D03*
D13*
%TO.N,Net-(J5-Pin_2)*%
X95175000Y-20562500D03*
%TD*%
D16*
%TO.N,5V_BUS*%
X54050000Y-40950000D03*
%TO.N,VBAT*%
X29850000Y-28750000D03*
X16466667Y-30133333D03*
%TO.N,GND*%
X94400000Y-24800000D03*
X33500000Y-26500000D03*
X76500000Y-27750000D03*
X99300000Y-42200000D03*
X21250000Y-20500000D03*
X57400000Y-24800000D03*
X90600000Y-24800000D03*
X99300000Y-39000000D03*
X72600000Y-24600000D03*
X74400000Y-42400000D03*
X28800000Y-31600000D03*
X97250000Y-18500000D03*
X81750000Y-19000000D03*
X52800000Y-23300000D03*
X99200000Y-24800000D03*
X66250000Y-18750000D03*
X72400000Y-39200000D03*
X85750000Y-43712500D03*
X51750000Y-27900000D03*
X73400000Y-37400000D03*
X33500000Y-25000000D03*
X33500000Y-29500000D03*
X98500000Y-19250000D03*
X35000000Y-21000000D03*
X51600000Y-22000000D03*
X91400000Y-23200000D03*
X34750000Y-30500000D03*
X53800000Y-22000000D03*
X52800000Y-17450000D03*
X99000000Y-23200000D03*
X67000000Y-25000000D03*
X92000000Y-20500000D03*
X42000000Y-30400000D03*
X74400000Y-39200000D03*
X81750000Y-20609700D03*
X36600000Y-23000000D03*
X97200000Y-42100000D03*
X62000000Y-29500000D03*
X43062500Y-42687500D03*
X25300000Y-35800000D03*
X41127498Y-45377498D03*
X67500000Y-19250000D03*
X18500000Y-21933333D03*
X35250000Y-22000000D03*
X63750000Y-32000000D03*
X98300000Y-37200000D03*
X67750000Y-20709700D03*
X39437500Y-42687500D03*
X91500000Y-19250000D03*
X41127498Y-39872502D03*
X58400000Y-41600000D03*
X19100000Y-35800000D03*
X24000000Y-22250000D03*
X34800000Y-14800000D03*
X53800000Y-19200000D03*
X33500000Y-27750000D03*
X73362500Y-44455000D03*
X78000000Y-30250000D03*
X20250000Y-28500000D03*
X22250000Y-38250000D03*
X87200000Y-29600000D03*
X51600000Y-19200000D03*
X16333333Y-37733333D03*
X60250000Y-32000000D03*
X22200000Y-33300000D03*
X60200000Y-34400000D03*
X86887500Y-45287500D03*
X58000000Y-19800000D03*
X85800000Y-41600000D03*
X80800000Y-24600000D03*
X98300000Y-43900000D03*
X77000000Y-34000000D03*
X75000000Y-30250000D03*
X80250000Y-18500000D03*
X58250000Y-43750000D03*
X98750000Y-20600000D03*
X90250000Y-18500000D03*
X72400000Y-42400000D03*
X21250000Y-24250000D03*
X59475000Y-45000000D03*
X71800000Y-19600000D03*
X36085750Y-22114250D03*
X97200000Y-38900000D03*
%TO.N,12V_BUS*%
X103600000Y-37200000D03*
X69200000Y-34200000D03*
X57200000Y-15200000D03*
X98600000Y-34800000D03*
X32800000Y-14800000D03*
X71200000Y-34800000D03*
X58200000Y-40600000D03*
X51800000Y-24200000D03*
X96400000Y-34800000D03*
X90000000Y-34800000D03*
X55600000Y-41800000D03*
X85600000Y-34800000D03*
X51600000Y-16750000D03*
%TO.N,5V_BUS*%
X71600000Y-15012500D03*
X100800000Y-33600000D03*
X85500000Y-40700000D03*
X103200000Y-29000000D03*
X80750000Y-43000000D03*
X99200000Y-34200000D03*
X70400000Y-36400000D03*
X97800000Y-33600000D03*
X97200000Y-34200000D03*
X71775000Y-43425000D03*
X103400000Y-33600000D03*
%TO.N,3V3_BUS*%
X95200000Y-37200000D03*
X103466667Y-22533333D03*
X99000000Y-32800000D03*
X96600000Y-43100000D03*
X81999826Y-40400000D03*
%TO.N,Net-(U1-EN)*%
X30000000Y-18200000D03*
X16466667Y-22533333D03*
%TD*%
D17*
%TO.N,5V_BUS*%
X71750000Y-43450000D02*
X71775000Y-43425000D01*
X71775000Y-43450000D02*
X71750000Y-43450000D01*
X71775000Y-45425000D02*
X71775000Y-43450000D01*
X55300000Y-46400000D02*
X70800000Y-46400000D01*
X54000000Y-41000000D02*
X54000000Y-45100000D01*
X54000000Y-45100000D02*
X55300000Y-46400000D01*
X54050000Y-40950000D02*
X54000000Y-41000000D01*
X70800000Y-46400000D02*
X71775000Y-45425000D01*
D18*
%TO.N,VBAT*%
X28466667Y-30133333D02*
X16466667Y-30133333D01*
X29850000Y-28750000D02*
X28466667Y-30133333D01*
%TO.N,12V_BUS*%
X51600000Y-16650000D02*
X53050000Y-15200000D01*
D17*
X61800000Y-34200000D02*
X58400000Y-37600000D01*
X101200000Y-34800000D02*
X98600000Y-34800000D01*
X51600000Y-13200000D02*
X51200000Y-12800000D01*
X51600000Y-16750000D02*
X51600000Y-13200000D01*
D18*
X55600000Y-28000000D02*
X51800000Y-24200000D01*
D17*
X96400000Y-34800000D02*
X90000000Y-34800000D01*
X33200000Y-12800000D02*
X32800000Y-13200000D01*
X32800000Y-13200000D02*
X32800000Y-14800000D01*
X58400000Y-37600000D02*
X58400000Y-40400000D01*
D18*
X51600000Y-16750000D02*
X51600000Y-16650000D01*
D17*
X103600000Y-37200000D02*
X101200000Y-34800000D01*
X51200000Y-12800000D02*
X33200000Y-12800000D01*
X85600000Y-34800000D02*
X71200000Y-34800000D01*
D18*
X55600000Y-41800000D02*
X55600000Y-28000000D01*
D17*
X58400000Y-40400000D02*
X58200000Y-40600000D01*
D18*
X53050000Y-15200000D02*
X57200000Y-15200000D01*
D17*
X69200000Y-34200000D02*
X61800000Y-34200000D01*
%TO.N,5V_BUS*%
X87949883Y-33600000D02*
X97800000Y-33600000D01*
D19*
X70400000Y-16212500D02*
X71600000Y-15012500D01*
D17*
X99200000Y-34200000D02*
X103200000Y-30200000D01*
D19*
X71775000Y-43425000D02*
X72150000Y-43800000D01*
D17*
X85500000Y-40700000D02*
X85800000Y-40400000D01*
D19*
X70400000Y-36400000D02*
X70400000Y-16212500D01*
D17*
X103400000Y-33600000D02*
X100800000Y-33600000D01*
X89400000Y-34200000D02*
X97200000Y-34200000D01*
X103200000Y-30200000D02*
X103200000Y-29000000D01*
X81312500Y-42437500D02*
X81312500Y-40237383D01*
D19*
X79950000Y-43800000D02*
X80750000Y-43000000D01*
D17*
X81312500Y-40237383D02*
X87949883Y-33600000D01*
D19*
X72150000Y-43800000D02*
X79950000Y-43800000D01*
D17*
X80750000Y-43000000D02*
X81312500Y-42437500D01*
X85800000Y-37800000D02*
X89400000Y-34200000D01*
X85800000Y-40400000D02*
X85800000Y-37800000D01*
%TO.N,3V3_BUS*%
X95200000Y-37200000D02*
X99000000Y-33400000D01*
X102600000Y-23400000D02*
X103466667Y-22533333D01*
X96600000Y-45600000D02*
X95800000Y-46400000D01*
X95800000Y-46400000D02*
X82800000Y-46400000D01*
X102600000Y-29200000D02*
X102600000Y-23400000D01*
X81999826Y-45599826D02*
X81999826Y-40400000D01*
X82800000Y-46400000D02*
X81999826Y-45599826D01*
X96600000Y-43100000D02*
X96600000Y-45600000D01*
X99000000Y-32800000D02*
X102600000Y-29200000D01*
X99000000Y-33400000D02*
X99000000Y-32800000D01*
%TO.N,Net-(U1-EN)*%
X25400000Y-18200000D02*
X21066667Y-22533333D01*
X30000000Y-18200000D02*
X25400000Y-18200000D01*
X21066667Y-22533333D02*
X16466667Y-22533333D01*
%TD*%
M02*
