M48
; DRILL file {KiCad 9.0.4} date 2025-11-01T22:14:08-0400
; FORMAT={-:-/ absolute / metric / decimal}
; #@! TF.CreationDate,2025-11-01T22:14:08-04:00
; #@! TF.GenerationSoftware,Kicad,Pcbnew,9.0.4
; #@! TF.FileFunction,Plated,1,4,PTH
FMAT,2
METRIC
; #@! TA.AperFunction,Plated,PTH,ViaDrill
T1C0.300
; #@! TA.AperFunction,Plated,PTH,ComponentDrill
T2C0.500
; #@! TA.AperFunction,Plated,PTH,ComponentDrill
T3C0.750
; #@! TA.AperFunction,Plated,PTH,ComponentDrill
T4C1.800
; #@! TA.AperFunction,Plated,PTH,ComponentDrill
T5C2.500
%
G90
G05
T1
X16.333Y-37.733
X16.467Y-22.533
X16.467Y-30.133
X18.5Y-21.933
X19.1Y-35.8
X20.25Y-28.5
X21.25Y-20.5
X21.25Y-24.25
X22.2Y-33.3
X22.25Y-38.25
X24.0Y-22.25
X25.3Y-35.8
X28.8Y-31.6
X29.85Y-28.75
X30.0Y-18.2
X32.8Y-14.8
X33.5Y-25.0
X33.5Y-26.5
X33.5Y-27.75
X33.5Y-29.5
X34.75Y-30.5
X34.8Y-14.8
X35.0Y-21.0
X35.25Y-22.0
X36.086Y-22.114
X36.6Y-23.0
X39.438Y-42.688
X41.127Y-39.873
X41.127Y-45.377
X42.0Y-30.4
X43.062Y-42.688
X51.6Y-16.75
X51.6Y-19.2
X51.6Y-22.0
X51.75Y-27.9
X51.8Y-24.2
X52.8Y-17.45
X52.8Y-23.3
X53.8Y-19.2
X53.8Y-22.0
X54.05Y-40.95
X55.6Y-41.8
X57.2Y-15.2
X57.4Y-24.8
X58.0Y-19.8
X58.2Y-40.6
X58.25Y-43.75
X58.4Y-41.6
X59.475Y-45.0
X60.2Y-34.4
X60.25Y-32.0
X62.0Y-29.5
X63.75Y-32.0
X66.25Y-18.75
X67.0Y-25.0
X67.5Y-19.25
X67.75Y-20.71
X69.2Y-34.2
X70.4Y-36.4
X71.2Y-34.8
X71.6Y-15.012
X71.775Y-43.425
X71.8Y-19.6
X72.4Y-39.2
X72.4Y-42.4
X72.6Y-24.6
X73.362Y-44.455
X73.4Y-37.4
X74.4Y-39.2
X74.4Y-42.4
X75.0Y-30.25
X76.5Y-27.75
X77.0Y-34.0
X78.0Y-30.25
X80.25Y-18.5
X80.75Y-43.0
X80.8Y-24.6
X81.75Y-19.0
X81.75Y-20.61
X82.0Y-40.4
X85.5Y-40.7
X85.6Y-34.8
X85.75Y-43.712
X85.8Y-41.6
X86.888Y-45.288
X87.2Y-29.6
X90.0Y-34.8
X90.25Y-18.5
X90.6Y-24.8
X91.4Y-23.2
X91.5Y-19.25
X92.0Y-20.5
X94.4Y-24.8
X95.2Y-37.2
X96.4Y-34.8
X96.6Y-43.1
X97.2Y-34.2
X97.2Y-38.9
X97.2Y-42.1
X97.25Y-18.5
X97.8Y-33.6
X98.3Y-37.2
X98.3Y-43.9
X98.5Y-19.25
X98.6Y-34.8
X98.75Y-20.6
X99.0Y-23.2
X99.0Y-32.8
X99.2Y-24.8
X99.2Y-34.2
X99.3Y-39.0
X99.3Y-42.2
X100.8Y-33.6
X103.2Y-29.0
X103.4Y-33.6
X103.467Y-22.533
X103.6Y-37.2
T2
X13.65Y-15.6
X13.65Y-43.4
X14.199Y-14.274
X14.199Y-16.926
X14.199Y-42.074
X14.199Y-44.726
X15.525Y-13.725
X15.525Y-17.475
X15.525Y-41.525
X15.525Y-45.275
X16.851Y-14.274
X16.851Y-16.926
X16.851Y-42.074
X16.851Y-44.726
X17.4Y-15.6
X17.4Y-43.4
X102.399Y-15.674
X102.45Y-43.4
X102.948Y-14.348
X102.948Y-17.0
X102.999Y-42.074
X102.999Y-44.726
X104.274Y-13.799
X104.274Y-17.549
X104.325Y-41.525
X104.325Y-45.275
X105.6Y-14.348
X105.6Y-17.0
X105.651Y-42.074
X105.651Y-44.726
X106.149Y-15.674
X106.2Y-43.4
T3
X64.263Y-20.71
X66.263Y-20.71
X78.263Y-20.61
X80.263Y-20.61
X88.225Y-20.562
X90.225Y-20.562
X95.175Y-20.562
X97.175Y-20.562
T4
X22.2Y-35.8
X22.2Y-40.8
T5
X15.525Y-15.6
X15.525Y-43.4
X104.274Y-15.674
X104.325Y-43.4
M30
