%TF.GenerationSoftware,KiCad,Pcbnew,9.0.4*%
%TF.CreationDate,2025-11-21T04:25:38-05:00*%
%TF.ProjectId,pdb_v2,7064625f-7632-42e6-9b69-6361645f7063,v1*%
%TF.SameCoordinates,Original*%
%TF.FileFunction,Soldermask,Top*%
%TF.FilePolarity,Negative*%
%FSLAX46Y46*%
G04 Gerber Fmt 4.6, Leading zero omitted, Abs format (unit mm)*
G04 Created by KiCad (PCBNEW 9.0.4) date 2025-11-21 04:25:38*
%MOMM*%
%LPD*%
G01*
G04 APERTURE LIST*
G04 Aperture macros list*
%AMRoundRect*
0 Rectangle with rounded corners*
0 $1 Rounding radius*
0 $2 $3 $4 $5 $6 $7 $8 $9 X,Y pos of 4 corners*
0 Add a 4 corners polygon primitive as box body*
4,1,4,$2,$3,$4,$5,$6,$7,$8,$9,$2,$3,0*
0 Add four circle primitives for the rounded corners*
1,1,$1+$1,$2,$3*
1,1,$1+$1,$4,$5*
1,1,$1+$1,$6,$7*
1,1,$1+$1,$8,$9*
0 Add four rect primitives between the rounded corners*
20,1,$1+$1,$2,$3,$4,$5,0*
20,1,$1+$1,$4,$5,$6,$7,0*
20,1,$1+$1,$6,$7,$8,$9,0*
20,1,$1+$1,$8,$9,$2,$3,0*%
G04 Aperture macros list end*
%ADD10R,0.914400X3.708400*%
%ADD11R,5.562600X5.791200*%
%ADD12C,0.600000*%
%ADD13R,4.200000X4.200000*%
%ADD14R,1.500000X0.900000*%
%ADD15R,0.900000X1.500000*%
%ADD16C,1.000000*%
%ADD17RoundRect,0.250000X1.750000X1.000000X-1.750000X1.000000X-1.750000X-1.000000X1.750000X-1.000000X0*%
%ADD18RoundRect,0.250000X0.350000X0.625000X-0.350000X0.625000X-0.350000X-0.625000X0.350000X-0.625000X0*%
%ADD19O,1.200000X1.750000*%
%ADD20R,0.508000X0.355600*%
%ADD21O,1.600000X2.000000*%
%ADD22RoundRect,0.237500X0.287500X0.237500X-0.287500X0.237500X-0.287500X-0.237500X0.287500X-0.237500X0*%
%ADD23RoundRect,0.237500X-0.300000X-0.237500X0.300000X-0.237500X0.300000X0.237500X-0.300000X0.237500X0*%
%ADD24RoundRect,0.250000X-1.000000X1.500000X-1.000000X-1.500000X1.000000X-1.500000X1.000000X1.500000X0*%
%ADD25RoundRect,0.250000X-0.412500X-1.100000X0.412500X-1.100000X0.412500X1.100000X-0.412500X1.100000X0*%
%ADD26C,5.000000*%
%ADD27RoundRect,0.237500X0.250000X0.237500X-0.250000X0.237500X-0.250000X-0.237500X0.250000X-0.237500X0*%
%ADD28R,1.100000X0.599999*%
%ADD29RoundRect,0.250000X-0.625000X0.350000X-0.625000X-0.350000X0.625000X-0.350000X0.625000X0.350000X0*%
%ADD30O,1.750000X1.200000*%
%ADD31C,2.000000*%
%ADD32R,0.990600X2.794000*%
%ADD33R,2.180400X2.210000*%
%ADD34RoundRect,0.250000X-0.412500X-0.650000X0.412500X-0.650000X0.412500X0.650000X-0.412500X0.650000X0*%
%ADD35RoundRect,0.237500X-0.237500X0.250000X-0.237500X-0.250000X0.237500X-0.250000X0.237500X0.250000X0*%
%ADD36RoundRect,0.760000X-1.140000X1.140000X-1.140000X-1.140000X1.140000X-1.140000X1.140000X1.140000X0*%
%ADD37C,3.800000*%
%ADD38RoundRect,0.250000X-1.000000X1.750000X-1.000000X-1.750000X1.000000X-1.750000X1.000000X1.750000X0*%
%ADD39R,2.700000X3.600000*%
%ADD40RoundRect,0.250000X-0.325000X-0.450000X0.325000X-0.450000X0.325000X0.450000X-0.325000X0.450000X0*%
%ADD41RoundRect,0.118000X-0.594000X-0.354000X0.594000X-0.354000X0.594000X0.354000X-0.594000X0.354000X0*%
%ADD42RoundRect,0.237500X0.237500X-0.300000X0.237500X0.300000X-0.237500X0.300000X-0.237500X-0.300000X0*%
%ADD43RoundRect,0.250000X-1.100000X0.412500X-1.100000X-0.412500X1.100000X-0.412500X1.100000X0.412500X0*%
%ADD44R,1.700000X1.700000*%
%ADD45C,1.700000*%
%ADD46RoundRect,0.237500X0.300000X0.237500X-0.300000X0.237500X-0.300000X-0.237500X0.300000X-0.237500X0*%
%ADD47R,1.270000X1.778000*%
%ADD48RoundRect,0.237500X0.237500X-0.250000X0.237500X0.250000X-0.237500X0.250000X-0.237500X-0.250000X0*%
%ADD49RoundRect,0.237500X-0.250000X-0.237500X0.250000X-0.237500X0.250000X0.237500X-0.250000X0.237500X0*%
%ADD50R,2.794000X0.990600*%
%ADD51R,0.901700X0.508000*%
%ADD52R,1.600200X4.495800*%
%ADD53RoundRect,0.250000X0.550000X-1.250000X0.550000X1.250000X-0.550000X1.250000X-0.550000X-1.250000X0*%
%ADD54RoundRect,0.237500X-0.237500X0.300000X-0.237500X-0.300000X0.237500X-0.300000X0.237500X0.300000X0*%
G04 APERTURE END LIST*
D10*
%TO.C,Q1*%
X29637500Y-36787500D03*
D11*
X31832499Y-43137500D03*
D10*
X34027498Y-36787500D03*
%TD*%
D12*
%TO.C,U2*%
X72756795Y-61967500D03*
X72756795Y-63492500D03*
X73519295Y-61205000D03*
X73519295Y-62730000D03*
X73519295Y-64255000D03*
X74281795Y-61967500D03*
D13*
X74281795Y-62730000D03*
D12*
X74281795Y-63492500D03*
X75044295Y-61205000D03*
X75044295Y-62730000D03*
X75044295Y-64255000D03*
X75806795Y-61967500D03*
X75806795Y-63492500D03*
D14*
X64851795Y-70070000D03*
X64851795Y-68800000D03*
X64851795Y-67530000D03*
X64851795Y-66260000D03*
X64851795Y-64990000D03*
X64851795Y-63720000D03*
X64851795Y-62450000D03*
X64851795Y-61180000D03*
X64851795Y-59910000D03*
X64851795Y-58640000D03*
X64851795Y-57370000D03*
X64851795Y-56100000D03*
X64851795Y-54830000D03*
X64851795Y-53560000D03*
D15*
X67881795Y-52310000D03*
X69151795Y-52310000D03*
X70421795Y-52310000D03*
X71691795Y-52310000D03*
X72961795Y-52310000D03*
X74231795Y-52310000D03*
X75501795Y-52310000D03*
X76771795Y-52310000D03*
X78041795Y-52310000D03*
X79311795Y-52310000D03*
D14*
X82351795Y-53560000D03*
X82351795Y-54830000D03*
X82351795Y-56100000D03*
X82351795Y-57370000D03*
X82351795Y-58640000D03*
X82351795Y-59910000D03*
X82351795Y-61180000D03*
X82351795Y-62450000D03*
X82351795Y-63720000D03*
X82351795Y-64990000D03*
X82351795Y-66260000D03*
X82351795Y-67530000D03*
X82351795Y-68800000D03*
X82351795Y-70070000D03*
%TD*%
D16*
%TO.C,12V1*%
X51900000Y-28200000D03*
%TD*%
%TO.C,SW_12V1*%
X40200000Y-28300000D03*
%TD*%
%TO.C,GND1*%
X15600000Y-16100000D03*
%TD*%
D17*
%TO.C,C9*%
X29137500Y-22337500D03*
X21137500Y-22337500D03*
%TD*%
D18*
%TO.C,J2*%
X69487500Y-17475000D03*
D19*
X67487500Y-17475000D03*
%TD*%
D20*
%TO.C,D9*%
X83074900Y-24725001D03*
X84675100Y-24725001D03*
%TD*%
D21*
%TO.C,J8*%
X30180000Y-52200000D03*
X32720000Y-52200000D03*
X35260000Y-52200000D03*
X37800000Y-52200000D03*
%TD*%
D22*
%TO.C,D6*%
X62862500Y-63000000D03*
X61112500Y-63000000D03*
%TD*%
D23*
%TO.C,C21*%
X68100000Y-37687500D03*
X69825000Y-37687500D03*
%TD*%
D22*
%TO.C,D5*%
X62862500Y-58150000D03*
X61112500Y-58150000D03*
%TD*%
D23*
%TO.C,C12*%
X33575000Y-22900000D03*
X35300000Y-22900000D03*
%TD*%
D24*
%TO.C,C3*%
X64937500Y-25334700D03*
X64937500Y-31834700D03*
%TD*%
D16*
%TO.C,EN_3V3*%
X87987500Y-41625000D03*
%TD*%
D25*
%TO.C,C11*%
X31487500Y-25500000D03*
X34612500Y-25500000D03*
%TD*%
D26*
%TO.C,H2*%
X89044497Y-15100000D03*
%TD*%
D27*
%TO.C,R3*%
X87812500Y-65650000D03*
X85987500Y-65650000D03*
%TD*%
D28*
%TO.C,U1*%
X33521516Y-19550998D03*
X33521516Y-20500999D03*
X33521516Y-21451000D03*
X36221500Y-21451000D03*
X36221500Y-20500999D03*
X36221500Y-19550998D03*
%TD*%
D26*
%TO.C,H1*%
X15110000Y-75100000D03*
%TD*%
D29*
%TO.C,J7*%
X87500000Y-56500000D03*
D30*
X87500000Y-58500000D03*
X87500000Y-60500000D03*
%TD*%
D27*
%TO.C,R1*%
X31712500Y-31600000D03*
X29887500Y-31600000D03*
%TD*%
D31*
%TO.C,SW1*%
X49600000Y-65200000D03*
X56100000Y-65200000D03*
X49600000Y-69700000D03*
X56100000Y-69700000D03*
%TD*%
D32*
%TO.C,F6*%
X85972200Y-27275001D03*
X82975000Y-27275001D03*
%TD*%
D33*
%TO.C,D1*%
X26200000Y-30200000D03*
X22485600Y-30200000D03*
%TD*%
D32*
%TO.C,F4*%
X82476400Y-30775001D03*
X85473600Y-30775001D03*
%TD*%
D34*
%TO.C,C14*%
X50337500Y-22150000D03*
X53462500Y-22150000D03*
%TD*%
D35*
%TO.C,R4*%
X72125000Y-29861251D03*
X72125000Y-31686251D03*
%TD*%
D25*
%TO.C,C23*%
X77975000Y-41787500D03*
X81100000Y-41787500D03*
%TD*%
D36*
%TO.C,J1*%
X23400000Y-35900000D03*
D37*
X23400000Y-40900000D03*
%TD*%
D38*
%TO.C,C1*%
X41127498Y-34687500D03*
X41127498Y-42687500D03*
%TD*%
D39*
%TO.C,L1*%
X38800000Y-20787500D03*
X47500000Y-20787500D03*
%TD*%
D34*
%TO.C,C20*%
X66600000Y-43287500D03*
X69725000Y-43287500D03*
%TD*%
D40*
%TO.C,D3*%
X61712500Y-21584700D03*
X63762500Y-21584700D03*
%TD*%
D25*
%TO.C,C22*%
X77975000Y-38537500D03*
X81100000Y-38537500D03*
%TD*%
D41*
%TO.C,D2*%
X29952498Y-33487500D03*
X33302498Y-33487500D03*
%TD*%
D42*
%TO.C,C5*%
X84350000Y-67362500D03*
X84350000Y-65637500D03*
%TD*%
D27*
%TO.C,R2*%
X62600000Y-23384700D03*
X60775000Y-23384700D03*
%TD*%
D42*
%TO.C,C13*%
X36387500Y-17850000D03*
X36387500Y-16125000D03*
%TD*%
D23*
%TO.C,C4*%
X67275000Y-21825000D03*
X69000000Y-21825000D03*
%TD*%
D43*
%TO.C,C16*%
X86750000Y-67487500D03*
X86750000Y-70612500D03*
%TD*%
D16*
%TO.C,SW_3V3*%
X72437500Y-35775000D03*
%TD*%
D44*
%TO.C,J3*%
X18085000Y-55860000D03*
D45*
X18085000Y-58400000D03*
X18085000Y-60940000D03*
X18085000Y-63480000D03*
X18085000Y-66020000D03*
X18085000Y-68560000D03*
%TD*%
D29*
%TO.C,J6*%
X87500000Y-46900000D03*
D30*
X87500000Y-48900000D03*
X87500000Y-50900000D03*
%TD*%
D16*
%TO.C,FB_3V3*%
X63500000Y-37250000D03*
%TD*%
D46*
%TO.C,C6*%
X62964295Y-54469647D03*
X61239295Y-54469647D03*
%TD*%
D47*
%TO.C,F1*%
X23955200Y-45400000D03*
X26800000Y-45400000D03*
%TD*%
D48*
%TO.C,R6*%
X34637500Y-17912500D03*
X34637500Y-16087500D03*
%TD*%
D40*
%TO.C,D8*%
X75150000Y-30875001D03*
X77200000Y-30875001D03*
%TD*%
D16*
%TO.C,3V3*%
X88000000Y-36541666D03*
%TD*%
D49*
%TO.C,R8*%
X61189295Y-52850000D03*
X63014295Y-52850000D03*
%TD*%
D23*
%TO.C,C2*%
X40275000Y-31662500D03*
X42000000Y-31662500D03*
%TD*%
D50*
%TO.C,F2*%
X62837500Y-18084700D03*
X62837500Y-15087500D03*
%TD*%
D35*
%TO.C,R5*%
X32887500Y-16087500D03*
X32887500Y-17912500D03*
%TD*%
D16*
%TO.C,EN_12V1*%
X15577326Y-21400000D03*
%TD*%
D51*
%TO.C,U3*%
X67259000Y-39337498D03*
X67259000Y-40287499D03*
X67259000Y-41237500D03*
X69862500Y-41237500D03*
X69862500Y-40287499D03*
X69862500Y-39337498D03*
%TD*%
D31*
%TO.C,SW2*%
X56100000Y-59750000D03*
X49600000Y-59750000D03*
X56100000Y-55250000D03*
X49600000Y-55250000D03*
%TD*%
D27*
%TO.C,R9*%
X62900000Y-59800000D03*
X61075000Y-59800000D03*
%TD*%
D16*
%TO.C,FB_12V1*%
X27600000Y-15350000D03*
%TD*%
%TO.C,VBAT1*%
X15577326Y-27000000D03*
%TD*%
D20*
%TO.C,D4*%
X63637600Y-19734700D03*
X62037400Y-19734700D03*
%TD*%
D52*
%TO.C,L3*%
X71887499Y-40275000D03*
X75787501Y-40275000D03*
%TD*%
D27*
%TO.C,R10*%
X62900000Y-61400000D03*
X61075000Y-61400000D03*
%TD*%
D25*
%TO.C,C15*%
X50337500Y-19300000D03*
X53462500Y-19300000D03*
%TD*%
%TO.C,C10*%
X31487500Y-28750000D03*
X34612500Y-28750000D03*
%TD*%
D53*
%TO.C,C7*%
X79175000Y-29075001D03*
X79175000Y-24675001D03*
%TD*%
D23*
%TO.C,C24*%
X78525000Y-21215950D03*
X80250000Y-21215950D03*
%TD*%
D35*
%TO.C,R7*%
X31337500Y-18187500D03*
X31337500Y-20012500D03*
%TD*%
D54*
%TO.C,C17*%
X84351795Y-69037500D03*
X84351795Y-70762500D03*
%TD*%
D18*
%TO.C,J5*%
X80137500Y-17465950D03*
D19*
X78137500Y-17465950D03*
%TD*%
M02*
