%TF.GenerationSoftware,KiCad,Pcbnew,9.0.4*%
%TF.CreationDate,2025-11-21T04:25:38-05:00*%
%TF.ProjectId,pdb_v2,7064625f-7632-42e6-9b69-6361645f7063,v1*%
%TF.SameCoordinates,Original*%
%TF.FileFunction,Legend,Bot*%
%TF.FilePolarity,Positive*%
%FSLAX46Y46*%
G04 Gerber Fmt 4.6, Leading zero omitted, Abs format (unit mm)*
G04 Created by KiCad (PCBNEW 9.0.4) date 2025-11-21 04:25:38*
%MOMM*%
%LPD*%
G01*
G04 APERTURE LIST*
%ADD10C,0.200000*%
%ADD11C,0.000000*%
G04 APERTURE END LIST*
D10*
G36*
X73970197Y-43975207D02*
G01*
X74022031Y-43991436D01*
X74058891Y-44015776D01*
X74085351Y-44050359D01*
X74102953Y-44100182D01*
X74109636Y-44170626D01*
X74109636Y-45402685D01*
X74103789Y-45465896D01*
X74087921Y-45513985D01*
X74063441Y-45550403D01*
X74029664Y-45578313D01*
X73989677Y-45595134D01*
X73941573Y-45601010D01*
X73895704Y-45595202D01*
X73856381Y-45578334D01*
X73821981Y-45549914D01*
X73796847Y-45513022D01*
X73780586Y-45464359D01*
X73774599Y-45400438D01*
X73774599Y-44950738D01*
X73476756Y-44950738D01*
X73322579Y-44941329D01*
X73198424Y-44915484D01*
X73098953Y-44875908D01*
X73019753Y-44824025D01*
X72954260Y-44755611D01*
X72906704Y-44672934D01*
X72876729Y-44573050D01*
X72866654Y-44458833D01*
X73205522Y-44458833D01*
X73216307Y-44539929D01*
X73245881Y-44599614D01*
X73294068Y-44644883D01*
X73363495Y-44676990D01*
X73445814Y-44694148D01*
X73556484Y-44700633D01*
X73774599Y-44700633D01*
X73774599Y-44219182D01*
X73556484Y-44219182D01*
X73441152Y-44225153D01*
X73359748Y-44240574D01*
X73304165Y-44262435D01*
X73267742Y-44288937D01*
X73233740Y-44335889D01*
X73212870Y-44391700D01*
X73205522Y-44458833D01*
X72866654Y-44458833D01*
X72866034Y-44451799D01*
X72875851Y-44340657D01*
X72903920Y-44244681D01*
X72950834Y-44159271D01*
X73014906Y-44088756D01*
X73094031Y-44034489D01*
X73188211Y-43997605D01*
X73300227Y-43977323D01*
X73476855Y-43969077D01*
X73898445Y-43969077D01*
X73970197Y-43975207D01*
G37*
G36*
X72262459Y-44392933D02*
G01*
X72378861Y-44425225D01*
X72483641Y-44478299D01*
X72570367Y-44548909D01*
X72639651Y-44636470D01*
X72691641Y-44742252D01*
X72723000Y-44859182D01*
X72733879Y-44991380D01*
X72723136Y-45122457D01*
X72692235Y-45237870D01*
X72640465Y-45342338D01*
X72569774Y-45431212D01*
X72482013Y-45503407D01*
X72378960Y-45557046D01*
X72264131Y-45589609D01*
X72130873Y-45601010D01*
X71996573Y-45589759D01*
X71880708Y-45557632D01*
X71776741Y-45504469D01*
X71689301Y-45432971D01*
X71619015Y-45344470D01*
X71566840Y-45238749D01*
X71535434Y-45122115D01*
X71524602Y-44991966D01*
X71834118Y-44991966D01*
X71844223Y-45109822D01*
X71871893Y-45202065D01*
X71914736Y-45274115D01*
X71958724Y-45318883D01*
X72008512Y-45350221D01*
X72065273Y-45369292D01*
X72130873Y-45375916D01*
X72189186Y-45370569D01*
X72240701Y-45355099D01*
X72286768Y-45329705D01*
X72344288Y-45274590D01*
X72388654Y-45196251D01*
X72414861Y-45104390D01*
X72424265Y-44991966D01*
X72414711Y-44878404D01*
X72388061Y-44785434D01*
X72359508Y-44729676D01*
X72325235Y-44685765D01*
X72285186Y-44651980D01*
X72213981Y-44618351D01*
X72130873Y-44606844D01*
X72045437Y-44618434D01*
X71974596Y-44651832D01*
X71914736Y-44708156D01*
X71871999Y-44779875D01*
X71844280Y-44872569D01*
X71834118Y-44991966D01*
X71524602Y-44991966D01*
X71535359Y-44860730D01*
X71566346Y-44744792D01*
X71618010Y-44639735D01*
X71688213Y-44551254D01*
X71775816Y-44479534D01*
X71880708Y-44425811D01*
X71997414Y-44393124D01*
X72130873Y-44381750D01*
X72262459Y-44392933D01*
G37*
G36*
X71141294Y-44570696D02*
G01*
X70947315Y-45230152D01*
X70771141Y-44617884D01*
X70728310Y-44483941D01*
X70708959Y-44449765D01*
X70675388Y-44414771D01*
X70631229Y-44390611D01*
X70568853Y-44381750D01*
X70505614Y-44390645D01*
X70461329Y-44414771D01*
X70427487Y-44450038D01*
X70406726Y-44486090D01*
X70363301Y-44617884D01*
X70187028Y-45230249D01*
X69990972Y-44570696D01*
X69958725Y-44465281D01*
X69942331Y-44434682D01*
X69916882Y-44407151D01*
X69882768Y-44388690D01*
X69831911Y-44381750D01*
X69780087Y-44391252D01*
X69735565Y-44419852D01*
X69704813Y-44461662D01*
X69694811Y-44509440D01*
X69701825Y-44560890D01*
X69729333Y-44649342D01*
X69976134Y-45363899D01*
X70026088Y-45495692D01*
X70048806Y-45533777D01*
X70082867Y-45568770D01*
X70126946Y-45592340D01*
X70189303Y-45601010D01*
X70253639Y-45591765D01*
X70299202Y-45566523D01*
X70333884Y-45528328D01*
X70358157Y-45482503D01*
X70399307Y-45354227D01*
X70568853Y-44783773D01*
X70732959Y-45354227D01*
X70770290Y-45467439D01*
X70805565Y-45538386D01*
X70836759Y-45571997D01*
X70881306Y-45593159D01*
X70944051Y-45601010D01*
X70992038Y-45595855D01*
X71030208Y-45581471D01*
X71062564Y-45558099D01*
X71089362Y-45525979D01*
X71130709Y-45441177D01*
X71158308Y-45363899D01*
X71402933Y-44649342D01*
X71432650Y-44555179D01*
X71439631Y-44509440D01*
X71430010Y-44463308D01*
X71399965Y-44420926D01*
X71355958Y-44391618D01*
X71302531Y-44381750D01*
X71253426Y-44387400D01*
X71220247Y-44402227D01*
X71198469Y-44425030D01*
X71173268Y-44476289D01*
X71141294Y-44570696D01*
G37*
G36*
X69101390Y-44392931D02*
G01*
X69217925Y-44425127D01*
X69289765Y-44458689D01*
X69352526Y-44500154D01*
X69407156Y-44549691D01*
X69474254Y-44638028D01*
X69524078Y-44744401D01*
X69553808Y-44861114D01*
X69564041Y-44990305D01*
X69552868Y-45129916D01*
X69521240Y-45248492D01*
X69470800Y-45349746D01*
X69401518Y-45436488D01*
X69315474Y-45506341D01*
X69213310Y-45557387D01*
X69091810Y-45589572D01*
X68946691Y-45601010D01*
X68823244Y-45592389D01*
X68720465Y-45568281D01*
X68627922Y-45530072D01*
X68556854Y-45485825D01*
X68498273Y-45433229D01*
X68459221Y-45381680D01*
X68433913Y-45327900D01*
X68426677Y-45286230D01*
X68434485Y-45243661D01*
X68456452Y-45213445D01*
X68489788Y-45194338D01*
X68533905Y-45187556D01*
X68574639Y-45193162D01*
X68602356Y-45208170D01*
X68694251Y-45291701D01*
X68771210Y-45349147D01*
X68814013Y-45372528D01*
X68857368Y-45388421D01*
X68903113Y-45397675D01*
X68955594Y-45400926D01*
X69032330Y-45391052D01*
X69101696Y-45361750D01*
X69160476Y-45313995D01*
X69207934Y-45245295D01*
X69237860Y-45164022D01*
X69248986Y-45069538D01*
X68661213Y-45069538D01*
X68549516Y-45059983D01*
X68475543Y-45035637D01*
X68440648Y-45006817D01*
X68417811Y-44959977D01*
X68409839Y-44894464D01*
X68707704Y-44894464D01*
X69248689Y-44894464D01*
X69230829Y-44798973D01*
X69201391Y-44726013D01*
X69161937Y-44670933D01*
X69109934Y-44628490D01*
X69049732Y-44603123D01*
X68978741Y-44594339D01*
X68904039Y-44603153D01*
X68842143Y-44628296D01*
X68790103Y-44669761D01*
X68751198Y-44724273D01*
X68723116Y-44797442D01*
X68707704Y-44894464D01*
X68409839Y-44894464D01*
X68408971Y-44887332D01*
X68415854Y-44807464D01*
X68436726Y-44727915D01*
X68472477Y-44647681D01*
X68521221Y-44574951D01*
X68584326Y-44511230D01*
X68663488Y-44455902D01*
X68751318Y-44415648D01*
X68852216Y-44390553D01*
X68968849Y-44381750D01*
X69101390Y-44392931D01*
G37*
G36*
X67868778Y-45167137D02*
G01*
X67868778Y-45416362D01*
X67874396Y-45476224D01*
X67889569Y-45521171D01*
X67912895Y-45554702D01*
X67944783Y-45580371D01*
X67981530Y-45595706D01*
X68024673Y-45601010D01*
X68067015Y-45595657D01*
X68103033Y-45580157D01*
X68134275Y-45554115D01*
X68157000Y-45520346D01*
X68171758Y-45475555D01*
X68177205Y-45416460D01*
X68177205Y-44585937D01*
X68169425Y-44503606D01*
X68149300Y-44447903D01*
X68119596Y-44411391D01*
X68079924Y-44389564D01*
X68026849Y-44381750D01*
X67977999Y-44387694D01*
X67942142Y-44403890D01*
X67915962Y-44429719D01*
X67890599Y-44483257D01*
X67879065Y-44559461D01*
X67826161Y-44483307D01*
X67772530Y-44429230D01*
X67731582Y-44403668D01*
X67681080Y-44387538D01*
X67618514Y-44381750D01*
X67524641Y-44393444D01*
X67431757Y-44429328D01*
X67378966Y-44466814D01*
X67350271Y-44508451D01*
X67340851Y-44556237D01*
X67350775Y-44607543D01*
X67380022Y-44648463D01*
X67421619Y-44676099D01*
X67464696Y-44684806D01*
X67545414Y-44664583D01*
X67607563Y-44648989D01*
X67657191Y-44644360D01*
X67717829Y-44653240D01*
X67763825Y-44678163D01*
X67799304Y-44718423D01*
X67828122Y-44779182D01*
X67846971Y-44849962D01*
X67859974Y-44939600D01*
X67868778Y-45167137D01*
G37*
G36*
X66458288Y-43975350D02*
G01*
X66508655Y-43991954D01*
X66544261Y-44016949D01*
X66569624Y-44052063D01*
X66586467Y-44101742D01*
X66592830Y-44170919D01*
X66592830Y-45344653D01*
X66588919Y-45418984D01*
X66578784Y-45472050D01*
X66556768Y-45515711D01*
X66518443Y-45548742D01*
X66465761Y-45568213D01*
X66381639Y-45576000D01*
X65953323Y-45576000D01*
X65844075Y-45572255D01*
X65751826Y-45561833D01*
X65664719Y-45542295D01*
X65584555Y-45512692D01*
X65509928Y-45472149D01*
X65441025Y-45419879D01*
X65364895Y-45338778D01*
X65304221Y-45248030D01*
X65258382Y-45147574D01*
X65225383Y-45032510D01*
X65206522Y-44909638D01*
X65199862Y-44768533D01*
X65199974Y-44766481D01*
X65539251Y-44766481D01*
X65547385Y-44906103D01*
X65569739Y-45018922D01*
X65603897Y-45109531D01*
X65648442Y-45181811D01*
X65703059Y-45238749D01*
X65742022Y-45266283D01*
X65788525Y-45287402D01*
X65884080Y-45309091D01*
X66011981Y-45313390D01*
X66257794Y-45313390D01*
X66257794Y-44231687D01*
X66044031Y-44231687D01*
X65900059Y-44240358D01*
X65788624Y-44263732D01*
X65724227Y-44293127D01*
X65665411Y-44341611D01*
X65611263Y-44412915D01*
X65574321Y-44494632D01*
X65548925Y-44609240D01*
X65539251Y-44766481D01*
X65199974Y-44766481D01*
X65208101Y-44617955D01*
X65231462Y-44487221D01*
X65268362Y-44373654D01*
X65317863Y-44274931D01*
X65379719Y-44189155D01*
X65454379Y-44114939D01*
X65522805Y-44064154D01*
X65595232Y-44026000D01*
X65672395Y-43999754D01*
X65798641Y-43977367D01*
X65959950Y-43969077D01*
X66388168Y-43969077D01*
X66458288Y-43975350D01*
G37*
G36*
X64629894Y-44554283D02*
G01*
X64629894Y-45416460D01*
X64635473Y-45475522D01*
X64650614Y-45520346D01*
X64674012Y-45554213D01*
X64705936Y-45580176D01*
X64742681Y-45595660D01*
X64785790Y-45601010D01*
X64828886Y-45595507D01*
X64865094Y-45579639D01*
X64896083Y-45553041D01*
X64918599Y-45518695D01*
X64933108Y-45474138D01*
X64938421Y-45416460D01*
X64938421Y-44562978D01*
X64933032Y-44504580D01*
X64918466Y-44460555D01*
X64896083Y-44427570D01*
X64865197Y-44402252D01*
X64828982Y-44387043D01*
X64785790Y-44381750D01*
X64742604Y-44386997D01*
X64705856Y-44402152D01*
X64674012Y-44427472D01*
X64650251Y-44460439D01*
X64635287Y-44501904D01*
X64629894Y-44554283D01*
G37*
G36*
X64782525Y-44250445D02*
G01*
X64842599Y-44240458D01*
X64892621Y-44211073D01*
X64917556Y-44182040D01*
X64932930Y-44145690D01*
X64938421Y-44099796D01*
X64933069Y-44058398D01*
X64917572Y-44023142D01*
X64891533Y-43992524D01*
X64840623Y-43960806D01*
X64782525Y-43950319D01*
X64726112Y-43959869D01*
X64676287Y-43988616D01*
X64651099Y-44017015D01*
X64635500Y-44053260D01*
X64629894Y-44099796D01*
X64635292Y-44144957D01*
X64650476Y-44181164D01*
X64675199Y-44210487D01*
X64724471Y-44240395D01*
X64782525Y-44250445D01*
G37*
G36*
X63345242Y-45206802D02*
G01*
X63352454Y-45288101D01*
X63373128Y-45358687D01*
X63406670Y-45420563D01*
X63452798Y-45473843D01*
X63512410Y-45518710D01*
X63587789Y-45555288D01*
X63668896Y-45579696D01*
X63764970Y-45595398D01*
X63878510Y-45601010D01*
X63986580Y-45595009D01*
X64079252Y-45578084D01*
X64158746Y-45551478D01*
X64233355Y-45513491D01*
X64289912Y-45472006D01*
X64331458Y-45427207D01*
X64363466Y-45375344D01*
X64381520Y-45325634D01*
X64387346Y-45276949D01*
X64378283Y-45230108D01*
X64351043Y-45190487D01*
X64310306Y-45163621D01*
X64259148Y-45154436D01*
X64214484Y-45160853D01*
X64184267Y-45178079D01*
X64159835Y-45204877D01*
X64134610Y-45243634D01*
X64082586Y-45314427D01*
X64024514Y-45361945D01*
X63980053Y-45382465D01*
X63922844Y-45395961D01*
X63849725Y-45400926D01*
X63765708Y-45390450D01*
X63702930Y-45361652D01*
X63669610Y-45332383D01*
X63651681Y-45303086D01*
X63645953Y-45272552D01*
X63652970Y-45224453D01*
X63672624Y-45187865D01*
X63705304Y-45159907D01*
X63775280Y-45128145D01*
X63902449Y-45091519D01*
X64050911Y-45050132D01*
X64157163Y-45011017D01*
X64247314Y-44960941D01*
X64314839Y-44899447D01*
X64347372Y-44850399D01*
X64367192Y-44794065D01*
X64374091Y-44728477D01*
X64368114Y-44669821D01*
X64350136Y-44613235D01*
X64319389Y-44557702D01*
X64278390Y-44508949D01*
X64225316Y-44466255D01*
X64158251Y-44429524D01*
X64085724Y-44403856D01*
X64000941Y-44387539D01*
X63901756Y-44381750D01*
X63787355Y-44388060D01*
X63690071Y-44405783D01*
X63601255Y-44434941D01*
X63533087Y-44470263D01*
X63476203Y-44514344D01*
X63437038Y-44560340D01*
X63411731Y-44610681D01*
X63403900Y-44657451D01*
X63413021Y-44705505D01*
X63439709Y-44743327D01*
X63481045Y-44767755D01*
X63540902Y-44776739D01*
X63585443Y-44769915D01*
X63621718Y-44750166D01*
X63697193Y-44670836D01*
X63734351Y-44631625D01*
X63777020Y-44601568D01*
X63827897Y-44582774D01*
X63901657Y-44575581D01*
X63977821Y-44584577D01*
X64035791Y-44609384D01*
X64066479Y-44635023D01*
X64083369Y-44662500D01*
X64088910Y-44693013D01*
X64079330Y-44734218D01*
X64049936Y-44768044D01*
X64006297Y-44793933D01*
X63943698Y-44817186D01*
X63758127Y-44865253D01*
X63624607Y-44904605D01*
X63527647Y-44946732D01*
X63446821Y-45000086D01*
X63391634Y-45058889D01*
X63356976Y-45127821D01*
X63345242Y-45206802D01*
G37*
G36*
X63076381Y-44413013D02*
G01*
X63046310Y-44413013D01*
X63046310Y-44237060D01*
X63042452Y-44123438D01*
X63034743Y-44084069D01*
X63020493Y-44051924D01*
X62998672Y-44023825D01*
X62968462Y-44001122D01*
X62932850Y-43986544D01*
X62892690Y-43981582D01*
X62837345Y-43992190D01*
X62786452Y-44025057D01*
X62760593Y-44057327D01*
X62746390Y-44095790D01*
X62737883Y-44213027D01*
X62737883Y-44413013D01*
X62630359Y-44413013D01*
X62570416Y-44421357D01*
X62530253Y-44443592D01*
X62504297Y-44478257D01*
X62495533Y-44521847D01*
X62501399Y-44559748D01*
X62517689Y-44587438D01*
X62544893Y-44607528D01*
X62599888Y-44624945D01*
X62684566Y-44631854D01*
X62737883Y-44631854D01*
X62737883Y-45175050D01*
X62733036Y-45281443D01*
X62723804Y-45315535D01*
X62707317Y-45340940D01*
X62681854Y-45357127D01*
X62639261Y-45363411D01*
X62567644Y-45354129D01*
X62496423Y-45344848D01*
X62461074Y-45352103D01*
X62428367Y-45374841D01*
X62405739Y-45408148D01*
X62398098Y-45448798D01*
X62406716Y-45493557D01*
X62432435Y-45530653D01*
X62479014Y-45562127D01*
X62534569Y-45582164D01*
X62609883Y-45595851D01*
X62710087Y-45601010D01*
X62804461Y-45594765D01*
X62874875Y-45578156D01*
X62926619Y-45553529D01*
X62970437Y-45517631D01*
X63002391Y-45474351D01*
X63023460Y-45422420D01*
X63039866Y-45331845D01*
X63046310Y-45199963D01*
X63046310Y-44631854D01*
X63083009Y-44631854D01*
X63143954Y-44623377D01*
X63184796Y-44600787D01*
X63211232Y-44565578D01*
X63220110Y-44521847D01*
X63210872Y-44478368D01*
X63183213Y-44443592D01*
X63140587Y-44421420D01*
X63076381Y-44413013D01*
G37*
G36*
X61987488Y-45167137D02*
G01*
X61987488Y-45416362D01*
X61993107Y-45476224D01*
X62008279Y-45521171D01*
X62031606Y-45554702D01*
X62063494Y-45580371D01*
X62100240Y-45595706D01*
X62143384Y-45601010D01*
X62185726Y-45595657D01*
X62221744Y-45580157D01*
X62252985Y-45554115D01*
X62275710Y-45520346D01*
X62290468Y-45475555D01*
X62295916Y-45416460D01*
X62295916Y-44585937D01*
X62288135Y-44503606D01*
X62268011Y-44447903D01*
X62238307Y-44411391D01*
X62198634Y-44389564D01*
X62145560Y-44381750D01*
X62096709Y-44387694D01*
X62060853Y-44403890D01*
X62034672Y-44429719D01*
X62009309Y-44483257D01*
X61997776Y-44559461D01*
X61944872Y-44483307D01*
X61891241Y-44429230D01*
X61850292Y-44403668D01*
X61799791Y-44387538D01*
X61737225Y-44381750D01*
X61643351Y-44393444D01*
X61550467Y-44429328D01*
X61497676Y-44466814D01*
X61468982Y-44508451D01*
X61459561Y-44556237D01*
X61469485Y-44607543D01*
X61498733Y-44648463D01*
X61540330Y-44676099D01*
X61583407Y-44684806D01*
X61664124Y-44664583D01*
X61726274Y-44648989D01*
X61775902Y-44644360D01*
X61836539Y-44653240D01*
X61882536Y-44678163D01*
X61918014Y-44718423D01*
X61946833Y-44779182D01*
X61965682Y-44849962D01*
X61978684Y-44939600D01*
X61987488Y-45167137D01*
G37*
G36*
X60992864Y-44554283D02*
G01*
X60992864Y-45416460D01*
X60998443Y-45475522D01*
X61013584Y-45520346D01*
X61036982Y-45554213D01*
X61068906Y-45580176D01*
X61105651Y-45595660D01*
X61148760Y-45601010D01*
X61191856Y-45595507D01*
X61228064Y-45579639D01*
X61259053Y-45553041D01*
X61281569Y-45518695D01*
X61296078Y-45474138D01*
X61301391Y-45416460D01*
X61301391Y-44562978D01*
X61296002Y-44504580D01*
X61281436Y-44460555D01*
X61259053Y-44427570D01*
X61228167Y-44402252D01*
X61191952Y-44387043D01*
X61148760Y-44381750D01*
X61105574Y-44386997D01*
X61068826Y-44402152D01*
X61036982Y-44427472D01*
X61013221Y-44460439D01*
X60998257Y-44501904D01*
X60992864Y-44554283D01*
G37*
G36*
X61145495Y-44250445D02*
G01*
X61205569Y-44240458D01*
X61255591Y-44211073D01*
X61280526Y-44182040D01*
X61295900Y-44145690D01*
X61301391Y-44099796D01*
X61296039Y-44058398D01*
X61280542Y-44023142D01*
X61254503Y-43992524D01*
X61203593Y-43960806D01*
X61145495Y-43950319D01*
X61089082Y-43959869D01*
X61039257Y-43988616D01*
X61014068Y-44017015D01*
X60998470Y-44053260D01*
X60992864Y-44099796D01*
X60998262Y-44144957D01*
X61013446Y-44181164D01*
X61038169Y-44210487D01*
X61087441Y-44240395D01*
X61145495Y-44250445D01*
G37*
G36*
X60593178Y-43943370D02*
G01*
X60627789Y-43959142D01*
X60656047Y-43985295D01*
X60675915Y-44019032D01*
X60689044Y-44064316D01*
X60693933Y-44124513D01*
X60693933Y-45427402D01*
X60688967Y-45483052D01*
X60675541Y-45525172D01*
X60654959Y-45556851D01*
X60626296Y-45581173D01*
X60591960Y-45595861D01*
X60550205Y-45601010D01*
X60491023Y-45589800D01*
X60443867Y-45556753D01*
X60421666Y-45524775D01*
X60407311Y-45482492D01*
X60402025Y-45426816D01*
X60402025Y-45405616D01*
X60327144Y-45485043D01*
X60253054Y-45540829D01*
X60206438Y-45564636D01*
X60147706Y-45584401D01*
X60084449Y-45596767D01*
X60015650Y-45601010D01*
X59904815Y-45589427D01*
X59805745Y-45555581D01*
X59717691Y-45500726D01*
X59643618Y-45426718D01*
X59585458Y-45337226D01*
X59541831Y-45230249D01*
X59515866Y-45113526D01*
X59507396Y-44989914D01*
X59816329Y-44989914D01*
X59826674Y-45107871D01*
X59854758Y-45198178D01*
X59897937Y-45266983D01*
X59957545Y-45321784D01*
X60021444Y-45353002D01*
X60092015Y-45363411D01*
X60175922Y-45352591D01*
X60246168Y-45321415D01*
X60306074Y-45269133D01*
X60349334Y-45201723D01*
X60377373Y-45113534D01*
X60387682Y-44998609D01*
X60377499Y-44883630D01*
X60349301Y-44791491D01*
X60302656Y-44713446D01*
X60244151Y-44658819D01*
X60173201Y-44624669D01*
X60092015Y-44613096D01*
X60013582Y-44624720D01*
X59946704Y-44658819D01*
X59892481Y-44712720D01*
X59850357Y-44788658D01*
X59825404Y-44877786D01*
X59816329Y-44989914D01*
X59507396Y-44989914D01*
X59506814Y-44981415D01*
X59514352Y-44860195D01*
X59535757Y-44755045D01*
X59569726Y-44663606D01*
X59618405Y-44579694D01*
X59677261Y-44512064D01*
X59746790Y-44458735D01*
X59825642Y-44419960D01*
X59913503Y-44396216D01*
X60012385Y-44388002D01*
X60098974Y-44393660D01*
X60171711Y-44409523D01*
X60232874Y-44434408D01*
X60318272Y-44488452D01*
X60402025Y-44562196D01*
X60402025Y-44112203D01*
X60412531Y-44035312D01*
X60440504Y-43983243D01*
X60469041Y-43958471D01*
X60504859Y-43943247D01*
X60550205Y-43937814D01*
X60593178Y-43943370D01*
G37*
G36*
X58500418Y-45431212D02*
G01*
X58500418Y-45401806D01*
X58552246Y-45459564D01*
X58609328Y-45509468D01*
X58672408Y-45549916D01*
X58740790Y-45578344D01*
X58815049Y-45595056D01*
X58903313Y-45601010D01*
X59009359Y-45589368D01*
X59101347Y-45555678D01*
X59155875Y-45521215D01*
X59200759Y-45479696D01*
X59236965Y-45430626D01*
X59266461Y-45364068D01*
X59286373Y-45274405D01*
X59293843Y-45155413D01*
X59293843Y-44563271D01*
X59288470Y-44503959D01*
X59274032Y-44459749D01*
X59252000Y-44427081D01*
X59221489Y-44402127D01*
X59185179Y-44387035D01*
X59141310Y-44381750D01*
X59096652Y-44387090D01*
X59059584Y-44402347D01*
X59028346Y-44427570D01*
X59005629Y-44460666D01*
X58990871Y-44504789D01*
X58985415Y-44563271D01*
X58985415Y-45041498D01*
X58980607Y-45140803D01*
X58967907Y-45215009D01*
X58942670Y-45278637D01*
X58905291Y-45324234D01*
X58854112Y-45352959D01*
X58782731Y-45363411D01*
X58710102Y-45352499D01*
X58640685Y-45319056D01*
X58582868Y-45267786D01*
X58543349Y-45203383D01*
X58526374Y-45121838D01*
X58518125Y-44926607D01*
X58518125Y-44563271D01*
X58512669Y-44504789D01*
X58497911Y-44460666D01*
X58475194Y-44427570D01*
X58443981Y-44402291D01*
X58407251Y-44387061D01*
X58363318Y-44381750D01*
X58319449Y-44387035D01*
X58283139Y-44402127D01*
X58252628Y-44427081D01*
X58230588Y-44459807D01*
X58216153Y-44504026D01*
X58210786Y-44563271D01*
X58210786Y-45429258D01*
X58215920Y-45485678D01*
X58229760Y-45527991D01*
X58250946Y-45559489D01*
X58296516Y-45592071D01*
X58354514Y-45603159D01*
X58412499Y-45591754D01*
X58459169Y-45557828D01*
X58481262Y-45525259D01*
X58495320Y-45483877D01*
X58500418Y-45431212D01*
G37*
G36*
X57910469Y-44413013D02*
G01*
X57880398Y-44413013D01*
X57880398Y-44237060D01*
X57876540Y-44123438D01*
X57868831Y-44084069D01*
X57854581Y-44051924D01*
X57832760Y-44023825D01*
X57802549Y-44001122D01*
X57766938Y-43986544D01*
X57726778Y-43981582D01*
X57671433Y-43992190D01*
X57620540Y-44025057D01*
X57594681Y-44057327D01*
X57580478Y-44095790D01*
X57571971Y-44213027D01*
X57571971Y-44413013D01*
X57464447Y-44413013D01*
X57404504Y-44421357D01*
X57364341Y-44443592D01*
X57338385Y-44478257D01*
X57329621Y-44521847D01*
X57335487Y-44559748D01*
X57351777Y-44587438D01*
X57378981Y-44607528D01*
X57433975Y-44624945D01*
X57518654Y-44631854D01*
X57571971Y-44631854D01*
X57571971Y-45175050D01*
X57567124Y-45281443D01*
X57557892Y-45315535D01*
X57541405Y-45340940D01*
X57515942Y-45357127D01*
X57473349Y-45363411D01*
X57401732Y-45354129D01*
X57330511Y-45344848D01*
X57295161Y-45352103D01*
X57262455Y-45374841D01*
X57239827Y-45408148D01*
X57232186Y-45448798D01*
X57240804Y-45493557D01*
X57266523Y-45530653D01*
X57313101Y-45562127D01*
X57368657Y-45582164D01*
X57443971Y-45595851D01*
X57544175Y-45601010D01*
X57638549Y-45594765D01*
X57708963Y-45578156D01*
X57760707Y-45553529D01*
X57804525Y-45517631D01*
X57836479Y-45474351D01*
X57857548Y-45422420D01*
X57873954Y-45331845D01*
X57880398Y-45199963D01*
X57880398Y-44631854D01*
X57917097Y-44631854D01*
X57978042Y-44623377D01*
X58018884Y-44600787D01*
X58045320Y-44565578D01*
X58054198Y-44521847D01*
X58044960Y-44478368D01*
X58017301Y-44443592D01*
X57974675Y-44421420D01*
X57910469Y-44413013D01*
G37*
G36*
X56819301Y-44554283D02*
G01*
X56819301Y-45416460D01*
X56824880Y-45475522D01*
X56840021Y-45520346D01*
X56863419Y-45554213D01*
X56895343Y-45580176D01*
X56932088Y-45595660D01*
X56975196Y-45601010D01*
X57018293Y-45595507D01*
X57054501Y-45579639D01*
X57085490Y-45553041D01*
X57108006Y-45518695D01*
X57122515Y-45474138D01*
X57127827Y-45416460D01*
X57127827Y-44562978D01*
X57122439Y-44504580D01*
X57107873Y-44460555D01*
X57085490Y-44427570D01*
X57054604Y-44402252D01*
X57018389Y-44387043D01*
X56975196Y-44381750D01*
X56932011Y-44386997D01*
X56895263Y-44402152D01*
X56863419Y-44427472D01*
X56839657Y-44460439D01*
X56824694Y-44501904D01*
X56819301Y-44554283D01*
G37*
G36*
X56971932Y-44250445D02*
G01*
X57032006Y-44240458D01*
X57082028Y-44211073D01*
X57106963Y-44182040D01*
X57122337Y-44145690D01*
X57127827Y-44099796D01*
X57122476Y-44058398D01*
X57106979Y-44023142D01*
X57080940Y-43992524D01*
X57030030Y-43960806D01*
X56971932Y-43950319D01*
X56915519Y-43959869D01*
X56865694Y-43988616D01*
X56840505Y-44017015D01*
X56824907Y-44053260D01*
X56819301Y-44099796D01*
X56824698Y-44144957D01*
X56839882Y-44181164D01*
X56864606Y-44210487D01*
X56913878Y-44240395D01*
X56971932Y-44250445D01*
G37*
G36*
X56114235Y-44392933D02*
G01*
X56230638Y-44425225D01*
X56335417Y-44478299D01*
X56422144Y-44548909D01*
X56491427Y-44636470D01*
X56543418Y-44742252D01*
X56574777Y-44859182D01*
X56585656Y-44991380D01*
X56574913Y-45122457D01*
X56544011Y-45237870D01*
X56492242Y-45342338D01*
X56421550Y-45431212D01*
X56333790Y-45503407D01*
X56230737Y-45557046D01*
X56115908Y-45589609D01*
X55982650Y-45601010D01*
X55848349Y-45589759D01*
X55732485Y-45557632D01*
X55628517Y-45504469D01*
X55541078Y-45432971D01*
X55470792Y-45344470D01*
X55418617Y-45238749D01*
X55387211Y-45122115D01*
X55376379Y-44991966D01*
X55685895Y-44991966D01*
X55696000Y-45109822D01*
X55723670Y-45202065D01*
X55766513Y-45274115D01*
X55810501Y-45318883D01*
X55860288Y-45350221D01*
X55917049Y-45369292D01*
X55982650Y-45375916D01*
X56040962Y-45370569D01*
X56092477Y-45355099D01*
X56138545Y-45329705D01*
X56196064Y-45274590D01*
X56240431Y-45196251D01*
X56266637Y-45104390D01*
X56276041Y-44991966D01*
X56266488Y-44878404D01*
X56239837Y-44785434D01*
X56211285Y-44729676D01*
X56177012Y-44685765D01*
X56136962Y-44651980D01*
X56065758Y-44618351D01*
X55982650Y-44606844D01*
X55897214Y-44618434D01*
X55826373Y-44651832D01*
X55766513Y-44708156D01*
X55723775Y-44779875D01*
X55696056Y-44872569D01*
X55685895Y-44991966D01*
X55376379Y-44991966D01*
X55387136Y-44860730D01*
X55418123Y-44744792D01*
X55469787Y-44639735D01*
X55539990Y-44551254D01*
X55627593Y-44479534D01*
X55732485Y-44425811D01*
X55849191Y-44393124D01*
X55982650Y-44381750D01*
X56114235Y-44392933D01*
G37*
G36*
X54863883Y-44550473D02*
G01*
X54863883Y-44577339D01*
X54810630Y-44516484D01*
X54754182Y-44468090D01*
X54694238Y-44430891D01*
X54629049Y-44404053D01*
X54556539Y-44387490D01*
X54475332Y-44381750D01*
X54396524Y-44387751D01*
X54325240Y-44405190D01*
X54260184Y-44433725D01*
X54201980Y-44473409D01*
X54155074Y-44522108D01*
X54118434Y-44580759D01*
X54093646Y-44637835D01*
X54079362Y-44699656D01*
X54070459Y-44861833D01*
X54070459Y-45416558D01*
X54075852Y-45475695D01*
X54090451Y-45520484D01*
X54112895Y-45554213D01*
X54143792Y-45580118D01*
X54179939Y-45595623D01*
X54222991Y-45601010D01*
X54266773Y-45595501D01*
X54303501Y-45579645D01*
X54334868Y-45553138D01*
X54357725Y-45518748D01*
X54372423Y-45474219D01*
X54377798Y-45416655D01*
X54377798Y-44919768D01*
X54383243Y-44821995D01*
X54397635Y-44749270D01*
X54418652Y-44696237D01*
X54452700Y-44655227D01*
X54504655Y-44629181D01*
X54581570Y-44619349D01*
X54657707Y-44631031D01*
X54726980Y-44666244D01*
X54783207Y-44721217D01*
X54823129Y-44795302D01*
X54838192Y-44875736D01*
X54845089Y-45043159D01*
X54845089Y-45416655D01*
X54850638Y-45476434D01*
X54865616Y-45521321D01*
X54888613Y-45554799D01*
X54920157Y-45580328D01*
X54957064Y-45595671D01*
X55000984Y-45601010D01*
X55043248Y-45595555D01*
X55079264Y-45579730D01*
X55110585Y-45553041D01*
X55133439Y-45518649D01*
X55148139Y-45474090D01*
X55153516Y-45416460D01*
X55153516Y-44554283D01*
X55148553Y-44497788D01*
X55135247Y-44455773D01*
X55115037Y-44424834D01*
X55070368Y-44392907D01*
X55009788Y-44381750D01*
X54970725Y-44386618D01*
X54936291Y-44400898D01*
X54907135Y-44424234D01*
X54883667Y-44457953D01*
X54869141Y-44498654D01*
X54863883Y-44550473D01*
G37*
G36*
X52648227Y-43943705D02*
G01*
X52729689Y-43960512D01*
X52801238Y-43987346D01*
X52866964Y-44025241D01*
X52919389Y-44069775D01*
X52960199Y-44121191D01*
X52990225Y-44179331D01*
X53008208Y-44241220D01*
X53014308Y-44307988D01*
X53003753Y-44392360D01*
X52971476Y-44475344D01*
X52921808Y-44557124D01*
X52847729Y-44656572D01*
X52934315Y-44704046D01*
X53008076Y-44751826D01*
X53074266Y-44804112D01*
X53127075Y-44857144D01*
X53170025Y-44915909D01*
X53202253Y-44981415D01*
X53222097Y-45052565D01*
X53228960Y-45132650D01*
X53220163Y-45217315D01*
X53193350Y-45301568D01*
X53148855Y-45379980D01*
X53084144Y-45452803D01*
X53003078Y-45512840D01*
X52899958Y-45560954D01*
X52784766Y-45590579D01*
X52650288Y-45601010D01*
X52544297Y-45595613D01*
X52453144Y-45580396D01*
X52367222Y-45554350D01*
X52287456Y-45517674D01*
X52212694Y-45470415D01*
X52140067Y-45411184D01*
X51934713Y-45568379D01*
X51883877Y-45593077D01*
X51832530Y-45601010D01*
X51783411Y-45591440D01*
X51737865Y-45561638D01*
X51706056Y-45517592D01*
X51695429Y-45464234D01*
X51701036Y-45423999D01*
X51716400Y-45394771D01*
X51746642Y-45364347D01*
X51826496Y-45297953D01*
X51909121Y-45231031D01*
X52337409Y-45231031D01*
X52432965Y-45308993D01*
X52481801Y-45337543D01*
X52532971Y-45358526D01*
X52586365Y-45371561D01*
X52641484Y-45375916D01*
X52697252Y-45370753D01*
X52749899Y-45355399D01*
X52798207Y-45330186D01*
X52840211Y-45295804D01*
X52874707Y-45254619D01*
X52899266Y-45211198D01*
X52914399Y-45164625D01*
X52919445Y-45115944D01*
X52913159Y-45059537D01*
X52894813Y-45009496D01*
X52864150Y-44964318D01*
X52799413Y-44903851D01*
X52698560Y-44837116D01*
X52512099Y-45054981D01*
X52430173Y-45142077D01*
X52337409Y-45231031D01*
X51909121Y-45231031D01*
X51954595Y-45194199D01*
X51896235Y-45089664D01*
X51856073Y-45000173D01*
X51828813Y-44915507D01*
X51821649Y-44862713D01*
X51831786Y-44812906D01*
X51862403Y-44771073D01*
X51906571Y-44742754D01*
X51956475Y-44733459D01*
X52007618Y-44743333D01*
X52044314Y-44771561D01*
X52073659Y-44816301D01*
X52110293Y-44894171D01*
X52159752Y-45005546D01*
X52237403Y-44924262D01*
X52329199Y-44817967D01*
X52429700Y-44699070D01*
X52285587Y-44602184D01*
X52190713Y-44515204D01*
X52144764Y-44450376D01*
X52117503Y-44379314D01*
X52108216Y-44299879D01*
X52108935Y-44294799D01*
X52374603Y-44294799D01*
X52380166Y-44337959D01*
X52396527Y-44376204D01*
X52424359Y-44410863D01*
X52482946Y-44459720D01*
X52584310Y-44528588D01*
X52657707Y-44436655D01*
X52705583Y-44362113D01*
X52720224Y-44324845D01*
X52724675Y-44292650D01*
X52719159Y-44253284D01*
X52702696Y-44217543D01*
X52674127Y-44184206D01*
X52638069Y-44158672D01*
X52596707Y-44143248D01*
X52548501Y-44137898D01*
X52500252Y-44143166D01*
X52459310Y-44158271D01*
X52424062Y-44183131D01*
X52396446Y-44215819D01*
X52380169Y-44252567D01*
X52374603Y-44294799D01*
X52108935Y-44294799D01*
X52120686Y-44211806D01*
X52159060Y-44125392D01*
X52197634Y-44074114D01*
X52248154Y-44028963D01*
X52312383Y-43989691D01*
X52382592Y-43961584D01*
X52462891Y-43943988D01*
X52555129Y-43937814D01*
X52648227Y-43943705D01*
G37*
G36*
X49842689Y-44244192D02*
G01*
X50198102Y-44244192D01*
X50198102Y-45400829D01*
X50204077Y-45466983D01*
X50220075Y-45515889D01*
X50244396Y-45551673D01*
X50278025Y-45578943D01*
X50317307Y-45595317D01*
X50363988Y-45601010D01*
X50411371Y-45595244D01*
X50451202Y-45578671D01*
X50485262Y-45551087D01*
X50509925Y-45514983D01*
X50526055Y-45466201D01*
X50532051Y-45400829D01*
X50532051Y-44244192D01*
X50887365Y-44244192D01*
X50943092Y-44239339D01*
X50984385Y-44226336D01*
X51014673Y-44206579D01*
X51045865Y-44163504D01*
X51056615Y-44107221D01*
X51045360Y-44049097D01*
X51012992Y-44006104D01*
X50962680Y-43979217D01*
X50887365Y-43969077D01*
X49842689Y-43969077D01*
X49786329Y-43974003D01*
X49744554Y-43987205D01*
X49713897Y-44007277D01*
X49682230Y-44050816D01*
X49671362Y-44107221D01*
X49682350Y-44163413D01*
X49714391Y-44206579D01*
X49764660Y-44233781D01*
X49842689Y-44244192D01*
G37*
G36*
X49168946Y-44392931D02*
G01*
X49285481Y-44425127D01*
X49357321Y-44458689D01*
X49420082Y-44500154D01*
X49474712Y-44549691D01*
X49541810Y-44638028D01*
X49591634Y-44744401D01*
X49621364Y-44861114D01*
X49631597Y-44990305D01*
X49620424Y-45129916D01*
X49588796Y-45248492D01*
X49538356Y-45349746D01*
X49469074Y-45436488D01*
X49383030Y-45506341D01*
X49280866Y-45557387D01*
X49159366Y-45589572D01*
X49014247Y-45601010D01*
X48890800Y-45592389D01*
X48788021Y-45568281D01*
X48695478Y-45530072D01*
X48624410Y-45485825D01*
X48565829Y-45433229D01*
X48526778Y-45381680D01*
X48501469Y-45327900D01*
X48494234Y-45286230D01*
X48502042Y-45243661D01*
X48524008Y-45213445D01*
X48557344Y-45194338D01*
X48601461Y-45187556D01*
X48642195Y-45193162D01*
X48669913Y-45208170D01*
X48761808Y-45291701D01*
X48838766Y-45349147D01*
X48881569Y-45372528D01*
X48924924Y-45388421D01*
X48970669Y-45397675D01*
X49023150Y-45400926D01*
X49099886Y-45391052D01*
X49169252Y-45361750D01*
X49228032Y-45313995D01*
X49275491Y-45245295D01*
X49305416Y-45164022D01*
X49316542Y-45069538D01*
X48728769Y-45069538D01*
X48617072Y-45059983D01*
X48543099Y-45035637D01*
X48508204Y-45006817D01*
X48485368Y-44959977D01*
X48477395Y-44894464D01*
X48775261Y-44894464D01*
X49316245Y-44894464D01*
X49298385Y-44798973D01*
X49268947Y-44726013D01*
X49229494Y-44670933D01*
X49177490Y-44628490D01*
X49117289Y-44603123D01*
X49046297Y-44594339D01*
X48971596Y-44603153D01*
X48909699Y-44628296D01*
X48857660Y-44669761D01*
X48818754Y-44724273D01*
X48790672Y-44797442D01*
X48775261Y-44894464D01*
X48477395Y-44894464D01*
X48476527Y-44887332D01*
X48483410Y-44807464D01*
X48504282Y-44727915D01*
X48540033Y-44647681D01*
X48588777Y-44574951D01*
X48651883Y-44511230D01*
X48731044Y-44455902D01*
X48818874Y-44415648D01*
X48919772Y-44390553D01*
X49036405Y-44381750D01*
X49168946Y-44392931D01*
G37*
G36*
X48299562Y-45416460D02*
G01*
X48299562Y-44122364D01*
X48294300Y-44063126D01*
X48280085Y-44018342D01*
X48258313Y-43984709D01*
X48228014Y-43958909D01*
X48191521Y-43943298D01*
X48146931Y-43937814D01*
X48102316Y-43943211D01*
X48065249Y-43958648D01*
X48033966Y-43984220D01*
X48011307Y-44017650D01*
X47996520Y-44062534D01*
X47991036Y-44122364D01*
X47991036Y-45416460D01*
X47996587Y-45476306D01*
X48011567Y-45521222D01*
X48034560Y-45554702D01*
X48066170Y-45580298D01*
X48103081Y-45595667D01*
X48146931Y-45601010D01*
X48190028Y-45595507D01*
X48226235Y-45579639D01*
X48257225Y-45553041D01*
X48279740Y-45518695D01*
X48294250Y-45474138D01*
X48299562Y-45416460D01*
G37*
G36*
X47279210Y-44392931D02*
G01*
X47395745Y-44425127D01*
X47467585Y-44458689D01*
X47530346Y-44500154D01*
X47584976Y-44549691D01*
X47652074Y-44638028D01*
X47701898Y-44744401D01*
X47731628Y-44861114D01*
X47741861Y-44990305D01*
X47730687Y-45129916D01*
X47699060Y-45248492D01*
X47648620Y-45349746D01*
X47579338Y-45436488D01*
X47493294Y-45506341D01*
X47391130Y-45557387D01*
X47269630Y-45589572D01*
X47124511Y-45601010D01*
X47001064Y-45592389D01*
X46898285Y-45568281D01*
X46805742Y-45530072D01*
X46734674Y-45485825D01*
X46676093Y-45433229D01*
X46637041Y-45381680D01*
X46611732Y-45327900D01*
X46604497Y-45286230D01*
X46612305Y-45243661D01*
X46634272Y-45213445D01*
X46667608Y-45194338D01*
X46711725Y-45187556D01*
X46752459Y-45193162D01*
X46780176Y-45208170D01*
X46872071Y-45291701D01*
X46949030Y-45349147D01*
X46991833Y-45372528D01*
X47035188Y-45388421D01*
X47080933Y-45397675D01*
X47133414Y-45400926D01*
X47210150Y-45391052D01*
X47279516Y-45361750D01*
X47338296Y-45313995D01*
X47385754Y-45245295D01*
X47415680Y-45164022D01*
X47426806Y-45069538D01*
X46839033Y-45069538D01*
X46727336Y-45059983D01*
X46653363Y-45035637D01*
X46618468Y-45006817D01*
X46595631Y-44959977D01*
X46587659Y-44894464D01*
X46885524Y-44894464D01*
X47426509Y-44894464D01*
X47408649Y-44798973D01*
X47379211Y-44726013D01*
X47339757Y-44670933D01*
X47287754Y-44628490D01*
X47227552Y-44603123D01*
X47156561Y-44594339D01*
X47081859Y-44603153D01*
X47019962Y-44628296D01*
X46967923Y-44669761D01*
X46929018Y-44724273D01*
X46900936Y-44797442D01*
X46885524Y-44894464D01*
X46587659Y-44894464D01*
X46586791Y-44887332D01*
X46593674Y-44807464D01*
X46614546Y-44727915D01*
X46650296Y-44647681D01*
X46699041Y-44574951D01*
X46762146Y-44511230D01*
X46841308Y-44455902D01*
X46929138Y-44415648D01*
X47030036Y-44390553D01*
X47146669Y-44381750D01*
X47279210Y-44392931D01*
G37*
G36*
X45327362Y-45016097D02*
G01*
X45327362Y-45410891D01*
X45333000Y-45472579D01*
X45348198Y-45518862D01*
X45371480Y-45553334D01*
X45403571Y-45579590D01*
X45441703Y-45595457D01*
X45487709Y-45601010D01*
X45532183Y-45595506D01*
X45569431Y-45579691D01*
X45601168Y-45553334D01*
X45624113Y-45518910D01*
X45639121Y-45472631D01*
X45644693Y-45410891D01*
X45644693Y-44937842D01*
X45652408Y-44764625D01*
X45667089Y-44707612D01*
X45693657Y-44664387D01*
X45718653Y-44643780D01*
X45752992Y-44630521D01*
X45799796Y-44625602D01*
X45871566Y-44632819D01*
X45924961Y-44652336D01*
X45964432Y-44682612D01*
X45992588Y-44724471D01*
X46016395Y-44792176D01*
X46032777Y-44884996D01*
X46038981Y-45009551D01*
X46038981Y-45410891D01*
X46044519Y-45471894D01*
X46059499Y-45518043D01*
X46082505Y-45552748D01*
X46114312Y-45579398D01*
X46151897Y-45595421D01*
X46197053Y-45601010D01*
X46241579Y-45595462D01*
X46279244Y-45579449D01*
X46311699Y-45552650D01*
X46335324Y-45517796D01*
X46350654Y-45471576D01*
X46356311Y-45410598D01*
X46356311Y-44559949D01*
X46351230Y-44504599D01*
X46337433Y-44462413D01*
X46316150Y-44430403D01*
X46270203Y-44397232D01*
X46210407Y-44385853D01*
X46151968Y-44396519D01*
X46104663Y-44427960D01*
X46081685Y-44458376D01*
X46067357Y-44496193D01*
X46062227Y-44543536D01*
X46062227Y-44563466D01*
X45983283Y-44486014D01*
X45898517Y-44432161D01*
X45804322Y-44399289D01*
X45697911Y-44388002D01*
X45622562Y-44393398D01*
X45557332Y-44408762D01*
X45500568Y-44433334D01*
X45449454Y-44467850D01*
X45404919Y-44511904D01*
X45366534Y-44566593D01*
X45287531Y-44487224D01*
X45204704Y-44432748D01*
X45112852Y-44399404D01*
X45009637Y-44388002D01*
X44927696Y-44393799D01*
X44856562Y-44410318D01*
X44794489Y-44436753D01*
X44738993Y-44474071D01*
X44694249Y-44520230D01*
X44659268Y-44576167D01*
X44639604Y-44632153D01*
X44625624Y-44714379D01*
X44620195Y-44830961D01*
X44620195Y-45410794D01*
X44625832Y-45472482D01*
X44641031Y-45518764D01*
X44664313Y-45553236D01*
X44696412Y-45579550D01*
X44734543Y-45595447D01*
X44780542Y-45601010D01*
X44825076Y-45595471D01*
X44862741Y-45579488D01*
X44895188Y-45552748D01*
X44918813Y-45517955D01*
X44934143Y-45471801D01*
X44939800Y-45410891D01*
X44939800Y-44911757D01*
X44948011Y-44759154D01*
X44963380Y-44706199D01*
X44991930Y-44663899D01*
X45034589Y-44636012D01*
X45100345Y-44625602D01*
X45157126Y-44634017D01*
X45212024Y-44659893D01*
X45258898Y-44699888D01*
X45294423Y-44752120D01*
X45310516Y-44803829D01*
X45322535Y-44887807D01*
X45327362Y-45016097D01*
G37*
G36*
X43927065Y-44392931D02*
G01*
X44043600Y-44425127D01*
X44115440Y-44458689D01*
X44178200Y-44500154D01*
X44232831Y-44549691D01*
X44299929Y-44638028D01*
X44349752Y-44744401D01*
X44379483Y-44861114D01*
X44389715Y-44990305D01*
X44378542Y-45129916D01*
X44346915Y-45248492D01*
X44296475Y-45349746D01*
X44227193Y-45436488D01*
X44141149Y-45506341D01*
X44038985Y-45557387D01*
X43917485Y-45589572D01*
X43772366Y-45601010D01*
X43648919Y-45592389D01*
X43546140Y-45568281D01*
X43453597Y-45530072D01*
X43382529Y-45485825D01*
X43323947Y-45433229D01*
X43284896Y-45381680D01*
X43259587Y-45327900D01*
X43252352Y-45286230D01*
X43260160Y-45243661D01*
X43282127Y-45213445D01*
X43315463Y-45194338D01*
X43359580Y-45187556D01*
X43400313Y-45193162D01*
X43428031Y-45208170D01*
X43519926Y-45291701D01*
X43596885Y-45349147D01*
X43639688Y-45372528D01*
X43683043Y-45388421D01*
X43728788Y-45397675D01*
X43781269Y-45400926D01*
X43858005Y-45391052D01*
X43927371Y-45361750D01*
X43986151Y-45313995D01*
X44033609Y-45245295D01*
X44063535Y-45164022D01*
X44074660Y-45069538D01*
X43486888Y-45069538D01*
X43375190Y-45059983D01*
X43301218Y-45035637D01*
X43266323Y-45006817D01*
X43243486Y-44959977D01*
X43235514Y-44894464D01*
X43533379Y-44894464D01*
X44074364Y-44894464D01*
X44056504Y-44798973D01*
X44027065Y-44726013D01*
X43987612Y-44670933D01*
X43935609Y-44628490D01*
X43875407Y-44603123D01*
X43804415Y-44594339D01*
X43729714Y-44603153D01*
X43667817Y-44628296D01*
X43615778Y-44669761D01*
X43576873Y-44724273D01*
X43548791Y-44797442D01*
X43533379Y-44894464D01*
X43235514Y-44894464D01*
X43234646Y-44887332D01*
X43241529Y-44807464D01*
X43262401Y-44727915D01*
X43298151Y-44647681D01*
X43346896Y-44574951D01*
X43410001Y-44511230D01*
X43489163Y-44455902D01*
X43576992Y-44415648D01*
X43677891Y-44390553D01*
X43794524Y-44381750D01*
X43927065Y-44392931D01*
G37*
G36*
X42966676Y-44413013D02*
G01*
X42936605Y-44413013D01*
X42936605Y-44237060D01*
X42932747Y-44123438D01*
X42925037Y-44084069D01*
X42910787Y-44051924D01*
X42888967Y-44023825D01*
X42858756Y-44001122D01*
X42823145Y-43986544D01*
X42782985Y-43981582D01*
X42727640Y-43992190D01*
X42676746Y-44025057D01*
X42650887Y-44057327D01*
X42636684Y-44095790D01*
X42628177Y-44213027D01*
X42628177Y-44413013D01*
X42520653Y-44413013D01*
X42460710Y-44421357D01*
X42420548Y-44443592D01*
X42394592Y-44478257D01*
X42385827Y-44521847D01*
X42391693Y-44559748D01*
X42407983Y-44587438D01*
X42435188Y-44607528D01*
X42490182Y-44624945D01*
X42574860Y-44631854D01*
X42628177Y-44631854D01*
X42628177Y-45175050D01*
X42623330Y-45281443D01*
X42614098Y-45315535D01*
X42597612Y-45340940D01*
X42572148Y-45357127D01*
X42529556Y-45363411D01*
X42457939Y-45354129D01*
X42386718Y-45344848D01*
X42351368Y-45352103D01*
X42318662Y-45374841D01*
X42296033Y-45408148D01*
X42288393Y-45448798D01*
X42297010Y-45493557D01*
X42322729Y-45530653D01*
X42369308Y-45562127D01*
X42424864Y-45582164D01*
X42500178Y-45595851D01*
X42600381Y-45601010D01*
X42694756Y-45594765D01*
X42765170Y-45578156D01*
X42816914Y-45553529D01*
X42860732Y-45517631D01*
X42892686Y-45474351D01*
X42913755Y-45422420D01*
X42930161Y-45331845D01*
X42936605Y-45199963D01*
X42936605Y-44631854D01*
X42973303Y-44631854D01*
X43034248Y-44623377D01*
X43075090Y-44600787D01*
X43101527Y-44565578D01*
X43110404Y-44521847D01*
X43101167Y-44478368D01*
X43073508Y-44443592D01*
X43030882Y-44421420D01*
X42966676Y-44413013D01*
G37*
G36*
X41877783Y-45167137D02*
G01*
X41877783Y-45416362D01*
X41883401Y-45476224D01*
X41898574Y-45521171D01*
X41921900Y-45554702D01*
X41953788Y-45580371D01*
X41990535Y-45595706D01*
X42033678Y-45601010D01*
X42076020Y-45595657D01*
X42112038Y-45580157D01*
X42143280Y-45554115D01*
X42166005Y-45520346D01*
X42180763Y-45475555D01*
X42186210Y-45416460D01*
X42186210Y-44585937D01*
X42178430Y-44503606D01*
X42158305Y-44447903D01*
X42128601Y-44411391D01*
X42088929Y-44389564D01*
X42035854Y-44381750D01*
X41987004Y-44387694D01*
X41951147Y-44403890D01*
X41924967Y-44429719D01*
X41899603Y-44483257D01*
X41888070Y-44559461D01*
X41835166Y-44483307D01*
X41781535Y-44429230D01*
X41740586Y-44403668D01*
X41690085Y-44387538D01*
X41627519Y-44381750D01*
X41533646Y-44393444D01*
X41440761Y-44429328D01*
X41387970Y-44466814D01*
X41359276Y-44508451D01*
X41349855Y-44556237D01*
X41359780Y-44607543D01*
X41389027Y-44648463D01*
X41430624Y-44676099D01*
X41473701Y-44684806D01*
X41554419Y-44664583D01*
X41616568Y-44648989D01*
X41666196Y-44644360D01*
X41726834Y-44653240D01*
X41772830Y-44678163D01*
X41808308Y-44718423D01*
X41837127Y-44779182D01*
X41855976Y-44849962D01*
X41868979Y-44939600D01*
X41877783Y-45167137D01*
G37*
G36*
X40912537Y-45635986D02*
G01*
X40885335Y-45570431D01*
X41256773Y-44645532D01*
X41284413Y-44569535D01*
X41291197Y-44528295D01*
X41286102Y-44490511D01*
X41270820Y-44455511D01*
X41246764Y-44425399D01*
X41214931Y-44401875D01*
X41178381Y-44386707D01*
X41140841Y-44381750D01*
X41098342Y-44386830D01*
X41065592Y-44400921D01*
X41040241Y-44423662D01*
X41010053Y-44471055D01*
X40980791Y-44542559D01*
X40728154Y-45269426D01*
X40488771Y-44594046D01*
X40436542Y-44463131D01*
X40410429Y-44421018D01*
X40386193Y-44398651D01*
X40356043Y-44386457D01*
X40310916Y-44381750D01*
X40276680Y-44386301D01*
X40243454Y-44400214D01*
X40214806Y-44421988D01*
X40193698Y-44450040D01*
X40180465Y-44482406D01*
X40176090Y-44516376D01*
X40190631Y-44575972D01*
X40214965Y-44653934D01*
X40608957Y-45673208D01*
X40662485Y-45799830D01*
X40709062Y-45885016D01*
X40766102Y-45953263D01*
X40838942Y-46003522D01*
X40894555Y-46025243D01*
X40965941Y-46039640D01*
X41056760Y-46044946D01*
X41181665Y-46036559D01*
X41257960Y-46016125D01*
X41295568Y-45991475D01*
X41317641Y-45957244D01*
X41325522Y-45910221D01*
X41316956Y-45862664D01*
X41292977Y-45829133D01*
X41255110Y-45808380D01*
X41197323Y-45800508D01*
X41148952Y-45807151D01*
X41099889Y-45813599D01*
X41051910Y-45809412D01*
X41019567Y-45798651D01*
X40992849Y-45779121D01*
X40966943Y-45746383D01*
X40912537Y-45635986D01*
G37*
G36*
X39245041Y-43975289D02*
G01*
X39294858Y-43991725D01*
X39330042Y-44016460D01*
X39355003Y-44051189D01*
X39371683Y-44100944D01*
X39378017Y-44170919D01*
X39378017Y-45374157D01*
X39371890Y-45442761D01*
X39355651Y-45492344D01*
X39331229Y-45527639D01*
X39296569Y-45552797D01*
X39246513Y-45569606D01*
X39175630Y-45576000D01*
X38679950Y-45576000D01*
X38555293Y-45572616D01*
X38454812Y-45563397D01*
X38361705Y-45545659D01*
X38283584Y-45519921D01*
X38209293Y-45478960D01*
X38146513Y-45425887D01*
X38094057Y-45359698D01*
X38055205Y-45284768D01*
X38031804Y-45203978D01*
X38023825Y-45115748D01*
X38026181Y-45091226D01*
X38363214Y-45091226D01*
X38372050Y-45161743D01*
X38396762Y-45217016D01*
X38437075Y-45260746D01*
X38495879Y-45294469D01*
X38578732Y-45317257D01*
X38693205Y-45325895D01*
X39043079Y-45325895D01*
X39043079Y-44863201D01*
X38704284Y-44863201D01*
X38590963Y-44870411D01*
X38507972Y-44889406D01*
X38448382Y-44917228D01*
X38401953Y-44959397D01*
X38373502Y-45015796D01*
X38363214Y-45091226D01*
X38026181Y-45091226D01*
X38032820Y-45022132D01*
X38058448Y-44942568D01*
X38099969Y-44874245D01*
X38158401Y-44815285D01*
X38236414Y-44764946D01*
X38338088Y-44723690D01*
X38249205Y-44672591D01*
X38183719Y-44613084D01*
X38137897Y-44544746D01*
X38109941Y-44465825D01*
X38104727Y-44416432D01*
X38428500Y-44416432D01*
X38435425Y-44469825D01*
X38455801Y-44517158D01*
X38482863Y-44555236D01*
X38516234Y-44583508D01*
X38556797Y-44603034D01*
X38630063Y-44619095D01*
X38745236Y-44625602D01*
X39043079Y-44625602D01*
X39043079Y-44219182D01*
X38779462Y-44219182D01*
X38659635Y-44224580D01*
X38574009Y-44238561D01*
X38514757Y-44258358D01*
X38468059Y-44291956D01*
X38439219Y-44342511D01*
X38428500Y-44416432D01*
X38104727Y-44416432D01*
X38100190Y-44373445D01*
X38106115Y-44304545D01*
X38123633Y-44239991D01*
X38152310Y-44179641D01*
X38191689Y-44124611D01*
X38239813Y-44076859D01*
X38294366Y-44038442D01*
X38365923Y-44004545D01*
X38447987Y-43983341D01*
X38537376Y-43972925D01*
X38650077Y-43969077D01*
X39175630Y-43969077D01*
X39245041Y-43975289D01*
G37*
G36*
X37367229Y-44392933D02*
G01*
X37483632Y-44425225D01*
X37588411Y-44478299D01*
X37675138Y-44548909D01*
X37744421Y-44636470D01*
X37796411Y-44742252D01*
X37827770Y-44859182D01*
X37838650Y-44991380D01*
X37827907Y-45122457D01*
X37797005Y-45237870D01*
X37745235Y-45342338D01*
X37674544Y-45431212D01*
X37586784Y-45503407D01*
X37483731Y-45557046D01*
X37368901Y-45589609D01*
X37235643Y-45601010D01*
X37101343Y-45589759D01*
X36985479Y-45557632D01*
X36881511Y-45504469D01*
X36794072Y-45432971D01*
X36723785Y-45344470D01*
X36671611Y-45238749D01*
X36640205Y-45122115D01*
X36629373Y-44991966D01*
X36938888Y-44991966D01*
X36948993Y-45109822D01*
X36976663Y-45202065D01*
X37019507Y-45274115D01*
X37063494Y-45318883D01*
X37113282Y-45350221D01*
X37170043Y-45369292D01*
X37235643Y-45375916D01*
X37293956Y-45370569D01*
X37345471Y-45355099D01*
X37391539Y-45329705D01*
X37449058Y-45274590D01*
X37493425Y-45196251D01*
X37519631Y-45104390D01*
X37529035Y-44991966D01*
X37519482Y-44878404D01*
X37492831Y-44785434D01*
X37464278Y-44729676D01*
X37430005Y-44685765D01*
X37389956Y-44651980D01*
X37318752Y-44618351D01*
X37235643Y-44606844D01*
X37150208Y-44618434D01*
X37079367Y-44651832D01*
X37019507Y-44708156D01*
X36976769Y-44779875D01*
X36949050Y-44872569D01*
X36938888Y-44991966D01*
X36629373Y-44991966D01*
X36640130Y-44860730D01*
X36671116Y-44744792D01*
X36722780Y-44639735D01*
X36792984Y-44551254D01*
X36880586Y-44479534D01*
X36985479Y-44425811D01*
X37102184Y-44393124D01*
X37235643Y-44381750D01*
X37367229Y-44392933D01*
G37*
G36*
X35994111Y-44387777D02*
G01*
X36092765Y-44404509D01*
X36174447Y-44430305D01*
X36251250Y-44467812D01*
X36309256Y-44509184D01*
X36351709Y-44554185D01*
X36384138Y-44606517D01*
X36402645Y-44657960D01*
X36408686Y-44709621D01*
X36399111Y-44756960D01*
X36370701Y-44794715D01*
X36329254Y-44819574D01*
X36280488Y-44827933D01*
X36228875Y-44821530D01*
X36204914Y-44806830D01*
X36145860Y-44721736D01*
X36099539Y-44664896D01*
X36047139Y-44626090D01*
X35981786Y-44603488D01*
X35875516Y-44594339D01*
X35788899Y-44602079D01*
X35734184Y-44621487D01*
X35701420Y-44649244D01*
X35679382Y-44688146D01*
X35662984Y-44743459D01*
X35654137Y-44820214D01*
X35828134Y-44866523D01*
X36023399Y-44909119D01*
X36166138Y-44938916D01*
X36254399Y-44966019D01*
X36325989Y-45004776D01*
X36383660Y-45054883D01*
X36427613Y-45116317D01*
X36453939Y-45185242D01*
X36462992Y-45263955D01*
X36451005Y-45351517D01*
X36415017Y-45432580D01*
X36378888Y-45480301D01*
X36333652Y-45521208D01*
X36278213Y-45555678D01*
X36217496Y-45580373D01*
X36149369Y-45595683D01*
X36072462Y-45601010D01*
X35948837Y-45590189D01*
X35841785Y-45559196D01*
X35740479Y-45508909D01*
X35631781Y-45435706D01*
X35580845Y-45508567D01*
X35536523Y-45557632D01*
X35488322Y-45590964D01*
X35442748Y-45601010D01*
X35389495Y-45591592D01*
X35341555Y-45562908D01*
X35307382Y-45521298D01*
X35296844Y-45477814D01*
X35301897Y-45444020D01*
X35325134Y-45360968D01*
X35346508Y-45271056D01*
X35353326Y-45187751D01*
X35351866Y-45046090D01*
X35654038Y-45046090D01*
X35659726Y-45148350D01*
X35674247Y-45218637D01*
X35694594Y-45265127D01*
X35738249Y-45318304D01*
X35804592Y-45362922D01*
X35882506Y-45391302D01*
X35968400Y-45400926D01*
X36021931Y-45395422D01*
X36065928Y-45379893D01*
X36102435Y-45354813D01*
X36131037Y-45321378D01*
X36147722Y-45284540D01*
X36153378Y-45242950D01*
X36142139Y-45185595D01*
X36109952Y-45143983D01*
X36064615Y-45113870D01*
X36018255Y-45096111D01*
X35843170Y-45057228D01*
X35724799Y-45029773D01*
X35654038Y-45008379D01*
X35654038Y-45046090D01*
X35351866Y-45046090D01*
X35351644Y-45024597D01*
X35351051Y-44846006D01*
X35357118Y-44734878D01*
X35373625Y-44646654D01*
X35398532Y-44577242D01*
X35437132Y-44516121D01*
X35490443Y-44466913D01*
X35560857Y-44428644D01*
X35639055Y-44404343D01*
X35742002Y-44387889D01*
X35875417Y-44381750D01*
X35994111Y-44387777D01*
G37*
G36*
X34744582Y-45167137D02*
G01*
X34744582Y-45416362D01*
X34750201Y-45476224D01*
X34765374Y-45521171D01*
X34788700Y-45554702D01*
X34820588Y-45580371D01*
X34857334Y-45595706D01*
X34900478Y-45601010D01*
X34942820Y-45595657D01*
X34978838Y-45580157D01*
X35010079Y-45554115D01*
X35032804Y-45520346D01*
X35047562Y-45475555D01*
X35053010Y-45416460D01*
X35053010Y-44585937D01*
X35045229Y-44503606D01*
X35025105Y-44447903D01*
X34995401Y-44411391D01*
X34955728Y-44389564D01*
X34902654Y-44381750D01*
X34853803Y-44387694D01*
X34817947Y-44403890D01*
X34791766Y-44429719D01*
X34766403Y-44483257D01*
X34754870Y-44559461D01*
X34701966Y-44483307D01*
X34648335Y-44429230D01*
X34607386Y-44403668D01*
X34556885Y-44387538D01*
X34494319Y-44381750D01*
X34400445Y-44393444D01*
X34307561Y-44429328D01*
X34254770Y-44466814D01*
X34226076Y-44508451D01*
X34216655Y-44556237D01*
X34226579Y-44607543D01*
X34255827Y-44648463D01*
X34297424Y-44676099D01*
X34340501Y-44684806D01*
X34421218Y-44664583D01*
X34483368Y-44648989D01*
X34532996Y-44644360D01*
X34593634Y-44653240D01*
X34639630Y-44678163D01*
X34675108Y-44718423D01*
X34703927Y-44779182D01*
X34722776Y-44849962D01*
X34735779Y-44939600D01*
X34744582Y-45167137D01*
G37*
G36*
X33157652Y-43943508D02*
G01*
X33192960Y-43959578D01*
X33221339Y-43986076D01*
X33241125Y-44020251D01*
X33254236Y-44066256D01*
X33259126Y-44127542D01*
X33259126Y-44561903D01*
X33343478Y-44485402D01*
X33429562Y-44432161D01*
X33491282Y-44408485D01*
X33564391Y-44393384D01*
X33651040Y-44388002D01*
X33761741Y-44398306D01*
X33857947Y-44427932D01*
X33942528Y-44476312D01*
X34017434Y-44544709D01*
X34075745Y-44626191D01*
X34119086Y-44723875D01*
X34146730Y-44840953D01*
X34156612Y-44981415D01*
X34147627Y-45110687D01*
X34121595Y-45227514D01*
X34077749Y-45335093D01*
X34018720Y-45425644D01*
X33943990Y-45500729D01*
X33857680Y-45555581D01*
X33761205Y-45589514D01*
X33655491Y-45601010D01*
X33575189Y-45595179D01*
X33503454Y-45578344D01*
X33436340Y-45550564D01*
X33374168Y-45512203D01*
X33316591Y-45464656D01*
X33259126Y-45405616D01*
X33259126Y-45426816D01*
X33253979Y-45481014D01*
X33239877Y-45523070D01*
X33217877Y-45555678D01*
X33171206Y-45589605D01*
X33113221Y-45601010D01*
X33054191Y-45589910D01*
X33008071Y-45557437D01*
X32986548Y-45525952D01*
X32972517Y-45483702D01*
X32967316Y-45427402D01*
X32967316Y-44989914D01*
X33275744Y-44989914D01*
X33286287Y-45109169D01*
X33314718Y-45199084D01*
X33361417Y-45273398D01*
X33418681Y-45323062D01*
X33486965Y-45353262D01*
X33562508Y-45363411D01*
X33637068Y-45352815D01*
X33705841Y-45320912D01*
X33763371Y-45269382D01*
X33809309Y-45194297D01*
X33836993Y-45104574D01*
X33847096Y-44989914D01*
X33837728Y-44880607D01*
X33811486Y-44790417D01*
X33767512Y-44713186D01*
X33711281Y-44658819D01*
X33642706Y-44624620D01*
X33564783Y-44613096D01*
X33489344Y-44624209D01*
X33419868Y-44657744D01*
X33361509Y-44711125D01*
X33314718Y-44787193D01*
X33286087Y-44877160D01*
X33275744Y-44989914D01*
X32967316Y-44989914D01*
X32967316Y-44111422D01*
X32977781Y-44033132D01*
X33005202Y-43981973D01*
X33033254Y-43957921D01*
X33068521Y-43943108D01*
X33113221Y-43937814D01*
X33157652Y-43943508D01*
G37*
G36*
X31912649Y-44569621D02*
G01*
X31670991Y-45238554D01*
X31410539Y-44540019D01*
X31376894Y-44461526D01*
X31348913Y-44418093D01*
X31312025Y-44391492D01*
X31255930Y-44381750D01*
X31201363Y-44391607D01*
X31155825Y-44420926D01*
X31124575Y-44463684D01*
X31114477Y-44511687D01*
X31121797Y-44558288D01*
X31138514Y-44607821D01*
X31160078Y-44660382D01*
X31450008Y-45370640D01*
X31481662Y-45448407D01*
X31525285Y-45529398D01*
X31552341Y-45559575D01*
X31584932Y-45582057D01*
X31622978Y-45595997D01*
X31670991Y-45601010D01*
X31731597Y-45593077D01*
X31775152Y-45571505D01*
X31809688Y-45539832D01*
X31832525Y-45507221D01*
X31894151Y-45370640D01*
X32181905Y-44668002D01*
X32202480Y-44615441D01*
X32220285Y-44561512D01*
X32227506Y-44513836D01*
X32222874Y-44483089D01*
X32208316Y-44451603D01*
X32185582Y-44423792D01*
X32155098Y-44401289D01*
X32119793Y-44386643D01*
X32081601Y-44381750D01*
X32032466Y-44387376D01*
X31998630Y-44402246D01*
X31975858Y-44425225D01*
X31948483Y-44476599D01*
X31912649Y-44569621D01*
G37*
G36*
X30545399Y-45313390D02*
G01*
X29973552Y-45313390D01*
X29892978Y-45323234D01*
X29839815Y-45348951D01*
X29814017Y-45375470D01*
X29798669Y-45407180D01*
X29793323Y-45445769D01*
X29802633Y-45496346D01*
X29830220Y-45538191D01*
X29873960Y-45565679D01*
X29941503Y-45576000D01*
X30755997Y-45576000D01*
X30810324Y-45570387D01*
X30853408Y-45554778D01*
X30887756Y-45529886D01*
X30923461Y-45479283D01*
X30935138Y-45421443D01*
X30928745Y-45379197D01*
X30905067Y-45316125D01*
X30872038Y-45255511D01*
X30839088Y-45213348D01*
X30573294Y-44953376D01*
X30462015Y-44855625D01*
X30403649Y-44810933D01*
X30318579Y-44745395D01*
X30253195Y-44683438D01*
X30199388Y-44617309D01*
X30161893Y-44552427D01*
X30138102Y-44484988D01*
X30130536Y-44421317D01*
X30139045Y-44354894D01*
X30163871Y-44297144D01*
X30203177Y-44248552D01*
X30254579Y-44212050D01*
X30314241Y-44189337D01*
X30379711Y-44181666D01*
X30447923Y-44189568D01*
X30506938Y-44212477D01*
X30558931Y-44250728D01*
X30605047Y-44306621D01*
X30642043Y-44396404D01*
X30671482Y-44464768D01*
X30701394Y-44510417D01*
X30741133Y-44540127D01*
X30799125Y-44550766D01*
X30851421Y-44541370D01*
X30893295Y-44513836D01*
X30920860Y-44471551D01*
X30930686Y-44413501D01*
X30922398Y-44337564D01*
X30896164Y-44255232D01*
X30853495Y-44177303D01*
X30793091Y-44105853D01*
X30717110Y-44046381D01*
X30619390Y-43997702D01*
X30508707Y-43967443D01*
X30373084Y-43956572D01*
X30260573Y-43962903D01*
X30164682Y-43980714D01*
X30082956Y-44008644D01*
X30009670Y-44050596D01*
X29945855Y-44105755D01*
X29893509Y-44172095D01*
X29853960Y-44248588D01*
X29829250Y-44331218D01*
X29821020Y-44416823D01*
X29828783Y-44506106D01*
X29851592Y-44588467D01*
X29889472Y-44665364D01*
X29961475Y-44768712D01*
X30028848Y-44840340D01*
X30266351Y-45038177D01*
X30417607Y-45167833D01*
X30494654Y-45247151D01*
X30545399Y-45313390D01*
G37*
G36*
X62316392Y-47101013D02*
G01*
X62247644Y-47101013D01*
X62247644Y-47013476D01*
X62237480Y-46879343D01*
X62211341Y-46787210D01*
X62181506Y-46736043D01*
X62140988Y-46695488D01*
X62088385Y-46664404D01*
X62029191Y-46644343D01*
X61951709Y-46630838D01*
X61851673Y-46625814D01*
X61736024Y-46633672D01*
X61661842Y-46653293D01*
X61616871Y-46680434D01*
X61592273Y-46713749D01*
X61584000Y-46755263D01*
X61591193Y-46794628D01*
X61612588Y-46827656D01*
X61644010Y-46850352D01*
X61680149Y-46857747D01*
X61741182Y-46851201D01*
X61814084Y-46844655D01*
X61864479Y-46850956D01*
X61896826Y-46867285D01*
X61916564Y-46892527D01*
X61932709Y-46946081D01*
X61939216Y-47030866D01*
X61939216Y-47101013D01*
X61868292Y-47101013D01*
X61780766Y-47109879D01*
X61729401Y-47131656D01*
X61701811Y-47162810D01*
X61692415Y-47205549D01*
X61698601Y-47252269D01*
X61714641Y-47282016D01*
X61739599Y-47299924D01*
X61791445Y-47314241D01*
X61868292Y-47319854D01*
X61939216Y-47319854D01*
X61939216Y-48104949D01*
X61944693Y-48163126D01*
X61959611Y-48207690D01*
X61982740Y-48241725D01*
X62014365Y-48267896D01*
X62051270Y-48283568D01*
X62095112Y-48289010D01*
X62136726Y-48283663D01*
X62172610Y-48268082D01*
X62204218Y-48241725D01*
X62227291Y-48207698D01*
X62242178Y-48163134D01*
X62247644Y-48104949D01*
X62247644Y-47319854D01*
X62327471Y-47319854D01*
X62390737Y-47311530D01*
X62433709Y-47289373D01*
X62461779Y-47254302D01*
X62471199Y-47209847D01*
X62462195Y-47163683D01*
X62436686Y-47131334D01*
X62391291Y-47109640D01*
X62316392Y-47101013D01*
G37*
G36*
X61156697Y-47080933D02*
G01*
X61273100Y-47113225D01*
X61377880Y-47166299D01*
X61464606Y-47236909D01*
X61533889Y-47324470D01*
X61585880Y-47430252D01*
X61617239Y-47547182D01*
X61628118Y-47679380D01*
X61617375Y-47810457D01*
X61586473Y-47925870D01*
X61534704Y-48030338D01*
X61464012Y-48119212D01*
X61376252Y-48191407D01*
X61273199Y-48245046D01*
X61158370Y-48277609D01*
X61025112Y-48289010D01*
X60890812Y-48277759D01*
X60774947Y-48245632D01*
X60670979Y-48192469D01*
X60583540Y-48120971D01*
X60513254Y-48032470D01*
X60461079Y-47926749D01*
X60429673Y-47810115D01*
X60418841Y-47679966D01*
X60728357Y-47679966D01*
X60738462Y-47797822D01*
X60766132Y-47890065D01*
X60808975Y-47962115D01*
X60852963Y-48006883D01*
X60902750Y-48038221D01*
X60959511Y-48057292D01*
X61025112Y-48063916D01*
X61083424Y-48058569D01*
X61134939Y-48043099D01*
X61181007Y-48017705D01*
X61238526Y-47962590D01*
X61282893Y-47884251D01*
X61309099Y-47792390D01*
X61318504Y-47679966D01*
X61308950Y-47566404D01*
X61282299Y-47473434D01*
X61253747Y-47417676D01*
X61219474Y-47373765D01*
X61179424Y-47339980D01*
X61108220Y-47306351D01*
X61025112Y-47294844D01*
X60939676Y-47306434D01*
X60868835Y-47339832D01*
X60808975Y-47396156D01*
X60766238Y-47467875D01*
X60738518Y-47560569D01*
X60728357Y-47679966D01*
X60418841Y-47679966D01*
X60429598Y-47548730D01*
X60460585Y-47432792D01*
X60512249Y-47327735D01*
X60582452Y-47239254D01*
X60670055Y-47167534D01*
X60774947Y-47113811D01*
X60891653Y-47081124D01*
X61025112Y-47069750D01*
X61156697Y-47080933D01*
G37*
G36*
X59895167Y-47855137D02*
G01*
X59895167Y-48104362D01*
X59900786Y-48164224D01*
X59915958Y-48209171D01*
X59939285Y-48242702D01*
X59971173Y-48268371D01*
X60007919Y-48283706D01*
X60051063Y-48289010D01*
X60093405Y-48283657D01*
X60129423Y-48268157D01*
X60160664Y-48242115D01*
X60183389Y-48208346D01*
X60198147Y-48163555D01*
X60203595Y-48104460D01*
X60203595Y-47273937D01*
X60195814Y-47191606D01*
X60175690Y-47135903D01*
X60145986Y-47099391D01*
X60106313Y-47077564D01*
X60053239Y-47069750D01*
X60004388Y-47075694D01*
X59968532Y-47091890D01*
X59942351Y-47117719D01*
X59916988Y-47171257D01*
X59905455Y-47247461D01*
X59852551Y-47171307D01*
X59798920Y-47117230D01*
X59757971Y-47091668D01*
X59707470Y-47075538D01*
X59644904Y-47069750D01*
X59551030Y-47081444D01*
X59458146Y-47117328D01*
X59405355Y-47154814D01*
X59376661Y-47196451D01*
X59367240Y-47244237D01*
X59377164Y-47295543D01*
X59406412Y-47336463D01*
X59448009Y-47364099D01*
X59491086Y-47372806D01*
X59571803Y-47352583D01*
X59633953Y-47336989D01*
X59683581Y-47332360D01*
X59744219Y-47341240D01*
X59790215Y-47366163D01*
X59825693Y-47406423D01*
X59854512Y-47467182D01*
X59873361Y-47537962D01*
X59886364Y-47627600D01*
X59895167Y-47855137D01*
G37*
G36*
X57648830Y-46913434D02*
G01*
X58292987Y-46913434D01*
X58292987Y-47313602D01*
X57755069Y-47313602D01*
X57685233Y-47323094D01*
X57640521Y-47347893D01*
X57612253Y-47387129D01*
X57602438Y-47439240D01*
X57612396Y-47491131D01*
X57641115Y-47530001D01*
X57686051Y-47554411D01*
X57755069Y-47563706D01*
X58292987Y-47563706D01*
X58292987Y-48088145D01*
X58299033Y-48154516D01*
X58315228Y-48203578D01*
X58339874Y-48239478D01*
X58373820Y-48266881D01*
X58413277Y-48283309D01*
X58459961Y-48289010D01*
X58507343Y-48283244D01*
X58547175Y-48266671D01*
X58581235Y-48239087D01*
X58605894Y-48202920D01*
X58622026Y-48154043D01*
X58628023Y-48088535D01*
X58628023Y-46858626D01*
X58622182Y-46791937D01*
X58606657Y-46743246D01*
X58579133Y-46704314D01*
X58539590Y-46677691D01*
X58490255Y-46662695D01*
X58423460Y-46657077D01*
X57648830Y-46657077D01*
X57575964Y-46666878D01*
X57529832Y-46692346D01*
X57500674Y-46732543D01*
X57490660Y-46784669D01*
X57500727Y-46837806D01*
X57529832Y-46878166D01*
X57575964Y-46903633D01*
X57648830Y-46913434D01*
G37*
G36*
X56914658Y-48001390D02*
G01*
X56342811Y-48001390D01*
X56262237Y-48011234D01*
X56209074Y-48036951D01*
X56183276Y-48063470D01*
X56167928Y-48095180D01*
X56162582Y-48133769D01*
X56171892Y-48184346D01*
X56199479Y-48226191D01*
X56243219Y-48253679D01*
X56310762Y-48264000D01*
X57125256Y-48264000D01*
X57179583Y-48258387D01*
X57222667Y-48242778D01*
X57257015Y-48217886D01*
X57292720Y-48167283D01*
X57304397Y-48109443D01*
X57298004Y-48067197D01*
X57274326Y-48004125D01*
X57241297Y-47943511D01*
X57208347Y-47901348D01*
X56942553Y-47641376D01*
X56831274Y-47543625D01*
X56772908Y-47498933D01*
X56687838Y-47433395D01*
X56622454Y-47371438D01*
X56568648Y-47305309D01*
X56531152Y-47240427D01*
X56507361Y-47172988D01*
X56499795Y-47109317D01*
X56508304Y-47042894D01*
X56533130Y-46985144D01*
X56572436Y-46936552D01*
X56623838Y-46900050D01*
X56683500Y-46877337D01*
X56748970Y-46869666D01*
X56817182Y-46877568D01*
X56876197Y-46900477D01*
X56928190Y-46938728D01*
X56974306Y-46994621D01*
X57011302Y-47084404D01*
X57040741Y-47152768D01*
X57070653Y-47198417D01*
X57110392Y-47228127D01*
X57168384Y-47238766D01*
X57220680Y-47229370D01*
X57262554Y-47201836D01*
X57290119Y-47159551D01*
X57299945Y-47101501D01*
X57291657Y-47025564D01*
X57265423Y-46943232D01*
X57222754Y-46865303D01*
X57162350Y-46793853D01*
X57086369Y-46734381D01*
X56988649Y-46685702D01*
X56877966Y-46655443D01*
X56742343Y-46644572D01*
X56629832Y-46650903D01*
X56533941Y-46668714D01*
X56452215Y-46696644D01*
X56378929Y-46738596D01*
X56315114Y-46793755D01*
X56262768Y-46860095D01*
X56223219Y-46936588D01*
X56198509Y-47019218D01*
X56190279Y-47104823D01*
X56198042Y-47194106D01*
X56220851Y-47276467D01*
X56258731Y-47353364D01*
X56330734Y-47456712D01*
X56398107Y-47528340D01*
X56635610Y-47726177D01*
X56786866Y-47855833D01*
X56863913Y-47935151D01*
X56914658Y-48001390D01*
G37*
G36*
X55030264Y-46932192D02*
G01*
X55553245Y-46932192D01*
X55614772Y-47274132D01*
X55511005Y-47228478D01*
X55416392Y-47202912D01*
X55329096Y-47194802D01*
X55225002Y-47204828D01*
X55129281Y-47234369D01*
X55041849Y-47281617D01*
X54966165Y-47343790D01*
X54903816Y-47419508D01*
X54855871Y-47509191D01*
X54825896Y-47607560D01*
X54815710Y-47714551D01*
X54823969Y-47818860D01*
X54848170Y-47915007D01*
X54888118Y-48004516D01*
X54943202Y-48085386D01*
X55012295Y-48154285D01*
X55096836Y-48212122D01*
X55190504Y-48254213D01*
X55294516Y-48280067D01*
X55411001Y-48289010D01*
X55542040Y-48279989D01*
X55648208Y-48255073D01*
X55734068Y-48216519D01*
X55812227Y-48162988D01*
X55869811Y-48107511D01*
X55910143Y-48049847D01*
X55950403Y-47957042D01*
X55961976Y-47885032D01*
X55953220Y-47843408D01*
X55925079Y-47801990D01*
X55883664Y-47772673D01*
X55832591Y-47762813D01*
X55776193Y-47774191D01*
X55729988Y-47808392D01*
X55691434Y-47871452D01*
X55657691Y-47932950D01*
X55618246Y-47982800D01*
X55573029Y-48022492D01*
X55521196Y-48052556D01*
X55466105Y-48070393D01*
X55406549Y-48076421D01*
X55326763Y-48065315D01*
X55258963Y-48032946D01*
X55203337Y-47981946D01*
X55161034Y-47913169D01*
X55135393Y-47833180D01*
X55126412Y-47739561D01*
X55136309Y-47639649D01*
X55163705Y-47560580D01*
X55208085Y-47494928D01*
X55263217Y-47450085D01*
X55328619Y-47422879D01*
X55402098Y-47413644D01*
X55489214Y-47420456D01*
X55536924Y-47436407D01*
X55654636Y-47516714D01*
X55730794Y-47562324D01*
X55782835Y-47574355D01*
X55834862Y-47564652D01*
X55881357Y-47534983D01*
X55913952Y-47491989D01*
X55924288Y-47445297D01*
X55912121Y-47370950D01*
X55819138Y-46851103D01*
X55794877Y-46765030D01*
X55760578Y-46712960D01*
X55728984Y-46690318D01*
X55684050Y-46675274D01*
X55621202Y-46669582D01*
X55036891Y-46669582D01*
X54952932Y-46679804D01*
X54901300Y-46705793D01*
X54871712Y-46745266D01*
X54861113Y-46802548D01*
X54872000Y-46855366D01*
X54904143Y-46896435D01*
X54953967Y-46922308D01*
X55030264Y-46932192D01*
G37*
G36*
X52752867Y-47778347D02*
G01*
X52761548Y-47873473D01*
X52786993Y-47960396D01*
X52829232Y-48040859D01*
X52886582Y-48111540D01*
X52960130Y-48172200D01*
X53052292Y-48223162D01*
X53152285Y-48258696D01*
X53267362Y-48281112D01*
X53400089Y-48289010D01*
X53558727Y-48277977D01*
X53689684Y-48247240D01*
X53797840Y-48199226D01*
X53867538Y-48151147D01*
X53927643Y-48093712D01*
X53978861Y-48026205D01*
X54018808Y-47951709D01*
X54041294Y-47881909D01*
X54048499Y-47815374D01*
X54037884Y-47759476D01*
X54006063Y-47712206D01*
X53958385Y-47680174D01*
X53898143Y-47669219D01*
X53848686Y-47677710D01*
X53808226Y-47702632D01*
X53775626Y-47741757D01*
X53745710Y-47801208D01*
X53712494Y-47873449D01*
X53679336Y-47928312D01*
X53637331Y-47973965D01*
X53579033Y-48012234D01*
X53508344Y-48036105D01*
X53408992Y-48045158D01*
X53314420Y-48037061D01*
X53237150Y-48014454D01*
X53173764Y-47978724D01*
X53122435Y-47929323D01*
X53093239Y-47874955D01*
X53083452Y-47813323D01*
X53089167Y-47762917D01*
X53105424Y-47721050D01*
X53132021Y-47685828D01*
X53186538Y-47643301D01*
X53258142Y-47610699D01*
X53466068Y-47555109D01*
X53633348Y-47509099D01*
X53759756Y-47460245D01*
X53834496Y-47418696D01*
X53896712Y-47369218D01*
X53947800Y-47311550D01*
X53985649Y-47245591D01*
X54009160Y-47168420D01*
X54017439Y-47077370D01*
X54009061Y-46990776D01*
X53984555Y-46912401D01*
X53943844Y-46840454D01*
X53888985Y-46778121D01*
X53818912Y-46725150D01*
X53731169Y-46681404D01*
X53636824Y-46651428D01*
X53528669Y-46632485D01*
X53404541Y-46625814D01*
X53260347Y-46635677D01*
X53145078Y-46662743D01*
X53042627Y-46706860D01*
X52963167Y-46760734D01*
X52898913Y-46825230D01*
X52857225Y-46889205D01*
X52831753Y-46957015D01*
X52823692Y-47020706D01*
X52834119Y-47076520D01*
X52866128Y-47127391D01*
X52896975Y-47153949D01*
X52931754Y-47169543D01*
X52971872Y-47174872D01*
X53024534Y-47167231D01*
X53059513Y-47146833D01*
X53088258Y-47113289D01*
X53124107Y-47055584D01*
X53174103Y-46972513D01*
X53229455Y-46914020D01*
X53273481Y-46887976D01*
X53337032Y-46870213D01*
X53426698Y-46863413D01*
X53509249Y-46870120D01*
X53575934Y-46888718D01*
X53629877Y-46917831D01*
X53674178Y-46958392D01*
X53698762Y-47001285D01*
X53706835Y-47048256D01*
X53700179Y-47092545D01*
X53680820Y-47129540D01*
X53650666Y-47160779D01*
X53608807Y-47188745D01*
X53515329Y-47227824D01*
X53358346Y-47269247D01*
X53224590Y-47303408D01*
X53109566Y-47339296D01*
X53003767Y-47383080D01*
X52919544Y-47432695D01*
X52849620Y-47494968D01*
X52796984Y-47571913D01*
X52773280Y-47629702D01*
X52758220Y-47697851D01*
X52752867Y-47778347D01*
G37*
G36*
X51748549Y-48151062D02*
G01*
X52013254Y-47721780D01*
X52173205Y-47871159D01*
X52173205Y-48106805D01*
X52178996Y-48163373D01*
X52194946Y-48207401D01*
X52220092Y-48241725D01*
X52271170Y-48277473D01*
X52328012Y-48289010D01*
X52373247Y-48283488D01*
X52409865Y-48267846D01*
X52439889Y-48242115D01*
X52461325Y-48208530D01*
X52475348Y-48163748D01*
X52480544Y-48104460D01*
X52480544Y-46832248D01*
X52475443Y-46766113D01*
X52461743Y-46716143D01*
X52441076Y-46678766D01*
X52411234Y-46649561D01*
X52374306Y-46632005D01*
X52328012Y-46625814D01*
X52282778Y-46631439D01*
X52245770Y-46647459D01*
X52215047Y-46673979D01*
X52192986Y-46708482D01*
X52178553Y-46754501D01*
X52173205Y-46815444D01*
X52173205Y-47534006D01*
X51838861Y-47185228D01*
X51741921Y-47094369D01*
X51705230Y-47076139D01*
X51659522Y-47069750D01*
X51606148Y-47079042D01*
X51563274Y-47106191D01*
X51534446Y-47146927D01*
X51524696Y-47197440D01*
X51534483Y-47238494D01*
X51570787Y-47295236D01*
X51648542Y-47374662D01*
X51807108Y-47518180D01*
X51498681Y-47996798D01*
X51449123Y-48078766D01*
X51437573Y-48107133D01*
X51433988Y-48132890D01*
X51444626Y-48199258D01*
X51474149Y-48247098D01*
X51519872Y-48278214D01*
X51579893Y-48289010D01*
X51631495Y-48280939D01*
X51666941Y-48258919D01*
X51698672Y-48222022D01*
X51748549Y-48151062D01*
G37*
G36*
X50841361Y-47075777D02*
G01*
X50940014Y-47092509D01*
X51021696Y-47118305D01*
X51098499Y-47155812D01*
X51156505Y-47197184D01*
X51198958Y-47242185D01*
X51231388Y-47294517D01*
X51249895Y-47345960D01*
X51255935Y-47397621D01*
X51246361Y-47444960D01*
X51217950Y-47482715D01*
X51176503Y-47507574D01*
X51127737Y-47515933D01*
X51076125Y-47509530D01*
X51052163Y-47494830D01*
X50993109Y-47409736D01*
X50946788Y-47352896D01*
X50894389Y-47314090D01*
X50829035Y-47291488D01*
X50722765Y-47282339D01*
X50636149Y-47290079D01*
X50581433Y-47309487D01*
X50548669Y-47337244D01*
X50526631Y-47376146D01*
X50510233Y-47431459D01*
X50501386Y-47508214D01*
X50675383Y-47554523D01*
X50870648Y-47597119D01*
X51013387Y-47626916D01*
X51101649Y-47654019D01*
X51173238Y-47692776D01*
X51230909Y-47742883D01*
X51274862Y-47804317D01*
X51301188Y-47873242D01*
X51310241Y-47951955D01*
X51298254Y-48039517D01*
X51262266Y-48120580D01*
X51226137Y-48168301D01*
X51180902Y-48209208D01*
X51125462Y-48243678D01*
X51064746Y-48268373D01*
X50996618Y-48283683D01*
X50919712Y-48289010D01*
X50796086Y-48278189D01*
X50689034Y-48247196D01*
X50587728Y-48196909D01*
X50479030Y-48123706D01*
X50428094Y-48196567D01*
X50383772Y-48245632D01*
X50335571Y-48278964D01*
X50289997Y-48289010D01*
X50236744Y-48279592D01*
X50188804Y-48250908D01*
X50154631Y-48209298D01*
X50144093Y-48165814D01*
X50149147Y-48132020D01*
X50172383Y-48048968D01*
X50193757Y-47959056D01*
X50200575Y-47875751D01*
X50199115Y-47734090D01*
X50501287Y-47734090D01*
X50506975Y-47836350D01*
X50521496Y-47906637D01*
X50541844Y-47953127D01*
X50585498Y-48006304D01*
X50651841Y-48050922D01*
X50729755Y-48079302D01*
X50815650Y-48088926D01*
X50869180Y-48083422D01*
X50913177Y-48067893D01*
X50949684Y-48042813D01*
X50978286Y-48009378D01*
X50994972Y-47972540D01*
X51000627Y-47930950D01*
X50989388Y-47873595D01*
X50957202Y-47831983D01*
X50911864Y-47801870D01*
X50865504Y-47784111D01*
X50690419Y-47745228D01*
X50572048Y-47717773D01*
X50501287Y-47696379D01*
X50501287Y-47734090D01*
X50199115Y-47734090D01*
X50198894Y-47712597D01*
X50198300Y-47534006D01*
X50204367Y-47422878D01*
X50220874Y-47334654D01*
X50245781Y-47265242D01*
X50284382Y-47204121D01*
X50337692Y-47154913D01*
X50408106Y-47116644D01*
X50486305Y-47092343D01*
X50589251Y-47075889D01*
X50722666Y-47069750D01*
X50841361Y-47075777D01*
G37*
G36*
X49949520Y-47101013D02*
G01*
X49919449Y-47101013D01*
X49919449Y-46925060D01*
X49915591Y-46811438D01*
X49907882Y-46772069D01*
X49893632Y-46739924D01*
X49871811Y-46711825D01*
X49841601Y-46689122D01*
X49805989Y-46674544D01*
X49765829Y-46669582D01*
X49710484Y-46680190D01*
X49659591Y-46713057D01*
X49633732Y-46745327D01*
X49619529Y-46783790D01*
X49611022Y-46901027D01*
X49611022Y-47101013D01*
X49503498Y-47101013D01*
X49443555Y-47109357D01*
X49403392Y-47131592D01*
X49377436Y-47166257D01*
X49368672Y-47209847D01*
X49374538Y-47247748D01*
X49390828Y-47275438D01*
X49418032Y-47295528D01*
X49473027Y-47312945D01*
X49557705Y-47319854D01*
X49611022Y-47319854D01*
X49611022Y-47863050D01*
X49606175Y-47969443D01*
X49596943Y-48003535D01*
X49580456Y-48028940D01*
X49554993Y-48045127D01*
X49512400Y-48051411D01*
X49440783Y-48042129D01*
X49369562Y-48032848D01*
X49334213Y-48040103D01*
X49301506Y-48062841D01*
X49278878Y-48096148D01*
X49271237Y-48136798D01*
X49279855Y-48181557D01*
X49305574Y-48218653D01*
X49352153Y-48250127D01*
X49407708Y-48270164D01*
X49483022Y-48283851D01*
X49583226Y-48289010D01*
X49677600Y-48282765D01*
X49748014Y-48266156D01*
X49799758Y-48241529D01*
X49843576Y-48205631D01*
X49875530Y-48162351D01*
X49896599Y-48110420D01*
X49913005Y-48019845D01*
X49919449Y-47887963D01*
X49919449Y-47319854D01*
X49956148Y-47319854D01*
X50017093Y-47311377D01*
X50057935Y-47288787D01*
X50084371Y-47253578D01*
X50093249Y-47209847D01*
X50084011Y-47166368D01*
X50056352Y-47131592D01*
X50013726Y-47109420D01*
X49949520Y-47101013D01*
G37*
G36*
X48789100Y-47080931D02*
G01*
X48905635Y-47113127D01*
X48977475Y-47146689D01*
X49040235Y-47188154D01*
X49094866Y-47237691D01*
X49161964Y-47326028D01*
X49211787Y-47432401D01*
X49241518Y-47549114D01*
X49251750Y-47678305D01*
X49240577Y-47817916D01*
X49208950Y-47936492D01*
X49158510Y-48037746D01*
X49089228Y-48124488D01*
X49003184Y-48194341D01*
X48901020Y-48245387D01*
X48779520Y-48277572D01*
X48634401Y-48289010D01*
X48510954Y-48280389D01*
X48408175Y-48256281D01*
X48315632Y-48218072D01*
X48244564Y-48173825D01*
X48185982Y-48121229D01*
X48146931Y-48069680D01*
X48121622Y-48015900D01*
X48114387Y-47974230D01*
X48122195Y-47931661D01*
X48144162Y-47901445D01*
X48177498Y-47882338D01*
X48221615Y-47875556D01*
X48262348Y-47881162D01*
X48290066Y-47896170D01*
X48381961Y-47979701D01*
X48458920Y-48037147D01*
X48501723Y-48060528D01*
X48545078Y-48076421D01*
X48590823Y-48085675D01*
X48643304Y-48088926D01*
X48720040Y-48079052D01*
X48789406Y-48049750D01*
X48848186Y-48001995D01*
X48895644Y-47933295D01*
X48925570Y-47852022D01*
X48936695Y-47757538D01*
X48348923Y-47757538D01*
X48237225Y-47747983D01*
X48163253Y-47723637D01*
X48128358Y-47694817D01*
X48105521Y-47647977D01*
X48097549Y-47582464D01*
X48395414Y-47582464D01*
X48936399Y-47582464D01*
X48918539Y-47486973D01*
X48889100Y-47414013D01*
X48849647Y-47358933D01*
X48797644Y-47316490D01*
X48737442Y-47291123D01*
X48666450Y-47282339D01*
X48591749Y-47291153D01*
X48529852Y-47316296D01*
X48477813Y-47357761D01*
X48438908Y-47412273D01*
X48410826Y-47485442D01*
X48395414Y-47582464D01*
X48097549Y-47582464D01*
X48096681Y-47575332D01*
X48103564Y-47495464D01*
X48124436Y-47415915D01*
X48160186Y-47335681D01*
X48208931Y-47262951D01*
X48272036Y-47199230D01*
X48351198Y-47143902D01*
X48439027Y-47103648D01*
X48539926Y-47078553D01*
X48656559Y-47069750D01*
X48789100Y-47080931D01*
G37*
G36*
X47768611Y-46631370D02*
G01*
X47803223Y-46647142D01*
X47831481Y-46673295D01*
X47851349Y-46707032D01*
X47864478Y-46752316D01*
X47869366Y-46812513D01*
X47869366Y-48115402D01*
X47864400Y-48171052D01*
X47850975Y-48213172D01*
X47830393Y-48244851D01*
X47801730Y-48269173D01*
X47767394Y-48283861D01*
X47725638Y-48289010D01*
X47666456Y-48277800D01*
X47619301Y-48244753D01*
X47597099Y-48212775D01*
X47582745Y-48170492D01*
X47577458Y-48114816D01*
X47577458Y-48093616D01*
X47502577Y-48173043D01*
X47428487Y-48228829D01*
X47381872Y-48252636D01*
X47323139Y-48272401D01*
X47259882Y-48284767D01*
X47191083Y-48289010D01*
X47080248Y-48277427D01*
X46981179Y-48243581D01*
X46893124Y-48188726D01*
X46819051Y-48114718D01*
X46760891Y-48025226D01*
X46717264Y-47918249D01*
X46691300Y-47801526D01*
X46682829Y-47677914D01*
X46991763Y-47677914D01*
X47002108Y-47795871D01*
X47030192Y-47886178D01*
X47073370Y-47954983D01*
X47132978Y-48009784D01*
X47196878Y-48041002D01*
X47267448Y-48051411D01*
X47351355Y-48040591D01*
X47421601Y-48009415D01*
X47481508Y-47957133D01*
X47524768Y-47889723D01*
X47552807Y-47801534D01*
X47563115Y-47686609D01*
X47552932Y-47571630D01*
X47524735Y-47479491D01*
X47478090Y-47401446D01*
X47419585Y-47346819D01*
X47348635Y-47312669D01*
X47267448Y-47301096D01*
X47189015Y-47312720D01*
X47122137Y-47346819D01*
X47067915Y-47400720D01*
X47025791Y-47476658D01*
X47000837Y-47565786D01*
X46991763Y-47677914D01*
X46682829Y-47677914D01*
X46682247Y-47669415D01*
X46689785Y-47548195D01*
X46711190Y-47443045D01*
X46745159Y-47351606D01*
X46793838Y-47267694D01*
X46852695Y-47200064D01*
X46922223Y-47146735D01*
X47001076Y-47107960D01*
X47088937Y-47084216D01*
X47187819Y-47076002D01*
X47274408Y-47081660D01*
X47347144Y-47097523D01*
X47408308Y-47122408D01*
X47493705Y-47176452D01*
X47577458Y-47250196D01*
X47577458Y-46800203D01*
X47587965Y-46723312D01*
X47615938Y-46671243D01*
X47644475Y-46646471D01*
X47680292Y-46631247D01*
X47725638Y-46625814D01*
X47768611Y-46631370D01*
G37*
G36*
X46060965Y-47080933D02*
G01*
X46177368Y-47113225D01*
X46282148Y-47166299D01*
X46368874Y-47236909D01*
X46438157Y-47324470D01*
X46490148Y-47430252D01*
X46521507Y-47547182D01*
X46532386Y-47679380D01*
X46521643Y-47810457D01*
X46490741Y-47925870D01*
X46438972Y-48030338D01*
X46368280Y-48119212D01*
X46280520Y-48191407D01*
X46177467Y-48245046D01*
X46062638Y-48277609D01*
X45929380Y-48289010D01*
X45795079Y-48277759D01*
X45679215Y-48245632D01*
X45575247Y-48192469D01*
X45487808Y-48120971D01*
X45417522Y-48032470D01*
X45365347Y-47926749D01*
X45333941Y-47810115D01*
X45323109Y-47679966D01*
X45632625Y-47679966D01*
X45642730Y-47797822D01*
X45670400Y-47890065D01*
X45713243Y-47962115D01*
X45757231Y-48006883D01*
X45807018Y-48038221D01*
X45863779Y-48057292D01*
X45929380Y-48063916D01*
X45987692Y-48058569D01*
X46039207Y-48043099D01*
X46085275Y-48017705D01*
X46142794Y-47962590D01*
X46187161Y-47884251D01*
X46213367Y-47792390D01*
X46222771Y-47679966D01*
X46213218Y-47566404D01*
X46186567Y-47473434D01*
X46158015Y-47417676D01*
X46123742Y-47373765D01*
X46083692Y-47339980D01*
X46012488Y-47306351D01*
X45929380Y-47294844D01*
X45843944Y-47306434D01*
X45773103Y-47339832D01*
X45713243Y-47396156D01*
X45670506Y-47467875D01*
X45642786Y-47560569D01*
X45632625Y-47679966D01*
X45323109Y-47679966D01*
X45333866Y-47548730D01*
X45364853Y-47432792D01*
X45416517Y-47327735D01*
X45486720Y-47239254D01*
X45574323Y-47167534D01*
X45679215Y-47113811D01*
X45795921Y-47081124D01*
X45929380Y-47069750D01*
X46060965Y-47080933D01*
G37*
G36*
X44687848Y-47075777D02*
G01*
X44786501Y-47092509D01*
X44868184Y-47118305D01*
X44944986Y-47155812D01*
X45002992Y-47197184D01*
X45045445Y-47242185D01*
X45077875Y-47294517D01*
X45096382Y-47345960D01*
X45102422Y-47397621D01*
X45092848Y-47444960D01*
X45064438Y-47482715D01*
X45022990Y-47507574D01*
X44974224Y-47515933D01*
X44922612Y-47509530D01*
X44898650Y-47494830D01*
X44839596Y-47409736D01*
X44793275Y-47352896D01*
X44740876Y-47314090D01*
X44675522Y-47291488D01*
X44569252Y-47282339D01*
X44482636Y-47290079D01*
X44427920Y-47309487D01*
X44395156Y-47337244D01*
X44373118Y-47376146D01*
X44356720Y-47431459D01*
X44347873Y-47508214D01*
X44521870Y-47554523D01*
X44717135Y-47597119D01*
X44859874Y-47626916D01*
X44948136Y-47654019D01*
X45019725Y-47692776D01*
X45077396Y-47742883D01*
X45121349Y-47804317D01*
X45147675Y-47873242D01*
X45156728Y-47951955D01*
X45144741Y-48039517D01*
X45108753Y-48120580D01*
X45072624Y-48168301D01*
X45027389Y-48209208D01*
X44971949Y-48243678D01*
X44911233Y-48268373D01*
X44843105Y-48283683D01*
X44766199Y-48289010D01*
X44642573Y-48278189D01*
X44535521Y-48247196D01*
X44434215Y-48196909D01*
X44325517Y-48123706D01*
X44274581Y-48196567D01*
X44230259Y-48245632D01*
X44182058Y-48278964D01*
X44136485Y-48289010D01*
X44083231Y-48279592D01*
X44035291Y-48250908D01*
X44001118Y-48209298D01*
X43990580Y-48165814D01*
X43995634Y-48132020D01*
X44018871Y-48048968D01*
X44040244Y-47959056D01*
X44047062Y-47875751D01*
X44045602Y-47734090D01*
X44347774Y-47734090D01*
X44353462Y-47836350D01*
X44367983Y-47906637D01*
X44388331Y-47953127D01*
X44431986Y-48006304D01*
X44498328Y-48050922D01*
X44576242Y-48079302D01*
X44662137Y-48088926D01*
X44715667Y-48083422D01*
X44759664Y-48067893D01*
X44796171Y-48042813D01*
X44824773Y-48009378D01*
X44841459Y-47972540D01*
X44847114Y-47930950D01*
X44835876Y-47873595D01*
X44803689Y-47831983D01*
X44758351Y-47801870D01*
X44711991Y-47784111D01*
X44536906Y-47745228D01*
X44418536Y-47717773D01*
X44347774Y-47696379D01*
X44347774Y-47734090D01*
X44045602Y-47734090D01*
X44045381Y-47712597D01*
X44044787Y-47534006D01*
X44050854Y-47422878D01*
X44067361Y-47334654D01*
X44092268Y-47265242D01*
X44130869Y-47204121D01*
X44184179Y-47154913D01*
X44254593Y-47116644D01*
X44332792Y-47092343D01*
X44435738Y-47075889D01*
X44569153Y-47069750D01*
X44687848Y-47075777D01*
G37*
G36*
X43438319Y-47855137D02*
G01*
X43438319Y-48104362D01*
X43443937Y-48164224D01*
X43459110Y-48209171D01*
X43482436Y-48242702D01*
X43514324Y-48268371D01*
X43551071Y-48283706D01*
X43594214Y-48289010D01*
X43636556Y-48283657D01*
X43672574Y-48268157D01*
X43703816Y-48242115D01*
X43726541Y-48208346D01*
X43741299Y-48163555D01*
X43746746Y-48104460D01*
X43746746Y-47273937D01*
X43738966Y-47191606D01*
X43718841Y-47135903D01*
X43689137Y-47099391D01*
X43649465Y-47077564D01*
X43596390Y-47069750D01*
X43547540Y-47075694D01*
X43511683Y-47091890D01*
X43485503Y-47117719D01*
X43460139Y-47171257D01*
X43448606Y-47247461D01*
X43395702Y-47171307D01*
X43342071Y-47117230D01*
X43301122Y-47091668D01*
X43250621Y-47075538D01*
X43188055Y-47069750D01*
X43094182Y-47081444D01*
X43001297Y-47117328D01*
X42948507Y-47154814D01*
X42919812Y-47196451D01*
X42910392Y-47244237D01*
X42920316Y-47295543D01*
X42949563Y-47336463D01*
X42991160Y-47364099D01*
X43034237Y-47372806D01*
X43114955Y-47352583D01*
X43177104Y-47336989D01*
X43226732Y-47332360D01*
X43287370Y-47341240D01*
X43333366Y-47366163D01*
X43368844Y-47406423D01*
X43397663Y-47467182D01*
X43416512Y-47537962D01*
X43429515Y-47627600D01*
X43438319Y-47855137D01*
G37*
G36*
X41851388Y-46631508D02*
G01*
X41886696Y-46647578D01*
X41915075Y-46674076D01*
X41934861Y-46708251D01*
X41947972Y-46754256D01*
X41952862Y-46815542D01*
X41952862Y-47249903D01*
X42037214Y-47173402D01*
X42123298Y-47120161D01*
X42185019Y-47096485D01*
X42258127Y-47081384D01*
X42344776Y-47076002D01*
X42455477Y-47086306D01*
X42551684Y-47115932D01*
X42636264Y-47164312D01*
X42711170Y-47232709D01*
X42769482Y-47314191D01*
X42812822Y-47411875D01*
X42840467Y-47528953D01*
X42850348Y-47669415D01*
X42841364Y-47798687D01*
X42815331Y-47915514D01*
X42771486Y-48023093D01*
X42712456Y-48113644D01*
X42637727Y-48188729D01*
X42551417Y-48243581D01*
X42454942Y-48277514D01*
X42349228Y-48289010D01*
X42268926Y-48283179D01*
X42197190Y-48266344D01*
X42130076Y-48238564D01*
X42067904Y-48200203D01*
X42010327Y-48152656D01*
X41952862Y-48093616D01*
X41952862Y-48114816D01*
X41947716Y-48169014D01*
X41933614Y-48211070D01*
X41911613Y-48243678D01*
X41864942Y-48277605D01*
X41806957Y-48289010D01*
X41747927Y-48277910D01*
X41701807Y-48245437D01*
X41680284Y-48213952D01*
X41666253Y-48171702D01*
X41661053Y-48115402D01*
X41661053Y-47677914D01*
X41969480Y-47677914D01*
X41980024Y-47797169D01*
X42008454Y-47887084D01*
X42055154Y-47961398D01*
X42112417Y-48011062D01*
X42180702Y-48041262D01*
X42256244Y-48051411D01*
X42330804Y-48040815D01*
X42399577Y-48008912D01*
X42457107Y-47957382D01*
X42503046Y-47882297D01*
X42530729Y-47792574D01*
X42540833Y-47677914D01*
X42531464Y-47568607D01*
X42505222Y-47478417D01*
X42461248Y-47401186D01*
X42405018Y-47346819D01*
X42336442Y-47312620D01*
X42258520Y-47301096D01*
X42183081Y-47312209D01*
X42113604Y-47345744D01*
X42055245Y-47399125D01*
X42008454Y-47475193D01*
X41979823Y-47565160D01*
X41969480Y-47677914D01*
X41661053Y-47677914D01*
X41661053Y-46799422D01*
X41671518Y-46721132D01*
X41698938Y-46669973D01*
X41726991Y-46645921D01*
X41762257Y-46631108D01*
X41806957Y-46625814D01*
X41851388Y-46631508D01*
G37*
G36*
X76097245Y-49319370D02*
G01*
X76131856Y-49335142D01*
X76160114Y-49361295D01*
X76179982Y-49395032D01*
X76193111Y-49440316D01*
X76198000Y-49500513D01*
X76198000Y-50803402D01*
X76193034Y-50859052D01*
X76179608Y-50901172D01*
X76159026Y-50932851D01*
X76130363Y-50957173D01*
X76096027Y-50971861D01*
X76054271Y-50977010D01*
X75995090Y-50965800D01*
X75947934Y-50932753D01*
X75925732Y-50900775D01*
X75911378Y-50858492D01*
X75906092Y-50802816D01*
X75906092Y-50781616D01*
X75831211Y-50861043D01*
X75757121Y-50916829D01*
X75710505Y-50940636D01*
X75651773Y-50960401D01*
X75588515Y-50972767D01*
X75519717Y-50977010D01*
X75408882Y-50965427D01*
X75309812Y-50931581D01*
X75221758Y-50876726D01*
X75147685Y-50802718D01*
X75089525Y-50713226D01*
X75045898Y-50606249D01*
X75019933Y-50489526D01*
X75011463Y-50365914D01*
X75320396Y-50365914D01*
X75330741Y-50483871D01*
X75358825Y-50574178D01*
X75402004Y-50642983D01*
X75461611Y-50697784D01*
X75525511Y-50729002D01*
X75596082Y-50739411D01*
X75679988Y-50728591D01*
X75750234Y-50697415D01*
X75810141Y-50645133D01*
X75853401Y-50577723D01*
X75881440Y-50489534D01*
X75891749Y-50374609D01*
X75881566Y-50259630D01*
X75853368Y-50167491D01*
X75806723Y-50089446D01*
X75748218Y-50034819D01*
X75677268Y-50000669D01*
X75596082Y-49989096D01*
X75517648Y-50000720D01*
X75450771Y-50034819D01*
X75396548Y-50088720D01*
X75354424Y-50164658D01*
X75329471Y-50253786D01*
X75320396Y-50365914D01*
X75011463Y-50365914D01*
X75010881Y-50357415D01*
X75018419Y-50236195D01*
X75039823Y-50131045D01*
X75073793Y-50039606D01*
X75122472Y-49955694D01*
X75181328Y-49888064D01*
X75250857Y-49834735D01*
X75329709Y-49795960D01*
X75417570Y-49772216D01*
X75516452Y-49764002D01*
X75603041Y-49769660D01*
X75675778Y-49785523D01*
X75736941Y-49810408D01*
X75822339Y-49864452D01*
X75906092Y-49938196D01*
X75906092Y-49488203D01*
X75916598Y-49411312D01*
X75944571Y-49359243D01*
X75973108Y-49334471D01*
X76008926Y-49319247D01*
X76054271Y-49313814D01*
X76097245Y-49319370D01*
G37*
G36*
X74509958Y-51011986D02*
G01*
X74482756Y-50946431D01*
X74854194Y-50021532D01*
X74881834Y-49945535D01*
X74888618Y-49904295D01*
X74883523Y-49866511D01*
X74868240Y-49831511D01*
X74844185Y-49801399D01*
X74812351Y-49777875D01*
X74775801Y-49762707D01*
X74738262Y-49757750D01*
X74695763Y-49762830D01*
X74663013Y-49776921D01*
X74637662Y-49799662D01*
X74607473Y-49847055D01*
X74578212Y-49918559D01*
X74325574Y-50645426D01*
X74086192Y-49970046D01*
X74033963Y-49839131D01*
X74007850Y-49797018D01*
X73983614Y-49774651D01*
X73953463Y-49762457D01*
X73908337Y-49757750D01*
X73874100Y-49762301D01*
X73840874Y-49776214D01*
X73812227Y-49797988D01*
X73791118Y-49826040D01*
X73777886Y-49858406D01*
X73773511Y-49892376D01*
X73788052Y-49951972D01*
X73812386Y-50029934D01*
X74206378Y-51049208D01*
X74259906Y-51175830D01*
X74306483Y-51261016D01*
X74363522Y-51329263D01*
X74436363Y-51379522D01*
X74491976Y-51401243D01*
X74563361Y-51415640D01*
X74654181Y-51420946D01*
X74779086Y-51412559D01*
X74855381Y-51392125D01*
X74892989Y-51367475D01*
X74915062Y-51333244D01*
X74922942Y-51286221D01*
X74914376Y-51238664D01*
X74890398Y-51205133D01*
X74852531Y-51184380D01*
X74794744Y-51176508D01*
X74746373Y-51183151D01*
X74697309Y-51189599D01*
X74649330Y-51185412D01*
X74616988Y-51174651D01*
X74590269Y-51155121D01*
X74564363Y-51122383D01*
X74509958Y-51011986D01*
G37*
G36*
X72659097Y-49514581D02*
G01*
X72659097Y-50683137D01*
X71996146Y-50683137D01*
X71921946Y-50693624D01*
X71871707Y-50721727D01*
X71839021Y-50765132D01*
X71828084Y-50818643D01*
X71839002Y-50872931D01*
X71871113Y-50915168D01*
X71920907Y-50941886D01*
X71996146Y-50952000D01*
X72789570Y-50952000D01*
X72860431Y-50945679D01*
X72910881Y-50929015D01*
X72946158Y-50904030D01*
X72971178Y-50868903D01*
X72987833Y-50819106D01*
X72994133Y-50749669D01*
X72994133Y-49513995D01*
X72988277Y-49448930D01*
X72972514Y-49400214D01*
X72948433Y-49364030D01*
X72915073Y-49336317D01*
X72875635Y-49319636D01*
X72828247Y-49313814D01*
X72780136Y-49319601D01*
X72740001Y-49336173D01*
X72705984Y-49363639D01*
X72681307Y-49399648D01*
X72665126Y-49448613D01*
X72659097Y-49514581D01*
G37*
G36*
X71233278Y-49768931D02*
G01*
X71349813Y-49801127D01*
X71421653Y-49834689D01*
X71484414Y-49876154D01*
X71539044Y-49925691D01*
X71606142Y-50014028D01*
X71655966Y-50120401D01*
X71685697Y-50237114D01*
X71695929Y-50366305D01*
X71684756Y-50505916D01*
X71653128Y-50624492D01*
X71602688Y-50725746D01*
X71533406Y-50812488D01*
X71447362Y-50882341D01*
X71345198Y-50933387D01*
X71223698Y-50965572D01*
X71078579Y-50977010D01*
X70955132Y-50968389D01*
X70852353Y-50944281D01*
X70759810Y-50906072D01*
X70688742Y-50861825D01*
X70630161Y-50809229D01*
X70591110Y-50757680D01*
X70565801Y-50703900D01*
X70558566Y-50662230D01*
X70566374Y-50619661D01*
X70588340Y-50589445D01*
X70621676Y-50570338D01*
X70665793Y-50563556D01*
X70706527Y-50569162D01*
X70734245Y-50584170D01*
X70826140Y-50667701D01*
X70903098Y-50725147D01*
X70945901Y-50748528D01*
X70989256Y-50764421D01*
X71035001Y-50773675D01*
X71087482Y-50776926D01*
X71164218Y-50767052D01*
X71233584Y-50737750D01*
X71292364Y-50689995D01*
X71339823Y-50621295D01*
X71369748Y-50540022D01*
X71380874Y-50445538D01*
X70793101Y-50445538D01*
X70681404Y-50435983D01*
X70607431Y-50411637D01*
X70572536Y-50382817D01*
X70549700Y-50335977D01*
X70541727Y-50270464D01*
X70839593Y-50270464D01*
X71380577Y-50270464D01*
X71362717Y-50174973D01*
X71333279Y-50102013D01*
X71293826Y-50046933D01*
X71241822Y-50004490D01*
X71181621Y-49979123D01*
X71110629Y-49970339D01*
X71035928Y-49979153D01*
X70974031Y-50004296D01*
X70921992Y-50045761D01*
X70883086Y-50100273D01*
X70855004Y-50173442D01*
X70839593Y-50270464D01*
X70541727Y-50270464D01*
X70540859Y-50263332D01*
X70547742Y-50183464D01*
X70568614Y-50103915D01*
X70604365Y-50023681D01*
X70653109Y-49950951D01*
X70716215Y-49887230D01*
X70795376Y-49831902D01*
X70883206Y-49791648D01*
X70984104Y-49766553D01*
X71100737Y-49757750D01*
X71233278Y-49768931D01*
G37*
G36*
X69893166Y-49768933D02*
G01*
X70009569Y-49801225D01*
X70114348Y-49854299D01*
X70201075Y-49924909D01*
X70270358Y-50012470D01*
X70322349Y-50118252D01*
X70353707Y-50235182D01*
X70364587Y-50367380D01*
X70353844Y-50498457D01*
X70322942Y-50613870D01*
X70271172Y-50718338D01*
X70200481Y-50807212D01*
X70112721Y-50879407D01*
X70009668Y-50933046D01*
X69894838Y-50965609D01*
X69761580Y-50977010D01*
X69627280Y-50965759D01*
X69511416Y-50933632D01*
X69407448Y-50880469D01*
X69320009Y-50808971D01*
X69249722Y-50720470D01*
X69197548Y-50614749D01*
X69166142Y-50498115D01*
X69155310Y-50367966D01*
X69464825Y-50367966D01*
X69474930Y-50485822D01*
X69502600Y-50578065D01*
X69545444Y-50650115D01*
X69589431Y-50694883D01*
X69639219Y-50726221D01*
X69695980Y-50745292D01*
X69761580Y-50751916D01*
X69819893Y-50746569D01*
X69871408Y-50731099D01*
X69917476Y-50705705D01*
X69974995Y-50650590D01*
X70019362Y-50572251D01*
X70045568Y-50480390D01*
X70054972Y-50367966D01*
X70045419Y-50254404D01*
X70018768Y-50161434D01*
X69990215Y-50105676D01*
X69955942Y-50061765D01*
X69915893Y-50027980D01*
X69844689Y-49994351D01*
X69761580Y-49982844D01*
X69676145Y-49994434D01*
X69605304Y-50027832D01*
X69545444Y-50084156D01*
X69502706Y-50155875D01*
X69474987Y-50248569D01*
X69464825Y-50367966D01*
X69155310Y-50367966D01*
X69166067Y-50236730D01*
X69197053Y-50120792D01*
X69248718Y-50015735D01*
X69318921Y-49927254D01*
X69406524Y-49855534D01*
X69511416Y-49801811D01*
X69628121Y-49769124D01*
X69761580Y-49757750D01*
X69893166Y-49768933D01*
G37*
G36*
X68847131Y-49772988D02*
G01*
X68891791Y-49804840D01*
X68912009Y-49835776D01*
X68925312Y-49877733D01*
X68930271Y-49934093D01*
X68930271Y-51219299D01*
X68922213Y-51310602D01*
X68901980Y-51368971D01*
X68878432Y-51396470D01*
X68841737Y-51414188D01*
X68786542Y-51420946D01*
X68734191Y-51413258D01*
X68695084Y-51391798D01*
X68665826Y-51355929D01*
X68646018Y-51301247D01*
X68638362Y-51220471D01*
X68638362Y-50780053D01*
X68558880Y-50864259D01*
X68475444Y-50925133D01*
X68414252Y-50953089D01*
X68342018Y-50970744D01*
X68256439Y-50977010D01*
X68151345Y-50966346D01*
X68054250Y-50934805D01*
X67966547Y-50883682D01*
X67891133Y-50814247D01*
X67830557Y-50728474D01*
X67782620Y-50620415D01*
X67753317Y-50501294D01*
X67743151Y-50367282D01*
X67743462Y-50362593D01*
X68052667Y-50362593D01*
X68062940Y-50478310D01*
X68091146Y-50569222D01*
X68137140Y-50645504D01*
X68192933Y-50697010D01*
X68259320Y-50728890D01*
X68330627Y-50739411D01*
X68409236Y-50728580D01*
X68477990Y-50696690D01*
X68539642Y-50641909D01*
X68584608Y-50572235D01*
X68613486Y-50482789D01*
X68624019Y-50368064D01*
X68613168Y-50245877D01*
X68583900Y-50153847D01*
X68539147Y-50085035D01*
X68477272Y-50031123D01*
X68408651Y-49999740D01*
X68330627Y-49989096D01*
X68256485Y-50000236D01*
X68189075Y-50033744D01*
X68133050Y-50086855D01*
X68088871Y-50162118D01*
X68062308Y-50250843D01*
X68052667Y-50362593D01*
X67743462Y-50362593D01*
X67751316Y-50244100D01*
X67774558Y-50136956D01*
X67811603Y-50043416D01*
X67863905Y-49957836D01*
X67925897Y-49889142D01*
X67998064Y-49835321D01*
X68079312Y-49795682D01*
X68164957Y-49772004D01*
X68256439Y-49764002D01*
X68333210Y-49769620D01*
X68402642Y-49785931D01*
X68465948Y-49812558D01*
X68553269Y-49871408D01*
X68638362Y-49957638D01*
X68638362Y-49930674D01*
X68643517Y-49877906D01*
X68657638Y-49837122D01*
X68679710Y-49805621D01*
X68726487Y-49773024D01*
X68786542Y-49761853D01*
X68847131Y-49772988D01*
G37*
G36*
X67107625Y-49768933D02*
G01*
X67224028Y-49801225D01*
X67328807Y-49854299D01*
X67415534Y-49924909D01*
X67484817Y-50012470D01*
X67536808Y-50118252D01*
X67568167Y-50235182D01*
X67579046Y-50367380D01*
X67568303Y-50498457D01*
X67537401Y-50613870D01*
X67485632Y-50718338D01*
X67414940Y-50807212D01*
X67327180Y-50879407D01*
X67224127Y-50933046D01*
X67109298Y-50965609D01*
X66976040Y-50977010D01*
X66841739Y-50965759D01*
X66725875Y-50933632D01*
X66621907Y-50880469D01*
X66534468Y-50808971D01*
X66464182Y-50720470D01*
X66412007Y-50614749D01*
X66380601Y-50498115D01*
X66369769Y-50367966D01*
X66679285Y-50367966D01*
X66689390Y-50485822D01*
X66717060Y-50578065D01*
X66759903Y-50650115D01*
X66803891Y-50694883D01*
X66853678Y-50726221D01*
X66910439Y-50745292D01*
X66976040Y-50751916D01*
X67034352Y-50746569D01*
X67085867Y-50731099D01*
X67131935Y-50705705D01*
X67189454Y-50650590D01*
X67233821Y-50572251D01*
X67260027Y-50480390D01*
X67269431Y-50367966D01*
X67259878Y-50254404D01*
X67233227Y-50161434D01*
X67204675Y-50105676D01*
X67170402Y-50061765D01*
X67130352Y-50027980D01*
X67059148Y-49994351D01*
X66976040Y-49982844D01*
X66890604Y-49994434D01*
X66819763Y-50027832D01*
X66759903Y-50084156D01*
X66717165Y-50155875D01*
X66689446Y-50248569D01*
X66679285Y-50367966D01*
X66369769Y-50367966D01*
X66380526Y-50236730D01*
X66411513Y-50120792D01*
X66463177Y-50015735D01*
X66533380Y-49927254D01*
X66620983Y-49855534D01*
X66725875Y-49801811D01*
X66842581Y-49769124D01*
X66976040Y-49757750D01*
X67107625Y-49768933D01*
G37*
G36*
X66138102Y-50792460D02*
G01*
X66138102Y-49498364D01*
X66132840Y-49439126D01*
X66118625Y-49394342D01*
X66096853Y-49360709D01*
X66066554Y-49334909D01*
X66030061Y-49319298D01*
X65985471Y-49313814D01*
X65940856Y-49319211D01*
X65903789Y-49334648D01*
X65872506Y-49360220D01*
X65849847Y-49393650D01*
X65835060Y-49438534D01*
X65829576Y-49498364D01*
X65829576Y-50792460D01*
X65835127Y-50852306D01*
X65850107Y-50897222D01*
X65873100Y-50930702D01*
X65904710Y-50956298D01*
X65941621Y-50971667D01*
X65985471Y-50977010D01*
X66028568Y-50971507D01*
X66064775Y-50955639D01*
X66095765Y-50929041D01*
X66118280Y-50894695D01*
X66132790Y-50850138D01*
X66138102Y-50792460D01*
G37*
G36*
X64594695Y-49319508D02*
G01*
X64630004Y-49335578D01*
X64658383Y-49362076D01*
X64678169Y-49396251D01*
X64691279Y-49442256D01*
X64696169Y-49503542D01*
X64696169Y-49937903D01*
X64780521Y-49861402D01*
X64866606Y-49808161D01*
X64928326Y-49784485D01*
X65001435Y-49769384D01*
X65088084Y-49764002D01*
X65198785Y-49774306D01*
X65294991Y-49803932D01*
X65379572Y-49852312D01*
X65454477Y-49920709D01*
X65512789Y-50002191D01*
X65556129Y-50099875D01*
X65583774Y-50216953D01*
X65593656Y-50357415D01*
X65584671Y-50486687D01*
X65558638Y-50603514D01*
X65514793Y-50711093D01*
X65455763Y-50801644D01*
X65381034Y-50876729D01*
X65294724Y-50931581D01*
X65198249Y-50965514D01*
X65092535Y-50977010D01*
X65012233Y-50971179D01*
X64940498Y-50954344D01*
X64873384Y-50926564D01*
X64811211Y-50888203D01*
X64753635Y-50840656D01*
X64696169Y-50781616D01*
X64696169Y-50802816D01*
X64691023Y-50857014D01*
X64676921Y-50899070D01*
X64654920Y-50931678D01*
X64608250Y-50965605D01*
X64550265Y-50977010D01*
X64491235Y-50965910D01*
X64445115Y-50933437D01*
X64423592Y-50901952D01*
X64409561Y-50859702D01*
X64404360Y-50803402D01*
X64404360Y-50365914D01*
X64712788Y-50365914D01*
X64723331Y-50485169D01*
X64751761Y-50575084D01*
X64798461Y-50649398D01*
X64855725Y-50699062D01*
X64924009Y-50729262D01*
X64999552Y-50739411D01*
X65074111Y-50728815D01*
X65142885Y-50696912D01*
X65200414Y-50645382D01*
X65246353Y-50570297D01*
X65274037Y-50480574D01*
X65284140Y-50365914D01*
X65274771Y-50256607D01*
X65248529Y-50166417D01*
X65204556Y-50089186D01*
X65148325Y-50034819D01*
X65079750Y-50000620D01*
X65001827Y-49989096D01*
X64926388Y-50000209D01*
X64856912Y-50033744D01*
X64798553Y-50087125D01*
X64751761Y-50163193D01*
X64723131Y-50253160D01*
X64712788Y-50365914D01*
X64404360Y-50365914D01*
X64404360Y-49487422D01*
X64414825Y-49409132D01*
X64442246Y-49357973D01*
X64470298Y-49333921D01*
X64505565Y-49319108D01*
X64550265Y-49313814D01*
X64594695Y-49319508D01*
G37*
G36*
X63707999Y-49768933D02*
G01*
X63824402Y-49801225D01*
X63929181Y-49854299D01*
X64015908Y-49924909D01*
X64085191Y-50012470D01*
X64137182Y-50118252D01*
X64168541Y-50235182D01*
X64179420Y-50367380D01*
X64168677Y-50498457D01*
X64137775Y-50613870D01*
X64086006Y-50718338D01*
X64015314Y-50807212D01*
X63927554Y-50879407D01*
X63824501Y-50933046D01*
X63709672Y-50965609D01*
X63576414Y-50977010D01*
X63442113Y-50965759D01*
X63326249Y-50933632D01*
X63222281Y-50880469D01*
X63134842Y-50808971D01*
X63064556Y-50720470D01*
X63012381Y-50614749D01*
X62980975Y-50498115D01*
X62970143Y-50367966D01*
X63279659Y-50367966D01*
X63289764Y-50485822D01*
X63317434Y-50578065D01*
X63360277Y-50650115D01*
X63404265Y-50694883D01*
X63454052Y-50726221D01*
X63510813Y-50745292D01*
X63576414Y-50751916D01*
X63634726Y-50746569D01*
X63686241Y-50731099D01*
X63732309Y-50705705D01*
X63789828Y-50650590D01*
X63834195Y-50572251D01*
X63860401Y-50480390D01*
X63869805Y-50367966D01*
X63860252Y-50254404D01*
X63833601Y-50161434D01*
X63805049Y-50105676D01*
X63770776Y-50061765D01*
X63730726Y-50027980D01*
X63659522Y-49994351D01*
X63576414Y-49982844D01*
X63490978Y-49994434D01*
X63420137Y-50027832D01*
X63360277Y-50084156D01*
X63317539Y-50155875D01*
X63289820Y-50248569D01*
X63279659Y-50367966D01*
X62970143Y-50367966D01*
X62980900Y-50236730D01*
X63011887Y-50120792D01*
X63063551Y-50015735D01*
X63133754Y-49927254D01*
X63221357Y-49855534D01*
X63326249Y-49801811D01*
X63442955Y-49769124D01*
X63576414Y-49757750D01*
X63707999Y-49768933D01*
G37*
G36*
X61602894Y-50706096D02*
G01*
X61859883Y-49685845D01*
X61856718Y-50790506D01*
X61862153Y-50851056D01*
X61876789Y-50896449D01*
X61899154Y-50930213D01*
X61930104Y-50955998D01*
X61966959Y-50971562D01*
X62011525Y-50977010D01*
X62054640Y-50971692D01*
X62091000Y-50956373D01*
X62122215Y-50930799D01*
X62144790Y-50897394D01*
X62159617Y-50851945D01*
X62165145Y-50790702D01*
X62165145Y-49525914D01*
X62157646Y-49457569D01*
X62138169Y-49411914D01*
X62108762Y-49382397D01*
X62045935Y-49355236D01*
X61957318Y-49345077D01*
X61855432Y-49345077D01*
X61769423Y-49350063D01*
X61720705Y-49361783D01*
X61684049Y-49384830D01*
X61658090Y-49421574D01*
X61612291Y-49560890D01*
X61379635Y-50424044D01*
X61146979Y-49560890D01*
X61101279Y-49421574D01*
X61075259Y-49384819D01*
X61038663Y-49361783D01*
X60989848Y-49350062D01*
X60903739Y-49345077D01*
X60801952Y-49345077D01*
X60713262Y-49355242D01*
X60650508Y-49382397D01*
X60621043Y-49411923D01*
X60601535Y-49457580D01*
X60594025Y-49525914D01*
X60594025Y-50790702D01*
X60599463Y-50851250D01*
X60614101Y-50896606D01*
X60636461Y-50930311D01*
X60667430Y-50955981D01*
X60704620Y-50971543D01*
X60749921Y-50977010D01*
X60792270Y-50971666D01*
X60828288Y-50956196D01*
X60859522Y-50930213D01*
X60882167Y-50896408D01*
X60896963Y-50851013D01*
X60902453Y-50790506D01*
X60899287Y-49685845D01*
X61156277Y-50706096D01*
X61197922Y-50852446D01*
X61220475Y-50896379D01*
X61258163Y-50938127D01*
X61308322Y-50966587D01*
X61379536Y-50977010D01*
X61434792Y-50970438D01*
X61478652Y-50952000D01*
X61514905Y-50923345D01*
X61541663Y-50888301D01*
X61576878Y-50802914D01*
X61602894Y-50706096D01*
G37*
G36*
X59877451Y-49768931D02*
G01*
X59993987Y-49801127D01*
X60065826Y-49834689D01*
X60128587Y-49876154D01*
X60183217Y-49925691D01*
X60250315Y-50014028D01*
X60300139Y-50120401D01*
X60329870Y-50237114D01*
X60340102Y-50366305D01*
X60328929Y-50505916D01*
X60297301Y-50624492D01*
X60246861Y-50725746D01*
X60177579Y-50812488D01*
X60091535Y-50882341D01*
X59989371Y-50933387D01*
X59867871Y-50965572D01*
X59722752Y-50977010D01*
X59599305Y-50968389D01*
X59496526Y-50944281D01*
X59403983Y-50906072D01*
X59332915Y-50861825D01*
X59274334Y-50809229D01*
X59235283Y-50757680D01*
X59209974Y-50703900D01*
X59202739Y-50662230D01*
X59210547Y-50619661D01*
X59232513Y-50589445D01*
X59265849Y-50570338D01*
X59309966Y-50563556D01*
X59350700Y-50569162D01*
X59378418Y-50584170D01*
X59470313Y-50667701D01*
X59547271Y-50725147D01*
X59590074Y-50748528D01*
X59633429Y-50764421D01*
X59679174Y-50773675D01*
X59731655Y-50776926D01*
X59808391Y-50767052D01*
X59877757Y-50737750D01*
X59936537Y-50689995D01*
X59983996Y-50621295D01*
X60013921Y-50540022D01*
X60025047Y-50445538D01*
X59437274Y-50445538D01*
X59325577Y-50435983D01*
X59251604Y-50411637D01*
X59216709Y-50382817D01*
X59193873Y-50335977D01*
X59185900Y-50270464D01*
X59483766Y-50270464D01*
X60024750Y-50270464D01*
X60006890Y-50174973D01*
X59977452Y-50102013D01*
X59937999Y-50046933D01*
X59885995Y-50004490D01*
X59825794Y-49979123D01*
X59754802Y-49970339D01*
X59680101Y-49979153D01*
X59618204Y-50004296D01*
X59566165Y-50045761D01*
X59527259Y-50100273D01*
X59499178Y-50173442D01*
X59483766Y-50270464D01*
X59185900Y-50270464D01*
X59185032Y-50263332D01*
X59191915Y-50183464D01*
X59212787Y-50103915D01*
X59248538Y-50023681D01*
X59297282Y-49950951D01*
X59360388Y-49887230D01*
X59439549Y-49831902D01*
X59527379Y-49791648D01*
X59628277Y-49766553D01*
X59744910Y-49757750D01*
X59877451Y-49768931D01*
G37*
G36*
X58656017Y-49926473D02*
G01*
X58656017Y-49953339D01*
X58602764Y-49892484D01*
X58546316Y-49844090D01*
X58486372Y-49806891D01*
X58421182Y-49780053D01*
X58348672Y-49763490D01*
X58267466Y-49757750D01*
X58188657Y-49763751D01*
X58117374Y-49781190D01*
X58052318Y-49809725D01*
X57994113Y-49849409D01*
X57947208Y-49898108D01*
X57910568Y-49956759D01*
X57885780Y-50013835D01*
X57871495Y-50075656D01*
X57862593Y-50237833D01*
X57862593Y-50792558D01*
X57867986Y-50851695D01*
X57882585Y-50896484D01*
X57905029Y-50930213D01*
X57935926Y-50956118D01*
X57972073Y-50971623D01*
X58015125Y-50977010D01*
X58058907Y-50971501D01*
X58095634Y-50955645D01*
X58127002Y-50929138D01*
X58149859Y-50894748D01*
X58164557Y-50850219D01*
X58169932Y-50792655D01*
X58169932Y-50295768D01*
X58175377Y-50197995D01*
X58189769Y-50125270D01*
X58210785Y-50072237D01*
X58244834Y-50031227D01*
X58296789Y-50005181D01*
X58373704Y-49995349D01*
X58449841Y-50007031D01*
X58519114Y-50042244D01*
X58575341Y-50097217D01*
X58615263Y-50171302D01*
X58630326Y-50251736D01*
X58637222Y-50419159D01*
X58637222Y-50792655D01*
X58642772Y-50852434D01*
X58657750Y-50897321D01*
X58680746Y-50930799D01*
X58712291Y-50956328D01*
X58749197Y-50971671D01*
X58793118Y-50977010D01*
X58835382Y-50971555D01*
X58871398Y-50955730D01*
X58902719Y-50929041D01*
X58925573Y-50894649D01*
X58940273Y-50850090D01*
X58945650Y-50792460D01*
X58945650Y-49930283D01*
X58940687Y-49873788D01*
X58927381Y-49831773D01*
X58907171Y-49800834D01*
X58862502Y-49768907D01*
X58801921Y-49757750D01*
X58762858Y-49762618D01*
X58728425Y-49776898D01*
X58699269Y-49800234D01*
X58675801Y-49833953D01*
X58661274Y-49874654D01*
X58656017Y-49926473D01*
G37*
G36*
X56638494Y-49319508D02*
G01*
X56673803Y-49335578D01*
X56702182Y-49362076D01*
X56721968Y-49396251D01*
X56735078Y-49442256D01*
X56739968Y-49503542D01*
X56739968Y-49937903D01*
X56824320Y-49861402D01*
X56910405Y-49808161D01*
X56972125Y-49784485D01*
X57045234Y-49769384D01*
X57131883Y-49764002D01*
X57242584Y-49774306D01*
X57338790Y-49803932D01*
X57423371Y-49852312D01*
X57498276Y-49920709D01*
X57556588Y-50002191D01*
X57599929Y-50099875D01*
X57627573Y-50216953D01*
X57637455Y-50357415D01*
X57628470Y-50486687D01*
X57602438Y-50603514D01*
X57558592Y-50711093D01*
X57499562Y-50801644D01*
X57424833Y-50876729D01*
X57338523Y-50931581D01*
X57242048Y-50965514D01*
X57136334Y-50977010D01*
X57056032Y-50971179D01*
X56984297Y-50954344D01*
X56917183Y-50926564D01*
X56855010Y-50888203D01*
X56797434Y-50840656D01*
X56739968Y-50781616D01*
X56739968Y-50802816D01*
X56734822Y-50857014D01*
X56720720Y-50899070D01*
X56698719Y-50931678D01*
X56652049Y-50965605D01*
X56594064Y-50977010D01*
X56535034Y-50965910D01*
X56488914Y-50933437D01*
X56467391Y-50901952D01*
X56453360Y-50859702D01*
X56448159Y-50803402D01*
X56448159Y-50365914D01*
X56756587Y-50365914D01*
X56767130Y-50485169D01*
X56795560Y-50575084D01*
X56842260Y-50649398D01*
X56899524Y-50699062D01*
X56967808Y-50729262D01*
X57043351Y-50739411D01*
X57117910Y-50728815D01*
X57186684Y-50696912D01*
X57244213Y-50645382D01*
X57290152Y-50570297D01*
X57317836Y-50480574D01*
X57327939Y-50365914D01*
X57318570Y-50256607D01*
X57292328Y-50166417D01*
X57248355Y-50089186D01*
X57192124Y-50034819D01*
X57123549Y-50000620D01*
X57045626Y-49989096D01*
X56970187Y-50000209D01*
X56900711Y-50033744D01*
X56842352Y-50087125D01*
X56795560Y-50163193D01*
X56766930Y-50253160D01*
X56756587Y-50365914D01*
X56448159Y-50365914D01*
X56448159Y-49487422D01*
X56458624Y-49409132D01*
X56486045Y-49357973D01*
X56514097Y-49333921D01*
X56549364Y-49319108D01*
X56594064Y-49313814D01*
X56638494Y-49319508D01*
G37*
G36*
X55751798Y-49768933D02*
G01*
X55868201Y-49801225D01*
X55972980Y-49854299D01*
X56059707Y-49924909D01*
X56128990Y-50012470D01*
X56180981Y-50118252D01*
X56212340Y-50235182D01*
X56223219Y-50367380D01*
X56212476Y-50498457D01*
X56181574Y-50613870D01*
X56129805Y-50718338D01*
X56059113Y-50807212D01*
X55971353Y-50879407D01*
X55868300Y-50933046D01*
X55753471Y-50965609D01*
X55620213Y-50977010D01*
X55485912Y-50965759D01*
X55370048Y-50933632D01*
X55266080Y-50880469D01*
X55178641Y-50808971D01*
X55108355Y-50720470D01*
X55056180Y-50614749D01*
X55024774Y-50498115D01*
X55013942Y-50367966D01*
X55323458Y-50367966D01*
X55333563Y-50485822D01*
X55361233Y-50578065D01*
X55404076Y-50650115D01*
X55448064Y-50694883D01*
X55497851Y-50726221D01*
X55554612Y-50745292D01*
X55620213Y-50751916D01*
X55678525Y-50746569D01*
X55730040Y-50731099D01*
X55776108Y-50705705D01*
X55833627Y-50650590D01*
X55877994Y-50572251D01*
X55904200Y-50480390D01*
X55913604Y-50367966D01*
X55904051Y-50254404D01*
X55877400Y-50161434D01*
X55848848Y-50105676D01*
X55814575Y-50061765D01*
X55774525Y-50027980D01*
X55703321Y-49994351D01*
X55620213Y-49982844D01*
X55534777Y-49994434D01*
X55463936Y-50027832D01*
X55404076Y-50084156D01*
X55361338Y-50155875D01*
X55333619Y-50248569D01*
X55323458Y-50367966D01*
X55013942Y-50367966D01*
X55024699Y-50236730D01*
X55055686Y-50120792D01*
X55107350Y-50015735D01*
X55177553Y-49927254D01*
X55265156Y-49855534D01*
X55370048Y-49801811D01*
X55486754Y-49769124D01*
X55620213Y-49757750D01*
X55751798Y-49768933D01*
G37*
G36*
X53955516Y-50107603D02*
G01*
X54504216Y-50714400D01*
X53919213Y-50714400D01*
X53852306Y-50723735D01*
X53808523Y-50748399D01*
X53780560Y-50786923D01*
X53771033Y-50835935D01*
X53780400Y-50882778D01*
X53808028Y-50919662D01*
X53851284Y-50943014D01*
X53919213Y-50952000D01*
X54738158Y-50952000D01*
X54795368Y-50947111D01*
X54837945Y-50934003D01*
X54869323Y-50914093D01*
X54901575Y-50870172D01*
X54912847Y-50810534D01*
X54905737Y-50772519D01*
X54882677Y-50732279D01*
X54758238Y-50589543D01*
X54577316Y-50391413D01*
X54426169Y-50225524D01*
X54310633Y-50094707D01*
X54240697Y-50007854D01*
X54683851Y-50007854D01*
X54771671Y-50003032D01*
X54826294Y-49991246D01*
X54852361Y-49975221D01*
X54868822Y-49947591D01*
X54875160Y-49903318D01*
X54865726Y-49855956D01*
X54838263Y-49820080D01*
X54795872Y-49797466D01*
X54733706Y-49789013D01*
X54039893Y-49789013D01*
X53949131Y-49797033D01*
X53890131Y-49817345D01*
X53861564Y-49840368D01*
X53843966Y-49873078D01*
X53837506Y-49918950D01*
X53847695Y-49969362D01*
X53870149Y-50011860D01*
X53903485Y-50051720D01*
X53955516Y-50107603D01*
G37*
G36*
X53197991Y-49763777D02*
G01*
X53296645Y-49780509D01*
X53378327Y-49806305D01*
X53455129Y-49843812D01*
X53513135Y-49885184D01*
X53555589Y-49930185D01*
X53588018Y-49982517D01*
X53606525Y-50033960D01*
X53612566Y-50085621D01*
X53602991Y-50132960D01*
X53574581Y-50170715D01*
X53533133Y-50195574D01*
X53484368Y-50203933D01*
X53432755Y-50197530D01*
X53408794Y-50182830D01*
X53349740Y-50097736D01*
X53303418Y-50040896D01*
X53251019Y-50002090D01*
X53185666Y-49979488D01*
X53079396Y-49970339D01*
X52992779Y-49978079D01*
X52938064Y-49997487D01*
X52905300Y-50025244D01*
X52883262Y-50064146D01*
X52866864Y-50119459D01*
X52858017Y-50196214D01*
X53032014Y-50242523D01*
X53227279Y-50285119D01*
X53370018Y-50314916D01*
X53458279Y-50342019D01*
X53529868Y-50380776D01*
X53587539Y-50430883D01*
X53631493Y-50492317D01*
X53657819Y-50561242D01*
X53666872Y-50639955D01*
X53654885Y-50727517D01*
X53618897Y-50808580D01*
X53582768Y-50856301D01*
X53537532Y-50897208D01*
X53482092Y-50931678D01*
X53421376Y-50956373D01*
X53353249Y-50971683D01*
X53276342Y-50977010D01*
X53152717Y-50966189D01*
X53045665Y-50935196D01*
X52944359Y-50884909D01*
X52835661Y-50811706D01*
X52784725Y-50884567D01*
X52740403Y-50933632D01*
X52692202Y-50966964D01*
X52646628Y-50977010D01*
X52593375Y-50967592D01*
X52545435Y-50938908D01*
X52511262Y-50897298D01*
X52500723Y-50853814D01*
X52505777Y-50820020D01*
X52529014Y-50736968D01*
X52550388Y-50647056D01*
X52557206Y-50563751D01*
X52555746Y-50422090D01*
X52857918Y-50422090D01*
X52863606Y-50524350D01*
X52878126Y-50594637D01*
X52898474Y-50641127D01*
X52942129Y-50694304D01*
X53008471Y-50738922D01*
X53086386Y-50767302D01*
X53172280Y-50776926D01*
X53225811Y-50771422D01*
X53269807Y-50755893D01*
X53306315Y-50730813D01*
X53334916Y-50697378D01*
X53351602Y-50660540D01*
X53357257Y-50618950D01*
X53346019Y-50561595D01*
X53313832Y-50519983D01*
X53268495Y-50489870D01*
X53222135Y-50472111D01*
X53047050Y-50433228D01*
X52928679Y-50405773D01*
X52857918Y-50384379D01*
X52857918Y-50422090D01*
X52555746Y-50422090D01*
X52555524Y-50400597D01*
X52554931Y-50222006D01*
X52560998Y-50110878D01*
X52577505Y-50022654D01*
X52602412Y-49953242D01*
X52641012Y-49892121D01*
X52694323Y-49842913D01*
X52764737Y-49804644D01*
X52842935Y-49780343D01*
X52945882Y-49763889D01*
X53079297Y-49757750D01*
X53197991Y-49763777D01*
G37*
G36*
X52049953Y-50983458D02*
G01*
X52116769Y-50972166D01*
X52175084Y-50938322D01*
X52204685Y-50904884D01*
X52222773Y-50863523D01*
X52229193Y-50811804D01*
X52223252Y-50767191D01*
X52205854Y-50728288D01*
X52176271Y-50693591D01*
X52138623Y-50666838D01*
X52097371Y-50651008D01*
X52051238Y-50645621D01*
X51999533Y-50652918D01*
X51953210Y-50674637D01*
X51914714Y-50709490D01*
X51884561Y-50759536D01*
X51866559Y-50819344D01*
X51859930Y-50897094D01*
X51871712Y-51003046D01*
X51906719Y-51101378D01*
X51960146Y-51188705D01*
X52021167Y-51252516D01*
X52089473Y-51296101D01*
X52144123Y-51308399D01*
X52176862Y-51302422D01*
X52202287Y-51285049D01*
X52219188Y-51259672D01*
X52224741Y-51230827D01*
X52213505Y-51189579D01*
X52177854Y-51155893D01*
X52117622Y-51115219D01*
X52078905Y-51073468D01*
X52057124Y-51030062D01*
X52049953Y-50983458D01*
G37*
G36*
X50410084Y-50706096D02*
G01*
X50667074Y-49685845D01*
X50663909Y-50790506D01*
X50669344Y-50851056D01*
X50683980Y-50896449D01*
X50706345Y-50930213D01*
X50737295Y-50955998D01*
X50774149Y-50971562D01*
X50818716Y-50977010D01*
X50861830Y-50971692D01*
X50898190Y-50956373D01*
X50929405Y-50930799D01*
X50951981Y-50897394D01*
X50966808Y-50851945D01*
X50972336Y-50790702D01*
X50972336Y-49525914D01*
X50964836Y-49457569D01*
X50945360Y-49411914D01*
X50915953Y-49382397D01*
X50853126Y-49355236D01*
X50764509Y-49345077D01*
X50662623Y-49345077D01*
X50576613Y-49350063D01*
X50527896Y-49361783D01*
X50491239Y-49384830D01*
X50465280Y-49421574D01*
X50419481Y-49560890D01*
X50186825Y-50424044D01*
X49954169Y-49560890D01*
X49908469Y-49421574D01*
X49882449Y-49384819D01*
X49845854Y-49361783D01*
X49797038Y-49350062D01*
X49710929Y-49345077D01*
X49609142Y-49345077D01*
X49520452Y-49355242D01*
X49457698Y-49382397D01*
X49428234Y-49411923D01*
X49408726Y-49457580D01*
X49401216Y-49525914D01*
X49401216Y-50790702D01*
X49406653Y-50851250D01*
X49421291Y-50896606D01*
X49443652Y-50930311D01*
X49474620Y-50955981D01*
X49511811Y-50971543D01*
X49557111Y-50977010D01*
X49599460Y-50971666D01*
X49635479Y-50956196D01*
X49666713Y-50930213D01*
X49689357Y-50896408D01*
X49704153Y-50851013D01*
X49709643Y-50790506D01*
X49706478Y-49685845D01*
X49963468Y-50706096D01*
X50005112Y-50852446D01*
X50027665Y-50896379D01*
X50065354Y-50938127D01*
X50115513Y-50966587D01*
X50186726Y-50977010D01*
X50241983Y-50970438D01*
X50285843Y-50952000D01*
X50322095Y-50923345D01*
X50348854Y-50888301D01*
X50384069Y-50802914D01*
X50410084Y-50706096D01*
G37*
G36*
X48782383Y-49930283D02*
G01*
X48782383Y-50792460D01*
X48787962Y-50851522D01*
X48803103Y-50896346D01*
X48826500Y-50930213D01*
X48858424Y-50956176D01*
X48895169Y-50971660D01*
X48938278Y-50977010D01*
X48981374Y-50971507D01*
X49017582Y-50955639D01*
X49048572Y-50929041D01*
X49071087Y-50894695D01*
X49085596Y-50850138D01*
X49090909Y-50792460D01*
X49090909Y-49938978D01*
X49085520Y-49880580D01*
X49070954Y-49836555D01*
X49048572Y-49803570D01*
X49017685Y-49778252D01*
X48981470Y-49763043D01*
X48938278Y-49757750D01*
X48895093Y-49762997D01*
X48858345Y-49778152D01*
X48826500Y-49803472D01*
X48802739Y-49836439D01*
X48787775Y-49877904D01*
X48782383Y-49930283D01*
G37*
G36*
X48935014Y-49626445D02*
G01*
X48995087Y-49616458D01*
X49045110Y-49587073D01*
X49070045Y-49558040D01*
X49085418Y-49521690D01*
X49090909Y-49475796D01*
X49085558Y-49434398D01*
X49070060Y-49399142D01*
X49044022Y-49368524D01*
X48993111Y-49336806D01*
X48935014Y-49326319D01*
X48878600Y-49335869D01*
X48828775Y-49364616D01*
X48803587Y-49393015D01*
X48787989Y-49429260D01*
X48782383Y-49475796D01*
X48787780Y-49520957D01*
X48802964Y-49557164D01*
X48827687Y-49586487D01*
X48876959Y-49616395D01*
X48935014Y-49626445D01*
G37*
G36*
X47723758Y-50839062D02*
G01*
X47988464Y-50409780D01*
X48148415Y-50559159D01*
X48148415Y-50794805D01*
X48154206Y-50851373D01*
X48170156Y-50895401D01*
X48195302Y-50929725D01*
X48246380Y-50965473D01*
X48303222Y-50977010D01*
X48348456Y-50971488D01*
X48385075Y-50955846D01*
X48415099Y-50930115D01*
X48436535Y-50896530D01*
X48450558Y-50851748D01*
X48455754Y-50792460D01*
X48455754Y-49520248D01*
X48450653Y-49454113D01*
X48436953Y-49404143D01*
X48416286Y-49366766D01*
X48386444Y-49337561D01*
X48349515Y-49320005D01*
X48303222Y-49313814D01*
X48257987Y-49319439D01*
X48220980Y-49335459D01*
X48190257Y-49361979D01*
X48168195Y-49396482D01*
X48153763Y-49442501D01*
X48148415Y-49503444D01*
X48148415Y-50222006D01*
X47814071Y-49873228D01*
X47717131Y-49782369D01*
X47680440Y-49764139D01*
X47634732Y-49757750D01*
X47581358Y-49767042D01*
X47538484Y-49794191D01*
X47509656Y-49834927D01*
X47499906Y-49885440D01*
X47509693Y-49926494D01*
X47545997Y-49983236D01*
X47623752Y-50062662D01*
X47782318Y-50206180D01*
X47473891Y-50684798D01*
X47424332Y-50766766D01*
X47412783Y-50795133D01*
X47409198Y-50820890D01*
X47419836Y-50887258D01*
X47449359Y-50935098D01*
X47495081Y-50966214D01*
X47555103Y-50977010D01*
X47606704Y-50968939D01*
X47642151Y-50946919D01*
X47673882Y-50910022D01*
X47723758Y-50839062D01*
G37*
G36*
X46813898Y-49768931D02*
G01*
X46930433Y-49801127D01*
X47002273Y-49834689D01*
X47065033Y-49876154D01*
X47119664Y-49925691D01*
X47186762Y-50014028D01*
X47236585Y-50120401D01*
X47266316Y-50237114D01*
X47276548Y-50366305D01*
X47265375Y-50505916D01*
X47233748Y-50624492D01*
X47183308Y-50725746D01*
X47114026Y-50812488D01*
X47027982Y-50882341D01*
X46925818Y-50933387D01*
X46804318Y-50965572D01*
X46659199Y-50977010D01*
X46535752Y-50968389D01*
X46432973Y-50944281D01*
X46340430Y-50906072D01*
X46269362Y-50861825D01*
X46210780Y-50809229D01*
X46171729Y-50757680D01*
X46146420Y-50703900D01*
X46139185Y-50662230D01*
X46146993Y-50619661D01*
X46168960Y-50589445D01*
X46202296Y-50570338D01*
X46246413Y-50563556D01*
X46287147Y-50569162D01*
X46314864Y-50584170D01*
X46406759Y-50667701D01*
X46483718Y-50725147D01*
X46526521Y-50748528D01*
X46569876Y-50764421D01*
X46615621Y-50773675D01*
X46668102Y-50776926D01*
X46744838Y-50767052D01*
X46814204Y-50737750D01*
X46872984Y-50689995D01*
X46920442Y-50621295D01*
X46950368Y-50540022D01*
X46961494Y-50445538D01*
X46373721Y-50445538D01*
X46262024Y-50435983D01*
X46188051Y-50411637D01*
X46153156Y-50382817D01*
X46130319Y-50335977D01*
X46122347Y-50270464D01*
X46420212Y-50270464D01*
X46961197Y-50270464D01*
X46943337Y-50174973D01*
X46913898Y-50102013D01*
X46874445Y-50046933D01*
X46822442Y-50004490D01*
X46762240Y-49979123D01*
X46691249Y-49970339D01*
X46616547Y-49979153D01*
X46554650Y-50004296D01*
X46502611Y-50045761D01*
X46463706Y-50100273D01*
X46435624Y-50173442D01*
X46420212Y-50270464D01*
X46122347Y-50270464D01*
X46121479Y-50263332D01*
X46128362Y-50183464D01*
X46149234Y-50103915D01*
X46184984Y-50023681D01*
X46233729Y-49950951D01*
X46296834Y-49887230D01*
X46375996Y-49831902D01*
X46463826Y-49791648D01*
X46564724Y-49766553D01*
X46681357Y-49757750D01*
X46813898Y-49768931D01*
G37*
G36*
X44966508Y-50776047D02*
G01*
X44966508Y-50268706D01*
X45362182Y-49662886D01*
X45436074Y-49534414D01*
X45452939Y-49488971D01*
X45457836Y-49453521D01*
X45446848Y-49400763D01*
X45413223Y-49355140D01*
X45363793Y-49324324D01*
X45303028Y-49313814D01*
X45240692Y-49324109D01*
X45198768Y-49352209D01*
X45160567Y-49400859D01*
X45093420Y-49503542D01*
X44792906Y-49986263D01*
X44489029Y-49503542D01*
X44442538Y-49427924D01*
X44400695Y-49370087D01*
X44375981Y-49345769D01*
X44349455Y-49328371D01*
X44319136Y-49317681D01*
X44280509Y-49313814D01*
X44221969Y-49324198D01*
X44174766Y-49354651D01*
X44142714Y-49399169D01*
X44132330Y-49449222D01*
X44137514Y-49491910D01*
X44153597Y-49535586D01*
X44225808Y-49654288D01*
X44631472Y-50268803D01*
X44631472Y-50776047D01*
X44637536Y-50841638D01*
X44653861Y-50890612D01*
X44678854Y-50926891D01*
X44713206Y-50954666D01*
X44752873Y-50971265D01*
X44799534Y-50977010D01*
X44846985Y-50971257D01*
X44886635Y-50954763D01*
X44920313Y-50927380D01*
X44944575Y-50891480D01*
X44960543Y-50842414D01*
X44966508Y-50776047D01*
G37*
G36*
X43600537Y-49763777D02*
G01*
X43699190Y-49780509D01*
X43780873Y-49806305D01*
X43857675Y-49843812D01*
X43915681Y-49885184D01*
X43958134Y-49930185D01*
X43990564Y-49982517D01*
X44009071Y-50033960D01*
X44015111Y-50085621D01*
X44005537Y-50132960D01*
X43977127Y-50170715D01*
X43935679Y-50195574D01*
X43886913Y-50203933D01*
X43835301Y-50197530D01*
X43811340Y-50182830D01*
X43752285Y-50097736D01*
X43705964Y-50040896D01*
X43653565Y-50002090D01*
X43588211Y-49979488D01*
X43481942Y-49970339D01*
X43395325Y-49978079D01*
X43340609Y-49997487D01*
X43307845Y-50025244D01*
X43285807Y-50064146D01*
X43269410Y-50119459D01*
X43260562Y-50196214D01*
X43434560Y-50242523D01*
X43629824Y-50285119D01*
X43772564Y-50314916D01*
X43860825Y-50342019D01*
X43932414Y-50380776D01*
X43990085Y-50430883D01*
X44034039Y-50492317D01*
X44060364Y-50561242D01*
X44069418Y-50639955D01*
X44057431Y-50727517D01*
X44021442Y-50808580D01*
X43985313Y-50856301D01*
X43940078Y-50897208D01*
X43884638Y-50931678D01*
X43823922Y-50956373D01*
X43755794Y-50971683D01*
X43678888Y-50977010D01*
X43555262Y-50966189D01*
X43448210Y-50935196D01*
X43346904Y-50884909D01*
X43238207Y-50811706D01*
X43187271Y-50884567D01*
X43142948Y-50933632D01*
X43094748Y-50966964D01*
X43049174Y-50977010D01*
X42995921Y-50967592D01*
X42947980Y-50938908D01*
X42913808Y-50897298D01*
X42903269Y-50853814D01*
X42908323Y-50820020D01*
X42931560Y-50736968D01*
X42952933Y-50647056D01*
X42959752Y-50563751D01*
X42958292Y-50422090D01*
X43260463Y-50422090D01*
X43266151Y-50524350D01*
X43280672Y-50594637D01*
X43301020Y-50641127D01*
X43344675Y-50694304D01*
X43411017Y-50738922D01*
X43488931Y-50767302D01*
X43574826Y-50776926D01*
X43628356Y-50771422D01*
X43672353Y-50755893D01*
X43708860Y-50730813D01*
X43737462Y-50697378D01*
X43754148Y-50660540D01*
X43759803Y-50618950D01*
X43748565Y-50561595D01*
X43716378Y-50519983D01*
X43671041Y-50489870D01*
X43624681Y-50472111D01*
X43449595Y-50433228D01*
X43331225Y-50405773D01*
X43260463Y-50384379D01*
X43260463Y-50422090D01*
X42958292Y-50422090D01*
X42958070Y-50400597D01*
X42957476Y-50222006D01*
X42963543Y-50110878D01*
X42980050Y-50022654D01*
X43004957Y-49953242D01*
X43043558Y-49892121D01*
X43096868Y-49842913D01*
X43167282Y-49804644D01*
X43245481Y-49780343D01*
X43348428Y-49763889D01*
X43481843Y-49757750D01*
X43600537Y-49763777D01*
G37*
G36*
X42328974Y-49768933D02*
G01*
X42445376Y-49801225D01*
X42550156Y-49854299D01*
X42636882Y-49924909D01*
X42706165Y-50012470D01*
X42758156Y-50118252D01*
X42789515Y-50235182D01*
X42800394Y-50367380D01*
X42789651Y-50498457D01*
X42758749Y-50613870D01*
X42706980Y-50718338D01*
X42636289Y-50807212D01*
X42548528Y-50879407D01*
X42445475Y-50933046D01*
X42330646Y-50965609D01*
X42197388Y-50977010D01*
X42063088Y-50965759D01*
X41947223Y-50933632D01*
X41843256Y-50880469D01*
X41755816Y-50808971D01*
X41685530Y-50720470D01*
X41633355Y-50614749D01*
X41601949Y-50498115D01*
X41591117Y-50367966D01*
X41900633Y-50367966D01*
X41910738Y-50485822D01*
X41938408Y-50578065D01*
X41981251Y-50650115D01*
X42025239Y-50694883D01*
X42075026Y-50726221D01*
X42131788Y-50745292D01*
X42197388Y-50751916D01*
X42255700Y-50746569D01*
X42307216Y-50731099D01*
X42353283Y-50705705D01*
X42410803Y-50650590D01*
X42455169Y-50572251D01*
X42481375Y-50480390D01*
X42490780Y-50367966D01*
X42481226Y-50254404D01*
X42454576Y-50161434D01*
X42426023Y-50105676D01*
X42391750Y-50061765D01*
X42351700Y-50027980D01*
X42280496Y-49994351D01*
X42197388Y-49982844D01*
X42111952Y-49994434D01*
X42041111Y-50027832D01*
X41981251Y-50084156D01*
X41938514Y-50155875D01*
X41910795Y-50248569D01*
X41900633Y-50367966D01*
X41591117Y-50367966D01*
X41601874Y-50236730D01*
X41632861Y-50120792D01*
X41684525Y-50015735D01*
X41754728Y-49927254D01*
X41842331Y-49855534D01*
X41947223Y-49801811D01*
X42063929Y-49769124D01*
X42197388Y-49757750D01*
X42328974Y-49768933D01*
G37*
G36*
X41197422Y-50983458D02*
G01*
X41264239Y-50972166D01*
X41322554Y-50938322D01*
X41352155Y-50904884D01*
X41370243Y-50863523D01*
X41376662Y-50811804D01*
X41370722Y-50767191D01*
X41353324Y-50728288D01*
X41323741Y-50693591D01*
X41286093Y-50666838D01*
X41244840Y-50651008D01*
X41198708Y-50645621D01*
X41147002Y-50652918D01*
X41100680Y-50674637D01*
X41062184Y-50709490D01*
X41032031Y-50759536D01*
X41014028Y-50819344D01*
X41007400Y-50897094D01*
X41019181Y-51003046D01*
X41054188Y-51101378D01*
X41107615Y-51188705D01*
X41168637Y-51252516D01*
X41236943Y-51296101D01*
X41291592Y-51308399D01*
X41324331Y-51302422D01*
X41349756Y-51285049D01*
X41366658Y-51259672D01*
X41372211Y-51230827D01*
X41360974Y-51189579D01*
X41325324Y-51155893D01*
X41265092Y-51115219D01*
X41226375Y-51073468D01*
X41204593Y-51030062D01*
X41197422Y-50983458D01*
G37*
G36*
X39580035Y-49320741D02*
G01*
X39630358Y-49339899D01*
X39672650Y-49370149D01*
X39705536Y-49407994D01*
X39732118Y-49453152D01*
X39759050Y-49512921D01*
X39801684Y-49620681D01*
X40216647Y-50661253D01*
X40253246Y-50758852D01*
X40264424Y-50827436D01*
X40252708Y-50881668D01*
X40215954Y-50931385D01*
X40163290Y-50965771D01*
X40104078Y-50977010D01*
X40056361Y-50971642D01*
X40021741Y-50957172D01*
X39996850Y-50934512D01*
X39965165Y-50881409D01*
X39918507Y-50772334D01*
X39841845Y-50570590D01*
X39186709Y-50570590D01*
X39109948Y-50768036D01*
X39072755Y-50853423D01*
X39032000Y-50925621D01*
X39010608Y-50946813D01*
X38984520Y-50963137D01*
X38954304Y-50973346D01*
X38916662Y-50977010D01*
X38873528Y-50971690D01*
X38835423Y-50956082D01*
X38801026Y-50929627D01*
X38764543Y-50878748D01*
X38753051Y-50825286D01*
X38762909Y-50764407D01*
X38803004Y-50652460D01*
X38939099Y-50320485D01*
X39277516Y-50320485D01*
X39753214Y-50320485D01*
X39517591Y-49670018D01*
X39277516Y-50320485D01*
X38939099Y-50320485D01*
X39226870Y-49618531D01*
X39276230Y-49494358D01*
X39324205Y-49406919D01*
X39356948Y-49369961D01*
X39399383Y-49339899D01*
X39449765Y-49320776D01*
X39515414Y-49313814D01*
X39580035Y-49320741D01*
G37*
G36*
X38232839Y-50543137D02*
G01*
X38232839Y-50792362D01*
X38238457Y-50852224D01*
X38253630Y-50897171D01*
X38276957Y-50930702D01*
X38308845Y-50956371D01*
X38345591Y-50971706D01*
X38388734Y-50977010D01*
X38431077Y-50971657D01*
X38467095Y-50956157D01*
X38498336Y-50930115D01*
X38521061Y-50896346D01*
X38535819Y-50851555D01*
X38541267Y-50792460D01*
X38541267Y-49961937D01*
X38533486Y-49879606D01*
X38513361Y-49823903D01*
X38483657Y-49787391D01*
X38443985Y-49765564D01*
X38390911Y-49757750D01*
X38342060Y-49763694D01*
X38306203Y-49779890D01*
X38280023Y-49805719D01*
X38254660Y-49859257D01*
X38243127Y-49935461D01*
X38190223Y-49859307D01*
X38136592Y-49805230D01*
X38095643Y-49779668D01*
X38045142Y-49763538D01*
X37982576Y-49757750D01*
X37888702Y-49769444D01*
X37795818Y-49805328D01*
X37743027Y-49842814D01*
X37714333Y-49884451D01*
X37704912Y-49932237D01*
X37714836Y-49983543D01*
X37744084Y-50024463D01*
X37785681Y-50052099D01*
X37828758Y-50060806D01*
X37909475Y-50040583D01*
X37971625Y-50024989D01*
X38021253Y-50020360D01*
X38081890Y-50029240D01*
X38127887Y-50054163D01*
X38163365Y-50094423D01*
X38192184Y-50155182D01*
X38211032Y-50225962D01*
X38224035Y-50315600D01*
X38232839Y-50543137D01*
G37*
G36*
X37265912Y-49926473D02*
G01*
X37265912Y-49953339D01*
X37212660Y-49892484D01*
X37156211Y-49844090D01*
X37096267Y-49806891D01*
X37031078Y-49780053D01*
X36958568Y-49763490D01*
X36877361Y-49757750D01*
X36798553Y-49763751D01*
X36727269Y-49781190D01*
X36662213Y-49809725D01*
X36604009Y-49849409D01*
X36557103Y-49898108D01*
X36520463Y-49956759D01*
X36495676Y-50013835D01*
X36481391Y-50075656D01*
X36472488Y-50237833D01*
X36472488Y-50792558D01*
X36477881Y-50851695D01*
X36492480Y-50896484D01*
X36514924Y-50930213D01*
X36545821Y-50956118D01*
X36581969Y-50971623D01*
X36625020Y-50977010D01*
X36668802Y-50971501D01*
X36705530Y-50955645D01*
X36736897Y-50929138D01*
X36759754Y-50894748D01*
X36774452Y-50850219D01*
X36779827Y-50792655D01*
X36779827Y-50295768D01*
X36785272Y-50197995D01*
X36799664Y-50125270D01*
X36820681Y-50072237D01*
X36854729Y-50031227D01*
X36906684Y-50005181D01*
X36983599Y-49995349D01*
X37059736Y-50007031D01*
X37129009Y-50042244D01*
X37185236Y-50097217D01*
X37225158Y-50171302D01*
X37240221Y-50251736D01*
X37247118Y-50419159D01*
X37247118Y-50792655D01*
X37252667Y-50852434D01*
X37267645Y-50897321D01*
X37290642Y-50930799D01*
X37322186Y-50956328D01*
X37359093Y-50971671D01*
X37403013Y-50977010D01*
X37445278Y-50971555D01*
X37481293Y-50955730D01*
X37512615Y-50929041D01*
X37535468Y-50894649D01*
X37550168Y-50850090D01*
X37555545Y-50792460D01*
X37555545Y-49930283D01*
X37550582Y-49873788D01*
X37537277Y-49831773D01*
X37517066Y-49800834D01*
X37472397Y-49768907D01*
X37411817Y-49757750D01*
X37372754Y-49762618D01*
X37338320Y-49776898D01*
X37309164Y-49800234D01*
X37285696Y-49833953D01*
X37271170Y-49874654D01*
X37265912Y-49926473D01*
G37*
G36*
X35774117Y-49763777D02*
G01*
X35872770Y-49780509D01*
X35954453Y-49806305D01*
X36031255Y-49843812D01*
X36089261Y-49885184D01*
X36131714Y-49930185D01*
X36164144Y-49982517D01*
X36182651Y-50033960D01*
X36188691Y-50085621D01*
X36179117Y-50132960D01*
X36150707Y-50170715D01*
X36109259Y-50195574D01*
X36060493Y-50203933D01*
X36008881Y-50197530D01*
X35984920Y-50182830D01*
X35925865Y-50097736D01*
X35879544Y-50040896D01*
X35827145Y-50002090D01*
X35761791Y-49979488D01*
X35655521Y-49970339D01*
X35568905Y-49978079D01*
X35514189Y-49997487D01*
X35481425Y-50025244D01*
X35459387Y-50064146D01*
X35442990Y-50119459D01*
X35434142Y-50196214D01*
X35608140Y-50242523D01*
X35803404Y-50285119D01*
X35946144Y-50314916D01*
X36034405Y-50342019D01*
X36105994Y-50380776D01*
X36163665Y-50430883D01*
X36207619Y-50492317D01*
X36233944Y-50561242D01*
X36242998Y-50639955D01*
X36231010Y-50727517D01*
X36195022Y-50808580D01*
X36158893Y-50856301D01*
X36113658Y-50897208D01*
X36058218Y-50931678D01*
X35997502Y-50956373D01*
X35929374Y-50971683D01*
X35852468Y-50977010D01*
X35728842Y-50966189D01*
X35621790Y-50935196D01*
X35520484Y-50884909D01*
X35411787Y-50811706D01*
X35360851Y-50884567D01*
X35316528Y-50933632D01*
X35268327Y-50966964D01*
X35222754Y-50977010D01*
X35169501Y-50967592D01*
X35121560Y-50938908D01*
X35087388Y-50897298D01*
X35076849Y-50853814D01*
X35081903Y-50820020D01*
X35105140Y-50736968D01*
X35126513Y-50647056D01*
X35133331Y-50563751D01*
X35131871Y-50422090D01*
X35434043Y-50422090D01*
X35439731Y-50524350D01*
X35454252Y-50594637D01*
X35474600Y-50641127D01*
X35518255Y-50694304D01*
X35584597Y-50738922D01*
X35662511Y-50767302D01*
X35748406Y-50776926D01*
X35801936Y-50771422D01*
X35845933Y-50755893D01*
X35882440Y-50730813D01*
X35911042Y-50697378D01*
X35927728Y-50660540D01*
X35933383Y-50618950D01*
X35922145Y-50561595D01*
X35889958Y-50519983D01*
X35844621Y-50489870D01*
X35798261Y-50472111D01*
X35623175Y-50433228D01*
X35504805Y-50405773D01*
X35434043Y-50384379D01*
X35434043Y-50422090D01*
X35131871Y-50422090D01*
X35131650Y-50400597D01*
X35131056Y-50222006D01*
X35137123Y-50110878D01*
X35153630Y-50022654D01*
X35178537Y-49953242D01*
X35217138Y-49892121D01*
X35270448Y-49842913D01*
X35340862Y-49804644D01*
X35419061Y-49780343D01*
X35522007Y-49763889D01*
X35655423Y-49757750D01*
X35774117Y-49763777D01*
G37*
G36*
X34639630Y-49945621D02*
G01*
X34397972Y-50614554D01*
X34137520Y-49916019D01*
X34103875Y-49837526D01*
X34075894Y-49794093D01*
X34039006Y-49767492D01*
X33982911Y-49757750D01*
X33928344Y-49767607D01*
X33882806Y-49796926D01*
X33851556Y-49839684D01*
X33841458Y-49887687D01*
X33848778Y-49934288D01*
X33865495Y-49983821D01*
X33887059Y-50036382D01*
X34176989Y-50746640D01*
X34208643Y-50824407D01*
X34252266Y-50905398D01*
X34279322Y-50935575D01*
X34311913Y-50958057D01*
X34349959Y-50971997D01*
X34397972Y-50977010D01*
X34458578Y-50969077D01*
X34502133Y-50947505D01*
X34536669Y-50915832D01*
X34559506Y-50883221D01*
X34621132Y-50746640D01*
X34908886Y-50044002D01*
X34929461Y-49991441D01*
X34947266Y-49937512D01*
X34954487Y-49889836D01*
X34949855Y-49859089D01*
X34935297Y-49827603D01*
X34912563Y-49799792D01*
X34882079Y-49777289D01*
X34846774Y-49762643D01*
X34808582Y-49757750D01*
X34759447Y-49763376D01*
X34725611Y-49778246D01*
X34702839Y-49801225D01*
X34675464Y-49852599D01*
X34639630Y-49945621D01*
G37*
G36*
X31832822Y-50466347D02*
G01*
X31841503Y-50561473D01*
X31866948Y-50648396D01*
X31909187Y-50728859D01*
X31966537Y-50799540D01*
X32040085Y-50860200D01*
X32132248Y-50911162D01*
X32232240Y-50946696D01*
X32347317Y-50969112D01*
X32480044Y-50977010D01*
X32638682Y-50965977D01*
X32769639Y-50935240D01*
X32877795Y-50887226D01*
X32947493Y-50839147D01*
X33007598Y-50781712D01*
X33058816Y-50714205D01*
X33098764Y-50639709D01*
X33121249Y-50569909D01*
X33128454Y-50503374D01*
X33117839Y-50447476D01*
X33086018Y-50400206D01*
X33038340Y-50368174D01*
X32978098Y-50357219D01*
X32928641Y-50365710D01*
X32888182Y-50390632D01*
X32855581Y-50429757D01*
X32825665Y-50489208D01*
X32792449Y-50561449D01*
X32759291Y-50616312D01*
X32717286Y-50661965D01*
X32658988Y-50700234D01*
X32588299Y-50724105D01*
X32488947Y-50733158D01*
X32394375Y-50725061D01*
X32317105Y-50702454D01*
X32253719Y-50666724D01*
X32202390Y-50617323D01*
X32173194Y-50562955D01*
X32163407Y-50501323D01*
X32169122Y-50450917D01*
X32185379Y-50409050D01*
X32211976Y-50373828D01*
X32266493Y-50331301D01*
X32338097Y-50298699D01*
X32546023Y-50243109D01*
X32713303Y-50197099D01*
X32839712Y-50148245D01*
X32914451Y-50106696D01*
X32976667Y-50057218D01*
X33027755Y-49999550D01*
X33065604Y-49933591D01*
X33089115Y-49856420D01*
X33097394Y-49765370D01*
X33089016Y-49678776D01*
X33064510Y-49600401D01*
X33023799Y-49528454D01*
X32968941Y-49466121D01*
X32898867Y-49413150D01*
X32811124Y-49369404D01*
X32716779Y-49339428D01*
X32608625Y-49320485D01*
X32484496Y-49313814D01*
X32340302Y-49323677D01*
X32225033Y-49350743D01*
X32122582Y-49394860D01*
X32043122Y-49448734D01*
X31978868Y-49513230D01*
X31937181Y-49577205D01*
X31911708Y-49645015D01*
X31903647Y-49708706D01*
X31914075Y-49764520D01*
X31946083Y-49815391D01*
X31976931Y-49841949D01*
X32011709Y-49857543D01*
X32051827Y-49862872D01*
X32104489Y-49855231D01*
X32139469Y-49834833D01*
X32168213Y-49801289D01*
X32204062Y-49743584D01*
X32254058Y-49660513D01*
X32309410Y-49602020D01*
X32353436Y-49575976D01*
X32416987Y-49558213D01*
X32506653Y-49551413D01*
X32589204Y-49558120D01*
X32655889Y-49576718D01*
X32709832Y-49605831D01*
X32754133Y-49646392D01*
X32778717Y-49689285D01*
X32786790Y-49736256D01*
X32780134Y-49780545D01*
X32760775Y-49817540D01*
X32730621Y-49848779D01*
X32688762Y-49876745D01*
X32595284Y-49915824D01*
X32438301Y-49957247D01*
X32304545Y-49991408D01*
X32189521Y-50027296D01*
X32083722Y-50071080D01*
X31999499Y-50120695D01*
X31929575Y-50182968D01*
X31876939Y-50259913D01*
X31853235Y-50317702D01*
X31838176Y-50385851D01*
X31832822Y-50466347D01*
G37*
G36*
X31279670Y-49498559D02*
G01*
X31279670Y-49933409D01*
X31225574Y-49877941D01*
X31172344Y-49835126D01*
X31114443Y-49801375D01*
X31050279Y-49777094D01*
X30981776Y-49762703D01*
X30906550Y-49757750D01*
X30830603Y-49763403D01*
X30762487Y-49779764D01*
X30700899Y-49806403D01*
X30645469Y-49843514D01*
X30598599Y-49890318D01*
X30559644Y-49947868D01*
X30532800Y-50004482D01*
X30516218Y-50068329D01*
X30508025Y-50137270D01*
X30505041Y-50221420D01*
X30505041Y-50792558D01*
X30510434Y-50851695D01*
X30525033Y-50896484D01*
X30547477Y-50930213D01*
X30578427Y-50955998D01*
X30615281Y-50971562D01*
X30659848Y-50977010D01*
X30715126Y-50969524D01*
X30755649Y-50948949D01*
X30785248Y-50915368D01*
X30804881Y-50865344D01*
X30812380Y-50792655D01*
X30812380Y-50289222D01*
X30817997Y-50194610D01*
X30832925Y-50123588D01*
X30854915Y-50071162D01*
X30889731Y-50030564D01*
X30941349Y-50004940D01*
X31016152Y-49995349D01*
X31092161Y-50006611D01*
X31159880Y-50040192D01*
X31215277Y-50092548D01*
X31255534Y-50162509D01*
X31272201Y-50241610D01*
X31279670Y-50398448D01*
X31279670Y-50792655D01*
X31284897Y-50851089D01*
X31299083Y-50895712D01*
X31320919Y-50929627D01*
X31351335Y-50955550D01*
X31388830Y-50971392D01*
X31435566Y-50977010D01*
X31490875Y-50969518D01*
X31531423Y-50948924D01*
X31561043Y-50915310D01*
X31580692Y-50865231D01*
X31588197Y-50792460D01*
X31588197Y-49498364D01*
X31583021Y-49438294D01*
X31569129Y-49393422D01*
X31548036Y-49360220D01*
X31518380Y-49334862D01*
X31481615Y-49319333D01*
X31435566Y-49313814D01*
X31388799Y-49319394D01*
X31351305Y-49335116D01*
X31320919Y-49360806D01*
X31299152Y-49394441D01*
X31284934Y-49439254D01*
X31279670Y-49498559D01*
G37*
G36*
X29808944Y-49763777D02*
G01*
X29907598Y-49780509D01*
X29989280Y-49806305D01*
X30066083Y-49843812D01*
X30124089Y-49885184D01*
X30166542Y-49930185D01*
X30198971Y-49982517D01*
X30217478Y-50033960D01*
X30223519Y-50085621D01*
X30213944Y-50132960D01*
X30185534Y-50170715D01*
X30144087Y-50195574D01*
X30095321Y-50203933D01*
X30043708Y-50197530D01*
X30019747Y-50182830D01*
X29960693Y-50097736D01*
X29914372Y-50040896D01*
X29861972Y-50002090D01*
X29796619Y-49979488D01*
X29690349Y-49970339D01*
X29603732Y-49978079D01*
X29549017Y-49997487D01*
X29516253Y-50025244D01*
X29494215Y-50064146D01*
X29477817Y-50119459D01*
X29468970Y-50196214D01*
X29642967Y-50242523D01*
X29838232Y-50285119D01*
X29980971Y-50314916D01*
X30069232Y-50342019D01*
X30140822Y-50380776D01*
X30198493Y-50430883D01*
X30242446Y-50492317D01*
X30268772Y-50561242D01*
X30277825Y-50639955D01*
X30265838Y-50727517D01*
X30229850Y-50808580D01*
X30193721Y-50856301D01*
X30148485Y-50897208D01*
X30093046Y-50931678D01*
X30032329Y-50956373D01*
X29964202Y-50971683D01*
X29887295Y-50977010D01*
X29763670Y-50966189D01*
X29656618Y-50935196D01*
X29555312Y-50884909D01*
X29446614Y-50811706D01*
X29395678Y-50884567D01*
X29351356Y-50933632D01*
X29303155Y-50966964D01*
X29257581Y-50977010D01*
X29204328Y-50967592D01*
X29156388Y-50938908D01*
X29122215Y-50897298D01*
X29111677Y-50853814D01*
X29116730Y-50820020D01*
X29139967Y-50736968D01*
X29161341Y-50647056D01*
X29168159Y-50563751D01*
X29166699Y-50422090D01*
X29468871Y-50422090D01*
X29474559Y-50524350D01*
X29489080Y-50594637D01*
X29509427Y-50641127D01*
X29553082Y-50694304D01*
X29619425Y-50738922D01*
X29697339Y-50767302D01*
X29783233Y-50776926D01*
X29836764Y-50771422D01*
X29880761Y-50755893D01*
X29917268Y-50730813D01*
X29945870Y-50697378D01*
X29962556Y-50660540D01*
X29968211Y-50618950D01*
X29956972Y-50561595D01*
X29924786Y-50519983D01*
X29879448Y-50489870D01*
X29833088Y-50472111D01*
X29658003Y-50433228D01*
X29539632Y-50405773D01*
X29468871Y-50384379D01*
X29468871Y-50422090D01*
X29166699Y-50422090D01*
X29166477Y-50400597D01*
X29165884Y-50222006D01*
X29171951Y-50110878D01*
X29188458Y-50022654D01*
X29213365Y-49953242D01*
X29251966Y-49892121D01*
X29305276Y-49842913D01*
X29375690Y-49804644D01*
X29453888Y-49780343D01*
X29556835Y-49763889D01*
X29690250Y-49757750D01*
X29808944Y-49763777D01*
G37*
G36*
X28563768Y-49498559D02*
G01*
X28563768Y-49933409D01*
X28509672Y-49877941D01*
X28456442Y-49835126D01*
X28398541Y-49801375D01*
X28334376Y-49777094D01*
X28265874Y-49762703D01*
X28190648Y-49757750D01*
X28114701Y-49763403D01*
X28046585Y-49779764D01*
X27984997Y-49806403D01*
X27929567Y-49843514D01*
X27882697Y-49890318D01*
X27843741Y-49947868D01*
X27816898Y-50004482D01*
X27800316Y-50068329D01*
X27792122Y-50137270D01*
X27789138Y-50221420D01*
X27789138Y-50792558D01*
X27794532Y-50851695D01*
X27809130Y-50896484D01*
X27831574Y-50930213D01*
X27862525Y-50955998D01*
X27899379Y-50971562D01*
X27943946Y-50977010D01*
X27999224Y-50969524D01*
X28039747Y-50948949D01*
X28069345Y-50915368D01*
X28088979Y-50865344D01*
X28096478Y-50792655D01*
X28096478Y-50289222D01*
X28102095Y-50194610D01*
X28117023Y-50123588D01*
X28139013Y-50071162D01*
X28173829Y-50030564D01*
X28225447Y-50004940D01*
X28300249Y-49995349D01*
X28376258Y-50006611D01*
X28443978Y-50040192D01*
X28499375Y-50092548D01*
X28539632Y-50162509D01*
X28556299Y-50241610D01*
X28563768Y-50398448D01*
X28563768Y-50792655D01*
X28568995Y-50851089D01*
X28583181Y-50895712D01*
X28605017Y-50929627D01*
X28635433Y-50955550D01*
X28672928Y-50971392D01*
X28719663Y-50977010D01*
X28774972Y-50969518D01*
X28815521Y-50948924D01*
X28845140Y-50915310D01*
X28864789Y-50865231D01*
X28872294Y-50792460D01*
X28872294Y-49498364D01*
X28867118Y-49438294D01*
X28853227Y-49393422D01*
X28832133Y-49360220D01*
X28802478Y-49334862D01*
X28765713Y-49319333D01*
X28719663Y-49313814D01*
X28672897Y-49319394D01*
X28635402Y-49335116D01*
X28605017Y-49360806D01*
X28583249Y-49394441D01*
X28569032Y-49439254D01*
X28563768Y-49498559D01*
G37*
D11*
%TO.C,G\u002A\u002A\u002A*%
G36*
X36093653Y-39508457D02*
G01*
X36198691Y-39534254D01*
X36259035Y-39597048D01*
X36278339Y-39700060D01*
X36278331Y-39701840D01*
X36264382Y-39784871D01*
X36231764Y-39846134D01*
X36217356Y-39857309D01*
X36143817Y-39883062D01*
X36049061Y-39892187D01*
X35958856Y-39883831D01*
X35898969Y-39857143D01*
X35891997Y-39847811D01*
X35871605Y-39785667D01*
X35863403Y-39700060D01*
X35866381Y-39638075D01*
X35892156Y-39558611D01*
X35953145Y-39518493D01*
X36059862Y-39507411D01*
X36093653Y-39508457D01*
G37*
G36*
X37871949Y-39508457D02*
G01*
X37976987Y-39534254D01*
X38037332Y-39597048D01*
X38056635Y-39700060D01*
X38056628Y-39701840D01*
X38042679Y-39784871D01*
X38010061Y-39846134D01*
X37995652Y-39857309D01*
X37922114Y-39883062D01*
X37827358Y-39892187D01*
X37737152Y-39883831D01*
X37677265Y-39857143D01*
X37670293Y-39847811D01*
X37649901Y-39785667D01*
X37641699Y-39700060D01*
X37644677Y-39638075D01*
X37670452Y-39558611D01*
X37731442Y-39518493D01*
X37838159Y-39507411D01*
X37871949Y-39508457D01*
G37*
G36*
X53224575Y-39508457D02*
G01*
X53329613Y-39534254D01*
X53389957Y-39597048D01*
X53409260Y-39700060D01*
X53409253Y-39701840D01*
X53395304Y-39784871D01*
X53362686Y-39846134D01*
X53348278Y-39857309D01*
X53274739Y-39883062D01*
X53179983Y-39892187D01*
X53089778Y-39883831D01*
X53029891Y-39857143D01*
X53022919Y-39847811D01*
X53002527Y-39785667D01*
X52994325Y-39700060D01*
X52997303Y-39638075D01*
X53023078Y-39558611D01*
X53084067Y-39518493D01*
X53190784Y-39507411D01*
X53224575Y-39508457D01*
G37*
G36*
X70775820Y-39181391D02*
G01*
X70972942Y-39181802D01*
X71119680Y-39183547D01*
X71224664Y-39187436D01*
X71296526Y-39194282D01*
X71343897Y-39204894D01*
X71375409Y-39220086D01*
X71399692Y-39240667D01*
X71438853Y-39294699D01*
X71458969Y-39359220D01*
X71444097Y-39413252D01*
X71399692Y-39477773D01*
X71398989Y-39478474D01*
X71374615Y-39498882D01*
X71342754Y-39513925D01*
X71294777Y-39524413D01*
X71222050Y-39531159D01*
X71115944Y-39534972D01*
X70967825Y-39536666D01*
X70769064Y-39537050D01*
X70627579Y-39536668D01*
X70437234Y-39533619D01*
X70295079Y-39526041D01*
X70194224Y-39512191D01*
X70127776Y-39490327D01*
X70088845Y-39458706D01*
X70070540Y-39415585D01*
X70065970Y-39359220D01*
X70067477Y-39323435D01*
X70079535Y-39275292D01*
X70109497Y-39239338D01*
X70164255Y-39213829D01*
X70250699Y-39197023D01*
X70375721Y-39187176D01*
X70546213Y-39182546D01*
X70769064Y-39181390D01*
X70775820Y-39181391D01*
G37*
G36*
X36111934Y-40196579D02*
G01*
X36194500Y-40238143D01*
X36205216Y-40249283D01*
X36218584Y-40271917D01*
X36228908Y-40307423D01*
X36236576Y-40362431D01*
X36241978Y-40443569D01*
X36245502Y-40557466D01*
X36247538Y-40710752D01*
X36248475Y-40910055D01*
X36248700Y-41162005D01*
X36248690Y-41216427D01*
X36248234Y-41459725D01*
X36246851Y-41651607D01*
X36244193Y-41798643D01*
X36239914Y-41907400D01*
X36233667Y-41984448D01*
X36225105Y-42036354D01*
X36213882Y-42069688D01*
X36199649Y-42091017D01*
X36188800Y-42101638D01*
X36108722Y-42138990D01*
X36016265Y-42138268D01*
X35939616Y-42098643D01*
X35939010Y-42098028D01*
X35925631Y-42077494D01*
X35915071Y-42042339D01*
X35907011Y-41986185D01*
X35901131Y-41902652D01*
X35897113Y-41785362D01*
X35894638Y-41627935D01*
X35893387Y-41423992D01*
X35893041Y-41167155D01*
X35893042Y-41155642D01*
X35893418Y-40901071D01*
X35894713Y-40699137D01*
X35897244Y-40543459D01*
X35901331Y-40427660D01*
X35907293Y-40345361D01*
X35915448Y-40290181D01*
X35926116Y-40255742D01*
X35939616Y-40235666D01*
X35940508Y-40234782D01*
X36018345Y-40195373D01*
X36111934Y-40196579D01*
G37*
G36*
X37890231Y-40196579D02*
G01*
X37972796Y-40238143D01*
X37983513Y-40249283D01*
X37996880Y-40271917D01*
X38007204Y-40307423D01*
X38014872Y-40362431D01*
X38020274Y-40443569D01*
X38023799Y-40557466D01*
X38025835Y-40710752D01*
X38026771Y-40910055D01*
X38026997Y-41162005D01*
X38026986Y-41216427D01*
X38026531Y-41459725D01*
X38025147Y-41651607D01*
X38022490Y-41798643D01*
X38018211Y-41907400D01*
X38011964Y-41984448D01*
X38003402Y-42036354D01*
X37992178Y-42069688D01*
X37977946Y-42091017D01*
X37967096Y-42101638D01*
X37887018Y-42138990D01*
X37794562Y-42138268D01*
X37717912Y-42098643D01*
X37717306Y-42098028D01*
X37703927Y-42077494D01*
X37693367Y-42042339D01*
X37685307Y-41986185D01*
X37679427Y-41902652D01*
X37675410Y-41785362D01*
X37672935Y-41627935D01*
X37671684Y-41423992D01*
X37671337Y-41167155D01*
X37671338Y-41155642D01*
X37671715Y-40901071D01*
X37673009Y-40699137D01*
X37675540Y-40543459D01*
X37679627Y-40427660D01*
X37685589Y-40345361D01*
X37693744Y-40290181D01*
X37704412Y-40255742D01*
X37717912Y-40235666D01*
X37718805Y-40234782D01*
X37796641Y-40195373D01*
X37890231Y-40196579D01*
G37*
G36*
X53242856Y-40196579D02*
G01*
X53325421Y-40238143D01*
X53336138Y-40249283D01*
X53349506Y-40271917D01*
X53359829Y-40307423D01*
X53367498Y-40362431D01*
X53372900Y-40443569D01*
X53376424Y-40557466D01*
X53378460Y-40710752D01*
X53379396Y-40910055D01*
X53379622Y-41162005D01*
X53379612Y-41216427D01*
X53379156Y-41459725D01*
X53377773Y-41651607D01*
X53375115Y-41798643D01*
X53370836Y-41907400D01*
X53364589Y-41984448D01*
X53356027Y-42036354D01*
X53344803Y-42069688D01*
X53330571Y-42091017D01*
X53319722Y-42101638D01*
X53239644Y-42138990D01*
X53147187Y-42138268D01*
X53070537Y-42098643D01*
X53069931Y-42098028D01*
X53056553Y-42077494D01*
X53045993Y-42042339D01*
X53037932Y-41986185D01*
X53032053Y-41902652D01*
X53028035Y-41785362D01*
X53025560Y-41627935D01*
X53024309Y-41423992D01*
X53023963Y-41167155D01*
X53023963Y-41155642D01*
X53024340Y-40901071D01*
X53025634Y-40699137D01*
X53028166Y-40543459D01*
X53032253Y-40427660D01*
X53038214Y-40345361D01*
X53046370Y-40290181D01*
X53057038Y-40255742D01*
X53070537Y-40235666D01*
X53071430Y-40234782D01*
X53149267Y-40195373D01*
X53242856Y-40196579D01*
G37*
G36*
X37008599Y-39359608D02*
G01*
X37041496Y-39364414D01*
X37068280Y-39378615D01*
X37089579Y-39407198D01*
X37106020Y-39455152D01*
X37118232Y-39527465D01*
X37126842Y-39629125D01*
X37132479Y-39765120D01*
X37135770Y-39940439D01*
X37137343Y-40160070D01*
X37137827Y-40429000D01*
X37137849Y-40752219D01*
X37137667Y-41054358D01*
X37136971Y-41318142D01*
X37135582Y-41532830D01*
X37133317Y-41703634D01*
X37129999Y-41835762D01*
X37125445Y-41934426D01*
X37119475Y-42004836D01*
X37111911Y-42052202D01*
X37102570Y-42081734D01*
X37091274Y-42098643D01*
X37090381Y-42099527D01*
X37012545Y-42138937D01*
X36918955Y-42137730D01*
X36836390Y-42096167D01*
X36827000Y-42086375D01*
X36815552Y-42067180D01*
X36806231Y-42037036D01*
X36798821Y-41990574D01*
X36793104Y-41922424D01*
X36788863Y-41827216D01*
X36785881Y-41699580D01*
X36783940Y-41534148D01*
X36782822Y-41325548D01*
X36782311Y-41068412D01*
X36782189Y-40757369D01*
X36782189Y-40731109D01*
X36782257Y-40411535D01*
X36782904Y-40145882D01*
X36784771Y-39929171D01*
X36788502Y-39756420D01*
X36794737Y-39622647D01*
X36804120Y-39522871D01*
X36817294Y-39452112D01*
X36834900Y-39405388D01*
X36857580Y-39377718D01*
X36885978Y-39364120D01*
X36920736Y-39359615D01*
X36962495Y-39359220D01*
X36968961Y-39359208D01*
X37008599Y-39359608D01*
G37*
G36*
X61074877Y-39359608D02*
G01*
X61107774Y-39364414D01*
X61134558Y-39378615D01*
X61155856Y-39407198D01*
X61172298Y-39455152D01*
X61184510Y-39527465D01*
X61193120Y-39629125D01*
X61198757Y-39765120D01*
X61202048Y-39940439D01*
X61203621Y-40160070D01*
X61204105Y-40429000D01*
X61204126Y-40752219D01*
X61203945Y-41054358D01*
X61203249Y-41318142D01*
X61201859Y-41532830D01*
X61199595Y-41703634D01*
X61196276Y-41835762D01*
X61191722Y-41934426D01*
X61185753Y-42004836D01*
X61178188Y-42052202D01*
X61168848Y-42081734D01*
X61157552Y-42098643D01*
X61156659Y-42099527D01*
X61078823Y-42138937D01*
X60985233Y-42137730D01*
X60902668Y-42096167D01*
X60893278Y-42086375D01*
X60881829Y-42067180D01*
X60872508Y-42037036D01*
X60865098Y-41990574D01*
X60859382Y-41922424D01*
X60855141Y-41827216D01*
X60852159Y-41699580D01*
X60850217Y-41534148D01*
X60849100Y-41325548D01*
X60848589Y-41068412D01*
X60848467Y-40757369D01*
X60848467Y-40731109D01*
X60848535Y-40411535D01*
X60849182Y-40145882D01*
X60851049Y-39929171D01*
X60854779Y-39756420D01*
X60861015Y-39622647D01*
X60870398Y-39522871D01*
X60883572Y-39452112D01*
X60901177Y-39405388D01*
X60923858Y-39377718D01*
X60952256Y-39364120D01*
X60987014Y-39359615D01*
X61028773Y-39359220D01*
X61035238Y-39359208D01*
X61074877Y-39359608D01*
G37*
G36*
X54109921Y-40185608D02*
G01*
X54247047Y-40241021D01*
X54369912Y-40322049D01*
X54464803Y-40424811D01*
X54535515Y-40528873D01*
X54535515Y-40413183D01*
X54535758Y-40398868D01*
X54560342Y-40286217D01*
X54621928Y-40214346D01*
X54715821Y-40189092D01*
X54757702Y-40189926D01*
X54797106Y-40196423D01*
X54827875Y-40214541D01*
X54851077Y-40250239D01*
X54867779Y-40309471D01*
X54879049Y-40398196D01*
X54885956Y-40522370D01*
X54889567Y-40687950D01*
X54890950Y-40900892D01*
X54891174Y-41167155D01*
X54891174Y-41178668D01*
X54890797Y-41433238D01*
X54889503Y-41635173D01*
X54886971Y-41790850D01*
X54882884Y-41906649D01*
X54876923Y-41988949D01*
X54868767Y-42044128D01*
X54858099Y-42078567D01*
X54844600Y-42098643D01*
X54843707Y-42099527D01*
X54765870Y-42138937D01*
X54672281Y-42137730D01*
X54589716Y-42096167D01*
X54578546Y-42084742D01*
X54562024Y-42057203D01*
X54550312Y-42014063D01*
X54542600Y-41946588D01*
X54538077Y-41846044D01*
X54535930Y-41703696D01*
X54535350Y-41510811D01*
X54535348Y-41507056D01*
X54533707Y-41279668D01*
X54527912Y-41102211D01*
X54516310Y-40965523D01*
X54497247Y-40860444D01*
X54469070Y-40777815D01*
X54430125Y-40708473D01*
X54378760Y-40643260D01*
X54319862Y-40582036D01*
X54207266Y-40503491D01*
X54085668Y-40475050D01*
X53940379Y-40491634D01*
X53866984Y-40507500D01*
X53806396Y-40512782D01*
X53767902Y-40497512D01*
X53731493Y-40458517D01*
X53687458Y-40384576D01*
X53684998Y-40299993D01*
X53740870Y-40219884D01*
X53750087Y-40211870D01*
X53847728Y-40167151D01*
X53972243Y-40159690D01*
X54109921Y-40185608D01*
G37*
G36*
X35145490Y-39731379D02*
G01*
X35176797Y-39758589D01*
X35198813Y-39801222D01*
X35208927Y-39870746D01*
X35211361Y-39983304D01*
X35211361Y-40189092D01*
X35368444Y-40189092D01*
X35461343Y-40193626D01*
X35543171Y-40217642D01*
X35584950Y-40268824D01*
X35596658Y-40354401D01*
X35590939Y-40416565D01*
X35559292Y-40473606D01*
X35490408Y-40505643D01*
X35373619Y-40520626D01*
X35226180Y-40529932D01*
X35211361Y-41231524D01*
X35209423Y-41322819D01*
X35204839Y-41523710D01*
X35200242Y-41676170D01*
X35194741Y-41788038D01*
X35187443Y-41867150D01*
X35177456Y-41921342D01*
X35163889Y-41958452D01*
X35145850Y-41986315D01*
X35122446Y-42012770D01*
X35117007Y-42018517D01*
X35049546Y-42078676D01*
X34989074Y-42116942D01*
X34954203Y-42126360D01*
X34867323Y-42138007D01*
X34763374Y-42143339D01*
X34662883Y-42137208D01*
X34542551Y-42100603D01*
X34466979Y-42033639D01*
X34440766Y-41939228D01*
X34440795Y-41935132D01*
X34463180Y-41846857D01*
X34525753Y-41801650D01*
X34626376Y-41801102D01*
X34693029Y-41805943D01*
X34789711Y-41773142D01*
X34804923Y-41761848D01*
X34823350Y-41742031D01*
X34836676Y-41711906D01*
X34845728Y-41663312D01*
X34851330Y-41588088D01*
X34854309Y-41478072D01*
X34855491Y-41325102D01*
X34855702Y-41121017D01*
X34855702Y-40515113D01*
X34665170Y-40515113D01*
X34561681Y-40510358D01*
X34457568Y-40485483D01*
X34399507Y-40436370D01*
X34381489Y-40359728D01*
X34389311Y-40302373D01*
X34435195Y-40237524D01*
X34526368Y-40200721D01*
X34667646Y-40189092D01*
X34855702Y-40189092D01*
X34855702Y-39996443D01*
X34855873Y-39966930D01*
X34862149Y-39861017D01*
X34880480Y-39792706D01*
X34914978Y-39744518D01*
X34966547Y-39704766D01*
X35051279Y-39689302D01*
X35145490Y-39731379D01*
G37*
G36*
X56070110Y-39731379D02*
G01*
X56101418Y-39758589D01*
X56123434Y-39801222D01*
X56133548Y-39870746D01*
X56135982Y-39983304D01*
X56135982Y-40189092D01*
X56293064Y-40189092D01*
X56385964Y-40193626D01*
X56467792Y-40217642D01*
X56509571Y-40268824D01*
X56521279Y-40354401D01*
X56515560Y-40416565D01*
X56483913Y-40473606D01*
X56415029Y-40505643D01*
X56298240Y-40520626D01*
X56150801Y-40529932D01*
X56135982Y-41231524D01*
X56134044Y-41322819D01*
X56129460Y-41523710D01*
X56124863Y-41676170D01*
X56119362Y-41788038D01*
X56112063Y-41867150D01*
X56102077Y-41921342D01*
X56088510Y-41958452D01*
X56070470Y-41986315D01*
X56047067Y-42012770D01*
X56041628Y-42018517D01*
X55974167Y-42078676D01*
X55913695Y-42116942D01*
X55878823Y-42126360D01*
X55791943Y-42138007D01*
X55687995Y-42143339D01*
X55587504Y-42137208D01*
X55467172Y-42100603D01*
X55391600Y-42033639D01*
X55365387Y-41939228D01*
X55365416Y-41935132D01*
X55387800Y-41846857D01*
X55450374Y-41801650D01*
X55550997Y-41801102D01*
X55617650Y-41805943D01*
X55714332Y-41773142D01*
X55729543Y-41761848D01*
X55747971Y-41742031D01*
X55761297Y-41711906D01*
X55770348Y-41663312D01*
X55775951Y-41588088D01*
X55778930Y-41478072D01*
X55780112Y-41325102D01*
X55780322Y-41121017D01*
X55780322Y-40515113D01*
X55589791Y-40515113D01*
X55486301Y-40510358D01*
X55382188Y-40485483D01*
X55324128Y-40436370D01*
X55306110Y-40359728D01*
X55313932Y-40302373D01*
X55359816Y-40237524D01*
X55450989Y-40200721D01*
X55592267Y-40189092D01*
X55780322Y-40189092D01*
X55780322Y-39996443D01*
X55780494Y-39966930D01*
X55786770Y-39861017D01*
X55805101Y-39792706D01*
X55839599Y-39744518D01*
X55891168Y-39704766D01*
X55975900Y-39689302D01*
X56070110Y-39731379D01*
G37*
G36*
X57349771Y-40174278D02*
G01*
X57494409Y-40175796D01*
X57597106Y-40181871D01*
X57673926Y-40195198D01*
X57740936Y-40218468D01*
X57814200Y-40254375D01*
X57865849Y-40284259D01*
X58032257Y-40417687D01*
X58172054Y-40586173D01*
X58268949Y-40771200D01*
X58285967Y-40824593D01*
X58316407Y-40985499D01*
X58329615Y-41167661D01*
X58324495Y-41345536D01*
X58299951Y-41493582D01*
X58249648Y-41625963D01*
X58145309Y-41797651D01*
X58010144Y-41949725D01*
X57856365Y-42069060D01*
X57696185Y-42142530D01*
X57633549Y-42156129D01*
X57487917Y-42169621D01*
X57321772Y-42169001D01*
X57158902Y-42154799D01*
X57023100Y-42127545D01*
X56912044Y-42088632D01*
X56780836Y-42018040D01*
X56698201Y-41936912D01*
X56669471Y-41849444D01*
X56671518Y-41815835D01*
X56705312Y-41728107D01*
X56772630Y-41681886D01*
X56863086Y-41681328D01*
X56966293Y-41730595D01*
X57054286Y-41775600D01*
X57186629Y-41814392D01*
X57326764Y-41834279D01*
X57447542Y-41829672D01*
X57479216Y-41822761D01*
X57631739Y-41761176D01*
X57768323Y-41663478D01*
X57867502Y-41544255D01*
X57943991Y-41366172D01*
X57972170Y-41180249D01*
X57952890Y-41000073D01*
X57889660Y-40834730D01*
X57785989Y-40693305D01*
X57645387Y-40584884D01*
X57471361Y-40518552D01*
X57407510Y-40508295D01*
X57247917Y-40509847D01*
X57093852Y-40543793D01*
X56969670Y-40605892D01*
X56951293Y-40618598D01*
X56853273Y-40655969D01*
X56766984Y-40638393D01*
X56700099Y-40566980D01*
X56677209Y-40521118D01*
X56671392Y-40468520D01*
X56700225Y-40403969D01*
X56720236Y-40375824D01*
X56790380Y-40308541D01*
X56878054Y-40248368D01*
X56942744Y-40215321D01*
X57005978Y-40193641D01*
X57082424Y-40181226D01*
X57187426Y-40175597D01*
X57336332Y-40174272D01*
X57349771Y-40174278D01*
G37*
G36*
X42650619Y-41180399D02*
G01*
X42635198Y-41385265D01*
X42589544Y-41566353D01*
X42523417Y-41701146D01*
X42394426Y-41871264D01*
X42233822Y-42013162D01*
X42056779Y-42111319D01*
X41997003Y-42131597D01*
X41810429Y-42165549D01*
X41607385Y-42168814D01*
X41410674Y-42142099D01*
X41243098Y-42086110D01*
X41241817Y-42085488D01*
X41060741Y-41968250D01*
X40901947Y-41809463D01*
X40782882Y-41626548D01*
X40759906Y-41577319D01*
X40733874Y-41504089D01*
X40718606Y-41422655D01*
X40711385Y-41316012D01*
X40709494Y-41167155D01*
X40709532Y-41107507D01*
X40710021Y-41078732D01*
X41064548Y-41078732D01*
X41066246Y-41273015D01*
X41115845Y-41451830D01*
X41208520Y-41606065D01*
X41339445Y-41726607D01*
X41503794Y-41804340D01*
X41512626Y-41806961D01*
X41605489Y-41832928D01*
X41669047Y-41842952D01*
X41728757Y-41838381D01*
X41810079Y-41820562D01*
X41840173Y-41812551D01*
X42001118Y-41737121D01*
X42130227Y-41620932D01*
X42224015Y-41473916D01*
X42279001Y-41306007D01*
X42291700Y-41127138D01*
X42258628Y-40947243D01*
X42176302Y-40776256D01*
X42127981Y-40711995D01*
X41995951Y-40595933D01*
X41845423Y-40527144D01*
X41685758Y-40503718D01*
X41526317Y-40523747D01*
X41376462Y-40585321D01*
X41245554Y-40686531D01*
X41142955Y-40825468D01*
X41078025Y-41000224D01*
X41064548Y-41078732D01*
X40710021Y-41078732D01*
X40711631Y-40983914D01*
X40719561Y-40895306D01*
X40737022Y-40824076D01*
X40767712Y-40752612D01*
X40815330Y-40663304D01*
X40877658Y-40562633D01*
X41033326Y-40387244D01*
X41221646Y-40261139D01*
X41441455Y-40184986D01*
X41691591Y-40159453D01*
X41844822Y-40171319D01*
X42067803Y-40234524D01*
X42266556Y-40348104D01*
X42433690Y-40507402D01*
X42561815Y-40707761D01*
X42593574Y-40786459D01*
X42636510Y-40973536D01*
X42646986Y-41127138D01*
X42650619Y-41180399D01*
G37*
G36*
X60428241Y-41112321D02*
G01*
X60430292Y-41208021D01*
X60406280Y-41457993D01*
X60336914Y-41670671D01*
X60221037Y-41848022D01*
X60057494Y-41992010D01*
X59845131Y-42104603D01*
X59663880Y-42157839D01*
X59439450Y-42175999D01*
X59215124Y-42148716D01*
X59005620Y-42077992D01*
X58825655Y-41965832D01*
X58773193Y-41918386D01*
X58727150Y-41852394D01*
X58714511Y-41778509D01*
X58715205Y-41757948D01*
X58742888Y-41665664D01*
X58803691Y-41616958D01*
X58887618Y-41615964D01*
X58984668Y-41666815D01*
X59118677Y-41750605D01*
X59295957Y-41812358D01*
X59477027Y-41829608D01*
X59650546Y-41802918D01*
X59805175Y-41732849D01*
X59929571Y-41619965D01*
X59953336Y-41587505D01*
X60015543Y-41480082D01*
X60060545Y-41370325D01*
X60077872Y-41282088D01*
X60075309Y-41265048D01*
X60062692Y-41251428D01*
X60032987Y-41241447D01*
X59979164Y-41234541D01*
X59894191Y-41230149D01*
X59771036Y-41227709D01*
X59602668Y-41226657D01*
X59382056Y-41226431D01*
X58686240Y-41226431D01*
X58637168Y-41151538D01*
X58624297Y-41130500D01*
X58604898Y-41078136D01*
X58604467Y-41011691D01*
X58618200Y-40930048D01*
X58985394Y-40930048D01*
X59532031Y-40930048D01*
X60078667Y-40930048D01*
X60033178Y-40821178D01*
X60021875Y-40794723D01*
X59971595Y-40698811D01*
X59913031Y-40635098D01*
X59828105Y-40582552D01*
X59810084Y-40573562D01*
X59645835Y-40519892D01*
X59479344Y-40509580D01*
X59321684Y-40539217D01*
X59183926Y-40605392D01*
X59077142Y-40704698D01*
X59012402Y-40833724D01*
X58985394Y-40930048D01*
X58618200Y-40930048D01*
X58621623Y-40909698D01*
X58663890Y-40760567D01*
X58766662Y-40559879D01*
X58910149Y-40393532D01*
X59087335Y-40267417D01*
X59291205Y-40187426D01*
X59514745Y-40159453D01*
X59723003Y-40181424D01*
X59923138Y-40255897D01*
X60105846Y-40385872D01*
X60223300Y-40507880D01*
X60332333Y-40678863D01*
X60398934Y-40876483D01*
X60405590Y-40930048D01*
X60428241Y-41112321D01*
G37*
G36*
X63451345Y-41112321D02*
G01*
X63453396Y-41208021D01*
X63429384Y-41457993D01*
X63360018Y-41670671D01*
X63244141Y-41848022D01*
X63080598Y-41992010D01*
X62868235Y-42104603D01*
X62686984Y-42157839D01*
X62462554Y-42175999D01*
X62238228Y-42148716D01*
X62028723Y-42077992D01*
X61848759Y-41965832D01*
X61796297Y-41918386D01*
X61750253Y-41852394D01*
X61737615Y-41778509D01*
X61738309Y-41757948D01*
X61765992Y-41665664D01*
X61826795Y-41616958D01*
X61910722Y-41615964D01*
X62007772Y-41666815D01*
X62141781Y-41750605D01*
X62319060Y-41812358D01*
X62500130Y-41829608D01*
X62673650Y-41802918D01*
X62828279Y-41732849D01*
X62952675Y-41619965D01*
X62976439Y-41587505D01*
X63038646Y-41480082D01*
X63083648Y-41370325D01*
X63100976Y-41282088D01*
X63098412Y-41265048D01*
X63085796Y-41251428D01*
X63056091Y-41241447D01*
X63002268Y-41234541D01*
X62917295Y-41230149D01*
X62794140Y-41227709D01*
X62625772Y-41226657D01*
X62405160Y-41226431D01*
X61709343Y-41226431D01*
X61660271Y-41151538D01*
X61647401Y-41130500D01*
X61628002Y-41078136D01*
X61627571Y-41011691D01*
X61641304Y-40930048D01*
X62008498Y-40930048D01*
X62555134Y-40930048D01*
X63101771Y-40930048D01*
X63056282Y-40821178D01*
X63044979Y-40794723D01*
X62994699Y-40698811D01*
X62936135Y-40635098D01*
X62851209Y-40582552D01*
X62833188Y-40573562D01*
X62668939Y-40519892D01*
X62502448Y-40509580D01*
X62344788Y-40539217D01*
X62207030Y-40605392D01*
X62100245Y-40704698D01*
X62035506Y-40833724D01*
X62008498Y-40930048D01*
X61641304Y-40930048D01*
X61644727Y-40909698D01*
X61686993Y-40760567D01*
X61789766Y-40559879D01*
X61933253Y-40393532D01*
X62110439Y-40267417D01*
X62314309Y-40187426D01*
X62537849Y-40159453D01*
X62746107Y-40181424D01*
X62946242Y-40255897D01*
X63128949Y-40385872D01*
X63246404Y-40507880D01*
X63355437Y-40678863D01*
X63422038Y-40876483D01*
X63428694Y-40930048D01*
X63451345Y-41112321D01*
G37*
G36*
X52382681Y-40189920D02*
G01*
X52428166Y-40197254D01*
X52462560Y-40217749D01*
X52487265Y-40257993D01*
X52503687Y-40324570D01*
X52513228Y-40424068D01*
X52517293Y-40563071D01*
X52517284Y-40748165D01*
X52514607Y-40985937D01*
X52505293Y-41685824D01*
X52423674Y-41824669D01*
X52352606Y-41927421D01*
X52223918Y-42045123D01*
X52054585Y-42131113D01*
X52004048Y-42146232D01*
X51865660Y-42164130D01*
X51675422Y-42165127D01*
X51648881Y-42164100D01*
X51458213Y-42144866D01*
X51308341Y-42102429D01*
X51184946Y-42031075D01*
X51073713Y-41925094D01*
X51055554Y-41903765D01*
X51002583Y-41829700D01*
X50961899Y-41746716D01*
X50931996Y-41646434D01*
X50911363Y-41520478D01*
X50898493Y-41360468D01*
X50891877Y-41158026D01*
X50890007Y-40904774D01*
X50890672Y-40703612D01*
X50894025Y-40525639D01*
X50901757Y-40393976D01*
X50915551Y-40301745D01*
X50937092Y-40242065D01*
X50968061Y-40208058D01*
X51010143Y-40192845D01*
X51065021Y-40189545D01*
X51086216Y-40189759D01*
X51133354Y-40193343D01*
X51169104Y-40206893D01*
X51195285Y-40237453D01*
X51213715Y-40292063D01*
X51226209Y-40377766D01*
X51234586Y-40501605D01*
X51240662Y-40670621D01*
X51246256Y-40891856D01*
X51251072Y-41077907D01*
X51256999Y-41252031D01*
X51263884Y-41382201D01*
X51272525Y-41476746D01*
X51283719Y-41543997D01*
X51298264Y-41592285D01*
X51316959Y-41629940D01*
X51402224Y-41731370D01*
X51533895Y-41803706D01*
X51701856Y-41829176D01*
X51841414Y-41817020D01*
X51980846Y-41762269D01*
X52087692Y-41661505D01*
X52097207Y-41648115D01*
X52115518Y-41615441D01*
X52129305Y-41573651D01*
X52139393Y-41514386D01*
X52146603Y-41429284D01*
X52151759Y-41309987D01*
X52155685Y-41148135D01*
X52159204Y-40935368D01*
X52159903Y-40889507D01*
X52164213Y-40669980D01*
X52170522Y-40501719D01*
X52180517Y-40377945D01*
X52195881Y-40291879D01*
X52218302Y-40236740D01*
X52249465Y-40205749D01*
X52291055Y-40192126D01*
X52344759Y-40189092D01*
X52382681Y-40189920D01*
G37*
G36*
X40278579Y-41351365D02*
G01*
X40277164Y-41565024D01*
X40274877Y-41735025D01*
X40271541Y-41866549D01*
X40266979Y-41964774D01*
X40261015Y-42034880D01*
X40253470Y-42082047D01*
X40244168Y-42111455D01*
X40232931Y-42128281D01*
X40178869Y-42164429D01*
X40092391Y-42175129D01*
X40009908Y-42144593D01*
X39948150Y-42080318D01*
X39923846Y-41989798D01*
X39923846Y-41902842D01*
X39827522Y-41984155D01*
X39716615Y-42064575D01*
X39527980Y-42146768D01*
X39319700Y-42174205D01*
X39217815Y-42170204D01*
X39000647Y-42125649D01*
X38814782Y-42031008D01*
X38658691Y-41885338D01*
X38530847Y-41687697D01*
X38512697Y-41651872D01*
X38472380Y-41566133D01*
X38447229Y-41492681D01*
X38433677Y-41413627D01*
X38428160Y-41311081D01*
X38427113Y-41167155D01*
X38767954Y-41167155D01*
X38786207Y-41344740D01*
X38849345Y-41523878D01*
X38953392Y-41669482D01*
X39093975Y-41773424D01*
X39157897Y-41798748D01*
X39253190Y-41823435D01*
X39344117Y-41836913D01*
X39405176Y-41834201D01*
X39445448Y-41823142D01*
X39515776Y-41806542D01*
X39592400Y-41774989D01*
X39696749Y-41698677D01*
X39795063Y-41595657D01*
X39870674Y-41481209D01*
X39918883Y-41338820D01*
X39935544Y-41161113D01*
X39915759Y-40980613D01*
X39859896Y-40819859D01*
X39811559Y-40741338D01*
X39685803Y-40615073D01*
X39529503Y-40534782D01*
X39352667Y-40506645D01*
X39274838Y-40511258D01*
X39104906Y-40558763D01*
X38964547Y-40653420D01*
X38858465Y-40789914D01*
X38791366Y-40962930D01*
X38767954Y-41167155D01*
X38427113Y-41167155D01*
X38427192Y-41111501D01*
X38429384Y-40983933D01*
X38437280Y-40891549D01*
X38454446Y-40816460D01*
X38484447Y-40740778D01*
X38530847Y-40646612D01*
X38613969Y-40508148D01*
X38762273Y-40344599D01*
X38939068Y-40232946D01*
X39143705Y-40173558D01*
X39375534Y-40166801D01*
X39481755Y-40179902D01*
X39599519Y-40214393D01*
X39716202Y-40277894D01*
X39781676Y-40322746D01*
X39854220Y-40380316D01*
X39893707Y-40422135D01*
X39897732Y-40426271D01*
X39908433Y-40400269D01*
X39916210Y-40315295D01*
X39921051Y-40171526D01*
X39922945Y-39969138D01*
X39922989Y-39949033D01*
X39924997Y-39748157D01*
X39931299Y-39598485D01*
X39944093Y-39492619D01*
X39965577Y-39423158D01*
X39997949Y-39382704D01*
X40043408Y-39363858D01*
X40104152Y-39359220D01*
X40113737Y-39359196D01*
X40152677Y-39359711D01*
X40184988Y-39364925D01*
X40211290Y-39379799D01*
X40232199Y-39409295D01*
X40248333Y-39458374D01*
X40260311Y-39531998D01*
X40268751Y-39635129D01*
X40274271Y-39772728D01*
X40277488Y-39949756D01*
X40279021Y-40171177D01*
X40279487Y-40441950D01*
X40279506Y-40767038D01*
X40279505Y-40772357D01*
X40279301Y-41088869D01*
X40279102Y-41161113D01*
X40278579Y-41351365D01*
G37*
G36*
X33828407Y-40189925D02*
G01*
X33872633Y-40197247D01*
X33906255Y-40217716D01*
X33930724Y-40257920D01*
X33947491Y-40324450D01*
X33958007Y-40423895D01*
X33963722Y-40562846D01*
X33966087Y-40747892D01*
X33966553Y-40985623D01*
X33966543Y-41078332D01*
X33966173Y-41279678D01*
X33964688Y-41433681D01*
X33961311Y-41548940D01*
X33955263Y-41634053D01*
X33945767Y-41697618D01*
X33932046Y-41748233D01*
X33913321Y-41794496D01*
X33888815Y-41845006D01*
X33858016Y-41901029D01*
X33743366Y-42039791D01*
X33597297Y-42128553D01*
X33417770Y-42168717D01*
X33366273Y-42172225D01*
X33166251Y-42166287D01*
X32996270Y-42123042D01*
X32840694Y-42038976D01*
X32691144Y-41936104D01*
X32710120Y-42062889D01*
X32712923Y-42080753D01*
X32759798Y-42256856D01*
X32837666Y-42385998D01*
X32951735Y-42474274D01*
X33107213Y-42527783D01*
X33190371Y-42541864D01*
X33308861Y-42544228D01*
X33437173Y-42521731D01*
X33596075Y-42472004D01*
X33660985Y-42453079D01*
X33777609Y-42445874D01*
X33860057Y-42481313D01*
X33903321Y-42556202D01*
X33902395Y-42667348D01*
X33875346Y-42712102D01*
X33804519Y-42769175D01*
X33707411Y-42821273D01*
X33600810Y-42857793D01*
X33520139Y-42871800D01*
X33363083Y-42882493D01*
X33191452Y-42879726D01*
X33029502Y-42864229D01*
X32901491Y-42836734D01*
X32840626Y-42813523D01*
X32673207Y-42714094D01*
X32526980Y-42577248D01*
X32420436Y-42419038D01*
X32405786Y-42388468D01*
X32389838Y-42349482D01*
X32377207Y-42305588D01*
X32367422Y-42249991D01*
X32360010Y-42175894D01*
X32354498Y-42076502D01*
X32350417Y-41945020D01*
X32347292Y-41774650D01*
X32344653Y-41558597D01*
X32342027Y-41290065D01*
X32341913Y-41277922D01*
X32339648Y-41010004D01*
X32338531Y-40794886D01*
X32338810Y-40626353D01*
X32340732Y-40498187D01*
X32344545Y-40404173D01*
X32350498Y-40338095D01*
X32358837Y-40293737D01*
X32369812Y-40264883D01*
X32383668Y-40245316D01*
X32429592Y-40213321D01*
X32512926Y-40191352D01*
X32597212Y-40195010D01*
X32656213Y-40226139D01*
X32666779Y-40267194D01*
X32676621Y-40360723D01*
X32685207Y-40499622D01*
X32692107Y-40676907D01*
X32696890Y-40885591D01*
X32696911Y-40886869D01*
X32701690Y-41118666D01*
X32709029Y-41299365D01*
X32721035Y-41437104D01*
X32739811Y-41540020D01*
X32767465Y-41616250D01*
X32806102Y-41673932D01*
X32857826Y-41721204D01*
X32924744Y-41766201D01*
X33011811Y-41803554D01*
X33152195Y-41826422D01*
X33297911Y-41818852D01*
X33422675Y-41780112D01*
X33453787Y-41762379D01*
X33504827Y-41720681D01*
X33543735Y-41663795D01*
X33572072Y-41584383D01*
X33591396Y-41475109D01*
X33603268Y-41328634D01*
X33609248Y-41137621D01*
X33610894Y-40894735D01*
X33611516Y-40700840D01*
X33614840Y-40523373D01*
X33622653Y-40392275D01*
X33636730Y-40300597D01*
X33658848Y-40241389D01*
X33690782Y-40207702D01*
X33734307Y-40192586D01*
X33791200Y-40189092D01*
X33828407Y-40189925D01*
G37*
G36*
X45014725Y-40160727D02*
G01*
X45178836Y-40183330D01*
X45321075Y-40244508D01*
X45462930Y-40352671D01*
X45584756Y-40462734D01*
X45584756Y-40380113D01*
X45607265Y-40285148D01*
X45671495Y-40215303D01*
X45765063Y-40189092D01*
X45806943Y-40189926D01*
X45846348Y-40196423D01*
X45877117Y-40214541D01*
X45900318Y-40250239D01*
X45917020Y-40309471D01*
X45928291Y-40398196D01*
X45935197Y-40522370D01*
X45938808Y-40687950D01*
X45940192Y-40900892D01*
X45940416Y-41167155D01*
X45940415Y-41178668D01*
X45940039Y-41433238D01*
X45938744Y-41635173D01*
X45936213Y-41790850D01*
X45932126Y-41906649D01*
X45926164Y-41988949D01*
X45918009Y-42044128D01*
X45907341Y-42078567D01*
X45893841Y-42098643D01*
X45892948Y-42099527D01*
X45815112Y-42138937D01*
X45721522Y-42137730D01*
X45638957Y-42096167D01*
X45622274Y-42077487D01*
X45607840Y-42047079D01*
X45597628Y-41999004D01*
X45590927Y-41924940D01*
X45587024Y-41816566D01*
X45585204Y-41665562D01*
X45584756Y-41463605D01*
X45584747Y-41420067D01*
X45584185Y-41228760D01*
X45582097Y-41085318D01*
X45577573Y-40980191D01*
X45569701Y-40903824D01*
X45557571Y-40846666D01*
X45540272Y-40799165D01*
X45516895Y-40751766D01*
X45499060Y-40720810D01*
X45391749Y-40602163D01*
X45249954Y-40529324D01*
X45080327Y-40506036D01*
X45015515Y-40509259D01*
X44899048Y-40536262D01*
X44816485Y-40597790D01*
X44753016Y-40702743D01*
X44739554Y-40735012D01*
X44723540Y-40787645D01*
X44712005Y-40853339D01*
X44704229Y-40941337D01*
X44699492Y-41060879D01*
X44697076Y-41221208D01*
X44696259Y-41431565D01*
X44695405Y-41628974D01*
X44691894Y-41807456D01*
X44684056Y-41939525D01*
X44670196Y-42032071D01*
X44648616Y-42091979D01*
X44617620Y-42126139D01*
X44575512Y-42141438D01*
X44520595Y-42144764D01*
X44510864Y-42144693D01*
X44460167Y-42142110D01*
X44421715Y-42130636D01*
X44393577Y-42103074D01*
X44373820Y-42052228D01*
X44360511Y-41970903D01*
X44351718Y-41851903D01*
X44345508Y-41688033D01*
X44339949Y-41472095D01*
X44335099Y-41286336D01*
X44329302Y-41119967D01*
X44322419Y-40996463D01*
X44313541Y-40907034D01*
X44301759Y-40842893D01*
X44286166Y-40795250D01*
X44265853Y-40755317D01*
X44237635Y-40712103D01*
X44129385Y-40601043D01*
X44001939Y-40531074D01*
X43865965Y-40501817D01*
X43732127Y-40512893D01*
X43611092Y-40563923D01*
X43513525Y-40654526D01*
X43450093Y-40784325D01*
X43449895Y-40785027D01*
X43440832Y-40847055D01*
X43432946Y-40956895D01*
X43426720Y-41103319D01*
X43422632Y-41275099D01*
X43421162Y-41461008D01*
X43420742Y-41618012D01*
X43417757Y-41800158D01*
X43410296Y-41934950D01*
X43396501Y-42029435D01*
X43374516Y-42090659D01*
X43342485Y-42125666D01*
X43298551Y-42141504D01*
X43240856Y-42145218D01*
X43198088Y-42144105D01*
X43154102Y-42135982D01*
X43120878Y-42114289D01*
X43097049Y-42072496D01*
X43081250Y-42004077D01*
X43072115Y-41902503D01*
X43068279Y-41761248D01*
X43068375Y-41573784D01*
X43071038Y-41333583D01*
X43071271Y-41315654D01*
X43074450Y-41094149D01*
X43077984Y-40922859D01*
X43082659Y-40793329D01*
X43089259Y-40697102D01*
X43098568Y-40625723D01*
X43111371Y-40570735D01*
X43128453Y-40523683D01*
X43150599Y-40476109D01*
X43197887Y-40394328D01*
X43311836Y-40273414D01*
X43460238Y-40197874D01*
X43648192Y-40164513D01*
X43744830Y-40162543D01*
X43926541Y-40189842D01*
X44088861Y-40264490D01*
X44246395Y-40392041D01*
X44388166Y-40530131D01*
X44467461Y-40402767D01*
X44493455Y-40364783D01*
X44614458Y-40251455D01*
X44773371Y-40183312D01*
X44970714Y-40160104D01*
X45014725Y-40160727D01*
G37*
G36*
X49430828Y-40160727D02*
G01*
X49594939Y-40183330D01*
X49737177Y-40244508D01*
X49879033Y-40352671D01*
X50000859Y-40462734D01*
X50000859Y-40380113D01*
X50023367Y-40285148D01*
X50087597Y-40215303D01*
X50181165Y-40189092D01*
X50223046Y-40189926D01*
X50262451Y-40196423D01*
X50293220Y-40214541D01*
X50316421Y-40250239D01*
X50333123Y-40309471D01*
X50344393Y-40398196D01*
X50351300Y-40522370D01*
X50354911Y-40687950D01*
X50356295Y-40900892D01*
X50356518Y-41167155D01*
X50356518Y-41178668D01*
X50356141Y-41433238D01*
X50354847Y-41635173D01*
X50352316Y-41790850D01*
X50348229Y-41906649D01*
X50342267Y-41988949D01*
X50334111Y-42044128D01*
X50323443Y-42078567D01*
X50309944Y-42098643D01*
X50309051Y-42099527D01*
X50231215Y-42138937D01*
X50137625Y-42137730D01*
X50055060Y-42096167D01*
X50038377Y-42077487D01*
X50023942Y-42047079D01*
X50013731Y-41999004D01*
X50007030Y-41924940D01*
X50003126Y-41816566D01*
X50001307Y-41665562D01*
X50000859Y-41463605D01*
X50000850Y-41420067D01*
X50000288Y-41228760D01*
X49998200Y-41085318D01*
X49993676Y-40980191D01*
X49985804Y-40903824D01*
X49973674Y-40846666D01*
X49956375Y-40799165D01*
X49932997Y-40751766D01*
X49915163Y-40720810D01*
X49807851Y-40602163D01*
X49666057Y-40529324D01*
X49496430Y-40506036D01*
X49431618Y-40509259D01*
X49315151Y-40536262D01*
X49232587Y-40597790D01*
X49169119Y-40702743D01*
X49155656Y-40735012D01*
X49139643Y-40787645D01*
X49128107Y-40853339D01*
X49120332Y-40941337D01*
X49115595Y-41060879D01*
X49113178Y-41221208D01*
X49112362Y-41431565D01*
X49111507Y-41628974D01*
X49107996Y-41807456D01*
X49100159Y-41939525D01*
X49086298Y-42032071D01*
X49064718Y-42091979D01*
X49033723Y-42126139D01*
X48991614Y-42141438D01*
X48936697Y-42144764D01*
X48926967Y-42144693D01*
X48876270Y-42142110D01*
X48837818Y-42130636D01*
X48809680Y-42103074D01*
X48789923Y-42052228D01*
X48776613Y-41970903D01*
X48767820Y-41851903D01*
X48761610Y-41688033D01*
X48756052Y-41472095D01*
X48751201Y-41286336D01*
X48745405Y-41119967D01*
X48738521Y-40996463D01*
X48729643Y-40907034D01*
X48717862Y-40842893D01*
X48702269Y-40795250D01*
X48681956Y-40755317D01*
X48653738Y-40712103D01*
X48545488Y-40601043D01*
X48418042Y-40531074D01*
X48282068Y-40501817D01*
X48148230Y-40512893D01*
X48027195Y-40563923D01*
X47929628Y-40654526D01*
X47866196Y-40784325D01*
X47865998Y-40785027D01*
X47856934Y-40847055D01*
X47849049Y-40956895D01*
X47842822Y-41103319D01*
X47838734Y-41275099D01*
X47837265Y-41461008D01*
X47836845Y-41618012D01*
X47833860Y-41800158D01*
X47826398Y-41934950D01*
X47812604Y-42029435D01*
X47790619Y-42090659D01*
X47758588Y-42125666D01*
X47714654Y-42141504D01*
X47656959Y-42145218D01*
X47614190Y-42144105D01*
X47570205Y-42135982D01*
X47536980Y-42114289D01*
X47513152Y-42072496D01*
X47497353Y-42004077D01*
X47488218Y-41902503D01*
X47484381Y-41761248D01*
X47484477Y-41573784D01*
X47487140Y-41333583D01*
X47487374Y-41315654D01*
X47490553Y-41094149D01*
X47494087Y-40922859D01*
X47498762Y-40793329D01*
X47505361Y-40697102D01*
X47514671Y-40625723D01*
X47527474Y-40570735D01*
X47544556Y-40523683D01*
X47566702Y-40476109D01*
X47613990Y-40394328D01*
X47727938Y-40273414D01*
X47876340Y-40197874D01*
X48064295Y-40164513D01*
X48160933Y-40162543D01*
X48342643Y-40189842D01*
X48504963Y-40264490D01*
X48662497Y-40392041D01*
X48804269Y-40530131D01*
X48883564Y-40402767D01*
X48909557Y-40364783D01*
X49030561Y-40251455D01*
X49189474Y-40183312D01*
X49386817Y-40160104D01*
X49430828Y-40160727D01*
G37*
G36*
X67910547Y-41256036D02*
G01*
X67882173Y-41541796D01*
X67802339Y-41817418D01*
X67671046Y-42073260D01*
X67600184Y-42174314D01*
X67407051Y-42385313D01*
X67188672Y-42548892D01*
X66951298Y-42665818D01*
X66701182Y-42736856D01*
X66444575Y-42762772D01*
X66187730Y-42744333D01*
X65936899Y-42682303D01*
X65698334Y-42577448D01*
X65478288Y-42430535D01*
X65283012Y-42242329D01*
X65118760Y-42013596D01*
X64991783Y-41745101D01*
X64983954Y-41722659D01*
X64943020Y-41543939D01*
X64923336Y-41334553D01*
X64924004Y-41241250D01*
X65279389Y-41241250D01*
X65280634Y-41382505D01*
X65286468Y-41493750D01*
X65299625Y-41578523D01*
X65322833Y-41653847D01*
X65358821Y-41736745D01*
X65379346Y-41778150D01*
X65519558Y-41987157D01*
X65701717Y-42165915D01*
X65912719Y-42301077D01*
X65935088Y-42311993D01*
X66037202Y-42356796D01*
X66129181Y-42383749D01*
X66234148Y-42398042D01*
X66375224Y-42404862D01*
X66430248Y-42406057D01*
X66576565Y-42402790D01*
X66691925Y-42386775D01*
X66797347Y-42355557D01*
X67022416Y-42243919D01*
X67217775Y-42087775D01*
X67374400Y-41896785D01*
X67488214Y-41678795D01*
X67555143Y-41441651D01*
X67571108Y-41193199D01*
X67532036Y-40941287D01*
X67523665Y-40912385D01*
X67457265Y-40745406D01*
X67365284Y-40579729D01*
X67259540Y-40434403D01*
X67151849Y-40328477D01*
X67053785Y-40253680D01*
X66866850Y-40666255D01*
X66791833Y-40835447D01*
X66739871Y-40962674D01*
X66708904Y-41054794D01*
X66695945Y-41120702D01*
X66698008Y-41169293D01*
X66702298Y-41223634D01*
X66683145Y-41331146D01*
X66636956Y-41428245D01*
X66573111Y-41490790D01*
X66516597Y-41514735D01*
X66401895Y-41527636D01*
X66297530Y-41498478D01*
X66211362Y-41436672D01*
X66151251Y-41351628D01*
X66125058Y-41252755D01*
X66140644Y-41149465D01*
X66205870Y-41051166D01*
X66219414Y-41037928D01*
X66280437Y-40984888D01*
X66323632Y-40957122D01*
X66333813Y-40947375D01*
X66368643Y-40892567D01*
X66419594Y-40798290D01*
X66481565Y-40674195D01*
X66549455Y-40529932D01*
X66586806Y-40448426D01*
X66653032Y-40300067D01*
X66691483Y-40195617D01*
X66699110Y-40127753D01*
X66672866Y-40089152D01*
X66609705Y-40072490D01*
X66506578Y-40070444D01*
X66360438Y-40075691D01*
X66240340Y-40082662D01*
X66127420Y-40099104D01*
X66026802Y-40129998D01*
X65912752Y-40181424D01*
X65871702Y-40202769D01*
X65665068Y-40347100D01*
X65489744Y-40532541D01*
X65358821Y-40745756D01*
X65325053Y-40822914D01*
X65300982Y-40898216D01*
X65287166Y-40981691D01*
X65280878Y-41090362D01*
X65279389Y-41241250D01*
X64924004Y-41241250D01*
X64924901Y-41116000D01*
X64947717Y-40909782D01*
X64991783Y-40737400D01*
X65104664Y-40494573D01*
X65269943Y-40257300D01*
X65471128Y-40058250D01*
X65701941Y-39901600D01*
X65956105Y-39791526D01*
X66227343Y-39732204D01*
X66509377Y-39727810D01*
X66515401Y-39728326D01*
X66636909Y-39738594D01*
X66744809Y-39747476D01*
X66816378Y-39753102D01*
X66818302Y-39753240D01*
X66843354Y-39753241D01*
X66866474Y-39745573D01*
X66890971Y-39724450D01*
X66920154Y-39684087D01*
X66957332Y-39618697D01*
X67005816Y-39522495D01*
X67068914Y-39389694D01*
X67149936Y-39214508D01*
X67252191Y-38991151D01*
X67266454Y-38959990D01*
X67358261Y-38761576D01*
X67443705Y-38580466D01*
X67519199Y-38424011D01*
X67581152Y-38299564D01*
X67625976Y-38214475D01*
X67650082Y-38176099D01*
X67668671Y-38162606D01*
X67709977Y-38148247D01*
X67777434Y-38137611D01*
X67879322Y-38129878D01*
X68023924Y-38124232D01*
X68219519Y-38119854D01*
X68361859Y-38117960D01*
X68523636Y-38117508D01*
X68659542Y-38119009D01*
X68758450Y-38122322D01*
X68809229Y-38127308D01*
X68831893Y-38134122D01*
X68915939Y-38186391D01*
X68961640Y-38261585D01*
X68963488Y-38344587D01*
X68915975Y-38420277D01*
X68898160Y-38432954D01*
X68857205Y-38448238D01*
X68791924Y-38459367D01*
X68693579Y-38467232D01*
X68553434Y-38472725D01*
X68362753Y-38476738D01*
X67862910Y-38484891D01*
X67660128Y-38927755D01*
X67612446Y-39033870D01*
X67553969Y-39170574D01*
X67509941Y-39281736D01*
X67484004Y-39358015D01*
X67479803Y-39390068D01*
X67482953Y-39392150D01*
X67526671Y-39414910D01*
X67614416Y-39458000D01*
X67738684Y-39517897D01*
X67891972Y-39591077D01*
X68066777Y-39674013D01*
X68255594Y-39763183D01*
X68450921Y-39855062D01*
X68645255Y-39946125D01*
X68831091Y-40032848D01*
X69000926Y-40111707D01*
X69147258Y-40179176D01*
X69262582Y-40231732D01*
X69339395Y-40265850D01*
X69370194Y-40278006D01*
X69370900Y-40277931D01*
X69402337Y-40256484D01*
X69462414Y-40204285D01*
X69538775Y-40132032D01*
X69704819Y-39993549D01*
X69950174Y-39852245D01*
X70216920Y-39760516D01*
X70412934Y-39726982D01*
X70692856Y-39723339D01*
X70957687Y-39770008D01*
X71203497Y-39862008D01*
X71426356Y-39994360D01*
X71622334Y-40162081D01*
X71787502Y-40360192D01*
X71917929Y-40583711D01*
X72009686Y-40827658D01*
X72058842Y-41087052D01*
X72061469Y-41356913D01*
X72053231Y-41404331D01*
X72013635Y-41632260D01*
X71911411Y-41908111D01*
X71814121Y-42080136D01*
X71635998Y-42302051D01*
X71420448Y-42488800D01*
X71176997Y-42632569D01*
X70915169Y-42725541D01*
X70736559Y-42755282D01*
X70475094Y-42759543D01*
X70216920Y-42721985D01*
X70117116Y-42694613D01*
X69854904Y-42582906D01*
X69620753Y-42423949D01*
X69420107Y-42223855D01*
X69258410Y-41988739D01*
X69141105Y-41724715D01*
X69073638Y-41437898D01*
X69067632Y-41360216D01*
X69086092Y-41252220D01*
X69143323Y-41188236D01*
X69240009Y-41167155D01*
X69273021Y-41170280D01*
X69344664Y-41210406D01*
X69394392Y-41299783D01*
X69424756Y-41442205D01*
X69460591Y-41602059D01*
X69553931Y-41812840D01*
X69690875Y-42007408D01*
X69862538Y-42173766D01*
X70060030Y-42299912D01*
X70075040Y-42307272D01*
X70165354Y-42348952D01*
X70241614Y-42375269D01*
X70322149Y-42389713D01*
X70425288Y-42395778D01*
X70569359Y-42396954D01*
X70707847Y-42395602D01*
X70814381Y-42389416D01*
X70896362Y-42375221D01*
X70971675Y-42349841D01*
X71058206Y-42310097D01*
X71082666Y-42297568D01*
X71197266Y-42225765D01*
X71310837Y-42136409D01*
X71415499Y-42038152D01*
X71503371Y-41939642D01*
X71566575Y-41849531D01*
X71597229Y-41776470D01*
X71587454Y-41729108D01*
X71574968Y-41721863D01*
X71514328Y-41691182D01*
X71408119Y-41639201D01*
X71261294Y-41568257D01*
X71078808Y-41480690D01*
X70865617Y-41378838D01*
X70626675Y-41265042D01*
X70366935Y-41141639D01*
X70091353Y-41010969D01*
X69804884Y-40875371D01*
X69512481Y-40737183D01*
X69219099Y-40598745D01*
X68929694Y-40462396D01*
X68894503Y-40445844D01*
X69708794Y-40445844D01*
X70028164Y-40597499D01*
X70093729Y-40628608D01*
X70238933Y-40697416D01*
X70418365Y-40782368D01*
X70619907Y-40877728D01*
X70831444Y-40977764D01*
X71040861Y-41076742D01*
X71734188Y-41404331D01*
X71717936Y-41167212D01*
X71684531Y-40952026D01*
X71596123Y-40708333D01*
X71459434Y-40492862D01*
X71278712Y-40312021D01*
X71058206Y-40172215D01*
X70975435Y-40133922D01*
X70900267Y-40107919D01*
X70819406Y-40093271D01*
X70715000Y-40086808D01*
X70569197Y-40085358D01*
X70552541Y-40085365D01*
X70412929Y-40087004D01*
X70312574Y-40093872D01*
X70233277Y-40109387D01*
X70156841Y-40136968D01*
X70065065Y-40180030D01*
X69961302Y-40236838D01*
X69860185Y-40302925D01*
X69790775Y-40360274D01*
X69708794Y-40445844D01*
X68894503Y-40445844D01*
X68649219Y-40330475D01*
X68382629Y-40205320D01*
X68134878Y-40089271D01*
X67910922Y-39984667D01*
X67715714Y-39893847D01*
X67554210Y-39819149D01*
X67431364Y-39762912D01*
X67352129Y-39727477D01*
X67321462Y-39715181D01*
X67312700Y-39719431D01*
X67281064Y-39761421D01*
X67245125Y-39833734D01*
X67232002Y-39867372D01*
X67215182Y-39927974D01*
X67219691Y-39951985D01*
X67224933Y-39952678D01*
X67273933Y-39980983D01*
X67347352Y-40042868D01*
X67434482Y-40127485D01*
X67524613Y-40223986D01*
X67607037Y-40321520D01*
X67671046Y-40409241D01*
X67686918Y-40434352D01*
X67812920Y-40692672D01*
X67887463Y-40969781D01*
X67905480Y-41193199D01*
X67910547Y-41256036D01*
G37*
%TD*%
M02*
