%TF.GenerationSoftware,KiCad,Pcbnew,9.0.4*%
%TF.CreationDate,2025-11-01T22:13:15-04:00*%
%TF.ProjectId,power_distribution,706f7765-725f-4646-9973-747269627574,v1*%
%TF.SameCoordinates,Original*%
%TF.FileFunction,Legend,Bot*%
%TF.FilePolarity,Positive*%
%FSLAX46Y46*%
G04 Gerber Fmt 4.6, Leading zero omitted, Abs format (unit mm)*
G04 Created by KiCad (PCBNEW 9.0.4) date 2025-11-01 22:13:15*
%MOMM*%
%LPD*%
G01*
G04 APERTURE LIST*
%ADD10C,0.200000*%
%ADD11C,0.000000*%
G04 APERTURE END LIST*
D10*
G36*
X75343079Y-27961933D02*
G01*
X75395873Y-27978669D01*
X75433415Y-28003770D01*
X75460365Y-28039434D01*
X75478294Y-28090813D01*
X75485100Y-28163459D01*
X75485100Y-29434020D01*
X75479145Y-29499206D01*
X75462983Y-29548798D01*
X75438049Y-29586354D01*
X75403647Y-29615137D01*
X75362919Y-29632483D01*
X75313925Y-29638543D01*
X75267207Y-29632553D01*
X75227156Y-29615158D01*
X75192118Y-29585850D01*
X75166519Y-29547805D01*
X75149956Y-29497621D01*
X75143859Y-29431702D01*
X75143859Y-28967949D01*
X74840500Y-28967949D01*
X74683468Y-28958247D01*
X74557014Y-28931593D01*
X74455701Y-28890782D01*
X74375034Y-28837276D01*
X74308329Y-28766725D01*
X74259891Y-28681464D01*
X74229361Y-28578459D01*
X74219100Y-28460672D01*
X74564243Y-28460672D01*
X74575228Y-28544302D01*
X74605349Y-28605853D01*
X74654429Y-28652537D01*
X74725141Y-28685647D01*
X74808985Y-28703342D01*
X74921705Y-28710029D01*
X75143859Y-28710029D01*
X75143859Y-28213532D01*
X74921705Y-28213532D01*
X74804237Y-28219690D01*
X74721325Y-28235593D01*
X74664713Y-28258137D01*
X74627615Y-28285468D01*
X74592984Y-28333886D01*
X74571727Y-28391441D01*
X74564243Y-28460672D01*
X74219100Y-28460672D01*
X74218468Y-28453418D01*
X74228467Y-28338804D01*
X74257056Y-28239828D01*
X74304839Y-28151749D01*
X74370098Y-28079031D01*
X74450687Y-28023068D01*
X74546612Y-27985031D01*
X74660702Y-27964115D01*
X74840601Y-27955612D01*
X75269998Y-27955612D01*
X75343079Y-27961933D01*
G37*
G36*
X73603716Y-28392713D02*
G01*
X73722274Y-28426014D01*
X73828994Y-28480747D01*
X73917326Y-28553564D01*
X73987893Y-28643861D01*
X74040846Y-28752949D01*
X74072786Y-28873532D01*
X74083866Y-29009861D01*
X74072925Y-29145034D01*
X74041450Y-29264054D01*
X73988722Y-29371787D01*
X73916722Y-29463439D01*
X73827336Y-29537889D01*
X73722375Y-29593205D01*
X73605419Y-29626785D01*
X73469693Y-29638543D01*
X73332906Y-29626940D01*
X73214896Y-29593809D01*
X73109003Y-29538985D01*
X73019944Y-29465252D01*
X72948356Y-29373986D01*
X72895216Y-29264961D01*
X72863228Y-29144682D01*
X72852195Y-29010466D01*
X73167443Y-29010466D01*
X73177735Y-29132005D01*
X73205917Y-29227131D01*
X73249554Y-29301432D01*
X73294356Y-29347599D01*
X73345066Y-29379916D01*
X73402878Y-29399584D01*
X73469693Y-29406414D01*
X73529086Y-29400900D01*
X73581555Y-29384947D01*
X73628475Y-29358759D01*
X73687060Y-29301922D01*
X73732248Y-29221135D01*
X73758940Y-29126403D01*
X73768518Y-29010466D01*
X73758788Y-28893355D01*
X73731644Y-28797480D01*
X73702562Y-28739979D01*
X73667655Y-28694696D01*
X73626863Y-28659855D01*
X73554341Y-28625176D01*
X73469693Y-28613309D01*
X73382675Y-28625261D01*
X73310523Y-28659702D01*
X73249554Y-28717787D01*
X73206025Y-28791747D01*
X73177793Y-28887338D01*
X73167443Y-29010466D01*
X72852195Y-29010466D01*
X72863151Y-28875129D01*
X72894712Y-28755568D01*
X72947333Y-28647228D01*
X73018836Y-28555982D01*
X73108061Y-28482021D01*
X73214896Y-28426619D01*
X73333763Y-28392910D01*
X73469693Y-28381180D01*
X73603716Y-28392713D01*
G37*
G36*
X72461788Y-28576031D02*
G01*
X72264217Y-29256095D01*
X72084781Y-28624694D01*
X72041156Y-28486565D01*
X72021448Y-28451321D01*
X71987255Y-28415234D01*
X71942278Y-28390319D01*
X71878747Y-28381180D01*
X71814337Y-28390353D01*
X71769232Y-28415234D01*
X71734763Y-28451603D01*
X71713618Y-28488782D01*
X71669388Y-28624694D01*
X71489852Y-29256196D01*
X71290165Y-28576031D01*
X71257320Y-28467322D01*
X71240622Y-28435767D01*
X71214703Y-28407375D01*
X71179957Y-28388338D01*
X71128158Y-28381180D01*
X71075374Y-28390980D01*
X71030028Y-28420473D01*
X70998706Y-28463590D01*
X70988519Y-28512861D01*
X70995662Y-28565919D01*
X71023680Y-28657135D01*
X71275052Y-29394022D01*
X71325931Y-29529934D01*
X71349069Y-29569209D01*
X71383762Y-29605295D01*
X71428656Y-29629601D01*
X71492169Y-29638543D01*
X71557696Y-29629008D01*
X71604102Y-29602978D01*
X71639427Y-29563590D01*
X71664149Y-29516333D01*
X71706061Y-29384048D01*
X71878747Y-28795767D01*
X72045892Y-29384048D01*
X72083914Y-29500797D01*
X72119842Y-29573962D01*
X72151615Y-29608623D01*
X72196987Y-29630446D01*
X72260893Y-29638543D01*
X72309769Y-29633226D01*
X72348646Y-29618393D01*
X72381601Y-29594291D01*
X72408895Y-29561166D01*
X72451008Y-29473715D01*
X72479117Y-29394022D01*
X72728273Y-28657135D01*
X72758540Y-28560029D01*
X72765651Y-28512861D01*
X72755852Y-28465287D01*
X72725250Y-28421581D01*
X72680428Y-28391357D01*
X72626011Y-28381180D01*
X72575998Y-28387007D01*
X72542204Y-28402297D01*
X72520022Y-28425813D01*
X72494355Y-28478674D01*
X72461788Y-28576031D01*
G37*
G36*
X70384109Y-28392711D02*
G01*
X70502802Y-28425913D01*
X70575972Y-28460524D01*
X70639895Y-28503285D01*
X70695537Y-28554370D01*
X70763878Y-28645467D01*
X70814624Y-28755165D01*
X70844905Y-28875525D01*
X70855327Y-29008753D01*
X70843947Y-29152727D01*
X70811734Y-29275008D01*
X70760360Y-29379426D01*
X70689794Y-29468879D01*
X70602157Y-29540916D01*
X70498101Y-29593556D01*
X70374351Y-29626748D01*
X70226545Y-29638543D01*
X70100812Y-29629652D01*
X69996129Y-29604791D01*
X69901873Y-29565388D01*
X69829489Y-29519758D01*
X69769822Y-29465519D01*
X69730048Y-29412358D01*
X69704271Y-29356898D01*
X69696901Y-29313925D01*
X69704854Y-29270026D01*
X69727227Y-29238867D01*
X69761181Y-29219162D01*
X69806115Y-29212168D01*
X69847603Y-29217950D01*
X69875834Y-29233426D01*
X69969431Y-29319567D01*
X70047814Y-29378809D01*
X70091410Y-29402921D01*
X70135568Y-29419310D01*
X70182160Y-29428854D01*
X70235613Y-29432206D01*
X70313770Y-29422024D01*
X70384421Y-29391805D01*
X70444289Y-29342558D01*
X70492626Y-29271711D01*
X70523106Y-29187898D01*
X70534438Y-29090462D01*
X69935780Y-29090462D01*
X69822014Y-29080609D01*
X69746672Y-29055501D01*
X69711131Y-29025781D01*
X69687871Y-28977477D01*
X69679751Y-28909917D01*
X69983133Y-28909917D01*
X70534135Y-28909917D01*
X70515945Y-28811442D01*
X70485961Y-28736202D01*
X70445777Y-28679401D01*
X70392811Y-28635631D01*
X70331495Y-28609472D01*
X70259188Y-28600413D01*
X70183103Y-28609502D01*
X70120060Y-28635432D01*
X70067058Y-28678192D01*
X70027432Y-28734408D01*
X69998830Y-28809863D01*
X69983133Y-28909917D01*
X69679751Y-28909917D01*
X69678867Y-28902563D01*
X69685878Y-28820198D01*
X69707136Y-28738163D01*
X69743549Y-28655422D01*
X69793196Y-28580419D01*
X69857470Y-28514707D01*
X69938097Y-28457650D01*
X70027554Y-28416138D01*
X70130320Y-28390259D01*
X70249113Y-28381180D01*
X70384109Y-28392711D01*
G37*
G36*
X69128670Y-29191111D02*
G01*
X69128670Y-29448125D01*
X69134393Y-29509857D01*
X69149847Y-29556209D01*
X69173605Y-29590787D01*
X69206083Y-29617259D01*
X69243510Y-29633073D01*
X69287453Y-29638543D01*
X69330579Y-29633022D01*
X69367264Y-29617038D01*
X69399084Y-29590182D01*
X69422230Y-29555358D01*
X69437261Y-29509167D01*
X69442809Y-29448225D01*
X69442809Y-28591748D01*
X69434885Y-28506845D01*
X69414388Y-28449401D01*
X69384134Y-28411748D01*
X69343727Y-28389239D01*
X69289669Y-28381180D01*
X69239914Y-28387311D01*
X69203393Y-28404013D01*
X69176728Y-28430649D01*
X69150895Y-28485860D01*
X69139148Y-28564445D01*
X69085265Y-28485911D01*
X69030641Y-28430145D01*
X68988933Y-28403784D01*
X68937497Y-28387150D01*
X68873772Y-28381180D01*
X68778161Y-28393240D01*
X68683556Y-28430246D01*
X68629788Y-28468903D01*
X68600562Y-28511841D01*
X68590967Y-28561120D01*
X68601075Y-28614029D01*
X68630864Y-28656228D01*
X68673231Y-28684728D01*
X68717106Y-28693707D01*
X68799318Y-28672852D01*
X68862619Y-28656771D01*
X68913166Y-28651997D01*
X68974926Y-28661155D01*
X69021774Y-28686856D01*
X69057910Y-28728375D01*
X69087262Y-28791032D01*
X69106460Y-28864024D01*
X69119704Y-28956464D01*
X69128670Y-29191111D01*
G37*
G36*
X67692061Y-27962081D02*
G01*
X67743360Y-27979203D01*
X67779626Y-28004979D01*
X67805458Y-28041191D01*
X67822613Y-28092423D01*
X67829094Y-28163761D01*
X67829094Y-29374174D01*
X67825111Y-29450828D01*
X67814787Y-29505552D01*
X67792364Y-29550577D01*
X67753330Y-29584641D01*
X67699672Y-29604720D01*
X67613992Y-29612751D01*
X67177744Y-29612751D01*
X67066473Y-29608889D01*
X66972516Y-29598142D01*
X66883795Y-29577992D01*
X66802147Y-29547464D01*
X66726139Y-29505655D01*
X66655959Y-29451752D01*
X66578420Y-29368116D01*
X66516621Y-29274532D01*
X66469934Y-29170937D01*
X66436324Y-29052277D01*
X66417114Y-28925565D01*
X66410330Y-28780050D01*
X66410444Y-28777935D01*
X66756004Y-28777935D01*
X66764289Y-28921920D01*
X66787057Y-29038264D01*
X66821848Y-29131705D01*
X66867217Y-29206244D01*
X66922846Y-29264961D01*
X66962530Y-29293356D01*
X67009894Y-29315134D01*
X67107219Y-29337501D01*
X67237489Y-29341934D01*
X67487853Y-29341934D01*
X67487853Y-28226428D01*
X67270132Y-28226428D01*
X67123494Y-28235371D01*
X67009995Y-28259474D01*
X66944406Y-28289788D01*
X66884500Y-28339788D01*
X66829350Y-28413320D01*
X66791724Y-28497590D01*
X66765857Y-28615780D01*
X66756004Y-28777935D01*
X66410444Y-28777935D01*
X66418722Y-28624767D01*
X66442516Y-28489948D01*
X66480099Y-28372832D01*
X66530517Y-28271023D01*
X66593517Y-28182567D01*
X66669560Y-28106032D01*
X66739253Y-28053659D01*
X66813022Y-28014313D01*
X66891614Y-27987247D01*
X67020197Y-27964161D01*
X67184494Y-27955612D01*
X67620642Y-27955612D01*
X67692061Y-27962081D01*
G37*
G36*
X65829807Y-28559105D02*
G01*
X65829807Y-29448225D01*
X65835490Y-29509133D01*
X65850911Y-29555358D01*
X65874742Y-29590283D01*
X65907257Y-29617057D01*
X65944683Y-29633025D01*
X65988590Y-29638543D01*
X66032484Y-29632867D01*
X66069363Y-29616504D01*
X66100926Y-29589074D01*
X66123858Y-29553656D01*
X66138636Y-29507706D01*
X66144047Y-29448225D01*
X66144047Y-28568072D01*
X66138559Y-28507849D01*
X66123723Y-28462448D01*
X66100926Y-28428432D01*
X66069468Y-28402323D01*
X66032582Y-28386639D01*
X65988590Y-28381180D01*
X65944605Y-28386592D01*
X65907176Y-28402221D01*
X65874742Y-28428331D01*
X65850541Y-28462328D01*
X65835300Y-28505090D01*
X65829807Y-28559105D01*
G37*
G36*
X65985265Y-28245772D02*
G01*
X66046451Y-28235473D01*
X66097400Y-28205170D01*
X66122797Y-28175230D01*
X66138455Y-28137744D01*
X66144047Y-28090415D01*
X66138597Y-28047724D01*
X66122813Y-28011366D01*
X66096292Y-27979792D01*
X66044438Y-27947083D01*
X65985265Y-27936268D01*
X65927807Y-27946115D01*
X65877059Y-27975762D01*
X65851404Y-28005047D01*
X65835517Y-28042425D01*
X65829807Y-28090415D01*
X65835305Y-28136988D01*
X65850770Y-28174327D01*
X65875951Y-28204565D01*
X65926136Y-28235408D01*
X65985265Y-28245772D01*
G37*
G36*
X64521365Y-29232016D02*
G01*
X64528711Y-29315855D01*
X64549768Y-29388647D01*
X64583931Y-29452457D01*
X64630913Y-29507402D01*
X64691629Y-29553670D01*
X64768404Y-29591391D01*
X64851013Y-29616562D01*
X64948867Y-29632755D01*
X65064509Y-29638543D01*
X65174580Y-29632354D01*
X65268968Y-29614900D01*
X65349934Y-29587462D01*
X65425925Y-29548288D01*
X65483529Y-29505507D01*
X65525844Y-29459308D01*
X65558446Y-29405824D01*
X65576834Y-29354561D01*
X65582768Y-29304354D01*
X65573537Y-29256050D01*
X65545793Y-29215190D01*
X65504301Y-29187486D01*
X65452196Y-29178013D01*
X65406704Y-29184631D01*
X65375928Y-29202395D01*
X65351044Y-29230030D01*
X65325351Y-29269998D01*
X65272363Y-29343004D01*
X65213216Y-29392007D01*
X65167932Y-29413168D01*
X65109664Y-29427086D01*
X65035191Y-29432206D01*
X64949618Y-29421403D01*
X64885678Y-29391705D01*
X64851741Y-29361521D01*
X64833479Y-29331308D01*
X64827645Y-29299820D01*
X64834792Y-29250218D01*
X64854810Y-29212487D01*
X64888096Y-29183656D01*
X64959367Y-29150901D01*
X65088891Y-29113130D01*
X65240102Y-29070450D01*
X65348322Y-29030112D01*
X65440143Y-28978471D01*
X65508918Y-28915056D01*
X65542053Y-28864475D01*
X65562240Y-28806380D01*
X65569268Y-28738743D01*
X65563180Y-28678254D01*
X65544869Y-28619899D01*
X65513553Y-28562631D01*
X65471794Y-28512355D01*
X65417737Y-28468327D01*
X65349431Y-28430447D01*
X65275560Y-28403978D01*
X65189207Y-28387150D01*
X65088185Y-28381180D01*
X64971666Y-28387688D01*
X64872580Y-28405965D01*
X64782119Y-28436033D01*
X64712690Y-28472460D01*
X64654751Y-28517918D01*
X64614861Y-28565352D01*
X64589086Y-28617266D01*
X64581110Y-28665497D01*
X64590399Y-28715053D01*
X64617581Y-28754057D01*
X64659684Y-28779249D01*
X64720649Y-28788513D01*
X64766014Y-28781475D01*
X64802962Y-28761109D01*
X64879834Y-28679300D01*
X64917680Y-28638864D01*
X64961139Y-28607868D01*
X65012958Y-28588487D01*
X65088085Y-28581069D01*
X65165659Y-28590346D01*
X65224702Y-28615928D01*
X65255959Y-28642368D01*
X65273161Y-28670704D01*
X65278805Y-28702170D01*
X65269047Y-28744663D01*
X65239109Y-28779547D01*
X65194662Y-28806245D01*
X65130904Y-28830224D01*
X64941896Y-28879793D01*
X64805904Y-28920375D01*
X64707148Y-28963819D01*
X64624825Y-29018839D01*
X64568617Y-29079480D01*
X64533316Y-29150567D01*
X64521365Y-29232016D01*
G37*
G36*
X64247526Y-28413420D02*
G01*
X64216898Y-28413420D01*
X64216898Y-28231969D01*
X64212969Y-28114797D01*
X64205116Y-28074197D01*
X64190602Y-28041048D01*
X64168378Y-28012071D01*
X64137608Y-27988658D01*
X64101337Y-27973624D01*
X64060433Y-27968508D01*
X64004063Y-27979447D01*
X63952227Y-28013341D01*
X63925889Y-28046619D01*
X63911423Y-28086285D01*
X63902759Y-28207185D01*
X63902759Y-28413420D01*
X63793243Y-28413420D01*
X63732191Y-28422025D01*
X63691284Y-28444955D01*
X63664847Y-28480703D01*
X63655921Y-28525656D01*
X63661895Y-28564741D01*
X63678487Y-28593296D01*
X63706195Y-28614014D01*
X63762208Y-28631976D01*
X63848455Y-28639101D01*
X63902759Y-28639101D01*
X63902759Y-29199272D01*
X63897822Y-29308989D01*
X63888419Y-29344147D01*
X63871627Y-29370346D01*
X63845692Y-29387039D01*
X63802311Y-29393518D01*
X63729368Y-29383947D01*
X63656828Y-29374376D01*
X63620823Y-29381857D01*
X63587512Y-29405306D01*
X63564464Y-29439654D01*
X63556682Y-29481574D01*
X63565459Y-29527731D01*
X63591654Y-29565987D01*
X63639096Y-29598444D01*
X63695680Y-29619107D01*
X63772389Y-29633222D01*
X63874448Y-29638543D01*
X63970570Y-29632102D01*
X64042288Y-29614975D01*
X64094990Y-29589578D01*
X64139620Y-29552558D01*
X64172166Y-29507925D01*
X64193625Y-29454371D01*
X64210335Y-29360966D01*
X64216898Y-29224963D01*
X64216898Y-28639101D01*
X64254276Y-28639101D01*
X64316350Y-28630358D01*
X64357948Y-28607062D01*
X64384874Y-28570754D01*
X64393916Y-28525656D01*
X64384507Y-28480818D01*
X64356336Y-28444955D01*
X64312921Y-28422090D01*
X64247526Y-28413420D01*
G37*
G36*
X63138468Y-29191111D02*
G01*
X63138468Y-29448125D01*
X63144190Y-29509857D01*
X63159644Y-29556209D01*
X63183403Y-29590787D01*
X63215881Y-29617259D01*
X63253308Y-29633073D01*
X63297250Y-29638543D01*
X63340377Y-29633022D01*
X63377062Y-29617038D01*
X63408882Y-29590182D01*
X63432027Y-29555358D01*
X63447059Y-29509167D01*
X63452607Y-29448225D01*
X63452607Y-28591748D01*
X63444683Y-28506845D01*
X63424185Y-28449401D01*
X63393931Y-28411748D01*
X63353524Y-28389239D01*
X63299467Y-28381180D01*
X63249712Y-28387311D01*
X63213191Y-28404013D01*
X63186526Y-28430649D01*
X63160693Y-28485860D01*
X63148946Y-28564445D01*
X63095062Y-28485911D01*
X63040438Y-28430145D01*
X62998731Y-28403784D01*
X62947295Y-28387150D01*
X62883570Y-28381180D01*
X62787958Y-28393240D01*
X62693354Y-28430246D01*
X62639585Y-28468903D01*
X62610360Y-28511841D01*
X62600764Y-28561120D01*
X62610872Y-28614029D01*
X62640661Y-28656228D01*
X62683029Y-28684728D01*
X62726904Y-28693707D01*
X62809116Y-28672852D01*
X62872416Y-28656771D01*
X62922963Y-28651997D01*
X62984724Y-28661155D01*
X63031572Y-28686856D01*
X63067707Y-28728375D01*
X63097060Y-28791032D01*
X63116258Y-28864024D01*
X63129501Y-28956464D01*
X63138468Y-29191111D01*
G37*
G36*
X62125425Y-28559105D02*
G01*
X62125425Y-29448225D01*
X62131108Y-29509133D01*
X62146529Y-29555358D01*
X62170360Y-29590283D01*
X62202875Y-29617057D01*
X62240301Y-29633025D01*
X62284207Y-29638543D01*
X62328102Y-29632867D01*
X62364980Y-29616504D01*
X62396544Y-29589074D01*
X62419476Y-29553656D01*
X62434254Y-29507706D01*
X62439665Y-29448225D01*
X62439665Y-28568072D01*
X62434176Y-28507849D01*
X62419341Y-28462448D01*
X62396544Y-28428432D01*
X62365085Y-28402323D01*
X62328200Y-28386639D01*
X62284207Y-28381180D01*
X62240222Y-28386592D01*
X62202794Y-28402221D01*
X62170360Y-28428331D01*
X62146158Y-28462328D01*
X62130918Y-28505090D01*
X62125425Y-28559105D01*
G37*
G36*
X62280883Y-28245772D02*
G01*
X62342069Y-28235473D01*
X62393018Y-28205170D01*
X62418414Y-28175230D01*
X62434072Y-28137744D01*
X62439665Y-28090415D01*
X62434215Y-28047724D01*
X62418430Y-28011366D01*
X62391909Y-27979792D01*
X62340056Y-27947083D01*
X62280883Y-27936268D01*
X62223425Y-27946115D01*
X62172677Y-27975762D01*
X62147022Y-28005047D01*
X62131135Y-28042425D01*
X62125425Y-28090415D01*
X62130922Y-28136988D01*
X62146388Y-28174327D01*
X62171569Y-28204565D01*
X62221753Y-28235408D01*
X62280883Y-28245772D01*
G37*
G36*
X61718337Y-27929101D02*
G01*
X61753589Y-27945366D01*
X61782371Y-27972336D01*
X61802607Y-28007128D01*
X61815979Y-28053826D01*
X61820958Y-28115905D01*
X61820958Y-29459509D01*
X61815900Y-29516898D01*
X61802226Y-29560334D01*
X61781262Y-29593003D01*
X61752069Y-29618085D01*
X61717097Y-29633232D01*
X61674568Y-29638543D01*
X61614290Y-29626982D01*
X61566262Y-29592903D01*
X61543649Y-29559926D01*
X61529029Y-29516321D01*
X61523644Y-29458905D01*
X61523644Y-29437042D01*
X61447376Y-29518952D01*
X61371914Y-29576480D01*
X61324436Y-29601032D01*
X61264616Y-29621415D01*
X61200187Y-29634167D01*
X61130114Y-29638543D01*
X61017226Y-29626598D01*
X60916322Y-29591694D01*
X60826637Y-29535124D01*
X60751193Y-29458804D01*
X60691956Y-29366515D01*
X60647521Y-29256196D01*
X60621075Y-29135824D01*
X60612448Y-29008350D01*
X60927102Y-29008350D01*
X60937639Y-29129993D01*
X60966243Y-29223123D01*
X61010221Y-29294078D01*
X61070933Y-29350590D01*
X61136016Y-29382785D01*
X61207893Y-29393518D01*
X61293354Y-29382360D01*
X61364901Y-29350210D01*
X61425917Y-29296294D01*
X61469978Y-29226778D01*
X61498536Y-29135833D01*
X61509035Y-29017317D01*
X61498664Y-28898744D01*
X61469944Y-28803727D01*
X61422435Y-28723242D01*
X61362847Y-28666908D01*
X61290583Y-28631691D01*
X61207893Y-28619757D01*
X61128008Y-28631743D01*
X61059891Y-28666908D01*
X61004665Y-28722493D01*
X60961761Y-28800805D01*
X60936345Y-28892718D01*
X60927102Y-29008350D01*
X60612448Y-29008350D01*
X60611855Y-28999585D01*
X60619533Y-28874577D01*
X60641334Y-28766141D01*
X60675932Y-28671845D01*
X60725513Y-28585310D01*
X60785459Y-28515567D01*
X60856275Y-28460572D01*
X60936588Y-28420585D01*
X61026076Y-28396098D01*
X61126789Y-28387628D01*
X61214982Y-28393463D01*
X61289065Y-28409821D01*
X61351361Y-28435485D01*
X61438340Y-28491217D01*
X61523644Y-28567266D01*
X61523644Y-28103211D01*
X61534345Y-28023916D01*
X61562836Y-27970220D01*
X61591902Y-27944674D01*
X61628383Y-27928975D01*
X61674568Y-27923372D01*
X61718337Y-27929101D01*
G37*
G36*
X59586823Y-29463439D02*
G01*
X59586823Y-29433113D01*
X59639610Y-29492676D01*
X59697749Y-29544140D01*
X59761997Y-29585852D01*
X59831646Y-29615169D01*
X59907280Y-29632403D01*
X59997178Y-29638543D01*
X60105188Y-29626537D01*
X60198880Y-29591794D01*
X60254418Y-29556254D01*
X60300133Y-29513438D01*
X60337009Y-29462834D01*
X60367052Y-29394196D01*
X60387332Y-29301731D01*
X60394940Y-29179021D01*
X60394940Y-28568374D01*
X60389468Y-28507209D01*
X60374763Y-28461617D01*
X60352323Y-28427928D01*
X60321247Y-28402194D01*
X60284265Y-28386631D01*
X60239583Y-28381180D01*
X60194098Y-28386687D01*
X60156343Y-28402421D01*
X60124527Y-28428432D01*
X60101389Y-28462563D01*
X60086357Y-28508065D01*
X60080801Y-28568374D01*
X60080801Y-29061546D01*
X60075904Y-29163954D01*
X60062968Y-29240479D01*
X60037265Y-29306095D01*
X59999193Y-29353117D01*
X59947066Y-29382740D01*
X59874364Y-29393518D01*
X59800389Y-29382266D01*
X59729687Y-29347778D01*
X59670800Y-29294905D01*
X59630548Y-29228489D01*
X59613259Y-29144396D01*
X59604857Y-28943064D01*
X59604857Y-28568374D01*
X59599301Y-28508065D01*
X59584269Y-28462563D01*
X59561132Y-28428432D01*
X59529340Y-28402364D01*
X59491930Y-28386658D01*
X59447183Y-28381180D01*
X59402502Y-28386631D01*
X59365519Y-28402194D01*
X59334444Y-28427928D01*
X59311995Y-28461677D01*
X59297294Y-28507278D01*
X59291826Y-28568374D01*
X59291826Y-29461424D01*
X59297056Y-29519606D01*
X59311153Y-29563241D01*
X59332731Y-29595724D01*
X59379144Y-29629324D01*
X59438216Y-29640759D01*
X59497275Y-29628997D01*
X59544810Y-29594011D01*
X59567312Y-29560425D01*
X59581630Y-29517749D01*
X59586823Y-29463439D01*
G37*
G36*
X58985949Y-28413420D02*
G01*
X58955321Y-28413420D01*
X58955321Y-28231969D01*
X58951392Y-28114797D01*
X58943539Y-28074197D01*
X58929025Y-28041048D01*
X58906801Y-28012071D01*
X58876030Y-27988658D01*
X58839760Y-27973624D01*
X58798856Y-27968508D01*
X58742486Y-27979447D01*
X58690650Y-28013341D01*
X58664312Y-28046619D01*
X58649846Y-28086285D01*
X58641182Y-28207185D01*
X58641182Y-28413420D01*
X58531666Y-28413420D01*
X58470614Y-28422025D01*
X58429707Y-28444955D01*
X58403270Y-28480703D01*
X58394344Y-28525656D01*
X58400318Y-28564741D01*
X58416910Y-28593296D01*
X58444618Y-28614014D01*
X58500631Y-28631976D01*
X58586877Y-28639101D01*
X58641182Y-28639101D01*
X58641182Y-29199272D01*
X58636245Y-29308989D01*
X58626842Y-29344147D01*
X58610050Y-29370346D01*
X58584115Y-29387039D01*
X58540734Y-29393518D01*
X58467791Y-29383947D01*
X58395251Y-29374376D01*
X58359246Y-29381857D01*
X58325934Y-29405306D01*
X58302887Y-29439654D01*
X58295105Y-29481574D01*
X58303882Y-29527731D01*
X58330077Y-29565987D01*
X58377519Y-29598444D01*
X58434103Y-29619107D01*
X58510812Y-29633222D01*
X58612871Y-29638543D01*
X58708993Y-29632102D01*
X58780711Y-29614975D01*
X58833413Y-29589578D01*
X58878043Y-29552558D01*
X58910589Y-29507925D01*
X58932048Y-29454371D01*
X58948757Y-29360966D01*
X58955321Y-29224963D01*
X58955321Y-28639101D01*
X58992699Y-28639101D01*
X59054772Y-28630358D01*
X59096371Y-28607062D01*
X59123297Y-28570754D01*
X59132339Y-28525656D01*
X59122930Y-28480818D01*
X59094759Y-28444955D01*
X59051344Y-28422090D01*
X58985949Y-28413420D01*
G37*
G36*
X57874574Y-28559105D02*
G01*
X57874574Y-29448225D01*
X57880256Y-29509133D01*
X57895678Y-29555358D01*
X57919508Y-29590283D01*
X57952023Y-29617057D01*
X57989449Y-29633025D01*
X58033356Y-29638543D01*
X58077251Y-29632867D01*
X58114129Y-29616504D01*
X58145692Y-29589074D01*
X58168625Y-29553656D01*
X58183403Y-29507706D01*
X58188813Y-29448225D01*
X58188813Y-28568072D01*
X58183325Y-28507849D01*
X58168489Y-28462448D01*
X58145692Y-28428432D01*
X58114234Y-28402323D01*
X58077348Y-28386639D01*
X58033356Y-28381180D01*
X57989371Y-28386592D01*
X57951943Y-28402221D01*
X57919508Y-28428331D01*
X57895307Y-28462328D01*
X57880066Y-28505090D01*
X57874574Y-28559105D01*
G37*
G36*
X58030031Y-28245772D02*
G01*
X58091217Y-28235473D01*
X58142166Y-28205170D01*
X58167563Y-28175230D01*
X58183221Y-28137744D01*
X58188813Y-28090415D01*
X58183363Y-28047724D01*
X58167579Y-28011366D01*
X58141058Y-27979792D01*
X58089205Y-27947083D01*
X58030031Y-27936268D01*
X57972573Y-27946115D01*
X57921826Y-27975762D01*
X57896171Y-28005047D01*
X57880284Y-28042425D01*
X57874574Y-28090415D01*
X57880071Y-28136988D01*
X57895536Y-28174327D01*
X57920717Y-28204565D01*
X57970902Y-28235408D01*
X58030031Y-28245772D01*
G37*
G36*
X57156451Y-28392713D02*
G01*
X57275009Y-28426014D01*
X57381729Y-28480747D01*
X57470062Y-28553564D01*
X57540628Y-28643861D01*
X57593581Y-28752949D01*
X57625521Y-28873532D01*
X57636602Y-29009861D01*
X57625660Y-29145034D01*
X57594186Y-29264054D01*
X57541458Y-29371787D01*
X57469457Y-29463439D01*
X57380072Y-29537889D01*
X57275110Y-29593205D01*
X57158155Y-29626785D01*
X57022429Y-29638543D01*
X56885642Y-29626940D01*
X56767632Y-29593809D01*
X56661738Y-29538985D01*
X56572680Y-29465252D01*
X56501092Y-29373986D01*
X56447951Y-29264961D01*
X56415963Y-29144682D01*
X56404931Y-29010466D01*
X56720178Y-29010466D01*
X56730470Y-29132005D01*
X56758653Y-29227131D01*
X56802290Y-29301432D01*
X56847092Y-29347599D01*
X56897801Y-29379916D01*
X56955614Y-29399584D01*
X57022429Y-29406414D01*
X57081821Y-29400900D01*
X57134290Y-29384947D01*
X57181211Y-29358759D01*
X57239796Y-29301922D01*
X57284984Y-29221135D01*
X57311675Y-29126403D01*
X57321254Y-29010466D01*
X57311523Y-28893355D01*
X57284379Y-28797480D01*
X57255298Y-28739979D01*
X57220390Y-28694696D01*
X57179599Y-28659855D01*
X57107076Y-28625176D01*
X57022429Y-28613309D01*
X56935411Y-28625261D01*
X56863258Y-28659702D01*
X56802290Y-28717787D01*
X56758761Y-28791747D01*
X56730528Y-28887338D01*
X56720178Y-29010466D01*
X56404931Y-29010466D01*
X56415887Y-28875129D01*
X56447447Y-28755568D01*
X56500068Y-28647228D01*
X56571572Y-28555982D01*
X56660797Y-28482021D01*
X56767632Y-28426619D01*
X56886498Y-28392910D01*
X57022429Y-28381180D01*
X57156451Y-28392713D01*
G37*
G36*
X55882944Y-28555176D02*
G01*
X55882944Y-28582882D01*
X55828706Y-28520125D01*
X55771211Y-28470218D01*
X55710158Y-28431858D01*
X55643761Y-28404181D01*
X55569908Y-28387101D01*
X55487198Y-28381180D01*
X55406930Y-28387369D01*
X55334326Y-28405353D01*
X55268066Y-28434779D01*
X55208783Y-28475704D01*
X55161009Y-28525925D01*
X55123691Y-28586408D01*
X55098444Y-28645268D01*
X55083895Y-28709021D01*
X55074827Y-28876267D01*
X55074827Y-29448326D01*
X55080320Y-29509311D01*
X55095189Y-29555500D01*
X55118049Y-29590283D01*
X55149518Y-29616997D01*
X55186335Y-29632988D01*
X55230184Y-29638543D01*
X55274777Y-29632862D01*
X55312184Y-29616510D01*
X55344132Y-29589175D01*
X55367413Y-29553710D01*
X55382383Y-29507789D01*
X55387858Y-29448427D01*
X55387858Y-28936012D01*
X55393403Y-28835183D01*
X55408062Y-28760185D01*
X55429468Y-28705495D01*
X55464146Y-28663204D01*
X55517064Y-28636344D01*
X55595403Y-28626205D01*
X55672950Y-28638252D01*
X55743506Y-28674565D01*
X55800774Y-28731256D01*
X55841435Y-28807656D01*
X55856777Y-28890604D01*
X55863802Y-29063259D01*
X55863802Y-29448427D01*
X55869454Y-29510074D01*
X55884710Y-29556363D01*
X55908132Y-29590888D01*
X55940260Y-29617215D01*
X55977850Y-29633037D01*
X56022584Y-29638543D01*
X56065631Y-29632917D01*
X56102314Y-29616597D01*
X56134215Y-29589074D01*
X56157492Y-29553608D01*
X56172464Y-29507656D01*
X56177941Y-29448225D01*
X56177941Y-28559105D01*
X56172886Y-28500844D01*
X56159334Y-28457517D01*
X56138749Y-28425611D01*
X56093253Y-28392686D01*
X56031551Y-28381180D01*
X55991764Y-28386201D01*
X55956693Y-28400927D01*
X55926997Y-28424992D01*
X55903094Y-28459766D01*
X55888299Y-28501738D01*
X55882944Y-28555176D01*
G37*
G36*
X54042812Y-27962017D02*
G01*
X54093552Y-27978967D01*
X54129387Y-28004475D01*
X54154811Y-28040290D01*
X54171800Y-28091600D01*
X54178251Y-28163761D01*
X54178251Y-29404601D01*
X54172011Y-29475349D01*
X54155471Y-29526481D01*
X54130596Y-29562879D01*
X54095294Y-29588823D01*
X54044312Y-29606157D01*
X53972116Y-29612751D01*
X53467257Y-29612751D01*
X53340291Y-29609261D01*
X53237950Y-29599754D01*
X53143119Y-29581462D01*
X53063551Y-29554920D01*
X52987885Y-29512678D01*
X52923942Y-29457947D01*
X52870514Y-29389690D01*
X52830943Y-29312418D01*
X52807108Y-29229103D01*
X52798981Y-29138116D01*
X52801381Y-29112828D01*
X53144655Y-29112828D01*
X53153655Y-29185548D01*
X53178825Y-29242549D01*
X53219884Y-29287646D01*
X53279777Y-29322422D01*
X53364165Y-29345923D01*
X53480758Y-29354830D01*
X53837111Y-29354830D01*
X53837111Y-28877677D01*
X53492042Y-28877677D01*
X53376622Y-28885112D01*
X53292095Y-28904701D01*
X53231401Y-28933392D01*
X53184112Y-28976879D01*
X53155134Y-29035041D01*
X53144655Y-29112828D01*
X52801381Y-29112828D01*
X52808143Y-29041574D01*
X52834246Y-28959525D01*
X52876535Y-28889066D01*
X52936050Y-28828263D01*
X53015507Y-28776351D01*
X53119065Y-28733806D01*
X53028535Y-28681110D01*
X52961837Y-28619744D01*
X52915166Y-28549270D01*
X52886692Y-28467883D01*
X52881382Y-28416947D01*
X53211150Y-28416947D01*
X53218204Y-28472008D01*
X53238957Y-28520820D01*
X53266520Y-28560088D01*
X53300509Y-28589243D01*
X53341823Y-28609380D01*
X53416446Y-28625943D01*
X53533752Y-28632653D01*
X53837111Y-28632653D01*
X53837111Y-28213532D01*
X53568612Y-28213532D01*
X53446566Y-28219099D01*
X53359354Y-28233517D01*
X53299005Y-28253933D01*
X53251442Y-28288580D01*
X53222068Y-28340715D01*
X53211150Y-28416947D01*
X52881382Y-28416947D01*
X52876761Y-28372617D01*
X52882796Y-28301563D01*
X52900638Y-28234992D01*
X52929846Y-28172755D01*
X52969954Y-28116006D01*
X53018969Y-28066762D01*
X53074533Y-28027144D01*
X53147415Y-27992188D01*
X53230998Y-27970321D01*
X53322043Y-27959580D01*
X53436831Y-27955612D01*
X53972116Y-27955612D01*
X54042812Y-27962017D01*
G37*
G36*
X52130227Y-28392713D02*
G01*
X52248785Y-28426014D01*
X52355505Y-28480747D01*
X52443837Y-28553564D01*
X52514404Y-28643861D01*
X52567357Y-28752949D01*
X52599296Y-28873532D01*
X52610377Y-29009861D01*
X52599435Y-29145034D01*
X52567961Y-29264054D01*
X52515233Y-29371787D01*
X52443233Y-29463439D01*
X52353847Y-29537889D01*
X52248885Y-29593205D01*
X52131930Y-29626785D01*
X51996204Y-29638543D01*
X51859417Y-29626940D01*
X51741407Y-29593809D01*
X51635514Y-29538985D01*
X51546455Y-29465252D01*
X51474867Y-29373986D01*
X51421727Y-29264961D01*
X51389739Y-29144682D01*
X51378706Y-29010466D01*
X51693953Y-29010466D01*
X51704246Y-29132005D01*
X51732428Y-29227131D01*
X51776065Y-29301432D01*
X51820867Y-29347599D01*
X51871577Y-29379916D01*
X51929389Y-29399584D01*
X51996204Y-29406414D01*
X52055597Y-29400900D01*
X52108066Y-29384947D01*
X52154986Y-29358759D01*
X52213571Y-29301922D01*
X52258759Y-29221135D01*
X52285451Y-29126403D01*
X52295029Y-29010466D01*
X52285299Y-28893355D01*
X52258154Y-28797480D01*
X52229073Y-28739979D01*
X52194165Y-28694696D01*
X52153374Y-28659855D01*
X52080852Y-28625176D01*
X51996204Y-28613309D01*
X51909186Y-28625261D01*
X51837033Y-28659702D01*
X51776065Y-28717787D01*
X51732536Y-28791747D01*
X51704304Y-28887338D01*
X51693953Y-29010466D01*
X51378706Y-29010466D01*
X51389662Y-28875129D01*
X51421223Y-28755568D01*
X51473844Y-28647228D01*
X51545347Y-28555982D01*
X51634572Y-28482021D01*
X51741407Y-28426619D01*
X51860274Y-28392910D01*
X51996204Y-28381180D01*
X52130227Y-28392713D01*
G37*
G36*
X50731681Y-28387396D02*
G01*
X50832161Y-28404651D01*
X50915356Y-28431253D01*
X50993581Y-28469932D01*
X51052661Y-28512597D01*
X51095900Y-28559004D01*
X51128930Y-28612971D01*
X51147780Y-28666022D01*
X51153933Y-28719298D01*
X51144181Y-28768116D01*
X51115244Y-28807051D01*
X51073029Y-28832687D01*
X51023360Y-28841306D01*
X50970792Y-28834704D01*
X50946387Y-28819544D01*
X50886239Y-28731791D01*
X50839060Y-28673175D01*
X50785691Y-28633157D01*
X50719127Y-28609848D01*
X50610889Y-28600413D01*
X50522668Y-28608395D01*
X50466940Y-28628410D01*
X50433569Y-28657034D01*
X50411123Y-28697152D01*
X50394422Y-28754193D01*
X50385410Y-28833347D01*
X50562630Y-28881103D01*
X50761511Y-28925030D01*
X50906893Y-28955759D01*
X50996789Y-28983708D01*
X51069704Y-29023676D01*
X51128443Y-29075349D01*
X51173210Y-29138703D01*
X51200024Y-29209782D01*
X51209244Y-29290954D01*
X51197035Y-29381253D01*
X51160381Y-29464849D01*
X51123583Y-29514061D01*
X51077509Y-29556246D01*
X51021043Y-29591794D01*
X50959202Y-29617260D01*
X50889813Y-29633049D01*
X50811483Y-29638543D01*
X50685568Y-29627384D01*
X50576533Y-29595421D01*
X50473351Y-29543564D01*
X50362641Y-29468073D01*
X50310761Y-29543210D01*
X50265618Y-29593809D01*
X50216525Y-29628182D01*
X50170107Y-29638543D01*
X50115868Y-29628830D01*
X50067040Y-29599250D01*
X50032234Y-29556340D01*
X50021501Y-29511497D01*
X50026648Y-29476647D01*
X50050315Y-29390999D01*
X50072085Y-29298277D01*
X50079029Y-29212369D01*
X50077542Y-29066282D01*
X50385309Y-29066282D01*
X50391103Y-29171737D01*
X50405893Y-29244221D01*
X50426617Y-29292163D01*
X50471080Y-29347002D01*
X50538651Y-29393014D01*
X50618008Y-29422281D01*
X50705494Y-29432206D01*
X50760015Y-29426530D01*
X50804827Y-29410516D01*
X50842010Y-29384652D01*
X50871142Y-29350172D01*
X50888136Y-29312183D01*
X50893896Y-29269293D01*
X50882450Y-29210146D01*
X50849667Y-29167233D01*
X50803490Y-29136179D01*
X50756272Y-29117866D01*
X50577944Y-29077767D01*
X50457381Y-29049454D01*
X50385309Y-29027392D01*
X50385309Y-29066282D01*
X50077542Y-29066282D01*
X50077316Y-29044117D01*
X50076712Y-28859945D01*
X50082891Y-28745344D01*
X50099704Y-28654363D01*
X50125072Y-28582781D01*
X50164387Y-28519751D01*
X50218685Y-28469005D01*
X50290403Y-28429540D01*
X50370050Y-28404480D01*
X50474903Y-28387512D01*
X50610788Y-28381180D01*
X50731681Y-28387396D01*
G37*
G36*
X49459012Y-29191111D02*
G01*
X49459012Y-29448125D01*
X49464735Y-29509857D01*
X49480189Y-29556209D01*
X49503947Y-29590787D01*
X49536425Y-29617259D01*
X49573852Y-29633073D01*
X49617795Y-29638543D01*
X49660921Y-29633022D01*
X49697606Y-29617038D01*
X49729426Y-29590182D01*
X49752572Y-29555358D01*
X49767603Y-29509167D01*
X49773151Y-29448225D01*
X49773151Y-28591748D01*
X49765227Y-28506845D01*
X49744730Y-28449401D01*
X49714476Y-28411748D01*
X49674068Y-28389239D01*
X49620011Y-28381180D01*
X49570256Y-28387311D01*
X49533735Y-28404013D01*
X49507070Y-28430649D01*
X49481237Y-28485860D01*
X49469490Y-28564445D01*
X49415607Y-28485911D01*
X49360982Y-28430145D01*
X49319275Y-28403784D01*
X49267839Y-28387150D01*
X49204114Y-28381180D01*
X49108502Y-28393240D01*
X49013898Y-28430246D01*
X48960130Y-28468903D01*
X48930904Y-28511841D01*
X48921309Y-28561120D01*
X48931417Y-28614029D01*
X48961206Y-28656228D01*
X49003573Y-28684728D01*
X49047448Y-28693707D01*
X49129660Y-28672852D01*
X49192961Y-28656771D01*
X49243508Y-28651997D01*
X49305268Y-28661155D01*
X49352116Y-28686856D01*
X49388252Y-28728375D01*
X49417604Y-28791032D01*
X49436802Y-28864024D01*
X49450046Y-28956464D01*
X49459012Y-29191111D01*
G37*
G36*
X47842694Y-27929243D02*
G01*
X47878656Y-27945816D01*
X47907560Y-27973142D01*
X47927713Y-28008385D01*
X47941066Y-28055827D01*
X47946047Y-28119028D01*
X47946047Y-28566964D01*
X48031961Y-28488071D01*
X48119640Y-28433167D01*
X48182503Y-28408752D01*
X48256965Y-28393179D01*
X48345219Y-28387628D01*
X48457970Y-28398254D01*
X48555958Y-28428806D01*
X48642105Y-28478698D01*
X48718398Y-28549232D01*
X48777789Y-28633260D01*
X48821932Y-28733997D01*
X48850089Y-28854734D01*
X48860153Y-28999585D01*
X48851003Y-29132897D01*
X48824488Y-29253375D01*
X48779831Y-29364315D01*
X48719708Y-29457696D01*
X48643594Y-29535128D01*
X48555686Y-29591694D01*
X48457425Y-29626688D01*
X48349753Y-29638543D01*
X48267964Y-29632530D01*
X48194900Y-29615169D01*
X48126543Y-29586520D01*
X48063219Y-29546961D01*
X48004576Y-29497928D01*
X47946047Y-29437042D01*
X47946047Y-29458905D01*
X47940805Y-29514797D01*
X47926442Y-29558167D01*
X47904034Y-29591794D01*
X47856499Y-29626781D01*
X47797440Y-29638543D01*
X47737317Y-29627096D01*
X47690343Y-29593608D01*
X47668422Y-29561139D01*
X47654131Y-29517569D01*
X47648834Y-29459509D01*
X47648834Y-29008350D01*
X47962973Y-29008350D01*
X47973712Y-29131331D01*
X48002669Y-29224056D01*
X48050233Y-29300693D01*
X48108557Y-29351908D01*
X48178106Y-29383053D01*
X48255048Y-29393518D01*
X48330988Y-29382592D01*
X48401035Y-29349692D01*
X48459630Y-29296551D01*
X48506419Y-29219120D01*
X48534616Y-29126593D01*
X48544906Y-29008350D01*
X48535364Y-28895627D01*
X48508636Y-28802618D01*
X48463848Y-28722974D01*
X48406576Y-28666908D01*
X48336731Y-28631640D01*
X48257365Y-28619757D01*
X48180529Y-28631217D01*
X48109766Y-28665800D01*
X48050326Y-28720849D01*
X48002669Y-28799294D01*
X47973508Y-28892073D01*
X47962973Y-29008350D01*
X47648834Y-29008350D01*
X47648834Y-28102405D01*
X47659493Y-28021668D01*
X47687421Y-27968911D01*
X47715993Y-27944107D01*
X47751913Y-27928831D01*
X47797440Y-27923372D01*
X47842694Y-27929243D01*
G37*
G36*
X46574636Y-28574923D02*
G01*
X46328503Y-29264759D01*
X46063228Y-28544396D01*
X46028959Y-28463449D01*
X46000460Y-28418659D01*
X45962889Y-28391227D01*
X45905755Y-28381180D01*
X45850178Y-28391346D01*
X45803796Y-28421581D01*
X45771967Y-28465675D01*
X45761682Y-28515178D01*
X45769138Y-28563236D01*
X45786165Y-28614316D01*
X45808128Y-28668520D01*
X46103427Y-29400974D01*
X46135667Y-29481171D01*
X46180098Y-29564693D01*
X46207655Y-29595813D01*
X46240850Y-29618997D01*
X46279601Y-29633373D01*
X46328503Y-29638543D01*
X46390231Y-29630361D01*
X46434593Y-29608116D01*
X46469768Y-29575452D01*
X46493028Y-29541822D01*
X46555795Y-29400974D01*
X46848878Y-28676378D01*
X46869834Y-28622175D01*
X46887969Y-28566561D01*
X46895323Y-28517395D01*
X46890605Y-28485687D01*
X46875778Y-28453217D01*
X46852623Y-28424537D01*
X46821574Y-28401330D01*
X46785615Y-28386227D01*
X46746717Y-28381180D01*
X46696672Y-28386982D01*
X46662209Y-28402317D01*
X46639015Y-28426014D01*
X46611134Y-28478994D01*
X46574636Y-28574923D01*
G37*
G36*
X45054920Y-29453061D02*
G01*
X45054920Y-28436089D01*
X45254360Y-28576102D01*
X45372188Y-28637201D01*
X45437166Y-28651997D01*
X45482568Y-28642576D01*
X45523509Y-28613309D01*
X45551754Y-28571146D01*
X45560988Y-28523540D01*
X45551161Y-28470823D01*
X45524214Y-28436794D01*
X45479796Y-28408671D01*
X45395758Y-28366068D01*
X45268652Y-28297339D01*
X45178339Y-28231163D01*
X45101536Y-28156101D01*
X45033863Y-28072482D01*
X44951147Y-27963672D01*
X44925882Y-27948901D01*
X44876995Y-27942716D01*
X44838387Y-27948092D01*
X44806178Y-27963639D01*
X44778764Y-27989967D01*
X44751882Y-28043312D01*
X44741889Y-28119431D01*
X44741889Y-29408933D01*
X44750251Y-29502510D01*
X44771758Y-29565307D01*
X44803182Y-29605992D01*
X44844641Y-29630013D01*
X44899563Y-29638543D01*
X44944222Y-29633063D01*
X44981204Y-29617407D01*
X45012303Y-29591492D01*
X45034860Y-29557539D01*
X45049511Y-29512497D01*
X45054920Y-29453061D01*
G37*
G36*
X75528019Y-31185420D02*
G01*
X75457998Y-31185420D01*
X75457998Y-31095148D01*
X75447646Y-30956823D01*
X75421023Y-30861811D01*
X75390636Y-30809045D01*
X75349368Y-30767223D01*
X75295790Y-30735168D01*
X75235500Y-30714480D01*
X75156583Y-30700553D01*
X75054695Y-30695372D01*
X74936904Y-30703475D01*
X74861348Y-30723709D01*
X74815544Y-30751698D01*
X74790491Y-30786055D01*
X74782065Y-30828866D01*
X74789391Y-30869461D01*
X74811182Y-30903521D01*
X74843185Y-30926926D01*
X74879994Y-30934552D01*
X74942157Y-30927802D01*
X75016410Y-30921052D01*
X75067738Y-30927549D01*
X75100684Y-30944389D01*
X75120787Y-30970420D01*
X75137232Y-31025647D01*
X75143859Y-31113082D01*
X75143859Y-31185420D01*
X75071621Y-31185420D01*
X74982474Y-31194564D01*
X74930159Y-31217021D01*
X74902057Y-31249149D01*
X74892487Y-31293223D01*
X74898788Y-31341403D01*
X74915125Y-31372080D01*
X74940545Y-31390548D01*
X74993352Y-31405312D01*
X75071621Y-31411101D01*
X75143859Y-31411101D01*
X75143859Y-32220729D01*
X75149437Y-32280724D01*
X75164631Y-32326681D01*
X75188189Y-32361779D01*
X75220399Y-32388769D01*
X75257987Y-32404931D01*
X75302641Y-32410543D01*
X75345026Y-32405028D01*
X75381575Y-32388960D01*
X75413769Y-32361779D01*
X75437269Y-32326690D01*
X75452431Y-32280733D01*
X75457998Y-32220729D01*
X75457998Y-31411101D01*
X75539303Y-31411101D01*
X75603741Y-31402517D01*
X75647509Y-31379667D01*
X75676099Y-31343500D01*
X75685693Y-31297656D01*
X75676523Y-31250049D01*
X75650541Y-31216690D01*
X75604305Y-31194317D01*
X75528019Y-31185420D01*
G37*
G36*
X74346849Y-31164713D02*
G01*
X74465407Y-31198014D01*
X74572127Y-31252747D01*
X74660460Y-31325564D01*
X74731026Y-31415861D01*
X74783979Y-31524949D01*
X74815919Y-31645532D01*
X74827000Y-31781861D01*
X74816058Y-31917034D01*
X74784584Y-32036054D01*
X74731855Y-32143787D01*
X74659855Y-32235439D01*
X74570470Y-32309889D01*
X74465508Y-32365205D01*
X74348552Y-32398785D01*
X74212826Y-32410543D01*
X74076039Y-32398940D01*
X73958029Y-32365809D01*
X73852136Y-32310985D01*
X73763078Y-32237252D01*
X73691490Y-32145986D01*
X73638349Y-32036961D01*
X73606361Y-31916682D01*
X73595329Y-31782466D01*
X73910576Y-31782466D01*
X73920868Y-31904005D01*
X73949051Y-31999131D01*
X73992687Y-32073432D01*
X74037490Y-32119599D01*
X74088199Y-32151916D01*
X74146011Y-32171584D01*
X74212826Y-32178414D01*
X74272219Y-32172900D01*
X74324688Y-32156947D01*
X74371609Y-32130759D01*
X74430193Y-32073922D01*
X74475381Y-31993135D01*
X74502073Y-31898403D01*
X74511652Y-31782466D01*
X74501921Y-31665355D01*
X74474777Y-31569480D01*
X74445696Y-31511979D01*
X74410788Y-31466696D01*
X74369997Y-31431855D01*
X74297474Y-31397176D01*
X74212826Y-31385309D01*
X74125809Y-31397261D01*
X74053656Y-31431702D01*
X73992687Y-31489787D01*
X73949158Y-31563747D01*
X73920926Y-31659338D01*
X73910576Y-31782466D01*
X73595329Y-31782466D01*
X73606285Y-31647129D01*
X73637845Y-31527568D01*
X73690466Y-31419228D01*
X73761969Y-31327982D01*
X73851195Y-31254021D01*
X73958029Y-31198619D01*
X74076896Y-31164910D01*
X74212826Y-31153180D01*
X74346849Y-31164713D01*
G37*
G36*
X73061957Y-31963111D02*
G01*
X73061957Y-32220125D01*
X73067680Y-32281857D01*
X73083133Y-32328209D01*
X73106892Y-32362787D01*
X73139370Y-32389259D01*
X73176797Y-32405073D01*
X73220740Y-32410543D01*
X73263866Y-32405022D01*
X73300551Y-32389038D01*
X73332371Y-32362182D01*
X73355517Y-32327358D01*
X73370548Y-32281167D01*
X73376096Y-32220225D01*
X73376096Y-31363748D01*
X73368172Y-31278845D01*
X73347674Y-31221401D01*
X73317420Y-31183748D01*
X73277013Y-31161239D01*
X73222956Y-31153180D01*
X73173201Y-31159311D01*
X73136680Y-31176013D01*
X73110015Y-31202649D01*
X73084182Y-31257860D01*
X73072435Y-31336445D01*
X73018552Y-31257911D01*
X72963927Y-31202145D01*
X72922220Y-31175784D01*
X72870784Y-31159150D01*
X72807059Y-31153180D01*
X72711447Y-31165240D01*
X72616843Y-31202246D01*
X72563074Y-31240903D01*
X72533849Y-31283841D01*
X72524254Y-31333120D01*
X72534362Y-31386029D01*
X72564151Y-31428228D01*
X72606518Y-31456728D01*
X72650393Y-31465707D01*
X72732605Y-31444852D01*
X72795906Y-31428771D01*
X72846453Y-31423997D01*
X72908213Y-31433155D01*
X72955061Y-31458856D01*
X72991196Y-31500375D01*
X73020549Y-31563032D01*
X73039747Y-31636024D01*
X73052990Y-31728464D01*
X73061957Y-31963111D01*
G37*
G36*
X70774022Y-30991980D02*
G01*
X71430107Y-30991980D01*
X71430107Y-31404653D01*
X70882227Y-31404653D01*
X70811098Y-31414442D01*
X70765559Y-31440016D01*
X70736766Y-31480477D01*
X70726770Y-31534218D01*
X70736913Y-31587730D01*
X70766163Y-31627814D01*
X70811931Y-31652988D01*
X70882227Y-31662573D01*
X71430107Y-31662573D01*
X71430107Y-32203400D01*
X71436265Y-32271846D01*
X71452760Y-32322441D01*
X71477862Y-32359462D01*
X71512437Y-32387722D01*
X71552625Y-32404663D01*
X71600173Y-32410543D01*
X71648433Y-32404597D01*
X71689002Y-32387505D01*
X71723693Y-32359059D01*
X71748809Y-32321762D01*
X71765240Y-32271358D01*
X71771348Y-32203803D01*
X71771348Y-30935459D01*
X71765398Y-30866686D01*
X71749585Y-30816473D01*
X71721552Y-30776325D01*
X71681277Y-30748870D01*
X71631029Y-30733405D01*
X71562996Y-30727612D01*
X70774022Y-30727612D01*
X70699806Y-30737719D01*
X70652819Y-30763982D01*
X70623122Y-30805436D01*
X70612922Y-30859191D01*
X70623175Y-30913988D01*
X70652819Y-30955609D01*
X70699806Y-30981872D01*
X70774022Y-30991980D01*
G37*
G36*
X70026254Y-32113934D02*
G01*
X69443817Y-32113934D01*
X69361751Y-32124086D01*
X69307603Y-32150607D01*
X69281327Y-32177955D01*
X69265695Y-32210655D01*
X69260250Y-32250451D01*
X69269732Y-32302608D01*
X69297830Y-32345760D01*
X69342380Y-32374108D01*
X69411174Y-32384751D01*
X70240751Y-32384751D01*
X70296085Y-32378962D01*
X70339967Y-32362866D01*
X70374950Y-32337196D01*
X70411316Y-32285011D01*
X70423209Y-32225364D01*
X70416699Y-32181798D01*
X70392581Y-32116755D01*
X70358941Y-32054247D01*
X70325381Y-32010766D01*
X70054665Y-31742670D01*
X69941325Y-31641865D01*
X69881879Y-31595776D01*
X69795233Y-31528189D01*
X69728638Y-31464297D01*
X69673835Y-31396101D01*
X69635645Y-31329191D01*
X69611414Y-31259645D01*
X69603708Y-31193984D01*
X69612374Y-31125486D01*
X69637660Y-31065931D01*
X69677694Y-31015820D01*
X69730048Y-30978177D01*
X69790815Y-30954754D01*
X69857497Y-30946844D01*
X69926972Y-30954993D01*
X69987080Y-30978618D01*
X70040036Y-31018064D01*
X70087006Y-31075703D01*
X70124687Y-31168293D01*
X70154672Y-31238793D01*
X70185137Y-31285868D01*
X70225612Y-31316507D01*
X70284678Y-31327478D01*
X70337943Y-31317789D01*
X70380592Y-31289395D01*
X70408668Y-31245788D01*
X70418676Y-31185924D01*
X70410234Y-31107614D01*
X70383514Y-31022709D01*
X70340054Y-30942344D01*
X70278532Y-30868662D01*
X70201145Y-30807331D01*
X70101615Y-30757131D01*
X69988881Y-30725926D01*
X69850747Y-30714716D01*
X69736153Y-30721245D01*
X69638486Y-30739612D01*
X69555247Y-30768415D01*
X69480603Y-30811679D01*
X69415607Y-30868561D01*
X69362292Y-30936974D01*
X69322010Y-31015858D01*
X69296842Y-31101069D01*
X69288460Y-31189350D01*
X69296367Y-31281423D01*
X69319598Y-31366358D01*
X69358179Y-31445658D01*
X69431516Y-31552235D01*
X69500136Y-31626102D01*
X69742037Y-31830121D01*
X69896094Y-31963829D01*
X69974569Y-32045625D01*
X70026254Y-32113934D01*
G37*
G36*
X68106963Y-31011324D02*
G01*
X68639629Y-31011324D01*
X68702296Y-31363950D01*
X68596607Y-31316869D01*
X68500242Y-31290504D01*
X68411329Y-31282141D01*
X68305307Y-31292480D01*
X68207814Y-31322944D01*
X68118763Y-31371668D01*
X68041677Y-31435785D01*
X67978174Y-31513868D01*
X67929340Y-31606355D01*
X67898811Y-31707797D01*
X67888436Y-31818132D01*
X67896847Y-31925700D01*
X67921497Y-32024852D01*
X67962185Y-32117158D01*
X68018289Y-32200555D01*
X68088662Y-32271608D01*
X68174768Y-32331252D01*
X68270170Y-32374658D01*
X68376109Y-32401320D01*
X68494750Y-32410543D01*
X68628216Y-32401240D01*
X68736350Y-32375545D01*
X68823800Y-32335786D01*
X68903407Y-32280582D01*
X68962057Y-32223372D01*
X69003136Y-32163906D01*
X69044141Y-32068201D01*
X69055929Y-31993941D01*
X69047011Y-31951015D01*
X69018349Y-31908303D01*
X68976167Y-31878070D01*
X68924148Y-31867902D01*
X68866705Y-31879635D01*
X68819645Y-31914905D01*
X68780377Y-31979936D01*
X68746009Y-32043355D01*
X68705833Y-32094764D01*
X68659779Y-32135696D01*
X68606986Y-32166699D01*
X68550875Y-32185094D01*
X68490217Y-32191310D01*
X68408952Y-32179857D01*
X68339897Y-32146476D01*
X68283241Y-32093883D01*
X68240155Y-32022957D01*
X68214039Y-31940468D01*
X68204892Y-31843924D01*
X68214972Y-31740890D01*
X68242875Y-31659349D01*
X68288077Y-31591646D01*
X68344230Y-31545401D01*
X68410843Y-31517345D01*
X68485683Y-31507821D01*
X68574412Y-31514846D01*
X68623005Y-31531296D01*
X68742898Y-31614112D01*
X68820466Y-31661148D01*
X68873470Y-31673555D01*
X68926461Y-31663548D01*
X68973817Y-31632953D01*
X69007016Y-31588615D01*
X69017543Y-31540464D01*
X69005151Y-31463793D01*
X68910446Y-30927701D01*
X68885735Y-30838938D01*
X68850801Y-30785241D01*
X68818622Y-30761891D01*
X68772856Y-30746377D01*
X68708844Y-30740508D01*
X68113713Y-30740508D01*
X68028199Y-30751048D01*
X67975611Y-30777850D01*
X67945475Y-30818557D01*
X67934680Y-30877629D01*
X67945768Y-30932097D01*
X67978506Y-30974450D01*
X68029253Y-31001131D01*
X68106963Y-31011324D01*
G37*
G36*
X65787392Y-31883921D02*
G01*
X65796234Y-31982020D01*
X65822150Y-32071659D01*
X65865171Y-32154637D01*
X65923584Y-32227527D01*
X65998493Y-32290082D01*
X66092362Y-32342637D01*
X66194206Y-32379281D01*
X66311415Y-32402397D01*
X66446600Y-32410543D01*
X66608176Y-32399165D01*
X66741557Y-32367467D01*
X66851716Y-32317953D01*
X66922705Y-32268372D01*
X66983924Y-32209141D01*
X67036089Y-32139525D01*
X67076777Y-32062701D01*
X67099679Y-31990720D01*
X67107017Y-31922106D01*
X67096205Y-31864460D01*
X67063796Y-31815714D01*
X67015234Y-31782681D01*
X66953877Y-31771383D01*
X66903504Y-31780140D01*
X66862295Y-31805840D01*
X66829091Y-31846188D01*
X66798621Y-31907497D01*
X66764790Y-31981996D01*
X66731018Y-32038573D01*
X66688235Y-32085652D01*
X66628857Y-32125117D01*
X66556859Y-32149735D01*
X66455668Y-32159070D01*
X66359345Y-32150720D01*
X66280643Y-32127407D01*
X66216084Y-32090560D01*
X66163804Y-32039615D01*
X66134067Y-31983549D01*
X66124099Y-31919990D01*
X66129920Y-31868009D01*
X66146478Y-31824834D01*
X66173567Y-31788511D01*
X66229094Y-31744655D01*
X66302024Y-31711034D01*
X66513800Y-31653707D01*
X66684178Y-31606259D01*
X66812928Y-31555879D01*
X66889051Y-31513032D01*
X66952419Y-31462007D01*
X67004454Y-31402537D01*
X67043003Y-31334517D01*
X67066950Y-31254934D01*
X67075382Y-31161039D01*
X67066849Y-31071739D01*
X67041889Y-30990915D01*
X67000424Y-30916720D01*
X66944550Y-30852439D01*
X66873178Y-30797812D01*
X66783811Y-30752698D01*
X66687718Y-30721786D01*
X66577561Y-30702252D01*
X66451134Y-30695372D01*
X66304270Y-30705543D01*
X66186866Y-30733455D01*
X66082518Y-30778951D01*
X66001587Y-30834508D01*
X65936143Y-30901020D01*
X65893683Y-30966994D01*
X65867739Y-31036923D01*
X65859529Y-31102604D01*
X65870149Y-31160163D01*
X65902751Y-31212623D01*
X65934169Y-31240011D01*
X65969592Y-31256093D01*
X66010453Y-31261588D01*
X66064090Y-31253708D01*
X66099717Y-31232672D01*
X66128994Y-31198080D01*
X66165507Y-31138572D01*
X66216429Y-31052906D01*
X66272806Y-30992585D01*
X66317647Y-30965726D01*
X66382375Y-30947409D01*
X66473702Y-30940396D01*
X66557782Y-30947312D01*
X66625701Y-30966491D01*
X66680643Y-30996514D01*
X66725765Y-31038343D01*
X66750804Y-31082576D01*
X66759026Y-31131015D01*
X66752247Y-31176688D01*
X66732529Y-31214839D01*
X66701817Y-31247054D01*
X66659183Y-31275894D01*
X66563974Y-31316194D01*
X66404083Y-31358912D01*
X66267850Y-31394141D01*
X66150697Y-31431150D01*
X66042938Y-31476302D01*
X65957156Y-31527467D01*
X65885936Y-31591687D01*
X65832326Y-31671036D01*
X65808183Y-31730631D01*
X65792845Y-31800910D01*
X65787392Y-31883921D01*
G37*
G36*
X64764475Y-32268283D02*
G01*
X65034083Y-31825587D01*
X65196996Y-31979634D01*
X65196996Y-32222643D01*
X65202894Y-32280980D01*
X65219139Y-32326383D01*
X65244751Y-32361779D01*
X65296775Y-32398645D01*
X65354670Y-32410543D01*
X65400742Y-32404848D01*
X65438039Y-32388718D01*
X65468618Y-32362182D01*
X65490451Y-32327548D01*
X65504734Y-32281366D01*
X65510026Y-32220225D01*
X65510026Y-30908257D01*
X65504831Y-30840055D01*
X65490877Y-30788524D01*
X65469827Y-30749978D01*
X65439433Y-30719861D01*
X65401820Y-30701756D01*
X65354670Y-30695372D01*
X65308597Y-30701172D01*
X65270905Y-30717693D01*
X65239613Y-30745041D01*
X65217143Y-30780623D01*
X65202443Y-30828080D01*
X65196996Y-30890928D01*
X65196996Y-31631945D01*
X64856460Y-31272267D01*
X64757725Y-31178569D01*
X64720354Y-31159769D01*
X64673800Y-31153180D01*
X64619437Y-31162763D01*
X64575770Y-31190760D01*
X64546408Y-31232770D01*
X64536477Y-31284861D01*
X64546446Y-31327198D01*
X64583422Y-31385713D01*
X64662617Y-31467622D01*
X64824119Y-31615624D01*
X64509980Y-32109199D01*
X64459504Y-32193728D01*
X64447741Y-32222982D01*
X64444090Y-32249544D01*
X64454924Y-32317985D01*
X64484994Y-32367321D01*
X64531563Y-32399410D01*
X64592696Y-32410543D01*
X64645253Y-32402220D01*
X64681356Y-32379511D01*
X64713675Y-32341461D01*
X64764475Y-32268283D01*
G37*
G36*
X63840487Y-31159396D02*
G01*
X63940968Y-31176651D01*
X64024163Y-31203253D01*
X64102387Y-31241932D01*
X64161468Y-31284597D01*
X64204707Y-31331004D01*
X64237737Y-31384971D01*
X64256587Y-31438022D01*
X64262739Y-31491298D01*
X64252987Y-31540116D01*
X64224051Y-31579051D01*
X64181836Y-31604687D01*
X64132167Y-31613306D01*
X64079599Y-31606704D01*
X64055194Y-31591544D01*
X63995046Y-31503791D01*
X63947867Y-31445175D01*
X63894497Y-31405157D01*
X63827934Y-31381848D01*
X63719696Y-31372413D01*
X63631475Y-31380395D01*
X63575746Y-31400410D01*
X63542376Y-31429034D01*
X63519930Y-31469152D01*
X63503228Y-31526193D01*
X63494217Y-31605347D01*
X63671436Y-31653103D01*
X63870317Y-31697030D01*
X64015700Y-31727759D01*
X64105596Y-31755708D01*
X64178510Y-31795676D01*
X64237249Y-31847349D01*
X64282017Y-31910703D01*
X64308830Y-31981782D01*
X64318051Y-32062954D01*
X64305842Y-32153253D01*
X64269187Y-32236849D01*
X64232389Y-32286061D01*
X64186316Y-32328246D01*
X64129850Y-32363794D01*
X64068009Y-32389260D01*
X63998620Y-32405049D01*
X63920289Y-32410543D01*
X63794375Y-32399384D01*
X63685340Y-32367421D01*
X63582158Y-32315564D01*
X63471447Y-32240073D01*
X63419568Y-32315210D01*
X63374425Y-32365809D01*
X63325332Y-32400182D01*
X63278914Y-32410543D01*
X63224675Y-32400830D01*
X63175846Y-32371250D01*
X63141041Y-32328340D01*
X63130307Y-32283497D01*
X63135455Y-32248647D01*
X63159122Y-32162999D01*
X63180891Y-32070277D01*
X63187836Y-31984369D01*
X63186349Y-31838282D01*
X63494116Y-31838282D01*
X63499910Y-31943737D01*
X63514699Y-32016221D01*
X63535424Y-32064163D01*
X63579887Y-32119002D01*
X63647458Y-32165014D01*
X63726815Y-32194281D01*
X63814300Y-32204206D01*
X63868822Y-32198530D01*
X63913634Y-32182516D01*
X63950817Y-32156652D01*
X63979948Y-32122172D01*
X63996943Y-32084183D01*
X64002703Y-32041293D01*
X63991257Y-31982146D01*
X63958474Y-31939233D01*
X63912297Y-31908179D01*
X63865078Y-31889866D01*
X63686751Y-31849767D01*
X63566188Y-31821454D01*
X63494116Y-31799392D01*
X63494116Y-31838282D01*
X63186349Y-31838282D01*
X63186123Y-31816117D01*
X63185518Y-31631945D01*
X63191698Y-31517344D01*
X63208510Y-31426363D01*
X63233878Y-31354781D01*
X63273194Y-31291751D01*
X63327492Y-31241005D01*
X63399210Y-31201540D01*
X63478856Y-31176480D01*
X63583709Y-31159512D01*
X63719595Y-31153180D01*
X63840487Y-31159396D01*
G37*
G36*
X62932132Y-31185420D02*
G01*
X62901504Y-31185420D01*
X62901504Y-31003969D01*
X62897574Y-30886797D01*
X62889722Y-30846197D01*
X62875208Y-30813048D01*
X62852983Y-30784071D01*
X62822213Y-30760658D01*
X62785943Y-30745624D01*
X62745039Y-30740508D01*
X62688669Y-30751447D01*
X62636833Y-30785341D01*
X62610495Y-30818619D01*
X62596029Y-30858285D01*
X62587365Y-30979185D01*
X62587365Y-31185420D01*
X62477849Y-31185420D01*
X62416796Y-31194025D01*
X62375890Y-31216955D01*
X62349453Y-31252703D01*
X62340527Y-31297656D01*
X62346501Y-31336741D01*
X62363093Y-31365296D01*
X62390801Y-31386014D01*
X62446814Y-31403976D01*
X62533060Y-31411101D01*
X62587365Y-31411101D01*
X62587365Y-31971272D01*
X62582428Y-32080989D01*
X62573025Y-32116147D01*
X62556233Y-32142346D01*
X62530298Y-32159039D01*
X62486917Y-32165518D01*
X62413974Y-32155947D01*
X62341433Y-32146376D01*
X62305429Y-32153857D01*
X62272117Y-32177306D01*
X62249070Y-32211654D01*
X62241288Y-32253574D01*
X62250065Y-32299731D01*
X62276260Y-32337987D01*
X62323701Y-32370444D01*
X62380286Y-32391107D01*
X62456995Y-32405222D01*
X62559054Y-32410543D01*
X62655176Y-32404102D01*
X62726894Y-32386975D01*
X62779596Y-32361578D01*
X62824226Y-32324558D01*
X62856771Y-32279925D01*
X62878230Y-32226371D01*
X62894940Y-32132966D01*
X62901504Y-31996963D01*
X62901504Y-31411101D01*
X62938882Y-31411101D01*
X63000955Y-31402358D01*
X63042554Y-31379062D01*
X63069480Y-31342754D01*
X63078522Y-31297656D01*
X63069113Y-31252818D01*
X63040942Y-31216955D01*
X62997527Y-31194090D01*
X62932132Y-31185420D01*
G37*
G36*
X61750222Y-31164711D02*
G01*
X61868915Y-31197913D01*
X61942085Y-31232524D01*
X62006008Y-31275285D01*
X62061650Y-31326370D01*
X62129991Y-31417467D01*
X62180737Y-31527165D01*
X62211018Y-31647525D01*
X62221440Y-31780753D01*
X62210060Y-31924727D01*
X62177847Y-32047008D01*
X62126473Y-32151426D01*
X62055907Y-32240879D01*
X61968270Y-32312916D01*
X61864214Y-32365556D01*
X61740464Y-32398748D01*
X61592658Y-32410543D01*
X61466925Y-32401652D01*
X61362242Y-32376791D01*
X61267986Y-32337388D01*
X61195602Y-32291758D01*
X61135936Y-32237519D01*
X61096161Y-32184358D01*
X61070384Y-32128898D01*
X61063014Y-32085925D01*
X61070967Y-32042026D01*
X61093340Y-32010867D01*
X61127294Y-31991162D01*
X61172228Y-31984168D01*
X61213716Y-31989950D01*
X61241947Y-32005426D01*
X61335544Y-32091567D01*
X61413927Y-32150809D01*
X61457523Y-32174921D01*
X61501681Y-32191310D01*
X61548273Y-32200854D01*
X61601726Y-32204206D01*
X61679883Y-32194024D01*
X61750534Y-32163805D01*
X61810402Y-32114558D01*
X61858739Y-32043711D01*
X61889219Y-31959898D01*
X61900551Y-31862462D01*
X61301893Y-31862462D01*
X61188128Y-31852609D01*
X61112785Y-31827501D01*
X61077244Y-31797781D01*
X61053984Y-31749477D01*
X61045864Y-31681917D01*
X61349246Y-31681917D01*
X61900248Y-31681917D01*
X61882058Y-31583442D01*
X61852074Y-31508202D01*
X61811891Y-31451401D01*
X61758924Y-31407631D01*
X61697608Y-31381472D01*
X61625301Y-31372413D01*
X61549216Y-31381502D01*
X61486173Y-31407432D01*
X61433171Y-31450192D01*
X61393545Y-31506408D01*
X61364943Y-31581863D01*
X61349246Y-31681917D01*
X61045864Y-31681917D01*
X61044980Y-31674563D01*
X61051991Y-31592198D01*
X61073249Y-31510163D01*
X61109662Y-31427422D01*
X61159309Y-31352419D01*
X61223583Y-31286707D01*
X61304210Y-31229650D01*
X61393667Y-31188138D01*
X61496433Y-31162259D01*
X61615226Y-31153180D01*
X61750222Y-31164711D01*
G37*
G36*
X60710835Y-30701101D02*
G01*
X60746088Y-30717366D01*
X60774869Y-30744336D01*
X60795105Y-30779128D01*
X60808477Y-30825826D01*
X60813456Y-30887905D01*
X60813456Y-32231509D01*
X60808398Y-32288898D01*
X60794724Y-32332334D01*
X60773761Y-32365003D01*
X60744567Y-32390085D01*
X60709595Y-32405232D01*
X60667066Y-32410543D01*
X60606789Y-32398982D01*
X60558760Y-32364903D01*
X60536147Y-32331926D01*
X60521527Y-32288321D01*
X60516143Y-32230905D01*
X60516143Y-32209042D01*
X60439875Y-32290952D01*
X60364413Y-32348480D01*
X60316934Y-32373032D01*
X60257114Y-32393415D01*
X60192685Y-32406167D01*
X60122612Y-32410543D01*
X60009725Y-32398598D01*
X59908820Y-32363694D01*
X59819136Y-32307124D01*
X59743691Y-32230804D01*
X59684454Y-32138515D01*
X59640019Y-32028196D01*
X59613574Y-31907824D01*
X59604946Y-31780350D01*
X59919601Y-31780350D01*
X59930137Y-31901993D01*
X59958741Y-31995123D01*
X60002720Y-32066078D01*
X60063431Y-32122590D01*
X60128514Y-32154785D01*
X60200391Y-32165518D01*
X60285852Y-32154360D01*
X60357399Y-32122210D01*
X60418415Y-32068294D01*
X60462476Y-31998778D01*
X60491035Y-31907833D01*
X60501534Y-31789317D01*
X60491162Y-31670744D01*
X60462443Y-31575727D01*
X60414934Y-31495242D01*
X60355345Y-31438908D01*
X60283082Y-31403691D01*
X60200391Y-31391757D01*
X60120506Y-31403743D01*
X60052389Y-31438908D01*
X59997163Y-31494493D01*
X59954259Y-31572805D01*
X59928843Y-31664718D01*
X59919601Y-31780350D01*
X59604946Y-31780350D01*
X59604353Y-31771585D01*
X59612031Y-31646577D01*
X59633832Y-31538141D01*
X59668431Y-31443845D01*
X59718011Y-31357310D01*
X59777958Y-31287567D01*
X59848773Y-31232572D01*
X59929086Y-31192585D01*
X60018574Y-31168098D01*
X60119288Y-31159628D01*
X60207480Y-31165463D01*
X60281564Y-31181821D01*
X60343860Y-31207485D01*
X60430838Y-31263217D01*
X60516143Y-31339266D01*
X60516143Y-30875211D01*
X60526843Y-30795916D01*
X60555334Y-30742220D01*
X60584400Y-30716674D01*
X60620881Y-30700975D01*
X60667066Y-30695372D01*
X60710835Y-30701101D01*
G37*
G36*
X58971566Y-31164713D02*
G01*
X59090125Y-31198014D01*
X59196844Y-31252747D01*
X59285177Y-31325564D01*
X59355743Y-31415861D01*
X59408697Y-31524949D01*
X59440636Y-31645532D01*
X59451717Y-31781861D01*
X59440775Y-31917034D01*
X59409301Y-32036054D01*
X59356573Y-32143787D01*
X59284572Y-32235439D01*
X59195187Y-32309889D01*
X59090225Y-32365205D01*
X58973270Y-32398785D01*
X58837544Y-32410543D01*
X58700757Y-32398940D01*
X58582747Y-32365809D01*
X58476854Y-32310985D01*
X58387795Y-32237252D01*
X58316207Y-32145986D01*
X58263066Y-32036961D01*
X58231078Y-31916682D01*
X58220046Y-31782466D01*
X58535293Y-31782466D01*
X58545586Y-31904005D01*
X58573768Y-31999131D01*
X58617405Y-32073432D01*
X58662207Y-32119599D01*
X58712917Y-32151916D01*
X58770729Y-32171584D01*
X58837544Y-32178414D01*
X58896936Y-32172900D01*
X58949406Y-32156947D01*
X58996326Y-32130759D01*
X59054911Y-32073922D01*
X59100099Y-31993135D01*
X59126791Y-31898403D01*
X59136369Y-31782466D01*
X59126638Y-31665355D01*
X59099494Y-31569480D01*
X59070413Y-31511979D01*
X59035505Y-31466696D01*
X58994714Y-31431855D01*
X58922191Y-31397176D01*
X58837544Y-31385309D01*
X58750526Y-31397261D01*
X58678373Y-31431702D01*
X58617405Y-31489787D01*
X58573876Y-31563747D01*
X58545643Y-31659338D01*
X58535293Y-31782466D01*
X58220046Y-31782466D01*
X58231002Y-31647129D01*
X58262563Y-31527568D01*
X58315184Y-31419228D01*
X58386687Y-31327982D01*
X58475912Y-31254021D01*
X58582747Y-31198619D01*
X58701613Y-31164910D01*
X58837544Y-31153180D01*
X58971566Y-31164713D01*
G37*
G36*
X57573021Y-31159396D02*
G01*
X57673501Y-31176651D01*
X57756696Y-31203253D01*
X57834921Y-31241932D01*
X57894001Y-31284597D01*
X57937240Y-31331004D01*
X57970270Y-31384971D01*
X57989120Y-31438022D01*
X57995272Y-31491298D01*
X57985521Y-31540116D01*
X57956584Y-31579051D01*
X57914369Y-31604687D01*
X57864700Y-31613306D01*
X57812132Y-31606704D01*
X57787727Y-31591544D01*
X57727579Y-31503791D01*
X57680400Y-31445175D01*
X57627031Y-31405157D01*
X57560467Y-31381848D01*
X57452229Y-31372413D01*
X57364008Y-31380395D01*
X57308279Y-31400410D01*
X57274909Y-31429034D01*
X57252463Y-31469152D01*
X57235761Y-31526193D01*
X57226750Y-31605347D01*
X57403970Y-31653103D01*
X57602850Y-31697030D01*
X57748233Y-31727759D01*
X57838129Y-31755708D01*
X57911044Y-31795676D01*
X57969783Y-31847349D01*
X58014550Y-31910703D01*
X58041363Y-31981782D01*
X58050584Y-32062954D01*
X58038375Y-32153253D01*
X58001720Y-32236849D01*
X57964923Y-32286061D01*
X57918849Y-32328246D01*
X57862383Y-32363794D01*
X57800542Y-32389260D01*
X57731153Y-32405049D01*
X57652823Y-32410543D01*
X57526908Y-32399384D01*
X57417873Y-32367421D01*
X57314691Y-32315564D01*
X57203981Y-32240073D01*
X57152101Y-32315210D01*
X57106958Y-32365809D01*
X57057865Y-32400182D01*
X57011447Y-32410543D01*
X56957208Y-32400830D01*
X56908380Y-32371250D01*
X56873574Y-32328340D01*
X56862840Y-32283497D01*
X56867988Y-32248647D01*
X56891655Y-32162999D01*
X56913424Y-32070277D01*
X56920369Y-31984369D01*
X56918882Y-31838282D01*
X57226649Y-31838282D01*
X57232443Y-31943737D01*
X57247232Y-32016221D01*
X57267957Y-32064163D01*
X57312420Y-32119002D01*
X57379991Y-32165014D01*
X57459348Y-32194281D01*
X57546833Y-32204206D01*
X57601355Y-32198530D01*
X57646167Y-32182516D01*
X57683350Y-32156652D01*
X57712481Y-32122172D01*
X57729476Y-32084183D01*
X57735236Y-32041293D01*
X57723790Y-31982146D01*
X57691007Y-31939233D01*
X57644830Y-31908179D01*
X57597611Y-31889866D01*
X57419284Y-31849767D01*
X57298721Y-31821454D01*
X57226649Y-31799392D01*
X57226649Y-31838282D01*
X56918882Y-31838282D01*
X56918656Y-31816117D01*
X56918052Y-31631945D01*
X56924231Y-31517344D01*
X56941044Y-31426363D01*
X56966412Y-31354781D01*
X57005727Y-31291751D01*
X57060025Y-31241005D01*
X57131743Y-31201540D01*
X57211390Y-31176480D01*
X57316243Y-31159512D01*
X57452128Y-31153180D01*
X57573021Y-31159396D01*
G37*
G36*
X56300352Y-31963111D02*
G01*
X56300352Y-32220125D01*
X56306075Y-32281857D01*
X56321528Y-32328209D01*
X56345287Y-32362787D01*
X56377765Y-32389259D01*
X56415192Y-32405073D01*
X56459134Y-32410543D01*
X56502261Y-32405022D01*
X56538946Y-32389038D01*
X56570766Y-32362182D01*
X56593912Y-32327358D01*
X56608943Y-32281167D01*
X56614491Y-32220225D01*
X56614491Y-31363748D01*
X56606567Y-31278845D01*
X56586069Y-31221401D01*
X56555815Y-31183748D01*
X56515408Y-31161239D01*
X56461351Y-31153180D01*
X56411596Y-31159311D01*
X56375075Y-31176013D01*
X56348410Y-31202649D01*
X56322577Y-31257860D01*
X56310830Y-31336445D01*
X56256947Y-31257911D01*
X56202322Y-31202145D01*
X56160615Y-31175784D01*
X56109179Y-31159150D01*
X56045454Y-31153180D01*
X55949842Y-31165240D01*
X55855238Y-31202246D01*
X55801469Y-31240903D01*
X55772244Y-31283841D01*
X55762649Y-31333120D01*
X55772757Y-31386029D01*
X55802546Y-31428228D01*
X55844913Y-31456728D01*
X55888788Y-31465707D01*
X55971000Y-31444852D01*
X56034301Y-31428771D01*
X56084848Y-31423997D01*
X56146608Y-31433155D01*
X56193456Y-31458856D01*
X56229591Y-31500375D01*
X56258944Y-31563032D01*
X56278142Y-31636024D01*
X56291385Y-31728464D01*
X56300352Y-31963111D01*
G37*
G36*
X54684034Y-30701243D02*
G01*
X54719996Y-30717816D01*
X54748900Y-30745142D01*
X54769053Y-30780385D01*
X54782406Y-30827827D01*
X54787387Y-30891028D01*
X54787387Y-31338964D01*
X54873301Y-31260071D01*
X54960979Y-31205167D01*
X55023843Y-31180752D01*
X55098305Y-31165179D01*
X55186559Y-31159628D01*
X55299310Y-31170254D01*
X55397298Y-31200806D01*
X55483445Y-31250698D01*
X55559738Y-31321232D01*
X55619129Y-31405260D01*
X55663272Y-31505997D01*
X55691429Y-31626734D01*
X55701493Y-31771585D01*
X55692342Y-31904897D01*
X55665828Y-32025375D01*
X55621170Y-32136315D01*
X55561047Y-32229696D01*
X55484934Y-32307128D01*
X55397026Y-32363694D01*
X55298765Y-32398688D01*
X55191093Y-32410543D01*
X55109304Y-32404530D01*
X55036240Y-32387169D01*
X54967883Y-32358520D01*
X54904559Y-32318961D01*
X54845916Y-32269928D01*
X54787387Y-32209042D01*
X54787387Y-32230905D01*
X54782145Y-32286797D01*
X54767782Y-32330167D01*
X54745374Y-32363794D01*
X54697839Y-32398781D01*
X54638780Y-32410543D01*
X54578657Y-32399096D01*
X54531683Y-32365608D01*
X54509761Y-32333139D01*
X54495471Y-32289569D01*
X54490174Y-32231509D01*
X54490174Y-31780350D01*
X54804313Y-31780350D01*
X54815052Y-31903331D01*
X54844008Y-31996056D01*
X54891573Y-32072693D01*
X54949897Y-32123908D01*
X55019446Y-32155053D01*
X55096388Y-32165518D01*
X55172328Y-32154592D01*
X55242375Y-32121692D01*
X55300970Y-32068551D01*
X55347759Y-31991120D01*
X55375956Y-31898593D01*
X55386246Y-31780350D01*
X55376704Y-31667627D01*
X55349976Y-31574618D01*
X55305188Y-31494974D01*
X55247916Y-31438908D01*
X55178071Y-31403640D01*
X55098705Y-31391757D01*
X55021869Y-31403217D01*
X54951106Y-31437800D01*
X54891666Y-31492849D01*
X54844008Y-31571294D01*
X54814847Y-31664073D01*
X54804313Y-31780350D01*
X54490174Y-31780350D01*
X54490174Y-30874405D01*
X54500833Y-30793668D01*
X54528761Y-30740911D01*
X54557333Y-30716107D01*
X54593253Y-30700831D01*
X54638780Y-30695372D01*
X54684034Y-30701243D01*
G37*
G36*
X75410689Y-33473101D02*
G01*
X75445941Y-33489366D01*
X75474722Y-33516336D01*
X75494958Y-33551128D01*
X75508330Y-33597826D01*
X75513310Y-33659905D01*
X75513310Y-35003509D01*
X75508252Y-35060898D01*
X75494578Y-35104334D01*
X75473614Y-35137003D01*
X75444421Y-35162085D01*
X75409449Y-35177232D01*
X75366920Y-35182543D01*
X75306642Y-35170982D01*
X75258613Y-35136903D01*
X75236000Y-35103926D01*
X75221380Y-35060321D01*
X75215996Y-35002905D01*
X75215996Y-34981042D01*
X75139728Y-35062952D01*
X75064266Y-35120480D01*
X75016787Y-35145032D01*
X74956967Y-35165415D01*
X74892539Y-35178167D01*
X74822466Y-35182543D01*
X74709578Y-35170598D01*
X74608674Y-35135694D01*
X74518989Y-35079124D01*
X74443544Y-35002804D01*
X74384307Y-34910515D01*
X74339872Y-34800196D01*
X74313427Y-34679824D01*
X74304800Y-34552350D01*
X74619454Y-34552350D01*
X74629991Y-34673993D01*
X74658595Y-34767123D01*
X74702573Y-34838078D01*
X74763285Y-34894590D01*
X74828368Y-34926785D01*
X74900245Y-34937518D01*
X74985706Y-34926360D01*
X75057252Y-34894210D01*
X75118268Y-34840294D01*
X75162329Y-34770778D01*
X75190888Y-34679833D01*
X75201387Y-34561317D01*
X75191016Y-34442744D01*
X75162296Y-34347727D01*
X75114787Y-34267242D01*
X75055199Y-34210908D01*
X74982935Y-34175691D01*
X74900245Y-34163757D01*
X74820359Y-34175743D01*
X74752243Y-34210908D01*
X74697017Y-34266493D01*
X74654112Y-34344805D01*
X74628697Y-34436718D01*
X74619454Y-34552350D01*
X74304800Y-34552350D01*
X74304207Y-34543585D01*
X74311884Y-34418577D01*
X74333686Y-34310141D01*
X74368284Y-34215845D01*
X74417864Y-34129310D01*
X74477811Y-34059567D01*
X74548627Y-34004572D01*
X74628939Y-33964585D01*
X74718428Y-33940098D01*
X74819141Y-33931628D01*
X74907334Y-33937463D01*
X74981417Y-33953821D01*
X75043713Y-33979485D01*
X75130692Y-34035217D01*
X75215996Y-34111266D01*
X75215996Y-33647211D01*
X75226697Y-33567916D01*
X75255188Y-33514220D01*
X75284254Y-33488674D01*
X75320734Y-33472975D01*
X75366920Y-33467372D01*
X75410689Y-33473101D01*
G37*
G36*
X73794008Y-35218611D02*
G01*
X73766302Y-35151008D01*
X74144619Y-34197206D01*
X74172770Y-34118834D01*
X74179680Y-34076306D01*
X74174491Y-34037340D01*
X74158925Y-34001247D01*
X74134424Y-33970194D01*
X74102001Y-33945935D01*
X74064774Y-33930293D01*
X74026539Y-33925180D01*
X73983254Y-33930419D01*
X73949897Y-33944951D01*
X73924076Y-33968402D01*
X73893329Y-34017277D01*
X73863526Y-34091015D01*
X73606210Y-34840596D01*
X73362394Y-34144110D01*
X73309198Y-34009105D01*
X73282602Y-33965676D01*
X73257916Y-33942610D01*
X73227208Y-33930035D01*
X73181245Y-33925180D01*
X73146375Y-33929874D01*
X73112534Y-33944222D01*
X73083356Y-33966676D01*
X73061856Y-33995605D01*
X73048379Y-34028982D01*
X73043923Y-34064014D01*
X73058733Y-34125472D01*
X73083518Y-34205870D01*
X73484806Y-35256997D01*
X73539325Y-35387576D01*
X73586765Y-35475423D01*
X73644860Y-35545804D01*
X73719050Y-35597633D01*
X73775693Y-35620033D01*
X73848400Y-35634880D01*
X73940902Y-35640351D01*
X74068120Y-35631702D01*
X74145828Y-35610630D01*
X74184132Y-35585210D01*
X74206614Y-35549909D01*
X74214640Y-35501417D01*
X74205915Y-35452373D01*
X74181493Y-35417794D01*
X74142924Y-35396393D01*
X74084068Y-35388274D01*
X74034801Y-35395125D01*
X73984829Y-35401775D01*
X73935961Y-35397458D01*
X73903020Y-35386360D01*
X73875807Y-35366220D01*
X73849421Y-35332459D01*
X73794008Y-35218611D01*
G37*
G36*
X71908871Y-33674413D02*
G01*
X71908871Y-34879486D01*
X71233644Y-34879486D01*
X71158070Y-34890300D01*
X71106900Y-34919282D01*
X71073609Y-34964043D01*
X71062469Y-35019227D01*
X71073590Y-35075211D01*
X71106296Y-35118768D01*
X71157011Y-35146321D01*
X71233644Y-35156751D01*
X72041761Y-35156751D01*
X72113934Y-35150232D01*
X72165318Y-35133048D01*
X72201249Y-35107282D01*
X72226732Y-35071057D01*
X72243695Y-35019704D01*
X72250112Y-34948097D01*
X72250112Y-33673809D01*
X72244148Y-33606710D01*
X72228093Y-33556471D01*
X72203566Y-33519157D01*
X72169588Y-33490578D01*
X72129420Y-33473376D01*
X72081154Y-33467372D01*
X72032152Y-33473339D01*
X71991274Y-33490429D01*
X71956627Y-33518754D01*
X71931493Y-33555888D01*
X71915012Y-33606383D01*
X71908871Y-33674413D01*
G37*
G36*
X70456649Y-33936711D02*
G01*
X70575342Y-33969913D01*
X70648512Y-34004524D01*
X70712435Y-34047285D01*
X70768077Y-34098370D01*
X70836418Y-34189467D01*
X70887164Y-34299165D01*
X70917445Y-34419525D01*
X70927867Y-34552753D01*
X70916487Y-34696727D01*
X70884274Y-34819008D01*
X70832900Y-34923426D01*
X70762335Y-35012879D01*
X70674697Y-35084916D01*
X70570642Y-35137556D01*
X70446891Y-35170748D01*
X70299085Y-35182543D01*
X70173352Y-35173652D01*
X70068670Y-35148791D01*
X69974413Y-35109388D01*
X69902029Y-35063758D01*
X69842363Y-35009519D01*
X69802588Y-34956358D01*
X69776811Y-34900898D01*
X69769442Y-34857925D01*
X69777394Y-34814026D01*
X69799767Y-34782867D01*
X69833721Y-34763162D01*
X69878655Y-34756168D01*
X69920143Y-34761950D01*
X69948374Y-34777426D01*
X70041971Y-34863567D01*
X70120354Y-34922809D01*
X70163950Y-34946921D01*
X70208108Y-34963310D01*
X70254700Y-34972854D01*
X70308153Y-34976206D01*
X70386310Y-34966024D01*
X70456961Y-34935805D01*
X70516829Y-34886558D01*
X70565166Y-34815711D01*
X70595646Y-34731898D01*
X70606978Y-34634462D01*
X70008320Y-34634462D01*
X69894555Y-34624609D01*
X69819212Y-34599501D01*
X69783671Y-34569781D01*
X69760411Y-34521477D01*
X69752291Y-34453917D01*
X70055673Y-34453917D01*
X70606675Y-34453917D01*
X70588485Y-34355442D01*
X70558501Y-34280202D01*
X70518318Y-34223401D01*
X70465351Y-34179631D01*
X70404035Y-34153472D01*
X70331728Y-34144413D01*
X70255644Y-34153502D01*
X70192601Y-34179432D01*
X70139598Y-34222192D01*
X70099972Y-34278408D01*
X70071370Y-34353863D01*
X70055673Y-34453917D01*
X69752291Y-34453917D01*
X69751407Y-34446563D01*
X69758418Y-34364198D01*
X69779676Y-34282163D01*
X69816089Y-34199422D01*
X69865736Y-34124419D01*
X69930010Y-34058707D01*
X70010637Y-34001650D01*
X70100094Y-33960138D01*
X70202861Y-33934259D01*
X70321653Y-33925180D01*
X70456649Y-33936711D01*
G37*
G36*
X69091720Y-33936713D02*
G01*
X69210278Y-33970014D01*
X69316998Y-34024747D01*
X69405330Y-34097564D01*
X69475897Y-34187861D01*
X69528850Y-34296949D01*
X69560790Y-34417532D01*
X69571870Y-34553861D01*
X69560929Y-34689034D01*
X69529455Y-34808054D01*
X69476726Y-34915787D01*
X69404726Y-35007439D01*
X69315341Y-35081889D01*
X69210379Y-35137205D01*
X69093423Y-35170785D01*
X68957697Y-35182543D01*
X68820910Y-35170940D01*
X68702900Y-35137809D01*
X68597007Y-35082985D01*
X68507949Y-35009252D01*
X68436361Y-34917986D01*
X68383220Y-34808961D01*
X68351232Y-34688682D01*
X68340200Y-34554466D01*
X68655447Y-34554466D01*
X68665739Y-34676005D01*
X68693921Y-34771131D01*
X68737558Y-34845432D01*
X68782360Y-34891599D01*
X68833070Y-34923916D01*
X68890882Y-34943584D01*
X68957697Y-34950414D01*
X69017090Y-34944900D01*
X69069559Y-34928947D01*
X69116480Y-34902759D01*
X69175064Y-34845922D01*
X69220252Y-34765135D01*
X69246944Y-34670403D01*
X69256522Y-34554466D01*
X69246792Y-34437355D01*
X69219648Y-34341480D01*
X69190566Y-34283979D01*
X69155659Y-34238696D01*
X69114868Y-34203855D01*
X69042345Y-34169176D01*
X68957697Y-34157309D01*
X68870680Y-34169261D01*
X68798527Y-34203702D01*
X68737558Y-34261787D01*
X68694029Y-34335747D01*
X68665797Y-34431338D01*
X68655447Y-34554466D01*
X68340200Y-34554466D01*
X68351156Y-34419129D01*
X68382716Y-34299568D01*
X68435337Y-34191228D01*
X68506840Y-34099982D01*
X68596065Y-34026021D01*
X68702900Y-33970619D01*
X68821767Y-33936910D01*
X68957697Y-33925180D01*
X69091720Y-33936713D01*
G37*
G36*
X68026314Y-33940895D02*
G01*
X68071801Y-33973742D01*
X68092393Y-34005645D01*
X68105942Y-34048913D01*
X68110993Y-34107034D01*
X68110993Y-35432403D01*
X68102786Y-35526560D01*
X68082178Y-35586752D01*
X68058194Y-35615111D01*
X68020820Y-35633382D01*
X67964603Y-35640351D01*
X67911282Y-35632424D01*
X67871451Y-35610293D01*
X67841652Y-35573303D01*
X67821476Y-35516912D01*
X67813679Y-35433612D01*
X67813679Y-34979430D01*
X67732724Y-35066269D01*
X67647744Y-35129044D01*
X67585419Y-35157874D01*
X67511847Y-35176081D01*
X67424683Y-35182543D01*
X67317643Y-35171546D01*
X67218749Y-35139018D01*
X67129422Y-35086298D01*
X67052612Y-35014693D01*
X66990914Y-34926240D01*
X66942089Y-34814804D01*
X66912244Y-34691961D01*
X66901890Y-34553761D01*
X66902207Y-34548925D01*
X67217137Y-34548925D01*
X67227600Y-34668258D01*
X67256329Y-34762011D01*
X67303175Y-34840677D01*
X67360001Y-34893793D01*
X67427617Y-34926669D01*
X67500245Y-34937518D01*
X67580309Y-34926349D01*
X67650337Y-34893462D01*
X67713130Y-34836969D01*
X67758929Y-34765118D01*
X67788342Y-34672877D01*
X67799070Y-34554567D01*
X67788018Y-34428562D01*
X67758208Y-34333656D01*
X67712627Y-34262693D01*
X67649606Y-34207097D01*
X67579714Y-34174733D01*
X67500245Y-34163757D01*
X67424730Y-34175244D01*
X67356072Y-34209800D01*
X67299009Y-34264571D01*
X67254012Y-34342185D01*
X67226957Y-34433683D01*
X67217137Y-34548925D01*
X66902207Y-34548925D01*
X66910206Y-34426729D01*
X66933878Y-34316237D01*
X66971609Y-34219774D01*
X67024880Y-34131519D01*
X67088020Y-34060679D01*
X67161523Y-34005176D01*
X67244276Y-33964298D01*
X67331507Y-33939880D01*
X67424683Y-33931628D01*
X67502875Y-33937422D01*
X67573593Y-33954242D01*
X67638072Y-33981701D01*
X67727010Y-34042391D01*
X67813679Y-34131315D01*
X67813679Y-34103508D01*
X67818929Y-34049092D01*
X67833312Y-34007033D01*
X67855793Y-33974548D01*
X67903436Y-33940932D01*
X67964603Y-33929412D01*
X68026314Y-33940895D01*
G37*
G36*
X66254595Y-33936713D02*
G01*
X66373153Y-33970014D01*
X66479873Y-34024747D01*
X66568205Y-34097564D01*
X66638772Y-34187861D01*
X66691725Y-34296949D01*
X66723665Y-34417532D01*
X66734746Y-34553861D01*
X66723804Y-34689034D01*
X66692330Y-34808054D01*
X66639601Y-34915787D01*
X66567601Y-35007439D01*
X66478216Y-35081889D01*
X66373254Y-35137205D01*
X66256298Y-35170785D01*
X66120572Y-35182543D01*
X65983785Y-35170940D01*
X65865775Y-35137809D01*
X65759882Y-35082985D01*
X65670824Y-35009252D01*
X65599236Y-34917986D01*
X65546095Y-34808961D01*
X65514107Y-34688682D01*
X65503075Y-34554466D01*
X65818322Y-34554466D01*
X65828614Y-34676005D01*
X65856797Y-34771131D01*
X65900433Y-34845432D01*
X65945236Y-34891599D01*
X65995945Y-34923916D01*
X66053757Y-34943584D01*
X66120572Y-34950414D01*
X66179965Y-34944900D01*
X66232434Y-34928947D01*
X66279355Y-34902759D01*
X66337939Y-34845922D01*
X66383127Y-34765135D01*
X66409819Y-34670403D01*
X66419397Y-34554466D01*
X66409667Y-34437355D01*
X66382523Y-34341480D01*
X66353442Y-34283979D01*
X66318534Y-34238696D01*
X66277743Y-34203855D01*
X66205220Y-34169176D01*
X66120572Y-34157309D01*
X66033555Y-34169261D01*
X65961402Y-34203702D01*
X65900433Y-34261787D01*
X65856904Y-34335747D01*
X65828672Y-34431338D01*
X65818322Y-34554466D01*
X65503075Y-34554466D01*
X65514031Y-34419129D01*
X65545591Y-34299568D01*
X65598212Y-34191228D01*
X65669715Y-34099982D01*
X65758941Y-34026021D01*
X65865775Y-33970619D01*
X65984642Y-33936910D01*
X66120572Y-33925180D01*
X66254595Y-33936713D01*
G37*
G36*
X65267118Y-34992225D02*
G01*
X65267118Y-33657689D01*
X65261758Y-33596600D01*
X65247279Y-33550416D01*
X65225105Y-33515732D01*
X65194245Y-33489125D01*
X65157075Y-33473027D01*
X65111660Y-33467372D01*
X65066219Y-33472937D01*
X65028465Y-33488856D01*
X64996604Y-33515228D01*
X64973525Y-33549702D01*
X64958464Y-33595989D01*
X64952878Y-33657689D01*
X64952878Y-34992225D01*
X64958532Y-35053941D01*
X64973790Y-35100261D01*
X64997208Y-35134787D01*
X65029403Y-35161183D01*
X65066998Y-35177032D01*
X65111660Y-35182543D01*
X65155555Y-35176867D01*
X65192433Y-35160504D01*
X65223997Y-35133074D01*
X65246929Y-35097656D01*
X65261707Y-35051706D01*
X65267118Y-34992225D01*
G37*
G36*
X63695129Y-33473243D02*
G01*
X63731092Y-33489816D01*
X63759996Y-33517142D01*
X63780148Y-33552385D01*
X63793502Y-33599827D01*
X63798482Y-33663028D01*
X63798482Y-34110964D01*
X63884397Y-34032071D01*
X63972075Y-33977167D01*
X64034938Y-33952752D01*
X64109401Y-33937179D01*
X64197655Y-33931628D01*
X64310406Y-33942254D01*
X64408393Y-33972806D01*
X64494541Y-34022698D01*
X64570833Y-34093232D01*
X64630225Y-34177260D01*
X64674368Y-34277997D01*
X64702524Y-34398734D01*
X64712589Y-34543585D01*
X64703438Y-34676897D01*
X64676923Y-34797375D01*
X64632266Y-34908315D01*
X64572143Y-35001696D01*
X64496030Y-35079128D01*
X64408122Y-35135694D01*
X64309860Y-35170688D01*
X64202188Y-35182543D01*
X64120399Y-35176530D01*
X64047335Y-35159169D01*
X63978979Y-35130520D01*
X63915655Y-35090961D01*
X63857012Y-35041928D01*
X63798482Y-34981042D01*
X63798482Y-35002905D01*
X63793241Y-35058797D01*
X63778878Y-35102167D01*
X63756470Y-35135794D01*
X63708935Y-35170781D01*
X63649876Y-35182543D01*
X63589753Y-35171096D01*
X63542779Y-35137608D01*
X63520857Y-35105139D01*
X63506566Y-35061569D01*
X63501269Y-35003509D01*
X63501269Y-34552350D01*
X63815408Y-34552350D01*
X63826147Y-34675331D01*
X63855104Y-34768056D01*
X63902669Y-34844693D01*
X63960992Y-34895908D01*
X64030541Y-34927053D01*
X64107483Y-34937518D01*
X64183423Y-34926592D01*
X64253470Y-34893692D01*
X64312065Y-34840551D01*
X64358855Y-34763120D01*
X64387051Y-34670593D01*
X64397341Y-34552350D01*
X64387799Y-34439627D01*
X64361071Y-34346618D01*
X64316283Y-34266974D01*
X64259011Y-34210908D01*
X64189166Y-34175640D01*
X64109800Y-34163757D01*
X64032965Y-34175217D01*
X63962201Y-34209800D01*
X63902762Y-34264849D01*
X63855104Y-34343294D01*
X63825943Y-34436073D01*
X63815408Y-34552350D01*
X63501269Y-34552350D01*
X63501269Y-33646405D01*
X63511928Y-33565668D01*
X63539857Y-33512911D01*
X63568428Y-33488107D01*
X63604348Y-33472831D01*
X63649876Y-33467372D01*
X63695129Y-33473243D01*
G37*
G36*
X62792013Y-33936713D02*
G01*
X62910571Y-33970014D01*
X63017291Y-34024747D01*
X63105624Y-34097564D01*
X63176190Y-34187861D01*
X63229143Y-34296949D01*
X63261083Y-34417532D01*
X63272164Y-34553861D01*
X63261222Y-34689034D01*
X63229748Y-34808054D01*
X63177019Y-34915787D01*
X63105019Y-35007439D01*
X63015634Y-35081889D01*
X62910672Y-35137205D01*
X62793716Y-35170785D01*
X62657990Y-35182543D01*
X62521203Y-35170940D01*
X62403193Y-35137809D01*
X62297300Y-35082985D01*
X62208242Y-35009252D01*
X62136654Y-34917986D01*
X62083513Y-34808961D01*
X62051525Y-34688682D01*
X62040493Y-34554466D01*
X62355740Y-34554466D01*
X62366032Y-34676005D01*
X62394215Y-34771131D01*
X62437851Y-34845432D01*
X62482654Y-34891599D01*
X62533363Y-34923916D01*
X62591175Y-34943584D01*
X62657990Y-34950414D01*
X62717383Y-34944900D01*
X62769852Y-34928947D01*
X62816773Y-34902759D01*
X62875357Y-34845922D01*
X62920545Y-34765135D01*
X62947237Y-34670403D01*
X62956815Y-34554466D01*
X62947085Y-34437355D01*
X62919941Y-34341480D01*
X62890860Y-34283979D01*
X62855952Y-34238696D01*
X62815161Y-34203855D01*
X62742638Y-34169176D01*
X62657990Y-34157309D01*
X62570973Y-34169261D01*
X62498820Y-34203702D01*
X62437851Y-34261787D01*
X62394322Y-34335747D01*
X62366090Y-34431338D01*
X62355740Y-34554466D01*
X62040493Y-34554466D01*
X62051449Y-34419129D01*
X62083009Y-34299568D01*
X62135630Y-34191228D01*
X62207133Y-34099982D01*
X62296359Y-34026021D01*
X62403193Y-33970619D01*
X62522060Y-33936910D01*
X62657990Y-33925180D01*
X62792013Y-33936713D01*
G37*
G36*
X60647924Y-34903162D02*
G01*
X60909673Y-33851028D01*
X60906449Y-34990210D01*
X60911984Y-35052652D01*
X60926892Y-35099464D01*
X60949671Y-35134283D01*
X60981194Y-35160874D01*
X61018731Y-35176924D01*
X61064123Y-35182543D01*
X61108036Y-35177059D01*
X61145069Y-35161261D01*
X61176862Y-35134888D01*
X61199855Y-35100438D01*
X61214957Y-35053569D01*
X61220588Y-34990412D01*
X61220588Y-33686100D01*
X61212949Y-33615619D01*
X61193112Y-33568538D01*
X61163160Y-33538098D01*
X61099170Y-33510088D01*
X61008912Y-33499612D01*
X60905139Y-33499612D01*
X60817537Y-33504754D01*
X60767917Y-33516840D01*
X60730582Y-33540607D01*
X60704142Y-33578499D01*
X60657495Y-33722169D01*
X60420531Y-34612297D01*
X60183566Y-33722169D01*
X60137020Y-33578499D01*
X60110518Y-33540596D01*
X60073245Y-33516840D01*
X60023525Y-33504752D01*
X59935822Y-33499612D01*
X59832150Y-33499612D01*
X59741817Y-33510095D01*
X59677901Y-33538098D01*
X59647891Y-33568547D01*
X59628022Y-33615631D01*
X59620373Y-33686100D01*
X59620373Y-34990412D01*
X59625911Y-35052853D01*
X59640820Y-35099626D01*
X59663595Y-35134384D01*
X59695137Y-35160856D01*
X59733016Y-35176904D01*
X59779155Y-35182543D01*
X59822288Y-35177031D01*
X59858974Y-35161079D01*
X59890786Y-35134283D01*
X59913850Y-35099422D01*
X59928920Y-35052608D01*
X59934512Y-34990210D01*
X59931288Y-33851028D01*
X60193037Y-34903162D01*
X60235453Y-35054086D01*
X60258423Y-35099392D01*
X60296809Y-35142444D01*
X60347898Y-35171794D01*
X60420430Y-35182543D01*
X60476709Y-35175765D01*
X60521382Y-35156751D01*
X60558305Y-35127201D01*
X60585559Y-35091061D01*
X60621426Y-35003006D01*
X60647924Y-34903162D01*
G37*
G36*
X58890529Y-33936711D02*
G01*
X59009222Y-33969913D01*
X59082392Y-34004524D01*
X59146315Y-34047285D01*
X59201957Y-34098370D01*
X59270298Y-34189467D01*
X59321044Y-34299165D01*
X59351325Y-34419525D01*
X59361747Y-34552753D01*
X59350367Y-34696727D01*
X59318154Y-34819008D01*
X59266780Y-34923426D01*
X59196214Y-35012879D01*
X59108577Y-35084916D01*
X59004522Y-35137556D01*
X58880771Y-35170748D01*
X58732965Y-35182543D01*
X58607232Y-35173652D01*
X58502550Y-35148791D01*
X58408293Y-35109388D01*
X58335909Y-35063758D01*
X58276243Y-35009519D01*
X58236468Y-34956358D01*
X58210691Y-34900898D01*
X58203322Y-34857925D01*
X58211274Y-34814026D01*
X58233647Y-34782867D01*
X58267601Y-34763162D01*
X58312535Y-34756168D01*
X58354023Y-34761950D01*
X58382254Y-34777426D01*
X58475851Y-34863567D01*
X58554234Y-34922809D01*
X58597830Y-34946921D01*
X58641988Y-34963310D01*
X58688580Y-34972854D01*
X58742033Y-34976206D01*
X58820190Y-34966024D01*
X58890841Y-34935805D01*
X58950709Y-34886558D01*
X58999046Y-34815711D01*
X59029526Y-34731898D01*
X59040858Y-34634462D01*
X58442200Y-34634462D01*
X58328435Y-34624609D01*
X58253092Y-34599501D01*
X58217551Y-34569781D01*
X58194291Y-34521477D01*
X58186171Y-34453917D01*
X58489553Y-34453917D01*
X59040555Y-34453917D01*
X59022365Y-34355442D01*
X58992381Y-34280202D01*
X58952198Y-34223401D01*
X58899231Y-34179631D01*
X58837915Y-34153472D01*
X58765608Y-34144413D01*
X58689524Y-34153502D01*
X58626480Y-34179432D01*
X58573478Y-34222192D01*
X58533852Y-34278408D01*
X58505250Y-34353863D01*
X58489553Y-34453917D01*
X58186171Y-34453917D01*
X58185287Y-34446563D01*
X58192298Y-34364198D01*
X58213556Y-34282163D01*
X58249969Y-34199422D01*
X58299616Y-34124419D01*
X58363890Y-34058707D01*
X58444517Y-34001650D01*
X58533974Y-33960138D01*
X58636740Y-33934259D01*
X58755533Y-33925180D01*
X58890529Y-33936711D01*
G37*
G36*
X57646475Y-34099176D02*
G01*
X57646475Y-34126882D01*
X57592237Y-34064125D01*
X57534742Y-34014218D01*
X57473689Y-33975858D01*
X57407292Y-33948181D01*
X57333439Y-33931101D01*
X57250729Y-33925180D01*
X57170461Y-33931369D01*
X57097857Y-33949353D01*
X57031597Y-33978779D01*
X56972314Y-34019704D01*
X56924540Y-34069925D01*
X56887222Y-34130408D01*
X56861975Y-34189268D01*
X56847426Y-34253021D01*
X56838358Y-34420267D01*
X56838358Y-34992326D01*
X56843851Y-35053311D01*
X56858720Y-35099500D01*
X56881580Y-35134283D01*
X56913049Y-35160997D01*
X56949866Y-35176988D01*
X56993715Y-35182543D01*
X57038308Y-35176862D01*
X57075715Y-35160510D01*
X57107663Y-35133175D01*
X57130944Y-35097710D01*
X57145914Y-35051789D01*
X57151389Y-34992427D01*
X57151389Y-34480012D01*
X57156934Y-34379183D01*
X57171593Y-34304185D01*
X57192999Y-34249495D01*
X57227677Y-34207204D01*
X57280595Y-34180344D01*
X57358934Y-34170205D01*
X57436481Y-34182252D01*
X57507037Y-34218565D01*
X57564305Y-34275256D01*
X57604966Y-34351656D01*
X57620308Y-34434604D01*
X57627333Y-34607259D01*
X57627333Y-34992427D01*
X57632985Y-35054074D01*
X57648241Y-35100363D01*
X57671663Y-35134888D01*
X57703791Y-35161215D01*
X57741381Y-35177037D01*
X57786115Y-35182543D01*
X57829162Y-35176917D01*
X57865845Y-35160597D01*
X57897746Y-35133074D01*
X57921023Y-35097608D01*
X57935995Y-35051656D01*
X57941472Y-34992225D01*
X57941472Y-34103105D01*
X57936417Y-34044844D01*
X57922865Y-34001517D01*
X57902280Y-33969611D01*
X57856784Y-33936686D01*
X57795082Y-33925180D01*
X57755295Y-33930201D01*
X57720224Y-33944927D01*
X57690528Y-33968992D01*
X57666625Y-34003766D01*
X57651830Y-34045738D01*
X57646475Y-34099176D01*
G37*
G36*
X55591591Y-33473243D02*
G01*
X55627554Y-33489816D01*
X55656458Y-33517142D01*
X55676610Y-33552385D01*
X55689964Y-33599827D01*
X55694944Y-33663028D01*
X55694944Y-34110964D01*
X55780859Y-34032071D01*
X55868537Y-33977167D01*
X55931400Y-33952752D01*
X56005863Y-33937179D01*
X56094117Y-33931628D01*
X56206868Y-33942254D01*
X56304855Y-33972806D01*
X56391002Y-34022698D01*
X56467295Y-34093232D01*
X56526687Y-34177260D01*
X56570830Y-34277997D01*
X56598986Y-34398734D01*
X56609051Y-34543585D01*
X56599900Y-34676897D01*
X56573385Y-34797375D01*
X56528728Y-34908315D01*
X56468605Y-35001696D01*
X56392492Y-35079128D01*
X56304584Y-35135694D01*
X56206322Y-35170688D01*
X56098650Y-35182543D01*
X56016861Y-35176530D01*
X55943797Y-35159169D01*
X55875441Y-35130520D01*
X55812117Y-35090961D01*
X55753474Y-35041928D01*
X55694944Y-34981042D01*
X55694944Y-35002905D01*
X55689703Y-35058797D01*
X55675340Y-35102167D01*
X55652932Y-35135794D01*
X55605397Y-35170781D01*
X55546338Y-35182543D01*
X55486215Y-35171096D01*
X55439240Y-35137608D01*
X55417319Y-35105139D01*
X55403028Y-35061569D01*
X55397731Y-35003509D01*
X55397731Y-34552350D01*
X55711870Y-34552350D01*
X55722609Y-34675331D01*
X55751566Y-34768056D01*
X55799131Y-34844693D01*
X55857454Y-34895908D01*
X55927003Y-34927053D01*
X56003945Y-34937518D01*
X56079885Y-34926592D01*
X56149932Y-34893692D01*
X56208527Y-34840551D01*
X56255317Y-34763120D01*
X56283513Y-34670593D01*
X56293803Y-34552350D01*
X56284261Y-34439627D01*
X56257533Y-34346618D01*
X56212745Y-34266974D01*
X56155473Y-34210908D01*
X56085628Y-34175640D01*
X56006262Y-34163757D01*
X55929427Y-34175217D01*
X55858663Y-34209800D01*
X55799224Y-34264849D01*
X55751566Y-34343294D01*
X55722405Y-34436073D01*
X55711870Y-34552350D01*
X55397731Y-34552350D01*
X55397731Y-33646405D01*
X55408390Y-33565668D01*
X55436319Y-33512911D01*
X55464890Y-33488107D01*
X55500810Y-33472831D01*
X55546338Y-33467372D01*
X55591591Y-33473243D01*
G37*
G36*
X54688475Y-33936713D02*
G01*
X54807033Y-33970014D01*
X54913753Y-34024747D01*
X55002085Y-34097564D01*
X55072652Y-34187861D01*
X55125605Y-34296949D01*
X55157545Y-34417532D01*
X55168626Y-34553861D01*
X55157684Y-34689034D01*
X55126210Y-34808054D01*
X55073481Y-34915787D01*
X55001481Y-35007439D01*
X54912096Y-35081889D01*
X54807134Y-35137205D01*
X54690178Y-35170785D01*
X54554452Y-35182543D01*
X54417665Y-35170940D01*
X54299655Y-35137809D01*
X54193762Y-35082985D01*
X54104704Y-35009252D01*
X54033116Y-34917986D01*
X53979975Y-34808961D01*
X53947987Y-34688682D01*
X53936955Y-34554466D01*
X54252202Y-34554466D01*
X54262494Y-34676005D01*
X54290677Y-34771131D01*
X54334313Y-34845432D01*
X54379116Y-34891599D01*
X54429825Y-34923916D01*
X54487637Y-34943584D01*
X54554452Y-34950414D01*
X54613845Y-34944900D01*
X54666314Y-34928947D01*
X54713235Y-34902759D01*
X54771819Y-34845922D01*
X54817007Y-34765135D01*
X54843699Y-34670403D01*
X54853277Y-34554466D01*
X54843547Y-34437355D01*
X54816403Y-34341480D01*
X54787321Y-34283979D01*
X54752414Y-34238696D01*
X54711623Y-34203855D01*
X54639100Y-34169176D01*
X54554452Y-34157309D01*
X54467435Y-34169261D01*
X54395282Y-34203702D01*
X54334313Y-34261787D01*
X54290784Y-34335747D01*
X54262552Y-34431338D01*
X54252202Y-34554466D01*
X53936955Y-34554466D01*
X53947911Y-34419129D01*
X53979471Y-34299568D01*
X54032092Y-34191228D01*
X54103595Y-34099982D01*
X54192820Y-34026021D01*
X54299655Y-33970619D01*
X54418522Y-33936910D01*
X54554452Y-33925180D01*
X54688475Y-33936713D01*
G37*
G36*
X52858928Y-34285967D02*
G01*
X53417789Y-34911726D01*
X52821952Y-34911726D01*
X52753807Y-34921353D01*
X52709213Y-34946787D01*
X52680732Y-34986515D01*
X52671029Y-35037059D01*
X52680569Y-35085366D01*
X52708709Y-35123402D01*
X52752766Y-35147484D01*
X52821952Y-35156751D01*
X53656063Y-35156751D01*
X53714333Y-35151709D01*
X53757699Y-35138192D01*
X53789658Y-35117659D01*
X53822506Y-35072365D01*
X53833988Y-35010864D01*
X53826746Y-34971661D01*
X53803259Y-34930163D01*
X53676515Y-34782967D01*
X53492243Y-34578646D01*
X53338297Y-34407572D01*
X53220621Y-34272668D01*
X53149391Y-34183101D01*
X53600751Y-34183101D01*
X53690197Y-34178127D01*
X53745832Y-34165973D01*
X53772382Y-34149448D01*
X53789147Y-34120955D01*
X53795602Y-34075298D01*
X53785994Y-34026455D01*
X53758022Y-33989459D01*
X53714846Y-33966138D01*
X53651529Y-33957420D01*
X52944868Y-33957420D01*
X52852425Y-33965691D01*
X52792332Y-33986638D01*
X52763236Y-34010380D01*
X52745312Y-34044112D01*
X52738733Y-34091418D01*
X52749110Y-34143405D01*
X52771980Y-34187232D01*
X52805933Y-34228338D01*
X52858928Y-34285967D01*
G37*
G36*
X52087375Y-33931396D02*
G01*
X52187856Y-33948651D01*
X52271050Y-33975253D01*
X52349275Y-34013932D01*
X52408355Y-34056597D01*
X52451595Y-34103004D01*
X52484625Y-34156971D01*
X52503475Y-34210022D01*
X52509627Y-34263298D01*
X52499875Y-34312116D01*
X52470939Y-34351051D01*
X52428724Y-34376687D01*
X52379055Y-34385306D01*
X52326487Y-34378704D01*
X52302082Y-34363544D01*
X52241934Y-34275791D01*
X52194755Y-34217175D01*
X52141385Y-34177157D01*
X52074821Y-34153848D01*
X51966583Y-34144413D01*
X51878363Y-34152395D01*
X51822634Y-34172410D01*
X51789263Y-34201034D01*
X51766817Y-34241152D01*
X51750116Y-34298193D01*
X51741105Y-34377347D01*
X51918324Y-34425103D01*
X52117205Y-34469030D01*
X52262587Y-34499759D01*
X52352483Y-34527708D01*
X52425398Y-34567676D01*
X52484137Y-34619349D01*
X52528905Y-34682703D01*
X52555718Y-34753782D01*
X52564939Y-34834954D01*
X52552730Y-34925253D01*
X52516075Y-35008849D01*
X52479277Y-35058061D01*
X52433204Y-35100246D01*
X52376737Y-35135794D01*
X52314897Y-35161260D01*
X52245508Y-35177049D01*
X52167177Y-35182543D01*
X52041262Y-35171384D01*
X51932228Y-35139421D01*
X51829046Y-35087564D01*
X51718335Y-35012073D01*
X51666456Y-35087210D01*
X51621313Y-35137809D01*
X51572219Y-35172182D01*
X51525801Y-35182543D01*
X51471562Y-35172830D01*
X51422734Y-35143250D01*
X51387929Y-35100340D01*
X51377195Y-35055497D01*
X51382342Y-35020647D01*
X51406009Y-34934999D01*
X51427779Y-34842277D01*
X51434723Y-34756369D01*
X51433237Y-34610282D01*
X51741004Y-34610282D01*
X51746797Y-34715737D01*
X51761587Y-34788221D01*
X51782311Y-34836163D01*
X51826775Y-34891002D01*
X51894346Y-34937014D01*
X51973703Y-34966281D01*
X52061188Y-34976206D01*
X52115710Y-34970530D01*
X52160521Y-34954516D01*
X52197704Y-34928652D01*
X52226836Y-34894172D01*
X52243831Y-34856183D01*
X52249591Y-34813293D01*
X52238144Y-34754146D01*
X52205361Y-34711233D01*
X52159184Y-34680179D01*
X52111966Y-34661866D01*
X51933638Y-34621767D01*
X51813076Y-34593454D01*
X51741004Y-34571392D01*
X51741004Y-34610282D01*
X51433237Y-34610282D01*
X51433011Y-34588117D01*
X51432406Y-34403945D01*
X51438585Y-34289344D01*
X51455398Y-34198363D01*
X51480766Y-34126781D01*
X51520082Y-34063751D01*
X51574379Y-34013005D01*
X51646097Y-33973540D01*
X51725744Y-33948480D01*
X51830597Y-33931512D01*
X51966483Y-33925180D01*
X52087375Y-33931396D01*
G37*
D11*
%TO.C,G\u002A\u002A\u002A*%
G36*
X41628407Y-24224139D02*
G01*
X41672633Y-24231461D01*
X41706255Y-24251930D01*
X41730724Y-24292134D01*
X41747491Y-24358664D01*
X41758007Y-24458109D01*
X41763722Y-24597060D01*
X41766087Y-24782106D01*
X41766553Y-25019837D01*
X41766543Y-25112546D01*
X41766173Y-25313892D01*
X41764688Y-25467895D01*
X41761311Y-25583154D01*
X41755263Y-25668267D01*
X41745767Y-25731832D01*
X41732046Y-25782447D01*
X41713321Y-25828710D01*
X41688815Y-25879220D01*
X41658016Y-25935243D01*
X41543366Y-26074005D01*
X41397297Y-26162767D01*
X41217770Y-26202931D01*
X41166273Y-26206439D01*
X40966251Y-26200501D01*
X40796270Y-26157256D01*
X40640694Y-26073190D01*
X40491144Y-25970318D01*
X40510120Y-26097103D01*
X40512923Y-26114967D01*
X40559798Y-26291070D01*
X40637666Y-26420212D01*
X40751735Y-26508488D01*
X40907213Y-26561997D01*
X40990371Y-26576078D01*
X41108861Y-26578442D01*
X41237173Y-26555945D01*
X41396075Y-26506218D01*
X41460985Y-26487293D01*
X41577609Y-26480088D01*
X41660057Y-26515527D01*
X41703321Y-26590416D01*
X41702395Y-26701562D01*
X41675346Y-26746316D01*
X41604519Y-26803389D01*
X41507411Y-26855487D01*
X41400810Y-26892007D01*
X41320139Y-26906014D01*
X41163083Y-26916707D01*
X40991452Y-26913940D01*
X40829502Y-26898443D01*
X40701491Y-26870948D01*
X40640626Y-26847737D01*
X40473207Y-26748308D01*
X40326980Y-26611462D01*
X40220436Y-26453252D01*
X40205786Y-26422682D01*
X40189838Y-26383696D01*
X40177207Y-26339802D01*
X40167422Y-26284205D01*
X40160010Y-26210108D01*
X40154498Y-26110716D01*
X40150417Y-25979234D01*
X40147292Y-25808864D01*
X40144653Y-25592811D01*
X40142027Y-25324279D01*
X40141913Y-25312136D01*
X40139648Y-25044218D01*
X40138531Y-24829100D01*
X40138810Y-24660567D01*
X40140732Y-24532401D01*
X40144545Y-24438387D01*
X40150498Y-24372309D01*
X40158837Y-24327951D01*
X40169812Y-24299097D01*
X40183668Y-24279530D01*
X40229592Y-24247535D01*
X40312926Y-24225566D01*
X40397212Y-24229224D01*
X40456213Y-24260353D01*
X40466779Y-24301408D01*
X40476621Y-24394937D01*
X40485207Y-24533836D01*
X40492107Y-24711121D01*
X40496890Y-24919805D01*
X40496911Y-24921083D01*
X40501690Y-25152880D01*
X40509029Y-25333579D01*
X40521035Y-25471318D01*
X40539811Y-25574234D01*
X40567465Y-25650464D01*
X40606102Y-25708146D01*
X40657826Y-25755418D01*
X40724744Y-25800415D01*
X40811811Y-25837768D01*
X40952195Y-25860636D01*
X41097911Y-25853066D01*
X41222675Y-25814326D01*
X41253787Y-25796593D01*
X41304827Y-25754895D01*
X41343735Y-25698009D01*
X41372072Y-25618597D01*
X41391396Y-25509323D01*
X41403268Y-25362848D01*
X41409248Y-25171835D01*
X41410894Y-24928949D01*
X41411516Y-24735054D01*
X41414840Y-24557587D01*
X41422653Y-24426489D01*
X41436730Y-24334811D01*
X41458848Y-24275603D01*
X41490782Y-24241916D01*
X41534307Y-24226800D01*
X41591200Y-24223306D01*
X41628407Y-24224139D01*
G37*
G36*
X75710547Y-25290250D02*
G01*
X75682173Y-25576010D01*
X75602339Y-25851632D01*
X75471046Y-26107474D01*
X75400184Y-26208528D01*
X75207051Y-26419527D01*
X74988672Y-26583106D01*
X74751298Y-26700032D01*
X74501182Y-26771070D01*
X74244575Y-26796986D01*
X73987730Y-26778547D01*
X73736899Y-26716517D01*
X73498334Y-26611662D01*
X73278288Y-26464749D01*
X73083012Y-26276543D01*
X72918760Y-26047810D01*
X72791783Y-25779315D01*
X72783954Y-25756873D01*
X72743020Y-25578153D01*
X72723336Y-25368767D01*
X72724004Y-25275464D01*
X73079389Y-25275464D01*
X73080634Y-25416719D01*
X73086468Y-25527964D01*
X73099625Y-25612737D01*
X73122833Y-25688061D01*
X73158821Y-25770959D01*
X73179346Y-25812364D01*
X73319558Y-26021371D01*
X73501717Y-26200129D01*
X73712719Y-26335291D01*
X73735088Y-26346207D01*
X73837202Y-26391010D01*
X73929181Y-26417963D01*
X74034148Y-26432256D01*
X74175224Y-26439076D01*
X74230248Y-26440271D01*
X74376565Y-26437004D01*
X74491925Y-26420989D01*
X74597347Y-26389771D01*
X74822416Y-26278133D01*
X75017775Y-26121989D01*
X75174400Y-25930999D01*
X75288214Y-25713009D01*
X75355143Y-25475865D01*
X75371108Y-25227413D01*
X75332036Y-24975501D01*
X75323665Y-24946599D01*
X75257265Y-24779620D01*
X75165284Y-24613943D01*
X75059540Y-24468617D01*
X74951849Y-24362691D01*
X74853785Y-24287894D01*
X74666850Y-24700469D01*
X74591833Y-24869661D01*
X74539871Y-24996888D01*
X74508904Y-25089008D01*
X74495945Y-25154916D01*
X74498008Y-25203507D01*
X74502298Y-25257848D01*
X74483145Y-25365360D01*
X74436956Y-25462459D01*
X74373111Y-25525004D01*
X74316597Y-25548949D01*
X74201895Y-25561850D01*
X74097530Y-25532692D01*
X74011362Y-25470886D01*
X73951251Y-25385842D01*
X73925058Y-25286969D01*
X73940644Y-25183679D01*
X74005870Y-25085380D01*
X74019414Y-25072142D01*
X74080437Y-25019102D01*
X74123632Y-24991336D01*
X74133813Y-24981589D01*
X74168643Y-24926781D01*
X74219594Y-24832504D01*
X74281565Y-24708409D01*
X74349455Y-24564146D01*
X74386806Y-24482640D01*
X74453032Y-24334281D01*
X74491483Y-24229831D01*
X74499110Y-24161967D01*
X74472866Y-24123366D01*
X74409705Y-24106704D01*
X74306578Y-24104658D01*
X74160438Y-24109905D01*
X74040340Y-24116876D01*
X73927420Y-24133318D01*
X73826802Y-24164212D01*
X73712752Y-24215638D01*
X73671702Y-24236983D01*
X73465068Y-24381314D01*
X73289744Y-24566755D01*
X73158821Y-24779970D01*
X73125053Y-24857128D01*
X73100982Y-24932430D01*
X73087166Y-25015905D01*
X73080878Y-25124576D01*
X73079389Y-25275464D01*
X72724004Y-25275464D01*
X72724901Y-25150214D01*
X72747717Y-24943996D01*
X72791783Y-24771614D01*
X72904664Y-24528787D01*
X73069943Y-24291514D01*
X73271128Y-24092464D01*
X73501941Y-23935814D01*
X73756105Y-23825740D01*
X74027343Y-23766418D01*
X74309377Y-23762024D01*
X74315401Y-23762540D01*
X74436909Y-23772808D01*
X74544809Y-23781690D01*
X74616378Y-23787316D01*
X74618302Y-23787454D01*
X74643354Y-23787455D01*
X74666474Y-23779787D01*
X74690971Y-23758664D01*
X74720154Y-23718301D01*
X74757332Y-23652911D01*
X74805816Y-23556709D01*
X74868914Y-23423908D01*
X74949936Y-23248722D01*
X75052191Y-23025365D01*
X75066454Y-22994204D01*
X75158261Y-22795790D01*
X75243705Y-22614680D01*
X75319199Y-22458225D01*
X75381152Y-22333778D01*
X75425976Y-22248689D01*
X75450082Y-22210313D01*
X75468671Y-22196820D01*
X75509977Y-22182461D01*
X75577434Y-22171825D01*
X75679322Y-22164092D01*
X75823924Y-22158446D01*
X76019519Y-22154068D01*
X76161859Y-22152174D01*
X76323636Y-22151722D01*
X76459542Y-22153223D01*
X76558450Y-22156536D01*
X76609229Y-22161522D01*
X76631893Y-22168336D01*
X76715939Y-22220605D01*
X76761640Y-22295799D01*
X76763488Y-22378801D01*
X76715975Y-22454491D01*
X76698160Y-22467168D01*
X76657205Y-22482452D01*
X76591924Y-22493581D01*
X76493579Y-22501446D01*
X76353434Y-22506939D01*
X76162753Y-22510952D01*
X75662910Y-22519105D01*
X75460128Y-22961969D01*
X75412446Y-23068084D01*
X75353969Y-23204788D01*
X75309941Y-23315950D01*
X75284004Y-23392229D01*
X75279803Y-23424282D01*
X75282953Y-23426364D01*
X75326671Y-23449124D01*
X75414416Y-23492214D01*
X75538684Y-23552111D01*
X75691972Y-23625291D01*
X75866777Y-23708227D01*
X76055594Y-23797397D01*
X76250921Y-23889276D01*
X76445255Y-23980339D01*
X76631091Y-24067062D01*
X76800926Y-24145921D01*
X76947258Y-24213390D01*
X77062582Y-24265946D01*
X77139395Y-24300064D01*
X77170194Y-24312220D01*
X77170900Y-24312145D01*
X77202337Y-24290698D01*
X77262414Y-24238499D01*
X77338775Y-24166246D01*
X77504819Y-24027763D01*
X77750174Y-23886459D01*
X78016920Y-23794730D01*
X78212934Y-23761196D01*
X78492856Y-23757553D01*
X78757687Y-23804222D01*
X79003497Y-23896222D01*
X79226356Y-24028574D01*
X79422334Y-24196295D01*
X79587502Y-24394406D01*
X79717929Y-24617925D01*
X79809686Y-24861872D01*
X79858842Y-25121266D01*
X79861469Y-25391127D01*
X79853231Y-25438545D01*
X79813635Y-25666474D01*
X79711411Y-25942325D01*
X79614121Y-26114350D01*
X79435998Y-26336265D01*
X79220448Y-26523014D01*
X78976997Y-26666783D01*
X78715169Y-26759755D01*
X78536559Y-26789496D01*
X78275094Y-26793757D01*
X78016920Y-26756199D01*
X77917116Y-26728827D01*
X77654904Y-26617120D01*
X77420753Y-26458163D01*
X77220107Y-26258069D01*
X77058410Y-26022953D01*
X76941105Y-25758929D01*
X76873638Y-25472112D01*
X76867632Y-25394430D01*
X76886092Y-25286434D01*
X76943323Y-25222450D01*
X77040009Y-25201369D01*
X77073021Y-25204494D01*
X77144664Y-25244620D01*
X77194392Y-25333997D01*
X77224756Y-25476419D01*
X77260591Y-25636273D01*
X77353931Y-25847054D01*
X77490875Y-26041622D01*
X77662538Y-26207980D01*
X77860030Y-26334126D01*
X77875040Y-26341486D01*
X77965354Y-26383166D01*
X78041614Y-26409483D01*
X78122149Y-26423927D01*
X78225288Y-26429992D01*
X78369359Y-26431168D01*
X78507847Y-26429816D01*
X78614381Y-26423630D01*
X78696362Y-26409435D01*
X78771675Y-26384055D01*
X78858206Y-26344311D01*
X78882666Y-26331782D01*
X78997266Y-26259979D01*
X79110837Y-26170623D01*
X79215499Y-26072366D01*
X79303371Y-25973856D01*
X79366575Y-25883745D01*
X79397229Y-25810684D01*
X79387454Y-25763322D01*
X79374968Y-25756077D01*
X79314328Y-25725396D01*
X79208119Y-25673415D01*
X79061294Y-25602471D01*
X78878808Y-25514904D01*
X78665617Y-25413052D01*
X78426675Y-25299256D01*
X78166935Y-25175853D01*
X77891353Y-25045183D01*
X77604884Y-24909585D01*
X77312481Y-24771397D01*
X77019099Y-24632959D01*
X76729694Y-24496610D01*
X76694503Y-24480058D01*
X77508794Y-24480058D01*
X77828164Y-24631713D01*
X77893729Y-24662822D01*
X78038933Y-24731630D01*
X78218365Y-24816582D01*
X78419907Y-24911942D01*
X78631444Y-25011978D01*
X78840861Y-25110956D01*
X79534188Y-25438545D01*
X79517936Y-25201426D01*
X79484531Y-24986240D01*
X79396123Y-24742547D01*
X79259434Y-24527076D01*
X79078712Y-24346235D01*
X78858206Y-24206429D01*
X78775435Y-24168136D01*
X78700267Y-24142133D01*
X78619406Y-24127485D01*
X78515000Y-24121022D01*
X78369197Y-24119572D01*
X78352541Y-24119579D01*
X78212929Y-24121218D01*
X78112574Y-24128086D01*
X78033277Y-24143601D01*
X77956841Y-24171182D01*
X77865065Y-24214244D01*
X77761302Y-24271052D01*
X77660185Y-24337139D01*
X77590775Y-24394488D01*
X77508794Y-24480058D01*
X76694503Y-24480058D01*
X76449219Y-24364689D01*
X76182629Y-24239534D01*
X75934878Y-24123485D01*
X75710922Y-24018881D01*
X75515714Y-23928061D01*
X75354210Y-23853363D01*
X75231364Y-23797126D01*
X75152129Y-23761691D01*
X75121462Y-23749395D01*
X75112700Y-23753645D01*
X75081064Y-23795635D01*
X75045125Y-23867948D01*
X75032002Y-23901586D01*
X75015182Y-23962188D01*
X75019691Y-23986199D01*
X75024933Y-23986892D01*
X75073933Y-24015197D01*
X75147352Y-24077082D01*
X75234482Y-24161699D01*
X75324613Y-24258200D01*
X75407037Y-24355734D01*
X75471046Y-24443455D01*
X75486918Y-24468566D01*
X75612920Y-24726886D01*
X75687463Y-25003995D01*
X75705480Y-25227413D01*
X75710547Y-25290250D01*
G37*
G36*
X71251345Y-25146535D02*
G01*
X71253396Y-25242235D01*
X71229384Y-25492207D01*
X71160018Y-25704885D01*
X71044141Y-25882236D01*
X70880598Y-26026224D01*
X70668235Y-26138817D01*
X70486984Y-26192053D01*
X70262554Y-26210213D01*
X70038228Y-26182930D01*
X69828723Y-26112206D01*
X69648759Y-26000046D01*
X69596297Y-25952600D01*
X69550253Y-25886608D01*
X69537615Y-25812723D01*
X69538309Y-25792162D01*
X69565992Y-25699878D01*
X69626795Y-25651172D01*
X69710722Y-25650178D01*
X69807772Y-25701029D01*
X69941781Y-25784819D01*
X70119060Y-25846572D01*
X70300130Y-25863822D01*
X70473650Y-25837132D01*
X70628279Y-25767063D01*
X70752675Y-25654179D01*
X70776439Y-25621719D01*
X70838646Y-25514296D01*
X70883648Y-25404539D01*
X70900976Y-25316302D01*
X70898412Y-25299262D01*
X70885796Y-25285642D01*
X70856091Y-25275661D01*
X70802268Y-25268755D01*
X70717295Y-25264363D01*
X70594140Y-25261923D01*
X70425772Y-25260871D01*
X70205160Y-25260645D01*
X69509343Y-25260645D01*
X69460271Y-25185752D01*
X69447401Y-25164714D01*
X69428002Y-25112350D01*
X69427571Y-25045905D01*
X69441304Y-24964262D01*
X69808498Y-24964262D01*
X70355134Y-24964262D01*
X70901771Y-24964262D01*
X70856282Y-24855392D01*
X70844979Y-24828937D01*
X70794699Y-24733025D01*
X70736135Y-24669312D01*
X70651209Y-24616766D01*
X70633188Y-24607776D01*
X70468939Y-24554106D01*
X70302448Y-24543794D01*
X70144788Y-24573431D01*
X70007030Y-24639606D01*
X69900245Y-24738912D01*
X69835506Y-24867938D01*
X69808498Y-24964262D01*
X69441304Y-24964262D01*
X69444727Y-24943912D01*
X69486993Y-24794781D01*
X69589766Y-24594093D01*
X69733253Y-24427746D01*
X69910439Y-24301631D01*
X70114309Y-24221640D01*
X70337849Y-24193667D01*
X70546107Y-24215638D01*
X70746242Y-24290111D01*
X70928949Y-24420086D01*
X71046404Y-24542094D01*
X71155437Y-24713077D01*
X71222038Y-24910697D01*
X71228694Y-24964262D01*
X71251345Y-25146535D01*
G37*
G36*
X68228241Y-25146535D02*
G01*
X68230292Y-25242235D01*
X68206280Y-25492207D01*
X68136914Y-25704885D01*
X68021037Y-25882236D01*
X67857494Y-26026224D01*
X67645131Y-26138817D01*
X67463880Y-26192053D01*
X67239450Y-26210213D01*
X67015124Y-26182930D01*
X66805620Y-26112206D01*
X66625655Y-26000046D01*
X66573193Y-25952600D01*
X66527150Y-25886608D01*
X66514511Y-25812723D01*
X66515205Y-25792162D01*
X66542888Y-25699878D01*
X66603691Y-25651172D01*
X66687618Y-25650178D01*
X66784668Y-25701029D01*
X66918677Y-25784819D01*
X67095957Y-25846572D01*
X67277027Y-25863822D01*
X67450546Y-25837132D01*
X67605175Y-25767063D01*
X67729571Y-25654179D01*
X67753336Y-25621719D01*
X67815543Y-25514296D01*
X67860545Y-25404539D01*
X67877872Y-25316302D01*
X67875309Y-25299262D01*
X67862692Y-25285642D01*
X67832987Y-25275661D01*
X67779164Y-25268755D01*
X67694191Y-25264363D01*
X67571036Y-25261923D01*
X67402668Y-25260871D01*
X67182056Y-25260645D01*
X66486240Y-25260645D01*
X66437168Y-25185752D01*
X66424297Y-25164714D01*
X66404898Y-25112350D01*
X66404467Y-25045905D01*
X66418200Y-24964262D01*
X66785394Y-24964262D01*
X67332031Y-24964262D01*
X67878667Y-24964262D01*
X67833178Y-24855392D01*
X67821875Y-24828937D01*
X67771595Y-24733025D01*
X67713031Y-24669312D01*
X67628105Y-24616766D01*
X67610084Y-24607776D01*
X67445835Y-24554106D01*
X67279344Y-24543794D01*
X67121684Y-24573431D01*
X66983926Y-24639606D01*
X66877142Y-24738912D01*
X66812402Y-24867938D01*
X66785394Y-24964262D01*
X66418200Y-24964262D01*
X66421623Y-24943912D01*
X66463890Y-24794781D01*
X66566662Y-24594093D01*
X66710149Y-24427746D01*
X66887335Y-24301631D01*
X67091205Y-24221640D01*
X67314745Y-24193667D01*
X67523003Y-24215638D01*
X67723138Y-24290111D01*
X67905846Y-24420086D01*
X68023300Y-24542094D01*
X68132333Y-24713077D01*
X68198934Y-24910697D01*
X68205590Y-24964262D01*
X68228241Y-25146535D01*
G37*
G36*
X65149771Y-24208492D02*
G01*
X65294409Y-24210010D01*
X65397106Y-24216085D01*
X65473926Y-24229412D01*
X65540936Y-24252682D01*
X65614200Y-24288589D01*
X65665849Y-24318473D01*
X65832257Y-24451901D01*
X65972054Y-24620387D01*
X66068949Y-24805414D01*
X66085967Y-24858807D01*
X66116407Y-25019713D01*
X66129615Y-25201875D01*
X66124495Y-25379750D01*
X66099951Y-25527796D01*
X66049648Y-25660177D01*
X65945309Y-25831865D01*
X65810144Y-25983939D01*
X65656365Y-26103274D01*
X65496185Y-26176744D01*
X65433549Y-26190343D01*
X65287917Y-26203835D01*
X65121772Y-26203215D01*
X64958902Y-26189013D01*
X64823100Y-26161759D01*
X64712044Y-26122846D01*
X64580836Y-26052254D01*
X64498201Y-25971126D01*
X64469471Y-25883658D01*
X64471518Y-25850049D01*
X64505312Y-25762321D01*
X64572630Y-25716100D01*
X64663086Y-25715542D01*
X64766293Y-25764809D01*
X64854286Y-25809814D01*
X64986629Y-25848606D01*
X65126764Y-25868493D01*
X65247542Y-25863886D01*
X65279216Y-25856975D01*
X65431739Y-25795390D01*
X65568323Y-25697692D01*
X65667502Y-25578469D01*
X65743991Y-25400386D01*
X65772170Y-25214463D01*
X65752890Y-25034287D01*
X65689660Y-24868944D01*
X65585989Y-24727519D01*
X65445387Y-24619098D01*
X65271361Y-24552766D01*
X65207510Y-24542509D01*
X65047917Y-24544061D01*
X64893852Y-24578007D01*
X64769670Y-24640106D01*
X64751293Y-24652812D01*
X64653273Y-24690183D01*
X64566984Y-24672607D01*
X64500099Y-24601194D01*
X64477209Y-24555332D01*
X64471392Y-24502734D01*
X64500225Y-24438183D01*
X64520236Y-24410038D01*
X64590380Y-24342755D01*
X64678054Y-24282582D01*
X64742744Y-24249535D01*
X64805978Y-24227855D01*
X64882424Y-24215440D01*
X64987426Y-24209811D01*
X65136332Y-24208486D01*
X65149771Y-24208492D01*
G37*
G36*
X60182681Y-24224134D02*
G01*
X60228166Y-24231468D01*
X60262560Y-24251963D01*
X60287265Y-24292207D01*
X60303687Y-24358784D01*
X60313228Y-24458282D01*
X60317293Y-24597285D01*
X60317284Y-24782379D01*
X60314607Y-25020151D01*
X60305293Y-25720038D01*
X60223674Y-25858883D01*
X60152606Y-25961635D01*
X60023918Y-26079337D01*
X59854585Y-26165327D01*
X59804048Y-26180446D01*
X59665660Y-26198344D01*
X59475422Y-26199341D01*
X59448881Y-26198314D01*
X59258213Y-26179080D01*
X59108341Y-26136643D01*
X58984946Y-26065289D01*
X58873713Y-25959308D01*
X58855554Y-25937979D01*
X58802583Y-25863914D01*
X58761899Y-25780930D01*
X58731996Y-25680648D01*
X58711363Y-25554692D01*
X58698493Y-25394682D01*
X58691877Y-25192240D01*
X58690007Y-24938988D01*
X58690672Y-24737826D01*
X58694025Y-24559853D01*
X58701757Y-24428190D01*
X58715551Y-24335959D01*
X58737092Y-24276279D01*
X58768061Y-24242272D01*
X58810143Y-24227059D01*
X58865021Y-24223759D01*
X58886216Y-24223973D01*
X58933354Y-24227557D01*
X58969104Y-24241107D01*
X58995285Y-24271667D01*
X59013715Y-24326277D01*
X59026209Y-24411980D01*
X59034586Y-24535819D01*
X59040662Y-24704835D01*
X59046256Y-24926070D01*
X59051072Y-25112121D01*
X59056999Y-25286245D01*
X59063884Y-25416415D01*
X59072525Y-25510960D01*
X59083719Y-25578211D01*
X59098264Y-25626499D01*
X59116959Y-25664154D01*
X59202224Y-25765584D01*
X59333895Y-25837920D01*
X59501856Y-25863390D01*
X59641414Y-25851234D01*
X59780846Y-25796483D01*
X59887692Y-25695719D01*
X59897207Y-25682329D01*
X59915518Y-25649655D01*
X59929305Y-25607865D01*
X59939393Y-25548600D01*
X59946603Y-25463498D01*
X59951759Y-25344201D01*
X59955685Y-25182349D01*
X59959204Y-24969582D01*
X59959903Y-24923721D01*
X59964213Y-24704194D01*
X59970522Y-24535933D01*
X59980517Y-24412159D01*
X59995881Y-24326093D01*
X60018302Y-24270954D01*
X60049465Y-24239963D01*
X60091055Y-24226340D01*
X60144759Y-24223306D01*
X60182681Y-24224134D01*
G37*
G36*
X50450619Y-25214613D02*
G01*
X50435198Y-25419479D01*
X50389544Y-25600567D01*
X50323417Y-25735360D01*
X50194426Y-25905478D01*
X50033822Y-26047376D01*
X49856779Y-26145533D01*
X49797003Y-26165811D01*
X49610429Y-26199763D01*
X49407385Y-26203028D01*
X49210674Y-26176313D01*
X49043098Y-26120324D01*
X49041817Y-26119702D01*
X48860741Y-26002464D01*
X48701947Y-25843677D01*
X48582882Y-25660762D01*
X48559906Y-25611533D01*
X48533874Y-25538303D01*
X48518606Y-25456869D01*
X48511385Y-25350226D01*
X48509494Y-25201369D01*
X48509532Y-25141721D01*
X48510021Y-25112946D01*
X48864548Y-25112946D01*
X48866246Y-25307229D01*
X48915845Y-25486044D01*
X49008520Y-25640279D01*
X49139445Y-25760821D01*
X49303794Y-25838554D01*
X49312626Y-25841175D01*
X49405489Y-25867142D01*
X49469047Y-25877166D01*
X49528757Y-25872595D01*
X49610079Y-25854776D01*
X49640173Y-25846765D01*
X49801118Y-25771335D01*
X49930227Y-25655146D01*
X50024015Y-25508130D01*
X50079001Y-25340221D01*
X50091700Y-25161352D01*
X50058628Y-24981457D01*
X49976302Y-24810470D01*
X49927981Y-24746209D01*
X49795951Y-24630147D01*
X49645423Y-24561358D01*
X49485758Y-24537932D01*
X49326317Y-24557961D01*
X49176462Y-24619535D01*
X49045554Y-24720745D01*
X48942955Y-24859682D01*
X48878025Y-25034438D01*
X48864548Y-25112946D01*
X48510021Y-25112946D01*
X48511631Y-25018128D01*
X48519561Y-24929520D01*
X48537022Y-24858290D01*
X48567712Y-24786826D01*
X48615330Y-24697518D01*
X48677658Y-24596847D01*
X48833326Y-24421458D01*
X49021646Y-24295353D01*
X49241455Y-24219200D01*
X49491591Y-24193667D01*
X49644822Y-24205533D01*
X49867803Y-24268738D01*
X50066556Y-24382318D01*
X50233690Y-24541616D01*
X50361815Y-24741975D01*
X50393574Y-24820673D01*
X50436510Y-25007750D01*
X50446986Y-25161352D01*
X50450619Y-25214613D01*
G37*
G36*
X48078579Y-25385579D02*
G01*
X48077164Y-25599238D01*
X48074877Y-25769239D01*
X48071541Y-25900763D01*
X48066979Y-25998988D01*
X48061015Y-26069094D01*
X48053470Y-26116261D01*
X48044168Y-26145669D01*
X48032931Y-26162495D01*
X47978869Y-26198643D01*
X47892391Y-26209343D01*
X47809908Y-26178807D01*
X47748150Y-26114532D01*
X47723846Y-26024012D01*
X47723846Y-25937056D01*
X47627522Y-26018369D01*
X47516615Y-26098789D01*
X47327980Y-26180982D01*
X47119700Y-26208419D01*
X47017815Y-26204418D01*
X46800647Y-26159863D01*
X46614782Y-26065222D01*
X46458691Y-25919552D01*
X46330847Y-25721911D01*
X46312697Y-25686086D01*
X46272380Y-25600347D01*
X46247229Y-25526895D01*
X46233677Y-25447841D01*
X46228160Y-25345295D01*
X46227113Y-25201369D01*
X46567954Y-25201369D01*
X46586207Y-25378954D01*
X46649345Y-25558092D01*
X46753392Y-25703696D01*
X46893975Y-25807638D01*
X46957897Y-25832962D01*
X47053190Y-25857649D01*
X47144117Y-25871127D01*
X47205176Y-25868415D01*
X47245448Y-25857356D01*
X47315776Y-25840756D01*
X47392400Y-25809203D01*
X47496749Y-25732891D01*
X47595063Y-25629871D01*
X47670674Y-25515423D01*
X47718883Y-25373034D01*
X47735544Y-25195327D01*
X47715759Y-25014827D01*
X47659896Y-24854073D01*
X47611559Y-24775552D01*
X47485803Y-24649287D01*
X47329503Y-24568996D01*
X47152667Y-24540859D01*
X47074838Y-24545472D01*
X46904906Y-24592977D01*
X46764547Y-24687634D01*
X46658465Y-24824128D01*
X46591366Y-24997144D01*
X46567954Y-25201369D01*
X46227113Y-25201369D01*
X46227192Y-25145715D01*
X46229384Y-25018147D01*
X46237280Y-24925763D01*
X46254446Y-24850674D01*
X46284447Y-24774992D01*
X46330847Y-24680826D01*
X46413969Y-24542362D01*
X46562273Y-24378813D01*
X46739068Y-24267160D01*
X46943705Y-24207772D01*
X47175534Y-24201015D01*
X47281755Y-24214116D01*
X47399519Y-24248607D01*
X47516202Y-24312108D01*
X47581676Y-24356960D01*
X47654220Y-24414530D01*
X47693707Y-24456349D01*
X47697732Y-24460485D01*
X47708433Y-24434483D01*
X47716210Y-24349509D01*
X47721051Y-24205740D01*
X47722945Y-24003352D01*
X47722989Y-23983247D01*
X47724997Y-23782371D01*
X47731299Y-23632699D01*
X47744093Y-23526833D01*
X47765577Y-23457372D01*
X47797949Y-23416918D01*
X47843408Y-23398072D01*
X47904152Y-23393434D01*
X47913737Y-23393410D01*
X47952677Y-23393925D01*
X47984988Y-23399139D01*
X48011290Y-23414013D01*
X48032199Y-23443509D01*
X48048333Y-23492588D01*
X48060311Y-23566212D01*
X48068751Y-23669343D01*
X48074271Y-23806942D01*
X48077488Y-23983970D01*
X48079021Y-24205391D01*
X48079487Y-24476164D01*
X48079506Y-24801252D01*
X48079505Y-24806571D01*
X48079301Y-25123083D01*
X48079102Y-25195327D01*
X48078579Y-25385579D01*
G37*
G36*
X68874877Y-23393822D02*
G01*
X68907774Y-23398628D01*
X68934558Y-23412829D01*
X68955856Y-23441412D01*
X68972298Y-23489366D01*
X68984510Y-23561679D01*
X68993120Y-23663339D01*
X68998757Y-23799334D01*
X69002048Y-23974653D01*
X69003621Y-24194284D01*
X69004105Y-24463214D01*
X69004126Y-24786433D01*
X69003945Y-25088572D01*
X69003249Y-25352356D01*
X69001859Y-25567044D01*
X68999595Y-25737848D01*
X68996276Y-25869976D01*
X68991722Y-25968640D01*
X68985753Y-26039050D01*
X68978188Y-26086416D01*
X68968848Y-26115948D01*
X68957552Y-26132857D01*
X68956659Y-26133741D01*
X68878823Y-26173151D01*
X68785233Y-26171944D01*
X68702668Y-26130381D01*
X68693278Y-26120589D01*
X68681829Y-26101394D01*
X68672508Y-26071250D01*
X68665098Y-26024788D01*
X68659382Y-25956638D01*
X68655141Y-25861430D01*
X68652159Y-25733794D01*
X68650217Y-25568362D01*
X68649100Y-25359762D01*
X68648589Y-25102626D01*
X68648467Y-24791583D01*
X68648467Y-24765323D01*
X68648535Y-24445749D01*
X68649182Y-24180096D01*
X68651049Y-23963385D01*
X68654779Y-23790634D01*
X68661015Y-23656861D01*
X68670398Y-23557085D01*
X68683572Y-23486326D01*
X68701177Y-23439602D01*
X68723858Y-23411932D01*
X68752256Y-23398334D01*
X68787014Y-23393829D01*
X68828773Y-23393434D01*
X68835238Y-23393422D01*
X68874877Y-23393822D01*
G37*
G36*
X63870110Y-23765593D02*
G01*
X63901418Y-23792803D01*
X63923434Y-23835436D01*
X63933548Y-23904960D01*
X63935982Y-24017518D01*
X63935982Y-24223306D01*
X64093064Y-24223306D01*
X64185964Y-24227840D01*
X64267792Y-24251856D01*
X64309571Y-24303038D01*
X64321279Y-24388615D01*
X64315560Y-24450779D01*
X64283913Y-24507820D01*
X64215029Y-24539857D01*
X64098240Y-24554840D01*
X63950801Y-24564146D01*
X63935982Y-25265738D01*
X63934044Y-25357033D01*
X63929460Y-25557924D01*
X63924863Y-25710384D01*
X63919362Y-25822252D01*
X63912063Y-25901364D01*
X63902077Y-25955556D01*
X63888510Y-25992666D01*
X63870470Y-26020529D01*
X63847067Y-26046984D01*
X63841628Y-26052731D01*
X63774167Y-26112890D01*
X63713695Y-26151156D01*
X63678823Y-26160574D01*
X63591943Y-26172221D01*
X63487995Y-26177553D01*
X63387504Y-26171422D01*
X63267172Y-26134817D01*
X63191600Y-26067853D01*
X63165387Y-25973442D01*
X63165416Y-25969346D01*
X63187800Y-25881071D01*
X63250374Y-25835864D01*
X63350997Y-25835316D01*
X63417650Y-25840157D01*
X63514332Y-25807356D01*
X63529543Y-25796062D01*
X63547971Y-25776245D01*
X63561297Y-25746120D01*
X63570348Y-25697526D01*
X63575951Y-25622302D01*
X63578930Y-25512286D01*
X63580112Y-25359316D01*
X63580322Y-25155231D01*
X63580322Y-24549327D01*
X63389791Y-24549327D01*
X63286301Y-24544572D01*
X63182188Y-24519697D01*
X63124128Y-24470584D01*
X63106110Y-24393942D01*
X63113932Y-24336587D01*
X63159816Y-24271738D01*
X63250989Y-24234935D01*
X63392267Y-24223306D01*
X63580322Y-24223306D01*
X63580322Y-24030657D01*
X63580494Y-24001144D01*
X63586770Y-23895231D01*
X63605101Y-23826920D01*
X63639599Y-23778732D01*
X63691168Y-23738980D01*
X63775900Y-23723516D01*
X63870110Y-23765593D01*
G37*
G36*
X61909921Y-24219822D02*
G01*
X62047047Y-24275235D01*
X62169912Y-24356263D01*
X62264803Y-24459025D01*
X62335515Y-24563087D01*
X62335515Y-24447397D01*
X62335758Y-24433082D01*
X62360342Y-24320431D01*
X62421928Y-24248560D01*
X62515821Y-24223306D01*
X62557702Y-24224140D01*
X62597106Y-24230637D01*
X62627875Y-24248755D01*
X62651077Y-24284453D01*
X62667779Y-24343685D01*
X62679049Y-24432410D01*
X62685956Y-24556584D01*
X62689567Y-24722164D01*
X62690950Y-24935106D01*
X62691174Y-25201369D01*
X62691174Y-25212882D01*
X62690797Y-25467452D01*
X62689503Y-25669387D01*
X62686971Y-25825064D01*
X62682884Y-25940863D01*
X62676923Y-26023163D01*
X62668767Y-26078342D01*
X62658099Y-26112781D01*
X62644600Y-26132857D01*
X62643707Y-26133741D01*
X62565870Y-26173151D01*
X62472281Y-26171944D01*
X62389716Y-26130381D01*
X62378546Y-26118956D01*
X62362024Y-26091417D01*
X62350312Y-26048277D01*
X62342600Y-25980802D01*
X62338077Y-25880258D01*
X62335930Y-25737910D01*
X62335350Y-25545025D01*
X62335348Y-25541270D01*
X62333707Y-25313882D01*
X62327912Y-25136425D01*
X62316310Y-24999737D01*
X62297247Y-24894658D01*
X62269070Y-24812029D01*
X62230125Y-24742687D01*
X62178760Y-24677474D01*
X62119862Y-24616250D01*
X62007266Y-24537705D01*
X61885668Y-24509264D01*
X61740379Y-24525848D01*
X61666984Y-24541714D01*
X61606396Y-24546996D01*
X61567902Y-24531726D01*
X61531493Y-24492731D01*
X61487458Y-24418790D01*
X61484998Y-24334207D01*
X61540870Y-24254098D01*
X61550087Y-24246084D01*
X61647728Y-24201365D01*
X61772243Y-24193904D01*
X61909921Y-24219822D01*
G37*
G36*
X61042856Y-24230793D02*
G01*
X61125421Y-24272357D01*
X61136138Y-24283497D01*
X61149506Y-24306131D01*
X61159829Y-24341637D01*
X61167498Y-24396645D01*
X61172900Y-24477783D01*
X61176424Y-24591680D01*
X61178460Y-24744966D01*
X61179396Y-24944269D01*
X61179622Y-25196219D01*
X61179612Y-25250641D01*
X61179156Y-25493939D01*
X61177773Y-25685821D01*
X61175115Y-25832857D01*
X61170836Y-25941614D01*
X61164589Y-26018662D01*
X61156027Y-26070568D01*
X61144803Y-26103902D01*
X61130571Y-26125231D01*
X61119722Y-26135852D01*
X61039644Y-26173204D01*
X60947187Y-26172482D01*
X60870537Y-26132857D01*
X60869931Y-26132242D01*
X60856553Y-26111708D01*
X60845993Y-26076553D01*
X60837932Y-26020399D01*
X60832053Y-25936866D01*
X60828035Y-25819576D01*
X60825560Y-25662149D01*
X60824309Y-25458206D01*
X60823963Y-25201369D01*
X60823963Y-25189856D01*
X60824340Y-24935285D01*
X60825634Y-24733351D01*
X60828166Y-24577673D01*
X60832253Y-24461874D01*
X60838214Y-24379575D01*
X60846370Y-24324395D01*
X60857038Y-24289956D01*
X60870537Y-24269880D01*
X60871430Y-24268996D01*
X60949267Y-24229587D01*
X61042856Y-24230793D01*
G37*
G36*
X57230828Y-24194941D02*
G01*
X57394939Y-24217544D01*
X57537177Y-24278722D01*
X57679033Y-24386885D01*
X57800859Y-24496948D01*
X57800859Y-24414327D01*
X57823367Y-24319362D01*
X57887597Y-24249517D01*
X57981165Y-24223306D01*
X58023046Y-24224140D01*
X58062451Y-24230637D01*
X58093220Y-24248755D01*
X58116421Y-24284453D01*
X58133123Y-24343685D01*
X58144393Y-24432410D01*
X58151300Y-24556584D01*
X58154911Y-24722164D01*
X58156295Y-24935106D01*
X58156518Y-25201369D01*
X58156518Y-25212882D01*
X58156141Y-25467452D01*
X58154847Y-25669387D01*
X58152316Y-25825064D01*
X58148229Y-25940863D01*
X58142267Y-26023163D01*
X58134111Y-26078342D01*
X58123443Y-26112781D01*
X58109944Y-26132857D01*
X58109051Y-26133741D01*
X58031215Y-26173151D01*
X57937625Y-26171944D01*
X57855060Y-26130381D01*
X57838377Y-26111701D01*
X57823942Y-26081293D01*
X57813731Y-26033218D01*
X57807030Y-25959154D01*
X57803126Y-25850780D01*
X57801307Y-25699776D01*
X57800859Y-25497819D01*
X57800850Y-25454281D01*
X57800288Y-25262974D01*
X57798200Y-25119532D01*
X57793676Y-25014405D01*
X57785804Y-24938038D01*
X57773674Y-24880880D01*
X57756375Y-24833379D01*
X57732997Y-24785980D01*
X57715163Y-24755024D01*
X57607851Y-24636377D01*
X57466057Y-24563538D01*
X57296430Y-24540250D01*
X57231618Y-24543473D01*
X57115151Y-24570476D01*
X57032587Y-24632004D01*
X56969119Y-24736957D01*
X56955656Y-24769226D01*
X56939643Y-24821859D01*
X56928107Y-24887553D01*
X56920332Y-24975551D01*
X56915595Y-25095093D01*
X56913178Y-25255422D01*
X56912362Y-25465779D01*
X56911507Y-25663188D01*
X56907996Y-25841670D01*
X56900159Y-25973739D01*
X56886298Y-26066285D01*
X56864718Y-26126193D01*
X56833723Y-26160353D01*
X56791614Y-26175652D01*
X56736697Y-26178978D01*
X56726967Y-26178907D01*
X56676270Y-26176324D01*
X56637818Y-26164850D01*
X56609680Y-26137288D01*
X56589923Y-26086442D01*
X56576613Y-26005117D01*
X56567820Y-25886117D01*
X56561610Y-25722247D01*
X56556052Y-25506309D01*
X56551201Y-25320550D01*
X56545405Y-25154181D01*
X56538521Y-25030677D01*
X56529643Y-24941248D01*
X56517862Y-24877107D01*
X56502269Y-24829464D01*
X56481956Y-24789531D01*
X56453738Y-24746317D01*
X56345488Y-24635257D01*
X56218042Y-24565288D01*
X56082068Y-24536031D01*
X55948230Y-24547107D01*
X55827195Y-24598137D01*
X55729628Y-24688740D01*
X55666196Y-24818539D01*
X55665998Y-24819241D01*
X55656934Y-24881269D01*
X55649049Y-24991109D01*
X55642822Y-25137533D01*
X55638734Y-25309313D01*
X55637265Y-25495222D01*
X55636845Y-25652226D01*
X55633860Y-25834372D01*
X55626398Y-25969164D01*
X55612604Y-26063649D01*
X55590619Y-26124873D01*
X55558588Y-26159880D01*
X55514654Y-26175718D01*
X55456959Y-26179432D01*
X55414190Y-26178319D01*
X55370205Y-26170196D01*
X55336980Y-26148503D01*
X55313152Y-26106710D01*
X55297353Y-26038291D01*
X55288218Y-25936717D01*
X55284381Y-25795462D01*
X55284477Y-25607998D01*
X55287140Y-25367797D01*
X55287374Y-25349868D01*
X55290553Y-25128363D01*
X55294087Y-24957073D01*
X55298762Y-24827543D01*
X55305361Y-24731316D01*
X55314671Y-24659937D01*
X55327474Y-24604949D01*
X55344556Y-24557897D01*
X55366702Y-24510323D01*
X55413990Y-24428542D01*
X55527938Y-24307628D01*
X55676340Y-24232088D01*
X55864295Y-24198727D01*
X55960933Y-24196757D01*
X56142643Y-24224056D01*
X56304963Y-24298704D01*
X56462497Y-24426255D01*
X56604269Y-24564345D01*
X56683564Y-24436981D01*
X56709557Y-24398997D01*
X56830561Y-24285669D01*
X56989474Y-24217526D01*
X57186817Y-24194318D01*
X57230828Y-24194941D01*
G37*
G36*
X52814725Y-24194941D02*
G01*
X52978836Y-24217544D01*
X53121075Y-24278722D01*
X53262930Y-24386885D01*
X53384756Y-24496948D01*
X53384756Y-24414327D01*
X53407265Y-24319362D01*
X53471495Y-24249517D01*
X53565063Y-24223306D01*
X53606943Y-24224140D01*
X53646348Y-24230637D01*
X53677117Y-24248755D01*
X53700318Y-24284453D01*
X53717020Y-24343685D01*
X53728291Y-24432410D01*
X53735197Y-24556584D01*
X53738808Y-24722164D01*
X53740192Y-24935106D01*
X53740416Y-25201369D01*
X53740415Y-25212882D01*
X53740039Y-25467452D01*
X53738744Y-25669387D01*
X53736213Y-25825064D01*
X53732126Y-25940863D01*
X53726164Y-26023163D01*
X53718009Y-26078342D01*
X53707341Y-26112781D01*
X53693841Y-26132857D01*
X53692948Y-26133741D01*
X53615112Y-26173151D01*
X53521522Y-26171944D01*
X53438957Y-26130381D01*
X53422274Y-26111701D01*
X53407840Y-26081293D01*
X53397628Y-26033218D01*
X53390927Y-25959154D01*
X53387024Y-25850780D01*
X53385204Y-25699776D01*
X53384756Y-25497819D01*
X53384747Y-25454281D01*
X53384185Y-25262974D01*
X53382097Y-25119532D01*
X53377573Y-25014405D01*
X53369701Y-24938038D01*
X53357571Y-24880880D01*
X53340272Y-24833379D01*
X53316895Y-24785980D01*
X53299060Y-24755024D01*
X53191749Y-24636377D01*
X53049954Y-24563538D01*
X52880327Y-24540250D01*
X52815515Y-24543473D01*
X52699048Y-24570476D01*
X52616485Y-24632004D01*
X52553016Y-24736957D01*
X52539554Y-24769226D01*
X52523540Y-24821859D01*
X52512005Y-24887553D01*
X52504229Y-24975551D01*
X52499492Y-25095093D01*
X52497076Y-25255422D01*
X52496259Y-25465779D01*
X52495405Y-25663188D01*
X52491894Y-25841670D01*
X52484056Y-25973739D01*
X52470196Y-26066285D01*
X52448616Y-26126193D01*
X52417620Y-26160353D01*
X52375512Y-26175652D01*
X52320595Y-26178978D01*
X52310864Y-26178907D01*
X52260167Y-26176324D01*
X52221715Y-26164850D01*
X52193577Y-26137288D01*
X52173820Y-26086442D01*
X52160511Y-26005117D01*
X52151718Y-25886117D01*
X52145508Y-25722247D01*
X52139949Y-25506309D01*
X52135099Y-25320550D01*
X52129302Y-25154181D01*
X52122419Y-25030677D01*
X52113541Y-24941248D01*
X52101759Y-24877107D01*
X52086166Y-24829464D01*
X52065853Y-24789531D01*
X52037635Y-24746317D01*
X51929385Y-24635257D01*
X51801939Y-24565288D01*
X51665965Y-24536031D01*
X51532127Y-24547107D01*
X51411092Y-24598137D01*
X51313525Y-24688740D01*
X51250093Y-24818539D01*
X51249895Y-24819241D01*
X51240832Y-24881269D01*
X51232946Y-24991109D01*
X51226720Y-25137533D01*
X51222632Y-25309313D01*
X51221162Y-25495222D01*
X51220742Y-25652226D01*
X51217757Y-25834372D01*
X51210296Y-25969164D01*
X51196501Y-26063649D01*
X51174516Y-26124873D01*
X51142485Y-26159880D01*
X51098551Y-26175718D01*
X51040856Y-26179432D01*
X50998088Y-26178319D01*
X50954102Y-26170196D01*
X50920878Y-26148503D01*
X50897049Y-26106710D01*
X50881250Y-26038291D01*
X50872115Y-25936717D01*
X50868279Y-25795462D01*
X50868375Y-25607998D01*
X50871038Y-25367797D01*
X50871271Y-25349868D01*
X50874450Y-25128363D01*
X50877984Y-24957073D01*
X50882659Y-24827543D01*
X50889259Y-24731316D01*
X50898568Y-24659937D01*
X50911371Y-24604949D01*
X50928453Y-24557897D01*
X50950599Y-24510323D01*
X50997887Y-24428542D01*
X51111836Y-24307628D01*
X51260238Y-24232088D01*
X51448192Y-24198727D01*
X51544830Y-24196757D01*
X51726541Y-24224056D01*
X51888861Y-24298704D01*
X52046395Y-24426255D01*
X52188166Y-24564345D01*
X52267461Y-24436981D01*
X52293455Y-24398997D01*
X52414458Y-24285669D01*
X52573371Y-24217526D01*
X52770714Y-24194318D01*
X52814725Y-24194941D01*
G37*
G36*
X45690231Y-24230793D02*
G01*
X45772796Y-24272357D01*
X45783513Y-24283497D01*
X45796880Y-24306131D01*
X45807204Y-24341637D01*
X45814872Y-24396645D01*
X45820274Y-24477783D01*
X45823799Y-24591680D01*
X45825835Y-24744966D01*
X45826771Y-24944269D01*
X45826997Y-25196219D01*
X45826986Y-25250641D01*
X45826531Y-25493939D01*
X45825147Y-25685821D01*
X45822490Y-25832857D01*
X45818211Y-25941614D01*
X45811964Y-26018662D01*
X45803402Y-26070568D01*
X45792178Y-26103902D01*
X45777946Y-26125231D01*
X45767096Y-26135852D01*
X45687018Y-26173204D01*
X45594562Y-26172482D01*
X45517912Y-26132857D01*
X45517306Y-26132242D01*
X45503927Y-26111708D01*
X45493367Y-26076553D01*
X45485307Y-26020399D01*
X45479427Y-25936866D01*
X45475410Y-25819576D01*
X45472935Y-25662149D01*
X45471684Y-25458206D01*
X45471337Y-25201369D01*
X45471338Y-25189856D01*
X45471715Y-24935285D01*
X45473009Y-24733351D01*
X45475540Y-24577673D01*
X45479627Y-24461874D01*
X45485589Y-24379575D01*
X45493744Y-24324395D01*
X45504412Y-24289956D01*
X45517912Y-24269880D01*
X45518805Y-24268996D01*
X45596641Y-24229587D01*
X45690231Y-24230793D01*
G37*
G36*
X44808599Y-23393822D02*
G01*
X44841496Y-23398628D01*
X44868280Y-23412829D01*
X44889579Y-23441412D01*
X44906020Y-23489366D01*
X44918232Y-23561679D01*
X44926842Y-23663339D01*
X44932479Y-23799334D01*
X44935770Y-23974653D01*
X44937343Y-24194284D01*
X44937827Y-24463214D01*
X44937849Y-24786433D01*
X44937667Y-25088572D01*
X44936971Y-25352356D01*
X44935582Y-25567044D01*
X44933317Y-25737848D01*
X44929999Y-25869976D01*
X44925445Y-25968640D01*
X44919475Y-26039050D01*
X44911911Y-26086416D01*
X44902570Y-26115948D01*
X44891274Y-26132857D01*
X44890381Y-26133741D01*
X44812545Y-26173151D01*
X44718955Y-26171944D01*
X44636390Y-26130381D01*
X44627000Y-26120589D01*
X44615552Y-26101394D01*
X44606231Y-26071250D01*
X44598821Y-26024788D01*
X44593104Y-25956638D01*
X44588863Y-25861430D01*
X44585881Y-25733794D01*
X44583940Y-25568362D01*
X44582822Y-25359762D01*
X44582311Y-25102626D01*
X44582189Y-24791583D01*
X44582189Y-24765323D01*
X44582257Y-24445749D01*
X44582904Y-24180096D01*
X44584771Y-23963385D01*
X44588502Y-23790634D01*
X44594737Y-23656861D01*
X44604120Y-23557085D01*
X44617294Y-23486326D01*
X44634900Y-23439602D01*
X44657580Y-23411932D01*
X44685978Y-23398334D01*
X44720736Y-23393829D01*
X44762495Y-23393434D01*
X44768961Y-23393422D01*
X44808599Y-23393822D01*
G37*
G36*
X43911934Y-24230793D02*
G01*
X43994500Y-24272357D01*
X44005216Y-24283497D01*
X44018584Y-24306131D01*
X44028908Y-24341637D01*
X44036576Y-24396645D01*
X44041978Y-24477783D01*
X44045502Y-24591680D01*
X44047538Y-24744966D01*
X44048475Y-24944269D01*
X44048700Y-25196219D01*
X44048690Y-25250641D01*
X44048234Y-25493939D01*
X44046851Y-25685821D01*
X44044193Y-25832857D01*
X44039914Y-25941614D01*
X44033667Y-26018662D01*
X44025105Y-26070568D01*
X44013882Y-26103902D01*
X43999649Y-26125231D01*
X43988800Y-26135852D01*
X43908722Y-26173204D01*
X43816265Y-26172482D01*
X43739616Y-26132857D01*
X43739010Y-26132242D01*
X43725631Y-26111708D01*
X43715071Y-26076553D01*
X43707011Y-26020399D01*
X43701131Y-25936866D01*
X43697113Y-25819576D01*
X43694638Y-25662149D01*
X43693387Y-25458206D01*
X43693041Y-25201369D01*
X43693042Y-25189856D01*
X43693418Y-24935285D01*
X43694713Y-24733351D01*
X43697244Y-24577673D01*
X43701331Y-24461874D01*
X43707293Y-24379575D01*
X43715448Y-24324395D01*
X43726116Y-24289956D01*
X43739616Y-24269880D01*
X43740508Y-24268996D01*
X43818345Y-24229587D01*
X43911934Y-24230793D01*
G37*
G36*
X42945490Y-23765593D02*
G01*
X42976797Y-23792803D01*
X42998813Y-23835436D01*
X43008927Y-23904960D01*
X43011361Y-24017518D01*
X43011361Y-24223306D01*
X43168444Y-24223306D01*
X43261343Y-24227840D01*
X43343171Y-24251856D01*
X43384950Y-24303038D01*
X43396658Y-24388615D01*
X43390939Y-24450779D01*
X43359292Y-24507820D01*
X43290408Y-24539857D01*
X43173619Y-24554840D01*
X43026180Y-24564146D01*
X43011361Y-25265738D01*
X43009423Y-25357033D01*
X43004839Y-25557924D01*
X43000242Y-25710384D01*
X42994741Y-25822252D01*
X42987443Y-25901364D01*
X42977456Y-25955556D01*
X42963889Y-25992666D01*
X42945850Y-26020529D01*
X42922446Y-26046984D01*
X42917007Y-26052731D01*
X42849546Y-26112890D01*
X42789074Y-26151156D01*
X42754203Y-26160574D01*
X42667323Y-26172221D01*
X42563374Y-26177553D01*
X42462883Y-26171422D01*
X42342551Y-26134817D01*
X42266979Y-26067853D01*
X42240766Y-25973442D01*
X42240795Y-25969346D01*
X42263180Y-25881071D01*
X42325753Y-25835864D01*
X42426376Y-25835316D01*
X42493029Y-25840157D01*
X42589711Y-25807356D01*
X42604923Y-25796062D01*
X42623350Y-25776245D01*
X42636676Y-25746120D01*
X42645728Y-25697526D01*
X42651330Y-25622302D01*
X42654309Y-25512286D01*
X42655491Y-25359316D01*
X42655702Y-25155231D01*
X42655702Y-24549327D01*
X42465170Y-24549327D01*
X42361681Y-24544572D01*
X42257568Y-24519697D01*
X42199507Y-24470584D01*
X42181489Y-24393942D01*
X42189311Y-24336587D01*
X42235195Y-24271738D01*
X42326368Y-24234935D01*
X42467646Y-24223306D01*
X42655702Y-24223306D01*
X42655702Y-24030657D01*
X42655873Y-24001144D01*
X42662149Y-23895231D01*
X42680480Y-23826920D01*
X42714978Y-23778732D01*
X42766547Y-23738980D01*
X42851279Y-23723516D01*
X42945490Y-23765593D01*
G37*
G36*
X61024575Y-23542671D02*
G01*
X61129613Y-23568468D01*
X61189957Y-23631262D01*
X61209260Y-23734274D01*
X61209253Y-23736054D01*
X61195304Y-23819085D01*
X61162686Y-23880348D01*
X61148278Y-23891523D01*
X61074739Y-23917276D01*
X60979983Y-23926401D01*
X60889778Y-23918045D01*
X60829891Y-23891357D01*
X60822919Y-23882025D01*
X60802527Y-23819881D01*
X60794325Y-23734274D01*
X60797303Y-23672289D01*
X60823078Y-23592825D01*
X60884067Y-23552707D01*
X60990784Y-23541625D01*
X61024575Y-23542671D01*
G37*
G36*
X45671949Y-23542671D02*
G01*
X45776987Y-23568468D01*
X45837332Y-23631262D01*
X45856635Y-23734274D01*
X45856628Y-23736054D01*
X45842679Y-23819085D01*
X45810061Y-23880348D01*
X45795652Y-23891523D01*
X45722114Y-23917276D01*
X45627358Y-23926401D01*
X45537152Y-23918045D01*
X45477265Y-23891357D01*
X45470293Y-23882025D01*
X45449901Y-23819881D01*
X45441699Y-23734274D01*
X45444677Y-23672289D01*
X45470452Y-23592825D01*
X45531442Y-23552707D01*
X45638159Y-23541625D01*
X45671949Y-23542671D01*
G37*
G36*
X43893653Y-23542671D02*
G01*
X43998691Y-23568468D01*
X44059035Y-23631262D01*
X44078339Y-23734274D01*
X44078331Y-23736054D01*
X44064382Y-23819085D01*
X44031764Y-23880348D01*
X44017356Y-23891523D01*
X43943817Y-23917276D01*
X43849061Y-23926401D01*
X43758856Y-23918045D01*
X43698969Y-23891357D01*
X43691997Y-23882025D01*
X43671605Y-23819881D01*
X43663403Y-23734274D01*
X43666381Y-23672289D01*
X43692156Y-23592825D01*
X43753145Y-23552707D01*
X43859862Y-23541625D01*
X43893653Y-23542671D01*
G37*
G36*
X78575820Y-23215605D02*
G01*
X78772942Y-23216016D01*
X78919680Y-23217761D01*
X79024664Y-23221650D01*
X79096526Y-23228496D01*
X79143897Y-23239108D01*
X79175409Y-23254300D01*
X79199692Y-23274881D01*
X79238853Y-23328913D01*
X79258969Y-23393434D01*
X79244097Y-23447466D01*
X79199692Y-23511987D01*
X79198989Y-23512688D01*
X79174615Y-23533096D01*
X79142754Y-23548139D01*
X79094777Y-23558627D01*
X79022050Y-23565373D01*
X78915944Y-23569186D01*
X78767825Y-23570880D01*
X78569064Y-23571264D01*
X78427579Y-23570882D01*
X78237234Y-23567833D01*
X78095079Y-23560255D01*
X77994224Y-23546405D01*
X77927776Y-23524541D01*
X77888845Y-23492920D01*
X77870540Y-23449799D01*
X77865970Y-23393434D01*
X77867477Y-23357649D01*
X77879535Y-23309506D01*
X77909497Y-23273552D01*
X77964255Y-23248043D01*
X78050699Y-23231237D01*
X78175721Y-23221390D01*
X78346213Y-23216760D01*
X78569064Y-23215604D01*
X78575820Y-23215605D01*
G37*
%TD*%
M02*
