M48
; DRILL file {KiCad 9.0.4} date 2025-11-21T04:26:52-0500
; FORMAT={-:-/ absolute / metric / decimal}
; #@! TF.CreationDate,2025-11-21T04:26:52-05:00
; #@! TF.GenerationSoftware,Kicad,Pcbnew,9.0.4
; #@! TF.FileFunction,Plated,1,4,PTH
FMAT,2
METRIC
; #@! TA.AperFunction,Plated,PTH,ComponentDrill
T1C0.200
; #@! TA.AperFunction,Plated,PTH,ViaDrill
T2C0.300
; #@! TA.AperFunction,Plated,PTH,ComponentDrill
T3C0.750
; #@! TA.AperFunction,Plated,PTH,ComponentDrill
T4C1.000
; #@! TA.AperFunction,Plated,PTH,ComponentDrill
T5C1.100
; #@! TA.AperFunction,Plated,PTH,ComponentDrill
T6C2.500
; #@! TA.AperFunction,Plated,PTH,ComponentDrill
T7C2.700
%
G90
G05
T1
X72.757Y-61.967
X72.757Y-63.492
X73.519Y-61.205
X73.519Y-62.73
X73.519Y-64.255
X74.282Y-61.967
X74.282Y-63.492
X75.044Y-61.205
X75.044Y-62.73
X75.044Y-64.255
X75.807Y-61.967
X75.807Y-63.492
T2
X16.9Y-31.5
X16.9Y-36.5
X16.9Y-41.5
X16.9Y-46.5
X16.9Y-51.5
X16.9Y-71.5
X16.912Y-16.1
X17.023Y-21.4
X17.023Y-27.0
X21.1Y-35.9
X21.25Y-20.5
X21.25Y-24.25
X21.9Y-16.5
X21.9Y-26.5
X21.9Y-46.5
X21.9Y-51.5
X21.9Y-56.5
X21.9Y-61.5
X21.9Y-66.5
X21.9Y-71.5
X21.9Y-76.5
X23.4Y-33.6
X23.4Y-38.1
X24.0Y-22.25
X25.7Y-35.9
X26.9Y-16.5
X26.9Y-26.5
X26.9Y-41.5
X26.9Y-51.5
X26.9Y-61.5
X26.9Y-66.5
X26.9Y-71.5
X26.9Y-76.5
X29.85Y-28.75
X30.0Y-18.2
X31.9Y-56.5
X31.9Y-61.5
X31.9Y-66.5
X31.9Y-71.5
X31.9Y-76.5
X32.8Y-14.8
X33.5Y-25.0
X33.5Y-26.5
X33.5Y-27.75
X33.5Y-29.5
X33.6Y-14.1
X35.0Y-21.0
X36.086Y-22.114
X36.9Y-46.5
X36.9Y-56.5
X36.9Y-61.5
X36.9Y-66.5
X36.9Y-71.5
X36.9Y-76.5
X37.5Y-64.3
X38.8Y-43.1
X40.8Y-62.4
X41.0Y-60.9
X41.127Y-39.873
X41.9Y-46.5
X41.9Y-51.5
X41.9Y-56.5
X41.9Y-66.5
X41.9Y-71.5
X41.9Y-76.5
X42.0Y-30.5
X43.0Y-64.6
X43.325Y-43.1
X46.9Y-31.5
X46.9Y-36.5
X46.9Y-41.5
X46.9Y-46.5
X46.9Y-51.5
X46.9Y-56.5
X46.9Y-61.5
X46.9Y-71.5
X46.9Y-76.5
X51.6Y-16.75
X51.8Y-24.2
X51.9Y-26.5
X51.9Y-31.5
X51.9Y-41.5
X51.9Y-46.5
X51.9Y-51.5
X51.9Y-56.5
X51.9Y-61.5
X52.3Y-19.3
X52.35Y-22.15
X56.9Y-16.5
X56.9Y-21.5
X56.9Y-31.5
X56.9Y-41.5
X56.9Y-46.5
X56.9Y-51.5
X59.527Y-51.975
X60.175Y-15.087
X60.7Y-55.72
X60.938Y-19.725
X61.9Y-26.5
X61.9Y-36.5
X61.9Y-46.5
X62.887Y-56.95
X62.887Y-64.25
X63.188Y-31.925
X63.587Y-42.575
X64.938Y-29.425
X65.475Y-39.337
X66.688Y-31.925
X66.9Y-61.5
X66.9Y-66.5
X66.9Y-69.7
X67.0Y-50.3
X68.3Y-40.9
X68.4Y-43.2
X68.626Y-39.612
X69.587Y-15.775
X69.796Y-50.304
X70.438Y-16.525
X70.638Y-17.925
X71.9Y-21.5
X71.9Y-26.5
X71.9Y-66.5
X76.9Y-26.5
X76.9Y-66.5
X77.4Y-24.9
X77.638Y-44.235
X78.037Y-36.775
X79.352Y-50.9
X79.938Y-34.875
X80.037Y-38.475
X80.037Y-41.675
X80.688Y-15.766
X81.1Y-24.9
X81.287Y-16.616
X81.337Y-17.816
X81.837Y-32.975
X81.9Y-46.5
X83.698Y-50.398
X85.45Y-34.0
X85.837Y-41.175
X86.054Y-36.1
X86.75Y-69.3
X86.9Y-21.5
X86.9Y-31.5
X88.35Y-64.4
T3
X67.487Y-17.475
X69.487Y-17.475
X78.138Y-17.466
X80.138Y-17.466
X87.5Y-46.9
X87.5Y-48.9
X87.5Y-50.9
X87.5Y-56.5
X87.5Y-58.5
X87.5Y-60.5
T4
X18.085Y-55.86
X18.085Y-58.4
X18.085Y-60.94
X18.085Y-63.48
X18.085Y-66.02
X18.085Y-68.56
X30.18Y-52.2
X32.72Y-52.2
X35.26Y-52.2
X37.8Y-52.2
T5
X49.6Y-55.25
X49.6Y-59.75
X49.6Y-65.2
X49.6Y-69.7
X56.1Y-55.25
X56.1Y-59.75
X56.1Y-65.2
X56.1Y-69.7
T6
X15.11Y-75.1
X89.044Y-15.1
T7
X23.4Y-35.9
X23.4Y-40.9
M30
