%TF.GenerationSoftware,KiCad,Pcbnew,9.0.4*%
%TF.CreationDate,2025-11-01T22:13:15-04:00*%
%TF.ProjectId,power_distribution,706f7765-725f-4646-9973-747269627574,v1*%
%TF.SameCoordinates,Original*%
%TF.FileFunction,Soldermask,Bot*%
%TF.FilePolarity,Negative*%
%FSLAX46Y46*%
G04 Gerber Fmt 4.6, Leading zero omitted, Abs format (unit mm)*
G04 Created by KiCad (PCBNEW 9.0.4) date 2025-11-01 22:13:15*
%MOMM*%
%LPD*%
G01*
G04 APERTURE LIST*
G04 Aperture macros list*
%AMRoundRect*
0 Rectangle with rounded corners*
0 $1 Rounding radius*
0 $2 $3 $4 $5 $6 $7 $8 $9 X,Y pos of 4 corners*
0 Add a 4 corners polygon primitive as box body*
4,1,4,$2,$3,$4,$5,$6,$7,$8,$9,$2,$3,0*
0 Add four circle primitives for the rounded corners*
1,1,$1+$1,$2,$3*
1,1,$1+$1,$4,$5*
1,1,$1+$1,$6,$7*
1,1,$1+$1,$8,$9*
0 Add four rect primitives between the rounded corners*
20,1,$1+$1,$2,$3,$4,$5,0*
20,1,$1+$1,$4,$5,$6,$7,0*
20,1,$1+$1,$6,$7,$8,$9,0*
20,1,$1+$1,$8,$9,$2,$3,0*%
G04 Aperture macros list end*
%ADD10C,0.800000*%
%ADD11C,5.000000*%
%ADD12RoundRect,0.250000X0.350000X0.625000X-0.350000X0.625000X-0.350000X-0.625000X0.350000X-0.625000X0*%
%ADD13O,1.200000X1.750000*%
%ADD14RoundRect,0.750000X-0.750000X0.750000X-0.750000X-0.750000X0.750000X-0.750000X0.750000X0.750000X0*%
%ADD15C,3.000000*%
G04 APERTURE END LIST*
D10*
%TO.C,H1*%
X17400000Y-15600000D03*
X16850825Y-16925825D03*
X16850825Y-14274175D03*
X15525000Y-17475000D03*
D11*
X15525000Y-15600000D03*
D10*
X15525000Y-13725000D03*
X14199175Y-16925825D03*
X14199175Y-14274175D03*
X13650000Y-15600000D03*
%TD*%
%TO.C,H4*%
X102450000Y-43400000D03*
X102999175Y-42074175D03*
X102999175Y-44725825D03*
X104325000Y-41525000D03*
D11*
X104325000Y-43400000D03*
D10*
X104325000Y-45275000D03*
X105650825Y-42074175D03*
X105650825Y-44725825D03*
X106200000Y-43400000D03*
%TD*%
%TO.C,H3*%
X13650000Y-43400000D03*
X14199175Y-42074175D03*
X14199175Y-44725825D03*
X15525000Y-41525000D03*
D11*
X15525000Y-43400000D03*
D10*
X15525000Y-45275000D03*
X16850825Y-42074175D03*
X16850825Y-44725825D03*
X17400000Y-43400000D03*
%TD*%
%TO.C,H2*%
X102399175Y-15674175D03*
X102948350Y-14348350D03*
X102948350Y-17000000D03*
X104274175Y-13799175D03*
D11*
X104274175Y-15674175D03*
D10*
X104274175Y-17549175D03*
X105600000Y-14348350D03*
X105600000Y-17000000D03*
X106149175Y-15674175D03*
%TD*%
D12*
%TO.C,J2*%
X66262500Y-20709700D03*
D13*
X64262500Y-20709700D03*
%TD*%
D12*
%TO.C,J4*%
X90225000Y-20562500D03*
D13*
X88225000Y-20562500D03*
%TD*%
D12*
%TO.C,J3*%
X80262500Y-20609700D03*
D13*
X78262500Y-20609700D03*
%TD*%
D14*
%TO.C,J1*%
X22200000Y-35800000D03*
D15*
X22200000Y-40800000D03*
%TD*%
D12*
%TO.C,J5*%
X97175000Y-20562500D03*
D13*
X95175000Y-20562500D03*
%TD*%
M02*
