%TF.GenerationSoftware,KiCad,Pcbnew,9.0.4*%
%TF.CreationDate,2025-11-21T11:06:10-05:00*%
%TF.ProjectId,merged_lights,6d657267-6564-45f6-9c69-676874732e6b,rev?*%
%TF.SameCoordinates,Original*%
%TF.FileFunction,Soldermask,Top*%
%TF.FilePolarity,Negative*%
%FSLAX46Y46*%
G04 Gerber Fmt 4.6, Leading zero omitted, Abs format (unit mm)*
G04 Created by KiCad (PCBNEW 9.0.4) date 2025-11-21 11:06:10*
%MOMM*%
%LPD*%
G01*
G04 APERTURE LIST*
G04 Aperture macros list*
%AMRoundRect*
0 Rectangle with rounded corners*
0 $1 Rounding radius*
0 $2 $3 $4 $5 $6 $7 $8 $9 X,Y pos of 4 corners*
0 Add a 4 corners polygon primitive as box body*
4,1,4,$2,$3,$4,$5,$6,$7,$8,$9,$2,$3,0*
0 Add four circle primitives for the rounded corners*
1,1,$1+$1,$2,$3*
1,1,$1+$1,$4,$5*
1,1,$1+$1,$6,$7*
1,1,$1+$1,$8,$9*
0 Add four rect primitives between the rounded corners*
20,1,$1+$1,$2,$3,$4,$5,0*
20,1,$1+$1,$4,$5,$6,$7,0*
20,1,$1+$1,$6,$7,$8,$9,0*
20,1,$1+$1,$8,$9,$2,$3,0*%
G04 Aperture macros list end*
%ADD10C,1.700000*%
%ADD11R,1.700000X1.700000*%
%ADD12RoundRect,0.250000X-0.475000X0.337500X-0.475000X-0.337500X0.475000X-0.337500X0.475000X0.337500X0*%
%ADD13O,1.200000X1.750000*%
%ADD14RoundRect,0.250000X0.350000X0.625000X-0.350000X0.625000X-0.350000X-0.625000X0.350000X-0.625000X0*%
%ADD15RoundRect,0.250000X-0.650000X1.000000X-0.650000X-1.000000X0.650000X-1.000000X0.650000X1.000000X0*%
%ADD16RoundRect,0.250000X0.350000X0.450000X-0.350000X0.450000X-0.350000X-0.450000X0.350000X-0.450000X0*%
%ADD17RoundRect,0.250000X0.400000X0.450000X-0.400000X0.450000X-0.400000X-0.450000X0.400000X-0.450000X0*%
%ADD18C,2.000000*%
%ADD19RoundRect,0.250000X-0.350000X-0.450000X0.350000X-0.450000X0.350000X0.450000X-0.350000X0.450000X0*%
%ADD20RoundRect,0.250000X-0.350000X-0.625000X0.350000X-0.625000X0.350000X0.625000X-0.350000X0.625000X0*%
%ADD21RoundRect,0.250000X-0.625000X0.350000X-0.625000X-0.350000X0.625000X-0.350000X0.625000X0.350000X0*%
%ADD22O,1.750000X1.200000*%
%ADD23RoundRect,0.250000X0.625000X-0.350000X0.625000X0.350000X-0.625000X0.350000X-0.625000X-0.350000X0*%
%ADD24RoundRect,0.150000X-0.587500X-0.150000X0.587500X-0.150000X0.587500X0.150000X-0.587500X0.150000X0*%
%ADD25RoundRect,0.150000X0.587500X0.150000X-0.587500X0.150000X-0.587500X-0.150000X0.587500X-0.150000X0*%
%ADD26R,1.112999X0.450000*%
%ADD27R,0.500000X0.813000*%
%ADD28RoundRect,0.250000X0.337500X0.475000X-0.337500X0.475000X-0.337500X-0.475000X0.337500X-0.475000X0*%
%ADD29RoundRect,0.137500X-0.137500X0.600000X-0.137500X-0.600000X0.137500X-0.600000X0.137500X0.600000X0*%
%ADD30RoundRect,0.137500X-0.600000X0.137500X-0.600000X-0.137500X0.600000X-0.137500X0.600000X0.137500X0*%
%ADD31RoundRect,0.250000X-0.337500X-0.475000X0.337500X-0.475000X0.337500X0.475000X-0.337500X0.475000X0*%
%ADD32C,0.800000*%
%ADD33C,5.000000*%
%ADD34R,2.100000X3.400000*%
G04 APERTURE END LIST*
D10*
%TO.C,J3*%
X28790000Y-44050000D03*
X28790000Y-46590000D03*
X26250000Y-44050000D03*
X26250000Y-46590000D03*
X23710000Y-44050000D03*
D11*
X23710000Y-46590000D03*
%TD*%
D12*
%TO.C,C9*%
X57900000Y-70900000D03*
X57900000Y-68825000D03*
%TD*%
D13*
%TO.C,J6*%
X46650000Y-70650000D03*
D14*
X48650000Y-70650000D03*
%TD*%
D15*
%TO.C,D10*%
X52900000Y-71900000D03*
X52900000Y-67900000D03*
%TD*%
D13*
%TO.C,J4*%
X25450000Y-70650000D03*
D14*
X27450000Y-70650000D03*
%TD*%
D12*
%TO.C,C8*%
X55795858Y-70942941D03*
X55795858Y-68867941D03*
%TD*%
D16*
%TO.C,R15*%
X24600000Y-54681965D03*
X26600000Y-54681965D03*
%TD*%
D17*
%TO.C,D9*%
X36250000Y-49100000D03*
X39150000Y-49100000D03*
%TD*%
D18*
%TO.C,SW1*%
X56250000Y-48400000D03*
X62750000Y-48400000D03*
X56250000Y-52900000D03*
X62750000Y-52900000D03*
%TD*%
D13*
%TO.C,J5*%
X36200000Y-70650000D03*
D14*
X38200000Y-70650000D03*
%TD*%
D19*
%TO.C,R1*%
X67300000Y-50617354D03*
X69300000Y-50617354D03*
%TD*%
D16*
%TO.C,R16*%
X26600000Y-50481965D03*
X24600000Y-50481965D03*
%TD*%
D20*
%TO.C,J8*%
X36700000Y-44500000D03*
D13*
X38700000Y-44500000D03*
%TD*%
D21*
%TO.C,J2*%
X79687236Y-50679556D03*
D22*
X79687236Y-52679556D03*
X79687236Y-54679556D03*
X79687236Y-56679556D03*
X79687236Y-58679556D03*
X79687236Y-60679556D03*
X79687236Y-62679556D03*
X79687236Y-64679556D03*
%TD*%
D23*
%TO.C,J9*%
X14435389Y-64617354D03*
D22*
X14435389Y-62617354D03*
X14435389Y-60617354D03*
X14435389Y-58617354D03*
X14435389Y-56617354D03*
X14435389Y-54617354D03*
X14435389Y-52617354D03*
X14435389Y-50617354D03*
%TD*%
D16*
%TO.C,R17*%
X53600000Y-50700000D03*
X51600000Y-50700000D03*
%TD*%
D24*
%TO.C,Q2*%
X73400000Y-55767354D03*
X73400000Y-57667354D03*
X75275000Y-56717354D03*
%TD*%
D25*
%TO.C,Q8*%
X20711587Y-51631965D03*
X20711587Y-49731965D03*
X18836587Y-50681965D03*
%TD*%
D24*
%TO.C,Q1*%
X73400000Y-51767354D03*
X73400000Y-53667354D03*
X75275000Y-52717354D03*
%TD*%
D19*
%TO.C,R4*%
X67300000Y-62656529D03*
X69300000Y-62656529D03*
%TD*%
D26*
%TO.C,U2*%
X59818499Y-60981503D03*
X59818499Y-60181502D03*
X59818499Y-59381501D03*
X59818499Y-58581503D03*
X59818499Y-57781502D03*
X59818499Y-56981503D03*
D27*
X58450000Y-57263004D03*
D26*
X57081501Y-56981501D03*
X57081501Y-57781502D03*
X57081501Y-58581503D03*
X57081501Y-59381501D03*
X57081501Y-60181502D03*
X57081501Y-60981501D03*
D27*
X58450000Y-60700000D03*
%TD*%
D24*
%TO.C,Q4*%
X73400000Y-63767354D03*
X73400000Y-65667354D03*
X75275000Y-64717354D03*
%TD*%
D12*
%TO.C,C5*%
X47300000Y-63979854D03*
X47300000Y-66054854D03*
%TD*%
D25*
%TO.C,Q5*%
X20711587Y-63631965D03*
X20711587Y-61731965D03*
X18836587Y-62681965D03*
%TD*%
D19*
%TO.C,R2*%
X67300000Y-54630412D03*
X69300000Y-54630412D03*
%TD*%
D16*
%TO.C,R13*%
X26600000Y-62681965D03*
X24600000Y-62681965D03*
%TD*%
D25*
%TO.C,Q6*%
X20711587Y-59631965D03*
X20711587Y-57731965D03*
X18836587Y-58681965D03*
%TD*%
D19*
%TO.C,R7*%
X67300000Y-60650000D03*
X69300000Y-60650000D03*
%TD*%
D16*
%TO.C,R10*%
X26600000Y-60681965D03*
X24600000Y-60681965D03*
%TD*%
D28*
%TO.C,C11*%
X38737500Y-53743864D03*
X36662500Y-53743864D03*
%TD*%
D24*
%TO.C,Q3*%
X73400000Y-59767354D03*
X73400000Y-61667354D03*
X75275000Y-60717354D03*
%TD*%
D16*
%TO.C,R9*%
X26600000Y-64681965D03*
X24600000Y-64681965D03*
%TD*%
D19*
%TO.C,R8*%
X67314021Y-64663058D03*
X69314021Y-64663058D03*
%TD*%
D29*
%TO.C,U1*%
X49900000Y-53554854D03*
X49100000Y-53554854D03*
X48300000Y-53554854D03*
X47500000Y-53554854D03*
X46700000Y-53554854D03*
X45900000Y-53554854D03*
X45100000Y-53554854D03*
X44300000Y-53554854D03*
D30*
X42937500Y-54917354D03*
X42937500Y-55717354D03*
X42937500Y-56517354D03*
X42937500Y-57317354D03*
X42937500Y-58117354D03*
X42937500Y-58917354D03*
X42937500Y-59717354D03*
X42937500Y-60517354D03*
D29*
X44300000Y-61879854D03*
X45100000Y-61879854D03*
X45900000Y-61879854D03*
X46700000Y-61879854D03*
X47500000Y-61879854D03*
X48300000Y-61879854D03*
X49100000Y-61879854D03*
X49900000Y-61879854D03*
D30*
X51262500Y-60517354D03*
X51262500Y-59717354D03*
X51262500Y-58917354D03*
X51262500Y-58117354D03*
X51262500Y-57317354D03*
X51262500Y-56517354D03*
X51262500Y-55717354D03*
X51262500Y-54917354D03*
%TD*%
D19*
%TO.C,R3*%
X67300000Y-58643471D03*
X69300000Y-58643471D03*
%TD*%
D31*
%TO.C,C1*%
X46662500Y-51200000D03*
X48737500Y-51200000D03*
%TD*%
D16*
%TO.C,R14*%
X26600000Y-58681965D03*
X24600000Y-58681965D03*
%TD*%
D28*
%TO.C,C12*%
X38737500Y-51700000D03*
X36662500Y-51700000D03*
%TD*%
D19*
%TO.C,R6*%
X67300000Y-56636941D03*
X69300000Y-56636941D03*
%TD*%
D25*
%TO.C,Q7*%
X20711587Y-55531965D03*
X20711587Y-53631965D03*
X18836587Y-54581965D03*
%TD*%
D16*
%TO.C,R12*%
X26600000Y-52581965D03*
X24600000Y-52581965D03*
%TD*%
D12*
%TO.C,C2*%
X45300000Y-63979854D03*
X45300000Y-66054854D03*
%TD*%
D32*
%TO.C,H1*%
X76925000Y-43550000D03*
X77474175Y-42224175D03*
X77474175Y-44875825D03*
X78800000Y-41675000D03*
D33*
X78800000Y-43550000D03*
D32*
X78800000Y-45425000D03*
X80125825Y-42224175D03*
X80125825Y-44875825D03*
X80675000Y-43550000D03*
%TD*%
%TO.C,H2*%
X13525000Y-43550000D03*
X14074175Y-42224175D03*
X14074175Y-44875825D03*
X15400000Y-41675000D03*
D33*
X15400000Y-43550000D03*
D32*
X15400000Y-45425000D03*
X16725825Y-42224175D03*
X16725825Y-44875825D03*
X17275000Y-43550000D03*
%TD*%
D16*
%TO.C,R11*%
X26600000Y-56681965D03*
X24600000Y-56681965D03*
%TD*%
D19*
%TO.C,R5*%
X67300000Y-52623883D03*
X69300000Y-52623883D03*
%TD*%
D32*
%TO.C,H4*%
X76925000Y-71950000D03*
X77474175Y-70624175D03*
X77474175Y-73275825D03*
X78800000Y-70075000D03*
D33*
X78800000Y-71950000D03*
D32*
X78800000Y-73825000D03*
X80125825Y-70624175D03*
X80125825Y-73275825D03*
X80675000Y-71950000D03*
%TD*%
%TO.C,H3*%
X13525000Y-71950000D03*
X14074175Y-70624175D03*
X14074175Y-73275825D03*
X15400000Y-70075000D03*
D33*
X15400000Y-71950000D03*
D32*
X15400000Y-73825000D03*
X16725825Y-70624175D03*
X16725825Y-73275825D03*
X17275000Y-71950000D03*
%TD*%
D34*
%TO.C,D2*%
X57575000Y-89300000D03*
X54925000Y-89300000D03*
%TD*%
%TO.C,D3*%
X39200000Y-89300000D03*
X36550000Y-89300000D03*
%TD*%
D13*
%TO.C,J1*%
X40100000Y-80400000D03*
X42100000Y-80400000D03*
X44100000Y-80400000D03*
X46100000Y-80400000D03*
X48100000Y-80400000D03*
X50100000Y-80400000D03*
X52100000Y-80400000D03*
D14*
X54100000Y-80400000D03*
%TD*%
D34*
%TO.C,D1*%
X75950000Y-89300000D03*
X73300000Y-89300000D03*
%TD*%
%TO.C,D4*%
X20825000Y-89300000D03*
X18175000Y-89300000D03*
%TD*%
D33*
%TO.C,H7*%
X78800000Y-78600000D03*
%TD*%
%TO.C,H11*%
X78800000Y-100000000D03*
%TD*%
%TO.C,H6*%
X15400000Y-100000000D03*
%TD*%
%TO.C,H5*%
X15400000Y-78600000D03*
%TD*%
%TO.C,H12*%
X78800000Y-36900000D03*
%TD*%
%TO.C,H10*%
X15400000Y-36900000D03*
%TD*%
%TO.C,H9*%
X78800000Y-15500000D03*
%TD*%
%TO.C,H8*%
X15400000Y-15500000D03*
%TD*%
D34*
%TO.C,D5*%
X73300000Y-26200000D03*
X75950000Y-26200000D03*
%TD*%
%TO.C,D6*%
X54925000Y-26200000D03*
X57575000Y-26200000D03*
%TD*%
%TO.C,D7*%
X36550000Y-26200000D03*
X39200000Y-26200000D03*
%TD*%
%TO.C,D8*%
X18175000Y-26200000D03*
X20825000Y-26200000D03*
%TD*%
D14*
%TO.C,J7*%
X54150000Y-17400000D03*
D13*
X52150000Y-17400000D03*
X50150000Y-17400000D03*
X48150000Y-17400000D03*
X46150000Y-17400000D03*
X44150000Y-17400000D03*
X42150000Y-17400000D03*
X40150000Y-17400000D03*
%TD*%
M02*
