%TF.GenerationSoftware,KiCad,Pcbnew,9.0.4*%
%TF.CreationDate,2025-11-21T11:06:10-05:00*%
%TF.ProjectId,merged_lights,6d657267-6564-45f6-9c69-676874732e6b,rev?*%
%TF.SameCoordinates,Original*%
%TF.FileFunction,Legend,Top*%
%TF.FilePolarity,Positive*%
%FSLAX46Y46*%
G04 Gerber Fmt 4.6, Leading zero omitted, Abs format (unit mm)*
G04 Created by KiCad (PCBNEW 9.0.4) date 2025-11-21 11:06:10*
%MOMM*%
%LPD*%
G01*
G04 APERTURE LIST*
%ADD10C,0.200000*%
%ADD11C,0.230000*%
%ADD12C,0.150000*%
%ADD13C,0.254000*%
%ADD14C,0.000000*%
%ADD15C,0.120000*%
%ADD16C,0.152400*%
%ADD17C,0.100000*%
G04 APERTURE END LIST*
D10*
X77470569Y-68252219D02*
X77470569Y-67252219D01*
X77470569Y-67728409D02*
X78041997Y-67728409D01*
X78041997Y-68252219D02*
X78041997Y-67252219D01*
X78518188Y-67728409D02*
X78851521Y-67728409D01*
X78994378Y-68252219D02*
X78518188Y-68252219D01*
X78518188Y-68252219D02*
X78518188Y-67252219D01*
X78518188Y-67252219D02*
X78994378Y-67252219D01*
X79375331Y-67966504D02*
X79851521Y-67966504D01*
X79280093Y-68252219D02*
X79613426Y-67252219D01*
X79613426Y-67252219D02*
X79946759Y-68252219D01*
X80280093Y-68252219D02*
X80280093Y-67252219D01*
X80280093Y-67252219D02*
X80518188Y-67252219D01*
X80518188Y-67252219D02*
X80661045Y-67299838D01*
X80661045Y-67299838D02*
X80756283Y-67395076D01*
X80756283Y-67395076D02*
X80803902Y-67490314D01*
X80803902Y-67490314D02*
X80851521Y-67680790D01*
X80851521Y-67680790D02*
X80851521Y-67823647D01*
X80851521Y-67823647D02*
X80803902Y-68014123D01*
X80803902Y-68014123D02*
X80756283Y-68109361D01*
X80756283Y-68109361D02*
X80661045Y-68204600D01*
X80661045Y-68204600D02*
X80518188Y-68252219D01*
X80518188Y-68252219D02*
X80280093Y-68252219D01*
D11*
X42980345Y-45767670D02*
X42597012Y-45767670D01*
X42597012Y-46370051D02*
X42597012Y-45220051D01*
X42597012Y-45220051D02*
X43144631Y-45220051D01*
X43527964Y-45329575D02*
X43582726Y-45274813D01*
X43582726Y-45274813D02*
X43692250Y-45220051D01*
X43692250Y-45220051D02*
X43966059Y-45220051D01*
X43966059Y-45220051D02*
X44075583Y-45274813D01*
X44075583Y-45274813D02*
X44130345Y-45329575D01*
X44130345Y-45329575D02*
X44185107Y-45439099D01*
X44185107Y-45439099D02*
X44185107Y-45548623D01*
X44185107Y-45548623D02*
X44130345Y-45712909D01*
X44130345Y-45712909D02*
X43473202Y-46370051D01*
X43473202Y-46370051D02*
X44185107Y-46370051D01*
X45225583Y-45220051D02*
X44677964Y-45220051D01*
X44677964Y-45220051D02*
X44623202Y-45767670D01*
X44623202Y-45767670D02*
X44677964Y-45712909D01*
X44677964Y-45712909D02*
X44787488Y-45658147D01*
X44787488Y-45658147D02*
X45061297Y-45658147D01*
X45061297Y-45658147D02*
X45170821Y-45712909D01*
X45170821Y-45712909D02*
X45225583Y-45767670D01*
X45225583Y-45767670D02*
X45280345Y-45877194D01*
X45280345Y-45877194D02*
X45280345Y-46151004D01*
X45280345Y-46151004D02*
X45225583Y-46260528D01*
X45225583Y-46260528D02*
X45170821Y-46315290D01*
X45170821Y-46315290D02*
X45061297Y-46370051D01*
X45061297Y-46370051D02*
X44787488Y-46370051D01*
X44787488Y-46370051D02*
X44677964Y-46315290D01*
X44677964Y-46315290D02*
X44623202Y-46260528D01*
X46594630Y-46315290D02*
X46758916Y-46370051D01*
X46758916Y-46370051D02*
X47032725Y-46370051D01*
X47032725Y-46370051D02*
X47142249Y-46315290D01*
X47142249Y-46315290D02*
X47197011Y-46260528D01*
X47197011Y-46260528D02*
X47251773Y-46151004D01*
X47251773Y-46151004D02*
X47251773Y-46041480D01*
X47251773Y-46041480D02*
X47197011Y-45931956D01*
X47197011Y-45931956D02*
X47142249Y-45877194D01*
X47142249Y-45877194D02*
X47032725Y-45822432D01*
X47032725Y-45822432D02*
X46813678Y-45767670D01*
X46813678Y-45767670D02*
X46704154Y-45712909D01*
X46704154Y-45712909D02*
X46649392Y-45658147D01*
X46649392Y-45658147D02*
X46594630Y-45548623D01*
X46594630Y-45548623D02*
X46594630Y-45439099D01*
X46594630Y-45439099D02*
X46649392Y-45329575D01*
X46649392Y-45329575D02*
X46704154Y-45274813D01*
X46704154Y-45274813D02*
X46813678Y-45220051D01*
X46813678Y-45220051D02*
X47087487Y-45220051D01*
X47087487Y-45220051D02*
X47251773Y-45274813D01*
X47744630Y-46370051D02*
X47744630Y-45220051D01*
X47854154Y-45931956D02*
X48182725Y-46370051D01*
X48182725Y-45603385D02*
X47744630Y-46041480D01*
X49168439Y-46370051D02*
X49168439Y-45767670D01*
X49168439Y-45767670D02*
X49113677Y-45658147D01*
X49113677Y-45658147D02*
X49004153Y-45603385D01*
X49004153Y-45603385D02*
X48785106Y-45603385D01*
X48785106Y-45603385D02*
X48675582Y-45658147D01*
X49168439Y-46315290D02*
X49058915Y-46370051D01*
X49058915Y-46370051D02*
X48785106Y-46370051D01*
X48785106Y-46370051D02*
X48675582Y-46315290D01*
X48675582Y-46315290D02*
X48620820Y-46205766D01*
X48620820Y-46205766D02*
X48620820Y-46096242D01*
X48620820Y-46096242D02*
X48675582Y-45986718D01*
X48675582Y-45986718D02*
X48785106Y-45931956D01*
X48785106Y-45931956D02*
X49058915Y-45931956D01*
X49058915Y-45931956D02*
X49168439Y-45877194D01*
X49551772Y-45603385D02*
X49989868Y-45603385D01*
X49716058Y-45220051D02*
X49716058Y-46205766D01*
X49716058Y-46205766D02*
X49770820Y-46315290D01*
X49770820Y-46315290D02*
X49880344Y-46370051D01*
X49880344Y-46370051D02*
X49989868Y-46370051D01*
X50811296Y-46315290D02*
X50701772Y-46370051D01*
X50701772Y-46370051D02*
X50482725Y-46370051D01*
X50482725Y-46370051D02*
X50373201Y-46315290D01*
X50373201Y-46315290D02*
X50318439Y-46205766D01*
X50318439Y-46205766D02*
X50318439Y-45767670D01*
X50318439Y-45767670D02*
X50373201Y-45658147D01*
X50373201Y-45658147D02*
X50482725Y-45603385D01*
X50482725Y-45603385D02*
X50701772Y-45603385D01*
X50701772Y-45603385D02*
X50811296Y-45658147D01*
X50811296Y-45658147D02*
X50866058Y-45767670D01*
X50866058Y-45767670D02*
X50866058Y-45877194D01*
X50866058Y-45877194D02*
X50318439Y-45986718D01*
X51358915Y-46370051D02*
X51358915Y-45220051D01*
X51358915Y-45658147D02*
X51468439Y-45603385D01*
X51468439Y-45603385D02*
X51687486Y-45603385D01*
X51687486Y-45603385D02*
X51797010Y-45658147D01*
X51797010Y-45658147D02*
X51851772Y-45712909D01*
X51851772Y-45712909D02*
X51906534Y-45822432D01*
X51906534Y-45822432D02*
X51906534Y-46151004D01*
X51906534Y-46151004D02*
X51851772Y-46260528D01*
X51851772Y-46260528D02*
X51797010Y-46315290D01*
X51797010Y-46315290D02*
X51687486Y-46370051D01*
X51687486Y-46370051D02*
X51468439Y-46370051D01*
X51468439Y-46370051D02*
X51358915Y-46315290D01*
X52563677Y-46370051D02*
X52454153Y-46315290D01*
X52454153Y-46315290D02*
X52399391Y-46260528D01*
X52399391Y-46260528D02*
X52344629Y-46151004D01*
X52344629Y-46151004D02*
X52344629Y-45822432D01*
X52344629Y-45822432D02*
X52399391Y-45712909D01*
X52399391Y-45712909D02*
X52454153Y-45658147D01*
X52454153Y-45658147D02*
X52563677Y-45603385D01*
X52563677Y-45603385D02*
X52727962Y-45603385D01*
X52727962Y-45603385D02*
X52837486Y-45658147D01*
X52837486Y-45658147D02*
X52892248Y-45712909D01*
X52892248Y-45712909D02*
X52947010Y-45822432D01*
X52947010Y-45822432D02*
X52947010Y-46151004D01*
X52947010Y-46151004D02*
X52892248Y-46260528D01*
X52892248Y-46260528D02*
X52837486Y-46315290D01*
X52837486Y-46315290D02*
X52727962Y-46370051D01*
X52727962Y-46370051D02*
X52563677Y-46370051D01*
X53932724Y-46370051D02*
X53932724Y-45767670D01*
X53932724Y-45767670D02*
X53877962Y-45658147D01*
X53877962Y-45658147D02*
X53768438Y-45603385D01*
X53768438Y-45603385D02*
X53549391Y-45603385D01*
X53549391Y-45603385D02*
X53439867Y-45658147D01*
X53932724Y-46315290D02*
X53823200Y-46370051D01*
X53823200Y-46370051D02*
X53549391Y-46370051D01*
X53549391Y-46370051D02*
X53439867Y-46315290D01*
X53439867Y-46315290D02*
X53385105Y-46205766D01*
X53385105Y-46205766D02*
X53385105Y-46096242D01*
X53385105Y-46096242D02*
X53439867Y-45986718D01*
X53439867Y-45986718D02*
X53549391Y-45931956D01*
X53549391Y-45931956D02*
X53823200Y-45931956D01*
X53823200Y-45931956D02*
X53932724Y-45877194D01*
X54480343Y-46370051D02*
X54480343Y-45603385D01*
X54480343Y-45822432D02*
X54535105Y-45712909D01*
X54535105Y-45712909D02*
X54589867Y-45658147D01*
X54589867Y-45658147D02*
X54699391Y-45603385D01*
X54699391Y-45603385D02*
X54808914Y-45603385D01*
X55685105Y-46370051D02*
X55685105Y-45220051D01*
X55685105Y-46315290D02*
X55575581Y-46370051D01*
X55575581Y-46370051D02*
X55356534Y-46370051D01*
X55356534Y-46370051D02*
X55247010Y-46315290D01*
X55247010Y-46315290D02*
X55192248Y-46260528D01*
X55192248Y-46260528D02*
X55137486Y-46151004D01*
X55137486Y-46151004D02*
X55137486Y-45822432D01*
X55137486Y-45822432D02*
X55192248Y-45712909D01*
X55192248Y-45712909D02*
X55247010Y-45658147D01*
X55247010Y-45658147D02*
X55356534Y-45603385D01*
X55356534Y-45603385D02*
X55575581Y-45603385D01*
X55575581Y-45603385D02*
X55685105Y-45658147D01*
X57382724Y-46753385D02*
X57382724Y-45110528D01*
X59080342Y-46370051D02*
X59080342Y-45220051D01*
X59080342Y-45767670D02*
X59737485Y-45767670D01*
X59737485Y-46370051D02*
X59737485Y-45220051D01*
X60723199Y-46315290D02*
X60613675Y-46370051D01*
X60613675Y-46370051D02*
X60394628Y-46370051D01*
X60394628Y-46370051D02*
X60285104Y-46315290D01*
X60285104Y-46315290D02*
X60230342Y-46205766D01*
X60230342Y-46205766D02*
X60230342Y-45767670D01*
X60230342Y-45767670D02*
X60285104Y-45658147D01*
X60285104Y-45658147D02*
X60394628Y-45603385D01*
X60394628Y-45603385D02*
X60613675Y-45603385D01*
X60613675Y-45603385D02*
X60723199Y-45658147D01*
X60723199Y-45658147D02*
X60777961Y-45767670D01*
X60777961Y-45767670D02*
X60777961Y-45877194D01*
X60777961Y-45877194D02*
X60230342Y-45986718D01*
X61763675Y-46370051D02*
X61763675Y-45767670D01*
X61763675Y-45767670D02*
X61708913Y-45658147D01*
X61708913Y-45658147D02*
X61599389Y-45603385D01*
X61599389Y-45603385D02*
X61380342Y-45603385D01*
X61380342Y-45603385D02*
X61270818Y-45658147D01*
X61763675Y-46315290D02*
X61654151Y-46370051D01*
X61654151Y-46370051D02*
X61380342Y-46370051D01*
X61380342Y-46370051D02*
X61270818Y-46315290D01*
X61270818Y-46315290D02*
X61216056Y-46205766D01*
X61216056Y-46205766D02*
X61216056Y-46096242D01*
X61216056Y-46096242D02*
X61270818Y-45986718D01*
X61270818Y-45986718D02*
X61380342Y-45931956D01*
X61380342Y-45931956D02*
X61654151Y-45931956D01*
X61654151Y-45931956D02*
X61763675Y-45877194D01*
X62804151Y-46370051D02*
X62804151Y-45220051D01*
X62804151Y-46315290D02*
X62694627Y-46370051D01*
X62694627Y-46370051D02*
X62475580Y-46370051D01*
X62475580Y-46370051D02*
X62366056Y-46315290D01*
X62366056Y-46315290D02*
X62311294Y-46260528D01*
X62311294Y-46260528D02*
X62256532Y-46151004D01*
X62256532Y-46151004D02*
X62256532Y-45822432D01*
X62256532Y-45822432D02*
X62311294Y-45712909D01*
X62311294Y-45712909D02*
X62366056Y-45658147D01*
X62366056Y-45658147D02*
X62475580Y-45603385D01*
X62475580Y-45603385D02*
X62694627Y-45603385D01*
X62694627Y-45603385D02*
X62804151Y-45658147D01*
X65158912Y-46370051D02*
X65104151Y-46370051D01*
X65104151Y-46370051D02*
X64994627Y-46315290D01*
X64994627Y-46315290D02*
X64830341Y-46151004D01*
X64830341Y-46151004D02*
X64556531Y-45822432D01*
X64556531Y-45822432D02*
X64447008Y-45658147D01*
X64447008Y-45658147D02*
X64392246Y-45493861D01*
X64392246Y-45493861D02*
X64392246Y-45384337D01*
X64392246Y-45384337D02*
X64447008Y-45274813D01*
X64447008Y-45274813D02*
X64556531Y-45220051D01*
X64556531Y-45220051D02*
X64611293Y-45220051D01*
X64611293Y-45220051D02*
X64720817Y-45274813D01*
X64720817Y-45274813D02*
X64775579Y-45384337D01*
X64775579Y-45384337D02*
X64775579Y-45439099D01*
X64775579Y-45439099D02*
X64720817Y-45548623D01*
X64720817Y-45548623D02*
X64666055Y-45603385D01*
X64666055Y-45603385D02*
X64337484Y-45822432D01*
X64337484Y-45822432D02*
X64282722Y-45877194D01*
X64282722Y-45877194D02*
X64227960Y-45986718D01*
X64227960Y-45986718D02*
X64227960Y-46151004D01*
X64227960Y-46151004D02*
X64282722Y-46260528D01*
X64282722Y-46260528D02*
X64337484Y-46315290D01*
X64337484Y-46315290D02*
X64447008Y-46370051D01*
X64447008Y-46370051D02*
X64611293Y-46370051D01*
X64611293Y-46370051D02*
X64720817Y-46315290D01*
X64720817Y-46315290D02*
X64775579Y-46260528D01*
X64775579Y-46260528D02*
X64939865Y-46041480D01*
X64939865Y-46041480D02*
X64994627Y-45877194D01*
X64994627Y-45877194D02*
X64994627Y-45767670D01*
X66363674Y-45220051D02*
X67020817Y-45220051D01*
X66692246Y-46370051D02*
X66692246Y-45220051D01*
X67897007Y-46370051D02*
X67897007Y-45767670D01*
X67897007Y-45767670D02*
X67842245Y-45658147D01*
X67842245Y-45658147D02*
X67732721Y-45603385D01*
X67732721Y-45603385D02*
X67513674Y-45603385D01*
X67513674Y-45603385D02*
X67404150Y-45658147D01*
X67897007Y-46315290D02*
X67787483Y-46370051D01*
X67787483Y-46370051D02*
X67513674Y-46370051D01*
X67513674Y-46370051D02*
X67404150Y-46315290D01*
X67404150Y-46315290D02*
X67349388Y-46205766D01*
X67349388Y-46205766D02*
X67349388Y-46096242D01*
X67349388Y-46096242D02*
X67404150Y-45986718D01*
X67404150Y-45986718D02*
X67513674Y-45931956D01*
X67513674Y-45931956D02*
X67787483Y-45931956D01*
X67787483Y-45931956D02*
X67897007Y-45877194D01*
X68444626Y-46370051D02*
X68444626Y-45603385D01*
X68444626Y-45220051D02*
X68389864Y-45274813D01*
X68389864Y-45274813D02*
X68444626Y-45329575D01*
X68444626Y-45329575D02*
X68499388Y-45274813D01*
X68499388Y-45274813D02*
X68444626Y-45220051D01*
X68444626Y-45220051D02*
X68444626Y-45329575D01*
X69156531Y-46370051D02*
X69047007Y-46315290D01*
X69047007Y-46315290D02*
X68992245Y-46205766D01*
X68992245Y-46205766D02*
X68992245Y-45220051D01*
X71018435Y-46370051D02*
X70470816Y-46370051D01*
X70470816Y-46370051D02*
X70470816Y-45220051D01*
X71401768Y-46370051D02*
X71401768Y-45603385D01*
X71401768Y-45220051D02*
X71347006Y-45274813D01*
X71347006Y-45274813D02*
X71401768Y-45329575D01*
X71401768Y-45329575D02*
X71456530Y-45274813D01*
X71456530Y-45274813D02*
X71401768Y-45220051D01*
X71401768Y-45220051D02*
X71401768Y-45329575D01*
X72442244Y-45603385D02*
X72442244Y-46534337D01*
X72442244Y-46534337D02*
X72387482Y-46643861D01*
X72387482Y-46643861D02*
X72332720Y-46698623D01*
X72332720Y-46698623D02*
X72223197Y-46753385D01*
X72223197Y-46753385D02*
X72058911Y-46753385D01*
X72058911Y-46753385D02*
X71949387Y-46698623D01*
X72442244Y-46315290D02*
X72332720Y-46370051D01*
X72332720Y-46370051D02*
X72113673Y-46370051D01*
X72113673Y-46370051D02*
X72004149Y-46315290D01*
X72004149Y-46315290D02*
X71949387Y-46260528D01*
X71949387Y-46260528D02*
X71894625Y-46151004D01*
X71894625Y-46151004D02*
X71894625Y-45822432D01*
X71894625Y-45822432D02*
X71949387Y-45712909D01*
X71949387Y-45712909D02*
X72004149Y-45658147D01*
X72004149Y-45658147D02*
X72113673Y-45603385D01*
X72113673Y-45603385D02*
X72332720Y-45603385D01*
X72332720Y-45603385D02*
X72442244Y-45658147D01*
X72989863Y-46370051D02*
X72989863Y-45220051D01*
X73482720Y-46370051D02*
X73482720Y-45767670D01*
X73482720Y-45767670D02*
X73427958Y-45658147D01*
X73427958Y-45658147D02*
X73318434Y-45603385D01*
X73318434Y-45603385D02*
X73154149Y-45603385D01*
X73154149Y-45603385D02*
X73044625Y-45658147D01*
X73044625Y-45658147D02*
X72989863Y-45712909D01*
X73866053Y-45603385D02*
X74304149Y-45603385D01*
X74030339Y-45220051D02*
X74030339Y-46205766D01*
X74030339Y-46205766D02*
X74085101Y-46315290D01*
X74085101Y-46315290D02*
X74194625Y-46370051D01*
X74194625Y-46370051D02*
X74304149Y-46370051D01*
X74632720Y-46315290D02*
X74742244Y-46370051D01*
X74742244Y-46370051D02*
X74961292Y-46370051D01*
X74961292Y-46370051D02*
X75070815Y-46315290D01*
X75070815Y-46315290D02*
X75125577Y-46205766D01*
X75125577Y-46205766D02*
X75125577Y-46151004D01*
X75125577Y-46151004D02*
X75070815Y-46041480D01*
X75070815Y-46041480D02*
X74961292Y-45986718D01*
X74961292Y-45986718D02*
X74797006Y-45986718D01*
X74797006Y-45986718D02*
X74687482Y-45931956D01*
X74687482Y-45931956D02*
X74632720Y-45822432D01*
X74632720Y-45822432D02*
X74632720Y-45767670D01*
X74632720Y-45767670D02*
X74687482Y-45658147D01*
X74687482Y-45658147D02*
X74797006Y-45603385D01*
X74797006Y-45603385D02*
X74961292Y-45603385D01*
X74961292Y-45603385D02*
X75070815Y-45658147D01*
D10*
X47030952Y-74152219D02*
X46459524Y-74152219D01*
X46745238Y-74152219D02*
X46745238Y-73152219D01*
X46745238Y-73152219D02*
X46650000Y-73295076D01*
X46650000Y-73295076D02*
X46554762Y-73390314D01*
X46554762Y-73390314D02*
X46459524Y-73437933D01*
X47411905Y-73247457D02*
X47459524Y-73199838D01*
X47459524Y-73199838D02*
X47554762Y-73152219D01*
X47554762Y-73152219D02*
X47792857Y-73152219D01*
X47792857Y-73152219D02*
X47888095Y-73199838D01*
X47888095Y-73199838D02*
X47935714Y-73247457D01*
X47935714Y-73247457D02*
X47983333Y-73342695D01*
X47983333Y-73342695D02*
X47983333Y-73437933D01*
X47983333Y-73437933D02*
X47935714Y-73580790D01*
X47935714Y-73580790D02*
X47364286Y-74152219D01*
X47364286Y-74152219D02*
X47983333Y-74152219D01*
X48269048Y-73152219D02*
X48602381Y-74152219D01*
X48602381Y-74152219D02*
X48935714Y-73152219D01*
X58047618Y-55652219D02*
X57714285Y-55176028D01*
X57476190Y-55652219D02*
X57476190Y-54652219D01*
X57476190Y-54652219D02*
X57857142Y-54652219D01*
X57857142Y-54652219D02*
X57952380Y-54699838D01*
X57952380Y-54699838D02*
X57999999Y-54747457D01*
X57999999Y-54747457D02*
X58047618Y-54842695D01*
X58047618Y-54842695D02*
X58047618Y-54985552D01*
X58047618Y-54985552D02*
X57999999Y-55080790D01*
X57999999Y-55080790D02*
X57952380Y-55128409D01*
X57952380Y-55128409D02*
X57857142Y-55176028D01*
X57857142Y-55176028D02*
X57476190Y-55176028D01*
X58476190Y-55128409D02*
X58809523Y-55128409D01*
X58952380Y-55652219D02*
X58476190Y-55652219D01*
X58476190Y-55652219D02*
X58476190Y-54652219D01*
X58476190Y-54652219D02*
X58952380Y-54652219D01*
X59333333Y-55604600D02*
X59476190Y-55652219D01*
X59476190Y-55652219D02*
X59714285Y-55652219D01*
X59714285Y-55652219D02*
X59809523Y-55604600D01*
X59809523Y-55604600D02*
X59857142Y-55556980D01*
X59857142Y-55556980D02*
X59904761Y-55461742D01*
X59904761Y-55461742D02*
X59904761Y-55366504D01*
X59904761Y-55366504D02*
X59857142Y-55271266D01*
X59857142Y-55271266D02*
X59809523Y-55223647D01*
X59809523Y-55223647D02*
X59714285Y-55176028D01*
X59714285Y-55176028D02*
X59523809Y-55128409D01*
X59523809Y-55128409D02*
X59428571Y-55080790D01*
X59428571Y-55080790D02*
X59380952Y-55033171D01*
X59380952Y-55033171D02*
X59333333Y-54937933D01*
X59333333Y-54937933D02*
X59333333Y-54842695D01*
X59333333Y-54842695D02*
X59380952Y-54747457D01*
X59380952Y-54747457D02*
X59428571Y-54699838D01*
X59428571Y-54699838D02*
X59523809Y-54652219D01*
X59523809Y-54652219D02*
X59761904Y-54652219D01*
X59761904Y-54652219D02*
X59904761Y-54699838D01*
X60333333Y-55128409D02*
X60666666Y-55128409D01*
X60809523Y-55652219D02*
X60333333Y-55652219D01*
X60333333Y-55652219D02*
X60333333Y-54652219D01*
X60333333Y-54652219D02*
X60809523Y-54652219D01*
X61095238Y-54652219D02*
X61666666Y-54652219D01*
X61380952Y-55652219D02*
X61380952Y-54652219D01*
X13628246Y-67202219D02*
X14199674Y-67202219D01*
X13913960Y-68202219D02*
X13913960Y-67202219D01*
X14485389Y-67916504D02*
X14961579Y-67916504D01*
X14390151Y-68202219D02*
X14723484Y-67202219D01*
X14723484Y-67202219D02*
X15056817Y-68202219D01*
X15390151Y-68202219D02*
X15390151Y-67202219D01*
X16342531Y-68202219D02*
X15866341Y-68202219D01*
X15866341Y-68202219D02*
X15866341Y-67202219D01*
X23307143Y-73152219D02*
X23878571Y-73152219D01*
X23592857Y-74152219D02*
X23592857Y-73152219D01*
X24164286Y-73866504D02*
X24640476Y-73866504D01*
X24069048Y-74152219D02*
X24402381Y-73152219D01*
X24402381Y-73152219D02*
X24735714Y-74152219D01*
X25069048Y-74152219D02*
X25069048Y-73152219D01*
X26021428Y-74152219D02*
X25545238Y-74152219D01*
X25545238Y-74152219D02*
X25545238Y-73152219D01*
X26116667Y-74247457D02*
X26878571Y-74247457D01*
X27450000Y-73628409D02*
X27592857Y-73676028D01*
X27592857Y-73676028D02*
X27640476Y-73723647D01*
X27640476Y-73723647D02*
X27688095Y-73818885D01*
X27688095Y-73818885D02*
X27688095Y-73961742D01*
X27688095Y-73961742D02*
X27640476Y-74056980D01*
X27640476Y-74056980D02*
X27592857Y-74104600D01*
X27592857Y-74104600D02*
X27497619Y-74152219D01*
X27497619Y-74152219D02*
X27116667Y-74152219D01*
X27116667Y-74152219D02*
X27116667Y-73152219D01*
X27116667Y-73152219D02*
X27450000Y-73152219D01*
X27450000Y-73152219D02*
X27545238Y-73199838D01*
X27545238Y-73199838D02*
X27592857Y-73247457D01*
X27592857Y-73247457D02*
X27640476Y-73342695D01*
X27640476Y-73342695D02*
X27640476Y-73437933D01*
X27640476Y-73437933D02*
X27592857Y-73533171D01*
X27592857Y-73533171D02*
X27545238Y-73580790D01*
X27545238Y-73580790D02*
X27450000Y-73628409D01*
X27450000Y-73628409D02*
X27116667Y-73628409D01*
X27973810Y-73152219D02*
X28545238Y-73152219D01*
X28259524Y-74152219D02*
X28259524Y-73152219D01*
X28878572Y-74152219D02*
X28878572Y-73152219D01*
X28878572Y-73152219D02*
X29450000Y-74152219D01*
X29450000Y-74152219D02*
X29450000Y-73152219D01*
X33747619Y-74152219D02*
X33747619Y-73152219D01*
X33747619Y-73628409D02*
X34319047Y-73628409D01*
X34319047Y-74152219D02*
X34319047Y-73152219D01*
X34795238Y-73628409D02*
X35128571Y-73628409D01*
X35271428Y-74152219D02*
X34795238Y-74152219D01*
X34795238Y-74152219D02*
X34795238Y-73152219D01*
X34795238Y-73152219D02*
X35271428Y-73152219D01*
X35652381Y-73866504D02*
X36128571Y-73866504D01*
X35557143Y-74152219D02*
X35890476Y-73152219D01*
X35890476Y-73152219D02*
X36223809Y-74152219D01*
X36557143Y-74152219D02*
X36557143Y-73152219D01*
X36557143Y-73152219D02*
X36795238Y-73152219D01*
X36795238Y-73152219D02*
X36938095Y-73199838D01*
X36938095Y-73199838D02*
X37033333Y-73295076D01*
X37033333Y-73295076D02*
X37080952Y-73390314D01*
X37080952Y-73390314D02*
X37128571Y-73580790D01*
X37128571Y-73580790D02*
X37128571Y-73723647D01*
X37128571Y-73723647D02*
X37080952Y-73914123D01*
X37080952Y-73914123D02*
X37033333Y-74009361D01*
X37033333Y-74009361D02*
X36938095Y-74104600D01*
X36938095Y-74104600D02*
X36795238Y-74152219D01*
X36795238Y-74152219D02*
X36557143Y-74152219D01*
X37319048Y-74247457D02*
X38080952Y-74247457D01*
X38652381Y-73628409D02*
X38795238Y-73676028D01*
X38795238Y-73676028D02*
X38842857Y-73723647D01*
X38842857Y-73723647D02*
X38890476Y-73818885D01*
X38890476Y-73818885D02*
X38890476Y-73961742D01*
X38890476Y-73961742D02*
X38842857Y-74056980D01*
X38842857Y-74056980D02*
X38795238Y-74104600D01*
X38795238Y-74104600D02*
X38700000Y-74152219D01*
X38700000Y-74152219D02*
X38319048Y-74152219D01*
X38319048Y-74152219D02*
X38319048Y-73152219D01*
X38319048Y-73152219D02*
X38652381Y-73152219D01*
X38652381Y-73152219D02*
X38747619Y-73199838D01*
X38747619Y-73199838D02*
X38795238Y-73247457D01*
X38795238Y-73247457D02*
X38842857Y-73342695D01*
X38842857Y-73342695D02*
X38842857Y-73437933D01*
X38842857Y-73437933D02*
X38795238Y-73533171D01*
X38795238Y-73533171D02*
X38747619Y-73580790D01*
X38747619Y-73580790D02*
X38652381Y-73628409D01*
X38652381Y-73628409D02*
X38319048Y-73628409D01*
X39176191Y-73152219D02*
X39747619Y-73152219D01*
X39461905Y-74152219D02*
X39461905Y-73152219D01*
X40080953Y-74152219D02*
X40080953Y-73152219D01*
X40080953Y-73152219D02*
X40652381Y-74152219D01*
X40652381Y-74152219D02*
X40652381Y-73152219D01*
X36461905Y-41052219D02*
X37080952Y-41052219D01*
X37080952Y-41052219D02*
X36747619Y-41433171D01*
X36747619Y-41433171D02*
X36890476Y-41433171D01*
X36890476Y-41433171D02*
X36985714Y-41480790D01*
X36985714Y-41480790D02*
X37033333Y-41528409D01*
X37033333Y-41528409D02*
X37080952Y-41623647D01*
X37080952Y-41623647D02*
X37080952Y-41861742D01*
X37080952Y-41861742D02*
X37033333Y-41956980D01*
X37033333Y-41956980D02*
X36985714Y-42004600D01*
X36985714Y-42004600D02*
X36890476Y-42052219D01*
X36890476Y-42052219D02*
X36604762Y-42052219D01*
X36604762Y-42052219D02*
X36509524Y-42004600D01*
X36509524Y-42004600D02*
X36461905Y-41956980D01*
X37366667Y-41052219D02*
X37700000Y-42052219D01*
X37700000Y-42052219D02*
X38033333Y-41052219D01*
X38271429Y-41052219D02*
X38890476Y-41052219D01*
X38890476Y-41052219D02*
X38557143Y-41433171D01*
X38557143Y-41433171D02*
X38700000Y-41433171D01*
X38700000Y-41433171D02*
X38795238Y-41480790D01*
X38795238Y-41480790D02*
X38842857Y-41528409D01*
X38842857Y-41528409D02*
X38890476Y-41623647D01*
X38890476Y-41623647D02*
X38890476Y-41861742D01*
X38890476Y-41861742D02*
X38842857Y-41956980D01*
X38842857Y-41956980D02*
X38795238Y-42004600D01*
X38795238Y-42004600D02*
X38700000Y-42052219D01*
X38700000Y-42052219D02*
X38414286Y-42052219D01*
X38414286Y-42052219D02*
X38319048Y-42004600D01*
X38319048Y-42004600D02*
X38271429Y-41956980D01*
X25273810Y-42052219D02*
X25273810Y-41052219D01*
X25702381Y-42004600D02*
X25845238Y-42052219D01*
X25845238Y-42052219D02*
X26083333Y-42052219D01*
X26083333Y-42052219D02*
X26178571Y-42004600D01*
X26178571Y-42004600D02*
X26226190Y-41956980D01*
X26226190Y-41956980D02*
X26273809Y-41861742D01*
X26273809Y-41861742D02*
X26273809Y-41766504D01*
X26273809Y-41766504D02*
X26226190Y-41671266D01*
X26226190Y-41671266D02*
X26178571Y-41623647D01*
X26178571Y-41623647D02*
X26083333Y-41576028D01*
X26083333Y-41576028D02*
X25892857Y-41528409D01*
X25892857Y-41528409D02*
X25797619Y-41480790D01*
X25797619Y-41480790D02*
X25750000Y-41433171D01*
X25750000Y-41433171D02*
X25702381Y-41337933D01*
X25702381Y-41337933D02*
X25702381Y-41242695D01*
X25702381Y-41242695D02*
X25750000Y-41147457D01*
X25750000Y-41147457D02*
X25797619Y-41099838D01*
X25797619Y-41099838D02*
X25892857Y-41052219D01*
X25892857Y-41052219D02*
X26130952Y-41052219D01*
X26130952Y-41052219D02*
X26273809Y-41099838D01*
X26702381Y-42052219D02*
X26702381Y-41052219D01*
X26702381Y-41052219D02*
X27083333Y-41052219D01*
X27083333Y-41052219D02*
X27178571Y-41099838D01*
X27178571Y-41099838D02*
X27226190Y-41147457D01*
X27226190Y-41147457D02*
X27273809Y-41242695D01*
X27273809Y-41242695D02*
X27273809Y-41385552D01*
X27273809Y-41385552D02*
X27226190Y-41480790D01*
X27226190Y-41480790D02*
X27178571Y-41528409D01*
X27178571Y-41528409D02*
X27083333Y-41576028D01*
X27083333Y-41576028D02*
X26702381Y-41576028D01*
D12*
X58259580Y-67066666D02*
X58307200Y-67114285D01*
X58307200Y-67114285D02*
X58354819Y-67257142D01*
X58354819Y-67257142D02*
X58354819Y-67352380D01*
X58354819Y-67352380D02*
X58307200Y-67495237D01*
X58307200Y-67495237D02*
X58211961Y-67590475D01*
X58211961Y-67590475D02*
X58116723Y-67638094D01*
X58116723Y-67638094D02*
X57926247Y-67685713D01*
X57926247Y-67685713D02*
X57783390Y-67685713D01*
X57783390Y-67685713D02*
X57592914Y-67638094D01*
X57592914Y-67638094D02*
X57497676Y-67590475D01*
X57497676Y-67590475D02*
X57402438Y-67495237D01*
X57402438Y-67495237D02*
X57354819Y-67352380D01*
X57354819Y-67352380D02*
X57354819Y-67257142D01*
X57354819Y-67257142D02*
X57402438Y-67114285D01*
X57402438Y-67114285D02*
X57450057Y-67066666D01*
X58354819Y-66590475D02*
X58354819Y-66399999D01*
X58354819Y-66399999D02*
X58307200Y-66304761D01*
X58307200Y-66304761D02*
X58259580Y-66257142D01*
X58259580Y-66257142D02*
X58116723Y-66161904D01*
X58116723Y-66161904D02*
X57926247Y-66114285D01*
X57926247Y-66114285D02*
X57545295Y-66114285D01*
X57545295Y-66114285D02*
X57450057Y-66161904D01*
X57450057Y-66161904D02*
X57402438Y-66209523D01*
X57402438Y-66209523D02*
X57354819Y-66304761D01*
X57354819Y-66304761D02*
X57354819Y-66495237D01*
X57354819Y-66495237D02*
X57402438Y-66590475D01*
X57402438Y-66590475D02*
X57450057Y-66638094D01*
X57450057Y-66638094D02*
X57545295Y-66685713D01*
X57545295Y-66685713D02*
X57783390Y-66685713D01*
X57783390Y-66685713D02*
X57878628Y-66638094D01*
X57878628Y-66638094D02*
X57926247Y-66590475D01*
X57926247Y-66590475D02*
X57973866Y-66495237D01*
X57973866Y-66495237D02*
X57973866Y-66304761D01*
X57973866Y-66304761D02*
X57926247Y-66209523D01*
X57926247Y-66209523D02*
X57878628Y-66161904D01*
X57878628Y-66161904D02*
X57783390Y-66114285D01*
X53354819Y-65964285D02*
X52354819Y-65964285D01*
X52354819Y-65964285D02*
X52354819Y-65726190D01*
X52354819Y-65726190D02*
X52402438Y-65583333D01*
X52402438Y-65583333D02*
X52497676Y-65488095D01*
X52497676Y-65488095D02*
X52592914Y-65440476D01*
X52592914Y-65440476D02*
X52783390Y-65392857D01*
X52783390Y-65392857D02*
X52926247Y-65392857D01*
X52926247Y-65392857D02*
X53116723Y-65440476D01*
X53116723Y-65440476D02*
X53211961Y-65488095D01*
X53211961Y-65488095D02*
X53307200Y-65583333D01*
X53307200Y-65583333D02*
X53354819Y-65726190D01*
X53354819Y-65726190D02*
X53354819Y-65964285D01*
X53354819Y-64440476D02*
X53354819Y-65011904D01*
X53354819Y-64726190D02*
X52354819Y-64726190D01*
X52354819Y-64726190D02*
X52497676Y-64821428D01*
X52497676Y-64821428D02*
X52592914Y-64916666D01*
X52592914Y-64916666D02*
X52640533Y-65011904D01*
X52354819Y-63821428D02*
X52354819Y-63726190D01*
X52354819Y-63726190D02*
X52402438Y-63630952D01*
X52402438Y-63630952D02*
X52450057Y-63583333D01*
X52450057Y-63583333D02*
X52545295Y-63535714D01*
X52545295Y-63535714D02*
X52735771Y-63488095D01*
X52735771Y-63488095D02*
X52973866Y-63488095D01*
X52973866Y-63488095D02*
X53164342Y-63535714D01*
X53164342Y-63535714D02*
X53259580Y-63583333D01*
X53259580Y-63583333D02*
X53307200Y-63630952D01*
X53307200Y-63630952D02*
X53354819Y-63726190D01*
X53354819Y-63726190D02*
X53354819Y-63821428D01*
X53354819Y-63821428D02*
X53307200Y-63916666D01*
X53307200Y-63916666D02*
X53259580Y-63964285D01*
X53259580Y-63964285D02*
X53164342Y-64011904D01*
X53164342Y-64011904D02*
X52973866Y-64059523D01*
X52973866Y-64059523D02*
X52735771Y-64059523D01*
X52735771Y-64059523D02*
X52545295Y-64011904D01*
X52545295Y-64011904D02*
X52450057Y-63964285D01*
X52450057Y-63964285D02*
X52402438Y-63916666D01*
X52402438Y-63916666D02*
X52354819Y-63821428D01*
X56155438Y-67066666D02*
X56203058Y-67114285D01*
X56203058Y-67114285D02*
X56250677Y-67257142D01*
X56250677Y-67257142D02*
X56250677Y-67352380D01*
X56250677Y-67352380D02*
X56203058Y-67495237D01*
X56203058Y-67495237D02*
X56107819Y-67590475D01*
X56107819Y-67590475D02*
X56012581Y-67638094D01*
X56012581Y-67638094D02*
X55822105Y-67685713D01*
X55822105Y-67685713D02*
X55679248Y-67685713D01*
X55679248Y-67685713D02*
X55488772Y-67638094D01*
X55488772Y-67638094D02*
X55393534Y-67590475D01*
X55393534Y-67590475D02*
X55298296Y-67495237D01*
X55298296Y-67495237D02*
X55250677Y-67352380D01*
X55250677Y-67352380D02*
X55250677Y-67257142D01*
X55250677Y-67257142D02*
X55298296Y-67114285D01*
X55298296Y-67114285D02*
X55345915Y-67066666D01*
X55679248Y-66495237D02*
X55631629Y-66590475D01*
X55631629Y-66590475D02*
X55584010Y-66638094D01*
X55584010Y-66638094D02*
X55488772Y-66685713D01*
X55488772Y-66685713D02*
X55441153Y-66685713D01*
X55441153Y-66685713D02*
X55345915Y-66638094D01*
X55345915Y-66638094D02*
X55298296Y-66590475D01*
X55298296Y-66590475D02*
X55250677Y-66495237D01*
X55250677Y-66495237D02*
X55250677Y-66304761D01*
X55250677Y-66304761D02*
X55298296Y-66209523D01*
X55298296Y-66209523D02*
X55345915Y-66161904D01*
X55345915Y-66161904D02*
X55441153Y-66114285D01*
X55441153Y-66114285D02*
X55488772Y-66114285D01*
X55488772Y-66114285D02*
X55584010Y-66161904D01*
X55584010Y-66161904D02*
X55631629Y-66209523D01*
X55631629Y-66209523D02*
X55679248Y-66304761D01*
X55679248Y-66304761D02*
X55679248Y-66495237D01*
X55679248Y-66495237D02*
X55726867Y-66590475D01*
X55726867Y-66590475D02*
X55774486Y-66638094D01*
X55774486Y-66638094D02*
X55869724Y-66685713D01*
X55869724Y-66685713D02*
X56060200Y-66685713D01*
X56060200Y-66685713D02*
X56155438Y-66638094D01*
X56155438Y-66638094D02*
X56203058Y-66590475D01*
X56203058Y-66590475D02*
X56250677Y-66495237D01*
X56250677Y-66495237D02*
X56250677Y-66304761D01*
X56250677Y-66304761D02*
X56203058Y-66209523D01*
X56203058Y-66209523D02*
X56155438Y-66161904D01*
X56155438Y-66161904D02*
X56060200Y-66114285D01*
X56060200Y-66114285D02*
X55869724Y-66114285D01*
X55869724Y-66114285D02*
X55774486Y-66161904D01*
X55774486Y-66161904D02*
X55726867Y-66209523D01*
X55726867Y-66209523D02*
X55679248Y-66304761D01*
X28332142Y-55136784D02*
X27998809Y-54660593D01*
X27760714Y-55136784D02*
X27760714Y-54136784D01*
X27760714Y-54136784D02*
X28141666Y-54136784D01*
X28141666Y-54136784D02*
X28236904Y-54184403D01*
X28236904Y-54184403D02*
X28284523Y-54232022D01*
X28284523Y-54232022D02*
X28332142Y-54327260D01*
X28332142Y-54327260D02*
X28332142Y-54470117D01*
X28332142Y-54470117D02*
X28284523Y-54565355D01*
X28284523Y-54565355D02*
X28236904Y-54612974D01*
X28236904Y-54612974D02*
X28141666Y-54660593D01*
X28141666Y-54660593D02*
X27760714Y-54660593D01*
X29284523Y-55136784D02*
X28713095Y-55136784D01*
X28998809Y-55136784D02*
X28998809Y-54136784D01*
X28998809Y-54136784D02*
X28903571Y-54279641D01*
X28903571Y-54279641D02*
X28808333Y-54374879D01*
X28808333Y-54374879D02*
X28713095Y-54422498D01*
X30189285Y-54136784D02*
X29713095Y-54136784D01*
X29713095Y-54136784D02*
X29665476Y-54612974D01*
X29665476Y-54612974D02*
X29713095Y-54565355D01*
X29713095Y-54565355D02*
X29808333Y-54517736D01*
X29808333Y-54517736D02*
X30046428Y-54517736D01*
X30046428Y-54517736D02*
X30141666Y-54565355D01*
X30141666Y-54565355D02*
X30189285Y-54612974D01*
X30189285Y-54612974D02*
X30236904Y-54708212D01*
X30236904Y-54708212D02*
X30236904Y-54946307D01*
X30236904Y-54946307D02*
X30189285Y-55041545D01*
X30189285Y-55041545D02*
X30141666Y-55089165D01*
X30141666Y-55089165D02*
X30046428Y-55136784D01*
X30046428Y-55136784D02*
X29808333Y-55136784D01*
X29808333Y-55136784D02*
X29713095Y-55089165D01*
X29713095Y-55089165D02*
X29665476Y-55041545D01*
X33611905Y-49554819D02*
X33611905Y-48554819D01*
X33611905Y-48554819D02*
X33850000Y-48554819D01*
X33850000Y-48554819D02*
X33992857Y-48602438D01*
X33992857Y-48602438D02*
X34088095Y-48697676D01*
X34088095Y-48697676D02*
X34135714Y-48792914D01*
X34135714Y-48792914D02*
X34183333Y-48983390D01*
X34183333Y-48983390D02*
X34183333Y-49126247D01*
X34183333Y-49126247D02*
X34135714Y-49316723D01*
X34135714Y-49316723D02*
X34088095Y-49411961D01*
X34088095Y-49411961D02*
X33992857Y-49507200D01*
X33992857Y-49507200D02*
X33850000Y-49554819D01*
X33850000Y-49554819D02*
X33611905Y-49554819D01*
X34659524Y-49554819D02*
X34850000Y-49554819D01*
X34850000Y-49554819D02*
X34945238Y-49507200D01*
X34945238Y-49507200D02*
X34992857Y-49459580D01*
X34992857Y-49459580D02*
X35088095Y-49316723D01*
X35088095Y-49316723D02*
X35135714Y-49126247D01*
X35135714Y-49126247D02*
X35135714Y-48745295D01*
X35135714Y-48745295D02*
X35088095Y-48650057D01*
X35088095Y-48650057D02*
X35040476Y-48602438D01*
X35040476Y-48602438D02*
X34945238Y-48554819D01*
X34945238Y-48554819D02*
X34754762Y-48554819D01*
X34754762Y-48554819D02*
X34659524Y-48602438D01*
X34659524Y-48602438D02*
X34611905Y-48650057D01*
X34611905Y-48650057D02*
X34564286Y-48745295D01*
X34564286Y-48745295D02*
X34564286Y-48983390D01*
X34564286Y-48983390D02*
X34611905Y-49078628D01*
X34611905Y-49078628D02*
X34659524Y-49126247D01*
X34659524Y-49126247D02*
X34754762Y-49173866D01*
X34754762Y-49173866D02*
X34945238Y-49173866D01*
X34945238Y-49173866D02*
X35040476Y-49126247D01*
X35040476Y-49126247D02*
X35088095Y-49078628D01*
X35088095Y-49078628D02*
X35135714Y-48983390D01*
X65275833Y-51115644D02*
X64942500Y-50639453D01*
X64704405Y-51115644D02*
X64704405Y-50115644D01*
X64704405Y-50115644D02*
X65085357Y-50115644D01*
X65085357Y-50115644D02*
X65180595Y-50163263D01*
X65180595Y-50163263D02*
X65228214Y-50210882D01*
X65228214Y-50210882D02*
X65275833Y-50306120D01*
X65275833Y-50306120D02*
X65275833Y-50448977D01*
X65275833Y-50448977D02*
X65228214Y-50544215D01*
X65228214Y-50544215D02*
X65180595Y-50591834D01*
X65180595Y-50591834D02*
X65085357Y-50639453D01*
X65085357Y-50639453D02*
X64704405Y-50639453D01*
X66228214Y-51115644D02*
X65656786Y-51115644D01*
X65942500Y-51115644D02*
X65942500Y-50115644D01*
X65942500Y-50115644D02*
X65847262Y-50258501D01*
X65847262Y-50258501D02*
X65752024Y-50353739D01*
X65752024Y-50353739D02*
X65656786Y-50401358D01*
X28307142Y-50954819D02*
X27973809Y-50478628D01*
X27735714Y-50954819D02*
X27735714Y-49954819D01*
X27735714Y-49954819D02*
X28116666Y-49954819D01*
X28116666Y-49954819D02*
X28211904Y-50002438D01*
X28211904Y-50002438D02*
X28259523Y-50050057D01*
X28259523Y-50050057D02*
X28307142Y-50145295D01*
X28307142Y-50145295D02*
X28307142Y-50288152D01*
X28307142Y-50288152D02*
X28259523Y-50383390D01*
X28259523Y-50383390D02*
X28211904Y-50431009D01*
X28211904Y-50431009D02*
X28116666Y-50478628D01*
X28116666Y-50478628D02*
X27735714Y-50478628D01*
X29259523Y-50954819D02*
X28688095Y-50954819D01*
X28973809Y-50954819D02*
X28973809Y-49954819D01*
X28973809Y-49954819D02*
X28878571Y-50097676D01*
X28878571Y-50097676D02*
X28783333Y-50192914D01*
X28783333Y-50192914D02*
X28688095Y-50240533D01*
X30116666Y-49954819D02*
X29926190Y-49954819D01*
X29926190Y-49954819D02*
X29830952Y-50002438D01*
X29830952Y-50002438D02*
X29783333Y-50050057D01*
X29783333Y-50050057D02*
X29688095Y-50192914D01*
X29688095Y-50192914D02*
X29640476Y-50383390D01*
X29640476Y-50383390D02*
X29640476Y-50764342D01*
X29640476Y-50764342D02*
X29688095Y-50859580D01*
X29688095Y-50859580D02*
X29735714Y-50907200D01*
X29735714Y-50907200D02*
X29830952Y-50954819D01*
X29830952Y-50954819D02*
X30021428Y-50954819D01*
X30021428Y-50954819D02*
X30116666Y-50907200D01*
X30116666Y-50907200D02*
X30164285Y-50859580D01*
X30164285Y-50859580D02*
X30211904Y-50764342D01*
X30211904Y-50764342D02*
X30211904Y-50526247D01*
X30211904Y-50526247D02*
X30164285Y-50431009D01*
X30164285Y-50431009D02*
X30116666Y-50383390D01*
X30116666Y-50383390D02*
X30021428Y-50335771D01*
X30021428Y-50335771D02*
X29830952Y-50335771D01*
X29830952Y-50335771D02*
X29735714Y-50383390D01*
X29735714Y-50383390D02*
X29688095Y-50431009D01*
X29688095Y-50431009D02*
X29640476Y-50526247D01*
X51957142Y-52854819D02*
X51623809Y-52378628D01*
X51385714Y-52854819D02*
X51385714Y-51854819D01*
X51385714Y-51854819D02*
X51766666Y-51854819D01*
X51766666Y-51854819D02*
X51861904Y-51902438D01*
X51861904Y-51902438D02*
X51909523Y-51950057D01*
X51909523Y-51950057D02*
X51957142Y-52045295D01*
X51957142Y-52045295D02*
X51957142Y-52188152D01*
X51957142Y-52188152D02*
X51909523Y-52283390D01*
X51909523Y-52283390D02*
X51861904Y-52331009D01*
X51861904Y-52331009D02*
X51766666Y-52378628D01*
X51766666Y-52378628D02*
X51385714Y-52378628D01*
X52909523Y-52854819D02*
X52338095Y-52854819D01*
X52623809Y-52854819D02*
X52623809Y-51854819D01*
X52623809Y-51854819D02*
X52528571Y-51997676D01*
X52528571Y-51997676D02*
X52433333Y-52092914D01*
X52433333Y-52092914D02*
X52338095Y-52140533D01*
X53242857Y-51854819D02*
X53909523Y-51854819D01*
X53909523Y-51854819D02*
X53480952Y-52854819D01*
X71204761Y-57304837D02*
X71109523Y-57257218D01*
X71109523Y-57257218D02*
X71014285Y-57161980D01*
X71014285Y-57161980D02*
X70871428Y-57019122D01*
X70871428Y-57019122D02*
X70776190Y-56971503D01*
X70776190Y-56971503D02*
X70680952Y-56971503D01*
X70728571Y-57209599D02*
X70633333Y-57161980D01*
X70633333Y-57161980D02*
X70538095Y-57066741D01*
X70538095Y-57066741D02*
X70490476Y-56876265D01*
X70490476Y-56876265D02*
X70490476Y-56542932D01*
X70490476Y-56542932D02*
X70538095Y-56352456D01*
X70538095Y-56352456D02*
X70633333Y-56257218D01*
X70633333Y-56257218D02*
X70728571Y-56209599D01*
X70728571Y-56209599D02*
X70919047Y-56209599D01*
X70919047Y-56209599D02*
X71014285Y-56257218D01*
X71014285Y-56257218D02*
X71109523Y-56352456D01*
X71109523Y-56352456D02*
X71157142Y-56542932D01*
X71157142Y-56542932D02*
X71157142Y-56876265D01*
X71157142Y-56876265D02*
X71109523Y-57066741D01*
X71109523Y-57066741D02*
X71014285Y-57161980D01*
X71014285Y-57161980D02*
X70919047Y-57209599D01*
X70919047Y-57209599D02*
X70728571Y-57209599D01*
X71538095Y-56304837D02*
X71585714Y-56257218D01*
X71585714Y-56257218D02*
X71680952Y-56209599D01*
X71680952Y-56209599D02*
X71919047Y-56209599D01*
X71919047Y-56209599D02*
X72014285Y-56257218D01*
X72014285Y-56257218D02*
X72061904Y-56304837D01*
X72061904Y-56304837D02*
X72109523Y-56400075D01*
X72109523Y-56400075D02*
X72109523Y-56495313D01*
X72109523Y-56495313D02*
X72061904Y-56638170D01*
X72061904Y-56638170D02*
X71490476Y-57209599D01*
X71490476Y-57209599D02*
X72109523Y-57209599D01*
X22678848Y-51232022D02*
X22583610Y-51184403D01*
X22583610Y-51184403D02*
X22488372Y-51089165D01*
X22488372Y-51089165D02*
X22345515Y-50946307D01*
X22345515Y-50946307D02*
X22250277Y-50898688D01*
X22250277Y-50898688D02*
X22155039Y-50898688D01*
X22202658Y-51136784D02*
X22107420Y-51089165D01*
X22107420Y-51089165D02*
X22012182Y-50993926D01*
X22012182Y-50993926D02*
X21964563Y-50803450D01*
X21964563Y-50803450D02*
X21964563Y-50470117D01*
X21964563Y-50470117D02*
X22012182Y-50279641D01*
X22012182Y-50279641D02*
X22107420Y-50184403D01*
X22107420Y-50184403D02*
X22202658Y-50136784D01*
X22202658Y-50136784D02*
X22393134Y-50136784D01*
X22393134Y-50136784D02*
X22488372Y-50184403D01*
X22488372Y-50184403D02*
X22583610Y-50279641D01*
X22583610Y-50279641D02*
X22631229Y-50470117D01*
X22631229Y-50470117D02*
X22631229Y-50803450D01*
X22631229Y-50803450D02*
X22583610Y-50993926D01*
X22583610Y-50993926D02*
X22488372Y-51089165D01*
X22488372Y-51089165D02*
X22393134Y-51136784D01*
X22393134Y-51136784D02*
X22202658Y-51136784D01*
X23202658Y-50565355D02*
X23107420Y-50517736D01*
X23107420Y-50517736D02*
X23059801Y-50470117D01*
X23059801Y-50470117D02*
X23012182Y-50374879D01*
X23012182Y-50374879D02*
X23012182Y-50327260D01*
X23012182Y-50327260D02*
X23059801Y-50232022D01*
X23059801Y-50232022D02*
X23107420Y-50184403D01*
X23107420Y-50184403D02*
X23202658Y-50136784D01*
X23202658Y-50136784D02*
X23393134Y-50136784D01*
X23393134Y-50136784D02*
X23488372Y-50184403D01*
X23488372Y-50184403D02*
X23535991Y-50232022D01*
X23535991Y-50232022D02*
X23583610Y-50327260D01*
X23583610Y-50327260D02*
X23583610Y-50374879D01*
X23583610Y-50374879D02*
X23535991Y-50470117D01*
X23535991Y-50470117D02*
X23488372Y-50517736D01*
X23488372Y-50517736D02*
X23393134Y-50565355D01*
X23393134Y-50565355D02*
X23202658Y-50565355D01*
X23202658Y-50565355D02*
X23107420Y-50612974D01*
X23107420Y-50612974D02*
X23059801Y-50660593D01*
X23059801Y-50660593D02*
X23012182Y-50755831D01*
X23012182Y-50755831D02*
X23012182Y-50946307D01*
X23012182Y-50946307D02*
X23059801Y-51041545D01*
X23059801Y-51041545D02*
X23107420Y-51089165D01*
X23107420Y-51089165D02*
X23202658Y-51136784D01*
X23202658Y-51136784D02*
X23393134Y-51136784D01*
X23393134Y-51136784D02*
X23488372Y-51089165D01*
X23488372Y-51089165D02*
X23535991Y-51041545D01*
X23535991Y-51041545D02*
X23583610Y-50946307D01*
X23583610Y-50946307D02*
X23583610Y-50755831D01*
X23583610Y-50755831D02*
X23535991Y-50660593D01*
X23535991Y-50660593D02*
X23488372Y-50612974D01*
X23488372Y-50612974D02*
X23393134Y-50565355D01*
X71204761Y-53304837D02*
X71109523Y-53257218D01*
X71109523Y-53257218D02*
X71014285Y-53161980D01*
X71014285Y-53161980D02*
X70871428Y-53019122D01*
X70871428Y-53019122D02*
X70776190Y-52971503D01*
X70776190Y-52971503D02*
X70680952Y-52971503D01*
X70728571Y-53209599D02*
X70633333Y-53161980D01*
X70633333Y-53161980D02*
X70538095Y-53066741D01*
X70538095Y-53066741D02*
X70490476Y-52876265D01*
X70490476Y-52876265D02*
X70490476Y-52542932D01*
X70490476Y-52542932D02*
X70538095Y-52352456D01*
X70538095Y-52352456D02*
X70633333Y-52257218D01*
X70633333Y-52257218D02*
X70728571Y-52209599D01*
X70728571Y-52209599D02*
X70919047Y-52209599D01*
X70919047Y-52209599D02*
X71014285Y-52257218D01*
X71014285Y-52257218D02*
X71109523Y-52352456D01*
X71109523Y-52352456D02*
X71157142Y-52542932D01*
X71157142Y-52542932D02*
X71157142Y-52876265D01*
X71157142Y-52876265D02*
X71109523Y-53066741D01*
X71109523Y-53066741D02*
X71014285Y-53161980D01*
X71014285Y-53161980D02*
X70919047Y-53209599D01*
X70919047Y-53209599D02*
X70728571Y-53209599D01*
X72109523Y-53209599D02*
X71538095Y-53209599D01*
X71823809Y-53209599D02*
X71823809Y-52209599D01*
X71823809Y-52209599D02*
X71728571Y-52352456D01*
X71728571Y-52352456D02*
X71633333Y-52447694D01*
X71633333Y-52447694D02*
X71538095Y-52495313D01*
X65275833Y-63111962D02*
X64942500Y-62635771D01*
X64704405Y-63111962D02*
X64704405Y-62111962D01*
X64704405Y-62111962D02*
X65085357Y-62111962D01*
X65085357Y-62111962D02*
X65180595Y-62159581D01*
X65180595Y-62159581D02*
X65228214Y-62207200D01*
X65228214Y-62207200D02*
X65275833Y-62302438D01*
X65275833Y-62302438D02*
X65275833Y-62445295D01*
X65275833Y-62445295D02*
X65228214Y-62540533D01*
X65228214Y-62540533D02*
X65180595Y-62588152D01*
X65180595Y-62588152D02*
X65085357Y-62635771D01*
X65085357Y-62635771D02*
X64704405Y-62635771D01*
X66132976Y-62445295D02*
X66132976Y-63111962D01*
X65894881Y-62064343D02*
X65656786Y-62778628D01*
X65656786Y-62778628D02*
X66275833Y-62778628D01*
X60988095Y-58436321D02*
X60988095Y-59245844D01*
X60988095Y-59245844D02*
X61035714Y-59341082D01*
X61035714Y-59341082D02*
X61083333Y-59388702D01*
X61083333Y-59388702D02*
X61178571Y-59436321D01*
X61178571Y-59436321D02*
X61369047Y-59436321D01*
X61369047Y-59436321D02*
X61464285Y-59388702D01*
X61464285Y-59388702D02*
X61511904Y-59341082D01*
X61511904Y-59341082D02*
X61559523Y-59245844D01*
X61559523Y-59245844D02*
X61559523Y-58436321D01*
X61988095Y-58531559D02*
X62035714Y-58483940D01*
X62035714Y-58483940D02*
X62130952Y-58436321D01*
X62130952Y-58436321D02*
X62369047Y-58436321D01*
X62369047Y-58436321D02*
X62464285Y-58483940D01*
X62464285Y-58483940D02*
X62511904Y-58531559D01*
X62511904Y-58531559D02*
X62559523Y-58626797D01*
X62559523Y-58626797D02*
X62559523Y-58722035D01*
X62559523Y-58722035D02*
X62511904Y-58864892D01*
X62511904Y-58864892D02*
X61940476Y-59436321D01*
X61940476Y-59436321D02*
X62559523Y-59436321D01*
X61009999Y-61926682D02*
X61009999Y-61688587D01*
X61248094Y-61783825D02*
X61009999Y-61688587D01*
X61009999Y-61688587D02*
X60771904Y-61783825D01*
X61152856Y-61498111D02*
X61009999Y-61688587D01*
X61009999Y-61688587D02*
X60867142Y-61498111D01*
X61010000Y-60836321D02*
X61010000Y-61074416D01*
X60771905Y-60979178D02*
X61010000Y-61074416D01*
X61010000Y-61074416D02*
X61248095Y-60979178D01*
X60867143Y-61264892D02*
X61010000Y-61074416D01*
X61010000Y-61074416D02*
X61152857Y-61264892D01*
X71204761Y-65454837D02*
X71109523Y-65407218D01*
X71109523Y-65407218D02*
X71014285Y-65311980D01*
X71014285Y-65311980D02*
X70871428Y-65169122D01*
X70871428Y-65169122D02*
X70776190Y-65121503D01*
X70776190Y-65121503D02*
X70680952Y-65121503D01*
X70728571Y-65359599D02*
X70633333Y-65311980D01*
X70633333Y-65311980D02*
X70538095Y-65216741D01*
X70538095Y-65216741D02*
X70490476Y-65026265D01*
X70490476Y-65026265D02*
X70490476Y-64692932D01*
X70490476Y-64692932D02*
X70538095Y-64502456D01*
X70538095Y-64502456D02*
X70633333Y-64407218D01*
X70633333Y-64407218D02*
X70728571Y-64359599D01*
X70728571Y-64359599D02*
X70919047Y-64359599D01*
X70919047Y-64359599D02*
X71014285Y-64407218D01*
X71014285Y-64407218D02*
X71109523Y-64502456D01*
X71109523Y-64502456D02*
X71157142Y-64692932D01*
X71157142Y-64692932D02*
X71157142Y-65026265D01*
X71157142Y-65026265D02*
X71109523Y-65216741D01*
X71109523Y-65216741D02*
X71014285Y-65311980D01*
X71014285Y-65311980D02*
X70919047Y-65359599D01*
X70919047Y-65359599D02*
X70728571Y-65359599D01*
X72014285Y-64692932D02*
X72014285Y-65359599D01*
X71776190Y-64311980D02*
X71538095Y-65026265D01*
X71538095Y-65026265D02*
X72157142Y-65026265D01*
X49359580Y-65184020D02*
X49407200Y-65231639D01*
X49407200Y-65231639D02*
X49454819Y-65374496D01*
X49454819Y-65374496D02*
X49454819Y-65469734D01*
X49454819Y-65469734D02*
X49407200Y-65612591D01*
X49407200Y-65612591D02*
X49311961Y-65707829D01*
X49311961Y-65707829D02*
X49216723Y-65755448D01*
X49216723Y-65755448D02*
X49026247Y-65803067D01*
X49026247Y-65803067D02*
X48883390Y-65803067D01*
X48883390Y-65803067D02*
X48692914Y-65755448D01*
X48692914Y-65755448D02*
X48597676Y-65707829D01*
X48597676Y-65707829D02*
X48502438Y-65612591D01*
X48502438Y-65612591D02*
X48454819Y-65469734D01*
X48454819Y-65469734D02*
X48454819Y-65374496D01*
X48454819Y-65374496D02*
X48502438Y-65231639D01*
X48502438Y-65231639D02*
X48550057Y-65184020D01*
X48454819Y-64279258D02*
X48454819Y-64755448D01*
X48454819Y-64755448D02*
X48931009Y-64803067D01*
X48931009Y-64803067D02*
X48883390Y-64755448D01*
X48883390Y-64755448D02*
X48835771Y-64660210D01*
X48835771Y-64660210D02*
X48835771Y-64422115D01*
X48835771Y-64422115D02*
X48883390Y-64326877D01*
X48883390Y-64326877D02*
X48931009Y-64279258D01*
X48931009Y-64279258D02*
X49026247Y-64231639D01*
X49026247Y-64231639D02*
X49264342Y-64231639D01*
X49264342Y-64231639D02*
X49359580Y-64279258D01*
X49359580Y-64279258D02*
X49407200Y-64326877D01*
X49407200Y-64326877D02*
X49454819Y-64422115D01*
X49454819Y-64422115D02*
X49454819Y-64660210D01*
X49454819Y-64660210D02*
X49407200Y-64755448D01*
X49407200Y-64755448D02*
X49359580Y-64803067D01*
X22678848Y-63232022D02*
X22583610Y-63184403D01*
X22583610Y-63184403D02*
X22488372Y-63089165D01*
X22488372Y-63089165D02*
X22345515Y-62946307D01*
X22345515Y-62946307D02*
X22250277Y-62898688D01*
X22250277Y-62898688D02*
X22155039Y-62898688D01*
X22202658Y-63136784D02*
X22107420Y-63089165D01*
X22107420Y-63089165D02*
X22012182Y-62993926D01*
X22012182Y-62993926D02*
X21964563Y-62803450D01*
X21964563Y-62803450D02*
X21964563Y-62470117D01*
X21964563Y-62470117D02*
X22012182Y-62279641D01*
X22012182Y-62279641D02*
X22107420Y-62184403D01*
X22107420Y-62184403D02*
X22202658Y-62136784D01*
X22202658Y-62136784D02*
X22393134Y-62136784D01*
X22393134Y-62136784D02*
X22488372Y-62184403D01*
X22488372Y-62184403D02*
X22583610Y-62279641D01*
X22583610Y-62279641D02*
X22631229Y-62470117D01*
X22631229Y-62470117D02*
X22631229Y-62803450D01*
X22631229Y-62803450D02*
X22583610Y-62993926D01*
X22583610Y-62993926D02*
X22488372Y-63089165D01*
X22488372Y-63089165D02*
X22393134Y-63136784D01*
X22393134Y-63136784D02*
X22202658Y-63136784D01*
X23535991Y-62136784D02*
X23059801Y-62136784D01*
X23059801Y-62136784D02*
X23012182Y-62612974D01*
X23012182Y-62612974D02*
X23059801Y-62565355D01*
X23059801Y-62565355D02*
X23155039Y-62517736D01*
X23155039Y-62517736D02*
X23393134Y-62517736D01*
X23393134Y-62517736D02*
X23488372Y-62565355D01*
X23488372Y-62565355D02*
X23535991Y-62612974D01*
X23535991Y-62612974D02*
X23583610Y-62708212D01*
X23583610Y-62708212D02*
X23583610Y-62946307D01*
X23583610Y-62946307D02*
X23535991Y-63041545D01*
X23535991Y-63041545D02*
X23488372Y-63089165D01*
X23488372Y-63089165D02*
X23393134Y-63136784D01*
X23393134Y-63136784D02*
X23155039Y-63136784D01*
X23155039Y-63136784D02*
X23059801Y-63089165D01*
X23059801Y-63089165D02*
X23012182Y-63041545D01*
X65275833Y-55114417D02*
X64942500Y-54638226D01*
X64704405Y-55114417D02*
X64704405Y-54114417D01*
X64704405Y-54114417D02*
X65085357Y-54114417D01*
X65085357Y-54114417D02*
X65180595Y-54162036D01*
X65180595Y-54162036D02*
X65228214Y-54209655D01*
X65228214Y-54209655D02*
X65275833Y-54304893D01*
X65275833Y-54304893D02*
X65275833Y-54447750D01*
X65275833Y-54447750D02*
X65228214Y-54542988D01*
X65228214Y-54542988D02*
X65180595Y-54590607D01*
X65180595Y-54590607D02*
X65085357Y-54638226D01*
X65085357Y-54638226D02*
X64704405Y-54638226D01*
X65656786Y-54209655D02*
X65704405Y-54162036D01*
X65704405Y-54162036D02*
X65799643Y-54114417D01*
X65799643Y-54114417D02*
X66037738Y-54114417D01*
X66037738Y-54114417D02*
X66132976Y-54162036D01*
X66132976Y-54162036D02*
X66180595Y-54209655D01*
X66180595Y-54209655D02*
X66228214Y-54304893D01*
X66228214Y-54304893D02*
X66228214Y-54400131D01*
X66228214Y-54400131D02*
X66180595Y-54542988D01*
X66180595Y-54542988D02*
X65609167Y-55114417D01*
X65609167Y-55114417D02*
X66228214Y-55114417D01*
X28332142Y-62936784D02*
X27998809Y-62460593D01*
X27760714Y-62936784D02*
X27760714Y-61936784D01*
X27760714Y-61936784D02*
X28141666Y-61936784D01*
X28141666Y-61936784D02*
X28236904Y-61984403D01*
X28236904Y-61984403D02*
X28284523Y-62032022D01*
X28284523Y-62032022D02*
X28332142Y-62127260D01*
X28332142Y-62127260D02*
X28332142Y-62270117D01*
X28332142Y-62270117D02*
X28284523Y-62365355D01*
X28284523Y-62365355D02*
X28236904Y-62412974D01*
X28236904Y-62412974D02*
X28141666Y-62460593D01*
X28141666Y-62460593D02*
X27760714Y-62460593D01*
X29284523Y-62936784D02*
X28713095Y-62936784D01*
X28998809Y-62936784D02*
X28998809Y-61936784D01*
X28998809Y-61936784D02*
X28903571Y-62079641D01*
X28903571Y-62079641D02*
X28808333Y-62174879D01*
X28808333Y-62174879D02*
X28713095Y-62222498D01*
X29617857Y-61936784D02*
X30236904Y-61936784D01*
X30236904Y-61936784D02*
X29903571Y-62317736D01*
X29903571Y-62317736D02*
X30046428Y-62317736D01*
X30046428Y-62317736D02*
X30141666Y-62365355D01*
X30141666Y-62365355D02*
X30189285Y-62412974D01*
X30189285Y-62412974D02*
X30236904Y-62508212D01*
X30236904Y-62508212D02*
X30236904Y-62746307D01*
X30236904Y-62746307D02*
X30189285Y-62841545D01*
X30189285Y-62841545D02*
X30141666Y-62889165D01*
X30141666Y-62889165D02*
X30046428Y-62936784D01*
X30046428Y-62936784D02*
X29760714Y-62936784D01*
X29760714Y-62936784D02*
X29665476Y-62889165D01*
X29665476Y-62889165D02*
X29617857Y-62841545D01*
X22678848Y-59232022D02*
X22583610Y-59184403D01*
X22583610Y-59184403D02*
X22488372Y-59089165D01*
X22488372Y-59089165D02*
X22345515Y-58946307D01*
X22345515Y-58946307D02*
X22250277Y-58898688D01*
X22250277Y-58898688D02*
X22155039Y-58898688D01*
X22202658Y-59136784D02*
X22107420Y-59089165D01*
X22107420Y-59089165D02*
X22012182Y-58993926D01*
X22012182Y-58993926D02*
X21964563Y-58803450D01*
X21964563Y-58803450D02*
X21964563Y-58470117D01*
X21964563Y-58470117D02*
X22012182Y-58279641D01*
X22012182Y-58279641D02*
X22107420Y-58184403D01*
X22107420Y-58184403D02*
X22202658Y-58136784D01*
X22202658Y-58136784D02*
X22393134Y-58136784D01*
X22393134Y-58136784D02*
X22488372Y-58184403D01*
X22488372Y-58184403D02*
X22583610Y-58279641D01*
X22583610Y-58279641D02*
X22631229Y-58470117D01*
X22631229Y-58470117D02*
X22631229Y-58803450D01*
X22631229Y-58803450D02*
X22583610Y-58993926D01*
X22583610Y-58993926D02*
X22488372Y-59089165D01*
X22488372Y-59089165D02*
X22393134Y-59136784D01*
X22393134Y-59136784D02*
X22202658Y-59136784D01*
X23488372Y-58136784D02*
X23297896Y-58136784D01*
X23297896Y-58136784D02*
X23202658Y-58184403D01*
X23202658Y-58184403D02*
X23155039Y-58232022D01*
X23155039Y-58232022D02*
X23059801Y-58374879D01*
X23059801Y-58374879D02*
X23012182Y-58565355D01*
X23012182Y-58565355D02*
X23012182Y-58946307D01*
X23012182Y-58946307D02*
X23059801Y-59041545D01*
X23059801Y-59041545D02*
X23107420Y-59089165D01*
X23107420Y-59089165D02*
X23202658Y-59136784D01*
X23202658Y-59136784D02*
X23393134Y-59136784D01*
X23393134Y-59136784D02*
X23488372Y-59089165D01*
X23488372Y-59089165D02*
X23535991Y-59041545D01*
X23535991Y-59041545D02*
X23583610Y-58946307D01*
X23583610Y-58946307D02*
X23583610Y-58708212D01*
X23583610Y-58708212D02*
X23535991Y-58612974D01*
X23535991Y-58612974D02*
X23488372Y-58565355D01*
X23488372Y-58565355D02*
X23393134Y-58517736D01*
X23393134Y-58517736D02*
X23202658Y-58517736D01*
X23202658Y-58517736D02*
X23107420Y-58565355D01*
X23107420Y-58565355D02*
X23059801Y-58612974D01*
X23059801Y-58612974D02*
X23012182Y-58708212D01*
X65275833Y-61112575D02*
X64942500Y-60636384D01*
X64704405Y-61112575D02*
X64704405Y-60112575D01*
X64704405Y-60112575D02*
X65085357Y-60112575D01*
X65085357Y-60112575D02*
X65180595Y-60160194D01*
X65180595Y-60160194D02*
X65228214Y-60207813D01*
X65228214Y-60207813D02*
X65275833Y-60303051D01*
X65275833Y-60303051D02*
X65275833Y-60445908D01*
X65275833Y-60445908D02*
X65228214Y-60541146D01*
X65228214Y-60541146D02*
X65180595Y-60588765D01*
X65180595Y-60588765D02*
X65085357Y-60636384D01*
X65085357Y-60636384D02*
X64704405Y-60636384D01*
X65609167Y-60112575D02*
X66275833Y-60112575D01*
X66275833Y-60112575D02*
X65847262Y-61112575D01*
X28332142Y-61136784D02*
X27998809Y-60660593D01*
X27760714Y-61136784D02*
X27760714Y-60136784D01*
X27760714Y-60136784D02*
X28141666Y-60136784D01*
X28141666Y-60136784D02*
X28236904Y-60184403D01*
X28236904Y-60184403D02*
X28284523Y-60232022D01*
X28284523Y-60232022D02*
X28332142Y-60327260D01*
X28332142Y-60327260D02*
X28332142Y-60470117D01*
X28332142Y-60470117D02*
X28284523Y-60565355D01*
X28284523Y-60565355D02*
X28236904Y-60612974D01*
X28236904Y-60612974D02*
X28141666Y-60660593D01*
X28141666Y-60660593D02*
X27760714Y-60660593D01*
X29284523Y-61136784D02*
X28713095Y-61136784D01*
X28998809Y-61136784D02*
X28998809Y-60136784D01*
X28998809Y-60136784D02*
X28903571Y-60279641D01*
X28903571Y-60279641D02*
X28808333Y-60374879D01*
X28808333Y-60374879D02*
X28713095Y-60422498D01*
X29903571Y-60136784D02*
X29998809Y-60136784D01*
X29998809Y-60136784D02*
X30094047Y-60184403D01*
X30094047Y-60184403D02*
X30141666Y-60232022D01*
X30141666Y-60232022D02*
X30189285Y-60327260D01*
X30189285Y-60327260D02*
X30236904Y-60517736D01*
X30236904Y-60517736D02*
X30236904Y-60755831D01*
X30236904Y-60755831D02*
X30189285Y-60946307D01*
X30189285Y-60946307D02*
X30141666Y-61041545D01*
X30141666Y-61041545D02*
X30094047Y-61089165D01*
X30094047Y-61089165D02*
X29998809Y-61136784D01*
X29998809Y-61136784D02*
X29903571Y-61136784D01*
X29903571Y-61136784D02*
X29808333Y-61089165D01*
X29808333Y-61089165D02*
X29760714Y-61041545D01*
X29760714Y-61041545D02*
X29713095Y-60946307D01*
X29713095Y-60946307D02*
X29665476Y-60755831D01*
X29665476Y-60755831D02*
X29665476Y-60517736D01*
X29665476Y-60517736D02*
X29713095Y-60327260D01*
X29713095Y-60327260D02*
X29760714Y-60232022D01*
X29760714Y-60232022D02*
X29808333Y-60184403D01*
X29808333Y-60184403D02*
X29903571Y-60136784D01*
X33625295Y-54103444D02*
X33577676Y-54151064D01*
X33577676Y-54151064D02*
X33434819Y-54198683D01*
X33434819Y-54198683D02*
X33339581Y-54198683D01*
X33339581Y-54198683D02*
X33196724Y-54151064D01*
X33196724Y-54151064D02*
X33101486Y-54055825D01*
X33101486Y-54055825D02*
X33053867Y-53960587D01*
X33053867Y-53960587D02*
X33006248Y-53770111D01*
X33006248Y-53770111D02*
X33006248Y-53627254D01*
X33006248Y-53627254D02*
X33053867Y-53436778D01*
X33053867Y-53436778D02*
X33101486Y-53341540D01*
X33101486Y-53341540D02*
X33196724Y-53246302D01*
X33196724Y-53246302D02*
X33339581Y-53198683D01*
X33339581Y-53198683D02*
X33434819Y-53198683D01*
X33434819Y-53198683D02*
X33577676Y-53246302D01*
X33577676Y-53246302D02*
X33625295Y-53293921D01*
X34577676Y-54198683D02*
X34006248Y-54198683D01*
X34291962Y-54198683D02*
X34291962Y-53198683D01*
X34291962Y-53198683D02*
X34196724Y-53341540D01*
X34196724Y-53341540D02*
X34101486Y-53436778D01*
X34101486Y-53436778D02*
X34006248Y-53484397D01*
X35530057Y-54198683D02*
X34958629Y-54198683D01*
X35244343Y-54198683D02*
X35244343Y-53198683D01*
X35244343Y-53198683D02*
X35149105Y-53341540D01*
X35149105Y-53341540D02*
X35053867Y-53436778D01*
X35053867Y-53436778D02*
X34958629Y-53484397D01*
X71204761Y-61104837D02*
X71109523Y-61057218D01*
X71109523Y-61057218D02*
X71014285Y-60961980D01*
X71014285Y-60961980D02*
X70871428Y-60819122D01*
X70871428Y-60819122D02*
X70776190Y-60771503D01*
X70776190Y-60771503D02*
X70680952Y-60771503D01*
X70728571Y-61009599D02*
X70633333Y-60961980D01*
X70633333Y-60961980D02*
X70538095Y-60866741D01*
X70538095Y-60866741D02*
X70490476Y-60676265D01*
X70490476Y-60676265D02*
X70490476Y-60342932D01*
X70490476Y-60342932D02*
X70538095Y-60152456D01*
X70538095Y-60152456D02*
X70633333Y-60057218D01*
X70633333Y-60057218D02*
X70728571Y-60009599D01*
X70728571Y-60009599D02*
X70919047Y-60009599D01*
X70919047Y-60009599D02*
X71014285Y-60057218D01*
X71014285Y-60057218D02*
X71109523Y-60152456D01*
X71109523Y-60152456D02*
X71157142Y-60342932D01*
X71157142Y-60342932D02*
X71157142Y-60676265D01*
X71157142Y-60676265D02*
X71109523Y-60866741D01*
X71109523Y-60866741D02*
X71014285Y-60961980D01*
X71014285Y-60961980D02*
X70919047Y-61009599D01*
X70919047Y-61009599D02*
X70728571Y-61009599D01*
X71490476Y-60009599D02*
X72109523Y-60009599D01*
X72109523Y-60009599D02*
X71776190Y-60390551D01*
X71776190Y-60390551D02*
X71919047Y-60390551D01*
X71919047Y-60390551D02*
X72014285Y-60438170D01*
X72014285Y-60438170D02*
X72061904Y-60485789D01*
X72061904Y-60485789D02*
X72109523Y-60581027D01*
X72109523Y-60581027D02*
X72109523Y-60819122D01*
X72109523Y-60819122D02*
X72061904Y-60914360D01*
X72061904Y-60914360D02*
X72014285Y-60961980D01*
X72014285Y-60961980D02*
X71919047Y-61009599D01*
X71919047Y-61009599D02*
X71633333Y-61009599D01*
X71633333Y-61009599D02*
X71538095Y-60961980D01*
X71538095Y-60961980D02*
X71490476Y-60914360D01*
X28333333Y-65104819D02*
X28000000Y-64628628D01*
X27761905Y-65104819D02*
X27761905Y-64104819D01*
X27761905Y-64104819D02*
X28142857Y-64104819D01*
X28142857Y-64104819D02*
X28238095Y-64152438D01*
X28238095Y-64152438D02*
X28285714Y-64200057D01*
X28285714Y-64200057D02*
X28333333Y-64295295D01*
X28333333Y-64295295D02*
X28333333Y-64438152D01*
X28333333Y-64438152D02*
X28285714Y-64533390D01*
X28285714Y-64533390D02*
X28238095Y-64581009D01*
X28238095Y-64581009D02*
X28142857Y-64628628D01*
X28142857Y-64628628D02*
X27761905Y-64628628D01*
X28809524Y-65104819D02*
X29000000Y-65104819D01*
X29000000Y-65104819D02*
X29095238Y-65057200D01*
X29095238Y-65057200D02*
X29142857Y-65009580D01*
X29142857Y-65009580D02*
X29238095Y-64866723D01*
X29238095Y-64866723D02*
X29285714Y-64676247D01*
X29285714Y-64676247D02*
X29285714Y-64295295D01*
X29285714Y-64295295D02*
X29238095Y-64200057D01*
X29238095Y-64200057D02*
X29190476Y-64152438D01*
X29190476Y-64152438D02*
X29095238Y-64104819D01*
X29095238Y-64104819D02*
X28904762Y-64104819D01*
X28904762Y-64104819D02*
X28809524Y-64152438D01*
X28809524Y-64152438D02*
X28761905Y-64200057D01*
X28761905Y-64200057D02*
X28714286Y-64295295D01*
X28714286Y-64295295D02*
X28714286Y-64533390D01*
X28714286Y-64533390D02*
X28761905Y-64628628D01*
X28761905Y-64628628D02*
X28809524Y-64676247D01*
X28809524Y-64676247D02*
X28904762Y-64723866D01*
X28904762Y-64723866D02*
X29095238Y-64723866D01*
X29095238Y-64723866D02*
X29190476Y-64676247D01*
X29190476Y-64676247D02*
X29238095Y-64628628D01*
X29238095Y-64628628D02*
X29285714Y-64533390D01*
X65275833Y-65111348D02*
X64942500Y-64635157D01*
X64704405Y-65111348D02*
X64704405Y-64111348D01*
X64704405Y-64111348D02*
X65085357Y-64111348D01*
X65085357Y-64111348D02*
X65180595Y-64158967D01*
X65180595Y-64158967D02*
X65228214Y-64206586D01*
X65228214Y-64206586D02*
X65275833Y-64301824D01*
X65275833Y-64301824D02*
X65275833Y-64444681D01*
X65275833Y-64444681D02*
X65228214Y-64539919D01*
X65228214Y-64539919D02*
X65180595Y-64587538D01*
X65180595Y-64587538D02*
X65085357Y-64635157D01*
X65085357Y-64635157D02*
X64704405Y-64635157D01*
X65847262Y-64539919D02*
X65752024Y-64492300D01*
X65752024Y-64492300D02*
X65704405Y-64444681D01*
X65704405Y-64444681D02*
X65656786Y-64349443D01*
X65656786Y-64349443D02*
X65656786Y-64301824D01*
X65656786Y-64301824D02*
X65704405Y-64206586D01*
X65704405Y-64206586D02*
X65752024Y-64158967D01*
X65752024Y-64158967D02*
X65847262Y-64111348D01*
X65847262Y-64111348D02*
X66037738Y-64111348D01*
X66037738Y-64111348D02*
X66132976Y-64158967D01*
X66132976Y-64158967D02*
X66180595Y-64206586D01*
X66180595Y-64206586D02*
X66228214Y-64301824D01*
X66228214Y-64301824D02*
X66228214Y-64349443D01*
X66228214Y-64349443D02*
X66180595Y-64444681D01*
X66180595Y-64444681D02*
X66132976Y-64492300D01*
X66132976Y-64492300D02*
X66037738Y-64539919D01*
X66037738Y-64539919D02*
X65847262Y-64539919D01*
X65847262Y-64539919D02*
X65752024Y-64587538D01*
X65752024Y-64587538D02*
X65704405Y-64635157D01*
X65704405Y-64635157D02*
X65656786Y-64730395D01*
X65656786Y-64730395D02*
X65656786Y-64920871D01*
X65656786Y-64920871D02*
X65704405Y-65016109D01*
X65704405Y-65016109D02*
X65752024Y-65063729D01*
X65752024Y-65063729D02*
X65847262Y-65111348D01*
X65847262Y-65111348D02*
X66037738Y-65111348D01*
X66037738Y-65111348D02*
X66132976Y-65063729D01*
X66132976Y-65063729D02*
X66180595Y-65016109D01*
X66180595Y-65016109D02*
X66228214Y-64920871D01*
X66228214Y-64920871D02*
X66228214Y-64730395D01*
X66228214Y-64730395D02*
X66180595Y-64635157D01*
X66180595Y-64635157D02*
X66132976Y-64587538D01*
X66132976Y-64587538D02*
X66037738Y-64539919D01*
X65275833Y-59113189D02*
X64942500Y-58636998D01*
X64704405Y-59113189D02*
X64704405Y-58113189D01*
X64704405Y-58113189D02*
X65085357Y-58113189D01*
X65085357Y-58113189D02*
X65180595Y-58160808D01*
X65180595Y-58160808D02*
X65228214Y-58208427D01*
X65228214Y-58208427D02*
X65275833Y-58303665D01*
X65275833Y-58303665D02*
X65275833Y-58446522D01*
X65275833Y-58446522D02*
X65228214Y-58541760D01*
X65228214Y-58541760D02*
X65180595Y-58589379D01*
X65180595Y-58589379D02*
X65085357Y-58636998D01*
X65085357Y-58636998D02*
X64704405Y-58636998D01*
X65609167Y-58113189D02*
X66228214Y-58113189D01*
X66228214Y-58113189D02*
X65894881Y-58494141D01*
X65894881Y-58494141D02*
X66037738Y-58494141D01*
X66037738Y-58494141D02*
X66132976Y-58541760D01*
X66132976Y-58541760D02*
X66180595Y-58589379D01*
X66180595Y-58589379D02*
X66228214Y-58684617D01*
X66228214Y-58684617D02*
X66228214Y-58922712D01*
X66228214Y-58922712D02*
X66180595Y-59017950D01*
X66180595Y-59017950D02*
X66132976Y-59065570D01*
X66132976Y-59065570D02*
X66037738Y-59113189D01*
X66037738Y-59113189D02*
X65752024Y-59113189D01*
X65752024Y-59113189D02*
X65656786Y-59065570D01*
X65656786Y-59065570D02*
X65609167Y-59017950D01*
X44633333Y-51559580D02*
X44585714Y-51607200D01*
X44585714Y-51607200D02*
X44442857Y-51654819D01*
X44442857Y-51654819D02*
X44347619Y-51654819D01*
X44347619Y-51654819D02*
X44204762Y-51607200D01*
X44204762Y-51607200D02*
X44109524Y-51511961D01*
X44109524Y-51511961D02*
X44061905Y-51416723D01*
X44061905Y-51416723D02*
X44014286Y-51226247D01*
X44014286Y-51226247D02*
X44014286Y-51083390D01*
X44014286Y-51083390D02*
X44061905Y-50892914D01*
X44061905Y-50892914D02*
X44109524Y-50797676D01*
X44109524Y-50797676D02*
X44204762Y-50702438D01*
X44204762Y-50702438D02*
X44347619Y-50654819D01*
X44347619Y-50654819D02*
X44442857Y-50654819D01*
X44442857Y-50654819D02*
X44585714Y-50702438D01*
X44585714Y-50702438D02*
X44633333Y-50750057D01*
X45585714Y-51654819D02*
X45014286Y-51654819D01*
X45300000Y-51654819D02*
X45300000Y-50654819D01*
X45300000Y-50654819D02*
X45204762Y-50797676D01*
X45204762Y-50797676D02*
X45109524Y-50892914D01*
X45109524Y-50892914D02*
X45014286Y-50940533D01*
X28332142Y-59136784D02*
X27998809Y-58660593D01*
X27760714Y-59136784D02*
X27760714Y-58136784D01*
X27760714Y-58136784D02*
X28141666Y-58136784D01*
X28141666Y-58136784D02*
X28236904Y-58184403D01*
X28236904Y-58184403D02*
X28284523Y-58232022D01*
X28284523Y-58232022D02*
X28332142Y-58327260D01*
X28332142Y-58327260D02*
X28332142Y-58470117D01*
X28332142Y-58470117D02*
X28284523Y-58565355D01*
X28284523Y-58565355D02*
X28236904Y-58612974D01*
X28236904Y-58612974D02*
X28141666Y-58660593D01*
X28141666Y-58660593D02*
X27760714Y-58660593D01*
X29284523Y-59136784D02*
X28713095Y-59136784D01*
X28998809Y-59136784D02*
X28998809Y-58136784D01*
X28998809Y-58136784D02*
X28903571Y-58279641D01*
X28903571Y-58279641D02*
X28808333Y-58374879D01*
X28808333Y-58374879D02*
X28713095Y-58422498D01*
X30141666Y-58470117D02*
X30141666Y-59136784D01*
X29903571Y-58089165D02*
X29665476Y-58803450D01*
X29665476Y-58803450D02*
X30284523Y-58803450D01*
X33587795Y-52059580D02*
X33540176Y-52107200D01*
X33540176Y-52107200D02*
X33397319Y-52154819D01*
X33397319Y-52154819D02*
X33302081Y-52154819D01*
X33302081Y-52154819D02*
X33159224Y-52107200D01*
X33159224Y-52107200D02*
X33063986Y-52011961D01*
X33063986Y-52011961D02*
X33016367Y-51916723D01*
X33016367Y-51916723D02*
X32968748Y-51726247D01*
X32968748Y-51726247D02*
X32968748Y-51583390D01*
X32968748Y-51583390D02*
X33016367Y-51392914D01*
X33016367Y-51392914D02*
X33063986Y-51297676D01*
X33063986Y-51297676D02*
X33159224Y-51202438D01*
X33159224Y-51202438D02*
X33302081Y-51154819D01*
X33302081Y-51154819D02*
X33397319Y-51154819D01*
X33397319Y-51154819D02*
X33540176Y-51202438D01*
X33540176Y-51202438D02*
X33587795Y-51250057D01*
X34540176Y-52154819D02*
X33968748Y-52154819D01*
X34254462Y-52154819D02*
X34254462Y-51154819D01*
X34254462Y-51154819D02*
X34159224Y-51297676D01*
X34159224Y-51297676D02*
X34063986Y-51392914D01*
X34063986Y-51392914D02*
X33968748Y-51440533D01*
X34921129Y-51250057D02*
X34968748Y-51202438D01*
X34968748Y-51202438D02*
X35063986Y-51154819D01*
X35063986Y-51154819D02*
X35302081Y-51154819D01*
X35302081Y-51154819D02*
X35397319Y-51202438D01*
X35397319Y-51202438D02*
X35444938Y-51250057D01*
X35444938Y-51250057D02*
X35492557Y-51345295D01*
X35492557Y-51345295D02*
X35492557Y-51440533D01*
X35492557Y-51440533D02*
X35444938Y-51583390D01*
X35444938Y-51583390D02*
X34873510Y-52154819D01*
X34873510Y-52154819D02*
X35492557Y-52154819D01*
X65275833Y-57113803D02*
X64942500Y-56637612D01*
X64704405Y-57113803D02*
X64704405Y-56113803D01*
X64704405Y-56113803D02*
X65085357Y-56113803D01*
X65085357Y-56113803D02*
X65180595Y-56161422D01*
X65180595Y-56161422D02*
X65228214Y-56209041D01*
X65228214Y-56209041D02*
X65275833Y-56304279D01*
X65275833Y-56304279D02*
X65275833Y-56447136D01*
X65275833Y-56447136D02*
X65228214Y-56542374D01*
X65228214Y-56542374D02*
X65180595Y-56589993D01*
X65180595Y-56589993D02*
X65085357Y-56637612D01*
X65085357Y-56637612D02*
X64704405Y-56637612D01*
X66132976Y-56113803D02*
X65942500Y-56113803D01*
X65942500Y-56113803D02*
X65847262Y-56161422D01*
X65847262Y-56161422D02*
X65799643Y-56209041D01*
X65799643Y-56209041D02*
X65704405Y-56351898D01*
X65704405Y-56351898D02*
X65656786Y-56542374D01*
X65656786Y-56542374D02*
X65656786Y-56923326D01*
X65656786Y-56923326D02*
X65704405Y-57018564D01*
X65704405Y-57018564D02*
X65752024Y-57066184D01*
X65752024Y-57066184D02*
X65847262Y-57113803D01*
X65847262Y-57113803D02*
X66037738Y-57113803D01*
X66037738Y-57113803D02*
X66132976Y-57066184D01*
X66132976Y-57066184D02*
X66180595Y-57018564D01*
X66180595Y-57018564D02*
X66228214Y-56923326D01*
X66228214Y-56923326D02*
X66228214Y-56685231D01*
X66228214Y-56685231D02*
X66180595Y-56589993D01*
X66180595Y-56589993D02*
X66132976Y-56542374D01*
X66132976Y-56542374D02*
X66037738Y-56494755D01*
X66037738Y-56494755D02*
X65847262Y-56494755D01*
X65847262Y-56494755D02*
X65752024Y-56542374D01*
X65752024Y-56542374D02*
X65704405Y-56589993D01*
X65704405Y-56589993D02*
X65656786Y-56685231D01*
X22678848Y-55132022D02*
X22583610Y-55084403D01*
X22583610Y-55084403D02*
X22488372Y-54989165D01*
X22488372Y-54989165D02*
X22345515Y-54846307D01*
X22345515Y-54846307D02*
X22250277Y-54798688D01*
X22250277Y-54798688D02*
X22155039Y-54798688D01*
X22202658Y-55036784D02*
X22107420Y-54989165D01*
X22107420Y-54989165D02*
X22012182Y-54893926D01*
X22012182Y-54893926D02*
X21964563Y-54703450D01*
X21964563Y-54703450D02*
X21964563Y-54370117D01*
X21964563Y-54370117D02*
X22012182Y-54179641D01*
X22012182Y-54179641D02*
X22107420Y-54084403D01*
X22107420Y-54084403D02*
X22202658Y-54036784D01*
X22202658Y-54036784D02*
X22393134Y-54036784D01*
X22393134Y-54036784D02*
X22488372Y-54084403D01*
X22488372Y-54084403D02*
X22583610Y-54179641D01*
X22583610Y-54179641D02*
X22631229Y-54370117D01*
X22631229Y-54370117D02*
X22631229Y-54703450D01*
X22631229Y-54703450D02*
X22583610Y-54893926D01*
X22583610Y-54893926D02*
X22488372Y-54989165D01*
X22488372Y-54989165D02*
X22393134Y-55036784D01*
X22393134Y-55036784D02*
X22202658Y-55036784D01*
X22964563Y-54036784D02*
X23631229Y-54036784D01*
X23631229Y-54036784D02*
X23202658Y-55036784D01*
X28332142Y-52986784D02*
X27998809Y-52510593D01*
X27760714Y-52986784D02*
X27760714Y-51986784D01*
X27760714Y-51986784D02*
X28141666Y-51986784D01*
X28141666Y-51986784D02*
X28236904Y-52034403D01*
X28236904Y-52034403D02*
X28284523Y-52082022D01*
X28284523Y-52082022D02*
X28332142Y-52177260D01*
X28332142Y-52177260D02*
X28332142Y-52320117D01*
X28332142Y-52320117D02*
X28284523Y-52415355D01*
X28284523Y-52415355D02*
X28236904Y-52462974D01*
X28236904Y-52462974D02*
X28141666Y-52510593D01*
X28141666Y-52510593D02*
X27760714Y-52510593D01*
X29284523Y-52986784D02*
X28713095Y-52986784D01*
X28998809Y-52986784D02*
X28998809Y-51986784D01*
X28998809Y-51986784D02*
X28903571Y-52129641D01*
X28903571Y-52129641D02*
X28808333Y-52224879D01*
X28808333Y-52224879D02*
X28713095Y-52272498D01*
X29665476Y-52082022D02*
X29713095Y-52034403D01*
X29713095Y-52034403D02*
X29808333Y-51986784D01*
X29808333Y-51986784D02*
X30046428Y-51986784D01*
X30046428Y-51986784D02*
X30141666Y-52034403D01*
X30141666Y-52034403D02*
X30189285Y-52082022D01*
X30189285Y-52082022D02*
X30236904Y-52177260D01*
X30236904Y-52177260D02*
X30236904Y-52272498D01*
X30236904Y-52272498D02*
X30189285Y-52415355D01*
X30189285Y-52415355D02*
X29617857Y-52986784D01*
X29617857Y-52986784D02*
X30236904Y-52986784D01*
X44059580Y-65184020D02*
X44107200Y-65231639D01*
X44107200Y-65231639D02*
X44154819Y-65374496D01*
X44154819Y-65374496D02*
X44154819Y-65469734D01*
X44154819Y-65469734D02*
X44107200Y-65612591D01*
X44107200Y-65612591D02*
X44011961Y-65707829D01*
X44011961Y-65707829D02*
X43916723Y-65755448D01*
X43916723Y-65755448D02*
X43726247Y-65803067D01*
X43726247Y-65803067D02*
X43583390Y-65803067D01*
X43583390Y-65803067D02*
X43392914Y-65755448D01*
X43392914Y-65755448D02*
X43297676Y-65707829D01*
X43297676Y-65707829D02*
X43202438Y-65612591D01*
X43202438Y-65612591D02*
X43154819Y-65469734D01*
X43154819Y-65469734D02*
X43154819Y-65374496D01*
X43154819Y-65374496D02*
X43202438Y-65231639D01*
X43202438Y-65231639D02*
X43250057Y-65184020D01*
X43250057Y-64803067D02*
X43202438Y-64755448D01*
X43202438Y-64755448D02*
X43154819Y-64660210D01*
X43154819Y-64660210D02*
X43154819Y-64422115D01*
X43154819Y-64422115D02*
X43202438Y-64326877D01*
X43202438Y-64326877D02*
X43250057Y-64279258D01*
X43250057Y-64279258D02*
X43345295Y-64231639D01*
X43345295Y-64231639D02*
X43440533Y-64231639D01*
X43440533Y-64231639D02*
X43583390Y-64279258D01*
X43583390Y-64279258D02*
X44154819Y-64850686D01*
X44154819Y-64850686D02*
X44154819Y-64231639D01*
X28332142Y-57236784D02*
X27998809Y-56760593D01*
X27760714Y-57236784D02*
X27760714Y-56236784D01*
X27760714Y-56236784D02*
X28141666Y-56236784D01*
X28141666Y-56236784D02*
X28236904Y-56284403D01*
X28236904Y-56284403D02*
X28284523Y-56332022D01*
X28284523Y-56332022D02*
X28332142Y-56427260D01*
X28332142Y-56427260D02*
X28332142Y-56570117D01*
X28332142Y-56570117D02*
X28284523Y-56665355D01*
X28284523Y-56665355D02*
X28236904Y-56712974D01*
X28236904Y-56712974D02*
X28141666Y-56760593D01*
X28141666Y-56760593D02*
X27760714Y-56760593D01*
X29284523Y-57236784D02*
X28713095Y-57236784D01*
X28998809Y-57236784D02*
X28998809Y-56236784D01*
X28998809Y-56236784D02*
X28903571Y-56379641D01*
X28903571Y-56379641D02*
X28808333Y-56474879D01*
X28808333Y-56474879D02*
X28713095Y-56522498D01*
X30236904Y-57236784D02*
X29665476Y-57236784D01*
X29951190Y-57236784D02*
X29951190Y-56236784D01*
X29951190Y-56236784D02*
X29855952Y-56379641D01*
X29855952Y-56379641D02*
X29760714Y-56474879D01*
X29760714Y-56474879D02*
X29665476Y-56522498D01*
X65275833Y-53115030D02*
X64942500Y-52638839D01*
X64704405Y-53115030D02*
X64704405Y-52115030D01*
X64704405Y-52115030D02*
X65085357Y-52115030D01*
X65085357Y-52115030D02*
X65180595Y-52162649D01*
X65180595Y-52162649D02*
X65228214Y-52210268D01*
X65228214Y-52210268D02*
X65275833Y-52305506D01*
X65275833Y-52305506D02*
X65275833Y-52448363D01*
X65275833Y-52448363D02*
X65228214Y-52543601D01*
X65228214Y-52543601D02*
X65180595Y-52591220D01*
X65180595Y-52591220D02*
X65085357Y-52638839D01*
X65085357Y-52638839D02*
X64704405Y-52638839D01*
X66180595Y-52115030D02*
X65704405Y-52115030D01*
X65704405Y-52115030D02*
X65656786Y-52591220D01*
X65656786Y-52591220D02*
X65704405Y-52543601D01*
X65704405Y-52543601D02*
X65799643Y-52495982D01*
X65799643Y-52495982D02*
X66037738Y-52495982D01*
X66037738Y-52495982D02*
X66132976Y-52543601D01*
X66132976Y-52543601D02*
X66180595Y-52591220D01*
X66180595Y-52591220D02*
X66228214Y-52686458D01*
X66228214Y-52686458D02*
X66228214Y-52924553D01*
X66228214Y-52924553D02*
X66180595Y-53019791D01*
X66180595Y-53019791D02*
X66132976Y-53067411D01*
X66132976Y-53067411D02*
X66037738Y-53115030D01*
X66037738Y-53115030D02*
X65799643Y-53115030D01*
X65799643Y-53115030D02*
X65704405Y-53067411D01*
X65704405Y-53067411D02*
X65656786Y-53019791D01*
D13*
X55312618Y-93674318D02*
X55312618Y-92404318D01*
X55312618Y-92404318D02*
X55614999Y-92404318D01*
X55614999Y-92404318D02*
X55796428Y-92464794D01*
X55796428Y-92464794D02*
X55917380Y-92585746D01*
X55917380Y-92585746D02*
X55977857Y-92706699D01*
X55977857Y-92706699D02*
X56038333Y-92948603D01*
X56038333Y-92948603D02*
X56038333Y-93130032D01*
X56038333Y-93130032D02*
X55977857Y-93371937D01*
X55977857Y-93371937D02*
X55917380Y-93492889D01*
X55917380Y-93492889D02*
X55796428Y-93613842D01*
X55796428Y-93613842D02*
X55614999Y-93674318D01*
X55614999Y-93674318D02*
X55312618Y-93674318D01*
X56522142Y-92525270D02*
X56582618Y-92464794D01*
X56582618Y-92464794D02*
X56703571Y-92404318D01*
X56703571Y-92404318D02*
X57005952Y-92404318D01*
X57005952Y-92404318D02*
X57126904Y-92464794D01*
X57126904Y-92464794D02*
X57187380Y-92525270D01*
X57187380Y-92525270D02*
X57247857Y-92646222D01*
X57247857Y-92646222D02*
X57247857Y-92767175D01*
X57247857Y-92767175D02*
X57187380Y-92948603D01*
X57187380Y-92948603D02*
X56461666Y-93674318D01*
X56461666Y-93674318D02*
X57247857Y-93674318D01*
X36937618Y-93674318D02*
X36937618Y-92404318D01*
X36937618Y-92404318D02*
X37239999Y-92404318D01*
X37239999Y-92404318D02*
X37421428Y-92464794D01*
X37421428Y-92464794D02*
X37542380Y-92585746D01*
X37542380Y-92585746D02*
X37602857Y-92706699D01*
X37602857Y-92706699D02*
X37663333Y-92948603D01*
X37663333Y-92948603D02*
X37663333Y-93130032D01*
X37663333Y-93130032D02*
X37602857Y-93371937D01*
X37602857Y-93371937D02*
X37542380Y-93492889D01*
X37542380Y-93492889D02*
X37421428Y-93613842D01*
X37421428Y-93613842D02*
X37239999Y-93674318D01*
X37239999Y-93674318D02*
X36937618Y-93674318D01*
X38086666Y-92404318D02*
X38872857Y-92404318D01*
X38872857Y-92404318D02*
X38449523Y-92888127D01*
X38449523Y-92888127D02*
X38630952Y-92888127D01*
X38630952Y-92888127D02*
X38751904Y-92948603D01*
X38751904Y-92948603D02*
X38812380Y-93009080D01*
X38812380Y-93009080D02*
X38872857Y-93130032D01*
X38872857Y-93130032D02*
X38872857Y-93432413D01*
X38872857Y-93432413D02*
X38812380Y-93553365D01*
X38812380Y-93553365D02*
X38751904Y-93613842D01*
X38751904Y-93613842D02*
X38630952Y-93674318D01*
X38630952Y-93674318D02*
X38268095Y-93674318D01*
X38268095Y-93674318D02*
X38147142Y-93613842D01*
X38147142Y-93613842D02*
X38086666Y-93553365D01*
X73687618Y-93674318D02*
X73687618Y-92404318D01*
X73687618Y-92404318D02*
X73989999Y-92404318D01*
X73989999Y-92404318D02*
X74171428Y-92464794D01*
X74171428Y-92464794D02*
X74292380Y-92585746D01*
X74292380Y-92585746D02*
X74352857Y-92706699D01*
X74352857Y-92706699D02*
X74413333Y-92948603D01*
X74413333Y-92948603D02*
X74413333Y-93130032D01*
X74413333Y-93130032D02*
X74352857Y-93371937D01*
X74352857Y-93371937D02*
X74292380Y-93492889D01*
X74292380Y-93492889D02*
X74171428Y-93613842D01*
X74171428Y-93613842D02*
X73989999Y-93674318D01*
X73989999Y-93674318D02*
X73687618Y-93674318D01*
X75622857Y-93674318D02*
X74897142Y-93674318D01*
X75259999Y-93674318D02*
X75259999Y-92404318D01*
X75259999Y-92404318D02*
X75139047Y-92585746D01*
X75139047Y-92585746D02*
X75018095Y-92706699D01*
X75018095Y-92706699D02*
X74897142Y-92767175D01*
X18562618Y-93674318D02*
X18562618Y-92404318D01*
X18562618Y-92404318D02*
X18864999Y-92404318D01*
X18864999Y-92404318D02*
X19046428Y-92464794D01*
X19046428Y-92464794D02*
X19167380Y-92585746D01*
X19167380Y-92585746D02*
X19227857Y-92706699D01*
X19227857Y-92706699D02*
X19288333Y-92948603D01*
X19288333Y-92948603D02*
X19288333Y-93130032D01*
X19288333Y-93130032D02*
X19227857Y-93371937D01*
X19227857Y-93371937D02*
X19167380Y-93492889D01*
X19167380Y-93492889D02*
X19046428Y-93613842D01*
X19046428Y-93613842D02*
X18864999Y-93674318D01*
X18864999Y-93674318D02*
X18562618Y-93674318D01*
X20376904Y-92827651D02*
X20376904Y-93674318D01*
X20074523Y-92343842D02*
X19772142Y-93250984D01*
X19772142Y-93250984D02*
X20558333Y-93250984D01*
X73712618Y-30574318D02*
X73712618Y-29304318D01*
X73712618Y-29304318D02*
X74014999Y-29304318D01*
X74014999Y-29304318D02*
X74196428Y-29364794D01*
X74196428Y-29364794D02*
X74317380Y-29485746D01*
X74317380Y-29485746D02*
X74377857Y-29606699D01*
X74377857Y-29606699D02*
X74438333Y-29848603D01*
X74438333Y-29848603D02*
X74438333Y-30030032D01*
X74438333Y-30030032D02*
X74377857Y-30271937D01*
X74377857Y-30271937D02*
X74317380Y-30392889D01*
X74317380Y-30392889D02*
X74196428Y-30513842D01*
X74196428Y-30513842D02*
X74014999Y-30574318D01*
X74014999Y-30574318D02*
X73712618Y-30574318D01*
X75587380Y-29304318D02*
X74982618Y-29304318D01*
X74982618Y-29304318D02*
X74922142Y-29909080D01*
X74922142Y-29909080D02*
X74982618Y-29848603D01*
X74982618Y-29848603D02*
X75103571Y-29788127D01*
X75103571Y-29788127D02*
X75405952Y-29788127D01*
X75405952Y-29788127D02*
X75526904Y-29848603D01*
X75526904Y-29848603D02*
X75587380Y-29909080D01*
X75587380Y-29909080D02*
X75647857Y-30030032D01*
X75647857Y-30030032D02*
X75647857Y-30332413D01*
X75647857Y-30332413D02*
X75587380Y-30453365D01*
X75587380Y-30453365D02*
X75526904Y-30513842D01*
X75526904Y-30513842D02*
X75405952Y-30574318D01*
X75405952Y-30574318D02*
X75103571Y-30574318D01*
X75103571Y-30574318D02*
X74982618Y-30513842D01*
X74982618Y-30513842D02*
X74922142Y-30453365D01*
X55312618Y-30574318D02*
X55312618Y-29304318D01*
X55312618Y-29304318D02*
X55614999Y-29304318D01*
X55614999Y-29304318D02*
X55796428Y-29364794D01*
X55796428Y-29364794D02*
X55917380Y-29485746D01*
X55917380Y-29485746D02*
X55977857Y-29606699D01*
X55977857Y-29606699D02*
X56038333Y-29848603D01*
X56038333Y-29848603D02*
X56038333Y-30030032D01*
X56038333Y-30030032D02*
X55977857Y-30271937D01*
X55977857Y-30271937D02*
X55917380Y-30392889D01*
X55917380Y-30392889D02*
X55796428Y-30513842D01*
X55796428Y-30513842D02*
X55614999Y-30574318D01*
X55614999Y-30574318D02*
X55312618Y-30574318D01*
X57126904Y-29304318D02*
X56884999Y-29304318D01*
X56884999Y-29304318D02*
X56764047Y-29364794D01*
X56764047Y-29364794D02*
X56703571Y-29425270D01*
X56703571Y-29425270D02*
X56582618Y-29606699D01*
X56582618Y-29606699D02*
X56522142Y-29848603D01*
X56522142Y-29848603D02*
X56522142Y-30332413D01*
X56522142Y-30332413D02*
X56582618Y-30453365D01*
X56582618Y-30453365D02*
X56643095Y-30513842D01*
X56643095Y-30513842D02*
X56764047Y-30574318D01*
X56764047Y-30574318D02*
X57005952Y-30574318D01*
X57005952Y-30574318D02*
X57126904Y-30513842D01*
X57126904Y-30513842D02*
X57187380Y-30453365D01*
X57187380Y-30453365D02*
X57247857Y-30332413D01*
X57247857Y-30332413D02*
X57247857Y-30030032D01*
X57247857Y-30030032D02*
X57187380Y-29909080D01*
X57187380Y-29909080D02*
X57126904Y-29848603D01*
X57126904Y-29848603D02*
X57005952Y-29788127D01*
X57005952Y-29788127D02*
X56764047Y-29788127D01*
X56764047Y-29788127D02*
X56643095Y-29848603D01*
X56643095Y-29848603D02*
X56582618Y-29909080D01*
X56582618Y-29909080D02*
X56522142Y-30030032D01*
X36937618Y-30574318D02*
X36937618Y-29304318D01*
X36937618Y-29304318D02*
X37239999Y-29304318D01*
X37239999Y-29304318D02*
X37421428Y-29364794D01*
X37421428Y-29364794D02*
X37542380Y-29485746D01*
X37542380Y-29485746D02*
X37602857Y-29606699D01*
X37602857Y-29606699D02*
X37663333Y-29848603D01*
X37663333Y-29848603D02*
X37663333Y-30030032D01*
X37663333Y-30030032D02*
X37602857Y-30271937D01*
X37602857Y-30271937D02*
X37542380Y-30392889D01*
X37542380Y-30392889D02*
X37421428Y-30513842D01*
X37421428Y-30513842D02*
X37239999Y-30574318D01*
X37239999Y-30574318D02*
X36937618Y-30574318D01*
X38086666Y-29304318D02*
X38933333Y-29304318D01*
X38933333Y-29304318D02*
X38389047Y-30574318D01*
X18562618Y-30574318D02*
X18562618Y-29304318D01*
X18562618Y-29304318D02*
X18864999Y-29304318D01*
X18864999Y-29304318D02*
X19046428Y-29364794D01*
X19046428Y-29364794D02*
X19167380Y-29485746D01*
X19167380Y-29485746D02*
X19227857Y-29606699D01*
X19227857Y-29606699D02*
X19288333Y-29848603D01*
X19288333Y-29848603D02*
X19288333Y-30030032D01*
X19288333Y-30030032D02*
X19227857Y-30271937D01*
X19227857Y-30271937D02*
X19167380Y-30392889D01*
X19167380Y-30392889D02*
X19046428Y-30513842D01*
X19046428Y-30513842D02*
X18864999Y-30574318D01*
X18864999Y-30574318D02*
X18562618Y-30574318D01*
X20014047Y-29848603D02*
X19893095Y-29788127D01*
X19893095Y-29788127D02*
X19832618Y-29727651D01*
X19832618Y-29727651D02*
X19772142Y-29606699D01*
X19772142Y-29606699D02*
X19772142Y-29546222D01*
X19772142Y-29546222D02*
X19832618Y-29425270D01*
X19832618Y-29425270D02*
X19893095Y-29364794D01*
X19893095Y-29364794D02*
X20014047Y-29304318D01*
X20014047Y-29304318D02*
X20255952Y-29304318D01*
X20255952Y-29304318D02*
X20376904Y-29364794D01*
X20376904Y-29364794D02*
X20437380Y-29425270D01*
X20437380Y-29425270D02*
X20497857Y-29546222D01*
X20497857Y-29546222D02*
X20497857Y-29606699D01*
X20497857Y-29606699D02*
X20437380Y-29727651D01*
X20437380Y-29727651D02*
X20376904Y-29788127D01*
X20376904Y-29788127D02*
X20255952Y-29848603D01*
X20255952Y-29848603D02*
X20014047Y-29848603D01*
X20014047Y-29848603D02*
X19893095Y-29909080D01*
X19893095Y-29909080D02*
X19832618Y-29969556D01*
X19832618Y-29969556D02*
X19772142Y-30090508D01*
X19772142Y-30090508D02*
X19772142Y-30332413D01*
X19772142Y-30332413D02*
X19832618Y-30453365D01*
X19832618Y-30453365D02*
X19893095Y-30513842D01*
X19893095Y-30513842D02*
X20014047Y-30574318D01*
X20014047Y-30574318D02*
X20255952Y-30574318D01*
X20255952Y-30574318D02*
X20376904Y-30513842D01*
X20376904Y-30513842D02*
X20437380Y-30453365D01*
X20437380Y-30453365D02*
X20497857Y-30332413D01*
X20497857Y-30332413D02*
X20497857Y-30090508D01*
X20497857Y-30090508D02*
X20437380Y-29969556D01*
X20437380Y-29969556D02*
X20376904Y-29909080D01*
X20376904Y-29909080D02*
X20255952Y-29848603D01*
D14*
%TO.C,G\u002A\u002A\u002A*%
G36*
X63399281Y-73563593D02*
G01*
X63459155Y-73612099D01*
X63522880Y-73652176D01*
X63594184Y-73685639D01*
X63676798Y-73714306D01*
X63748694Y-73733819D01*
X63786813Y-73742094D01*
X63825267Y-73747666D01*
X63868990Y-73750978D01*
X63922912Y-73752471D01*
X63959241Y-73752678D01*
X64011677Y-73752239D01*
X64062523Y-73750990D01*
X64106830Y-73749108D01*
X64139648Y-73746770D01*
X64146494Y-73746008D01*
X64199355Y-73739276D01*
X64193752Y-73786583D01*
X64177070Y-73853441D01*
X64144296Y-73916618D01*
X64097209Y-73973740D01*
X64037587Y-74022430D01*
X64000615Y-74044482D01*
X63974515Y-74056896D01*
X63935139Y-74073852D01*
X63886093Y-74093883D01*
X63830980Y-74115522D01*
X63773408Y-74137301D01*
X63763824Y-74140842D01*
X63707571Y-74161972D01*
X63654466Y-74182691D01*
X63607761Y-74201671D01*
X63570707Y-74217585D01*
X63546556Y-74229105D01*
X63543261Y-74230938D01*
X63502201Y-74259174D01*
X63460660Y-74294860D01*
X63423355Y-74333370D01*
X63395004Y-74370080D01*
X63386470Y-74384688D01*
X63366586Y-74423813D01*
X63336510Y-74376943D01*
X63311439Y-74342612D01*
X63281523Y-74311463D01*
X63244804Y-74282333D01*
X63199324Y-74254061D01*
X63143128Y-74225484D01*
X63074257Y-74195439D01*
X62990755Y-74162764D01*
X62951305Y-74148143D01*
X62858210Y-74112745D01*
X62780801Y-74080059D01*
X62717274Y-74048886D01*
X62665828Y-74018028D01*
X62624660Y-73986285D01*
X62591968Y-73952460D01*
X62565951Y-73915354D01*
X62547334Y-73879454D01*
X62532354Y-73842141D01*
X62521174Y-73806017D01*
X62514526Y-73774730D01*
X62513141Y-73751928D01*
X62517752Y-73741259D01*
X62519546Y-73740901D01*
X62531737Y-73741630D01*
X62558045Y-73743619D01*
X62594738Y-73746575D01*
X62638082Y-73750204D01*
X62643223Y-73750643D01*
X62762554Y-73755504D01*
X62876217Y-73749614D01*
X62982477Y-73733436D01*
X63079600Y-73707432D01*
X63165851Y-73672063D01*
X63239496Y-73627793D01*
X63297762Y-73576221D01*
X63350009Y-73519203D01*
X63399281Y-73563593D01*
G37*
G36*
X63083170Y-66577357D02*
G01*
X63143104Y-66580224D01*
X63201568Y-66584790D01*
X63255801Y-66591057D01*
X63284779Y-66595565D01*
X63413123Y-66626861D01*
X63535106Y-66674476D01*
X63649763Y-66737643D01*
X63756132Y-66815595D01*
X63853247Y-66907564D01*
X63940146Y-67012784D01*
X64015862Y-67130486D01*
X64057230Y-67210367D01*
X64093031Y-67293276D01*
X64127216Y-67385911D01*
X64156986Y-67480117D01*
X64179113Y-67565787D01*
X64190381Y-67629337D01*
X64199419Y-67706809D01*
X64206039Y-67794322D01*
X64210052Y-67887997D01*
X64211269Y-67983953D01*
X64209500Y-68078310D01*
X64206807Y-68134535D01*
X64202281Y-68203693D01*
X64197339Y-68263958D01*
X64191373Y-68318428D01*
X64183776Y-68370201D01*
X64173938Y-68422377D01*
X64161253Y-68478054D01*
X64145111Y-68540332D01*
X64124905Y-68612308D01*
X64100026Y-68697083D01*
X64089436Y-68732577D01*
X64072427Y-68791224D01*
X64056555Y-68849288D01*
X64042875Y-68902649D01*
X64032444Y-68947186D01*
X64026318Y-68978779D01*
X64026290Y-68978961D01*
X64019253Y-69081383D01*
X64028518Y-69183100D01*
X64053290Y-69281537D01*
X64092773Y-69374118D01*
X64146172Y-69458267D01*
X64190036Y-69509368D01*
X64220105Y-69538586D01*
X64253317Y-69567974D01*
X64286778Y-69595323D01*
X64317596Y-69618425D01*
X64342878Y-69635071D01*
X64359733Y-69643052D01*
X64364657Y-69642705D01*
X64362074Y-69633821D01*
X64351811Y-69613184D01*
X64335671Y-69584246D01*
X64322787Y-69562465D01*
X64290569Y-69506116D01*
X64259156Y-69445732D01*
X64230494Y-69385507D01*
X64206526Y-69329637D01*
X64189198Y-69282317D01*
X64183136Y-69261184D01*
X64175568Y-69221853D01*
X64169994Y-69176169D01*
X64166411Y-69127308D01*
X64164820Y-69078447D01*
X64165220Y-69032761D01*
X64167610Y-68993427D01*
X64171990Y-68963621D01*
X64178359Y-68946518D01*
X64183195Y-68943680D01*
X64193074Y-68950666D01*
X64209037Y-68968062D01*
X64221540Y-68983997D01*
X64277490Y-69057667D01*
X64326754Y-69117456D01*
X64371595Y-69165009D01*
X64414275Y-69201970D01*
X64457053Y-69229985D01*
X64502193Y-69250698D01*
X64551955Y-69265754D01*
X64608601Y-69276798D01*
X64628077Y-69279687D01*
X64707911Y-69285269D01*
X64781296Y-69277608D01*
X64853977Y-69255758D01*
X64901159Y-69234693D01*
X64975234Y-69188460D01*
X65043826Y-69126528D01*
X65105897Y-69050554D01*
X65160410Y-68962199D01*
X65206327Y-68863121D01*
X65242612Y-68754979D01*
X65266256Y-68650813D01*
X65278760Y-68557549D01*
X65285037Y-68456893D01*
X65285164Y-68354224D01*
X65279217Y-68254922D01*
X65267275Y-68164366D01*
X65258709Y-68122474D01*
X65249961Y-68084244D01*
X65245929Y-68060821D01*
X65247055Y-68049608D01*
X65253777Y-68048010D01*
X65266536Y-68053434D01*
X65270103Y-68055263D01*
X65295844Y-68073460D01*
X65327998Y-68103502D01*
X65363581Y-68141977D01*
X65399605Y-68185473D01*
X65433087Y-68230579D01*
X65460224Y-68272498D01*
X65537356Y-68407253D01*
X65602433Y-68530092D01*
X65655877Y-68641961D01*
X65698109Y-68743804D01*
X65729551Y-68836569D01*
X65750625Y-68921200D01*
X65751643Y-68926425D01*
X65758658Y-68978439D01*
X65762843Y-69043228D01*
X65764152Y-69115864D01*
X65762539Y-69191422D01*
X65757961Y-69264974D01*
X65755027Y-69295135D01*
X65748119Y-69349425D01*
X65739161Y-69402285D01*
X65727475Y-69455846D01*
X65712384Y-69512237D01*
X65693210Y-69573590D01*
X65669276Y-69642034D01*
X65639903Y-69719700D01*
X65604413Y-69808718D01*
X65562130Y-69911219D01*
X65549201Y-69942101D01*
X65504913Y-70048862D01*
X65467769Y-70141584D01*
X65437180Y-70222391D01*
X65412559Y-70293408D01*
X65393320Y-70356762D01*
X65378874Y-70414576D01*
X65368634Y-70468977D01*
X65362012Y-70522090D01*
X65358422Y-70576041D01*
X65357275Y-70632954D01*
X65357271Y-70636457D01*
X65359732Y-70719219D01*
X65368002Y-70788192D01*
X65383353Y-70846920D01*
X65407059Y-70898951D01*
X65440393Y-70947829D01*
X65484629Y-70997100D01*
X65487969Y-71000458D01*
X65559474Y-71060228D01*
X65637933Y-71103484D01*
X65723339Y-71130224D01*
X65815684Y-71140445D01*
X65912398Y-71134504D01*
X65991651Y-71115855D01*
X66065835Y-71082170D01*
X66135567Y-71032910D01*
X66201462Y-70967539D01*
X66264138Y-70885520D01*
X66324211Y-70786315D01*
X66334913Y-70766369D01*
X66353735Y-70729504D01*
X66371180Y-70693347D01*
X66383934Y-70664801D01*
X66385439Y-70661095D01*
X66396105Y-70638376D01*
X66405691Y-70624756D01*
X66408861Y-70623018D01*
X66415159Y-70631559D01*
X66420496Y-70655560D01*
X66424845Y-70692585D01*
X66428178Y-70740198D01*
X66430466Y-70795965D01*
X66431681Y-70857450D01*
X66431795Y-70922218D01*
X66430779Y-70987833D01*
X66428606Y-71051860D01*
X66425247Y-71111864D01*
X66420674Y-71165409D01*
X66415604Y-71205381D01*
X66383048Y-71372112D01*
X66338956Y-71526656D01*
X66283545Y-71668586D01*
X66217029Y-71797471D01*
X66139623Y-71912884D01*
X66051543Y-72014397D01*
X65973574Y-72085281D01*
X65947053Y-72106018D01*
X65909193Y-72134432D01*
X65863406Y-72168024D01*
X65813100Y-72204294D01*
X65761688Y-72240744D01*
X65755608Y-72245010D01*
X65669757Y-72306190D01*
X65597529Y-72360042D01*
X65537019Y-72408178D01*
X65486321Y-72452212D01*
X65443529Y-72493757D01*
X65406738Y-72534427D01*
X65390980Y-72553694D01*
X65333413Y-72633839D01*
X65288313Y-72714569D01*
X65253788Y-72800340D01*
X65227943Y-72895611D01*
X65214038Y-72970119D01*
X65207023Y-73009969D01*
X65199828Y-73043685D01*
X65193434Y-73067007D01*
X65189857Y-73074998D01*
X65176293Y-73084902D01*
X65149666Y-73097126D01*
X65109033Y-73111999D01*
X65053447Y-73129847D01*
X64981965Y-73150999D01*
X64922380Y-73167830D01*
X64848198Y-73188706D01*
X64788577Y-73206095D01*
X64740719Y-73220941D01*
X64701822Y-73234183D01*
X64669086Y-73246766D01*
X64639710Y-73259630D01*
X64617558Y-73270349D01*
X64581304Y-73289702D01*
X64550791Y-73309440D01*
X64522371Y-73332713D01*
X64492393Y-73362672D01*
X64457210Y-73402465D01*
X64437808Y-73425497D01*
X64396654Y-73473486D01*
X64362663Y-73509405D01*
X64332660Y-73535822D01*
X64303471Y-73555304D01*
X64271921Y-73570419D01*
X64247282Y-73579587D01*
X64191867Y-73593692D01*
X64123539Y-73603423D01*
X64046761Y-73608783D01*
X63965997Y-73609775D01*
X63885710Y-73606402D01*
X63810364Y-73598669D01*
X63744420Y-73586577D01*
X63717336Y-73579201D01*
X63639211Y-73549595D01*
X63573849Y-73513962D01*
X63522019Y-73473374D01*
X63484490Y-73428902D01*
X63462030Y-73381621D01*
X63455408Y-73332601D01*
X63465392Y-73282915D01*
X63481513Y-73250181D01*
X63499243Y-73225365D01*
X63520786Y-73204038D01*
X63548163Y-73185369D01*
X63583392Y-73168522D01*
X63628494Y-73152664D01*
X63685488Y-73136963D01*
X63756395Y-73120583D01*
X63834906Y-73104348D01*
X63928097Y-73085149D01*
X64005575Y-73067627D01*
X64069383Y-73051054D01*
X64121566Y-73034699D01*
X64164166Y-73017834D01*
X64199228Y-72999731D01*
X64228794Y-72979659D01*
X64254909Y-72956891D01*
X64258660Y-72953194D01*
X64293266Y-72906706D01*
X64317234Y-72849281D01*
X64329874Y-72784879D01*
X64330499Y-72717466D01*
X64318423Y-72651002D01*
X64313678Y-72635978D01*
X64302645Y-72607406D01*
X64287754Y-72573492D01*
X64270779Y-72537715D01*
X64253495Y-72503554D01*
X64237675Y-72474485D01*
X64225094Y-72453987D01*
X64217526Y-72445538D01*
X64216626Y-72445716D01*
X64216003Y-72456168D01*
X64218887Y-72478947D01*
X64224122Y-72506517D01*
X64236031Y-72584523D01*
X64235263Y-72651507D01*
X64221361Y-72709556D01*
X64193864Y-72760756D01*
X64159476Y-72800434D01*
X64132930Y-72823975D01*
X64103550Y-72844965D01*
X64068723Y-72864651D01*
X64025838Y-72884280D01*
X63972284Y-72905098D01*
X63905448Y-72928354D01*
X63860687Y-72943088D01*
X63771144Y-72972222D01*
X63696819Y-72996674D01*
X63635848Y-73017173D01*
X63586368Y-73034453D01*
X63546516Y-73049244D01*
X63514429Y-73062279D01*
X63488244Y-73074287D01*
X63466096Y-73086002D01*
X63446123Y-73098154D01*
X63426461Y-73111476D01*
X63419865Y-73116152D01*
X63382218Y-73143039D01*
X63338997Y-73115305D01*
X63313774Y-73100343D01*
X63285020Y-73085977D01*
X63250525Y-73071409D01*
X63208081Y-73055841D01*
X63155479Y-73038477D01*
X63090510Y-73018520D01*
X63010965Y-72995171D01*
X62987142Y-72988309D01*
X62897655Y-72962208D01*
X62823443Y-72939501D01*
X62762382Y-72919298D01*
X62712348Y-72900707D01*
X62671217Y-72882838D01*
X62636865Y-72864799D01*
X62607168Y-72845700D01*
X62580002Y-72824650D01*
X62564284Y-72810939D01*
X62530361Y-72775845D01*
X62508080Y-72740253D01*
X62495453Y-72699192D01*
X62490497Y-72647690D01*
X62490208Y-72625452D01*
X62491695Y-72577333D01*
X62496897Y-72538095D01*
X62507313Y-72498835D01*
X62515567Y-72474673D01*
X62526644Y-72442110D01*
X62534201Y-72416532D01*
X62537043Y-72402124D01*
X62536725Y-72400514D01*
X62529022Y-72403991D01*
X62515149Y-72419733D01*
X62497546Y-72444290D01*
X62478652Y-72474211D01*
X62460905Y-72506046D01*
X62457775Y-72512204D01*
X62424353Y-72597502D01*
X62407358Y-72687567D01*
X62404779Y-72742680D01*
X62408389Y-72805667D01*
X62420240Y-72856978D01*
X62441859Y-72901555D01*
X62462932Y-72930556D01*
X62491483Y-72961771D01*
X62523302Y-72988517D01*
X62560724Y-73011837D01*
X62606079Y-73032770D01*
X62661699Y-73052357D01*
X62729917Y-73071639D01*
X62813064Y-73091657D01*
X62834832Y-73096539D01*
X62921110Y-73116109D01*
X62992189Y-73133375D01*
X63050507Y-73149174D01*
X63098508Y-73164340D01*
X63138631Y-73179711D01*
X63173319Y-73196123D01*
X63205011Y-73214412D01*
X63232416Y-73232762D01*
X63246526Y-73243835D01*
X63253619Y-73255180D01*
X63255245Y-73272417D01*
X63252954Y-73301162D01*
X63252501Y-73305543D01*
X63236636Y-73374795D01*
X63204622Y-73437445D01*
X63157254Y-73492722D01*
X63095327Y-73539852D01*
X63019636Y-73578064D01*
X62946825Y-73602481D01*
X62907028Y-73610162D01*
X62854340Y-73615925D01*
X62793699Y-73619648D01*
X62730042Y-73621210D01*
X62668308Y-73620490D01*
X62613433Y-73617364D01*
X62570529Y-73611746D01*
X62507886Y-73596650D01*
X62451243Y-73577487D01*
X62404824Y-73555880D01*
X62377362Y-73537486D01*
X62361308Y-73521016D01*
X62338401Y-73493707D01*
X62311860Y-73459542D01*
X62288194Y-73427162D01*
X62242332Y-73368204D01*
X62194880Y-73320124D01*
X62142680Y-73280970D01*
X62082575Y-73248793D01*
X62011406Y-73221641D01*
X61926016Y-73197564D01*
X61910320Y-73193747D01*
X61824344Y-73173183D01*
X61754032Y-73156262D01*
X61697608Y-73142531D01*
X61653292Y-73131533D01*
X61619305Y-73122815D01*
X61593869Y-73115923D01*
X61575206Y-73110402D01*
X61561536Y-73105796D01*
X61552832Y-73102397D01*
X61542128Y-73097555D01*
X61533585Y-73091536D01*
X61526172Y-73081870D01*
X61518852Y-73066086D01*
X61510592Y-73041715D01*
X61500357Y-73006287D01*
X61487114Y-72957331D01*
X61478433Y-72924726D01*
X61456474Y-72843645D01*
X61437375Y-72776960D01*
X61420072Y-72721581D01*
X61403497Y-72674420D01*
X61386583Y-72632389D01*
X61368264Y-72592400D01*
X61353398Y-72562736D01*
X61307486Y-72490911D01*
X61244570Y-72419807D01*
X61165566Y-72350328D01*
X61071389Y-72283378D01*
X61069211Y-72281977D01*
X60986795Y-72229042D01*
X60917919Y-72184644D01*
X60861020Y-72147680D01*
X60814535Y-72117045D01*
X60776900Y-72091635D01*
X60746552Y-72070346D01*
X60721928Y-72052073D01*
X60701465Y-72035712D01*
X60683599Y-72020159D01*
X60666767Y-72004308D01*
X60649406Y-71987057D01*
X60644041Y-71981627D01*
X60558479Y-71882284D01*
X60483974Y-71769397D01*
X60420873Y-71643790D01*
X60369525Y-71506286D01*
X60354996Y-71451284D01*
X61493417Y-71451284D01*
X61495470Y-71474105D01*
X61499748Y-71504721D01*
X61499783Y-71504941D01*
X61523116Y-71597702D01*
X61562093Y-71681755D01*
X61616728Y-71757117D01*
X61687032Y-71823803D01*
X61773021Y-71881832D01*
X61804497Y-71898908D01*
X61839640Y-71916421D01*
X61874444Y-71932380D01*
X61911453Y-71947690D01*
X61953208Y-71963261D01*
X62002251Y-71979999D01*
X62061126Y-71998812D01*
X62132374Y-72020607D01*
X62212046Y-72044371D01*
X62322204Y-72077780D01*
X62417824Y-72108480D01*
X62498178Y-72136216D01*
X62562538Y-72160738D01*
X62610176Y-72181793D01*
X62614103Y-72183754D01*
X62648717Y-72201280D01*
X62642918Y-72108745D01*
X62639885Y-72064190D01*
X62636540Y-72021160D01*
X62633405Y-71986107D01*
X62631988Y-71972827D01*
X62629429Y-71947273D01*
X62630673Y-71935946D01*
X62637087Y-71935320D01*
X62645046Y-71939178D01*
X62663039Y-71956641D01*
X62682165Y-71988870D01*
X62701080Y-72032883D01*
X62718438Y-72085699D01*
X62728404Y-72123997D01*
X62737060Y-72160687D01*
X62744388Y-72191286D01*
X62749285Y-72211196D01*
X62750432Y-72215558D01*
X62758435Y-72226195D01*
X62771360Y-72219731D01*
X62789069Y-72196255D01*
X62794259Y-72187684D01*
X62836960Y-72099007D01*
X62864702Y-72005824D01*
X62877325Y-71910796D01*
X62876262Y-71873073D01*
X63838800Y-71873073D01*
X63842196Y-71957838D01*
X63855506Y-72039142D01*
X63878479Y-72113613D01*
X63910868Y-72177876D01*
X63933171Y-72208321D01*
X63959241Y-72239163D01*
X63965632Y-72188219D01*
X63972144Y-72152660D01*
X63982827Y-72110175D01*
X63994176Y-72073570D01*
X64015565Y-72020417D01*
X64039001Y-71976614D01*
X64062676Y-71945158D01*
X64080067Y-71931163D01*
X64092665Y-71925092D01*
X64096928Y-71926993D01*
X64093320Y-71939873D01*
X64084673Y-71961072D01*
X64077474Y-71989289D01*
X64072987Y-72029023D01*
X64071322Y-72074061D01*
X64072587Y-72118192D01*
X64076893Y-72155204D01*
X64080972Y-72171384D01*
X64090711Y-72199319D01*
X64150408Y-72169366D01*
X64182804Y-72153802D01*
X64217313Y-72138792D01*
X64256323Y-72123496D01*
X64302218Y-72107072D01*
X64357387Y-72088676D01*
X64424214Y-72067467D01*
X64505087Y-72042603D01*
X64537125Y-72032889D01*
X64599796Y-72013561D01*
X64662928Y-71993414D01*
X64722324Y-71973837D01*
X64773784Y-71956219D01*
X64813110Y-71941947D01*
X64819347Y-71939539D01*
X64922636Y-71892124D01*
X65010110Y-71836896D01*
X65082262Y-71773467D01*
X65139587Y-71701453D01*
X65155173Y-71676018D01*
X65171740Y-71641246D01*
X65188094Y-71597160D01*
X65202435Y-71549824D01*
X65212967Y-71505298D01*
X65217889Y-71469645D01*
X65218042Y-71464110D01*
X65218042Y-71439003D01*
X65112768Y-71489190D01*
X65048650Y-71519247D01*
X64999207Y-71541225D01*
X64963347Y-71555554D01*
X64939973Y-71562663D01*
X64927993Y-71562982D01*
X64926755Y-71562160D01*
X64927366Y-71551773D01*
X64934858Y-71530951D01*
X64943177Y-71513133D01*
X64978244Y-71426493D01*
X64999069Y-71335307D01*
X65005717Y-71242609D01*
X64998253Y-71151438D01*
X64976741Y-71064829D01*
X64941247Y-70985820D01*
X64931568Y-70969759D01*
X64915355Y-70946591D01*
X64901736Y-70931292D01*
X64895699Y-70927639D01*
X64889776Y-70935554D01*
X64886565Y-70955181D01*
X64886387Y-70961237D01*
X64878585Y-71035718D01*
X64857237Y-71113748D01*
X64824445Y-71190146D01*
X64782311Y-71259731D01*
X64748223Y-71301786D01*
X64721390Y-71329149D01*
X64692575Y-71354795D01*
X64659634Y-71380110D01*
X64620426Y-71406482D01*
X64572807Y-71435297D01*
X64514633Y-71467943D01*
X64443763Y-71505806D01*
X64388673Y-71534493D01*
X64318430Y-71571016D01*
X64261807Y-71601158D01*
X64216382Y-71626527D01*
X64179734Y-71648728D01*
X64149442Y-71669369D01*
X64123084Y-71690056D01*
X64098240Y-71712396D01*
X64072489Y-71737996D01*
X64055732Y-71755446D01*
X64016315Y-71793838D01*
X63985413Y-71816956D01*
X63962549Y-71825027D01*
X63947247Y-71818277D01*
X63942281Y-71809410D01*
X63937942Y-71784193D01*
X63937812Y-71743647D01*
X63941809Y-71689843D01*
X63949616Y-71626475D01*
X63954417Y-71589465D01*
X63957392Y-71559588D01*
X63958179Y-71540940D01*
X63957489Y-71536880D01*
X63949026Y-71539222D01*
X63935115Y-71554825D01*
X63917866Y-71580701D01*
X63899385Y-71613864D01*
X63890579Y-71631739D01*
X63862742Y-71706650D01*
X63845565Y-71788219D01*
X63838800Y-71873073D01*
X62876262Y-71873073D01*
X62874669Y-71816584D01*
X62856576Y-71725848D01*
X62826511Y-71648439D01*
X62808158Y-71613699D01*
X62790037Y-71583561D01*
X62775201Y-71562978D01*
X62771235Y-71558845D01*
X62751514Y-71541360D01*
X62757214Y-71564836D01*
X62762748Y-71597377D01*
X62766747Y-71639891D01*
X62769061Y-71686962D01*
X62769541Y-71733174D01*
X62768038Y-71773111D01*
X62764401Y-71801356D01*
X62763803Y-71803746D01*
X62753332Y-71842147D01*
X62693289Y-71787571D01*
X62659919Y-71758359D01*
X62625702Y-71731041D01*
X62588074Y-71703929D01*
X62544471Y-71675334D01*
X62492326Y-71643569D01*
X62429078Y-71606945D01*
X62359982Y-71568123D01*
X62253763Y-71507207D01*
X62162978Y-71450915D01*
X62086163Y-71397900D01*
X62021858Y-71346813D01*
X61968599Y-71296309D01*
X61924924Y-71245039D01*
X61889372Y-71191658D01*
X61860481Y-71134818D01*
X61843422Y-71092209D01*
X61831016Y-71052137D01*
X61820967Y-71009190D01*
X61816407Y-70980291D01*
X61812276Y-70952294D01*
X61807155Y-70933198D01*
X61803089Y-70927639D01*
X61793791Y-70934570D01*
X61780615Y-70951733D01*
X61777417Y-70956757D01*
X61743932Y-71027091D01*
X61721901Y-71108480D01*
X61711471Y-71198076D01*
X61712788Y-71293031D01*
X61725999Y-71390499D01*
X61750203Y-71484400D01*
X61760944Y-71518786D01*
X61768734Y-71545662D01*
X61772525Y-71561299D01*
X61772528Y-71563759D01*
X61758016Y-71560033D01*
X61731280Y-71549958D01*
X61696129Y-71535182D01*
X61656371Y-71517357D01*
X61615816Y-71498134D01*
X61582967Y-71481617D01*
X61547945Y-71463914D01*
X61519170Y-71450325D01*
X61500059Y-71442404D01*
X61494032Y-71441184D01*
X61493417Y-71451284D01*
X60354996Y-71451284D01*
X60330278Y-71357709D01*
X60303480Y-71198883D01*
X60299829Y-71167657D01*
X60296916Y-71130896D01*
X60294587Y-71081694D01*
X60292855Y-71023507D01*
X60291734Y-70959792D01*
X60291237Y-70894004D01*
X60291378Y-70829602D01*
X60292168Y-70770042D01*
X60293621Y-70718780D01*
X60295752Y-70679272D01*
X60297889Y-70658856D01*
X60304098Y-70618538D01*
X60365816Y-70730531D01*
X60418669Y-70823289D01*
X60467055Y-70900719D01*
X60512587Y-70964350D01*
X60556878Y-71015711D01*
X60601539Y-71056331D01*
X60648183Y-71087737D01*
X60698422Y-71111460D01*
X60753867Y-71129028D01*
X60795856Y-71138332D01*
X60859927Y-71148214D01*
X60914753Y-71150663D01*
X60967399Y-71145662D01*
X61006273Y-71137829D01*
X61089190Y-71109362D01*
X61163547Y-71065654D01*
X61227826Y-71007942D01*
X61280512Y-70937460D01*
X61302772Y-70896281D01*
X61323922Y-70849036D01*
X61339008Y-70806412D01*
X61348807Y-70763881D01*
X61354096Y-70716915D01*
X61355653Y-70660985D01*
X61354389Y-70595620D01*
X61351917Y-70537510D01*
X61348339Y-70492039D01*
X61342938Y-70453929D01*
X61335001Y-70417905D01*
X61325908Y-70385593D01*
X61306548Y-70325683D01*
X61280098Y-70250853D01*
X61247055Y-70162418D01*
X61207915Y-70061691D01*
X61163173Y-69949986D01*
X61141999Y-69898086D01*
X61098152Y-69787890D01*
X61059172Y-69683275D01*
X61025933Y-69586784D01*
X60999311Y-69500962D01*
X60980181Y-69428352D01*
X60979737Y-69426427D01*
X60970014Y-69371620D01*
X60962455Y-69304229D01*
X60957272Y-69229483D01*
X60954680Y-69152611D01*
X60954892Y-69078842D01*
X60958123Y-69013405D01*
X60961527Y-68980851D01*
X60991046Y-68826927D01*
X61037941Y-68677234D01*
X61102132Y-68531956D01*
X61183538Y-68391282D01*
X61265811Y-68275978D01*
X61300295Y-68232543D01*
X61335923Y-68189171D01*
X61370717Y-68148112D01*
X61402698Y-68111614D01*
X61429890Y-68081925D01*
X61450313Y-68061294D01*
X61461988Y-68051971D01*
X61463151Y-68051660D01*
X61464846Y-68059583D01*
X61462628Y-68080299D01*
X61457332Y-68107656D01*
X61452505Y-68138430D01*
X61448149Y-68184752D01*
X61444422Y-68244257D01*
X61441483Y-68314577D01*
X61440064Y-68365240D01*
X61438667Y-68433052D01*
X61438091Y-68486346D01*
X61438504Y-68528511D01*
X61440071Y-68562936D01*
X61442958Y-68593009D01*
X61447330Y-68622119D01*
X61453354Y-68653656D01*
X61454433Y-68658916D01*
X61487554Y-68788686D01*
X61530370Y-68903674D01*
X61583080Y-69004294D01*
X61645881Y-69090959D01*
X61679065Y-69127114D01*
X61753639Y-69191673D01*
X61832314Y-69238800D01*
X61915329Y-69268563D01*
X62002927Y-69281028D01*
X62095350Y-69276262D01*
X62165687Y-69262024D01*
X62245866Y-69235097D01*
X62315117Y-69198279D01*
X62375628Y-69149715D01*
X62429590Y-69087547D01*
X62479190Y-69009918D01*
X62492992Y-68984400D01*
X62512430Y-68948048D01*
X62529383Y-68917852D01*
X62541887Y-68897214D01*
X62547652Y-68889663D01*
X62554867Y-68890025D01*
X62560929Y-68902019D01*
X62566221Y-68927320D01*
X62571124Y-68967606D01*
X62574771Y-69008580D01*
X62578268Y-69123072D01*
X62568729Y-69228032D01*
X62545235Y-69326943D01*
X62506865Y-69423289D01*
X62452699Y-69520554D01*
X62430624Y-69554300D01*
X62410953Y-69583939D01*
X62395865Y-69607774D01*
X62387681Y-69622092D01*
X62386860Y-69624342D01*
X62394032Y-69623145D01*
X62412924Y-69614954D01*
X62439601Y-69601492D01*
X62442385Y-69600009D01*
X62483681Y-69573377D01*
X62529300Y-69536680D01*
X62574574Y-69494359D01*
X62614840Y-69450856D01*
X62645429Y-69410614D01*
X62651285Y-69401126D01*
X62679139Y-69348634D01*
X62699134Y-69298912D01*
X62712594Y-69246833D01*
X62720847Y-69187270D01*
X62725213Y-69115175D01*
X62726510Y-69067271D01*
X62726404Y-69024556D01*
X62724427Y-68984391D01*
X62720109Y-68944135D01*
X62712982Y-68901148D01*
X62702575Y-68852789D01*
X62688420Y-68796417D01*
X62670047Y-68729392D01*
X62646988Y-68649074D01*
X62635216Y-68608776D01*
X62562532Y-68360760D01*
X62562174Y-68217409D01*
X62562819Y-68150765D01*
X62565891Y-68097980D01*
X62572533Y-68055038D01*
X62583887Y-68017926D01*
X62601096Y-67982630D01*
X62625303Y-67945134D01*
X62648813Y-67913054D01*
X62684714Y-67869663D01*
X62725199Y-67829537D01*
X62773225Y-67790279D01*
X62831751Y-67749490D01*
X62903734Y-67704773D01*
X62910987Y-67700466D01*
X62985938Y-67654974D01*
X63046863Y-67615045D01*
X63095962Y-67578637D01*
X63135435Y-67543708D01*
X63167479Y-67508214D01*
X63194296Y-67470114D01*
X63218083Y-67427365D01*
X63228678Y-67405439D01*
X63257595Y-67323663D01*
X63268934Y-67240056D01*
X63262668Y-67154420D01*
X63238769Y-67066559D01*
X63197210Y-66976274D01*
X63160000Y-66915122D01*
X63108335Y-66846305D01*
X63044421Y-66775382D01*
X62972641Y-66706907D01*
X62908663Y-66653988D01*
X62880616Y-66631298D01*
X62859417Y-66611968D01*
X62848144Y-66598915D01*
X62847155Y-66595756D01*
X62857985Y-66588457D01*
X62883896Y-66582849D01*
X62922128Y-66578934D01*
X62969923Y-66576713D01*
X63024524Y-66576187D01*
X63083170Y-66577357D01*
G37*
G36*
X72081584Y-66766541D02*
G01*
X72108592Y-66788055D01*
X72138260Y-66828112D01*
X72155367Y-66856619D01*
X72240276Y-67020817D01*
X72304684Y-67180232D01*
X72348742Y-67335443D01*
X72372600Y-67487031D01*
X72376407Y-67635573D01*
X72372387Y-67693873D01*
X72357835Y-67795941D01*
X72333297Y-67894236D01*
X72296848Y-67995212D01*
X72254583Y-68088963D01*
X72217957Y-68158829D01*
X72170614Y-68240498D01*
X72115497Y-68329386D01*
X72055550Y-68420907D01*
X71993717Y-68510474D01*
X71932939Y-68593502D01*
X71919333Y-68611303D01*
X71876754Y-68667351D01*
X71847131Y-68708452D01*
X71829613Y-68735927D01*
X71823351Y-68751095D01*
X71826725Y-68755318D01*
X71841420Y-68747552D01*
X71843602Y-68744650D01*
X71860189Y-68735357D01*
X71886240Y-68735051D01*
X71912325Y-68742814D01*
X71925636Y-68752651D01*
X71939209Y-68773886D01*
X71954516Y-68805334D01*
X71960028Y-68818709D01*
X71975156Y-68853764D01*
X71992789Y-68884475D01*
X72016557Y-68915789D01*
X72050091Y-68952654D01*
X72082546Y-68985635D01*
X72121463Y-69027692D01*
X72142520Y-69060794D01*
X72145329Y-69088233D01*
X72129505Y-69113298D01*
X72094659Y-69139277D01*
X72062292Y-69157851D01*
X71929655Y-69235928D01*
X71814767Y-69317484D01*
X71714045Y-69405694D01*
X71623905Y-69503729D01*
X71540763Y-69614762D01*
X71532698Y-69626700D01*
X71486698Y-69700568D01*
X71444266Y-69778496D01*
X71407469Y-69855934D01*
X71378377Y-69928328D01*
X71359057Y-69991126D01*
X71353041Y-70022118D01*
X71351021Y-70055365D01*
X71354376Y-70075238D01*
X71361510Y-70079399D01*
X71370828Y-70065515D01*
X71374892Y-70054121D01*
X71387909Y-70019076D01*
X71409058Y-69969897D01*
X71436122Y-69911104D01*
X71466878Y-69847216D01*
X71499109Y-69782755D01*
X71530593Y-69722241D01*
X71559111Y-69670195D01*
X71582443Y-69631136D01*
X71583128Y-69630076D01*
X71606459Y-69598524D01*
X71640605Y-69558027D01*
X71682359Y-69511844D01*
X71728510Y-69463235D01*
X71775850Y-69415459D01*
X71821169Y-69371774D01*
X71861260Y-69335439D01*
X71892911Y-69309713D01*
X71908450Y-69299701D01*
X71937325Y-69282861D01*
X71970126Y-69260614D01*
X71977830Y-69254882D01*
X72010678Y-69233974D01*
X72051828Y-69213148D01*
X72073840Y-69203967D01*
X72125566Y-69183241D01*
X72161517Y-69164043D01*
X72186339Y-69141721D01*
X72204678Y-69111625D01*
X72221181Y-69069103D01*
X72227463Y-69050178D01*
X72243292Y-69004398D01*
X72258409Y-68971161D01*
X72277442Y-68943125D01*
X72305019Y-68912949D01*
X72328542Y-68889843D01*
X72372091Y-68851031D01*
X72417713Y-68818022D01*
X72472276Y-68786206D01*
X72516441Y-68763660D01*
X72636959Y-68699818D01*
X72738196Y-68635558D01*
X72822138Y-68568777D01*
X72890772Y-68497372D01*
X72946086Y-68419239D01*
X72990067Y-68332275D01*
X73024701Y-68234378D01*
X73028286Y-68221929D01*
X73035968Y-68181555D01*
X73041836Y-68124300D01*
X73045885Y-68054544D01*
X73048111Y-67976663D01*
X73048506Y-67895036D01*
X73047067Y-67814042D01*
X73043789Y-67738058D01*
X73038665Y-67671462D01*
X73031690Y-67618634D01*
X73029026Y-67605166D01*
X73017848Y-67543672D01*
X73012678Y-67489461D01*
X73013607Y-67446459D01*
X73020727Y-67418592D01*
X73024526Y-67413310D01*
X73048617Y-67399730D01*
X73075819Y-67404821D01*
X73106785Y-67429073D01*
X73142167Y-67472976D01*
X73177630Y-67528522D01*
X73199379Y-67564489D01*
X73218433Y-67594617D01*
X73230984Y-67612902D01*
X73231749Y-67613865D01*
X73240609Y-67628276D01*
X73257129Y-67658404D01*
X73279511Y-67700843D01*
X73305953Y-67752185D01*
X73330970Y-67801661D01*
X73373000Y-67888551D01*
X73405575Y-67963457D01*
X73431036Y-68032171D01*
X73451690Y-68100359D01*
X73464758Y-68149642D01*
X73474051Y-68189906D01*
X73480212Y-68226755D01*
X73483881Y-68265791D01*
X73485699Y-68312616D01*
X73486308Y-68372832D01*
X73486358Y-68403281D01*
X73486441Y-68579299D01*
X73448380Y-68664704D01*
X73381045Y-68792153D01*
X73297669Y-68910331D01*
X73230415Y-68985917D01*
X73144136Y-69078342D01*
X73075271Y-69162739D01*
X73022338Y-69240986D01*
X73004375Y-69272706D01*
X72985476Y-69309907D01*
X72973389Y-69340373D01*
X72966281Y-69371533D01*
X72962323Y-69410817D01*
X72960249Y-69451774D01*
X72955874Y-69556168D01*
X72993628Y-69613030D01*
X73045457Y-69678070D01*
X73113865Y-69744066D01*
X73194553Y-69807583D01*
X73283219Y-69865184D01*
X73361095Y-69906663D01*
X73396710Y-69924684D01*
X73416854Y-69938609D01*
X73425787Y-69952464D01*
X73427769Y-69969693D01*
X73425710Y-69990964D01*
X73416848Y-70006418D01*
X73397157Y-70019378D01*
X73362609Y-70033167D01*
X73342426Y-70040097D01*
X73257655Y-70072564D01*
X73188219Y-70109216D01*
X73128118Y-70154121D01*
X73071353Y-70211347D01*
X73046433Y-70240807D01*
X73022534Y-70270144D01*
X72772146Y-70270144D01*
X72692660Y-70270064D01*
X72631852Y-70269680D01*
X72587063Y-70268775D01*
X72555636Y-70267133D01*
X72534911Y-70264538D01*
X72522231Y-70260774D01*
X72514937Y-70255623D01*
X72510372Y-70248870D01*
X72510352Y-70248833D01*
X72505890Y-70230463D01*
X72501870Y-70195541D01*
X72498699Y-70148850D01*
X72496784Y-70095172D01*
X72496642Y-70087515D01*
X72495714Y-70029916D01*
X72496084Y-69989774D01*
X72499148Y-69963208D01*
X72506300Y-69946340D01*
X72518932Y-69935291D01*
X72538441Y-69926181D01*
X72557300Y-69918735D01*
X72578946Y-69907418D01*
X72580627Y-69899150D01*
X72563533Y-69894226D01*
X72528857Y-69892943D01*
X72477789Y-69895597D01*
X72467668Y-69896451D01*
X72407721Y-69904184D01*
X72351623Y-69917341D01*
X72294515Y-69937733D01*
X72231543Y-69967167D01*
X72157848Y-70007453D01*
X72136666Y-70019733D01*
X72047461Y-70081620D01*
X71958740Y-70161450D01*
X71873074Y-70255932D01*
X71793036Y-70361773D01*
X71721197Y-70475685D01*
X71660130Y-70594374D01*
X71628321Y-70670186D01*
X71604351Y-70739204D01*
X71580757Y-70818023D01*
X71559833Y-70898172D01*
X71543877Y-70971179D01*
X71538704Y-71000887D01*
X71533914Y-71047717D01*
X71531291Y-71107048D01*
X71530846Y-71171069D01*
X71532592Y-71231970D01*
X71536540Y-71281940D01*
X71538256Y-71294251D01*
X71542172Y-71316812D01*
X71545006Y-71325094D01*
X71547515Y-71317258D01*
X71550456Y-71291464D01*
X71553604Y-71256914D01*
X71560610Y-71186603D01*
X71569165Y-71114198D01*
X71578657Y-71043771D01*
X71588476Y-70979394D01*
X71598011Y-70925139D01*
X71606652Y-70885077D01*
X71612058Y-70867101D01*
X71631649Y-70833291D01*
X71658621Y-70818300D01*
X71696773Y-70819828D01*
X71729264Y-70823756D01*
X71777504Y-70826424D01*
X71836523Y-70827875D01*
X71901348Y-70828150D01*
X71967007Y-70827290D01*
X72028529Y-70825338D01*
X72080941Y-70822336D01*
X72119271Y-70818325D01*
X72130698Y-70816179D01*
X72204830Y-70788161D01*
X72276424Y-70742420D01*
X72342432Y-70682560D01*
X72399804Y-70612188D01*
X72445492Y-70534910D01*
X72476445Y-70454329D01*
X72488205Y-70393427D01*
X72493654Y-70355639D01*
X72500746Y-70325892D01*
X72507356Y-70311530D01*
X72520469Y-70308637D01*
X72551218Y-70306115D01*
X72595925Y-70303996D01*
X72650915Y-70302312D01*
X72712507Y-70301094D01*
X72777025Y-70300376D01*
X72840791Y-70300189D01*
X72900128Y-70300566D01*
X72951356Y-70301538D01*
X72990799Y-70303137D01*
X73014778Y-70305395D01*
X73020194Y-70307060D01*
X73023166Y-70319504D01*
X73026272Y-70347698D01*
X73028928Y-70386068D01*
X73029377Y-70394947D01*
X73044628Y-70511969D01*
X73078937Y-70619532D01*
X73132423Y-70718005D01*
X73135970Y-70723231D01*
X73147961Y-70753156D01*
X73149006Y-70785595D01*
X73138921Y-70810654D01*
X73137605Y-70812067D01*
X73112146Y-70823224D01*
X73072623Y-70822126D01*
X73022904Y-70809047D01*
X72968962Y-70795562D01*
X72903385Y-70787292D01*
X72835364Y-70784820D01*
X72774089Y-70788729D01*
X72754455Y-70792015D01*
X72679709Y-70817116D01*
X72609834Y-70858457D01*
X72551694Y-70911745D01*
X72539962Y-70926212D01*
X72515556Y-70962241D01*
X72496261Y-71000871D01*
X72480854Y-71046168D01*
X72468114Y-71102197D01*
X72456816Y-71173024D01*
X72450150Y-71224911D01*
X72441231Y-71270822D01*
X72425662Y-71298729D01*
X72399974Y-71311725D01*
X72360696Y-71312904D01*
X72352305Y-71312140D01*
X72300321Y-71311706D01*
X72240876Y-71318626D01*
X72183111Y-71331306D01*
X72136166Y-71348154D01*
X72131118Y-71350681D01*
X72099952Y-71372118D01*
X72065121Y-71403587D01*
X72032474Y-71438960D01*
X72007860Y-71472109D01*
X71999177Y-71488917D01*
X71993992Y-71524277D01*
X71998138Y-71569908D01*
X72010154Y-71617675D01*
X72028578Y-71659446D01*
X72030346Y-71662383D01*
X72050558Y-71689389D01*
X72079324Y-71721315D01*
X72098857Y-71740448D01*
X72145949Y-71783856D01*
X72197464Y-71759213D01*
X72243982Y-71740253D01*
X72308961Y-71718759D01*
X72389792Y-71695547D01*
X72457000Y-71678063D01*
X72514369Y-71667506D01*
X72587481Y-71659779D01*
X72670918Y-71654981D01*
X72759263Y-71653210D01*
X72847098Y-71654563D01*
X72929007Y-71659139D01*
X72999571Y-71667036D01*
X73006391Y-71668109D01*
X73056628Y-71676004D01*
X73109889Y-71683939D01*
X73145072Y-71688885D01*
X73195732Y-71698211D01*
X73259907Y-71713775D01*
X73331321Y-71733848D01*
X73403696Y-71756700D01*
X73450680Y-71773099D01*
X73516075Y-71796077D01*
X73587301Y-71819568D01*
X73659500Y-71842111D01*
X73727814Y-71862245D01*
X73787383Y-71878508D01*
X73833349Y-71889438D01*
X73844654Y-71891617D01*
X73928402Y-71896742D01*
X74020480Y-71885563D01*
X74117206Y-71859408D01*
X74214897Y-71819602D01*
X74309867Y-71767474D01*
X74398434Y-71704350D01*
X74423694Y-71683037D01*
X74466265Y-71644478D01*
X74508870Y-71603956D01*
X74545097Y-71567652D01*
X74559886Y-71551823D01*
X74596011Y-71516477D01*
X74625383Y-71499557D01*
X74650419Y-71500225D01*
X74669804Y-71513703D01*
X74681050Y-71528399D01*
X74684873Y-71545752D01*
X74680575Y-71569835D01*
X74667458Y-71604722D01*
X74646173Y-71651622D01*
X74573225Y-71793146D01*
X74494170Y-71921469D01*
X74410467Y-72034657D01*
X74323572Y-72130777D01*
X74234946Y-72207895D01*
X74216515Y-72221310D01*
X74133444Y-72272347D01*
X74044169Y-72314209D01*
X73953370Y-72345402D01*
X73865731Y-72364434D01*
X73785932Y-72369811D01*
X73757239Y-72367802D01*
X73686835Y-72359161D01*
X73634126Y-72351765D01*
X73595561Y-72344934D01*
X73567588Y-72337989D01*
X73546654Y-72330251D01*
X73537643Y-72325833D01*
X73509269Y-72313509D01*
X73485800Y-72307748D01*
X73484154Y-72307691D01*
X73463901Y-72304043D01*
X73431999Y-72294637D01*
X73406282Y-72285559D01*
X73362905Y-72269206D01*
X73312786Y-72250382D01*
X73280247Y-72238200D01*
X73238918Y-72222192D01*
X73182918Y-72199700D01*
X73117144Y-72172744D01*
X73046494Y-72143343D01*
X72975865Y-72113518D01*
X72921876Y-72090369D01*
X72887125Y-72078029D01*
X72848929Y-72070921D01*
X72800065Y-72067947D01*
X72772280Y-72067666D01*
X72725053Y-72068165D01*
X72692412Y-72070721D01*
X72667616Y-72076917D01*
X72643921Y-72088338D01*
X72619102Y-72103663D01*
X72575830Y-72134476D01*
X72552564Y-72159600D01*
X72549262Y-72180653D01*
X72565886Y-72199250D01*
X72602394Y-72217008D01*
X72616155Y-72222044D01*
X72693997Y-72259421D01*
X72756658Y-72311587D01*
X72803795Y-72378001D01*
X72835068Y-72458121D01*
X72850135Y-72551409D01*
X72851548Y-72594724D01*
X72847595Y-72661009D01*
X72836844Y-72727123D01*
X72820613Y-72789312D01*
X72800219Y-72843821D01*
X72776982Y-72886896D01*
X72752220Y-72914782D01*
X72736315Y-72922890D01*
X72705307Y-72922768D01*
X72674587Y-72905387D01*
X72641884Y-72869249D01*
X72630370Y-72853100D01*
X72608563Y-72824776D01*
X72577883Y-72789678D01*
X72541605Y-72751026D01*
X72503000Y-72712036D01*
X72465341Y-72675929D01*
X72431901Y-72645921D01*
X72405952Y-72625231D01*
X72390768Y-72617078D01*
X72390339Y-72617057D01*
X72366172Y-72625585D01*
X72354680Y-72649095D01*
X72357228Y-72684480D01*
X72358552Y-72689410D01*
X72373694Y-72742738D01*
X72383302Y-72781543D01*
X72387701Y-72811818D01*
X72387215Y-72839555D01*
X72382170Y-72870747D01*
X72372891Y-72911386D01*
X72371010Y-72919268D01*
X72342281Y-73022934D01*
X72310182Y-73106488D01*
X72274180Y-73170964D01*
X72233746Y-73217395D01*
X72207738Y-73236657D01*
X72182652Y-73250179D01*
X72161368Y-73254946D01*
X72138499Y-73249915D01*
X72108656Y-73234041D01*
X72072644Y-73210473D01*
X71961855Y-73139852D01*
X71847968Y-73075140D01*
X71734835Y-73018176D01*
X71626308Y-72970796D01*
X71526238Y-72934839D01*
X71454228Y-72915394D01*
X71408521Y-72904875D01*
X71360634Y-72893155D01*
X71342216Y-72888406D01*
X71299112Y-72878286D01*
X71254601Y-72869707D01*
X71240872Y-72867566D01*
X71180070Y-72858699D01*
X71136940Y-72851409D01*
X71107964Y-72844793D01*
X71089623Y-72837950D01*
X71078399Y-72829975D01*
X71073964Y-72824752D01*
X71063498Y-72806051D01*
X71061113Y-72785715D01*
X71067629Y-72759000D01*
X71083866Y-72721164D01*
X71096268Y-72695831D01*
X71158510Y-72594270D01*
X71241747Y-72496410D01*
X71345986Y-72402244D01*
X71468697Y-72313425D01*
X71518501Y-72282733D01*
X71582107Y-72246397D01*
X71653823Y-72207407D01*
X71727958Y-72168754D01*
X71798821Y-72133430D01*
X71860719Y-72104424D01*
X71892075Y-72090936D01*
X71926068Y-72077081D01*
X71955509Y-72065113D01*
X71963615Y-72061828D01*
X71981336Y-72052388D01*
X71985556Y-72040697D01*
X71975737Y-72022226D01*
X71956048Y-71997922D01*
X71936735Y-71975902D01*
X71927468Y-71968978D01*
X71924456Y-71976011D01*
X71924044Y-71988285D01*
X71920023Y-72013447D01*
X71906568Y-72033691D01*
X71880233Y-72052043D01*
X71837569Y-72071528D01*
X71822267Y-72077584D01*
X71748232Y-72109579D01*
X71663464Y-72151764D01*
X71573883Y-72200994D01*
X71485410Y-72254124D01*
X71462469Y-72268736D01*
X71368906Y-72331623D01*
X71291349Y-72389746D01*
X71226059Y-72446428D01*
X71169296Y-72504987D01*
X71117322Y-72568746D01*
X71103414Y-72587574D01*
X71068665Y-72629928D01*
X71037927Y-72653195D01*
X71008771Y-72657171D01*
X70978768Y-72641651D01*
X70945488Y-72606429D01*
X70920441Y-72572131D01*
X70869674Y-72508384D01*
X70802774Y-72440295D01*
X70723481Y-72371284D01*
X70635533Y-72304773D01*
X70605806Y-72284330D01*
X70556959Y-72253155D01*
X70498153Y-72218134D01*
X70433511Y-72181472D01*
X70367155Y-72145373D01*
X70303208Y-72112042D01*
X70245790Y-72083684D01*
X70199024Y-72062503D01*
X70171460Y-72052019D01*
X70136297Y-72034439D01*
X70110441Y-72009433D01*
X70099485Y-71982551D01*
X70099419Y-71980504D01*
X70105851Y-71966660D01*
X70122938Y-71941461D01*
X70147371Y-71909678D01*
X70155116Y-71900202D01*
X70210813Y-71832974D01*
X70154161Y-71880105D01*
X70116592Y-71914688D01*
X70078874Y-71954655D01*
X70056839Y-71981449D01*
X70033262Y-72016664D01*
X70026235Y-72040640D01*
X70036827Y-72056826D01*
X70066110Y-72068666D01*
X70085417Y-72073438D01*
X70115031Y-72083006D01*
X70159133Y-72100958D01*
X70213902Y-72125393D01*
X70275519Y-72154405D01*
X70340163Y-72186092D01*
X70404015Y-72218549D01*
X70463254Y-72249873D01*
X70514062Y-72278161D01*
X70552617Y-72301509D01*
X70573797Y-72316823D01*
X70592729Y-72331958D01*
X70623316Y-72354770D01*
X70659624Y-72380854D01*
X70667557Y-72386431D01*
X70757535Y-72457527D01*
X70835323Y-72535440D01*
X70897667Y-72616596D01*
X70932129Y-72677021D01*
X70950902Y-72718117D01*
X70965313Y-72753719D01*
X70973184Y-72778259D01*
X70974014Y-72784024D01*
X70966125Y-72814461D01*
X70942180Y-72835460D01*
X70900880Y-72847672D01*
X70840931Y-72851747D01*
X70838865Y-72851750D01*
X70792230Y-72853553D01*
X70739023Y-72859354D01*
X70675458Y-72869740D01*
X70597751Y-72885301D01*
X70536798Y-72898709D01*
X70424731Y-72927588D01*
X70317997Y-72963057D01*
X70212495Y-73006970D01*
X70104120Y-73061185D01*
X69988772Y-73127558D01*
X69882181Y-73194918D01*
X69837275Y-73221544D01*
X69802943Y-73233430D01*
X69774080Y-73230307D01*
X69745580Y-73211903D01*
X69719908Y-73186321D01*
X69664333Y-73110052D01*
X69624949Y-73020072D01*
X69601815Y-72916635D01*
X69594994Y-72799995D01*
X69602004Y-72691199D01*
X69605802Y-72653521D01*
X69605568Y-72631207D01*
X69599977Y-72618459D01*
X69587705Y-72609479D01*
X69582722Y-72606758D01*
X69567357Y-72600126D01*
X69553123Y-72600483D01*
X69534723Y-72609791D01*
X69506858Y-72630015D01*
X69494763Y-72639356D01*
X69456936Y-72672080D01*
X69415223Y-72713276D01*
X69378406Y-72754248D01*
X69377127Y-72755800D01*
X69334894Y-72807004D01*
X69303654Y-72843892D01*
X69280955Y-72868714D01*
X69264345Y-72883721D01*
X69251371Y-72891163D01*
X69239581Y-72893289D01*
X69228103Y-72892536D01*
X69200625Y-72879045D01*
X69176445Y-72846831D01*
X69156369Y-72798359D01*
X69141199Y-72736096D01*
X69131741Y-72662507D01*
X69128777Y-72588115D01*
X69134188Y-72497292D01*
X69151915Y-72422033D01*
X69183854Y-72359285D01*
X69231904Y-72305994D01*
X69297958Y-72259107D01*
X69350510Y-72231074D01*
X69388717Y-72211072D01*
X69417720Y-72193154D01*
X69433460Y-72179973D01*
X69435049Y-72175853D01*
X69423996Y-72162059D01*
X69400093Y-72140960D01*
X69368592Y-72116537D01*
X69334746Y-72092774D01*
X69303810Y-72073654D01*
X69292389Y-72067698D01*
X69241059Y-72053375D01*
X69175707Y-72051550D01*
X69099443Y-72062005D01*
X69015378Y-72084521D01*
X69005400Y-72087857D01*
X68885439Y-72131286D01*
X68753236Y-72183709D01*
X68637932Y-72232602D01*
X68573214Y-72257045D01*
X68492812Y-72281409D01*
X68402333Y-72304235D01*
X68307384Y-72324062D01*
X68246726Y-72334523D01*
X68194965Y-72342149D01*
X68156800Y-72345851D01*
X68124856Y-72345625D01*
X68091758Y-72341466D01*
X68055141Y-72334410D01*
X67986632Y-72317261D01*
X67917838Y-72294795D01*
X67855494Y-72269515D01*
X67806335Y-72243923D01*
X67799201Y-72239339D01*
X67731784Y-72192864D01*
X67675199Y-72150170D01*
X67626560Y-72107994D01*
X67582977Y-72063073D01*
X67541562Y-72012143D01*
X67499428Y-71951942D01*
X67453687Y-71879206D01*
X67401449Y-71790673D01*
X67400237Y-71788579D01*
X67365299Y-71726873D01*
X67340698Y-71679984D01*
X67325061Y-71644893D01*
X67317018Y-71618579D01*
X67315127Y-71601199D01*
X67316879Y-71574624D01*
X67324644Y-71563224D01*
X67340196Y-71560946D01*
X67367875Y-71568692D01*
X67403805Y-71589597D01*
X67442902Y-71620165D01*
X67480086Y-71656896D01*
X67480885Y-71657792D01*
X67546520Y-71719891D01*
X67629579Y-71779269D01*
X67726150Y-71833469D01*
X67832322Y-71880033D01*
X67837848Y-71882131D01*
X67886676Y-71894622D01*
X67949933Y-71902302D01*
X68021243Y-71905098D01*
X68094234Y-71902942D01*
X68162533Y-71895763D01*
X68210030Y-71886221D01*
X68254852Y-71873261D01*
X68309102Y-71855806D01*
X68367028Y-71835900D01*
X68422878Y-71815588D01*
X68470900Y-71796914D01*
X68505339Y-71781923D01*
X68509920Y-71779635D01*
X68537971Y-71768241D01*
X68560947Y-71763634D01*
X68579398Y-71760479D01*
X68612552Y-71752001D01*
X68654887Y-71739678D01*
X68681402Y-71731374D01*
X68746222Y-71711534D01*
X68803900Y-71696557D01*
X68861158Y-71685154D01*
X68924717Y-71676032D01*
X69001297Y-71667902D01*
X69021973Y-71665991D01*
X69093571Y-71659863D01*
X69150428Y-71656170D01*
X69198994Y-71654900D01*
X69245724Y-71656042D01*
X69297070Y-71659582D01*
X69358008Y-71665359D01*
X69437484Y-71674286D01*
X69501836Y-71683976D01*
X69557264Y-71695879D01*
X69609967Y-71711446D01*
X69666146Y-71732127D01*
X69697155Y-71744706D01*
X69801610Y-71787981D01*
X69839699Y-71757139D01*
X69877622Y-71718878D01*
X69912156Y-71670583D01*
X69939757Y-71618618D01*
X69956882Y-71569345D01*
X69960738Y-71539812D01*
X69950639Y-71484147D01*
X69922390Y-71432720D01*
X69879064Y-71387576D01*
X69823735Y-71350759D01*
X69759474Y-71324316D01*
X69689355Y-71310290D01*
X69616469Y-71310724D01*
X69567296Y-71313282D01*
X69534325Y-71305664D01*
X69514005Y-71284901D01*
X69502785Y-71248024D01*
X69498534Y-71212140D01*
X69493908Y-71165836D01*
X69488013Y-71120082D01*
X69483351Y-71091563D01*
X69457041Y-71005864D01*
X69414506Y-70932603D01*
X69357548Y-70872806D01*
X69287970Y-70827499D01*
X69207573Y-70797709D01*
X69118159Y-70784462D01*
X69021532Y-70788785D01*
X68968634Y-70798409D01*
X68910613Y-70811440D01*
X68869884Y-70819562D01*
X68842972Y-70822764D01*
X68826404Y-70821037D01*
X68816706Y-70814370D01*
X68810404Y-70802753D01*
X68808517Y-70797937D01*
X68802550Y-70774906D01*
X68804137Y-70751264D01*
X68814679Y-70721965D01*
X68835572Y-70681961D01*
X68845382Y-70664852D01*
X68871133Y-70611242D01*
X68895333Y-70544344D01*
X68915616Y-70472193D01*
X68929614Y-70402820D01*
X68934203Y-70363309D01*
X68938543Y-70301791D01*
X69212204Y-70304636D01*
X69485865Y-70307481D01*
X69497882Y-70371488D01*
X69523600Y-70472156D01*
X69561263Y-70557759D01*
X69613208Y-70631631D01*
X69681773Y-70697103D01*
X69767942Y-70756694D01*
X69836507Y-70798199D01*
X70077308Y-70799592D01*
X70147199Y-70800048D01*
X70210078Y-70800557D01*
X70262755Y-70801084D01*
X70302044Y-70801596D01*
X70324756Y-70802059D01*
X70328877Y-70802259D01*
X70348158Y-70815058D01*
X70365444Y-70847791D01*
X70380420Y-70899126D01*
X70392773Y-70967726D01*
X70402188Y-71052258D01*
X70407699Y-71136772D01*
X70410850Y-71194577D01*
X70414373Y-71244721D01*
X70417939Y-71283398D01*
X70421217Y-71306802D01*
X70422880Y-71311902D01*
X70428574Y-71309167D01*
X70430121Y-71297194D01*
X70434429Y-71274446D01*
X70445298Y-71242684D01*
X70451222Y-71228742D01*
X70469270Y-71164310D01*
X70469609Y-71092800D01*
X70452235Y-71019041D01*
X70451456Y-71016889D01*
X70439544Y-70979327D01*
X70431800Y-70945367D01*
X70430121Y-70929532D01*
X70426431Y-70897346D01*
X70420505Y-70876042D01*
X70413467Y-70855362D01*
X70402501Y-70820041D01*
X70389414Y-70775989D01*
X70381973Y-70750194D01*
X70329701Y-70598220D01*
X70262907Y-70455720D01*
X70183018Y-70324563D01*
X70091461Y-70206618D01*
X69989663Y-70103755D01*
X69879051Y-70017842D01*
X69778038Y-69958978D01*
X69727047Y-69934548D01*
X69684881Y-69917527D01*
X69644437Y-69905999D01*
X69598611Y-69898046D01*
X69540299Y-69891753D01*
X69523359Y-69890250D01*
X69486685Y-69887327D01*
X69468243Y-69887214D01*
X69465019Y-69890753D01*
X69474000Y-69898781D01*
X69479144Y-69902570D01*
X69490446Y-69911819D01*
X69497378Y-69922609D01*
X69500589Y-69939481D01*
X69500729Y-69966973D01*
X69498448Y-70009627D01*
X69497206Y-70028844D01*
X69493287Y-70083597D01*
X69488785Y-70138626D01*
X69484442Y-70185114D01*
X69482748Y-70200803D01*
X69475354Y-70264810D01*
X69208659Y-70267812D01*
X69134308Y-70268432D01*
X69066214Y-70268589D01*
X69007546Y-70268310D01*
X68961472Y-70267618D01*
X68931161Y-70266541D01*
X68920629Y-70265482D01*
X68903159Y-70253818D01*
X68881508Y-70229700D01*
X68868387Y-70210875D01*
X68839924Y-70175035D01*
X68802572Y-70140035D01*
X68783044Y-70125573D01*
X68748338Y-70106404D01*
X68698797Y-70083996D01*
X68640192Y-70060633D01*
X68578296Y-70038603D01*
X68518880Y-70020192D01*
X68512586Y-70018443D01*
X68503592Y-70006373D01*
X68499316Y-69981530D01*
X68499251Y-69977831D01*
X68499892Y-69962205D01*
X68503908Y-69949888D01*
X68514435Y-69938386D01*
X68534612Y-69925207D01*
X68567577Y-69907857D01*
X68616468Y-69883844D01*
X68619264Y-69882483D01*
X68708330Y-69833478D01*
X68790318Y-69777388D01*
X68862375Y-69716816D01*
X68921650Y-69654362D01*
X68965291Y-69592630D01*
X68986321Y-69547584D01*
X68996064Y-69503450D01*
X68998860Y-69452339D01*
X68995285Y-69400665D01*
X68985918Y-69354842D01*
X68971335Y-69321287D01*
X68965277Y-69313798D01*
X68958370Y-69297391D01*
X68957966Y-69292372D01*
X68951234Y-69272022D01*
X68932641Y-69239177D01*
X68904594Y-69197210D01*
X68869498Y-69149490D01*
X68829758Y-69099387D01*
X68787782Y-69050274D01*
X68775260Y-69036397D01*
X68712817Y-68967355D01*
X68662814Y-68909900D01*
X68622613Y-68860522D01*
X68589579Y-68815710D01*
X68561075Y-68771954D01*
X68534466Y-68725742D01*
X68516361Y-68691612D01*
X68456580Y-68576079D01*
X68456580Y-68474105D01*
X68460059Y-68384995D01*
X68469739Y-68289329D01*
X68484484Y-68195164D01*
X68503156Y-68110553D01*
X68512484Y-68077913D01*
X68524114Y-68046819D01*
X68543732Y-68000935D01*
X68569367Y-67944340D01*
X68599050Y-67881114D01*
X68630812Y-67815336D01*
X68662682Y-67751085D01*
X68692692Y-67692443D01*
X68718871Y-67643487D01*
X68739104Y-67608531D01*
X68778804Y-67545547D01*
X68809563Y-67498689D01*
X68833156Y-67465636D01*
X68851353Y-67444061D01*
X68865928Y-67431641D01*
X68878207Y-67426163D01*
X68908726Y-67426153D01*
X68928061Y-67443429D01*
X68935807Y-67476866D01*
X68931557Y-67525336D01*
X68924717Y-67555192D01*
X68916999Y-67593729D01*
X68909192Y-67650754D01*
X68901587Y-67723422D01*
X68894479Y-67808891D01*
X68888159Y-67904316D01*
X68887393Y-67917612D01*
X68888290Y-68046818D01*
X68905180Y-68171402D01*
X68937230Y-68287847D01*
X68983608Y-68392635D01*
X69010356Y-68437219D01*
X69051177Y-68493826D01*
X69096237Y-68545089D01*
X69148247Y-68593087D01*
X69209920Y-68639903D01*
X69283968Y-68687618D01*
X69373104Y-68738313D01*
X69466354Y-68787132D01*
X69515193Y-68813320D01*
X69561524Y-68840526D01*
X69599186Y-68865009D01*
X69617501Y-68878873D01*
X69650482Y-68914295D01*
X69685291Y-68963602D01*
X69717823Y-69020183D01*
X69743974Y-69077428D01*
X69748712Y-69090154D01*
X69771020Y-69128659D01*
X69808776Y-69168066D01*
X69856888Y-69203502D01*
X69881580Y-69217373D01*
X69946953Y-69255984D01*
X70020585Y-69308629D01*
X70098635Y-69371768D01*
X70177263Y-69441864D01*
X70252625Y-69515378D01*
X70320881Y-69588771D01*
X70378189Y-69658506D01*
X70410701Y-69704751D01*
X70466749Y-69795089D01*
X70510511Y-69872392D01*
X70543637Y-69939777D01*
X70567778Y-70000361D01*
X70568841Y-70003449D01*
X70587053Y-70050548D01*
X70604123Y-70083002D01*
X70618685Y-70098626D01*
X70627577Y-70097579D01*
X70628113Y-70084806D01*
X70622646Y-70059294D01*
X70618333Y-70044875D01*
X70607100Y-70008127D01*
X70597741Y-69973919D01*
X70595861Y-69966112D01*
X70582738Y-69926967D01*
X70559408Y-69875552D01*
X70528483Y-69816656D01*
X70492574Y-69755066D01*
X70454292Y-69695569D01*
X70428203Y-69658703D01*
X70339537Y-69550893D01*
X70234828Y-69443610D01*
X70119017Y-69341223D01*
X69997049Y-69248098D01*
X69873866Y-69168603D01*
X69872650Y-69167895D01*
X69825166Y-69134125D01*
X69798767Y-69100203D01*
X69793205Y-69065782D01*
X69794523Y-69058996D01*
X69804861Y-69038312D01*
X69826004Y-69008330D01*
X69853743Y-68974909D01*
X69859261Y-68968818D01*
X69903142Y-68914546D01*
X69941690Y-68854628D01*
X69971095Y-68795659D01*
X69986769Y-68748054D01*
X70000739Y-68712313D01*
X70024276Y-68694885D01*
X70052743Y-68693207D01*
X70069651Y-68698755D01*
X70087875Y-68713424D01*
X70110459Y-68740331D01*
X70140448Y-68782591D01*
X70141398Y-68783987D01*
X70175817Y-68834518D01*
X70199198Y-68868356D01*
X70212447Y-68886487D01*
X70216470Y-68889896D01*
X70212175Y-68879568D01*
X70200468Y-68856490D01*
X70190453Y-68837293D01*
X70164535Y-68791410D01*
X70134629Y-68743742D01*
X70109904Y-68708310D01*
X70088203Y-68678278D01*
X70072890Y-68654627D01*
X70067416Y-68642910D01*
X70061171Y-68627539D01*
X70044365Y-68599892D01*
X70019893Y-68564253D01*
X69990646Y-68524903D01*
X69970387Y-68499291D01*
X69940693Y-68460034D01*
X69903665Y-68406994D01*
X69862410Y-68344995D01*
X69820030Y-68278861D01*
X69779632Y-68213417D01*
X69744318Y-68153487D01*
X69722568Y-68114178D01*
X69668018Y-67995176D01*
X69624752Y-67867219D01*
X69609194Y-67805885D01*
X69603242Y-67764702D01*
X69600273Y-67706503D01*
X69600236Y-67629717D01*
X69601693Y-67571194D01*
X69606590Y-67459066D01*
X69613640Y-67365280D01*
X69623224Y-67286913D01*
X69635723Y-67221045D01*
X69651520Y-67164755D01*
X69656768Y-67149816D01*
X69667190Y-67124845D01*
X69684417Y-67087135D01*
X69706477Y-67040665D01*
X69731395Y-66989416D01*
X69757198Y-66937366D01*
X69781912Y-66888496D01*
X69803563Y-66846785D01*
X69820177Y-66816213D01*
X69829780Y-66800759D01*
X69830049Y-66800446D01*
X69853340Y-66786654D01*
X69882137Y-66781777D01*
X69907302Y-66784517D01*
X69925432Y-66794610D01*
X69937570Y-66814868D01*
X69944763Y-66848104D01*
X69948054Y-66897127D01*
X69948523Y-66960403D01*
X69949139Y-67018887D01*
X69951515Y-67077003D01*
X69955254Y-67127312D01*
X69959045Y-67157443D01*
X69965975Y-67198730D01*
X69974769Y-67252042D01*
X69983936Y-67308334D01*
X69987618Y-67331168D01*
X69999640Y-67403528D01*
X70010274Y-67460220D01*
X70020893Y-67506729D01*
X70032870Y-67548545D01*
X70047578Y-67591154D01*
X70062380Y-67629868D01*
X70103032Y-67722201D01*
X70145505Y-67795661D01*
X70191395Y-67852708D01*
X70228610Y-67885893D01*
X70316074Y-67958520D01*
X70397687Y-68038946D01*
X70476683Y-68130793D01*
X70556297Y-68237685D01*
X70600021Y-68301937D01*
X70676542Y-68406159D01*
X70761388Y-68498654D01*
X70860119Y-68585264D01*
X70896173Y-68613157D01*
X70930352Y-68638705D01*
X70956019Y-68654850D01*
X70977604Y-68660954D01*
X70999537Y-68656383D01*
X71026246Y-68640500D01*
X71062163Y-68612670D01*
X71096857Y-68584349D01*
X71151285Y-68537589D01*
X71204647Y-68487535D01*
X71254146Y-68437223D01*
X71296984Y-68389689D01*
X71330364Y-68347969D01*
X71351487Y-68315098D01*
X71356744Y-68302346D01*
X71377638Y-68253193D01*
X71415557Y-68193878D01*
X71469506Y-68125667D01*
X71538495Y-68049830D01*
X71610875Y-67977772D01*
X71659033Y-67930960D01*
X71704404Y-67885502D01*
X71743610Y-67844884D01*
X71773276Y-67812588D01*
X71787771Y-67795217D01*
X71819766Y-67747813D01*
X71852152Y-67691344D01*
X71881315Y-67632894D01*
X71903638Y-67579544D01*
X71913049Y-67549858D01*
X71935655Y-67459715D01*
X71953368Y-67385723D01*
X71966863Y-67323440D01*
X71976815Y-67268422D01*
X71983899Y-67216224D01*
X71988789Y-67162402D01*
X71992160Y-67102514D01*
X71994689Y-67032113D01*
X71995401Y-67007655D01*
X71997531Y-66934502D01*
X71999487Y-66879730D01*
X72001674Y-66840391D01*
X72004494Y-66813538D01*
X72008351Y-66796224D01*
X72013649Y-66785501D01*
X72020790Y-66778421D01*
X72027398Y-66773862D01*
X72055199Y-66762249D01*
X72081584Y-66766541D01*
G37*
G36*
X71202126Y-72916555D02*
G01*
X71256874Y-72925866D01*
X71305699Y-72934773D01*
X71358466Y-72943714D01*
X71383152Y-72947613D01*
X71421503Y-72955310D01*
X71471596Y-72967929D01*
X71525051Y-72983289D01*
X71548502Y-72990686D01*
X71596818Y-73006347D01*
X71641645Y-73020708D01*
X71676413Y-73031670D01*
X71688919Y-73035507D01*
X71744370Y-73060588D01*
X71792276Y-73098094D01*
X71826003Y-73142739D01*
X71827680Y-73146031D01*
X71836498Y-73165085D01*
X71841905Y-73182427D01*
X71844040Y-73202712D01*
X71843038Y-73230595D01*
X71839039Y-73270730D01*
X71832883Y-73322050D01*
X71819993Y-73417146D01*
X71806442Y-73494765D01*
X71791180Y-73558765D01*
X71773155Y-73613000D01*
X71751317Y-73661327D01*
X71730315Y-73698458D01*
X71707395Y-73734232D01*
X71689519Y-73755275D01*
X71671338Y-73765485D01*
X71647501Y-73768762D01*
X71633500Y-73769014D01*
X71617127Y-73767896D01*
X71601376Y-73762895D01*
X71583228Y-73751759D01*
X71559666Y-73732237D01*
X71527673Y-73702077D01*
X71484230Y-73659028D01*
X71478817Y-73653604D01*
X71435932Y-73610130D01*
X71396118Y-73568905D01*
X71362936Y-73533678D01*
X71339948Y-73508199D01*
X71334415Y-73501588D01*
X71315891Y-73479578D01*
X71304716Y-73472496D01*
X71295212Y-73478370D01*
X71289077Y-73485853D01*
X71276090Y-73512133D01*
X71272876Y-73530529D01*
X71268776Y-73570231D01*
X71257316Y-73624915D01*
X71239754Y-73691067D01*
X71217347Y-73765177D01*
X71191354Y-73843730D01*
X71163032Y-73923215D01*
X71133639Y-74000118D01*
X71104433Y-74070926D01*
X71076673Y-74132127D01*
X71051615Y-74180209D01*
X71030518Y-74211657D01*
X71027928Y-74214558D01*
X70998727Y-74233835D01*
X70966419Y-74237752D01*
X70946330Y-74230396D01*
X70934074Y-74216327D01*
X70918776Y-74191466D01*
X70915493Y-74185221D01*
X70897163Y-74152455D01*
X70874277Y-74115648D01*
X70866891Y-74104586D01*
X70846836Y-74068880D01*
X70827849Y-74024782D01*
X70819180Y-73999033D01*
X70804008Y-73952920D01*
X70785483Y-73904690D01*
X70775722Y-73882314D01*
X70761333Y-73846246D01*
X70752094Y-73813182D01*
X70750258Y-73798494D01*
X70746768Y-73775350D01*
X70737538Y-73738690D01*
X70724276Y-73694988D01*
X70718151Y-73676774D01*
X70703590Y-73630314D01*
X70692496Y-73586466D01*
X70686635Y-73552555D01*
X70686147Y-73544141D01*
X70683129Y-73508539D01*
X70675801Y-73476726D01*
X70675172Y-73475004D01*
X70664196Y-73446136D01*
X70587163Y-73524981D01*
X70544720Y-73568898D01*
X70495819Y-73620225D01*
X70448388Y-73670614D01*
X70428640Y-73691836D01*
X70386597Y-73735426D01*
X70354602Y-73763305D01*
X70329780Y-73776742D01*
X70309255Y-73777004D01*
X70290152Y-73765358D01*
X70281409Y-73756736D01*
X70240457Y-73706961D01*
X70208924Y-73653834D01*
X70184418Y-73592055D01*
X70164549Y-73516324D01*
X70157624Y-73482300D01*
X70151524Y-73439898D01*
X70146919Y-73387172D01*
X70143874Y-73328808D01*
X70142454Y-73269491D01*
X70142723Y-73213907D01*
X70144745Y-73166743D01*
X70148586Y-73132683D01*
X70152623Y-73118695D01*
X70168384Y-73100355D01*
X70193843Y-73080204D01*
X70199550Y-73076521D01*
X70226375Y-73063107D01*
X70268334Y-73045706D01*
X70320050Y-73026201D01*
X70376144Y-73006475D01*
X70431240Y-72988410D01*
X70479958Y-72973889D01*
X70516921Y-72964794D01*
X70520797Y-72964070D01*
X70559923Y-72956862D01*
X70602803Y-72948513D01*
X70611473Y-72946760D01*
X70639348Y-72941930D01*
X70683150Y-72935354D01*
X70737617Y-72927781D01*
X70797488Y-72919958D01*
X70819495Y-72917206D01*
X70956570Y-72905165D01*
X71082030Y-72904906D01*
X71202126Y-72916555D01*
G37*
D15*
%TO.C,J3*%
X22330000Y-42670000D02*
X30170000Y-42670000D01*
X24980000Y-45320000D02*
X22330000Y-45320000D01*
X22330000Y-45320000D02*
X22330000Y-42670000D01*
X30170000Y-47970000D02*
X30170000Y-42670000D01*
X24980000Y-47970000D02*
X24980000Y-45320000D01*
X24980000Y-47970000D02*
X30170000Y-47970000D01*
X23710000Y-47970000D02*
X22330000Y-47970000D01*
X22330000Y-47970000D02*
X22330000Y-46590000D01*
D14*
%TO.C,G\u002A\u002A\u002A*%
G36*
X70582886Y-42744639D02*
G01*
X70620361Y-42770535D01*
X70630500Y-42782182D01*
X70638488Y-42797204D01*
X70644582Y-42819617D01*
X70649037Y-42853438D01*
X70652108Y-42902683D01*
X70654051Y-42971369D01*
X70655121Y-43063513D01*
X70655573Y-43183132D01*
X70655663Y-43325677D01*
X70655160Y-43498868D01*
X70653357Y-43640970D01*
X70649816Y-43756186D01*
X70644098Y-43848720D01*
X70635764Y-43922774D01*
X70624376Y-43982552D01*
X70609494Y-44032256D01*
X70590680Y-44076090D01*
X70574087Y-44107011D01*
X70503816Y-44195171D01*
X70408537Y-44263854D01*
X70293723Y-44311393D01*
X70164846Y-44336125D01*
X70027378Y-44336382D01*
X69896664Y-44313209D01*
X69810541Y-44281614D01*
X69753085Y-44241608D01*
X69726619Y-44195408D01*
X69729826Y-44154013D01*
X69751552Y-44109604D01*
X69781630Y-44086623D01*
X69826896Y-44083493D01*
X69894182Y-44098639D01*
X69926402Y-44108681D01*
X70019069Y-44135047D01*
X70093512Y-44145641D01*
X70162663Y-44141295D01*
X70222382Y-44127756D01*
X70306569Y-44086995D01*
X70374379Y-44019540D01*
X70421310Y-43931941D01*
X70442857Y-43830749D01*
X70443751Y-43805711D01*
X70443849Y-43755342D01*
X70382319Y-43809366D01*
X70291371Y-43867558D01*
X70181750Y-43903445D01*
X70063705Y-43914963D01*
X69947488Y-43900048D01*
X69940792Y-43898266D01*
X69866449Y-43862429D01*
X69796031Y-43801839D01*
X69739043Y-43726602D01*
X69705238Y-43647822D01*
X69698129Y-43600389D01*
X69692335Y-43522360D01*
X69688061Y-43418427D01*
X69685511Y-43293279D01*
X69684850Y-43180256D01*
X69685072Y-43052769D01*
X69685978Y-42955918D01*
X69687931Y-42885040D01*
X69691293Y-42835473D01*
X69696426Y-42802551D01*
X69703691Y-42781612D01*
X69713452Y-42767991D01*
X69717129Y-42764445D01*
X69769013Y-42738051D01*
X69823886Y-42744639D01*
X69861362Y-42770535D01*
X69873098Y-42784288D01*
X69881908Y-42802103D01*
X69888210Y-42828830D01*
X69892420Y-42869321D01*
X69894959Y-42928425D01*
X69896243Y-43010993D01*
X69896690Y-43121877D01*
X69896730Y-43180924D01*
X69896985Y-43306661D01*
X69897982Y-43402256D01*
X69900146Y-43472867D01*
X69903903Y-43523654D01*
X69909676Y-43559774D01*
X69917890Y-43586387D01*
X69928970Y-43608652D01*
X69932419Y-43614439D01*
X69986952Y-43673110D01*
X70059028Y-43707872D01*
X70141107Y-43719656D01*
X70225649Y-43709395D01*
X70305113Y-43678021D01*
X70371960Y-43626467D01*
X70418650Y-43555664D01*
X70419246Y-43554251D01*
X70428616Y-43520847D01*
X70435514Y-43469061D01*
X70440186Y-43394792D01*
X70442879Y-43293940D01*
X70443839Y-43162405D01*
X70443849Y-43144512D01*
X70444112Y-43023606D01*
X70445178Y-42933071D01*
X70447466Y-42867980D01*
X70451396Y-42823403D01*
X70457385Y-42794413D01*
X70465852Y-42776080D01*
X70476129Y-42764445D01*
X70528012Y-42738051D01*
X70582886Y-42744639D01*
G37*
G36*
X49383840Y-41517930D02*
G01*
X49483797Y-41519939D01*
X49555057Y-41523523D01*
X49600912Y-41528875D01*
X49624654Y-41536188D01*
X49628446Y-41539368D01*
X49639969Y-41560649D01*
X49663956Y-41609828D01*
X49698395Y-41682605D01*
X49741271Y-41774680D01*
X49790572Y-41881754D01*
X49844282Y-41999528D01*
X49853733Y-42020361D01*
X49907629Y-42138855D01*
X49957085Y-42246792D01*
X50000160Y-42340003D01*
X50034915Y-42414319D01*
X50059411Y-42465569D01*
X50071709Y-42489585D01*
X50072499Y-42490718D01*
X50093726Y-42492865D01*
X50140140Y-42488173D01*
X50202512Y-42477653D01*
X50215635Y-42475032D01*
X50377747Y-42458947D01*
X50536352Y-42475636D01*
X50687879Y-42522572D01*
X50828753Y-42597227D01*
X50955403Y-42697075D01*
X51064254Y-42819586D01*
X51151734Y-42962234D01*
X51214270Y-43122490D01*
X51232180Y-43194163D01*
X51250013Y-43361605D01*
X51234887Y-43527284D01*
X51189043Y-43686736D01*
X51114722Y-43835499D01*
X51014163Y-43969112D01*
X50889608Y-44083112D01*
X50743297Y-44173037D01*
X50739851Y-44174710D01*
X50578247Y-44234435D01*
X50414083Y-44261038D01*
X50251233Y-44256112D01*
X50093571Y-44221245D01*
X49944970Y-44158029D01*
X49809303Y-44068054D01*
X49690443Y-43952910D01*
X49592263Y-43814188D01*
X49527135Y-43676748D01*
X49498994Y-43574577D01*
X49481819Y-43453064D01*
X49478085Y-43361848D01*
X49677275Y-43361848D01*
X49678070Y-43450724D01*
X49681570Y-43514308D01*
X49689449Y-43562596D01*
X49703380Y-43605584D01*
X49725039Y-43653267D01*
X49726615Y-43656485D01*
X49811370Y-43791980D01*
X49919257Y-43904319D01*
X50045986Y-43990658D01*
X50187266Y-44048151D01*
X50338804Y-44073952D01*
X50357549Y-44074786D01*
X50409614Y-44071274D01*
X50477598Y-44060182D01*
X50525235Y-44049325D01*
X50671094Y-43993893D01*
X50798423Y-43910126D01*
X50904115Y-43801441D01*
X50985063Y-43671260D01*
X51038159Y-43523002D01*
X51048570Y-43473387D01*
X51057505Y-43325911D01*
X51034256Y-43182400D01*
X50981936Y-43047290D01*
X50903660Y-42925016D01*
X50802541Y-42820015D01*
X50681695Y-42736723D01*
X50544235Y-42679576D01*
X50480403Y-42664070D01*
X50419363Y-42656690D01*
X50349087Y-42654654D01*
X50279386Y-42657396D01*
X50220071Y-42664352D01*
X50180954Y-42674956D01*
X50171779Y-42681840D01*
X50175726Y-42701891D01*
X50192232Y-42748037D01*
X50218963Y-42814364D01*
X50253588Y-42894962D01*
X50273305Y-42939148D01*
X50319094Y-43038346D01*
X50354953Y-43110046D01*
X50384057Y-43159529D01*
X50409578Y-43192078D01*
X50434691Y-43212975D01*
X50439702Y-43216079D01*
X50496002Y-43267561D01*
X50522253Y-43334092D01*
X50516374Y-43409176D01*
X50508602Y-43431052D01*
X50467462Y-43490669D01*
X50410146Y-43523224D01*
X50344693Y-43527342D01*
X50279143Y-43501647D01*
X50247379Y-43475738D01*
X50213398Y-43436738D01*
X50200217Y-43400659D01*
X50201749Y-43349647D01*
X50202388Y-43343823D01*
X50204196Y-43309509D01*
X50200157Y-43273952D01*
X50188197Y-43230718D01*
X50166244Y-43173371D01*
X50132223Y-43095476D01*
X50098849Y-43022532D01*
X50054317Y-42929513D01*
X50016080Y-42856282D01*
X49986347Y-42806753D01*
X49967329Y-42784841D01*
X49964274Y-42784176D01*
X49933307Y-42802803D01*
X49889997Y-42843825D01*
X49840696Y-42899693D01*
X49791759Y-42962857D01*
X49749536Y-43025767D01*
X49727257Y-43065856D01*
X49704819Y-43114611D01*
X49690296Y-43157706D01*
X49681994Y-43205173D01*
X49678219Y-43267041D01*
X49677279Y-43353341D01*
X49677275Y-43361848D01*
X49478085Y-43361848D01*
X49476648Y-43326744D01*
X49484520Y-43210155D01*
X49491053Y-43171877D01*
X49538985Y-43020727D01*
X49616543Y-42874226D01*
X49718261Y-42740865D01*
X49838675Y-42629133D01*
X49842250Y-42626407D01*
X49901319Y-42581638D01*
X49864263Y-42509003D01*
X49827207Y-42436367D01*
X49663985Y-42512673D01*
X49601353Y-42542034D01*
X49514647Y-42582800D01*
X49406874Y-42633550D01*
X49281039Y-42692863D01*
X49140149Y-42759318D01*
X48987211Y-42831494D01*
X48825230Y-42907971D01*
X48657214Y-42987326D01*
X48486169Y-43068140D01*
X48315101Y-43148990D01*
X48147016Y-43228456D01*
X47984921Y-43305118D01*
X47831822Y-43377553D01*
X47690726Y-43444341D01*
X47564639Y-43504061D01*
X47456568Y-43555291D01*
X47369518Y-43596612D01*
X47306496Y-43626601D01*
X47270509Y-43643838D01*
X47263077Y-43647506D01*
X47260653Y-43667427D01*
X47277837Y-43706042D01*
X47310024Y-43756355D01*
X47352610Y-43811370D01*
X47400991Y-43864090D01*
X47413565Y-43876197D01*
X47475979Y-43926240D01*
X47553063Y-43976659D01*
X47616781Y-44010901D01*
X47682436Y-44039463D01*
X47737461Y-44056146D01*
X47796561Y-44063959D01*
X47874443Y-44065913D01*
X47885490Y-44065898D01*
X48022366Y-44056168D01*
X48138559Y-44025254D01*
X48244183Y-43969227D01*
X48346549Y-43886758D01*
X48453575Y-43766212D01*
X48528732Y-43631392D01*
X48573481Y-43479659D01*
X48574272Y-43475355D01*
X48587616Y-43413197D01*
X48602013Y-43363746D01*
X48613090Y-43339785D01*
X48647837Y-43321394D01*
X48695607Y-43319757D01*
X48738718Y-43334206D01*
X48751260Y-43345005D01*
X48768823Y-43390601D01*
X48770299Y-43459597D01*
X48757365Y-43544883D01*
X48731694Y-43639352D01*
X48694965Y-43735894D01*
X48648853Y-43827402D01*
X48630435Y-43857501D01*
X48523934Y-43991499D01*
X48395573Y-44101313D01*
X48250192Y-44184783D01*
X48092631Y-44239747D01*
X47927731Y-44264046D01*
X47760331Y-44255519D01*
X47744475Y-44252923D01*
X47596083Y-44212387D01*
X47452968Y-44145763D01*
X47323902Y-44058297D01*
X47217657Y-43955233D01*
X47191878Y-43922511D01*
X47149818Y-43858942D01*
X47104490Y-43780839D01*
X47069404Y-43712623D01*
X47045371Y-43660173D01*
X47029192Y-43616929D01*
X47019326Y-43573682D01*
X47014231Y-43521221D01*
X47012366Y-43450335D01*
X47012208Y-43387386D01*
X47197543Y-43387386D01*
X47198622Y-43431898D01*
X47204398Y-43452551D01*
X47215531Y-43454984D01*
X47216993Y-43454431D01*
X47238166Y-43444749D01*
X47287440Y-43421732D01*
X47361017Y-43387170D01*
X47455099Y-43342851D01*
X47565888Y-43290565D01*
X47689586Y-43232099D01*
X47806254Y-43176888D01*
X47937732Y-43114433D01*
X48059168Y-43056366D01*
X48166844Y-43004496D01*
X48257042Y-42960627D01*
X48326045Y-42926569D01*
X48370134Y-42904127D01*
X48385409Y-42895388D01*
X48382945Y-42875986D01*
X48356424Y-42844376D01*
X48312477Y-42805798D01*
X48257735Y-42765491D01*
X48198829Y-42728695D01*
X48142391Y-42700650D01*
X48135396Y-42697848D01*
X48055934Y-42673660D01*
X47967281Y-42661211D01*
X47885684Y-42658199D01*
X47805167Y-42659262D01*
X47745241Y-42665812D01*
X47691285Y-42680815D01*
X47628678Y-42707235D01*
X47616975Y-42712676D01*
X47479650Y-42794512D01*
X47365090Y-42899331D01*
X47277759Y-43022878D01*
X47264487Y-43048372D01*
X47233628Y-43117883D01*
X47214866Y-43181769D01*
X47204439Y-43255616D01*
X47200502Y-43313374D01*
X47197543Y-43387386D01*
X47012208Y-43387386D01*
X47012166Y-43370674D01*
X47013154Y-43272017D01*
X47016689Y-43199388D01*
X47023958Y-43143541D01*
X47036148Y-43095228D01*
X47053745Y-43046949D01*
X47137687Y-42881717D01*
X47246158Y-42741077D01*
X47377207Y-42626598D01*
X47528885Y-42539844D01*
X47699241Y-42482382D01*
X47775297Y-42467454D01*
X47928488Y-42460371D01*
X48085879Y-42484506D01*
X48240525Y-42537580D01*
X48385481Y-42617315D01*
X48495066Y-42703592D01*
X48600555Y-42801043D01*
X49155912Y-42538445D01*
X49286352Y-42476538D01*
X49406784Y-42418942D01*
X49513443Y-42367490D01*
X49602563Y-42324019D01*
X49670379Y-42290361D01*
X49713125Y-42268353D01*
X49726863Y-42260252D01*
X49725420Y-42239202D01*
X49710365Y-42191096D01*
X49683451Y-42120664D01*
X49646433Y-42032632D01*
X49622236Y-41978062D01*
X49502014Y-41711466D01*
X49216001Y-41711466D01*
X49117216Y-41710797D01*
X49029460Y-41708947D01*
X48959430Y-41706156D01*
X48913826Y-41702662D01*
X48900716Y-41700233D01*
X48865238Y-41669959D01*
X48849941Y-41622493D01*
X48858321Y-41571756D01*
X48865261Y-41559049D01*
X48875278Y-41544985D01*
X48887569Y-41534498D01*
X48906996Y-41527064D01*
X48938422Y-41522157D01*
X48986710Y-41519252D01*
X49056724Y-41517825D01*
X49153326Y-41517351D01*
X49251893Y-41517304D01*
X49383840Y-41517930D01*
G37*
G36*
X52808677Y-42741935D02*
G01*
X52929098Y-42786765D01*
X53030810Y-42861513D01*
X53114215Y-42966428D01*
X53144899Y-43021573D01*
X53178733Y-43105147D01*
X53197443Y-43185892D01*
X53200566Y-43256445D01*
X53187641Y-43309444D01*
X53164537Y-43334751D01*
X53135304Y-43340803D01*
X53074415Y-43345807D01*
X52985505Y-43349611D01*
X52872211Y-43352064D01*
X52738166Y-43353016D01*
X52725117Y-43353023D01*
X52319839Y-43353023D01*
X52332832Y-43410389D01*
X52373953Y-43519504D01*
X52440819Y-43609348D01*
X52528434Y-43675809D01*
X52631804Y-43714776D01*
X52713273Y-43723500D01*
X52806976Y-43711375D01*
X52895539Y-43678664D01*
X52947788Y-43644735D01*
X53012490Y-43602297D01*
X53069028Y-43588988D01*
X53113228Y-43605691D01*
X53116711Y-43608949D01*
X53142966Y-43656067D01*
X53135210Y-43709374D01*
X53093783Y-43766912D01*
X53088359Y-43772284D01*
X52992112Y-43842153D01*
X52875705Y-43889091D01*
X52747016Y-43911619D01*
X52613925Y-43908257D01*
X52499745Y-43882815D01*
X52377845Y-43824913D01*
X52273969Y-43738803D01*
X52193607Y-43629279D01*
X52180317Y-43603924D01*
X52156913Y-43552492D01*
X52142251Y-43506598D01*
X52134345Y-43455117D01*
X52131208Y-43386921D01*
X52130785Y-43326546D01*
X52132008Y-43239319D01*
X52136924Y-43176155D01*
X52140712Y-43157984D01*
X52333773Y-43157984D01*
X52351347Y-43165499D01*
X52403862Y-43171084D01*
X52491009Y-43174721D01*
X52612481Y-43176394D01*
X52662233Y-43176511D01*
X52990692Y-43176511D01*
X52979156Y-43130545D01*
X52949464Y-43058765D01*
X52897046Y-43001990D01*
X52823061Y-42956714D01*
X52715396Y-42920292D01*
X52609523Y-42917485D01*
X52509819Y-42947867D01*
X52439594Y-42993955D01*
X52394828Y-43040237D01*
X52357752Y-43093546D01*
X52336259Y-43141648D01*
X52333773Y-43157984D01*
X52140712Y-43157984D01*
X52147408Y-43125865D01*
X52165330Y-43077258D01*
X52176697Y-43052148D01*
X52245381Y-42934121D01*
X52329262Y-42844311D01*
X52433676Y-42777038D01*
X52436474Y-42775655D01*
X52500537Y-42747795D01*
X52559365Y-42732778D01*
X52629376Y-42727156D01*
X52669145Y-42726772D01*
X52808677Y-42741935D01*
G37*
G36*
X54609094Y-42741935D02*
G01*
X54729515Y-42786765D01*
X54831227Y-42861513D01*
X54914632Y-42966428D01*
X54945316Y-43021573D01*
X54979150Y-43105147D01*
X54997860Y-43185892D01*
X55000983Y-43256445D01*
X54988058Y-43309444D01*
X54964954Y-43334751D01*
X54935721Y-43340803D01*
X54874832Y-43345807D01*
X54785922Y-43349611D01*
X54672628Y-43352064D01*
X54538583Y-43353016D01*
X54525534Y-43353023D01*
X54120256Y-43353023D01*
X54133249Y-43410389D01*
X54174370Y-43519504D01*
X54241236Y-43609348D01*
X54328851Y-43675809D01*
X54432221Y-43714776D01*
X54513690Y-43723500D01*
X54607393Y-43711375D01*
X54695956Y-43678664D01*
X54748205Y-43644735D01*
X54812907Y-43602297D01*
X54869445Y-43588988D01*
X54913645Y-43605691D01*
X54917128Y-43608949D01*
X54943383Y-43656067D01*
X54935627Y-43709374D01*
X54894200Y-43766912D01*
X54888776Y-43772284D01*
X54792529Y-43842153D01*
X54676122Y-43889091D01*
X54547433Y-43911619D01*
X54414342Y-43908257D01*
X54300162Y-43882815D01*
X54178262Y-43824913D01*
X54074386Y-43738803D01*
X53994024Y-43629279D01*
X53980733Y-43603924D01*
X53957329Y-43552492D01*
X53942668Y-43506598D01*
X53934762Y-43455117D01*
X53931625Y-43386921D01*
X53931202Y-43326546D01*
X53932425Y-43239319D01*
X53937341Y-43176155D01*
X53941129Y-43157984D01*
X54134190Y-43157984D01*
X54151764Y-43165499D01*
X54204279Y-43171084D01*
X54291426Y-43174721D01*
X54412898Y-43176394D01*
X54462650Y-43176511D01*
X54791109Y-43176511D01*
X54779573Y-43130545D01*
X54749881Y-43058765D01*
X54697463Y-43001990D01*
X54623478Y-42956714D01*
X54515813Y-42920292D01*
X54409940Y-42917485D01*
X54310236Y-42947867D01*
X54240011Y-42993955D01*
X54195245Y-43040237D01*
X54158169Y-43093546D01*
X54136676Y-43141648D01*
X54134190Y-43157984D01*
X53941129Y-43157984D01*
X53947825Y-43125865D01*
X53965747Y-43077258D01*
X53977114Y-43052148D01*
X54045798Y-42934121D01*
X54129679Y-42844311D01*
X54234093Y-42777038D01*
X54236891Y-42775655D01*
X54300954Y-42747795D01*
X54359782Y-42732778D01*
X54429793Y-42727156D01*
X54469562Y-42726772D01*
X54609094Y-42741935D01*
G37*
G36*
X55885546Y-42730095D02*
G01*
X55977615Y-42751932D01*
X56054927Y-42785190D01*
X56111808Y-42828753D01*
X56142585Y-42881507D01*
X56146421Y-42909641D01*
X56135613Y-42959844D01*
X56108771Y-42999851D01*
X56074267Y-43017559D01*
X56071693Y-43017651D01*
X56046208Y-43009290D01*
X56002967Y-42988016D01*
X55976778Y-42973310D01*
X55869944Y-42928865D01*
X55760574Y-42915789D01*
X55654670Y-42932390D01*
X55558233Y-42976974D01*
X55477267Y-43047850D01*
X55424309Y-43129110D01*
X55396745Y-43217329D01*
X55387361Y-43320539D01*
X55396318Y-43423370D01*
X55420340Y-43503209D01*
X55480328Y-43596240D01*
X55561405Y-43664122D01*
X55658526Y-43705438D01*
X55766646Y-43718772D01*
X55880718Y-43702707D01*
X55984763Y-43661701D01*
X56056109Y-43632985D01*
X56107951Y-43632662D01*
X56142349Y-43661177D01*
X56157240Y-43698878D01*
X56152296Y-43747099D01*
X56118057Y-43796479D01*
X56059878Y-43841424D01*
X55989430Y-43874181D01*
X55907742Y-43894864D01*
X55811234Y-43907402D01*
X55712751Y-43911176D01*
X55625142Y-43905565D01*
X55572758Y-43894319D01*
X55442307Y-43835847D01*
X55339093Y-43755454D01*
X55261361Y-43651363D01*
X55208317Y-43524985D01*
X55180238Y-43381746D01*
X55181444Y-43240834D01*
X55210061Y-43107333D01*
X55264217Y-42986325D01*
X55342038Y-42882895D01*
X55441650Y-42802126D01*
X55483134Y-42779257D01*
X55577511Y-42744260D01*
X55679821Y-42725144D01*
X55784390Y-42720794D01*
X55885546Y-42730095D01*
G37*
G36*
X58781032Y-42746861D02*
G01*
X58811744Y-42770535D01*
X58823644Y-42784508D01*
X58832529Y-42802613D01*
X58838836Y-42829792D01*
X58843003Y-42870985D01*
X58845466Y-42931134D01*
X58846663Y-43015179D01*
X58847032Y-43128062D01*
X58847046Y-43169431D01*
X58847735Y-43310438D01*
X58850562Y-43420681D01*
X58856664Y-43504681D01*
X58867179Y-43566962D01*
X58883246Y-43612046D01*
X58906002Y-43644458D01*
X58936586Y-43668720D01*
X58976135Y-43689355D01*
X58978091Y-43690246D01*
X59076151Y-43719073D01*
X59171790Y-43718388D01*
X59257987Y-43689509D01*
X59327717Y-43633758D01*
X59336529Y-43622889D01*
X59385406Y-43558856D01*
X59391105Y-43177934D01*
X59393422Y-43048332D01*
X59396233Y-42949544D01*
X59399904Y-42877085D01*
X59404801Y-42826467D01*
X59411292Y-42793202D01*
X59419742Y-42772804D01*
X59424731Y-42766122D01*
X59470655Y-42738994D01*
X59525637Y-42741346D01*
X59562957Y-42760312D01*
X59574092Y-42770432D01*
X59582520Y-42785383D01*
X59588615Y-42809750D01*
X59592751Y-42848119D01*
X59595304Y-42905076D01*
X59596648Y-42985206D01*
X59597158Y-43093096D01*
X59597220Y-43179527D01*
X59597111Y-43307455D01*
X59596440Y-43405513D01*
X59594691Y-43479133D01*
X59591347Y-43533747D01*
X59585891Y-43574786D01*
X59577808Y-43607684D01*
X59566581Y-43637870D01*
X59551693Y-43670779D01*
X59550216Y-43673932D01*
X59488560Y-43772448D01*
X59430177Y-43827109D01*
X59329063Y-43880214D01*
X59209983Y-43909857D01*
X59082217Y-43915018D01*
X58955048Y-43894682D01*
X58917894Y-43883282D01*
X58813112Y-43829275D01*
X58730196Y-43749044D01*
X58673233Y-43646863D01*
X58663010Y-43616665D01*
X58652736Y-43572909D01*
X58645151Y-43517121D01*
X58639939Y-43444100D01*
X58636786Y-43348646D01*
X58635380Y-43225558D01*
X58635232Y-43156657D01*
X58635354Y-43034052D01*
X58636040Y-42941933D01*
X58637769Y-42875481D01*
X58641020Y-42829880D01*
X58646275Y-42800314D01*
X58654011Y-42781965D01*
X58664710Y-42770016D01*
X58674462Y-42762710D01*
X58730569Y-42737651D01*
X58781032Y-42746861D01*
G37*
G36*
X65216861Y-42734667D02*
G01*
X65330161Y-42768390D01*
X65346244Y-42775837D01*
X65461328Y-42850067D01*
X65551561Y-42944284D01*
X65617023Y-43053660D01*
X65657796Y-43173371D01*
X65673958Y-43298588D01*
X65665589Y-43424487D01*
X65632771Y-43546240D01*
X65575582Y-43659021D01*
X65494103Y-43758004D01*
X65388413Y-43838363D01*
X65328118Y-43869342D01*
X65244398Y-43895235D01*
X65144103Y-43909746D01*
X65041873Y-43911963D01*
X64952349Y-43900977D01*
X64927866Y-43894226D01*
X64794344Y-43832689D01*
X64682018Y-43744851D01*
X64594458Y-43633846D01*
X64562462Y-43573662D01*
X64535082Y-43485827D01*
X64520958Y-43378816D01*
X64520815Y-43358867D01*
X64727583Y-43358867D01*
X64734145Y-43429176D01*
X64742900Y-43468880D01*
X64774751Y-43529994D01*
X64826680Y-43594823D01*
X64888516Y-43653038D01*
X64950085Y-43694311D01*
X64975099Y-43704636D01*
X65068526Y-43718456D01*
X65168684Y-43709384D01*
X65260531Y-43679579D01*
X65297578Y-43658315D01*
X65376694Y-43583585D01*
X65430431Y-43491040D01*
X65458838Y-43387354D01*
X65461963Y-43279201D01*
X65439855Y-43173255D01*
X65392561Y-43076191D01*
X65320131Y-42994681D01*
X65292607Y-42973632D01*
X65244679Y-42943858D01*
X65200577Y-42927781D01*
X65145576Y-42921405D01*
X65097155Y-42920570D01*
X65025343Y-42923104D01*
X64973877Y-42933193D01*
X64928012Y-42954567D01*
X64904664Y-42969261D01*
X64817318Y-43043711D01*
X64760469Y-43133109D01*
X64731643Y-43241847D01*
X64727828Y-43283269D01*
X64727583Y-43358867D01*
X64520815Y-43358867D01*
X64520143Y-43265414D01*
X64532689Y-43158407D01*
X64558649Y-43070580D01*
X64560370Y-43066770D01*
X64616805Y-42973250D01*
X64693990Y-42884219D01*
X64781541Y-42810248D01*
X64853488Y-42768377D01*
X64965604Y-42734465D01*
X65091036Y-42723294D01*
X65216861Y-42734667D01*
G37*
G36*
X66066888Y-42250622D02*
G01*
X66093881Y-42266019D01*
X66106489Y-42277951D01*
X66115773Y-42296139D01*
X66122384Y-42325903D01*
X66126968Y-42372561D01*
X66130174Y-42441434D01*
X66132650Y-42537839D01*
X66133724Y-42592942D01*
X66139303Y-42894846D01*
X66210799Y-42833649D01*
X66317621Y-42762983D01*
X66433503Y-42726312D01*
X66558924Y-42723544D01*
X66666282Y-42745627D01*
X66730760Y-42770889D01*
X66790453Y-42809793D01*
X66857131Y-42870095D01*
X66860821Y-42873773D01*
X66933218Y-42956361D01*
X66982680Y-43040188D01*
X67012527Y-43134260D01*
X67026081Y-43247584D01*
X67027783Y-43326546D01*
X67015425Y-43473250D01*
X66978126Y-43598053D01*
X66913838Y-43705928D01*
X66838490Y-43786193D01*
X66729012Y-43863344D01*
X66611658Y-43906764D01*
X66489550Y-43916267D01*
X66365809Y-43891668D01*
X66243553Y-43832783D01*
X66227688Y-43822435D01*
X66140060Y-43763466D01*
X66128930Y-43822797D01*
X66105084Y-43877186D01*
X66063828Y-43909949D01*
X66014520Y-43917719D01*
X65966521Y-43897130D01*
X65954368Y-43885580D01*
X65947321Y-43875032D01*
X65941494Y-43858293D01*
X65936774Y-43832210D01*
X65933046Y-43793631D01*
X65930198Y-43739403D01*
X65928115Y-43666373D01*
X65926684Y-43571388D01*
X65925790Y-43451295D01*
X65925320Y-43302941D01*
X65925310Y-43292182D01*
X66127292Y-43292182D01*
X66131156Y-43393719D01*
X66151038Y-43484517D01*
X66166550Y-43520709D01*
X66233676Y-43616909D01*
X66315706Y-43681134D01*
X66412874Y-43713516D01*
X66506681Y-43716179D01*
X66601363Y-43696449D01*
X66673402Y-43658263D01*
X66748873Y-43585091D01*
X66800674Y-43493019D01*
X66828732Y-43389179D01*
X66832974Y-43280705D01*
X66813325Y-43174731D01*
X66769714Y-43078390D01*
X66702066Y-42998816D01*
X66680356Y-42981626D01*
X66584850Y-42932132D01*
X66484740Y-42914874D01*
X66385857Y-42928364D01*
X66294032Y-42971113D01*
X66215095Y-43041633D01*
X66167494Y-43112540D01*
X66139416Y-43193818D01*
X66127292Y-43292182D01*
X65925310Y-43292182D01*
X65925161Y-43123175D01*
X65925156Y-43076363D01*
X65925227Y-42889974D01*
X65925526Y-42735709D01*
X65926180Y-42610389D01*
X65927317Y-42510836D01*
X65929062Y-42433871D01*
X65931545Y-42376316D01*
X65934891Y-42334992D01*
X65939229Y-42306720D01*
X65944685Y-42288323D01*
X65951387Y-42276622D01*
X65957435Y-42270213D01*
X66009888Y-42243623D01*
X66066888Y-42250622D01*
G37*
G36*
X53609246Y-42252629D02*
G01*
X53639958Y-42276303D01*
X53648496Y-42285944D01*
X53655535Y-42298365D01*
X53661218Y-42316820D01*
X53665691Y-42344564D01*
X53669098Y-42384853D01*
X53671584Y-42440941D01*
X53673294Y-42516084D01*
X53674371Y-42613537D01*
X53674962Y-42736554D01*
X53675210Y-42888391D01*
X53675260Y-43070605D01*
X53675209Y-43254231D01*
X53674958Y-43405811D01*
X53674364Y-43528599D01*
X53673282Y-43625849D01*
X53671567Y-43700817D01*
X53669073Y-43756758D01*
X53665658Y-43796928D01*
X53661175Y-43824580D01*
X53655481Y-43842970D01*
X53648430Y-43855354D01*
X53639958Y-43864906D01*
X53591192Y-43895943D01*
X53539084Y-43892579D01*
X53502676Y-43872731D01*
X53463446Y-43845253D01*
X53463446Y-43070605D01*
X53463446Y-42295956D01*
X53502676Y-42268478D01*
X53558783Y-42243419D01*
X53609246Y-42252629D01*
G37*
G36*
X56633562Y-42463778D02*
G01*
X56669749Y-42498730D01*
X56689029Y-42560764D01*
X56693606Y-42633253D01*
X56693606Y-42735233D01*
X56796139Y-42735233D01*
X56879445Y-42741854D01*
X56932724Y-42762813D01*
X56958887Y-42799754D01*
X56962786Y-42829223D01*
X56955835Y-42878376D01*
X56931251Y-42909071D01*
X56883440Y-42924884D01*
X56806809Y-42929395D01*
X56806177Y-42929395D01*
X56693606Y-42929395D01*
X56693606Y-43299448D01*
X56693749Y-43422813D01*
X56694472Y-43515566D01*
X56696216Y-43582400D01*
X56699422Y-43628005D01*
X56704530Y-43657072D01*
X56711982Y-43674293D01*
X56722219Y-43684358D01*
X56730230Y-43689102D01*
X56774676Y-43699796D01*
X56832545Y-43697592D01*
X56834806Y-43697222D01*
X56881568Y-43692609D01*
X56907692Y-43702198D01*
X56923241Y-43724014D01*
X56937661Y-43779184D01*
X56922341Y-43826917D01*
X56882524Y-43864524D01*
X56823451Y-43889316D01*
X56750365Y-43898606D01*
X56668508Y-43889705D01*
X56624655Y-43877148D01*
X56571620Y-43847852D01*
X56527904Y-43806737D01*
X56527574Y-43806293D01*
X56515765Y-43788433D01*
X56506672Y-43767557D01*
X56499863Y-43738920D01*
X56494905Y-43697778D01*
X56491364Y-43639389D01*
X56488808Y-43559006D01*
X56486805Y-43451887D01*
X56485298Y-43342951D01*
X56479979Y-42929395D01*
X56395366Y-42929395D01*
X56320563Y-42918841D01*
X56272356Y-42888090D01*
X56252694Y-42838506D01*
X56252327Y-42829247D01*
X56268076Y-42781663D01*
X56312770Y-42749650D01*
X56382583Y-42735654D01*
X56399339Y-42735233D01*
X56481792Y-42735233D01*
X56481792Y-42628165D01*
X56485590Y-42545791D01*
X56498952Y-42492737D01*
X56524833Y-42463645D01*
X56566188Y-42453158D01*
X56578494Y-42452814D01*
X56633562Y-42463778D01*
G37*
G36*
X57858912Y-42729852D02*
G01*
X57905181Y-42761036D01*
X57934115Y-42802693D01*
X57937124Y-42845846D01*
X57922552Y-42882917D01*
X57901379Y-42905048D01*
X57866456Y-42914272D01*
X57810631Y-42912622D01*
X57735024Y-42903299D01*
X57654669Y-42905343D01*
X57584057Y-42937260D01*
X57519136Y-43001300D01*
X57493027Y-43037660D01*
X57476607Y-43063222D01*
X57464195Y-43087154D01*
X57455088Y-43114814D01*
X57448586Y-43151559D01*
X57443986Y-43202748D01*
X57440587Y-43273740D01*
X57437687Y-43369892D01*
X57434954Y-43481093D01*
X57431767Y-43605031D01*
X57428594Y-43698413D01*
X57424916Y-43765981D01*
X57420214Y-43812479D01*
X57413971Y-43842648D01*
X57405667Y-43861230D01*
X57394784Y-43872970D01*
X57391866Y-43875198D01*
X57336484Y-43898141D01*
X57282668Y-43890365D01*
X57252353Y-43867929D01*
X57243894Y-43855254D01*
X57237220Y-43835442D01*
X57232124Y-43804591D01*
X57228402Y-43758799D01*
X57225849Y-43694163D01*
X57224259Y-43606782D01*
X57223427Y-43492752D01*
X57223148Y-43348172D01*
X57223141Y-43312325D01*
X57223141Y-42789000D01*
X57267140Y-42760171D01*
X57323287Y-42739419D01*
X57373034Y-42750028D01*
X57411130Y-42788073D01*
X57432325Y-42849630D01*
X57434954Y-42885576D01*
X57437062Y-42905744D01*
X57446915Y-42908602D01*
X57469807Y-42891538D01*
X57511034Y-42851940D01*
X57518797Y-42844223D01*
X57615065Y-42768651D01*
X57718743Y-42727049D01*
X57804066Y-42717582D01*
X57858912Y-42729852D01*
G37*
G36*
X58305950Y-42767512D02*
G01*
X58314426Y-42780215D01*
X58321111Y-42800067D01*
X58326210Y-42830979D01*
X58329930Y-42876865D01*
X58332479Y-42941636D01*
X58334061Y-43029204D01*
X58334885Y-43143480D01*
X58335157Y-43288376D01*
X58335163Y-43320788D01*
X58335028Y-43470837D01*
X58334471Y-43589532D01*
X58333258Y-43680822D01*
X58331159Y-43748654D01*
X58327942Y-43796976D01*
X58323375Y-43829736D01*
X58317227Y-43850881D01*
X58309266Y-43864361D01*
X58302883Y-43870996D01*
X58251000Y-43897390D01*
X58196126Y-43890802D01*
X58158651Y-43864906D01*
X58148442Y-43853168D01*
X58140414Y-43838028D01*
X58134307Y-43815433D01*
X58129858Y-43781331D01*
X58126807Y-43731672D01*
X58124892Y-43662402D01*
X58123852Y-43569470D01*
X58123425Y-43448824D01*
X58123349Y-43317721D01*
X58123454Y-43169578D01*
X58123945Y-43052685D01*
X58125082Y-42962991D01*
X58127127Y-42896443D01*
X58130341Y-42848989D01*
X58134987Y-42816577D01*
X58141324Y-42795157D01*
X58149615Y-42780674D01*
X58158651Y-42770535D01*
X58208827Y-42740490D01*
X58262294Y-42740165D01*
X58305950Y-42767512D01*
G37*
G36*
X60573353Y-42726367D02*
G01*
X60674057Y-42759155D01*
X60757723Y-42818141D01*
X60817368Y-42898384D01*
X60844795Y-42951423D01*
X60927053Y-42871703D01*
X61011744Y-42799148D01*
X61091919Y-42753095D01*
X61178005Y-42728065D01*
X61208836Y-42723560D01*
X61325228Y-42725469D01*
X61428574Y-42758505D01*
X61514969Y-42820565D01*
X61580508Y-42909547D01*
X61590045Y-42928812D01*
X61602014Y-42957381D01*
X61611245Y-42988164D01*
X61618184Y-43026278D01*
X61623275Y-43076841D01*
X61626967Y-43144968D01*
X61629704Y-43235778D01*
X61631933Y-43354386D01*
X61632924Y-43420649D01*
X61634596Y-43553054D01*
X61635182Y-43654705D01*
X61634429Y-43730139D01*
X61632085Y-43783894D01*
X61627898Y-43820507D01*
X61621616Y-43844516D01*
X61612987Y-43860458D01*
X61608153Y-43866340D01*
X61560858Y-43895636D01*
X61506882Y-43894212D01*
X61459416Y-43864906D01*
X61447498Y-43850910D01*
X61438605Y-43832773D01*
X61432297Y-43805545D01*
X61428135Y-43764275D01*
X61425678Y-43704013D01*
X61424489Y-43619808D01*
X61424127Y-43506710D01*
X61424113Y-43467188D01*
X61423332Y-43326291D01*
X61420439Y-43216124D01*
X61414613Y-43132138D01*
X61405032Y-43069785D01*
X61390873Y-43024517D01*
X61371315Y-42991785D01*
X61345536Y-42967040D01*
X61331997Y-42957502D01*
X61245478Y-42920661D01*
X61152450Y-42915159D01*
X61061186Y-42940278D01*
X60988654Y-42987356D01*
X60952823Y-43021132D01*
X60925556Y-43054882D01*
X60905696Y-43093916D01*
X60892084Y-43143542D01*
X60883563Y-43209070D01*
X60878976Y-43295809D01*
X60877165Y-43409067D01*
X60876928Y-43499755D01*
X60876654Y-43618991D01*
X60875540Y-43707928D01*
X60873154Y-43771567D01*
X60869059Y-43814909D01*
X60862821Y-43842955D01*
X60854005Y-43860706D01*
X60844649Y-43870996D01*
X60792196Y-43897586D01*
X60735197Y-43890587D01*
X60708203Y-43875188D01*
X60697037Y-43864777D01*
X60688396Y-43848886D01*
X60681818Y-43822964D01*
X60676837Y-43782459D01*
X60672988Y-43722818D01*
X60669809Y-43639490D01*
X60666834Y-43527922D01*
X60665114Y-43452780D01*
X60662035Y-43323320D01*
X60658966Y-43224298D01*
X60655407Y-43150854D01*
X60650860Y-43098128D01*
X60644828Y-43061260D01*
X60636813Y-43035389D01*
X60626315Y-43015656D01*
X60619285Y-43005632D01*
X60555625Y-42944642D01*
X60477390Y-42915354D01*
X60434977Y-42912004D01*
X60357894Y-42925643D01*
X60277400Y-42961978D01*
X60207950Y-43013262D01*
X60175437Y-43051151D01*
X60161947Y-43073068D01*
X60151899Y-43096078D01*
X60144788Y-43125497D01*
X60140109Y-43166644D01*
X60137356Y-43224838D01*
X60136023Y-43305397D01*
X60135604Y-43413639D01*
X60135580Y-43470366D01*
X60135374Y-43592321D01*
X60134459Y-43683952D01*
X60132390Y-43750235D01*
X60128722Y-43796146D01*
X60123009Y-43826661D01*
X60114807Y-43846758D01*
X60103669Y-43861413D01*
X60100277Y-43864906D01*
X60050102Y-43894951D01*
X59996635Y-43895276D01*
X59952978Y-43867929D01*
X59944520Y-43855254D01*
X59937845Y-43835442D01*
X59932750Y-43804591D01*
X59929028Y-43758799D01*
X59926474Y-43694163D01*
X59924884Y-43606782D01*
X59924052Y-43492752D01*
X59923773Y-43348172D01*
X59923766Y-43312325D01*
X59923766Y-42789000D01*
X59969262Y-42759190D01*
X60025646Y-42738088D01*
X60074704Y-42750006D01*
X60111820Y-42792763D01*
X60126754Y-42833570D01*
X60144405Y-42904783D01*
X60201870Y-42846887D01*
X60286384Y-42777861D01*
X60378752Y-42737678D01*
X60461572Y-42722720D01*
X60573353Y-42726367D01*
G37*
G36*
X63203374Y-42726367D02*
G01*
X63304078Y-42759155D01*
X63387744Y-42818141D01*
X63447389Y-42898384D01*
X63474816Y-42951423D01*
X63557074Y-42871703D01*
X63641765Y-42799148D01*
X63721940Y-42753095D01*
X63808026Y-42728065D01*
X63838857Y-42723560D01*
X63955249Y-42725469D01*
X64058595Y-42758505D01*
X64144990Y-42820565D01*
X64210529Y-42909547D01*
X64220066Y-42928812D01*
X64232035Y-42957381D01*
X64241266Y-42988164D01*
X64248204Y-43026278D01*
X64253296Y-43076841D01*
X64256988Y-43144968D01*
X64259725Y-43235778D01*
X64261954Y-43354386D01*
X64262945Y-43420649D01*
X64264617Y-43553054D01*
X64265203Y-43654705D01*
X64264450Y-43730139D01*
X64262106Y-43783894D01*
X64257919Y-43820507D01*
X64251637Y-43844516D01*
X64243008Y-43860458D01*
X64238173Y-43866340D01*
X64190879Y-43895636D01*
X64136903Y-43894212D01*
X64089437Y-43864906D01*
X64077519Y-43850910D01*
X64068626Y-43832773D01*
X64062318Y-43805545D01*
X64058156Y-43764275D01*
X64055699Y-43704013D01*
X64054510Y-43619808D01*
X64054147Y-43506710D01*
X64054134Y-43467188D01*
X64053353Y-43326291D01*
X64050460Y-43216124D01*
X64044634Y-43132138D01*
X64035053Y-43069785D01*
X64020894Y-43024517D01*
X64001336Y-42991785D01*
X63975557Y-42967040D01*
X63962017Y-42957502D01*
X63875499Y-42920661D01*
X63782471Y-42915159D01*
X63691206Y-42940278D01*
X63618675Y-42987356D01*
X63582844Y-43021132D01*
X63555577Y-43054882D01*
X63535717Y-43093916D01*
X63522105Y-43143542D01*
X63513584Y-43209070D01*
X63508997Y-43295809D01*
X63507186Y-43409067D01*
X63506949Y-43499755D01*
X63506674Y-43618991D01*
X63505561Y-43707928D01*
X63503175Y-43771567D01*
X63499080Y-43814909D01*
X63492842Y-43842955D01*
X63484026Y-43860706D01*
X63474669Y-43870996D01*
X63422216Y-43897586D01*
X63365217Y-43890587D01*
X63338224Y-43875188D01*
X63327057Y-43864777D01*
X63318417Y-43848886D01*
X63311839Y-43822964D01*
X63306857Y-43782459D01*
X63303009Y-43722818D01*
X63299830Y-43639490D01*
X63296855Y-43527922D01*
X63295135Y-43452780D01*
X63292056Y-43323320D01*
X63288987Y-43224298D01*
X63285427Y-43150854D01*
X63280881Y-43098128D01*
X63274849Y-43061260D01*
X63266834Y-43035389D01*
X63256336Y-43015656D01*
X63249306Y-43005632D01*
X63185646Y-42944642D01*
X63107411Y-42915354D01*
X63064997Y-42912004D01*
X62987914Y-42925643D01*
X62907420Y-42961978D01*
X62837971Y-43013262D01*
X62805458Y-43051151D01*
X62791967Y-43073068D01*
X62781920Y-43096078D01*
X62774809Y-43125497D01*
X62770130Y-43166644D01*
X62767376Y-43224838D01*
X62766044Y-43305397D01*
X62765625Y-43413639D01*
X62765601Y-43470366D01*
X62765395Y-43592321D01*
X62764480Y-43683952D01*
X62762411Y-43750235D01*
X62758743Y-43796146D01*
X62753030Y-43826661D01*
X62744827Y-43846758D01*
X62733690Y-43861413D01*
X62730298Y-43864906D01*
X62680123Y-43894951D01*
X62626656Y-43895276D01*
X62582999Y-43867929D01*
X62574541Y-43855254D01*
X62567866Y-43835442D01*
X62562770Y-43804591D01*
X62559049Y-43758799D01*
X62556495Y-43694163D01*
X62554905Y-43606782D01*
X62554073Y-43492752D01*
X62553794Y-43348172D01*
X62553787Y-43312325D01*
X62553787Y-42789000D01*
X62599283Y-42759190D01*
X62655667Y-42738088D01*
X62704724Y-42750006D01*
X62741841Y-42792763D01*
X62756775Y-42833570D01*
X62774426Y-42904783D01*
X62831891Y-42846887D01*
X62916405Y-42777861D01*
X63008773Y-42737678D01*
X63091593Y-42722720D01*
X63203374Y-42726367D01*
G37*
G36*
X67449244Y-42767512D02*
G01*
X67457720Y-42780215D01*
X67464405Y-42800067D01*
X67469504Y-42830979D01*
X67473224Y-42876865D01*
X67475773Y-42941636D01*
X67477355Y-43029204D01*
X67478179Y-43143480D01*
X67478451Y-43288376D01*
X67478457Y-43320788D01*
X67478322Y-43470837D01*
X67477765Y-43589532D01*
X67476552Y-43680822D01*
X67474453Y-43748654D01*
X67471236Y-43796976D01*
X67466669Y-43829736D01*
X67460521Y-43850881D01*
X67452560Y-43864361D01*
X67446177Y-43870996D01*
X67394294Y-43897390D01*
X67339420Y-43890802D01*
X67301945Y-43864906D01*
X67291736Y-43853168D01*
X67283708Y-43838028D01*
X67277601Y-43815433D01*
X67273152Y-43781331D01*
X67270101Y-43731672D01*
X67268186Y-43662402D01*
X67267146Y-43569470D01*
X67266719Y-43448824D01*
X67266643Y-43317721D01*
X67266748Y-43169578D01*
X67267239Y-43052685D01*
X67268376Y-42962991D01*
X67270421Y-42896443D01*
X67273635Y-42848989D01*
X67278281Y-42816577D01*
X67284618Y-42795157D01*
X67292909Y-42780674D01*
X67301945Y-42770535D01*
X67352121Y-42740490D01*
X67405588Y-42740165D01*
X67449244Y-42767512D01*
G37*
G36*
X67941977Y-42252629D02*
G01*
X67972689Y-42276303D01*
X67981227Y-42285944D01*
X67988266Y-42298365D01*
X67993949Y-42316820D01*
X67998422Y-42344564D01*
X68001829Y-42384853D01*
X68004315Y-42440941D01*
X68006025Y-42516084D01*
X68007102Y-42613537D01*
X68007693Y-42736554D01*
X68007941Y-42888391D01*
X68007991Y-43070605D01*
X68007940Y-43254231D01*
X68007690Y-43405811D01*
X68007095Y-43528599D01*
X68006013Y-43625849D01*
X68004298Y-43700817D01*
X68001805Y-43756758D01*
X67998389Y-43796928D01*
X67993906Y-43824580D01*
X67988212Y-43842970D01*
X67981162Y-43855354D01*
X67972689Y-43864906D01*
X67923923Y-43895943D01*
X67871815Y-43892579D01*
X67835407Y-43872731D01*
X67796177Y-43845253D01*
X67796177Y-43070605D01*
X67796177Y-42295956D01*
X67835407Y-42268478D01*
X67891514Y-42243419D01*
X67941977Y-42252629D01*
G37*
G36*
X68508313Y-42767512D02*
G01*
X68516789Y-42780215D01*
X68523473Y-42800067D01*
X68528572Y-42830979D01*
X68532293Y-42876865D01*
X68534841Y-42941636D01*
X68536424Y-43029204D01*
X68537248Y-43143480D01*
X68537519Y-43288376D01*
X68537526Y-43320788D01*
X68537391Y-43470837D01*
X68536833Y-43589532D01*
X68535621Y-43680822D01*
X68533522Y-43748654D01*
X68530305Y-43796976D01*
X68525738Y-43829736D01*
X68519590Y-43850881D01*
X68511629Y-43864361D01*
X68505246Y-43870996D01*
X68453363Y-43897390D01*
X68398489Y-43890802D01*
X68361014Y-43864906D01*
X68350805Y-43853168D01*
X68342777Y-43838028D01*
X68336669Y-43815433D01*
X68332221Y-43781331D01*
X68329170Y-43731672D01*
X68327255Y-43662402D01*
X68326215Y-43569470D01*
X68325788Y-43448824D01*
X68325712Y-43317721D01*
X68325817Y-43169578D01*
X68326308Y-43052685D01*
X68327445Y-42962991D01*
X68329490Y-42896443D01*
X68332704Y-42848989D01*
X68337349Y-42816577D01*
X68343687Y-42795157D01*
X68351978Y-42780674D01*
X68361014Y-42770535D01*
X68411190Y-42740490D01*
X68464657Y-42740165D01*
X68508313Y-42767512D01*
G37*
G36*
X69095271Y-42463778D02*
G01*
X69131458Y-42498730D01*
X69150738Y-42560764D01*
X69155316Y-42633253D01*
X69155316Y-42735233D01*
X69257849Y-42735233D01*
X69341155Y-42741854D01*
X69394433Y-42762813D01*
X69420597Y-42799754D01*
X69424496Y-42829223D01*
X69417544Y-42878376D01*
X69392960Y-42909071D01*
X69345150Y-42924884D01*
X69268519Y-42929395D01*
X69267887Y-42929395D01*
X69155316Y-42929395D01*
X69155316Y-43299448D01*
X69155459Y-43422813D01*
X69156182Y-43515566D01*
X69157925Y-43582400D01*
X69161131Y-43628005D01*
X69166240Y-43657072D01*
X69173692Y-43674293D01*
X69183928Y-43684358D01*
X69191939Y-43689102D01*
X69236386Y-43699796D01*
X69294255Y-43697592D01*
X69296515Y-43697222D01*
X69343278Y-43692609D01*
X69369402Y-43702198D01*
X69384950Y-43724014D01*
X69399370Y-43779184D01*
X69384050Y-43826917D01*
X69344233Y-43864524D01*
X69285161Y-43889316D01*
X69212075Y-43898606D01*
X69130218Y-43889705D01*
X69086364Y-43877148D01*
X69033330Y-43847852D01*
X68989614Y-43806737D01*
X68989283Y-43806293D01*
X68977474Y-43788433D01*
X68968382Y-43767557D01*
X68961573Y-43738920D01*
X68956614Y-43697778D01*
X68953074Y-43639389D01*
X68950518Y-43559006D01*
X68948514Y-43451887D01*
X68947008Y-43342951D01*
X68941688Y-42929395D01*
X68857075Y-42929395D01*
X68782272Y-42918841D01*
X68734065Y-42888090D01*
X68714404Y-42838506D01*
X68714037Y-42829247D01*
X68729785Y-42781663D01*
X68774479Y-42749650D01*
X68844292Y-42735654D01*
X68861049Y-42735233D01*
X68943502Y-42735233D01*
X68943502Y-42628165D01*
X68947299Y-42545791D01*
X68960661Y-42492737D01*
X68986542Y-42463645D01*
X69027897Y-42453158D01*
X69040203Y-42452814D01*
X69095271Y-42463778D01*
G37*
G36*
X58300468Y-42341958D02*
G01*
X58339300Y-42379724D01*
X58352805Y-42442050D01*
X58352814Y-42443989D01*
X58344829Y-42493475D01*
X58325571Y-42530480D01*
X58325076Y-42530984D01*
X58280326Y-42553869D01*
X58222295Y-42557167D01*
X58166636Y-42541521D01*
X58141000Y-42523419D01*
X58110412Y-42472784D01*
X58109508Y-42419886D01*
X58134250Y-42372908D01*
X58180600Y-42340029D01*
X58236821Y-42329256D01*
X58300468Y-42341958D01*
G37*
G36*
X67443762Y-42341958D02*
G01*
X67482594Y-42379724D01*
X67496099Y-42442050D01*
X67496108Y-42443989D01*
X67488123Y-42493475D01*
X67468865Y-42530480D01*
X67468370Y-42530984D01*
X67423620Y-42553869D01*
X67365589Y-42557167D01*
X67309930Y-42541521D01*
X67284294Y-42523419D01*
X67253706Y-42472784D01*
X67252802Y-42419886D01*
X67277544Y-42372908D01*
X67323894Y-42340029D01*
X67380115Y-42329256D01*
X67443762Y-42341958D01*
G37*
G36*
X68502831Y-42341958D02*
G01*
X68541663Y-42379724D01*
X68555168Y-42442050D01*
X68555177Y-42443989D01*
X68547191Y-42493475D01*
X68527933Y-42530480D01*
X68527439Y-42530984D01*
X68482689Y-42553869D01*
X68424658Y-42557167D01*
X68368999Y-42541521D01*
X68343363Y-42523419D01*
X68312775Y-42472784D01*
X68311871Y-42419886D01*
X68336613Y-42372908D01*
X68382963Y-42340029D01*
X68439183Y-42329256D01*
X68502831Y-42341958D01*
G37*
G36*
X47890520Y-42134728D02*
G01*
X47979023Y-42136731D01*
X48050986Y-42140741D01*
X48096814Y-42146430D01*
X48151064Y-42171567D01*
X48179057Y-42215582D01*
X48176784Y-42271011D01*
X48171314Y-42285129D01*
X48151208Y-42329256D01*
X47782317Y-42329256D01*
X47654336Y-42328837D01*
X47557373Y-42327392D01*
X47487152Y-42324644D01*
X47439396Y-42320314D01*
X47409829Y-42314123D01*
X47394174Y-42305793D01*
X47392338Y-42303847D01*
X47375365Y-42259036D01*
X47383283Y-42208422D01*
X47412533Y-42167101D01*
X47426754Y-42157827D01*
X47459025Y-42150426D01*
X47519176Y-42144278D01*
X47599805Y-42139509D01*
X47693507Y-42136243D01*
X47792880Y-42134607D01*
X47890520Y-42134728D01*
G37*
D15*
%TO.C,C9*%
X58635000Y-69601248D02*
X58635000Y-70123752D01*
X57165000Y-69601248D02*
X57165000Y-70123752D01*
%TO.C,J6*%
X51010000Y-72760000D02*
X51010000Y-71510000D01*
X50710000Y-72460000D02*
X50710000Y-67740000D01*
X50710000Y-71150000D02*
X50100000Y-71150000D01*
X50710000Y-69850000D02*
X50100000Y-69850000D01*
X50710000Y-67740000D02*
X44590000Y-67740000D01*
X50100000Y-71850000D02*
X50100000Y-68350000D01*
X50100000Y-68350000D02*
X45200000Y-68350000D01*
X49760000Y-72760000D02*
X51010000Y-72760000D01*
X49250000Y-72660000D02*
X49250000Y-72460000D01*
X48950000Y-72660000D02*
X49250000Y-72660000D01*
X48950000Y-72560000D02*
X49250000Y-72560000D01*
X48950000Y-72460000D02*
X48950000Y-72660000D01*
X48150000Y-72460000D02*
X48150000Y-71850000D01*
X48150000Y-71850000D02*
X50100000Y-71850000D01*
X47750000Y-68850000D02*
X47550000Y-68850000D01*
X47750000Y-68350000D02*
X47750000Y-68850000D01*
X47650000Y-68350000D02*
X47650000Y-68850000D01*
X47550000Y-68850000D02*
X47550000Y-68350000D01*
X47150000Y-71850000D02*
X47150000Y-72460000D01*
X45200000Y-71850000D02*
X47150000Y-71850000D01*
X45200000Y-68350000D02*
X45200000Y-71850000D01*
X44590000Y-72460000D02*
X50710000Y-72460000D01*
X44590000Y-71150000D02*
X45200000Y-71150000D01*
X44590000Y-69850000D02*
X45200000Y-69850000D01*
X44590000Y-67740000D02*
X44590000Y-72460000D01*
%TO.C,D10*%
X54550000Y-66390000D02*
X54550000Y-71900000D01*
X54550000Y-66390000D02*
X51250000Y-66390000D01*
X51250000Y-66390000D02*
X51250000Y-71900000D01*
%TO.C,J4*%
X29810000Y-72760000D02*
X29810000Y-71510000D01*
X29510000Y-72460000D02*
X29510000Y-67740000D01*
X29510000Y-71150000D02*
X28900000Y-71150000D01*
X29510000Y-69850000D02*
X28900000Y-69850000D01*
X29510000Y-67740000D02*
X23390000Y-67740000D01*
X28900000Y-71850000D02*
X28900000Y-68350000D01*
X28900000Y-68350000D02*
X24000000Y-68350000D01*
X28560000Y-72760000D02*
X29810000Y-72760000D01*
X28050000Y-72660000D02*
X28050000Y-72460000D01*
X27750000Y-72660000D02*
X28050000Y-72660000D01*
X27750000Y-72560000D02*
X28050000Y-72560000D01*
X27750000Y-72460000D02*
X27750000Y-72660000D01*
X26950000Y-72460000D02*
X26950000Y-71850000D01*
X26950000Y-71850000D02*
X28900000Y-71850000D01*
X26550000Y-68850000D02*
X26350000Y-68850000D01*
X26550000Y-68350000D02*
X26550000Y-68850000D01*
X26450000Y-68350000D02*
X26450000Y-68850000D01*
X26350000Y-68850000D02*
X26350000Y-68350000D01*
X25950000Y-71850000D02*
X25950000Y-72460000D01*
X24000000Y-71850000D02*
X25950000Y-71850000D01*
X24000000Y-68350000D02*
X24000000Y-71850000D01*
X23390000Y-72460000D02*
X29510000Y-72460000D01*
X23390000Y-71150000D02*
X24000000Y-71150000D01*
X23390000Y-69850000D02*
X24000000Y-69850000D01*
X23390000Y-67740000D02*
X23390000Y-72460000D01*
%TO.C,C8*%
X56530858Y-69644189D02*
X56530858Y-70166693D01*
X55060858Y-69644189D02*
X55060858Y-70166693D01*
%TO.C,R15*%
X25827064Y-55416965D02*
X25372936Y-55416965D01*
X25827064Y-53946965D02*
X25372936Y-53946965D01*
%TO.C,D9*%
X40060000Y-50110000D02*
X40060000Y-48090000D01*
X40060000Y-50110000D02*
X36300000Y-50110000D01*
X40060000Y-48090000D02*
X36300000Y-48090000D01*
%TO.C,SW1*%
X61750000Y-47400000D02*
X57250000Y-47400000D01*
X56000000Y-49900000D02*
X56000000Y-51400000D01*
X63000000Y-51400000D02*
X63000000Y-49900000D01*
X57250000Y-53900000D02*
X61750000Y-53900000D01*
%TO.C,J5*%
X40560000Y-72760000D02*
X40560000Y-71510000D01*
X40260000Y-72460000D02*
X40260000Y-67740000D01*
X40260000Y-71150000D02*
X39650000Y-71150000D01*
X40260000Y-69850000D02*
X39650000Y-69850000D01*
X40260000Y-67740000D02*
X34140000Y-67740000D01*
X39650000Y-71850000D02*
X39650000Y-68350000D01*
X39650000Y-68350000D02*
X34750000Y-68350000D01*
X39310000Y-72760000D02*
X40560000Y-72760000D01*
X38800000Y-72660000D02*
X38800000Y-72460000D01*
X38500000Y-72660000D02*
X38800000Y-72660000D01*
X38500000Y-72560000D02*
X38800000Y-72560000D01*
X38500000Y-72460000D02*
X38500000Y-72660000D01*
X37700000Y-72460000D02*
X37700000Y-71850000D01*
X37700000Y-71850000D02*
X39650000Y-71850000D01*
X37300000Y-68850000D02*
X37100000Y-68850000D01*
X37300000Y-68350000D02*
X37300000Y-68850000D01*
X37200000Y-68350000D02*
X37200000Y-68850000D01*
X37100000Y-68850000D02*
X37100000Y-68350000D01*
X36700000Y-71850000D02*
X36700000Y-72460000D01*
X34750000Y-71850000D02*
X36700000Y-71850000D01*
X34750000Y-68350000D02*
X34750000Y-71850000D01*
X34140000Y-72460000D02*
X40260000Y-72460000D01*
X34140000Y-71150000D02*
X34750000Y-71150000D01*
X34140000Y-69850000D02*
X34750000Y-69850000D01*
X34140000Y-67740000D02*
X34140000Y-72460000D01*
%TO.C,R1*%
X68072936Y-49882354D02*
X68527064Y-49882354D01*
X68072936Y-51352354D02*
X68527064Y-51352354D01*
%TO.C,R16*%
X25827064Y-49746965D02*
X25372936Y-49746965D01*
X25827064Y-51216965D02*
X25372936Y-51216965D01*
%TO.C,J8*%
X34340000Y-42390000D02*
X34340000Y-43640000D01*
X34640000Y-42690000D02*
X34640000Y-47410000D01*
X34640000Y-44000000D02*
X35250000Y-44000000D01*
X34640000Y-45300000D02*
X35250000Y-45300000D01*
X34640000Y-47410000D02*
X40760000Y-47410000D01*
X35250000Y-43300000D02*
X35250000Y-46800000D01*
X35250000Y-46800000D02*
X40150000Y-46800000D01*
X35590000Y-42390000D02*
X34340000Y-42390000D01*
X36100000Y-42490000D02*
X36100000Y-42690000D01*
X36400000Y-42490000D02*
X36100000Y-42490000D01*
X36400000Y-42590000D02*
X36100000Y-42590000D01*
X36400000Y-42690000D02*
X36400000Y-42490000D01*
X37200000Y-42690000D02*
X37200000Y-43300000D01*
X37200000Y-43300000D02*
X35250000Y-43300000D01*
X37600000Y-46300000D02*
X37800000Y-46300000D01*
X37600000Y-46800000D02*
X37600000Y-46300000D01*
X37700000Y-46800000D02*
X37700000Y-46300000D01*
X37800000Y-46300000D02*
X37800000Y-46800000D01*
X38200000Y-43300000D02*
X38200000Y-42690000D01*
X40150000Y-43300000D02*
X38200000Y-43300000D01*
X40150000Y-46800000D02*
X40150000Y-43300000D01*
X40760000Y-42690000D02*
X34640000Y-42690000D01*
X40760000Y-44000000D02*
X40150000Y-44000000D01*
X40760000Y-45300000D02*
X40150000Y-45300000D01*
X40760000Y-47410000D02*
X40760000Y-42690000D01*
%TO.C,J2*%
X76777236Y-48619556D02*
X76777236Y-66739556D01*
X76777236Y-66739556D02*
X81497236Y-66739556D01*
X77387236Y-49229556D02*
X77387236Y-66129556D01*
X77387236Y-51579556D02*
X77887236Y-51579556D01*
X77387236Y-51679556D02*
X77887236Y-51679556D01*
X77387236Y-53579556D02*
X77887236Y-53579556D01*
X77387236Y-53679556D02*
X77887236Y-53679556D01*
X77387236Y-55579556D02*
X77887236Y-55579556D01*
X77387236Y-55679556D02*
X77887236Y-55679556D01*
X77387236Y-57579556D02*
X77887236Y-57579556D01*
X77387236Y-57679556D02*
X77887236Y-57679556D01*
X77387236Y-59579556D02*
X77887236Y-59579556D01*
X77387236Y-59679556D02*
X77887236Y-59679556D01*
X77387236Y-61579556D02*
X77887236Y-61579556D01*
X77387236Y-61679556D02*
X77887236Y-61679556D01*
X77387236Y-63579556D02*
X77887236Y-63579556D01*
X77387236Y-63679556D02*
X77887236Y-63679556D01*
X77387236Y-66129556D02*
X80887236Y-66129556D01*
X77887236Y-51579556D02*
X77887236Y-51779556D01*
X77887236Y-51779556D02*
X77387236Y-51779556D01*
X77887236Y-53579556D02*
X77887236Y-53779556D01*
X77887236Y-53779556D02*
X77387236Y-53779556D01*
X77887236Y-55579556D02*
X77887236Y-55779556D01*
X77887236Y-55779556D02*
X77387236Y-55779556D01*
X77887236Y-57579556D02*
X77887236Y-57779556D01*
X77887236Y-57779556D02*
X77387236Y-57779556D01*
X77887236Y-59579556D02*
X77887236Y-59779556D01*
X77887236Y-59779556D02*
X77387236Y-59779556D01*
X77887236Y-61579556D02*
X77887236Y-61779556D01*
X77887236Y-61779556D02*
X77387236Y-61779556D01*
X77887236Y-63579556D02*
X77887236Y-63779556D01*
X77887236Y-63779556D02*
X77387236Y-63779556D01*
X78887236Y-48619556D02*
X78887236Y-49229556D01*
X78887236Y-66739556D02*
X78887236Y-66129556D01*
X80187236Y-48619556D02*
X80187236Y-49229556D01*
X80187236Y-66739556D02*
X80187236Y-66129556D01*
X80887236Y-49229556D02*
X77387236Y-49229556D01*
X80887236Y-51179556D02*
X80887236Y-49229556D01*
X80887236Y-64179556D02*
X81497236Y-64179556D01*
X80887236Y-66129556D02*
X80887236Y-64179556D01*
X81497236Y-48619556D02*
X76777236Y-48619556D01*
X81497236Y-50379556D02*
X81697236Y-50379556D01*
X81497236Y-51179556D02*
X80887236Y-51179556D01*
X81497236Y-66739556D02*
X81497236Y-48619556D01*
X81597236Y-50379556D02*
X81597236Y-50079556D01*
X81697236Y-50079556D02*
X81497236Y-50079556D01*
X81697236Y-50379556D02*
X81697236Y-50079556D01*
X81797236Y-48319556D02*
X80547236Y-48319556D01*
X81797236Y-49569556D02*
X81797236Y-48319556D01*
%TO.C,J9*%
X12325389Y-65727354D02*
X12325389Y-66977354D01*
X12325389Y-66977354D02*
X13575389Y-66977354D01*
X12425389Y-64917354D02*
X12425389Y-65217354D01*
X12425389Y-65217354D02*
X12625389Y-65217354D01*
X12525389Y-64917354D02*
X12525389Y-65217354D01*
X12625389Y-48557354D02*
X12625389Y-66677354D01*
X12625389Y-64117354D02*
X13235389Y-64117354D01*
X12625389Y-64917354D02*
X12425389Y-64917354D01*
X12625389Y-66677354D02*
X17345389Y-66677354D01*
X13235389Y-49167354D02*
X13235389Y-51117354D01*
X13235389Y-51117354D02*
X12625389Y-51117354D01*
X13235389Y-64117354D02*
X13235389Y-66067354D01*
X13235389Y-66067354D02*
X16735389Y-66067354D01*
X13935389Y-48557354D02*
X13935389Y-49167354D01*
X13935389Y-66677354D02*
X13935389Y-66067354D01*
X15235389Y-48557354D02*
X15235389Y-49167354D01*
X15235389Y-66677354D02*
X15235389Y-66067354D01*
X16235389Y-51517354D02*
X16735389Y-51517354D01*
X16235389Y-51717354D02*
X16235389Y-51517354D01*
X16235389Y-53517354D02*
X16735389Y-53517354D01*
X16235389Y-53717354D02*
X16235389Y-53517354D01*
X16235389Y-55517354D02*
X16735389Y-55517354D01*
X16235389Y-55717354D02*
X16235389Y-55517354D01*
X16235389Y-57517354D02*
X16735389Y-57517354D01*
X16235389Y-57717354D02*
X16235389Y-57517354D01*
X16235389Y-59517354D02*
X16735389Y-59517354D01*
X16235389Y-59717354D02*
X16235389Y-59517354D01*
X16235389Y-61517354D02*
X16735389Y-61517354D01*
X16235389Y-61717354D02*
X16235389Y-61517354D01*
X16235389Y-63517354D02*
X16735389Y-63517354D01*
X16235389Y-63717354D02*
X16235389Y-63517354D01*
X16735389Y-49167354D02*
X13235389Y-49167354D01*
X16735389Y-51617354D02*
X16235389Y-51617354D01*
X16735389Y-51717354D02*
X16235389Y-51717354D01*
X16735389Y-53617354D02*
X16235389Y-53617354D01*
X16735389Y-53717354D02*
X16235389Y-53717354D01*
X16735389Y-55617354D02*
X16235389Y-55617354D01*
X16735389Y-55717354D02*
X16235389Y-55717354D01*
X16735389Y-57617354D02*
X16235389Y-57617354D01*
X16735389Y-57717354D02*
X16235389Y-57717354D01*
X16735389Y-59617354D02*
X16235389Y-59617354D01*
X16735389Y-59717354D02*
X16235389Y-59717354D01*
X16735389Y-61617354D02*
X16235389Y-61617354D01*
X16735389Y-61717354D02*
X16235389Y-61717354D01*
X16735389Y-63617354D02*
X16235389Y-63617354D01*
X16735389Y-63717354D02*
X16235389Y-63717354D01*
X16735389Y-66067354D02*
X16735389Y-49167354D01*
X17345389Y-48557354D02*
X12625389Y-48557354D01*
X17345389Y-66677354D02*
X17345389Y-48557354D01*
%TO.C,R17*%
X52827064Y-49965000D02*
X52372936Y-49965000D01*
X52827064Y-51435000D02*
X52372936Y-51435000D01*
%TO.C,Q2*%
X73577500Y-55157354D02*
X75097500Y-55157354D01*
X73577500Y-55207354D02*
X73577500Y-55157354D01*
X73577500Y-57107354D02*
X73577500Y-56327354D01*
X73577500Y-58277354D02*
X73577500Y-58227354D01*
X75097500Y-55157354D02*
X75097500Y-56157354D01*
X75097500Y-57277354D02*
X75097500Y-58277354D01*
X75097500Y-58277354D02*
X73577500Y-58277354D01*
X73277500Y-56667354D02*
X72797500Y-56667354D01*
X73037500Y-56337354D01*
X73277500Y-56667354D01*
G36*
X73277500Y-56667354D02*
G01*
X72797500Y-56667354D01*
X73037500Y-56337354D01*
X73277500Y-56667354D01*
G37*
%TO.C,Q8*%
X19014087Y-49121965D02*
X20534087Y-49121965D01*
X19014087Y-50121965D02*
X19014087Y-49121965D01*
X19014087Y-52241965D02*
X19014087Y-51241965D01*
X20534087Y-49121965D02*
X20534087Y-49171965D01*
X20534087Y-50291965D02*
X20534087Y-51071965D01*
X20534087Y-52191965D02*
X20534087Y-52241965D01*
X20534087Y-52241965D02*
X19014087Y-52241965D01*
X21074087Y-51061965D02*
X20834087Y-50731965D01*
X21314087Y-50731965D01*
X21074087Y-51061965D01*
G36*
X21074087Y-51061965D02*
G01*
X20834087Y-50731965D01*
X21314087Y-50731965D01*
X21074087Y-51061965D01*
G37*
%TO.C,Q1*%
X73577500Y-51157354D02*
X75097500Y-51157354D01*
X73577500Y-51207354D02*
X73577500Y-51157354D01*
X73577500Y-53107354D02*
X73577500Y-52327354D01*
X73577500Y-54277354D02*
X73577500Y-54227354D01*
X75097500Y-51157354D02*
X75097500Y-52157354D01*
X75097500Y-53277354D02*
X75097500Y-54277354D01*
X75097500Y-54277354D02*
X73577500Y-54277354D01*
X73277500Y-52667354D02*
X72797500Y-52667354D01*
X73037500Y-52337354D01*
X73277500Y-52667354D01*
G36*
X73277500Y-52667354D02*
G01*
X72797500Y-52667354D01*
X73037500Y-52337354D01*
X73277500Y-52667354D01*
G37*
%TO.C,R4*%
X68072936Y-61921529D02*
X68527064Y-61921529D01*
X68072936Y-63391529D02*
X68527064Y-63391529D01*
D16*
%TO.C,U2*%
X56823000Y-61608502D02*
X60077000Y-61608502D01*
X60077000Y-56354502D02*
X56823000Y-56354502D01*
D14*
G36*
X56204000Y-58772003D02*
G01*
X55950000Y-58772003D01*
X55950000Y-58391003D01*
X56204000Y-58391003D01*
X56204000Y-58772003D01*
G37*
D15*
%TO.C,Q4*%
X73577500Y-63157354D02*
X75097500Y-63157354D01*
X73577500Y-63207354D02*
X73577500Y-63157354D01*
X73577500Y-65107354D02*
X73577500Y-64327354D01*
X73577500Y-66277354D02*
X73577500Y-66227354D01*
X75097500Y-63157354D02*
X75097500Y-64157354D01*
X75097500Y-65277354D02*
X75097500Y-66277354D01*
X75097500Y-66277354D02*
X73577500Y-66277354D01*
X73277500Y-64667354D02*
X72797500Y-64667354D01*
X73037500Y-64337354D01*
X73277500Y-64667354D01*
G36*
X73277500Y-64667354D02*
G01*
X72797500Y-64667354D01*
X73037500Y-64337354D01*
X73277500Y-64667354D01*
G37*
%TO.C,C5*%
X46565000Y-64756102D02*
X46565000Y-65278606D01*
X48035000Y-64756102D02*
X48035000Y-65278606D01*
%TO.C,Q5*%
X19014087Y-61121965D02*
X20534087Y-61121965D01*
X19014087Y-62121965D02*
X19014087Y-61121965D01*
X19014087Y-64241965D02*
X19014087Y-63241965D01*
X20534087Y-61121965D02*
X20534087Y-61171965D01*
X20534087Y-62291965D02*
X20534087Y-63071965D01*
X20534087Y-64191965D02*
X20534087Y-64241965D01*
X20534087Y-64241965D02*
X19014087Y-64241965D01*
X21074087Y-63061965D02*
X20834087Y-62731965D01*
X21314087Y-62731965D01*
X21074087Y-63061965D01*
G36*
X21074087Y-63061965D02*
G01*
X20834087Y-62731965D01*
X21314087Y-62731965D01*
X21074087Y-63061965D01*
G37*
%TO.C,R2*%
X68072936Y-53895412D02*
X68527064Y-53895412D01*
X68072936Y-55365412D02*
X68527064Y-55365412D01*
%TO.C,R13*%
X25827064Y-61946965D02*
X25372936Y-61946965D01*
X25827064Y-63416965D02*
X25372936Y-63416965D01*
%TO.C,Q6*%
X19014087Y-57121965D02*
X20534087Y-57121965D01*
X19014087Y-58121965D02*
X19014087Y-57121965D01*
X19014087Y-60241965D02*
X19014087Y-59241965D01*
X20534087Y-57121965D02*
X20534087Y-57171965D01*
X20534087Y-58291965D02*
X20534087Y-59071965D01*
X20534087Y-60191965D02*
X20534087Y-60241965D01*
X20534087Y-60241965D02*
X19014087Y-60241965D01*
X21074087Y-59061965D02*
X20834087Y-58731965D01*
X21314087Y-58731965D01*
X21074087Y-59061965D01*
G36*
X21074087Y-59061965D02*
G01*
X20834087Y-58731965D01*
X21314087Y-58731965D01*
X21074087Y-59061965D01*
G37*
%TO.C,R7*%
X68072936Y-59915000D02*
X68527064Y-59915000D01*
X68072936Y-61385000D02*
X68527064Y-61385000D01*
%TO.C,R10*%
X25827064Y-59946965D02*
X25372936Y-59946965D01*
X25827064Y-61416965D02*
X25372936Y-61416965D01*
%TO.C,C11*%
X37961252Y-53008864D02*
X37438748Y-53008864D01*
X37961252Y-54478864D02*
X37438748Y-54478864D01*
%TO.C,Q3*%
X73577500Y-59157354D02*
X75097500Y-59157354D01*
X73577500Y-59207354D02*
X73577500Y-59157354D01*
X73577500Y-61107354D02*
X73577500Y-60327354D01*
X73577500Y-62277354D02*
X73577500Y-62227354D01*
X75097500Y-59157354D02*
X75097500Y-60157354D01*
X75097500Y-61277354D02*
X75097500Y-62277354D01*
X75097500Y-62277354D02*
X73577500Y-62277354D01*
X73277500Y-60667354D02*
X72797500Y-60667354D01*
X73037500Y-60337354D01*
X73277500Y-60667354D01*
G36*
X73277500Y-60667354D02*
G01*
X72797500Y-60667354D01*
X73037500Y-60337354D01*
X73277500Y-60667354D01*
G37*
%TO.C,R9*%
X25827064Y-63946965D02*
X25372936Y-63946965D01*
X25827064Y-65416965D02*
X25372936Y-65416965D01*
%TO.C,R8*%
X68086957Y-63928058D02*
X68541085Y-63928058D01*
X68086957Y-65398058D02*
X68541085Y-65398058D01*
%TO.C,U1*%
X43490000Y-54107354D02*
X43765000Y-54107354D01*
X43490000Y-54382354D02*
X43490000Y-54107354D01*
X43490000Y-61327354D02*
X43490000Y-61052354D01*
X43765000Y-61327354D02*
X43490000Y-61327354D01*
X50435000Y-54107354D02*
X50710000Y-54107354D01*
X50710000Y-54107354D02*
X50710000Y-54382354D01*
X50710000Y-61052354D02*
X50710000Y-61327354D01*
X50710000Y-61327354D02*
X50435000Y-61327354D01*
X50910000Y-53807354D02*
X50440000Y-53467354D01*
X50910000Y-53127354D01*
X50910000Y-53807354D01*
G36*
X50910000Y-53807354D02*
G01*
X50440000Y-53467354D01*
X50910000Y-53127354D01*
X50910000Y-53807354D01*
G37*
%TO.C,R3*%
X68072936Y-57908471D02*
X68527064Y-57908471D01*
X68072936Y-59378471D02*
X68527064Y-59378471D01*
%TO.C,C1*%
X47438748Y-50465000D02*
X47961252Y-50465000D01*
X47438748Y-51935000D02*
X47961252Y-51935000D01*
%TO.C,R14*%
X25827064Y-57946965D02*
X25372936Y-57946965D01*
X25827064Y-59416965D02*
X25372936Y-59416965D01*
%TO.C,C12*%
X37961252Y-50965000D02*
X37438748Y-50965000D01*
X37961252Y-52435000D02*
X37438748Y-52435000D01*
%TO.C,R6*%
X68072936Y-55901941D02*
X68527064Y-55901941D01*
X68072936Y-57371941D02*
X68527064Y-57371941D01*
%TO.C,Q7*%
X19014087Y-53021965D02*
X20534087Y-53021965D01*
X19014087Y-54021965D02*
X19014087Y-53021965D01*
X19014087Y-56141965D02*
X19014087Y-55141965D01*
X20534087Y-53021965D02*
X20534087Y-53071965D01*
X20534087Y-54191965D02*
X20534087Y-54971965D01*
X20534087Y-56091965D02*
X20534087Y-56141965D01*
X20534087Y-56141965D02*
X19014087Y-56141965D01*
X21074087Y-54961965D02*
X20834087Y-54631965D01*
X21314087Y-54631965D01*
X21074087Y-54961965D01*
G36*
X21074087Y-54961965D02*
G01*
X20834087Y-54631965D01*
X21314087Y-54631965D01*
X21074087Y-54961965D01*
G37*
%TO.C,R12*%
X25827064Y-51846965D02*
X25372936Y-51846965D01*
X25827064Y-53316965D02*
X25372936Y-53316965D01*
%TO.C,C2*%
X44565000Y-64756102D02*
X44565000Y-65278606D01*
X46035000Y-64756102D02*
X46035000Y-65278606D01*
%TO.C,R11*%
X25827064Y-55946965D02*
X25372936Y-55946965D01*
X25827064Y-57416965D02*
X25372936Y-57416965D01*
%TO.C,R5*%
X68072936Y-51888883D02*
X68527064Y-51888883D01*
X68072936Y-53358883D02*
X68527064Y-53358883D01*
D17*
%TO.C,D2*%
X53450000Y-89300000D02*
G75*
G02*
X53350000Y-89300000I-50000J0D01*
G01*
X53450000Y-89300000D02*
G75*
G02*
X53350000Y-89300000I-50000J0D01*
G01*
X53350000Y-89300000D02*
G75*
G02*
X53450000Y-89300000I50000J0D01*
G01*
X53450000Y-89300000D02*
X53450000Y-89300000D01*
X53350000Y-89300000D02*
X53350000Y-89300000D01*
X53350000Y-89300000D02*
X53350000Y-89300000D01*
%TO.C,D3*%
X35075000Y-89300000D02*
G75*
G02*
X34975000Y-89300000I-50000J0D01*
G01*
X35075000Y-89300000D02*
G75*
G02*
X34975000Y-89300000I-50000J0D01*
G01*
X34975000Y-89300000D02*
G75*
G02*
X35075000Y-89300000I50000J0D01*
G01*
X35075000Y-89300000D02*
X35075000Y-89300000D01*
X34975000Y-89300000D02*
X34975000Y-89300000D01*
X34975000Y-89300000D02*
X34975000Y-89300000D01*
%TO.C,D1*%
X71825000Y-89300000D02*
G75*
G02*
X71725000Y-89300000I-50000J0D01*
G01*
X71825000Y-89300000D02*
G75*
G02*
X71725000Y-89300000I-50000J0D01*
G01*
X71725000Y-89300000D02*
G75*
G02*
X71825000Y-89300000I50000J0D01*
G01*
X71825000Y-89300000D02*
X71825000Y-89300000D01*
X71725000Y-89300000D02*
X71725000Y-89300000D01*
X71725000Y-89300000D02*
X71725000Y-89300000D01*
%TO.C,D4*%
X16700000Y-89300000D02*
G75*
G02*
X16600000Y-89300000I-50000J0D01*
G01*
X16700000Y-89300000D02*
G75*
G02*
X16600000Y-89300000I-50000J0D01*
G01*
X16600000Y-89300000D02*
G75*
G02*
X16700000Y-89300000I50000J0D01*
G01*
X16700000Y-89300000D02*
X16700000Y-89300000D01*
X16600000Y-89300000D02*
X16600000Y-89300000D01*
X16600000Y-89300000D02*
X16600000Y-89300000D01*
%TO.C,D5*%
X71725000Y-26200000D02*
X71725000Y-26200000D01*
X71725000Y-26200000D02*
X71725000Y-26200000D01*
X71825000Y-26200000D02*
X71825000Y-26200000D01*
X71725000Y-26200000D02*
G75*
G02*
X71825000Y-26200000I50000J0D01*
G01*
X71825000Y-26200000D02*
G75*
G02*
X71725000Y-26200000I-50000J0D01*
G01*
X71825000Y-26200000D02*
G75*
G02*
X71725000Y-26200000I-50000J0D01*
G01*
%TO.C,D6*%
X53350000Y-26200000D02*
X53350000Y-26200000D01*
X53350000Y-26200000D02*
X53350000Y-26200000D01*
X53450000Y-26200000D02*
X53450000Y-26200000D01*
X53350000Y-26200000D02*
G75*
G02*
X53450000Y-26200000I50000J0D01*
G01*
X53450000Y-26200000D02*
G75*
G02*
X53350000Y-26200000I-50000J0D01*
G01*
X53450000Y-26200000D02*
G75*
G02*
X53350000Y-26200000I-50000J0D01*
G01*
%TO.C,D7*%
X34975000Y-26200000D02*
X34975000Y-26200000D01*
X34975000Y-26200000D02*
X34975000Y-26200000D01*
X35075000Y-26200000D02*
X35075000Y-26200000D01*
X34975000Y-26200000D02*
G75*
G02*
X35075000Y-26200000I50000J0D01*
G01*
X35075000Y-26200000D02*
G75*
G02*
X34975000Y-26200000I-50000J0D01*
G01*
X35075000Y-26200000D02*
G75*
G02*
X34975000Y-26200000I-50000J0D01*
G01*
%TO.C,D8*%
X16600000Y-26200000D02*
X16600000Y-26200000D01*
X16600000Y-26200000D02*
X16600000Y-26200000D01*
X16700000Y-26200000D02*
X16700000Y-26200000D01*
X16600000Y-26200000D02*
G75*
G02*
X16700000Y-26200000I50000J0D01*
G01*
X16700000Y-26200000D02*
G75*
G02*
X16600000Y-26200000I-50000J0D01*
G01*
X16700000Y-26200000D02*
G75*
G02*
X16600000Y-26200000I-50000J0D01*
G01*
%TD*%
M02*
