%TF.GenerationSoftware,KiCad,Pcbnew,9.0.4*%
%TF.CreationDate,2025-11-01T22:13:15-04:00*%
%TF.ProjectId,power_distribution,706f7765-725f-4646-9973-747269627574,v1*%
%TF.SameCoordinates,Original*%
%TF.FileFunction,Legend,Top*%
%TF.FilePolarity,Positive*%
%FSLAX46Y46*%
G04 Gerber Fmt 4.6, Leading zero omitted, Abs format (unit mm)*
G04 Created by KiCad (PCBNEW 9.0.4) date 2025-11-01 22:13:15*
%MOMM*%
%LPD*%
G01*
G04 APERTURE LIST*
%ADD10C,0.150000*%
%ADD11C,0.200000*%
%ADD12C,0.120000*%
%ADD13C,0.000000*%
%ADD14C,0.152400*%
%ADD15C,0.250000*%
%ADD16C,0.127000*%
G04 APERTURE END LIST*
D10*
X46609523Y-30693628D02*
X46561904Y-30646009D01*
X46561904Y-30646009D02*
X46466666Y-30598390D01*
X46466666Y-30598390D02*
X46371428Y-30598390D01*
X46371428Y-30598390D02*
X46276190Y-30646009D01*
X46276190Y-30646009D02*
X46228571Y-30693628D01*
X46228571Y-30693628D02*
X46180952Y-30788866D01*
X46180952Y-30788866D02*
X46180952Y-30884104D01*
X46180952Y-30884104D02*
X46228571Y-30979342D01*
X46228571Y-30979342D02*
X46276190Y-31026961D01*
X46276190Y-31026961D02*
X46371428Y-31074580D01*
X46371428Y-31074580D02*
X46466666Y-31074580D01*
X46466666Y-31074580D02*
X46561904Y-31026961D01*
X46561904Y-31026961D02*
X46609523Y-30979342D01*
X46609523Y-30598390D02*
X46609523Y-30979342D01*
X46609523Y-30979342D02*
X46657142Y-31026961D01*
X46657142Y-31026961D02*
X46704761Y-31026961D01*
X46704761Y-31026961D02*
X46800000Y-30979342D01*
X46800000Y-30979342D02*
X46847619Y-30884104D01*
X46847619Y-30884104D02*
X46847619Y-30646009D01*
X46847619Y-30646009D02*
X46752381Y-30503152D01*
X46752381Y-30503152D02*
X46609523Y-30407914D01*
X46609523Y-30407914D02*
X46419047Y-30360295D01*
X46419047Y-30360295D02*
X46228571Y-30407914D01*
X46228571Y-30407914D02*
X46085714Y-30503152D01*
X46085714Y-30503152D02*
X45990476Y-30646009D01*
X45990476Y-30646009D02*
X45942857Y-30836485D01*
X45942857Y-30836485D02*
X45990476Y-31026961D01*
X45990476Y-31026961D02*
X46085714Y-31169819D01*
X46085714Y-31169819D02*
X46228571Y-31265057D01*
X46228571Y-31265057D02*
X46419047Y-31312676D01*
X46419047Y-31312676D02*
X46609523Y-31265057D01*
X46609523Y-31265057D02*
X46752381Y-31169819D01*
X47419047Y-31169819D02*
X47323809Y-31122200D01*
X47323809Y-31122200D02*
X47276190Y-31026961D01*
X47276190Y-31026961D02*
X47276190Y-30169819D01*
X48180952Y-31122200D02*
X48085714Y-31169819D01*
X48085714Y-31169819D02*
X47895238Y-31169819D01*
X47895238Y-31169819D02*
X47800000Y-31122200D01*
X47800000Y-31122200D02*
X47752381Y-31026961D01*
X47752381Y-31026961D02*
X47752381Y-30646009D01*
X47752381Y-30646009D02*
X47800000Y-30550771D01*
X47800000Y-30550771D02*
X47895238Y-30503152D01*
X47895238Y-30503152D02*
X48085714Y-30503152D01*
X48085714Y-30503152D02*
X48180952Y-30550771D01*
X48180952Y-30550771D02*
X48228571Y-30646009D01*
X48228571Y-30646009D02*
X48228571Y-30741247D01*
X48228571Y-30741247D02*
X47752381Y-30836485D01*
X48800000Y-31169819D02*
X48704762Y-31122200D01*
X48704762Y-31122200D02*
X48657143Y-31074580D01*
X48657143Y-31074580D02*
X48609524Y-30979342D01*
X48609524Y-30979342D02*
X48609524Y-30693628D01*
X48609524Y-30693628D02*
X48657143Y-30598390D01*
X48657143Y-30598390D02*
X48704762Y-30550771D01*
X48704762Y-30550771D02*
X48800000Y-30503152D01*
X48800000Y-30503152D02*
X48942857Y-30503152D01*
X48942857Y-30503152D02*
X49038095Y-30550771D01*
X49038095Y-30550771D02*
X49085714Y-30598390D01*
X49085714Y-30598390D02*
X49133333Y-30693628D01*
X49133333Y-30693628D02*
X49133333Y-30979342D01*
X49133333Y-30979342D02*
X49085714Y-31074580D01*
X49085714Y-31074580D02*
X49038095Y-31122200D01*
X49038095Y-31122200D02*
X48942857Y-31169819D01*
X48942857Y-31169819D02*
X48800000Y-31169819D01*
X49990476Y-30503152D02*
X49990476Y-31312676D01*
X49990476Y-31312676D02*
X49942857Y-31407914D01*
X49942857Y-31407914D02*
X49895238Y-31455533D01*
X49895238Y-31455533D02*
X49800000Y-31503152D01*
X49800000Y-31503152D02*
X49657143Y-31503152D01*
X49657143Y-31503152D02*
X49561905Y-31455533D01*
X49990476Y-31122200D02*
X49895238Y-31169819D01*
X49895238Y-31169819D02*
X49704762Y-31169819D01*
X49704762Y-31169819D02*
X49609524Y-31122200D01*
X49609524Y-31122200D02*
X49561905Y-31074580D01*
X49561905Y-31074580D02*
X49514286Y-30979342D01*
X49514286Y-30979342D02*
X49514286Y-30693628D01*
X49514286Y-30693628D02*
X49561905Y-30598390D01*
X49561905Y-30598390D02*
X49609524Y-30550771D01*
X49609524Y-30550771D02*
X49704762Y-30503152D01*
X49704762Y-30503152D02*
X49895238Y-30503152D01*
X49895238Y-30503152D02*
X49990476Y-30550771D01*
X50466667Y-31169819D02*
X50466667Y-30503152D01*
X50466667Y-30598390D02*
X50514286Y-30550771D01*
X50514286Y-30550771D02*
X50609524Y-30503152D01*
X50609524Y-30503152D02*
X50752381Y-30503152D01*
X50752381Y-30503152D02*
X50847619Y-30550771D01*
X50847619Y-30550771D02*
X50895238Y-30646009D01*
X50895238Y-30646009D02*
X50895238Y-31169819D01*
X50895238Y-30646009D02*
X50942857Y-30550771D01*
X50942857Y-30550771D02*
X51038095Y-30503152D01*
X51038095Y-30503152D02*
X51180952Y-30503152D01*
X51180952Y-30503152D02*
X51276191Y-30550771D01*
X51276191Y-30550771D02*
X51323810Y-30646009D01*
X51323810Y-30646009D02*
X51323810Y-31169819D01*
X52180952Y-31122200D02*
X52085714Y-31169819D01*
X52085714Y-31169819D02*
X51895238Y-31169819D01*
X51895238Y-31169819D02*
X51800000Y-31122200D01*
X51800000Y-31122200D02*
X51752381Y-31026961D01*
X51752381Y-31026961D02*
X51752381Y-30646009D01*
X51752381Y-30646009D02*
X51800000Y-30550771D01*
X51800000Y-30550771D02*
X51895238Y-30503152D01*
X51895238Y-30503152D02*
X52085714Y-30503152D01*
X52085714Y-30503152D02*
X52180952Y-30550771D01*
X52180952Y-30550771D02*
X52228571Y-30646009D01*
X52228571Y-30646009D02*
X52228571Y-30741247D01*
X52228571Y-30741247D02*
X51752381Y-30836485D01*
X52657143Y-30503152D02*
X52657143Y-31169819D01*
X52657143Y-30598390D02*
X52704762Y-30550771D01*
X52704762Y-30550771D02*
X52800000Y-30503152D01*
X52800000Y-30503152D02*
X52942857Y-30503152D01*
X52942857Y-30503152D02*
X53038095Y-30550771D01*
X53038095Y-30550771D02*
X53085714Y-30646009D01*
X53085714Y-30646009D02*
X53085714Y-31169819D01*
X53990476Y-31169819D02*
X53990476Y-30169819D01*
X53990476Y-31122200D02*
X53895238Y-31169819D01*
X53895238Y-31169819D02*
X53704762Y-31169819D01*
X53704762Y-31169819D02*
X53609524Y-31122200D01*
X53609524Y-31122200D02*
X53561905Y-31074580D01*
X53561905Y-31074580D02*
X53514286Y-30979342D01*
X53514286Y-30979342D02*
X53514286Y-30693628D01*
X53514286Y-30693628D02*
X53561905Y-30598390D01*
X53561905Y-30598390D02*
X53609524Y-30550771D01*
X53609524Y-30550771D02*
X53704762Y-30503152D01*
X53704762Y-30503152D02*
X53895238Y-30503152D01*
X53895238Y-30503152D02*
X53990476Y-30550771D01*
X54609524Y-31169819D02*
X54514286Y-31122200D01*
X54514286Y-31122200D02*
X54466667Y-31074580D01*
X54466667Y-31074580D02*
X54419048Y-30979342D01*
X54419048Y-30979342D02*
X54419048Y-30693628D01*
X54419048Y-30693628D02*
X54466667Y-30598390D01*
X54466667Y-30598390D02*
X54514286Y-30550771D01*
X54514286Y-30550771D02*
X54609524Y-30503152D01*
X54609524Y-30503152D02*
X54752381Y-30503152D01*
X54752381Y-30503152D02*
X54847619Y-30550771D01*
X54847619Y-30550771D02*
X54895238Y-30598390D01*
X54895238Y-30598390D02*
X54942857Y-30693628D01*
X54942857Y-30693628D02*
X54942857Y-30979342D01*
X54942857Y-30979342D02*
X54895238Y-31074580D01*
X54895238Y-31074580D02*
X54847619Y-31122200D01*
X54847619Y-31122200D02*
X54752381Y-31169819D01*
X54752381Y-31169819D02*
X54609524Y-31169819D01*
X55276191Y-30503152D02*
X55800000Y-30503152D01*
X55800000Y-30503152D02*
X55276191Y-31169819D01*
X55276191Y-31169819D02*
X55800000Y-31169819D01*
X56609524Y-31169819D02*
X56609524Y-30646009D01*
X56609524Y-30646009D02*
X56561905Y-30550771D01*
X56561905Y-30550771D02*
X56466667Y-30503152D01*
X56466667Y-30503152D02*
X56276191Y-30503152D01*
X56276191Y-30503152D02*
X56180953Y-30550771D01*
X56609524Y-31122200D02*
X56514286Y-31169819D01*
X56514286Y-31169819D02*
X56276191Y-31169819D01*
X56276191Y-31169819D02*
X56180953Y-31122200D01*
X56180953Y-31122200D02*
X56133334Y-31026961D01*
X56133334Y-31026961D02*
X56133334Y-30931723D01*
X56133334Y-30931723D02*
X56180953Y-30836485D01*
X56180953Y-30836485D02*
X56276191Y-30788866D01*
X56276191Y-30788866D02*
X56514286Y-30788866D01*
X56514286Y-30788866D02*
X56609524Y-30741247D01*
D11*
X25567219Y-43454136D02*
X26567219Y-43245802D01*
X26567219Y-43245802D02*
X25567219Y-42787469D01*
X26043409Y-42180326D02*
X26091028Y-42043421D01*
X26091028Y-42043421D02*
X26138647Y-42001755D01*
X26138647Y-42001755D02*
X26233885Y-41966040D01*
X26233885Y-41966040D02*
X26376742Y-41983898D01*
X26376742Y-41983898D02*
X26471980Y-42043421D01*
X26471980Y-42043421D02*
X26519600Y-42096993D01*
X26519600Y-42096993D02*
X26567219Y-42198183D01*
X26567219Y-42198183D02*
X26567219Y-42579136D01*
X26567219Y-42579136D02*
X25567219Y-42454136D01*
X25567219Y-42454136D02*
X25567219Y-42120802D01*
X25567219Y-42120802D02*
X25614838Y-42031517D01*
X25614838Y-42031517D02*
X25662457Y-41989850D01*
X25662457Y-41989850D02*
X25757695Y-41954136D01*
X25757695Y-41954136D02*
X25852933Y-41966040D01*
X25852933Y-41966040D02*
X25948171Y-42025564D01*
X25948171Y-42025564D02*
X25995790Y-42079136D01*
X25995790Y-42079136D02*
X26043409Y-42180326D01*
X26043409Y-42180326D02*
X26043409Y-42513659D01*
X26281504Y-41591040D02*
X26281504Y-41114850D01*
X26567219Y-41721993D02*
X25567219Y-41263659D01*
X25567219Y-41263659D02*
X26567219Y-41055326D01*
X25567219Y-40739850D02*
X25567219Y-40168421D01*
X26567219Y-40579136D02*
X25567219Y-40454136D01*
X82929719Y-15347588D02*
X82929719Y-15823779D01*
X82929719Y-15823779D02*
X83405909Y-15930922D01*
X83405909Y-15930922D02*
X83358290Y-15877350D01*
X83358290Y-15877350D02*
X83310671Y-15776160D01*
X83310671Y-15776160D02*
X83310671Y-15538064D01*
X83310671Y-15538064D02*
X83358290Y-15448779D01*
X83358290Y-15448779D02*
X83405909Y-15407112D01*
X83405909Y-15407112D02*
X83501147Y-15371398D01*
X83501147Y-15371398D02*
X83739242Y-15401160D01*
X83739242Y-15401160D02*
X83834480Y-15460683D01*
X83834480Y-15460683D02*
X83882100Y-15514255D01*
X83882100Y-15514255D02*
X83929719Y-15615445D01*
X83929719Y-15615445D02*
X83929719Y-15853541D01*
X83929719Y-15853541D02*
X83882100Y-15942826D01*
X83882100Y-15942826D02*
X83834480Y-15984493D01*
X82929719Y-15014255D02*
X83929719Y-14805921D01*
X83929719Y-14805921D02*
X82929719Y-14347588D01*
X99829719Y-16719017D02*
X99829719Y-16099969D01*
X99829719Y-16099969D02*
X100210671Y-16480922D01*
X100210671Y-16480922D02*
X100210671Y-16338064D01*
X100210671Y-16338064D02*
X100258290Y-16248779D01*
X100258290Y-16248779D02*
X100305909Y-16207112D01*
X100305909Y-16207112D02*
X100401147Y-16171398D01*
X100401147Y-16171398D02*
X100639242Y-16201160D01*
X100639242Y-16201160D02*
X100734480Y-16260683D01*
X100734480Y-16260683D02*
X100782100Y-16314255D01*
X100782100Y-16314255D02*
X100829719Y-16415445D01*
X100829719Y-16415445D02*
X100829719Y-16701160D01*
X100829719Y-16701160D02*
X100782100Y-16790445D01*
X100782100Y-16790445D02*
X100734480Y-16832112D01*
X99829719Y-15814255D02*
X100829719Y-15605921D01*
X100829719Y-15605921D02*
X99829719Y-15147588D01*
X99829719Y-14909493D02*
X99829719Y-14290445D01*
X99829719Y-14290445D02*
X100210671Y-14671398D01*
X100210671Y-14671398D02*
X100210671Y-14528540D01*
X100210671Y-14528540D02*
X100258290Y-14439255D01*
X100258290Y-14439255D02*
X100305909Y-14397588D01*
X100305909Y-14397588D02*
X100401147Y-14361874D01*
X100401147Y-14361874D02*
X100639242Y-14391636D01*
X100639242Y-14391636D02*
X100734480Y-14451159D01*
X100734480Y-14451159D02*
X100782100Y-14504731D01*
X100782100Y-14504731D02*
X100829719Y-14605921D01*
X100829719Y-14605921D02*
X100829719Y-14891636D01*
X100829719Y-14891636D02*
X100782100Y-14980921D01*
X100782100Y-14980921D02*
X100734480Y-15022588D01*
X69929719Y-16424969D02*
X69929719Y-16996398D01*
X69929719Y-16710683D02*
X68929719Y-16585683D01*
X68929719Y-16585683D02*
X69072576Y-16698779D01*
X69072576Y-16698779D02*
X69167814Y-16805922D01*
X69167814Y-16805922D02*
X69215433Y-16907112D01*
X69024957Y-15930921D02*
X68977338Y-15877350D01*
X68977338Y-15877350D02*
X68929719Y-15776160D01*
X68929719Y-15776160D02*
X68929719Y-15538064D01*
X68929719Y-15538064D02*
X68977338Y-15448779D01*
X68977338Y-15448779D02*
X69024957Y-15407112D01*
X69024957Y-15407112D02*
X69120195Y-15371398D01*
X69120195Y-15371398D02*
X69215433Y-15383302D01*
X69215433Y-15383302D02*
X69358290Y-15448779D01*
X69358290Y-15448779D02*
X69929719Y-16091636D01*
X69929719Y-16091636D02*
X69929719Y-15472588D01*
X68929719Y-15061874D02*
X69929719Y-14853540D01*
X69929719Y-14853540D02*
X68929719Y-14395207D01*
D10*
X86939800Y-24217319D02*
X86939800Y-24455414D01*
X86701705Y-24360176D02*
X86939800Y-24455414D01*
X86939800Y-24455414D02*
X87177895Y-24360176D01*
X86796943Y-24645890D02*
X86939800Y-24455414D01*
X86939800Y-24455414D02*
X87082657Y-24645890D01*
X50057142Y-40431009D02*
X49723809Y-40431009D01*
X49723809Y-40954819D02*
X49723809Y-39954819D01*
X49723809Y-39954819D02*
X50199999Y-39954819D01*
X50914285Y-40431009D02*
X51057142Y-40478628D01*
X51057142Y-40478628D02*
X51104761Y-40526247D01*
X51104761Y-40526247D02*
X51152380Y-40621485D01*
X51152380Y-40621485D02*
X51152380Y-40764342D01*
X51152380Y-40764342D02*
X51104761Y-40859580D01*
X51104761Y-40859580D02*
X51057142Y-40907200D01*
X51057142Y-40907200D02*
X50961904Y-40954819D01*
X50961904Y-40954819D02*
X50580952Y-40954819D01*
X50580952Y-40954819D02*
X50580952Y-39954819D01*
X50580952Y-39954819D02*
X50914285Y-39954819D01*
X50914285Y-39954819D02*
X51009523Y-40002438D01*
X51009523Y-40002438D02*
X51057142Y-40050057D01*
X51057142Y-40050057D02*
X51104761Y-40145295D01*
X51104761Y-40145295D02*
X51104761Y-40240533D01*
X51104761Y-40240533D02*
X51057142Y-40335771D01*
X51057142Y-40335771D02*
X51009523Y-40383390D01*
X51009523Y-40383390D02*
X50914285Y-40431009D01*
X50914285Y-40431009D02*
X50580952Y-40431009D01*
X51342857Y-41050057D02*
X52104761Y-41050057D01*
X52819047Y-39954819D02*
X52342857Y-39954819D01*
X52342857Y-39954819D02*
X52295238Y-40431009D01*
X52295238Y-40431009D02*
X52342857Y-40383390D01*
X52342857Y-40383390D02*
X52438095Y-40335771D01*
X52438095Y-40335771D02*
X52676190Y-40335771D01*
X52676190Y-40335771D02*
X52771428Y-40383390D01*
X52771428Y-40383390D02*
X52819047Y-40431009D01*
X52819047Y-40431009D02*
X52866666Y-40526247D01*
X52866666Y-40526247D02*
X52866666Y-40764342D01*
X52866666Y-40764342D02*
X52819047Y-40859580D01*
X52819047Y-40859580D02*
X52771428Y-40907200D01*
X52771428Y-40907200D02*
X52676190Y-40954819D01*
X52676190Y-40954819D02*
X52438095Y-40954819D01*
X52438095Y-40954819D02*
X52342857Y-40907200D01*
X52342857Y-40907200D02*
X52295238Y-40859580D01*
X53152381Y-39954819D02*
X53485714Y-40954819D01*
X53485714Y-40954819D02*
X53819047Y-39954819D01*
X14259415Y-35602438D02*
X14164177Y-35554819D01*
X14164177Y-35554819D02*
X14021320Y-35554819D01*
X14021320Y-35554819D02*
X13878463Y-35602438D01*
X13878463Y-35602438D02*
X13783225Y-35697676D01*
X13783225Y-35697676D02*
X13735606Y-35792914D01*
X13735606Y-35792914D02*
X13687987Y-35983390D01*
X13687987Y-35983390D02*
X13687987Y-36126247D01*
X13687987Y-36126247D02*
X13735606Y-36316723D01*
X13735606Y-36316723D02*
X13783225Y-36411961D01*
X13783225Y-36411961D02*
X13878463Y-36507200D01*
X13878463Y-36507200D02*
X14021320Y-36554819D01*
X14021320Y-36554819D02*
X14116558Y-36554819D01*
X14116558Y-36554819D02*
X14259415Y-36507200D01*
X14259415Y-36507200D02*
X14307034Y-36459580D01*
X14307034Y-36459580D02*
X14307034Y-36126247D01*
X14307034Y-36126247D02*
X14116558Y-36126247D01*
X14735606Y-36554819D02*
X14735606Y-35554819D01*
X14735606Y-35554819D02*
X15307034Y-36554819D01*
X15307034Y-36554819D02*
X15307034Y-35554819D01*
X15783225Y-36554819D02*
X15783225Y-35554819D01*
X15783225Y-35554819D02*
X16021320Y-35554819D01*
X16021320Y-35554819D02*
X16164177Y-35602438D01*
X16164177Y-35602438D02*
X16259415Y-35697676D01*
X16259415Y-35697676D02*
X16307034Y-35792914D01*
X16307034Y-35792914D02*
X16354653Y-35983390D01*
X16354653Y-35983390D02*
X16354653Y-36126247D01*
X16354653Y-36126247D02*
X16307034Y-36316723D01*
X16307034Y-36316723D02*
X16259415Y-36411961D01*
X16259415Y-36411961D02*
X16164177Y-36507200D01*
X16164177Y-36507200D02*
X16021320Y-36554819D01*
X16021320Y-36554819D02*
X15783225Y-36554819D01*
X18495833Y-17959580D02*
X18448214Y-18007200D01*
X18448214Y-18007200D02*
X18305357Y-18054819D01*
X18305357Y-18054819D02*
X18210119Y-18054819D01*
X18210119Y-18054819D02*
X18067262Y-18007200D01*
X18067262Y-18007200D02*
X17972024Y-17911961D01*
X17972024Y-17911961D02*
X17924405Y-17816723D01*
X17924405Y-17816723D02*
X17876786Y-17626247D01*
X17876786Y-17626247D02*
X17876786Y-17483390D01*
X17876786Y-17483390D02*
X17924405Y-17292914D01*
X17924405Y-17292914D02*
X17972024Y-17197676D01*
X17972024Y-17197676D02*
X18067262Y-17102438D01*
X18067262Y-17102438D02*
X18210119Y-17054819D01*
X18210119Y-17054819D02*
X18305357Y-17054819D01*
X18305357Y-17054819D02*
X18448214Y-17102438D01*
X18448214Y-17102438D02*
X18495833Y-17150057D01*
X18972024Y-18054819D02*
X19162500Y-18054819D01*
X19162500Y-18054819D02*
X19257738Y-18007200D01*
X19257738Y-18007200D02*
X19305357Y-17959580D01*
X19305357Y-17959580D02*
X19400595Y-17816723D01*
X19400595Y-17816723D02*
X19448214Y-17626247D01*
X19448214Y-17626247D02*
X19448214Y-17245295D01*
X19448214Y-17245295D02*
X19400595Y-17150057D01*
X19400595Y-17150057D02*
X19352976Y-17102438D01*
X19352976Y-17102438D02*
X19257738Y-17054819D01*
X19257738Y-17054819D02*
X19067262Y-17054819D01*
X19067262Y-17054819D02*
X18972024Y-17102438D01*
X18972024Y-17102438D02*
X18924405Y-17150057D01*
X18924405Y-17150057D02*
X18876786Y-17245295D01*
X18876786Y-17245295D02*
X18876786Y-17483390D01*
X18876786Y-17483390D02*
X18924405Y-17578628D01*
X18924405Y-17578628D02*
X18972024Y-17626247D01*
X18972024Y-17626247D02*
X19067262Y-17673866D01*
X19067262Y-17673866D02*
X19257738Y-17673866D01*
X19257738Y-17673866D02*
X19352976Y-17626247D01*
X19352976Y-17626247D02*
X19400595Y-17578628D01*
X19400595Y-17578628D02*
X19448214Y-17483390D01*
X64879166Y-12717319D02*
X64879166Y-13431604D01*
X64879166Y-13431604D02*
X64831547Y-13574461D01*
X64831547Y-13574461D02*
X64736309Y-13669700D01*
X64736309Y-13669700D02*
X64593452Y-13717319D01*
X64593452Y-13717319D02*
X64498214Y-13717319D01*
X65307738Y-12812557D02*
X65355357Y-12764938D01*
X65355357Y-12764938D02*
X65450595Y-12717319D01*
X65450595Y-12717319D02*
X65688690Y-12717319D01*
X65688690Y-12717319D02*
X65783928Y-12764938D01*
X65783928Y-12764938D02*
X65831547Y-12812557D01*
X65831547Y-12812557D02*
X65879166Y-12907795D01*
X65879166Y-12907795D02*
X65879166Y-13003033D01*
X65879166Y-13003033D02*
X65831547Y-13145890D01*
X65831547Y-13145890D02*
X65260119Y-13717319D01*
X65260119Y-13717319D02*
X65879166Y-13717319D01*
X99661905Y-25217319D02*
X99661905Y-24217319D01*
X99661905Y-24217319D02*
X99900000Y-24217319D01*
X99900000Y-24217319D02*
X100042857Y-24264938D01*
X100042857Y-24264938D02*
X100138095Y-24360176D01*
X100138095Y-24360176D02*
X100185714Y-24455414D01*
X100185714Y-24455414D02*
X100233333Y-24645890D01*
X100233333Y-24645890D02*
X100233333Y-24788747D01*
X100233333Y-24788747D02*
X100185714Y-24979223D01*
X100185714Y-24979223D02*
X100138095Y-25074461D01*
X100138095Y-25074461D02*
X100042857Y-25169700D01*
X100042857Y-25169700D02*
X99900000Y-25217319D01*
X99900000Y-25217319D02*
X99661905Y-25217319D01*
X100709524Y-25217319D02*
X100900000Y-25217319D01*
X100900000Y-25217319D02*
X100995238Y-25169700D01*
X100995238Y-25169700D02*
X101042857Y-25122080D01*
X101042857Y-25122080D02*
X101138095Y-24979223D01*
X101138095Y-24979223D02*
X101185714Y-24788747D01*
X101185714Y-24788747D02*
X101185714Y-24407795D01*
X101185714Y-24407795D02*
X101138095Y-24312557D01*
X101138095Y-24312557D02*
X101090476Y-24264938D01*
X101090476Y-24264938D02*
X100995238Y-24217319D01*
X100995238Y-24217319D02*
X100804762Y-24217319D01*
X100804762Y-24217319D02*
X100709524Y-24264938D01*
X100709524Y-24264938D02*
X100661905Y-24312557D01*
X100661905Y-24312557D02*
X100614286Y-24407795D01*
X100614286Y-24407795D02*
X100614286Y-24645890D01*
X100614286Y-24645890D02*
X100661905Y-24741128D01*
X100661905Y-24741128D02*
X100709524Y-24788747D01*
X100709524Y-24788747D02*
X100804762Y-24836366D01*
X100804762Y-24836366D02*
X100995238Y-24836366D01*
X100995238Y-24836366D02*
X101090476Y-24788747D01*
X101090476Y-24788747D02*
X101138095Y-24741128D01*
X101138095Y-24741128D02*
X101185714Y-24645890D01*
X95989900Y-24217319D02*
X95989900Y-24455414D01*
X95751805Y-24360176D02*
X95989900Y-24455414D01*
X95989900Y-24455414D02*
X96227995Y-24360176D01*
X95847043Y-24645890D02*
X95989900Y-24455414D01*
X95989900Y-24455414D02*
X96132757Y-24645890D01*
X75759580Y-39892857D02*
X75807200Y-39940476D01*
X75807200Y-39940476D02*
X75854819Y-40083333D01*
X75854819Y-40083333D02*
X75854819Y-40178571D01*
X75854819Y-40178571D02*
X75807200Y-40321428D01*
X75807200Y-40321428D02*
X75711961Y-40416666D01*
X75711961Y-40416666D02*
X75616723Y-40464285D01*
X75616723Y-40464285D02*
X75426247Y-40511904D01*
X75426247Y-40511904D02*
X75283390Y-40511904D01*
X75283390Y-40511904D02*
X75092914Y-40464285D01*
X75092914Y-40464285D02*
X74997676Y-40416666D01*
X74997676Y-40416666D02*
X74902438Y-40321428D01*
X74902438Y-40321428D02*
X74854819Y-40178571D01*
X74854819Y-40178571D02*
X74854819Y-40083333D01*
X74854819Y-40083333D02*
X74902438Y-39940476D01*
X74902438Y-39940476D02*
X74950057Y-39892857D01*
X75854819Y-38940476D02*
X75854819Y-39511904D01*
X75854819Y-39226190D02*
X74854819Y-39226190D01*
X74854819Y-39226190D02*
X74997676Y-39321428D01*
X74997676Y-39321428D02*
X75092914Y-39416666D01*
X75092914Y-39416666D02*
X75140533Y-39511904D01*
X75283390Y-38369047D02*
X75235771Y-38464285D01*
X75235771Y-38464285D02*
X75188152Y-38511904D01*
X75188152Y-38511904D02*
X75092914Y-38559523D01*
X75092914Y-38559523D02*
X75045295Y-38559523D01*
X75045295Y-38559523D02*
X74950057Y-38511904D01*
X74950057Y-38511904D02*
X74902438Y-38464285D01*
X74902438Y-38464285D02*
X74854819Y-38369047D01*
X74854819Y-38369047D02*
X74854819Y-38178571D01*
X74854819Y-38178571D02*
X74902438Y-38083333D01*
X74902438Y-38083333D02*
X74950057Y-38035714D01*
X74950057Y-38035714D02*
X75045295Y-37988095D01*
X75045295Y-37988095D02*
X75092914Y-37988095D01*
X75092914Y-37988095D02*
X75188152Y-38035714D01*
X75188152Y-38035714D02*
X75235771Y-38083333D01*
X75235771Y-38083333D02*
X75283390Y-38178571D01*
X75283390Y-38178571D02*
X75283390Y-38369047D01*
X75283390Y-38369047D02*
X75331009Y-38464285D01*
X75331009Y-38464285D02*
X75378628Y-38511904D01*
X75378628Y-38511904D02*
X75473866Y-38559523D01*
X75473866Y-38559523D02*
X75664342Y-38559523D01*
X75664342Y-38559523D02*
X75759580Y-38511904D01*
X75759580Y-38511904D02*
X75807200Y-38464285D01*
X75807200Y-38464285D02*
X75854819Y-38369047D01*
X75854819Y-38369047D02*
X75854819Y-38178571D01*
X75854819Y-38178571D02*
X75807200Y-38083333D01*
X75807200Y-38083333D02*
X75759580Y-38035714D01*
X75759580Y-38035714D02*
X75664342Y-37988095D01*
X75664342Y-37988095D02*
X75473866Y-37988095D01*
X75473866Y-37988095D02*
X75378628Y-38035714D01*
X75378628Y-38035714D02*
X75331009Y-38083333D01*
X75331009Y-38083333D02*
X75283390Y-38178571D01*
X85444642Y-36972080D02*
X85397023Y-37019700D01*
X85397023Y-37019700D02*
X85254166Y-37067319D01*
X85254166Y-37067319D02*
X85158928Y-37067319D01*
X85158928Y-37067319D02*
X85016071Y-37019700D01*
X85016071Y-37019700D02*
X84920833Y-36924461D01*
X84920833Y-36924461D02*
X84873214Y-36829223D01*
X84873214Y-36829223D02*
X84825595Y-36638747D01*
X84825595Y-36638747D02*
X84825595Y-36495890D01*
X84825595Y-36495890D02*
X84873214Y-36305414D01*
X84873214Y-36305414D02*
X84920833Y-36210176D01*
X84920833Y-36210176D02*
X85016071Y-36114938D01*
X85016071Y-36114938D02*
X85158928Y-36067319D01*
X85158928Y-36067319D02*
X85254166Y-36067319D01*
X85254166Y-36067319D02*
X85397023Y-36114938D01*
X85397023Y-36114938D02*
X85444642Y-36162557D01*
X85825595Y-36162557D02*
X85873214Y-36114938D01*
X85873214Y-36114938D02*
X85968452Y-36067319D01*
X85968452Y-36067319D02*
X86206547Y-36067319D01*
X86206547Y-36067319D02*
X86301785Y-36114938D01*
X86301785Y-36114938D02*
X86349404Y-36162557D01*
X86349404Y-36162557D02*
X86397023Y-36257795D01*
X86397023Y-36257795D02*
X86397023Y-36353033D01*
X86397023Y-36353033D02*
X86349404Y-36495890D01*
X86349404Y-36495890D02*
X85777976Y-37067319D01*
X85777976Y-37067319D02*
X86397023Y-37067319D01*
X87349404Y-37067319D02*
X86777976Y-37067319D01*
X87063690Y-37067319D02*
X87063690Y-36067319D01*
X87063690Y-36067319D02*
X86968452Y-36210176D01*
X86968452Y-36210176D02*
X86873214Y-36305414D01*
X86873214Y-36305414D02*
X86777976Y-36353033D01*
X70545833Y-23714519D02*
X70212500Y-23238328D01*
X69974405Y-23714519D02*
X69974405Y-22714519D01*
X69974405Y-22714519D02*
X70355357Y-22714519D01*
X70355357Y-22714519D02*
X70450595Y-22762138D01*
X70450595Y-22762138D02*
X70498214Y-22809757D01*
X70498214Y-22809757D02*
X70545833Y-22904995D01*
X70545833Y-22904995D02*
X70545833Y-23047852D01*
X70545833Y-23047852D02*
X70498214Y-23143090D01*
X70498214Y-23143090D02*
X70450595Y-23190709D01*
X70450595Y-23190709D02*
X70355357Y-23238328D01*
X70355357Y-23238328D02*
X69974405Y-23238328D01*
X70879167Y-22714519D02*
X71498214Y-22714519D01*
X71498214Y-22714519D02*
X71164881Y-23095471D01*
X71164881Y-23095471D02*
X71307738Y-23095471D01*
X71307738Y-23095471D02*
X71402976Y-23143090D01*
X71402976Y-23143090D02*
X71450595Y-23190709D01*
X71450595Y-23190709D02*
X71498214Y-23285947D01*
X71498214Y-23285947D02*
X71498214Y-23524042D01*
X71498214Y-23524042D02*
X71450595Y-23619280D01*
X71450595Y-23619280D02*
X71402976Y-23666900D01*
X71402976Y-23666900D02*
X71307738Y-23714519D01*
X71307738Y-23714519D02*
X71022024Y-23714519D01*
X71022024Y-23714519D02*
X70926786Y-23666900D01*
X70926786Y-23666900D02*
X70879167Y-23619280D01*
X88891666Y-12567319D02*
X88891666Y-13281604D01*
X88891666Y-13281604D02*
X88844047Y-13424461D01*
X88844047Y-13424461D02*
X88748809Y-13519700D01*
X88748809Y-13519700D02*
X88605952Y-13567319D01*
X88605952Y-13567319D02*
X88510714Y-13567319D01*
X89796428Y-12900652D02*
X89796428Y-13567319D01*
X89558333Y-12519700D02*
X89320238Y-13233985D01*
X89320238Y-13233985D02*
X89939285Y-13233985D01*
X32497080Y-22942857D02*
X32544700Y-22990476D01*
X32544700Y-22990476D02*
X32592319Y-23133333D01*
X32592319Y-23133333D02*
X32592319Y-23228571D01*
X32592319Y-23228571D02*
X32544700Y-23371428D01*
X32544700Y-23371428D02*
X32449461Y-23466666D01*
X32449461Y-23466666D02*
X32354223Y-23514285D01*
X32354223Y-23514285D02*
X32163747Y-23561904D01*
X32163747Y-23561904D02*
X32020890Y-23561904D01*
X32020890Y-23561904D02*
X31830414Y-23514285D01*
X31830414Y-23514285D02*
X31735176Y-23466666D01*
X31735176Y-23466666D02*
X31639938Y-23371428D01*
X31639938Y-23371428D02*
X31592319Y-23228571D01*
X31592319Y-23228571D02*
X31592319Y-23133333D01*
X31592319Y-23133333D02*
X31639938Y-22990476D01*
X31639938Y-22990476D02*
X31687557Y-22942857D01*
X32592319Y-21990476D02*
X32592319Y-22561904D01*
X32592319Y-22276190D02*
X31592319Y-22276190D01*
X31592319Y-22276190D02*
X31735176Y-22371428D01*
X31735176Y-22371428D02*
X31830414Y-22466666D01*
X31830414Y-22466666D02*
X31878033Y-22561904D01*
X31687557Y-21609523D02*
X31639938Y-21561904D01*
X31639938Y-21561904D02*
X31592319Y-21466666D01*
X31592319Y-21466666D02*
X31592319Y-21228571D01*
X31592319Y-21228571D02*
X31639938Y-21133333D01*
X31639938Y-21133333D02*
X31687557Y-21085714D01*
X31687557Y-21085714D02*
X31782795Y-21038095D01*
X31782795Y-21038095D02*
X31878033Y-21038095D01*
X31878033Y-21038095D02*
X32020890Y-21085714D01*
X32020890Y-21085714D02*
X32592319Y-21657142D01*
X32592319Y-21657142D02*
X32592319Y-21038095D01*
X84836705Y-25217319D02*
X84836705Y-24217319D01*
X84836705Y-24217319D02*
X85074800Y-24217319D01*
X85074800Y-24217319D02*
X85217657Y-24264938D01*
X85217657Y-24264938D02*
X85312895Y-24360176D01*
X85312895Y-24360176D02*
X85360514Y-24455414D01*
X85360514Y-24455414D02*
X85408133Y-24645890D01*
X85408133Y-24645890D02*
X85408133Y-24788747D01*
X85408133Y-24788747D02*
X85360514Y-24979223D01*
X85360514Y-24979223D02*
X85312895Y-25074461D01*
X85312895Y-25074461D02*
X85217657Y-25169700D01*
X85217657Y-25169700D02*
X85074800Y-25217319D01*
X85074800Y-25217319D02*
X84836705Y-25217319D01*
X85741467Y-24217319D02*
X86408133Y-24217319D01*
X86408133Y-24217319D02*
X85979562Y-25217319D01*
X67659580Y-28766666D02*
X67707200Y-28814285D01*
X67707200Y-28814285D02*
X67754819Y-28957142D01*
X67754819Y-28957142D02*
X67754819Y-29052380D01*
X67754819Y-29052380D02*
X67707200Y-29195237D01*
X67707200Y-29195237D02*
X67611961Y-29290475D01*
X67611961Y-29290475D02*
X67516723Y-29338094D01*
X67516723Y-29338094D02*
X67326247Y-29385713D01*
X67326247Y-29385713D02*
X67183390Y-29385713D01*
X67183390Y-29385713D02*
X66992914Y-29338094D01*
X66992914Y-29338094D02*
X66897676Y-29290475D01*
X66897676Y-29290475D02*
X66802438Y-29195237D01*
X66802438Y-29195237D02*
X66754819Y-29052380D01*
X66754819Y-29052380D02*
X66754819Y-28957142D01*
X66754819Y-28957142D02*
X66802438Y-28814285D01*
X66802438Y-28814285D02*
X66850057Y-28766666D01*
X66754819Y-28433332D02*
X66754819Y-27814285D01*
X66754819Y-27814285D02*
X67135771Y-28147618D01*
X67135771Y-28147618D02*
X67135771Y-28004761D01*
X67135771Y-28004761D02*
X67183390Y-27909523D01*
X67183390Y-27909523D02*
X67231009Y-27861904D01*
X67231009Y-27861904D02*
X67326247Y-27814285D01*
X67326247Y-27814285D02*
X67564342Y-27814285D01*
X67564342Y-27814285D02*
X67659580Y-27861904D01*
X67659580Y-27861904D02*
X67707200Y-27909523D01*
X67707200Y-27909523D02*
X67754819Y-28004761D01*
X67754819Y-28004761D02*
X67754819Y-28290475D01*
X67754819Y-28290475D02*
X67707200Y-28385713D01*
X67707200Y-28385713D02*
X67659580Y-28433332D01*
X57269642Y-46109581D02*
X57222023Y-46157201D01*
X57222023Y-46157201D02*
X57079166Y-46204820D01*
X57079166Y-46204820D02*
X56983928Y-46204820D01*
X56983928Y-46204820D02*
X56841071Y-46157201D01*
X56841071Y-46157201D02*
X56745833Y-46061962D01*
X56745833Y-46061962D02*
X56698214Y-45966724D01*
X56698214Y-45966724D02*
X56650595Y-45776248D01*
X56650595Y-45776248D02*
X56650595Y-45633391D01*
X56650595Y-45633391D02*
X56698214Y-45442915D01*
X56698214Y-45442915D02*
X56745833Y-45347677D01*
X56745833Y-45347677D02*
X56841071Y-45252439D01*
X56841071Y-45252439D02*
X56983928Y-45204820D01*
X56983928Y-45204820D02*
X57079166Y-45204820D01*
X57079166Y-45204820D02*
X57222023Y-45252439D01*
X57222023Y-45252439D02*
X57269642Y-45300058D01*
X58222023Y-46204820D02*
X57650595Y-46204820D01*
X57936309Y-46204820D02*
X57936309Y-45204820D01*
X57936309Y-45204820D02*
X57841071Y-45347677D01*
X57841071Y-45347677D02*
X57745833Y-45442915D01*
X57745833Y-45442915D02*
X57650595Y-45490534D01*
X59079166Y-45204820D02*
X58888690Y-45204820D01*
X58888690Y-45204820D02*
X58793452Y-45252439D01*
X58793452Y-45252439D02*
X58745833Y-45300058D01*
X58745833Y-45300058D02*
X58650595Y-45442915D01*
X58650595Y-45442915D02*
X58602976Y-45633391D01*
X58602976Y-45633391D02*
X58602976Y-46014343D01*
X58602976Y-46014343D02*
X58650595Y-46109581D01*
X58650595Y-46109581D02*
X58698214Y-46157201D01*
X58698214Y-46157201D02*
X58793452Y-46204820D01*
X58793452Y-46204820D02*
X58983928Y-46204820D01*
X58983928Y-46204820D02*
X59079166Y-46157201D01*
X59079166Y-46157201D02*
X59126785Y-46109581D01*
X59126785Y-46109581D02*
X59174404Y-46014343D01*
X59174404Y-46014343D02*
X59174404Y-45776248D01*
X59174404Y-45776248D02*
X59126785Y-45681010D01*
X59126785Y-45681010D02*
X59079166Y-45633391D01*
X59079166Y-45633391D02*
X58983928Y-45585772D01*
X58983928Y-45585772D02*
X58793452Y-45585772D01*
X58793452Y-45585772D02*
X58698214Y-45633391D01*
X58698214Y-45633391D02*
X58650595Y-45681010D01*
X58650595Y-45681010D02*
X58602976Y-45776248D01*
X102500000Y-26097676D02*
X102833333Y-26097676D01*
X102976190Y-26621486D02*
X102500000Y-26621486D01*
X102500000Y-26621486D02*
X102500000Y-25621486D01*
X102500000Y-25621486D02*
X102976190Y-25621486D01*
X103404762Y-26621486D02*
X103404762Y-25621486D01*
X103404762Y-25621486D02*
X103976190Y-26621486D01*
X103976190Y-26621486D02*
X103976190Y-25621486D01*
X104214286Y-26716724D02*
X104976190Y-26716724D01*
X105119048Y-25621486D02*
X105738095Y-25621486D01*
X105738095Y-25621486D02*
X105404762Y-26002438D01*
X105404762Y-26002438D02*
X105547619Y-26002438D01*
X105547619Y-26002438D02*
X105642857Y-26050057D01*
X105642857Y-26050057D02*
X105690476Y-26097676D01*
X105690476Y-26097676D02*
X105738095Y-26192914D01*
X105738095Y-26192914D02*
X105738095Y-26431009D01*
X105738095Y-26431009D02*
X105690476Y-26526247D01*
X105690476Y-26526247D02*
X105642857Y-26573867D01*
X105642857Y-26573867D02*
X105547619Y-26621486D01*
X105547619Y-26621486D02*
X105261905Y-26621486D01*
X105261905Y-26621486D02*
X105166667Y-26573867D01*
X105166667Y-26573867D02*
X105119048Y-26526247D01*
X106023810Y-25621486D02*
X106357143Y-26621486D01*
X106357143Y-26621486D02*
X106690476Y-25621486D01*
X106928572Y-25621486D02*
X107547619Y-25621486D01*
X107547619Y-25621486D02*
X107214286Y-26002438D01*
X107214286Y-26002438D02*
X107357143Y-26002438D01*
X107357143Y-26002438D02*
X107452381Y-26050057D01*
X107452381Y-26050057D02*
X107500000Y-26097676D01*
X107500000Y-26097676D02*
X107547619Y-26192914D01*
X107547619Y-26192914D02*
X107547619Y-26431009D01*
X107547619Y-26431009D02*
X107500000Y-26526247D01*
X107500000Y-26526247D02*
X107452381Y-26573867D01*
X107452381Y-26573867D02*
X107357143Y-26621486D01*
X107357143Y-26621486D02*
X107071429Y-26621486D01*
X107071429Y-26621486D02*
X106976191Y-26573867D01*
X106976191Y-26573867D02*
X106928572Y-26526247D01*
X36659580Y-26142857D02*
X36707200Y-26190476D01*
X36707200Y-26190476D02*
X36754819Y-26333333D01*
X36754819Y-26333333D02*
X36754819Y-26428571D01*
X36754819Y-26428571D02*
X36707200Y-26571428D01*
X36707200Y-26571428D02*
X36611961Y-26666666D01*
X36611961Y-26666666D02*
X36516723Y-26714285D01*
X36516723Y-26714285D02*
X36326247Y-26761904D01*
X36326247Y-26761904D02*
X36183390Y-26761904D01*
X36183390Y-26761904D02*
X35992914Y-26714285D01*
X35992914Y-26714285D02*
X35897676Y-26666666D01*
X35897676Y-26666666D02*
X35802438Y-26571428D01*
X35802438Y-26571428D02*
X35754819Y-26428571D01*
X35754819Y-26428571D02*
X35754819Y-26333333D01*
X35754819Y-26333333D02*
X35802438Y-26190476D01*
X35802438Y-26190476D02*
X35850057Y-26142857D01*
X36754819Y-25190476D02*
X36754819Y-25761904D01*
X36754819Y-25476190D02*
X35754819Y-25476190D01*
X35754819Y-25476190D02*
X35897676Y-25571428D01*
X35897676Y-25571428D02*
X35992914Y-25666666D01*
X35992914Y-25666666D02*
X36040533Y-25761904D01*
X36754819Y-24238095D02*
X36754819Y-24809523D01*
X36754819Y-24523809D02*
X35754819Y-24523809D01*
X35754819Y-24523809D02*
X35897676Y-24619047D01*
X35897676Y-24619047D02*
X35992914Y-24714285D01*
X35992914Y-24714285D02*
X36040533Y-24809523D01*
X63757143Y-35844700D02*
X63900000Y-35892319D01*
X63900000Y-35892319D02*
X64138095Y-35892319D01*
X64138095Y-35892319D02*
X64233333Y-35844700D01*
X64233333Y-35844700D02*
X64280952Y-35797080D01*
X64280952Y-35797080D02*
X64328571Y-35701842D01*
X64328571Y-35701842D02*
X64328571Y-35606604D01*
X64328571Y-35606604D02*
X64280952Y-35511366D01*
X64280952Y-35511366D02*
X64233333Y-35463747D01*
X64233333Y-35463747D02*
X64138095Y-35416128D01*
X64138095Y-35416128D02*
X63947619Y-35368509D01*
X63947619Y-35368509D02*
X63852381Y-35320890D01*
X63852381Y-35320890D02*
X63804762Y-35273271D01*
X63804762Y-35273271D02*
X63757143Y-35178033D01*
X63757143Y-35178033D02*
X63757143Y-35082795D01*
X63757143Y-35082795D02*
X63804762Y-34987557D01*
X63804762Y-34987557D02*
X63852381Y-34939938D01*
X63852381Y-34939938D02*
X63947619Y-34892319D01*
X63947619Y-34892319D02*
X64185714Y-34892319D01*
X64185714Y-34892319D02*
X64328571Y-34939938D01*
X64661905Y-34892319D02*
X64900000Y-35892319D01*
X64900000Y-35892319D02*
X65090476Y-35178033D01*
X65090476Y-35178033D02*
X65280952Y-35892319D01*
X65280952Y-35892319D02*
X65519048Y-34892319D01*
X65661905Y-35987557D02*
X66423809Y-35987557D01*
X67138095Y-34892319D02*
X66661905Y-34892319D01*
X66661905Y-34892319D02*
X66614286Y-35368509D01*
X66614286Y-35368509D02*
X66661905Y-35320890D01*
X66661905Y-35320890D02*
X66757143Y-35273271D01*
X66757143Y-35273271D02*
X66995238Y-35273271D01*
X66995238Y-35273271D02*
X67090476Y-35320890D01*
X67090476Y-35320890D02*
X67138095Y-35368509D01*
X67138095Y-35368509D02*
X67185714Y-35463747D01*
X67185714Y-35463747D02*
X67185714Y-35701842D01*
X67185714Y-35701842D02*
X67138095Y-35797080D01*
X67138095Y-35797080D02*
X67090476Y-35844700D01*
X67090476Y-35844700D02*
X66995238Y-35892319D01*
X66995238Y-35892319D02*
X66757143Y-35892319D01*
X66757143Y-35892319D02*
X66661905Y-35844700D01*
X66661905Y-35844700D02*
X66614286Y-35797080D01*
X67471429Y-34892319D02*
X67804762Y-35892319D01*
X67804762Y-35892319D02*
X68138095Y-34892319D01*
X49180952Y-28354819D02*
X48609524Y-28354819D01*
X48895238Y-28354819D02*
X48895238Y-27354819D01*
X48895238Y-27354819D02*
X48800000Y-27497676D01*
X48800000Y-27497676D02*
X48704762Y-27592914D01*
X48704762Y-27592914D02*
X48609524Y-27640533D01*
X49561905Y-27450057D02*
X49609524Y-27402438D01*
X49609524Y-27402438D02*
X49704762Y-27354819D01*
X49704762Y-27354819D02*
X49942857Y-27354819D01*
X49942857Y-27354819D02*
X50038095Y-27402438D01*
X50038095Y-27402438D02*
X50085714Y-27450057D01*
X50085714Y-27450057D02*
X50133333Y-27545295D01*
X50133333Y-27545295D02*
X50133333Y-27640533D01*
X50133333Y-27640533D02*
X50085714Y-27783390D01*
X50085714Y-27783390D02*
X49514286Y-28354819D01*
X49514286Y-28354819D02*
X50133333Y-28354819D01*
X50419048Y-27354819D02*
X50752381Y-28354819D01*
X50752381Y-28354819D02*
X51085714Y-27354819D01*
X69924405Y-21914519D02*
X69924405Y-20914519D01*
X69924405Y-20914519D02*
X70162500Y-20914519D01*
X70162500Y-20914519D02*
X70305357Y-20962138D01*
X70305357Y-20962138D02*
X70400595Y-21057376D01*
X70400595Y-21057376D02*
X70448214Y-21152614D01*
X70448214Y-21152614D02*
X70495833Y-21343090D01*
X70495833Y-21343090D02*
X70495833Y-21485947D01*
X70495833Y-21485947D02*
X70448214Y-21676423D01*
X70448214Y-21676423D02*
X70400595Y-21771661D01*
X70400595Y-21771661D02*
X70305357Y-21866900D01*
X70305357Y-21866900D02*
X70162500Y-21914519D01*
X70162500Y-21914519D02*
X69924405Y-21914519D01*
X71352976Y-20914519D02*
X71162500Y-20914519D01*
X71162500Y-20914519D02*
X71067262Y-20962138D01*
X71067262Y-20962138D02*
X71019643Y-21009757D01*
X71019643Y-21009757D02*
X70924405Y-21152614D01*
X70924405Y-21152614D02*
X70876786Y-21343090D01*
X70876786Y-21343090D02*
X70876786Y-21724042D01*
X70876786Y-21724042D02*
X70924405Y-21819280D01*
X70924405Y-21819280D02*
X70972024Y-21866900D01*
X70972024Y-21866900D02*
X71067262Y-21914519D01*
X71067262Y-21914519D02*
X71257738Y-21914519D01*
X71257738Y-21914519D02*
X71352976Y-21866900D01*
X71352976Y-21866900D02*
X71400595Y-21819280D01*
X71400595Y-21819280D02*
X71448214Y-21724042D01*
X71448214Y-21724042D02*
X71448214Y-21485947D01*
X71448214Y-21485947D02*
X71400595Y-21390709D01*
X71400595Y-21390709D02*
X71352976Y-21343090D01*
X71352976Y-21343090D02*
X71257738Y-21295471D01*
X71257738Y-21295471D02*
X71067262Y-21295471D01*
X71067262Y-21295471D02*
X70972024Y-21343090D01*
X70972024Y-21343090D02*
X70924405Y-21390709D01*
X70924405Y-21390709D02*
X70876786Y-21485947D01*
X78929166Y-12617319D02*
X78929166Y-13331604D01*
X78929166Y-13331604D02*
X78881547Y-13474461D01*
X78881547Y-13474461D02*
X78786309Y-13569700D01*
X78786309Y-13569700D02*
X78643452Y-13617319D01*
X78643452Y-13617319D02*
X78548214Y-13617319D01*
X79310119Y-12617319D02*
X79929166Y-12617319D01*
X79929166Y-12617319D02*
X79595833Y-12998271D01*
X79595833Y-12998271D02*
X79738690Y-12998271D01*
X79738690Y-12998271D02*
X79833928Y-13045890D01*
X79833928Y-13045890D02*
X79881547Y-13093509D01*
X79881547Y-13093509D02*
X79929166Y-13188747D01*
X79929166Y-13188747D02*
X79929166Y-13426842D01*
X79929166Y-13426842D02*
X79881547Y-13522080D01*
X79881547Y-13522080D02*
X79833928Y-13569700D01*
X79833928Y-13569700D02*
X79738690Y-13617319D01*
X79738690Y-13617319D02*
X79452976Y-13617319D01*
X79452976Y-13617319D02*
X79357738Y-13569700D01*
X79357738Y-13569700D02*
X79310119Y-13522080D01*
X36004761Y-46250057D02*
X35909523Y-46202438D01*
X35909523Y-46202438D02*
X35814285Y-46107200D01*
X35814285Y-46107200D02*
X35671428Y-45964342D01*
X35671428Y-45964342D02*
X35576190Y-45916723D01*
X35576190Y-45916723D02*
X35480952Y-45916723D01*
X35528571Y-46154819D02*
X35433333Y-46107200D01*
X35433333Y-46107200D02*
X35338095Y-46011961D01*
X35338095Y-46011961D02*
X35290476Y-45821485D01*
X35290476Y-45821485D02*
X35290476Y-45488152D01*
X35290476Y-45488152D02*
X35338095Y-45297676D01*
X35338095Y-45297676D02*
X35433333Y-45202438D01*
X35433333Y-45202438D02*
X35528571Y-45154819D01*
X35528571Y-45154819D02*
X35719047Y-45154819D01*
X35719047Y-45154819D02*
X35814285Y-45202438D01*
X35814285Y-45202438D02*
X35909523Y-45297676D01*
X35909523Y-45297676D02*
X35957142Y-45488152D01*
X35957142Y-45488152D02*
X35957142Y-45821485D01*
X35957142Y-45821485D02*
X35909523Y-46011961D01*
X35909523Y-46011961D02*
X35814285Y-46107200D01*
X35814285Y-46107200D02*
X35719047Y-46154819D01*
X35719047Y-46154819D02*
X35528571Y-46154819D01*
X36909523Y-46154819D02*
X36338095Y-46154819D01*
X36623809Y-46154819D02*
X36623809Y-45154819D01*
X36623809Y-45154819D02*
X36528571Y-45297676D01*
X36528571Y-45297676D02*
X36433333Y-45392914D01*
X36433333Y-45392914D02*
X36338095Y-45440533D01*
X35332499Y-36339719D02*
X35332499Y-36577814D01*
X35094404Y-36482576D02*
X35332499Y-36577814D01*
X35332499Y-36577814D02*
X35570594Y-36482576D01*
X35189642Y-36768290D02*
X35332499Y-36577814D01*
X35332499Y-36577814D02*
X35475356Y-36768290D01*
X35332498Y-37430080D02*
X35332498Y-37191985D01*
X35570593Y-37287223D02*
X35332498Y-37191985D01*
X35332498Y-37191985D02*
X35094403Y-37287223D01*
X35475355Y-37001509D02*
X35332498Y-37191985D01*
X35332498Y-37191985D02*
X35189641Y-37001509D01*
X78738095Y-34252438D02*
X78642857Y-34204819D01*
X78642857Y-34204819D02*
X78500000Y-34204819D01*
X78500000Y-34204819D02*
X78357143Y-34252438D01*
X78357143Y-34252438D02*
X78261905Y-34347676D01*
X78261905Y-34347676D02*
X78214286Y-34442914D01*
X78214286Y-34442914D02*
X78166667Y-34633390D01*
X78166667Y-34633390D02*
X78166667Y-34776247D01*
X78166667Y-34776247D02*
X78214286Y-34966723D01*
X78214286Y-34966723D02*
X78261905Y-35061961D01*
X78261905Y-35061961D02*
X78357143Y-35157200D01*
X78357143Y-35157200D02*
X78500000Y-35204819D01*
X78500000Y-35204819D02*
X78595238Y-35204819D01*
X78595238Y-35204819D02*
X78738095Y-35157200D01*
X78738095Y-35157200D02*
X78785714Y-35109580D01*
X78785714Y-35109580D02*
X78785714Y-34776247D01*
X78785714Y-34776247D02*
X78595238Y-34776247D01*
X79214286Y-35204819D02*
X79214286Y-34204819D01*
X79214286Y-34204819D02*
X79785714Y-35204819D01*
X79785714Y-35204819D02*
X79785714Y-34204819D01*
X80261905Y-35204819D02*
X80261905Y-34204819D01*
X80261905Y-34204819D02*
X80500000Y-34204819D01*
X80500000Y-34204819D02*
X80642857Y-34252438D01*
X80642857Y-34252438D02*
X80738095Y-34347676D01*
X80738095Y-34347676D02*
X80785714Y-34442914D01*
X80785714Y-34442914D02*
X80833333Y-34633390D01*
X80833333Y-34633390D02*
X80833333Y-34776247D01*
X80833333Y-34776247D02*
X80785714Y-34966723D01*
X80785714Y-34966723D02*
X80738095Y-35061961D01*
X80738095Y-35061961D02*
X80642857Y-35157200D01*
X80642857Y-35157200D02*
X80500000Y-35204819D01*
X80500000Y-35204819D02*
X80261905Y-35204819D01*
X33270833Y-32054819D02*
X32937500Y-31578628D01*
X32699405Y-32054819D02*
X32699405Y-31054819D01*
X32699405Y-31054819D02*
X33080357Y-31054819D01*
X33080357Y-31054819D02*
X33175595Y-31102438D01*
X33175595Y-31102438D02*
X33223214Y-31150057D01*
X33223214Y-31150057D02*
X33270833Y-31245295D01*
X33270833Y-31245295D02*
X33270833Y-31388152D01*
X33270833Y-31388152D02*
X33223214Y-31483390D01*
X33223214Y-31483390D02*
X33175595Y-31531009D01*
X33175595Y-31531009D02*
X33080357Y-31578628D01*
X33080357Y-31578628D02*
X32699405Y-31578628D01*
X34223214Y-32054819D02*
X33651786Y-32054819D01*
X33937500Y-32054819D02*
X33937500Y-31054819D01*
X33937500Y-31054819D02*
X33842262Y-31197676D01*
X33842262Y-31197676D02*
X33747024Y-31292914D01*
X33747024Y-31292914D02*
X33651786Y-31340533D01*
X101066666Y-27243509D02*
X100733333Y-27243509D01*
X100733333Y-27767319D02*
X100733333Y-26767319D01*
X100733333Y-26767319D02*
X101209523Y-26767319D01*
X102019047Y-26767319D02*
X101828571Y-26767319D01*
X101828571Y-26767319D02*
X101733333Y-26814938D01*
X101733333Y-26814938D02*
X101685714Y-26862557D01*
X101685714Y-26862557D02*
X101590476Y-27005414D01*
X101590476Y-27005414D02*
X101542857Y-27195890D01*
X101542857Y-27195890D02*
X101542857Y-27576842D01*
X101542857Y-27576842D02*
X101590476Y-27672080D01*
X101590476Y-27672080D02*
X101638095Y-27719700D01*
X101638095Y-27719700D02*
X101733333Y-27767319D01*
X101733333Y-27767319D02*
X101923809Y-27767319D01*
X101923809Y-27767319D02*
X102019047Y-27719700D01*
X102019047Y-27719700D02*
X102066666Y-27672080D01*
X102066666Y-27672080D02*
X102114285Y-27576842D01*
X102114285Y-27576842D02*
X102114285Y-27338747D01*
X102114285Y-27338747D02*
X102066666Y-27243509D01*
X102066666Y-27243509D02*
X102019047Y-27195890D01*
X102019047Y-27195890D02*
X101923809Y-27148271D01*
X101923809Y-27148271D02*
X101733333Y-27148271D01*
X101733333Y-27148271D02*
X101638095Y-27195890D01*
X101638095Y-27195890D02*
X101590476Y-27243509D01*
X101590476Y-27243509D02*
X101542857Y-27338747D01*
X19261905Y-30654819D02*
X19261905Y-29654819D01*
X19261905Y-29654819D02*
X19500000Y-29654819D01*
X19500000Y-29654819D02*
X19642857Y-29702438D01*
X19642857Y-29702438D02*
X19738095Y-29797676D01*
X19738095Y-29797676D02*
X19785714Y-29892914D01*
X19785714Y-29892914D02*
X19833333Y-30083390D01*
X19833333Y-30083390D02*
X19833333Y-30226247D01*
X19833333Y-30226247D02*
X19785714Y-30416723D01*
X19785714Y-30416723D02*
X19738095Y-30511961D01*
X19738095Y-30511961D02*
X19642857Y-30607200D01*
X19642857Y-30607200D02*
X19500000Y-30654819D01*
X19500000Y-30654819D02*
X19261905Y-30654819D01*
X20785714Y-30654819D02*
X20214286Y-30654819D01*
X20500000Y-30654819D02*
X20500000Y-29654819D01*
X20500000Y-29654819D02*
X20404762Y-29797676D01*
X20404762Y-29797676D02*
X20309524Y-29892914D01*
X20309524Y-29892914D02*
X20214286Y-29940533D01*
X100591666Y-30743509D02*
X100258333Y-30743509D01*
X100258333Y-31267319D02*
X100258333Y-30267319D01*
X100258333Y-30267319D02*
X100734523Y-30267319D01*
X101544047Y-30600652D02*
X101544047Y-31267319D01*
X101305952Y-30219700D02*
X101067857Y-30933985D01*
X101067857Y-30933985D02*
X101686904Y-30933985D01*
X49357142Y-24497080D02*
X49309523Y-24544700D01*
X49309523Y-24544700D02*
X49166666Y-24592319D01*
X49166666Y-24592319D02*
X49071428Y-24592319D01*
X49071428Y-24592319D02*
X48928571Y-24544700D01*
X48928571Y-24544700D02*
X48833333Y-24449461D01*
X48833333Y-24449461D02*
X48785714Y-24354223D01*
X48785714Y-24354223D02*
X48738095Y-24163747D01*
X48738095Y-24163747D02*
X48738095Y-24020890D01*
X48738095Y-24020890D02*
X48785714Y-23830414D01*
X48785714Y-23830414D02*
X48833333Y-23735176D01*
X48833333Y-23735176D02*
X48928571Y-23639938D01*
X48928571Y-23639938D02*
X49071428Y-23592319D01*
X49071428Y-23592319D02*
X49166666Y-23592319D01*
X49166666Y-23592319D02*
X49309523Y-23639938D01*
X49309523Y-23639938D02*
X49357142Y-23687557D01*
X50309523Y-24592319D02*
X49738095Y-24592319D01*
X50023809Y-24592319D02*
X50023809Y-23592319D01*
X50023809Y-23592319D02*
X49928571Y-23735176D01*
X49928571Y-23735176D02*
X49833333Y-23830414D01*
X49833333Y-23830414D02*
X49738095Y-23878033D01*
X51166666Y-23925652D02*
X51166666Y-24592319D01*
X50928571Y-23544700D02*
X50690476Y-24258985D01*
X50690476Y-24258985D02*
X51309523Y-24258985D01*
X84642319Y-30977916D02*
X84166128Y-31311249D01*
X84642319Y-31549344D02*
X83642319Y-31549344D01*
X83642319Y-31549344D02*
X83642319Y-31168392D01*
X83642319Y-31168392D02*
X83689938Y-31073154D01*
X83689938Y-31073154D02*
X83737557Y-31025535D01*
X83737557Y-31025535D02*
X83832795Y-30977916D01*
X83832795Y-30977916D02*
X83975652Y-30977916D01*
X83975652Y-30977916D02*
X84070890Y-31025535D01*
X84070890Y-31025535D02*
X84118509Y-31073154D01*
X84118509Y-31073154D02*
X84166128Y-31168392D01*
X84166128Y-31168392D02*
X84166128Y-31549344D01*
X83975652Y-30120773D02*
X84642319Y-30120773D01*
X83594700Y-30358868D02*
X84308985Y-30596963D01*
X84308985Y-30596963D02*
X84308985Y-29977916D01*
X56755000Y-37553820D02*
X56755000Y-37791915D01*
X56516905Y-37696677D02*
X56755000Y-37791915D01*
X56755000Y-37791915D02*
X56993095Y-37696677D01*
X56612143Y-37982391D02*
X56755000Y-37791915D01*
X56755000Y-37791915D02*
X56897857Y-37982391D01*
X70949166Y-16380709D02*
X70615833Y-16380709D01*
X70615833Y-16904519D02*
X70615833Y-15904519D01*
X70615833Y-15904519D02*
X71092023Y-15904519D01*
X71377738Y-15904519D02*
X71996785Y-15904519D01*
X71996785Y-15904519D02*
X71663452Y-16285471D01*
X71663452Y-16285471D02*
X71806309Y-16285471D01*
X71806309Y-16285471D02*
X71901547Y-16333090D01*
X71901547Y-16333090D02*
X71949166Y-16380709D01*
X71949166Y-16380709D02*
X71996785Y-16475947D01*
X71996785Y-16475947D02*
X71996785Y-16714042D01*
X71996785Y-16714042D02*
X71949166Y-16809280D01*
X71949166Y-16809280D02*
X71901547Y-16856900D01*
X71901547Y-16856900D02*
X71806309Y-16904519D01*
X71806309Y-16904519D02*
X71520595Y-16904519D01*
X71520595Y-16904519D02*
X71425357Y-16856900D01*
X71425357Y-16856900D02*
X71377738Y-16809280D01*
X75759580Y-43105357D02*
X75807200Y-43152976D01*
X75807200Y-43152976D02*
X75854819Y-43295833D01*
X75854819Y-43295833D02*
X75854819Y-43391071D01*
X75854819Y-43391071D02*
X75807200Y-43533928D01*
X75807200Y-43533928D02*
X75711961Y-43629166D01*
X75711961Y-43629166D02*
X75616723Y-43676785D01*
X75616723Y-43676785D02*
X75426247Y-43724404D01*
X75426247Y-43724404D02*
X75283390Y-43724404D01*
X75283390Y-43724404D02*
X75092914Y-43676785D01*
X75092914Y-43676785D02*
X74997676Y-43629166D01*
X74997676Y-43629166D02*
X74902438Y-43533928D01*
X74902438Y-43533928D02*
X74854819Y-43391071D01*
X74854819Y-43391071D02*
X74854819Y-43295833D01*
X74854819Y-43295833D02*
X74902438Y-43152976D01*
X74902438Y-43152976D02*
X74950057Y-43105357D01*
X75854819Y-42152976D02*
X75854819Y-42724404D01*
X75854819Y-42438690D02*
X74854819Y-42438690D01*
X74854819Y-42438690D02*
X74997676Y-42533928D01*
X74997676Y-42533928D02*
X75092914Y-42629166D01*
X75092914Y-42629166D02*
X75140533Y-42724404D01*
X75854819Y-41676785D02*
X75854819Y-41486309D01*
X75854819Y-41486309D02*
X75807200Y-41391071D01*
X75807200Y-41391071D02*
X75759580Y-41343452D01*
X75759580Y-41343452D02*
X75616723Y-41248214D01*
X75616723Y-41248214D02*
X75426247Y-41200595D01*
X75426247Y-41200595D02*
X75045295Y-41200595D01*
X75045295Y-41200595D02*
X74950057Y-41248214D01*
X74950057Y-41248214D02*
X74902438Y-41295833D01*
X74902438Y-41295833D02*
X74854819Y-41391071D01*
X74854819Y-41391071D02*
X74854819Y-41581547D01*
X74854819Y-41581547D02*
X74902438Y-41676785D01*
X74902438Y-41676785D02*
X74950057Y-41724404D01*
X74950057Y-41724404D02*
X75045295Y-41772023D01*
X75045295Y-41772023D02*
X75283390Y-41772023D01*
X75283390Y-41772023D02*
X75378628Y-41724404D01*
X75378628Y-41724404D02*
X75426247Y-41676785D01*
X75426247Y-41676785D02*
X75473866Y-41581547D01*
X75473866Y-41581547D02*
X75473866Y-41391071D01*
X75473866Y-41391071D02*
X75426247Y-41295833D01*
X75426247Y-41295833D02*
X75378628Y-41248214D01*
X75378628Y-41248214D02*
X75283390Y-41200595D01*
X100622080Y-42805357D02*
X100669700Y-42852976D01*
X100669700Y-42852976D02*
X100717319Y-42995833D01*
X100717319Y-42995833D02*
X100717319Y-43091071D01*
X100717319Y-43091071D02*
X100669700Y-43233928D01*
X100669700Y-43233928D02*
X100574461Y-43329166D01*
X100574461Y-43329166D02*
X100479223Y-43376785D01*
X100479223Y-43376785D02*
X100288747Y-43424404D01*
X100288747Y-43424404D02*
X100145890Y-43424404D01*
X100145890Y-43424404D02*
X99955414Y-43376785D01*
X99955414Y-43376785D02*
X99860176Y-43329166D01*
X99860176Y-43329166D02*
X99764938Y-43233928D01*
X99764938Y-43233928D02*
X99717319Y-43091071D01*
X99717319Y-43091071D02*
X99717319Y-42995833D01*
X99717319Y-42995833D02*
X99764938Y-42852976D01*
X99764938Y-42852976D02*
X99812557Y-42805357D01*
X99812557Y-42424404D02*
X99764938Y-42376785D01*
X99764938Y-42376785D02*
X99717319Y-42281547D01*
X99717319Y-42281547D02*
X99717319Y-42043452D01*
X99717319Y-42043452D02*
X99764938Y-41948214D01*
X99764938Y-41948214D02*
X99812557Y-41900595D01*
X99812557Y-41900595D02*
X99907795Y-41852976D01*
X99907795Y-41852976D02*
X100003033Y-41852976D01*
X100003033Y-41852976D02*
X100145890Y-41900595D01*
X100145890Y-41900595D02*
X100717319Y-42472023D01*
X100717319Y-42472023D02*
X100717319Y-41852976D01*
X99717319Y-41519642D02*
X99717319Y-40900595D01*
X99717319Y-40900595D02*
X100098271Y-41233928D01*
X100098271Y-41233928D02*
X100098271Y-41091071D01*
X100098271Y-41091071D02*
X100145890Y-40995833D01*
X100145890Y-40995833D02*
X100193509Y-40948214D01*
X100193509Y-40948214D02*
X100288747Y-40900595D01*
X100288747Y-40900595D02*
X100526842Y-40900595D01*
X100526842Y-40900595D02*
X100622080Y-40948214D01*
X100622080Y-40948214D02*
X100669700Y-40995833D01*
X100669700Y-40995833D02*
X100717319Y-41091071D01*
X100717319Y-41091071D02*
X100717319Y-41376785D01*
X100717319Y-41376785D02*
X100669700Y-41472023D01*
X100669700Y-41472023D02*
X100622080Y-41519642D01*
X17639821Y-38633333D02*
X18354106Y-38633333D01*
X18354106Y-38633333D02*
X18496963Y-38680952D01*
X18496963Y-38680952D02*
X18592202Y-38776190D01*
X18592202Y-38776190D02*
X18639821Y-38919047D01*
X18639821Y-38919047D02*
X18639821Y-39014285D01*
X18639821Y-37633333D02*
X18639821Y-38204761D01*
X18639821Y-37919047D02*
X17639821Y-37919047D01*
X17639821Y-37919047D02*
X17782678Y-38014285D01*
X17782678Y-38014285D02*
X17877916Y-38109523D01*
X17877916Y-38109523D02*
X17925535Y-38204761D01*
X19714700Y-45371428D02*
X19714700Y-44228571D01*
X20286128Y-44799999D02*
X19143271Y-44799999D01*
X19514700Y-33171428D02*
X19514700Y-32028571D01*
X40960831Y-46097080D02*
X40913212Y-46144700D01*
X40913212Y-46144700D02*
X40770355Y-46192319D01*
X40770355Y-46192319D02*
X40675117Y-46192319D01*
X40675117Y-46192319D02*
X40532260Y-46144700D01*
X40532260Y-46144700D02*
X40437022Y-46049461D01*
X40437022Y-46049461D02*
X40389403Y-45954223D01*
X40389403Y-45954223D02*
X40341784Y-45763747D01*
X40341784Y-45763747D02*
X40341784Y-45620890D01*
X40341784Y-45620890D02*
X40389403Y-45430414D01*
X40389403Y-45430414D02*
X40437022Y-45335176D01*
X40437022Y-45335176D02*
X40532260Y-45239938D01*
X40532260Y-45239938D02*
X40675117Y-45192319D01*
X40675117Y-45192319D02*
X40770355Y-45192319D01*
X40770355Y-45192319D02*
X40913212Y-45239938D01*
X40913212Y-45239938D02*
X40960831Y-45287557D01*
X41913212Y-46192319D02*
X41341784Y-46192319D01*
X41627498Y-46192319D02*
X41627498Y-45192319D01*
X41627498Y-45192319D02*
X41532260Y-45335176D01*
X41532260Y-45335176D02*
X41437022Y-45430414D01*
X41437022Y-45430414D02*
X41341784Y-45478033D01*
X42722283Y-21042319D02*
X42246093Y-21042319D01*
X42246093Y-21042319D02*
X42246093Y-20042319D01*
X43579426Y-21042319D02*
X43007998Y-21042319D01*
X43293712Y-21042319D02*
X43293712Y-20042319D01*
X43293712Y-20042319D02*
X43198474Y-20185176D01*
X43198474Y-20185176D02*
X43103236Y-20280414D01*
X43103236Y-20280414D02*
X43007998Y-20328033D01*
X84682142Y-46072080D02*
X84634523Y-46119700D01*
X84634523Y-46119700D02*
X84491666Y-46167319D01*
X84491666Y-46167319D02*
X84396428Y-46167319D01*
X84396428Y-46167319D02*
X84253571Y-46119700D01*
X84253571Y-46119700D02*
X84158333Y-46024461D01*
X84158333Y-46024461D02*
X84110714Y-45929223D01*
X84110714Y-45929223D02*
X84063095Y-45738747D01*
X84063095Y-45738747D02*
X84063095Y-45595890D01*
X84063095Y-45595890D02*
X84110714Y-45405414D01*
X84110714Y-45405414D02*
X84158333Y-45310176D01*
X84158333Y-45310176D02*
X84253571Y-45214938D01*
X84253571Y-45214938D02*
X84396428Y-45167319D01*
X84396428Y-45167319D02*
X84491666Y-45167319D01*
X84491666Y-45167319D02*
X84634523Y-45214938D01*
X84634523Y-45214938D02*
X84682142Y-45262557D01*
X85063095Y-45262557D02*
X85110714Y-45214938D01*
X85110714Y-45214938D02*
X85205952Y-45167319D01*
X85205952Y-45167319D02*
X85444047Y-45167319D01*
X85444047Y-45167319D02*
X85539285Y-45214938D01*
X85539285Y-45214938D02*
X85586904Y-45262557D01*
X85586904Y-45262557D02*
X85634523Y-45357795D01*
X85634523Y-45357795D02*
X85634523Y-45453033D01*
X85634523Y-45453033D02*
X85586904Y-45595890D01*
X85586904Y-45595890D02*
X85015476Y-46167319D01*
X85015476Y-46167319D02*
X85634523Y-46167319D01*
X86253571Y-45167319D02*
X86348809Y-45167319D01*
X86348809Y-45167319D02*
X86444047Y-45214938D01*
X86444047Y-45214938D02*
X86491666Y-45262557D01*
X86491666Y-45262557D02*
X86539285Y-45357795D01*
X86539285Y-45357795D02*
X86586904Y-45548271D01*
X86586904Y-45548271D02*
X86586904Y-45786366D01*
X86586904Y-45786366D02*
X86539285Y-45976842D01*
X86539285Y-45976842D02*
X86491666Y-46072080D01*
X86491666Y-46072080D02*
X86444047Y-46119700D01*
X86444047Y-46119700D02*
X86348809Y-46167319D01*
X86348809Y-46167319D02*
X86253571Y-46167319D01*
X86253571Y-46167319D02*
X86158333Y-46119700D01*
X86158333Y-46119700D02*
X86110714Y-46072080D01*
X86110714Y-46072080D02*
X86063095Y-45976842D01*
X86063095Y-45976842D02*
X86015476Y-45786366D01*
X86015476Y-45786366D02*
X86015476Y-45548271D01*
X86015476Y-45548271D02*
X86063095Y-45357795D01*
X86063095Y-45357795D02*
X86110714Y-45262557D01*
X86110714Y-45262557D02*
X86158333Y-45214938D01*
X86158333Y-45214938D02*
X86253571Y-45167319D01*
X55836905Y-22114519D02*
X55836905Y-21114519D01*
X55836905Y-21114519D02*
X56075000Y-21114519D01*
X56075000Y-21114519D02*
X56217857Y-21162138D01*
X56217857Y-21162138D02*
X56313095Y-21257376D01*
X56313095Y-21257376D02*
X56360714Y-21352614D01*
X56360714Y-21352614D02*
X56408333Y-21543090D01*
X56408333Y-21543090D02*
X56408333Y-21685947D01*
X56408333Y-21685947D02*
X56360714Y-21876423D01*
X56360714Y-21876423D02*
X56313095Y-21971661D01*
X56313095Y-21971661D02*
X56217857Y-22066900D01*
X56217857Y-22066900D02*
X56075000Y-22114519D01*
X56075000Y-22114519D02*
X55836905Y-22114519D01*
X56741667Y-21114519D02*
X57360714Y-21114519D01*
X57360714Y-21114519D02*
X57027381Y-21495471D01*
X57027381Y-21495471D02*
X57170238Y-21495471D01*
X57170238Y-21495471D02*
X57265476Y-21543090D01*
X57265476Y-21543090D02*
X57313095Y-21590709D01*
X57313095Y-21590709D02*
X57360714Y-21685947D01*
X57360714Y-21685947D02*
X57360714Y-21924042D01*
X57360714Y-21924042D02*
X57313095Y-22019280D01*
X57313095Y-22019280D02*
X57265476Y-22066900D01*
X57265476Y-22066900D02*
X57170238Y-22114519D01*
X57170238Y-22114519D02*
X56884524Y-22114519D01*
X56884524Y-22114519D02*
X56789286Y-22066900D01*
X56789286Y-22066900D02*
X56741667Y-22019280D01*
X100647080Y-39567857D02*
X100694700Y-39615476D01*
X100694700Y-39615476D02*
X100742319Y-39758333D01*
X100742319Y-39758333D02*
X100742319Y-39853571D01*
X100742319Y-39853571D02*
X100694700Y-39996428D01*
X100694700Y-39996428D02*
X100599461Y-40091666D01*
X100599461Y-40091666D02*
X100504223Y-40139285D01*
X100504223Y-40139285D02*
X100313747Y-40186904D01*
X100313747Y-40186904D02*
X100170890Y-40186904D01*
X100170890Y-40186904D02*
X99980414Y-40139285D01*
X99980414Y-40139285D02*
X99885176Y-40091666D01*
X99885176Y-40091666D02*
X99789938Y-39996428D01*
X99789938Y-39996428D02*
X99742319Y-39853571D01*
X99742319Y-39853571D02*
X99742319Y-39758333D01*
X99742319Y-39758333D02*
X99789938Y-39615476D01*
X99789938Y-39615476D02*
X99837557Y-39567857D01*
X99837557Y-39186904D02*
X99789938Y-39139285D01*
X99789938Y-39139285D02*
X99742319Y-39044047D01*
X99742319Y-39044047D02*
X99742319Y-38805952D01*
X99742319Y-38805952D02*
X99789938Y-38710714D01*
X99789938Y-38710714D02*
X99837557Y-38663095D01*
X99837557Y-38663095D02*
X99932795Y-38615476D01*
X99932795Y-38615476D02*
X100028033Y-38615476D01*
X100028033Y-38615476D02*
X100170890Y-38663095D01*
X100170890Y-38663095D02*
X100742319Y-39234523D01*
X100742319Y-39234523D02*
X100742319Y-38615476D01*
X99837557Y-38234523D02*
X99789938Y-38186904D01*
X99789938Y-38186904D02*
X99742319Y-38091666D01*
X99742319Y-38091666D02*
X99742319Y-37853571D01*
X99742319Y-37853571D02*
X99789938Y-37758333D01*
X99789938Y-37758333D02*
X99837557Y-37710714D01*
X99837557Y-37710714D02*
X99932795Y-37663095D01*
X99932795Y-37663095D02*
X100028033Y-37663095D01*
X100028033Y-37663095D02*
X100170890Y-37710714D01*
X100170890Y-37710714D02*
X100742319Y-38282142D01*
X100742319Y-38282142D02*
X100742319Y-37663095D01*
X72422080Y-27826366D02*
X72469700Y-27873985D01*
X72469700Y-27873985D02*
X72517319Y-28016842D01*
X72517319Y-28016842D02*
X72517319Y-28112080D01*
X72517319Y-28112080D02*
X72469700Y-28254937D01*
X72469700Y-28254937D02*
X72374461Y-28350175D01*
X72374461Y-28350175D02*
X72279223Y-28397794D01*
X72279223Y-28397794D02*
X72088747Y-28445413D01*
X72088747Y-28445413D02*
X71945890Y-28445413D01*
X71945890Y-28445413D02*
X71755414Y-28397794D01*
X71755414Y-28397794D02*
X71660176Y-28350175D01*
X71660176Y-28350175D02*
X71564938Y-28254937D01*
X71564938Y-28254937D02*
X71517319Y-28112080D01*
X71517319Y-28112080D02*
X71517319Y-28016842D01*
X71517319Y-28016842D02*
X71564938Y-27873985D01*
X71564938Y-27873985D02*
X71612557Y-27826366D01*
X71517319Y-26921604D02*
X71517319Y-27397794D01*
X71517319Y-27397794D02*
X71993509Y-27445413D01*
X71993509Y-27445413D02*
X71945890Y-27397794D01*
X71945890Y-27397794D02*
X71898271Y-27302556D01*
X71898271Y-27302556D02*
X71898271Y-27064461D01*
X71898271Y-27064461D02*
X71945890Y-26969223D01*
X71945890Y-26969223D02*
X71993509Y-26921604D01*
X71993509Y-26921604D02*
X72088747Y-26873985D01*
X72088747Y-26873985D02*
X72326842Y-26873985D01*
X72326842Y-26873985D02*
X72422080Y-26921604D01*
X72422080Y-26921604D02*
X72469700Y-26969223D01*
X72469700Y-26969223D02*
X72517319Y-27064461D01*
X72517319Y-27064461D02*
X72517319Y-27302556D01*
X72517319Y-27302556D02*
X72469700Y-27397794D01*
X72469700Y-27397794D02*
X72422080Y-27445413D01*
X34450003Y-33942319D02*
X34450003Y-32942319D01*
X34450003Y-32942319D02*
X34688098Y-32942319D01*
X34688098Y-32942319D02*
X34830955Y-32989938D01*
X34830955Y-32989938D02*
X34926193Y-33085176D01*
X34926193Y-33085176D02*
X34973812Y-33180414D01*
X34973812Y-33180414D02*
X35021431Y-33370890D01*
X35021431Y-33370890D02*
X35021431Y-33513747D01*
X35021431Y-33513747D02*
X34973812Y-33704223D01*
X34973812Y-33704223D02*
X34926193Y-33799461D01*
X34926193Y-33799461D02*
X34830955Y-33894700D01*
X34830955Y-33894700D02*
X34688098Y-33942319D01*
X34688098Y-33942319D02*
X34450003Y-33942319D01*
X35402384Y-33037557D02*
X35450003Y-32989938D01*
X35450003Y-32989938D02*
X35545241Y-32942319D01*
X35545241Y-32942319D02*
X35783336Y-32942319D01*
X35783336Y-32942319D02*
X35878574Y-32989938D01*
X35878574Y-32989938D02*
X35926193Y-33037557D01*
X35926193Y-33037557D02*
X35973812Y-33132795D01*
X35973812Y-33132795D02*
X35973812Y-33228033D01*
X35973812Y-33228033D02*
X35926193Y-33370890D01*
X35926193Y-33370890D02*
X35354765Y-33942319D01*
X35354765Y-33942319D02*
X35973812Y-33942319D01*
X55745833Y-23914519D02*
X55412500Y-23438328D01*
X55174405Y-23914519D02*
X55174405Y-22914519D01*
X55174405Y-22914519D02*
X55555357Y-22914519D01*
X55555357Y-22914519D02*
X55650595Y-22962138D01*
X55650595Y-22962138D02*
X55698214Y-23009757D01*
X55698214Y-23009757D02*
X55745833Y-23104995D01*
X55745833Y-23104995D02*
X55745833Y-23247852D01*
X55745833Y-23247852D02*
X55698214Y-23343090D01*
X55698214Y-23343090D02*
X55650595Y-23390709D01*
X55650595Y-23390709D02*
X55555357Y-23438328D01*
X55555357Y-23438328D02*
X55174405Y-23438328D01*
X56126786Y-23009757D02*
X56174405Y-22962138D01*
X56174405Y-22962138D02*
X56269643Y-22914519D01*
X56269643Y-22914519D02*
X56507738Y-22914519D01*
X56507738Y-22914519D02*
X56602976Y-22962138D01*
X56602976Y-22962138D02*
X56650595Y-23009757D01*
X56650595Y-23009757D02*
X56698214Y-23104995D01*
X56698214Y-23104995D02*
X56698214Y-23200233D01*
X56698214Y-23200233D02*
X56650595Y-23343090D01*
X56650595Y-23343090D02*
X56079167Y-23914519D01*
X56079167Y-23914519D02*
X56698214Y-23914519D01*
X36747080Y-14380357D02*
X36794700Y-14427976D01*
X36794700Y-14427976D02*
X36842319Y-14570833D01*
X36842319Y-14570833D02*
X36842319Y-14666071D01*
X36842319Y-14666071D02*
X36794700Y-14808928D01*
X36794700Y-14808928D02*
X36699461Y-14904166D01*
X36699461Y-14904166D02*
X36604223Y-14951785D01*
X36604223Y-14951785D02*
X36413747Y-14999404D01*
X36413747Y-14999404D02*
X36270890Y-14999404D01*
X36270890Y-14999404D02*
X36080414Y-14951785D01*
X36080414Y-14951785D02*
X35985176Y-14904166D01*
X35985176Y-14904166D02*
X35889938Y-14808928D01*
X35889938Y-14808928D02*
X35842319Y-14666071D01*
X35842319Y-14666071D02*
X35842319Y-14570833D01*
X35842319Y-14570833D02*
X35889938Y-14427976D01*
X35889938Y-14427976D02*
X35937557Y-14380357D01*
X36842319Y-13427976D02*
X36842319Y-13999404D01*
X36842319Y-13713690D02*
X35842319Y-13713690D01*
X35842319Y-13713690D02*
X35985176Y-13808928D01*
X35985176Y-13808928D02*
X36080414Y-13904166D01*
X36080414Y-13904166D02*
X36128033Y-13999404D01*
X35842319Y-13094642D02*
X35842319Y-12475595D01*
X35842319Y-12475595D02*
X36223271Y-12808928D01*
X36223271Y-12808928D02*
X36223271Y-12666071D01*
X36223271Y-12666071D02*
X36270890Y-12570833D01*
X36270890Y-12570833D02*
X36318509Y-12523214D01*
X36318509Y-12523214D02*
X36413747Y-12475595D01*
X36413747Y-12475595D02*
X36651842Y-12475595D01*
X36651842Y-12475595D02*
X36747080Y-12523214D01*
X36747080Y-12523214D02*
X36794700Y-12570833D01*
X36794700Y-12570833D02*
X36842319Y-12666071D01*
X36842319Y-12666071D02*
X36842319Y-12951785D01*
X36842319Y-12951785D02*
X36794700Y-13047023D01*
X36794700Y-13047023D02*
X36747080Y-13094642D01*
X67845833Y-23769280D02*
X67798214Y-23816900D01*
X67798214Y-23816900D02*
X67655357Y-23864519D01*
X67655357Y-23864519D02*
X67560119Y-23864519D01*
X67560119Y-23864519D02*
X67417262Y-23816900D01*
X67417262Y-23816900D02*
X67322024Y-23721661D01*
X67322024Y-23721661D02*
X67274405Y-23626423D01*
X67274405Y-23626423D02*
X67226786Y-23435947D01*
X67226786Y-23435947D02*
X67226786Y-23293090D01*
X67226786Y-23293090D02*
X67274405Y-23102614D01*
X67274405Y-23102614D02*
X67322024Y-23007376D01*
X67322024Y-23007376D02*
X67417262Y-22912138D01*
X67417262Y-22912138D02*
X67560119Y-22864519D01*
X67560119Y-22864519D02*
X67655357Y-22864519D01*
X67655357Y-22864519D02*
X67798214Y-22912138D01*
X67798214Y-22912138D02*
X67845833Y-22959757D01*
X68702976Y-23197852D02*
X68702976Y-23864519D01*
X68464881Y-22816900D02*
X68226786Y-23531185D01*
X68226786Y-23531185D02*
X68845833Y-23531185D01*
X90768452Y-36544700D02*
X90911309Y-36592319D01*
X90911309Y-36592319D02*
X91149404Y-36592319D01*
X91149404Y-36592319D02*
X91244642Y-36544700D01*
X91244642Y-36544700D02*
X91292261Y-36497080D01*
X91292261Y-36497080D02*
X91339880Y-36401842D01*
X91339880Y-36401842D02*
X91339880Y-36306604D01*
X91339880Y-36306604D02*
X91292261Y-36211366D01*
X91292261Y-36211366D02*
X91244642Y-36163747D01*
X91244642Y-36163747D02*
X91149404Y-36116128D01*
X91149404Y-36116128D02*
X90958928Y-36068509D01*
X90958928Y-36068509D02*
X90863690Y-36020890D01*
X90863690Y-36020890D02*
X90816071Y-35973271D01*
X90816071Y-35973271D02*
X90768452Y-35878033D01*
X90768452Y-35878033D02*
X90768452Y-35782795D01*
X90768452Y-35782795D02*
X90816071Y-35687557D01*
X90816071Y-35687557D02*
X90863690Y-35639938D01*
X90863690Y-35639938D02*
X90958928Y-35592319D01*
X90958928Y-35592319D02*
X91197023Y-35592319D01*
X91197023Y-35592319D02*
X91339880Y-35639938D01*
X91673214Y-35592319D02*
X91911309Y-36592319D01*
X91911309Y-36592319D02*
X92101785Y-35878033D01*
X92101785Y-35878033D02*
X92292261Y-36592319D01*
X92292261Y-36592319D02*
X92530357Y-35592319D01*
X92673214Y-36687557D02*
X93435118Y-36687557D01*
X93577976Y-35592319D02*
X94197023Y-35592319D01*
X94197023Y-35592319D02*
X93863690Y-35973271D01*
X93863690Y-35973271D02*
X94006547Y-35973271D01*
X94006547Y-35973271D02*
X94101785Y-36020890D01*
X94101785Y-36020890D02*
X94149404Y-36068509D01*
X94149404Y-36068509D02*
X94197023Y-36163747D01*
X94197023Y-36163747D02*
X94197023Y-36401842D01*
X94197023Y-36401842D02*
X94149404Y-36497080D01*
X94149404Y-36497080D02*
X94101785Y-36544700D01*
X94101785Y-36544700D02*
X94006547Y-36592319D01*
X94006547Y-36592319D02*
X93720833Y-36592319D01*
X93720833Y-36592319D02*
X93625595Y-36544700D01*
X93625595Y-36544700D02*
X93577976Y-36497080D01*
X94482738Y-35592319D02*
X94816071Y-36592319D01*
X94816071Y-36592319D02*
X95149404Y-35592319D01*
X95387500Y-35592319D02*
X96006547Y-35592319D01*
X96006547Y-35592319D02*
X95673214Y-35973271D01*
X95673214Y-35973271D02*
X95816071Y-35973271D01*
X95816071Y-35973271D02*
X95911309Y-36020890D01*
X95911309Y-36020890D02*
X95958928Y-36068509D01*
X95958928Y-36068509D02*
X96006547Y-36163747D01*
X96006547Y-36163747D02*
X96006547Y-36401842D01*
X96006547Y-36401842D02*
X95958928Y-36497080D01*
X95958928Y-36497080D02*
X95911309Y-36544700D01*
X95911309Y-36544700D02*
X95816071Y-36592319D01*
X95816071Y-36592319D02*
X95530357Y-36592319D01*
X95530357Y-36592319D02*
X95435119Y-36544700D01*
X95435119Y-36544700D02*
X95387500Y-36497080D01*
X82108333Y-23619280D02*
X82060714Y-23666900D01*
X82060714Y-23666900D02*
X81917857Y-23714519D01*
X81917857Y-23714519D02*
X81822619Y-23714519D01*
X81822619Y-23714519D02*
X81679762Y-23666900D01*
X81679762Y-23666900D02*
X81584524Y-23571661D01*
X81584524Y-23571661D02*
X81536905Y-23476423D01*
X81536905Y-23476423D02*
X81489286Y-23285947D01*
X81489286Y-23285947D02*
X81489286Y-23143090D01*
X81489286Y-23143090D02*
X81536905Y-22952614D01*
X81536905Y-22952614D02*
X81584524Y-22857376D01*
X81584524Y-22857376D02*
X81679762Y-22762138D01*
X81679762Y-22762138D02*
X81822619Y-22714519D01*
X81822619Y-22714519D02*
X81917857Y-22714519D01*
X81917857Y-22714519D02*
X82060714Y-22762138D01*
X82060714Y-22762138D02*
X82108333Y-22809757D01*
X82965476Y-22714519D02*
X82775000Y-22714519D01*
X82775000Y-22714519D02*
X82679762Y-22762138D01*
X82679762Y-22762138D02*
X82632143Y-22809757D01*
X82632143Y-22809757D02*
X82536905Y-22952614D01*
X82536905Y-22952614D02*
X82489286Y-23143090D01*
X82489286Y-23143090D02*
X82489286Y-23524042D01*
X82489286Y-23524042D02*
X82536905Y-23619280D01*
X82536905Y-23619280D02*
X82584524Y-23666900D01*
X82584524Y-23666900D02*
X82679762Y-23714519D01*
X82679762Y-23714519D02*
X82870238Y-23714519D01*
X82870238Y-23714519D02*
X82965476Y-23666900D01*
X82965476Y-23666900D02*
X83013095Y-23619280D01*
X83013095Y-23619280D02*
X83060714Y-23524042D01*
X83060714Y-23524042D02*
X83060714Y-23285947D01*
X83060714Y-23285947D02*
X83013095Y-23190709D01*
X83013095Y-23190709D02*
X82965476Y-23143090D01*
X82965476Y-23143090D02*
X82870238Y-23095471D01*
X82870238Y-23095471D02*
X82679762Y-23095471D01*
X82679762Y-23095471D02*
X82584524Y-23143090D01*
X82584524Y-23143090D02*
X82536905Y-23190709D01*
X82536905Y-23190709D02*
X82489286Y-23285947D01*
X55138095Y-27402438D02*
X55042857Y-27354819D01*
X55042857Y-27354819D02*
X54900000Y-27354819D01*
X54900000Y-27354819D02*
X54757143Y-27402438D01*
X54757143Y-27402438D02*
X54661905Y-27497676D01*
X54661905Y-27497676D02*
X54614286Y-27592914D01*
X54614286Y-27592914D02*
X54566667Y-27783390D01*
X54566667Y-27783390D02*
X54566667Y-27926247D01*
X54566667Y-27926247D02*
X54614286Y-28116723D01*
X54614286Y-28116723D02*
X54661905Y-28211961D01*
X54661905Y-28211961D02*
X54757143Y-28307200D01*
X54757143Y-28307200D02*
X54900000Y-28354819D01*
X54900000Y-28354819D02*
X54995238Y-28354819D01*
X54995238Y-28354819D02*
X55138095Y-28307200D01*
X55138095Y-28307200D02*
X55185714Y-28259580D01*
X55185714Y-28259580D02*
X55185714Y-27926247D01*
X55185714Y-27926247D02*
X54995238Y-27926247D01*
X55614286Y-28354819D02*
X55614286Y-27354819D01*
X55614286Y-27354819D02*
X56185714Y-28354819D01*
X56185714Y-28354819D02*
X56185714Y-27354819D01*
X56661905Y-28354819D02*
X56661905Y-27354819D01*
X56661905Y-27354819D02*
X56900000Y-27354819D01*
X56900000Y-27354819D02*
X57042857Y-27402438D01*
X57042857Y-27402438D02*
X57138095Y-27497676D01*
X57138095Y-27497676D02*
X57185714Y-27592914D01*
X57185714Y-27592914D02*
X57233333Y-27783390D01*
X57233333Y-27783390D02*
X57233333Y-27926247D01*
X57233333Y-27926247D02*
X57185714Y-28116723D01*
X57185714Y-28116723D02*
X57138095Y-28211961D01*
X57138095Y-28211961D02*
X57042857Y-28307200D01*
X57042857Y-28307200D02*
X56900000Y-28354819D01*
X56900000Y-28354819D02*
X56661905Y-28354819D01*
X77480952Y-39331009D02*
X77147619Y-39331009D01*
X77147619Y-39854819D02*
X77147619Y-38854819D01*
X77147619Y-38854819D02*
X77623809Y-38854819D01*
X78338095Y-39331009D02*
X78480952Y-39378628D01*
X78480952Y-39378628D02*
X78528571Y-39426247D01*
X78528571Y-39426247D02*
X78576190Y-39521485D01*
X78576190Y-39521485D02*
X78576190Y-39664342D01*
X78576190Y-39664342D02*
X78528571Y-39759580D01*
X78528571Y-39759580D02*
X78480952Y-39807200D01*
X78480952Y-39807200D02*
X78385714Y-39854819D01*
X78385714Y-39854819D02*
X78004762Y-39854819D01*
X78004762Y-39854819D02*
X78004762Y-38854819D01*
X78004762Y-38854819D02*
X78338095Y-38854819D01*
X78338095Y-38854819D02*
X78433333Y-38902438D01*
X78433333Y-38902438D02*
X78480952Y-38950057D01*
X78480952Y-38950057D02*
X78528571Y-39045295D01*
X78528571Y-39045295D02*
X78528571Y-39140533D01*
X78528571Y-39140533D02*
X78480952Y-39235771D01*
X78480952Y-39235771D02*
X78433333Y-39283390D01*
X78433333Y-39283390D02*
X78338095Y-39331009D01*
X78338095Y-39331009D02*
X78004762Y-39331009D01*
X78766667Y-39950057D02*
X79528571Y-39950057D01*
X79671429Y-38854819D02*
X80290476Y-38854819D01*
X80290476Y-38854819D02*
X79957143Y-39235771D01*
X79957143Y-39235771D02*
X80100000Y-39235771D01*
X80100000Y-39235771D02*
X80195238Y-39283390D01*
X80195238Y-39283390D02*
X80242857Y-39331009D01*
X80242857Y-39331009D02*
X80290476Y-39426247D01*
X80290476Y-39426247D02*
X80290476Y-39664342D01*
X80290476Y-39664342D02*
X80242857Y-39759580D01*
X80242857Y-39759580D02*
X80195238Y-39807200D01*
X80195238Y-39807200D02*
X80100000Y-39854819D01*
X80100000Y-39854819D02*
X79814286Y-39854819D01*
X79814286Y-39854819D02*
X79719048Y-39807200D01*
X79719048Y-39807200D02*
X79671429Y-39759580D01*
X80576191Y-38854819D02*
X80909524Y-39854819D01*
X80909524Y-39854819D02*
X81242857Y-38854819D01*
X81480953Y-38854819D02*
X82100000Y-38854819D01*
X82100000Y-38854819D02*
X81766667Y-39235771D01*
X81766667Y-39235771D02*
X81909524Y-39235771D01*
X81909524Y-39235771D02*
X82004762Y-39283390D01*
X82004762Y-39283390D02*
X82052381Y-39331009D01*
X82052381Y-39331009D02*
X82100000Y-39426247D01*
X82100000Y-39426247D02*
X82100000Y-39664342D01*
X82100000Y-39664342D02*
X82052381Y-39759580D01*
X82052381Y-39759580D02*
X82004762Y-39807200D01*
X82004762Y-39807200D02*
X81909524Y-39854819D01*
X81909524Y-39854819D02*
X81623810Y-39854819D01*
X81623810Y-39854819D02*
X81528572Y-39807200D01*
X81528572Y-39807200D02*
X81480953Y-39759580D01*
X58019642Y-36972080D02*
X57972023Y-37019700D01*
X57972023Y-37019700D02*
X57829166Y-37067319D01*
X57829166Y-37067319D02*
X57733928Y-37067319D01*
X57733928Y-37067319D02*
X57591071Y-37019700D01*
X57591071Y-37019700D02*
X57495833Y-36924461D01*
X57495833Y-36924461D02*
X57448214Y-36829223D01*
X57448214Y-36829223D02*
X57400595Y-36638747D01*
X57400595Y-36638747D02*
X57400595Y-36495890D01*
X57400595Y-36495890D02*
X57448214Y-36305414D01*
X57448214Y-36305414D02*
X57495833Y-36210176D01*
X57495833Y-36210176D02*
X57591071Y-36114938D01*
X57591071Y-36114938D02*
X57733928Y-36067319D01*
X57733928Y-36067319D02*
X57829166Y-36067319D01*
X57829166Y-36067319D02*
X57972023Y-36114938D01*
X57972023Y-36114938D02*
X58019642Y-36162557D01*
X58972023Y-37067319D02*
X58400595Y-37067319D01*
X58686309Y-37067319D02*
X58686309Y-36067319D01*
X58686309Y-36067319D02*
X58591071Y-36210176D01*
X58591071Y-36210176D02*
X58495833Y-36305414D01*
X58495833Y-36305414D02*
X58400595Y-36353033D01*
X59305357Y-36067319D02*
X59972023Y-36067319D01*
X59972023Y-36067319D02*
X59543452Y-37067319D01*
X21666666Y-45331009D02*
X21333333Y-45331009D01*
X21333333Y-45854819D02*
X21333333Y-44854819D01*
X21333333Y-44854819D02*
X21809523Y-44854819D01*
X22714285Y-45854819D02*
X22142857Y-45854819D01*
X22428571Y-45854819D02*
X22428571Y-44854819D01*
X22428571Y-44854819D02*
X22333333Y-44997676D01*
X22333333Y-44997676D02*
X22238095Y-45092914D01*
X22238095Y-45092914D02*
X22142857Y-45140533D01*
X70524405Y-20114519D02*
X70524405Y-19114519D01*
X70524405Y-19114519D02*
X70762500Y-19114519D01*
X70762500Y-19114519D02*
X70905357Y-19162138D01*
X70905357Y-19162138D02*
X71000595Y-19257376D01*
X71000595Y-19257376D02*
X71048214Y-19352614D01*
X71048214Y-19352614D02*
X71095833Y-19543090D01*
X71095833Y-19543090D02*
X71095833Y-19685947D01*
X71095833Y-19685947D02*
X71048214Y-19876423D01*
X71048214Y-19876423D02*
X71000595Y-19971661D01*
X71000595Y-19971661D02*
X70905357Y-20066900D01*
X70905357Y-20066900D02*
X70762500Y-20114519D01*
X70762500Y-20114519D02*
X70524405Y-20114519D01*
X72000595Y-19114519D02*
X71524405Y-19114519D01*
X71524405Y-19114519D02*
X71476786Y-19590709D01*
X71476786Y-19590709D02*
X71524405Y-19543090D01*
X71524405Y-19543090D02*
X71619643Y-19495471D01*
X71619643Y-19495471D02*
X71857738Y-19495471D01*
X71857738Y-19495471D02*
X71952976Y-19543090D01*
X71952976Y-19543090D02*
X72000595Y-19590709D01*
X72000595Y-19590709D02*
X72048214Y-19685947D01*
X72048214Y-19685947D02*
X72048214Y-19924042D01*
X72048214Y-19924042D02*
X72000595Y-20019280D01*
X72000595Y-20019280D02*
X71952976Y-20066900D01*
X71952976Y-20066900D02*
X71857738Y-20114519D01*
X71857738Y-20114519D02*
X71619643Y-20114519D01*
X71619643Y-20114519D02*
X71524405Y-20066900D01*
X71524405Y-20066900D02*
X71476786Y-20019280D01*
X75447599Y-20204880D02*
X75447599Y-19966785D01*
X75685694Y-20062023D02*
X75447599Y-19966785D01*
X75447599Y-19966785D02*
X75209504Y-20062023D01*
X75590456Y-19776309D02*
X75447599Y-19966785D01*
X75447599Y-19966785D02*
X75304742Y-19776309D01*
X75447600Y-19114519D02*
X75447600Y-19352614D01*
X75209505Y-19257376D02*
X75447600Y-19352614D01*
X75447600Y-19352614D02*
X75685695Y-19257376D01*
X75304743Y-19543090D02*
X75447600Y-19352614D01*
X75447600Y-19352614D02*
X75590457Y-19543090D01*
X35092319Y-14416666D02*
X34616128Y-14749999D01*
X35092319Y-14988094D02*
X34092319Y-14988094D01*
X34092319Y-14988094D02*
X34092319Y-14607142D01*
X34092319Y-14607142D02*
X34139938Y-14511904D01*
X34139938Y-14511904D02*
X34187557Y-14464285D01*
X34187557Y-14464285D02*
X34282795Y-14416666D01*
X34282795Y-14416666D02*
X34425652Y-14416666D01*
X34425652Y-14416666D02*
X34520890Y-14464285D01*
X34520890Y-14464285D02*
X34568509Y-14511904D01*
X34568509Y-14511904D02*
X34616128Y-14607142D01*
X34616128Y-14607142D02*
X34616128Y-14988094D01*
X34092319Y-13559523D02*
X34092319Y-13749999D01*
X34092319Y-13749999D02*
X34139938Y-13845237D01*
X34139938Y-13845237D02*
X34187557Y-13892856D01*
X34187557Y-13892856D02*
X34330414Y-13988094D01*
X34330414Y-13988094D02*
X34520890Y-14035713D01*
X34520890Y-14035713D02*
X34901842Y-14035713D01*
X34901842Y-14035713D02*
X34997080Y-13988094D01*
X34997080Y-13988094D02*
X35044700Y-13940475D01*
X35044700Y-13940475D02*
X35092319Y-13845237D01*
X35092319Y-13845237D02*
X35092319Y-13654761D01*
X35092319Y-13654761D02*
X35044700Y-13559523D01*
X35044700Y-13559523D02*
X34997080Y-13511904D01*
X34997080Y-13511904D02*
X34901842Y-13464285D01*
X34901842Y-13464285D02*
X34663747Y-13464285D01*
X34663747Y-13464285D02*
X34568509Y-13511904D01*
X34568509Y-13511904D02*
X34520890Y-13559523D01*
X34520890Y-13559523D02*
X34473271Y-13654761D01*
X34473271Y-13654761D02*
X34473271Y-13845237D01*
X34473271Y-13845237D02*
X34520890Y-13940475D01*
X34520890Y-13940475D02*
X34568509Y-13988094D01*
X34568509Y-13988094D02*
X34663747Y-14035713D01*
X87629819Y-31650594D02*
X86629819Y-31650594D01*
X86629819Y-31650594D02*
X86629819Y-31412499D01*
X86629819Y-31412499D02*
X86677438Y-31269642D01*
X86677438Y-31269642D02*
X86772676Y-31174404D01*
X86772676Y-31174404D02*
X86867914Y-31126785D01*
X86867914Y-31126785D02*
X87058390Y-31079166D01*
X87058390Y-31079166D02*
X87201247Y-31079166D01*
X87201247Y-31079166D02*
X87391723Y-31126785D01*
X87391723Y-31126785D02*
X87486961Y-31174404D01*
X87486961Y-31174404D02*
X87582200Y-31269642D01*
X87582200Y-31269642D02*
X87629819Y-31412499D01*
X87629819Y-31412499D02*
X87629819Y-31650594D01*
X87058390Y-30507737D02*
X87010771Y-30602975D01*
X87010771Y-30602975D02*
X86963152Y-30650594D01*
X86963152Y-30650594D02*
X86867914Y-30698213D01*
X86867914Y-30698213D02*
X86820295Y-30698213D01*
X86820295Y-30698213D02*
X86725057Y-30650594D01*
X86725057Y-30650594D02*
X86677438Y-30602975D01*
X86677438Y-30602975D02*
X86629819Y-30507737D01*
X86629819Y-30507737D02*
X86629819Y-30317261D01*
X86629819Y-30317261D02*
X86677438Y-30222023D01*
X86677438Y-30222023D02*
X86725057Y-30174404D01*
X86725057Y-30174404D02*
X86820295Y-30126785D01*
X86820295Y-30126785D02*
X86867914Y-30126785D01*
X86867914Y-30126785D02*
X86963152Y-30174404D01*
X86963152Y-30174404D02*
X87010771Y-30222023D01*
X87010771Y-30222023D02*
X87058390Y-30317261D01*
X87058390Y-30317261D02*
X87058390Y-30507737D01*
X87058390Y-30507737D02*
X87106009Y-30602975D01*
X87106009Y-30602975D02*
X87153628Y-30650594D01*
X87153628Y-30650594D02*
X87248866Y-30698213D01*
X87248866Y-30698213D02*
X87439342Y-30698213D01*
X87439342Y-30698213D02*
X87534580Y-30650594D01*
X87534580Y-30650594D02*
X87582200Y-30602975D01*
X87582200Y-30602975D02*
X87629819Y-30507737D01*
X87629819Y-30507737D02*
X87629819Y-30317261D01*
X87629819Y-30317261D02*
X87582200Y-30222023D01*
X87582200Y-30222023D02*
X87534580Y-30174404D01*
X87534580Y-30174404D02*
X87439342Y-30126785D01*
X87439342Y-30126785D02*
X87248866Y-30126785D01*
X87248866Y-30126785D02*
X87153628Y-30174404D01*
X87153628Y-30174404D02*
X87106009Y-30222023D01*
X87106009Y-30222023D02*
X87058390Y-30317261D01*
X102976190Y-36231009D02*
X103309523Y-36231009D01*
X103452380Y-36754819D02*
X102976190Y-36754819D01*
X102976190Y-36754819D02*
X102976190Y-35754819D01*
X102976190Y-35754819D02*
X103452380Y-35754819D01*
X103880952Y-36754819D02*
X103880952Y-35754819D01*
X103880952Y-35754819D02*
X104452380Y-36754819D01*
X104452380Y-36754819D02*
X104452380Y-35754819D01*
X104690476Y-36850057D02*
X105452380Y-36850057D01*
X106166666Y-35754819D02*
X105690476Y-35754819D01*
X105690476Y-35754819D02*
X105642857Y-36231009D01*
X105642857Y-36231009D02*
X105690476Y-36183390D01*
X105690476Y-36183390D02*
X105785714Y-36135771D01*
X105785714Y-36135771D02*
X106023809Y-36135771D01*
X106023809Y-36135771D02*
X106119047Y-36183390D01*
X106119047Y-36183390D02*
X106166666Y-36231009D01*
X106166666Y-36231009D02*
X106214285Y-36326247D01*
X106214285Y-36326247D02*
X106214285Y-36564342D01*
X106214285Y-36564342D02*
X106166666Y-36659580D01*
X106166666Y-36659580D02*
X106119047Y-36707200D01*
X106119047Y-36707200D02*
X106023809Y-36754819D01*
X106023809Y-36754819D02*
X105785714Y-36754819D01*
X105785714Y-36754819D02*
X105690476Y-36707200D01*
X105690476Y-36707200D02*
X105642857Y-36659580D01*
X106500000Y-35754819D02*
X106833333Y-36754819D01*
X106833333Y-36754819D02*
X107166666Y-35754819D01*
X103711905Y-20488152D02*
X104330952Y-20488152D01*
X104330952Y-20488152D02*
X103997619Y-20869104D01*
X103997619Y-20869104D02*
X104140476Y-20869104D01*
X104140476Y-20869104D02*
X104235714Y-20916723D01*
X104235714Y-20916723D02*
X104283333Y-20964342D01*
X104283333Y-20964342D02*
X104330952Y-21059580D01*
X104330952Y-21059580D02*
X104330952Y-21297675D01*
X104330952Y-21297675D02*
X104283333Y-21392913D01*
X104283333Y-21392913D02*
X104235714Y-21440533D01*
X104235714Y-21440533D02*
X104140476Y-21488152D01*
X104140476Y-21488152D02*
X103854762Y-21488152D01*
X103854762Y-21488152D02*
X103759524Y-21440533D01*
X103759524Y-21440533D02*
X103711905Y-21392913D01*
X104616667Y-20488152D02*
X104950000Y-21488152D01*
X104950000Y-21488152D02*
X105283333Y-20488152D01*
X105521429Y-20488152D02*
X106140476Y-20488152D01*
X106140476Y-20488152D02*
X105807143Y-20869104D01*
X105807143Y-20869104D02*
X105950000Y-20869104D01*
X105950000Y-20869104D02*
X106045238Y-20916723D01*
X106045238Y-20916723D02*
X106092857Y-20964342D01*
X106092857Y-20964342D02*
X106140476Y-21059580D01*
X106140476Y-21059580D02*
X106140476Y-21297675D01*
X106140476Y-21297675D02*
X106092857Y-21392913D01*
X106092857Y-21392913D02*
X106045238Y-21440533D01*
X106045238Y-21440533D02*
X105950000Y-21488152D01*
X105950000Y-21488152D02*
X105664286Y-21488152D01*
X105664286Y-21488152D02*
X105569048Y-21440533D01*
X105569048Y-21440533D02*
X105521429Y-21392913D01*
X95841666Y-12467319D02*
X95841666Y-13181604D01*
X95841666Y-13181604D02*
X95794047Y-13324461D01*
X95794047Y-13324461D02*
X95698809Y-13419700D01*
X95698809Y-13419700D02*
X95555952Y-13467319D01*
X95555952Y-13467319D02*
X95460714Y-13467319D01*
X96794047Y-12467319D02*
X96317857Y-12467319D01*
X96317857Y-12467319D02*
X96270238Y-12943509D01*
X96270238Y-12943509D02*
X96317857Y-12895890D01*
X96317857Y-12895890D02*
X96413095Y-12848271D01*
X96413095Y-12848271D02*
X96651190Y-12848271D01*
X96651190Y-12848271D02*
X96746428Y-12895890D01*
X96746428Y-12895890D02*
X96794047Y-12943509D01*
X96794047Y-12943509D02*
X96841666Y-13038747D01*
X96841666Y-13038747D02*
X96841666Y-13276842D01*
X96841666Y-13276842D02*
X96794047Y-13372080D01*
X96794047Y-13372080D02*
X96746428Y-13419700D01*
X96746428Y-13419700D02*
X96651190Y-13467319D01*
X96651190Y-13467319D02*
X96413095Y-13467319D01*
X96413095Y-13467319D02*
X96317857Y-13419700D01*
X96317857Y-13419700D02*
X96270238Y-13372080D01*
X38293335Y-32022080D02*
X38245716Y-32069700D01*
X38245716Y-32069700D02*
X38102859Y-32117319D01*
X38102859Y-32117319D02*
X38007621Y-32117319D01*
X38007621Y-32117319D02*
X37864764Y-32069700D01*
X37864764Y-32069700D02*
X37769526Y-31974461D01*
X37769526Y-31974461D02*
X37721907Y-31879223D01*
X37721907Y-31879223D02*
X37674288Y-31688747D01*
X37674288Y-31688747D02*
X37674288Y-31545890D01*
X37674288Y-31545890D02*
X37721907Y-31355414D01*
X37721907Y-31355414D02*
X37769526Y-31260176D01*
X37769526Y-31260176D02*
X37864764Y-31164938D01*
X37864764Y-31164938D02*
X38007621Y-31117319D01*
X38007621Y-31117319D02*
X38102859Y-31117319D01*
X38102859Y-31117319D02*
X38245716Y-31164938D01*
X38245716Y-31164938D02*
X38293335Y-31212557D01*
X38674288Y-31212557D02*
X38721907Y-31164938D01*
X38721907Y-31164938D02*
X38817145Y-31117319D01*
X38817145Y-31117319D02*
X39055240Y-31117319D01*
X39055240Y-31117319D02*
X39150478Y-31164938D01*
X39150478Y-31164938D02*
X39198097Y-31212557D01*
X39198097Y-31212557D02*
X39245716Y-31307795D01*
X39245716Y-31307795D02*
X39245716Y-31403033D01*
X39245716Y-31403033D02*
X39198097Y-31545890D01*
X39198097Y-31545890D02*
X38626669Y-32117319D01*
X38626669Y-32117319D02*
X39245716Y-32117319D01*
X56879166Y-16590709D02*
X56545833Y-16590709D01*
X56545833Y-17114519D02*
X56545833Y-16114519D01*
X56545833Y-16114519D02*
X57022023Y-16114519D01*
X57355357Y-16209757D02*
X57402976Y-16162138D01*
X57402976Y-16162138D02*
X57498214Y-16114519D01*
X57498214Y-16114519D02*
X57736309Y-16114519D01*
X57736309Y-16114519D02*
X57831547Y-16162138D01*
X57831547Y-16162138D02*
X57879166Y-16209757D01*
X57879166Y-16209757D02*
X57926785Y-16304995D01*
X57926785Y-16304995D02*
X57926785Y-16400233D01*
X57926785Y-16400233D02*
X57879166Y-16543090D01*
X57879166Y-16543090D02*
X57307738Y-17114519D01*
X57307738Y-17114519D02*
X57926785Y-17114519D01*
X64633333Y-41204819D02*
X64157143Y-41204819D01*
X64157143Y-41204819D02*
X64157143Y-40204819D01*
X64919048Y-40300057D02*
X64966667Y-40252438D01*
X64966667Y-40252438D02*
X65061905Y-40204819D01*
X65061905Y-40204819D02*
X65300000Y-40204819D01*
X65300000Y-40204819D02*
X65395238Y-40252438D01*
X65395238Y-40252438D02*
X65442857Y-40300057D01*
X65442857Y-40300057D02*
X65490476Y-40395295D01*
X65490476Y-40395295D02*
X65490476Y-40490533D01*
X65490476Y-40490533D02*
X65442857Y-40633390D01*
X65442857Y-40633390D02*
X64871429Y-41204819D01*
X64871429Y-41204819D02*
X65490476Y-41204819D01*
X33342319Y-14416666D02*
X32866128Y-14749999D01*
X33342319Y-14988094D02*
X32342319Y-14988094D01*
X32342319Y-14988094D02*
X32342319Y-14607142D01*
X32342319Y-14607142D02*
X32389938Y-14511904D01*
X32389938Y-14511904D02*
X32437557Y-14464285D01*
X32437557Y-14464285D02*
X32532795Y-14416666D01*
X32532795Y-14416666D02*
X32675652Y-14416666D01*
X32675652Y-14416666D02*
X32770890Y-14464285D01*
X32770890Y-14464285D02*
X32818509Y-14511904D01*
X32818509Y-14511904D02*
X32866128Y-14607142D01*
X32866128Y-14607142D02*
X32866128Y-14988094D01*
X32342319Y-13511904D02*
X32342319Y-13988094D01*
X32342319Y-13988094D02*
X32818509Y-14035713D01*
X32818509Y-14035713D02*
X32770890Y-13988094D01*
X32770890Y-13988094D02*
X32723271Y-13892856D01*
X32723271Y-13892856D02*
X32723271Y-13654761D01*
X32723271Y-13654761D02*
X32770890Y-13559523D01*
X32770890Y-13559523D02*
X32818509Y-13511904D01*
X32818509Y-13511904D02*
X32913747Y-13464285D01*
X32913747Y-13464285D02*
X33151842Y-13464285D01*
X33151842Y-13464285D02*
X33247080Y-13511904D01*
X33247080Y-13511904D02*
X33294700Y-13559523D01*
X33294700Y-13559523D02*
X33342319Y-13654761D01*
X33342319Y-13654761D02*
X33342319Y-13892856D01*
X33342319Y-13892856D02*
X33294700Y-13988094D01*
X33294700Y-13988094D02*
X33247080Y-14035713D01*
X39680952Y-28294700D02*
X39823809Y-28342319D01*
X39823809Y-28342319D02*
X40061904Y-28342319D01*
X40061904Y-28342319D02*
X40157142Y-28294700D01*
X40157142Y-28294700D02*
X40204761Y-28247080D01*
X40204761Y-28247080D02*
X40252380Y-28151842D01*
X40252380Y-28151842D02*
X40252380Y-28056604D01*
X40252380Y-28056604D02*
X40204761Y-27961366D01*
X40204761Y-27961366D02*
X40157142Y-27913747D01*
X40157142Y-27913747D02*
X40061904Y-27866128D01*
X40061904Y-27866128D02*
X39871428Y-27818509D01*
X39871428Y-27818509D02*
X39776190Y-27770890D01*
X39776190Y-27770890D02*
X39728571Y-27723271D01*
X39728571Y-27723271D02*
X39680952Y-27628033D01*
X39680952Y-27628033D02*
X39680952Y-27532795D01*
X39680952Y-27532795D02*
X39728571Y-27437557D01*
X39728571Y-27437557D02*
X39776190Y-27389938D01*
X39776190Y-27389938D02*
X39871428Y-27342319D01*
X39871428Y-27342319D02*
X40109523Y-27342319D01*
X40109523Y-27342319D02*
X40252380Y-27389938D01*
X40585714Y-27342319D02*
X40823809Y-28342319D01*
X40823809Y-28342319D02*
X41014285Y-27628033D01*
X41014285Y-27628033D02*
X41204761Y-28342319D01*
X41204761Y-28342319D02*
X41442857Y-27342319D01*
X41585714Y-28437557D02*
X42347618Y-28437557D01*
X43109523Y-28342319D02*
X42538095Y-28342319D01*
X42823809Y-28342319D02*
X42823809Y-27342319D01*
X42823809Y-27342319D02*
X42728571Y-27485176D01*
X42728571Y-27485176D02*
X42633333Y-27580414D01*
X42633333Y-27580414D02*
X42538095Y-27628033D01*
X43490476Y-27437557D02*
X43538095Y-27389938D01*
X43538095Y-27389938D02*
X43633333Y-27342319D01*
X43633333Y-27342319D02*
X43871428Y-27342319D01*
X43871428Y-27342319D02*
X43966666Y-27389938D01*
X43966666Y-27389938D02*
X44014285Y-27437557D01*
X44014285Y-27437557D02*
X44061904Y-27532795D01*
X44061904Y-27532795D02*
X44061904Y-27628033D01*
X44061904Y-27628033D02*
X44014285Y-27770890D01*
X44014285Y-27770890D02*
X43442857Y-28342319D01*
X43442857Y-28342319D02*
X44061904Y-28342319D01*
X44347619Y-27342319D02*
X44680952Y-28342319D01*
X44680952Y-28342319D02*
X45014285Y-27342319D01*
X12521320Y-20964342D02*
X12854653Y-20964342D01*
X12997510Y-21488152D02*
X12521320Y-21488152D01*
X12521320Y-21488152D02*
X12521320Y-20488152D01*
X12521320Y-20488152D02*
X12997510Y-20488152D01*
X13426082Y-21488152D02*
X13426082Y-20488152D01*
X13426082Y-20488152D02*
X13997510Y-21488152D01*
X13997510Y-21488152D02*
X13997510Y-20488152D01*
X14235606Y-21583390D02*
X14997510Y-21583390D01*
X15759415Y-21488152D02*
X15187987Y-21488152D01*
X15473701Y-21488152D02*
X15473701Y-20488152D01*
X15473701Y-20488152D02*
X15378463Y-20631009D01*
X15378463Y-20631009D02*
X15283225Y-20726247D01*
X15283225Y-20726247D02*
X15187987Y-20773866D01*
X16140368Y-20583390D02*
X16187987Y-20535771D01*
X16187987Y-20535771D02*
X16283225Y-20488152D01*
X16283225Y-20488152D02*
X16521320Y-20488152D01*
X16521320Y-20488152D02*
X16616558Y-20535771D01*
X16616558Y-20535771D02*
X16664177Y-20583390D01*
X16664177Y-20583390D02*
X16711796Y-20678628D01*
X16711796Y-20678628D02*
X16711796Y-20773866D01*
X16711796Y-20773866D02*
X16664177Y-20916723D01*
X16664177Y-20916723D02*
X16092749Y-21488152D01*
X16092749Y-21488152D02*
X16711796Y-21488152D01*
X16997511Y-20488152D02*
X17330844Y-21488152D01*
X17330844Y-21488152D02*
X17664177Y-20488152D01*
X84167500Y-37566318D02*
X84167500Y-37804413D01*
X83929405Y-37709175D02*
X84167500Y-37804413D01*
X84167500Y-37804413D02*
X84405595Y-37709175D01*
X84024643Y-37994889D02*
X84167500Y-37804413D01*
X84167500Y-37804413D02*
X84310357Y-37994889D01*
X86308333Y-23572080D02*
X86260714Y-23619700D01*
X86260714Y-23619700D02*
X86117857Y-23667319D01*
X86117857Y-23667319D02*
X86022619Y-23667319D01*
X86022619Y-23667319D02*
X85879762Y-23619700D01*
X85879762Y-23619700D02*
X85784524Y-23524461D01*
X85784524Y-23524461D02*
X85736905Y-23429223D01*
X85736905Y-23429223D02*
X85689286Y-23238747D01*
X85689286Y-23238747D02*
X85689286Y-23095890D01*
X85689286Y-23095890D02*
X85736905Y-22905414D01*
X85736905Y-22905414D02*
X85784524Y-22810176D01*
X85784524Y-22810176D02*
X85879762Y-22714938D01*
X85879762Y-22714938D02*
X86022619Y-22667319D01*
X86022619Y-22667319D02*
X86117857Y-22667319D01*
X86117857Y-22667319D02*
X86260714Y-22714938D01*
X86260714Y-22714938D02*
X86308333Y-22762557D01*
X86879762Y-23095890D02*
X86784524Y-23048271D01*
X86784524Y-23048271D02*
X86736905Y-23000652D01*
X86736905Y-23000652D02*
X86689286Y-22905414D01*
X86689286Y-22905414D02*
X86689286Y-22857795D01*
X86689286Y-22857795D02*
X86736905Y-22762557D01*
X86736905Y-22762557D02*
X86784524Y-22714938D01*
X86784524Y-22714938D02*
X86879762Y-22667319D01*
X86879762Y-22667319D02*
X87070238Y-22667319D01*
X87070238Y-22667319D02*
X87165476Y-22714938D01*
X87165476Y-22714938D02*
X87213095Y-22762557D01*
X87213095Y-22762557D02*
X87260714Y-22857795D01*
X87260714Y-22857795D02*
X87260714Y-22905414D01*
X87260714Y-22905414D02*
X87213095Y-23000652D01*
X87213095Y-23000652D02*
X87165476Y-23048271D01*
X87165476Y-23048271D02*
X87070238Y-23095890D01*
X87070238Y-23095890D02*
X86879762Y-23095890D01*
X86879762Y-23095890D02*
X86784524Y-23143509D01*
X86784524Y-23143509D02*
X86736905Y-23191128D01*
X86736905Y-23191128D02*
X86689286Y-23286366D01*
X86689286Y-23286366D02*
X86689286Y-23476842D01*
X86689286Y-23476842D02*
X86736905Y-23572080D01*
X86736905Y-23572080D02*
X86784524Y-23619700D01*
X86784524Y-23619700D02*
X86879762Y-23667319D01*
X86879762Y-23667319D02*
X87070238Y-23667319D01*
X87070238Y-23667319D02*
X87165476Y-23619700D01*
X87165476Y-23619700D02*
X87213095Y-23572080D01*
X87213095Y-23572080D02*
X87260714Y-23476842D01*
X87260714Y-23476842D02*
X87260714Y-23286366D01*
X87260714Y-23286366D02*
X87213095Y-23191128D01*
X87213095Y-23191128D02*
X87165476Y-23143509D01*
X87165476Y-23143509D02*
X87070238Y-23095890D01*
X23080952Y-15331009D02*
X22747619Y-15331009D01*
X22747619Y-15854819D02*
X22747619Y-14854819D01*
X22747619Y-14854819D02*
X23223809Y-14854819D01*
X23938095Y-15331009D02*
X24080952Y-15378628D01*
X24080952Y-15378628D02*
X24128571Y-15426247D01*
X24128571Y-15426247D02*
X24176190Y-15521485D01*
X24176190Y-15521485D02*
X24176190Y-15664342D01*
X24176190Y-15664342D02*
X24128571Y-15759580D01*
X24128571Y-15759580D02*
X24080952Y-15807200D01*
X24080952Y-15807200D02*
X23985714Y-15854819D01*
X23985714Y-15854819D02*
X23604762Y-15854819D01*
X23604762Y-15854819D02*
X23604762Y-14854819D01*
X23604762Y-14854819D02*
X23938095Y-14854819D01*
X23938095Y-14854819D02*
X24033333Y-14902438D01*
X24033333Y-14902438D02*
X24080952Y-14950057D01*
X24080952Y-14950057D02*
X24128571Y-15045295D01*
X24128571Y-15045295D02*
X24128571Y-15140533D01*
X24128571Y-15140533D02*
X24080952Y-15235771D01*
X24080952Y-15235771D02*
X24033333Y-15283390D01*
X24033333Y-15283390D02*
X23938095Y-15331009D01*
X23938095Y-15331009D02*
X23604762Y-15331009D01*
X24366667Y-15950057D02*
X25128571Y-15950057D01*
X25890476Y-15854819D02*
X25319048Y-15854819D01*
X25604762Y-15854819D02*
X25604762Y-14854819D01*
X25604762Y-14854819D02*
X25509524Y-14997676D01*
X25509524Y-14997676D02*
X25414286Y-15092914D01*
X25414286Y-15092914D02*
X25319048Y-15140533D01*
X26271429Y-14950057D02*
X26319048Y-14902438D01*
X26319048Y-14902438D02*
X26414286Y-14854819D01*
X26414286Y-14854819D02*
X26652381Y-14854819D01*
X26652381Y-14854819D02*
X26747619Y-14902438D01*
X26747619Y-14902438D02*
X26795238Y-14950057D01*
X26795238Y-14950057D02*
X26842857Y-15045295D01*
X26842857Y-15045295D02*
X26842857Y-15140533D01*
X26842857Y-15140533D02*
X26795238Y-15283390D01*
X26795238Y-15283390D02*
X26223810Y-15854819D01*
X26223810Y-15854819D02*
X26842857Y-15854819D01*
X27128572Y-14854819D02*
X27461905Y-15854819D01*
X27461905Y-15854819D02*
X27795238Y-14854819D01*
X13378463Y-27954819D02*
X13711796Y-28954819D01*
X13711796Y-28954819D02*
X14045129Y-27954819D01*
X14711796Y-28431009D02*
X14854653Y-28478628D01*
X14854653Y-28478628D02*
X14902272Y-28526247D01*
X14902272Y-28526247D02*
X14949891Y-28621485D01*
X14949891Y-28621485D02*
X14949891Y-28764342D01*
X14949891Y-28764342D02*
X14902272Y-28859580D01*
X14902272Y-28859580D02*
X14854653Y-28907200D01*
X14854653Y-28907200D02*
X14759415Y-28954819D01*
X14759415Y-28954819D02*
X14378463Y-28954819D01*
X14378463Y-28954819D02*
X14378463Y-27954819D01*
X14378463Y-27954819D02*
X14711796Y-27954819D01*
X14711796Y-27954819D02*
X14807034Y-28002438D01*
X14807034Y-28002438D02*
X14854653Y-28050057D01*
X14854653Y-28050057D02*
X14902272Y-28145295D01*
X14902272Y-28145295D02*
X14902272Y-28240533D01*
X14902272Y-28240533D02*
X14854653Y-28335771D01*
X14854653Y-28335771D02*
X14807034Y-28383390D01*
X14807034Y-28383390D02*
X14711796Y-28431009D01*
X14711796Y-28431009D02*
X14378463Y-28431009D01*
X15330844Y-28669104D02*
X15807034Y-28669104D01*
X15235606Y-28954819D02*
X15568939Y-27954819D01*
X15568939Y-27954819D02*
X15902272Y-28954819D01*
X16092749Y-27954819D02*
X16664177Y-27954819D01*
X16378463Y-28954819D02*
X16378463Y-27954819D01*
X56611805Y-20264519D02*
X56611805Y-19264519D01*
X56611805Y-19264519D02*
X56849900Y-19264519D01*
X56849900Y-19264519D02*
X56992757Y-19312138D01*
X56992757Y-19312138D02*
X57087995Y-19407376D01*
X57087995Y-19407376D02*
X57135614Y-19502614D01*
X57135614Y-19502614D02*
X57183233Y-19693090D01*
X57183233Y-19693090D02*
X57183233Y-19835947D01*
X57183233Y-19835947D02*
X57135614Y-20026423D01*
X57135614Y-20026423D02*
X57087995Y-20121661D01*
X57087995Y-20121661D02*
X56992757Y-20216900D01*
X56992757Y-20216900D02*
X56849900Y-20264519D01*
X56849900Y-20264519D02*
X56611805Y-20264519D01*
X58040376Y-19597852D02*
X58040376Y-20264519D01*
X57802281Y-19216900D02*
X57564186Y-19931185D01*
X57564186Y-19931185D02*
X58183233Y-19931185D01*
X61335099Y-20354880D02*
X61335099Y-20116785D01*
X61573194Y-20212023D02*
X61335099Y-20116785D01*
X61335099Y-20116785D02*
X61097004Y-20212023D01*
X61477956Y-19926309D02*
X61335099Y-20116785D01*
X61335099Y-20116785D02*
X61192242Y-19926309D01*
X61335100Y-19264519D02*
X61335100Y-19502614D01*
X61097005Y-19407376D02*
X61335100Y-19502614D01*
X61335100Y-19502614D02*
X61573195Y-19407376D01*
X61192243Y-19693090D02*
X61335100Y-19502614D01*
X61335100Y-19502614D02*
X61477957Y-19693090D01*
X90833333Y-41154819D02*
X90357143Y-41154819D01*
X90357143Y-41154819D02*
X90357143Y-40154819D01*
X91071429Y-40154819D02*
X91690476Y-40154819D01*
X91690476Y-40154819D02*
X91357143Y-40535771D01*
X91357143Y-40535771D02*
X91500000Y-40535771D01*
X91500000Y-40535771D02*
X91595238Y-40583390D01*
X91595238Y-40583390D02*
X91642857Y-40631009D01*
X91642857Y-40631009D02*
X91690476Y-40726247D01*
X91690476Y-40726247D02*
X91690476Y-40964342D01*
X91690476Y-40964342D02*
X91642857Y-41059580D01*
X91642857Y-41059580D02*
X91595238Y-41107200D01*
X91595238Y-41107200D02*
X91500000Y-41154819D01*
X91500000Y-41154819D02*
X91214286Y-41154819D01*
X91214286Y-41154819D02*
X91119048Y-41107200D01*
X91119048Y-41107200D02*
X91071429Y-41059580D01*
X49357142Y-17359580D02*
X49309523Y-17407200D01*
X49309523Y-17407200D02*
X49166666Y-17454819D01*
X49166666Y-17454819D02*
X49071428Y-17454819D01*
X49071428Y-17454819D02*
X48928571Y-17407200D01*
X48928571Y-17407200D02*
X48833333Y-17311961D01*
X48833333Y-17311961D02*
X48785714Y-17216723D01*
X48785714Y-17216723D02*
X48738095Y-17026247D01*
X48738095Y-17026247D02*
X48738095Y-16883390D01*
X48738095Y-16883390D02*
X48785714Y-16692914D01*
X48785714Y-16692914D02*
X48833333Y-16597676D01*
X48833333Y-16597676D02*
X48928571Y-16502438D01*
X48928571Y-16502438D02*
X49071428Y-16454819D01*
X49071428Y-16454819D02*
X49166666Y-16454819D01*
X49166666Y-16454819D02*
X49309523Y-16502438D01*
X49309523Y-16502438D02*
X49357142Y-16550057D01*
X50309523Y-17454819D02*
X49738095Y-17454819D01*
X50023809Y-17454819D02*
X50023809Y-16454819D01*
X50023809Y-16454819D02*
X49928571Y-16597676D01*
X49928571Y-16597676D02*
X49833333Y-16692914D01*
X49833333Y-16692914D02*
X49738095Y-16740533D01*
X51214285Y-16454819D02*
X50738095Y-16454819D01*
X50738095Y-16454819D02*
X50690476Y-16931009D01*
X50690476Y-16931009D02*
X50738095Y-16883390D01*
X50738095Y-16883390D02*
X50833333Y-16835771D01*
X50833333Y-16835771D02*
X51071428Y-16835771D01*
X51071428Y-16835771D02*
X51166666Y-16883390D01*
X51166666Y-16883390D02*
X51214285Y-16931009D01*
X51214285Y-16931009D02*
X51261904Y-17026247D01*
X51261904Y-17026247D02*
X51261904Y-17264342D01*
X51261904Y-17264342D02*
X51214285Y-17359580D01*
X51214285Y-17359580D02*
X51166666Y-17407200D01*
X51166666Y-17407200D02*
X51071428Y-17454819D01*
X51071428Y-17454819D02*
X50833333Y-17454819D01*
X50833333Y-17454819D02*
X50738095Y-17407200D01*
X50738095Y-17407200D02*
X50690476Y-17359580D01*
X36659580Y-29392857D02*
X36707200Y-29440476D01*
X36707200Y-29440476D02*
X36754819Y-29583333D01*
X36754819Y-29583333D02*
X36754819Y-29678571D01*
X36754819Y-29678571D02*
X36707200Y-29821428D01*
X36707200Y-29821428D02*
X36611961Y-29916666D01*
X36611961Y-29916666D02*
X36516723Y-29964285D01*
X36516723Y-29964285D02*
X36326247Y-30011904D01*
X36326247Y-30011904D02*
X36183390Y-30011904D01*
X36183390Y-30011904D02*
X35992914Y-29964285D01*
X35992914Y-29964285D02*
X35897676Y-29916666D01*
X35897676Y-29916666D02*
X35802438Y-29821428D01*
X35802438Y-29821428D02*
X35754819Y-29678571D01*
X35754819Y-29678571D02*
X35754819Y-29583333D01*
X35754819Y-29583333D02*
X35802438Y-29440476D01*
X35802438Y-29440476D02*
X35850057Y-29392857D01*
X36754819Y-28440476D02*
X36754819Y-29011904D01*
X36754819Y-28726190D02*
X35754819Y-28726190D01*
X35754819Y-28726190D02*
X35897676Y-28821428D01*
X35897676Y-28821428D02*
X35992914Y-28916666D01*
X35992914Y-28916666D02*
X36040533Y-29011904D01*
X35754819Y-27821428D02*
X35754819Y-27726190D01*
X35754819Y-27726190D02*
X35802438Y-27630952D01*
X35802438Y-27630952D02*
X35850057Y-27583333D01*
X35850057Y-27583333D02*
X35945295Y-27535714D01*
X35945295Y-27535714D02*
X36135771Y-27488095D01*
X36135771Y-27488095D02*
X36373866Y-27488095D01*
X36373866Y-27488095D02*
X36564342Y-27535714D01*
X36564342Y-27535714D02*
X36659580Y-27583333D01*
X36659580Y-27583333D02*
X36707200Y-27630952D01*
X36707200Y-27630952D02*
X36754819Y-27726190D01*
X36754819Y-27726190D02*
X36754819Y-27821428D01*
X36754819Y-27821428D02*
X36707200Y-27916666D01*
X36707200Y-27916666D02*
X36659580Y-27964285D01*
X36659580Y-27964285D02*
X36564342Y-28011904D01*
X36564342Y-28011904D02*
X36373866Y-28059523D01*
X36373866Y-28059523D02*
X36135771Y-28059523D01*
X36135771Y-28059523D02*
X35945295Y-28011904D01*
X35945295Y-28011904D02*
X35850057Y-27964285D01*
X35850057Y-27964285D02*
X35802438Y-27916666D01*
X35802438Y-27916666D02*
X35754819Y-27821428D01*
X92558333Y-31970830D02*
X92510714Y-32018450D01*
X92510714Y-32018450D02*
X92367857Y-32066069D01*
X92367857Y-32066069D02*
X92272619Y-32066069D01*
X92272619Y-32066069D02*
X92129762Y-32018450D01*
X92129762Y-32018450D02*
X92034524Y-31923211D01*
X92034524Y-31923211D02*
X91986905Y-31827973D01*
X91986905Y-31827973D02*
X91939286Y-31637497D01*
X91939286Y-31637497D02*
X91939286Y-31494640D01*
X91939286Y-31494640D02*
X91986905Y-31304164D01*
X91986905Y-31304164D02*
X92034524Y-31208926D01*
X92034524Y-31208926D02*
X92129762Y-31113688D01*
X92129762Y-31113688D02*
X92272619Y-31066069D01*
X92272619Y-31066069D02*
X92367857Y-31066069D01*
X92367857Y-31066069D02*
X92510714Y-31113688D01*
X92510714Y-31113688D02*
X92558333Y-31161307D01*
X92891667Y-31066069D02*
X93558333Y-31066069D01*
X93558333Y-31066069D02*
X93129762Y-32066069D01*
X98794642Y-23572080D02*
X98747023Y-23619700D01*
X98747023Y-23619700D02*
X98604166Y-23667319D01*
X98604166Y-23667319D02*
X98508928Y-23667319D01*
X98508928Y-23667319D02*
X98366071Y-23619700D01*
X98366071Y-23619700D02*
X98270833Y-23524461D01*
X98270833Y-23524461D02*
X98223214Y-23429223D01*
X98223214Y-23429223D02*
X98175595Y-23238747D01*
X98175595Y-23238747D02*
X98175595Y-23095890D01*
X98175595Y-23095890D02*
X98223214Y-22905414D01*
X98223214Y-22905414D02*
X98270833Y-22810176D01*
X98270833Y-22810176D02*
X98366071Y-22714938D01*
X98366071Y-22714938D02*
X98508928Y-22667319D01*
X98508928Y-22667319D02*
X98604166Y-22667319D01*
X98604166Y-22667319D02*
X98747023Y-22714938D01*
X98747023Y-22714938D02*
X98794642Y-22762557D01*
X99175595Y-22762557D02*
X99223214Y-22714938D01*
X99223214Y-22714938D02*
X99318452Y-22667319D01*
X99318452Y-22667319D02*
X99556547Y-22667319D01*
X99556547Y-22667319D02*
X99651785Y-22714938D01*
X99651785Y-22714938D02*
X99699404Y-22762557D01*
X99699404Y-22762557D02*
X99747023Y-22857795D01*
X99747023Y-22857795D02*
X99747023Y-22953033D01*
X99747023Y-22953033D02*
X99699404Y-23095890D01*
X99699404Y-23095890D02*
X99127976Y-23667319D01*
X99127976Y-23667319D02*
X99747023Y-23667319D01*
X100604166Y-23000652D02*
X100604166Y-23667319D01*
X100366071Y-22619700D02*
X100127976Y-23333985D01*
X100127976Y-23333985D02*
X100747023Y-23333985D01*
X104809523Y-30688152D02*
X104333333Y-30688152D01*
X104333333Y-30688152D02*
X104285714Y-31164342D01*
X104285714Y-31164342D02*
X104333333Y-31116723D01*
X104333333Y-31116723D02*
X104428571Y-31069104D01*
X104428571Y-31069104D02*
X104666666Y-31069104D01*
X104666666Y-31069104D02*
X104761904Y-31116723D01*
X104761904Y-31116723D02*
X104809523Y-31164342D01*
X104809523Y-31164342D02*
X104857142Y-31259580D01*
X104857142Y-31259580D02*
X104857142Y-31497675D01*
X104857142Y-31497675D02*
X104809523Y-31592913D01*
X104809523Y-31592913D02*
X104761904Y-31640533D01*
X104761904Y-31640533D02*
X104666666Y-31688152D01*
X104666666Y-31688152D02*
X104428571Y-31688152D01*
X104428571Y-31688152D02*
X104333333Y-31640533D01*
X104333333Y-31640533D02*
X104285714Y-31592913D01*
X105142857Y-30688152D02*
X105476190Y-31688152D01*
X105476190Y-31688152D02*
X105809523Y-30688152D01*
X83542966Y-27193509D02*
X83209633Y-27193509D01*
X83209633Y-27717319D02*
X83209633Y-26717319D01*
X83209633Y-26717319D02*
X83685823Y-26717319D01*
X84542966Y-26717319D02*
X84066776Y-26717319D01*
X84066776Y-26717319D02*
X84019157Y-27193509D01*
X84019157Y-27193509D02*
X84066776Y-27145890D01*
X84066776Y-27145890D02*
X84162014Y-27098271D01*
X84162014Y-27098271D02*
X84400109Y-27098271D01*
X84400109Y-27098271D02*
X84495347Y-27145890D01*
X84495347Y-27145890D02*
X84542966Y-27193509D01*
X84542966Y-27193509D02*
X84590585Y-27288747D01*
X84590585Y-27288747D02*
X84590585Y-27526842D01*
X84590585Y-27526842D02*
X84542966Y-27622080D01*
X84542966Y-27622080D02*
X84495347Y-27669700D01*
X84495347Y-27669700D02*
X84400109Y-27717319D01*
X84400109Y-27717319D02*
X84162014Y-27717319D01*
X84162014Y-27717319D02*
X84066776Y-27669700D01*
X84066776Y-27669700D02*
X84019157Y-27622080D01*
X31792319Y-16679166D02*
X31316128Y-17012499D01*
X31792319Y-17250594D02*
X30792319Y-17250594D01*
X30792319Y-17250594D02*
X30792319Y-16869642D01*
X30792319Y-16869642D02*
X30839938Y-16774404D01*
X30839938Y-16774404D02*
X30887557Y-16726785D01*
X30887557Y-16726785D02*
X30982795Y-16679166D01*
X30982795Y-16679166D02*
X31125652Y-16679166D01*
X31125652Y-16679166D02*
X31220890Y-16726785D01*
X31220890Y-16726785D02*
X31268509Y-16774404D01*
X31268509Y-16774404D02*
X31316128Y-16869642D01*
X31316128Y-16869642D02*
X31316128Y-17250594D01*
X30792319Y-16345832D02*
X30792319Y-15679166D01*
X30792319Y-15679166D02*
X31792319Y-16107737D01*
D12*
%TO.C,FB_5V1*%
X52400000Y-42000000D02*
G75*
G02*
X51000000Y-42000000I-700000J0D01*
G01*
X51000000Y-42000000D02*
G75*
G02*
X52400000Y-42000000I700000J0D01*
G01*
D13*
%TO.C,G\u002A\u002A\u002A*%
G36*
X52936419Y-32446170D02*
G01*
X52969921Y-32537741D01*
X53000868Y-32621568D01*
X53028005Y-32694311D01*
X53050076Y-32752631D01*
X53065827Y-32793188D01*
X53074002Y-32812641D01*
X53074458Y-32813470D01*
X53081851Y-32816841D01*
X53100580Y-32819755D01*
X53132192Y-32822239D01*
X53178233Y-32824322D01*
X53240250Y-32826032D01*
X53319788Y-32827396D01*
X53418394Y-32828443D01*
X53537615Y-32829200D01*
X53678997Y-32829695D01*
X53844087Y-32829956D01*
X53991783Y-32830015D01*
X54898835Y-32830015D01*
X54889901Y-32886269D01*
X54882113Y-32927801D01*
X54870196Y-32983142D01*
X54856697Y-33040482D01*
X54856372Y-33041792D01*
X54848221Y-33075963D01*
X54835063Y-33132699D01*
X54817643Y-33208725D01*
X54796703Y-33300766D01*
X54772989Y-33405549D01*
X54747244Y-33519798D01*
X54720212Y-33640238D01*
X54706034Y-33703595D01*
X54673547Y-33848938D01*
X54637683Y-34009397D01*
X54600005Y-34177975D01*
X54562079Y-34347675D01*
X54525468Y-34511500D01*
X54491735Y-34662453D01*
X54466426Y-34775716D01*
X54438723Y-34899332D01*
X54413023Y-35013044D01*
X54388662Y-35119520D01*
X54364977Y-35221427D01*
X54341303Y-35321431D01*
X54316975Y-35422202D01*
X54291331Y-35526404D01*
X54263705Y-35636707D01*
X54233434Y-35755776D01*
X54199853Y-35886280D01*
X54162299Y-36030885D01*
X54120107Y-36192259D01*
X54072613Y-36373069D01*
X54019153Y-36575982D01*
X54001737Y-36642001D01*
X53951089Y-36833812D01*
X53906579Y-37001780D01*
X53867626Y-37147664D01*
X53833649Y-37273225D01*
X53804066Y-37380224D01*
X53778295Y-37470421D01*
X53755754Y-37545579D01*
X53735863Y-37607456D01*
X53718039Y-37657814D01*
X53701701Y-37698413D01*
X53686267Y-37731015D01*
X53671155Y-37757380D01*
X53655785Y-37779269D01*
X53639575Y-37798442D01*
X53621942Y-37816660D01*
X53609830Y-37828450D01*
X53552739Y-37877357D01*
X53488060Y-37920290D01*
X53413211Y-37958072D01*
X53325611Y-37991525D01*
X53222678Y-38021473D01*
X53101831Y-38048740D01*
X52960488Y-38074147D01*
X52796069Y-38098519D01*
X52739030Y-38106120D01*
X52696697Y-38111013D01*
X52648959Y-38115204D01*
X52593441Y-38118758D01*
X52527766Y-38121738D01*
X52449558Y-38124207D01*
X52356441Y-38126231D01*
X52246039Y-38127872D01*
X52115975Y-38129195D01*
X51963873Y-38130264D01*
X51812506Y-38131033D01*
X51671340Y-38131568D01*
X51536837Y-38131910D01*
X51411556Y-38132061D01*
X51298055Y-38132028D01*
X51198893Y-38131814D01*
X51116627Y-38131426D01*
X51053818Y-38130866D01*
X51013022Y-38130142D01*
X50998488Y-38129499D01*
X50881367Y-38118487D01*
X50785333Y-38108961D01*
X50705087Y-38100289D01*
X50635331Y-38091839D01*
X50570765Y-38082975D01*
X50506090Y-38073066D01*
X50452168Y-38064204D01*
X50302700Y-38035488D01*
X50176316Y-38002922D01*
X50069753Y-37965215D01*
X49979745Y-37921076D01*
X49903030Y-37869213D01*
X49856349Y-37828450D01*
X49837520Y-37809929D01*
X49820481Y-37791563D01*
X49804648Y-37771592D01*
X49789442Y-37748254D01*
X49774279Y-37719790D01*
X49758579Y-37684439D01*
X49741759Y-37640439D01*
X49723239Y-37586030D01*
X49702437Y-37519452D01*
X49678771Y-37438943D01*
X49651659Y-37342743D01*
X49620520Y-37229091D01*
X49584772Y-37096226D01*
X49543834Y-36942389D01*
X49497124Y-36765817D01*
X49464442Y-36642001D01*
X49409050Y-36431890D01*
X49359825Y-36244687D01*
X49316102Y-36077725D01*
X49277217Y-35928337D01*
X49242506Y-35793857D01*
X49211306Y-35671616D01*
X49182951Y-35558947D01*
X49177468Y-35536790D01*
X49482959Y-35536790D01*
X49489577Y-35543408D01*
X49496195Y-35536790D01*
X49489577Y-35530172D01*
X49482959Y-35536790D01*
X49177468Y-35536790D01*
X49156778Y-35453183D01*
X49132123Y-35351658D01*
X49108322Y-35251703D01*
X49084710Y-35150651D01*
X49060623Y-35045836D01*
X49039140Y-34951094D01*
X49416835Y-34951094D01*
X49423255Y-34974384D01*
X49441014Y-35016460D01*
X49467989Y-35073318D01*
X49502057Y-35140952D01*
X49541094Y-35215355D01*
X49582978Y-35292522D01*
X49625585Y-35368447D01*
X49666791Y-35439123D01*
X49704474Y-35500545D01*
X49723759Y-35530172D01*
X49770938Y-35599161D01*
X49808645Y-35650262D01*
X49841065Y-35688265D01*
X49872382Y-35717962D01*
X49906779Y-35744142D01*
X49916399Y-35750732D01*
X50023300Y-35811857D01*
X50134380Y-35851977D01*
X50247169Y-35873199D01*
X50327450Y-35879270D01*
X50427025Y-35880796D01*
X50539142Y-35877959D01*
X50657048Y-35870938D01*
X50773992Y-35859916D01*
X50783402Y-35858832D01*
X50838071Y-35851692D01*
X50881254Y-35844631D01*
X50907324Y-35838651D01*
X50912429Y-35835862D01*
X50905304Y-35818145D01*
X50885858Y-35783132D01*
X50856912Y-35735244D01*
X50821288Y-35678899D01*
X50781804Y-35618516D01*
X50741283Y-35558515D01*
X50702544Y-35503315D01*
X50683723Y-35477547D01*
X50630409Y-35409892D01*
X50568928Y-35338505D01*
X50502785Y-35266832D01*
X50435482Y-35198320D01*
X50370523Y-35136415D01*
X50311410Y-35084564D01*
X50261646Y-35046214D01*
X50224736Y-35024810D01*
X50222791Y-35024061D01*
X50175445Y-35010870D01*
X50105610Y-34997290D01*
X50017251Y-34983851D01*
X49914336Y-34971087D01*
X49800829Y-34959528D01*
X49680698Y-34949706D01*
X49655028Y-34947916D01*
X49570458Y-34942227D01*
X49508715Y-34938331D01*
X49466211Y-34936275D01*
X49439358Y-34936108D01*
X49424570Y-34937877D01*
X49418258Y-34941630D01*
X49416835Y-34947415D01*
X49416835Y-34951094D01*
X49039140Y-34951094D01*
X49038306Y-34947415D01*
X49035398Y-34934591D01*
X49008370Y-34814247D01*
X48999754Y-34775716D01*
X48969709Y-34641262D01*
X48935453Y-34487970D01*
X48898549Y-34322838D01*
X48860561Y-34152863D01*
X48857393Y-34138688D01*
X49165294Y-34138688D01*
X49168430Y-34161862D01*
X49176848Y-34203566D01*
X49189058Y-34256736D01*
X49196670Y-34287594D01*
X49214109Y-34358479D01*
X49232350Y-34435657D01*
X49248056Y-34504949D01*
X49251199Y-34519397D01*
X49262946Y-34570917D01*
X49273758Y-34612936D01*
X49281754Y-34638293D01*
X49283308Y-34641560D01*
X49298441Y-34648306D01*
X49335645Y-34658921D01*
X49390962Y-34672452D01*
X49460433Y-34687948D01*
X49540101Y-34704457D01*
X49567077Y-34709794D01*
X49750577Y-34747871D01*
X49910627Y-34786024D01*
X50050230Y-34825265D01*
X50172391Y-34866601D01*
X50280116Y-34911044D01*
X50376408Y-34959604D01*
X50458345Y-35009350D01*
X50567099Y-35092277D01*
X50680181Y-35200327D01*
X50797753Y-35333696D01*
X50919983Y-35492576D01*
X51047034Y-35677161D01*
X51104691Y-35766866D01*
X51155631Y-35849378D01*
X51192206Y-35913280D01*
X51215522Y-35961445D01*
X51226684Y-35996744D01*
X51226798Y-36022050D01*
X51216967Y-36040235D01*
X51211751Y-36045145D01*
X51187715Y-36054276D01*
X51141140Y-36062570D01*
X51075948Y-36069907D01*
X50996062Y-36076169D01*
X50905405Y-36081237D01*
X50807901Y-36084990D01*
X50707471Y-36087310D01*
X50608039Y-36088078D01*
X50513528Y-36087174D01*
X50427861Y-36084480D01*
X50354960Y-36079875D01*
X50298748Y-36073241D01*
X50296977Y-36072944D01*
X50126512Y-36034272D01*
X49975058Y-35978649D01*
X49840128Y-35904571D01*
X49719234Y-35810533D01*
X49609889Y-35695031D01*
X49555774Y-35624606D01*
X49529845Y-35589829D01*
X49510515Y-35566362D01*
X49502259Y-35559405D01*
X49504197Y-35573099D01*
X49512338Y-35609373D01*
X49525909Y-35665268D01*
X49544141Y-35737825D01*
X49566263Y-35824086D01*
X49591503Y-35921092D01*
X49619092Y-36025886D01*
X49648259Y-36135510D01*
X49678233Y-36247003D01*
X49708243Y-36357410D01*
X49737519Y-36463770D01*
X49742905Y-36483168D01*
X49801269Y-36688697D01*
X49855672Y-36870793D01*
X49907009Y-37032046D01*
X49956177Y-37175045D01*
X50004072Y-37302380D01*
X50051592Y-37416640D01*
X50099632Y-37520415D01*
X50107592Y-37536552D01*
X50150085Y-37621934D01*
X50243385Y-37649763D01*
X50523277Y-37720815D01*
X50807471Y-37767802D01*
X50985252Y-37785108D01*
X51010568Y-37785946D01*
X51059739Y-37786633D01*
X51130151Y-37787162D01*
X51219189Y-37787528D01*
X51324236Y-37787725D01*
X51442677Y-37787747D01*
X51571897Y-37787590D01*
X51709280Y-37787247D01*
X51812506Y-37786878D01*
X51982292Y-37786083D01*
X52127993Y-37785120D01*
X52251997Y-37783924D01*
X52356692Y-37782429D01*
X52444465Y-37780569D01*
X52517704Y-37778277D01*
X52578795Y-37775490D01*
X52630127Y-37772139D01*
X52674087Y-37768161D01*
X52713063Y-37763488D01*
X52725794Y-37761702D01*
X52927459Y-37725295D01*
X53138526Y-37673884D01*
X53222794Y-37649779D01*
X53316094Y-37621934D01*
X53358587Y-37536552D01*
X53406797Y-37434244D01*
X53454341Y-37321874D01*
X53502114Y-37196852D01*
X53551012Y-37056590D01*
X53601934Y-36898496D01*
X53655774Y-36719983D01*
X53713430Y-36518460D01*
X53723275Y-36483168D01*
X53752325Y-36377905D01*
X53782256Y-36268036D01*
X53812296Y-36156521D01*
X53841674Y-36046318D01*
X53869620Y-35940385D01*
X53895363Y-35841680D01*
X53918133Y-35753162D01*
X53937159Y-35677789D01*
X53951670Y-35618520D01*
X53960896Y-35578313D01*
X53964065Y-35560125D01*
X53963921Y-35559405D01*
X53954908Y-35567200D01*
X53935137Y-35591372D01*
X53910405Y-35624606D01*
X53806171Y-35752093D01*
X53691708Y-35857319D01*
X53564526Y-35941787D01*
X53422138Y-36007002D01*
X53262058Y-36054470D01*
X53169202Y-36072944D01*
X53113709Y-36079659D01*
X53041376Y-36084339D01*
X52956125Y-36087105D01*
X52861881Y-36088075D01*
X52762566Y-36087369D01*
X52662102Y-36085106D01*
X52564413Y-36081406D01*
X52473421Y-36076386D01*
X52393050Y-36070168D01*
X52327222Y-36062869D01*
X52279860Y-36054610D01*
X52254887Y-36045509D01*
X52254428Y-36045145D01*
X52241570Y-36028673D01*
X52238293Y-36006024D01*
X52245701Y-35974327D01*
X52264900Y-35930708D01*
X52296995Y-35872296D01*
X52318788Y-35836328D01*
X52553751Y-35836328D01*
X52566048Y-35840894D01*
X52599463Y-35846987D01*
X52648743Y-35853778D01*
X52702631Y-35859833D01*
X52767791Y-35866497D01*
X52827812Y-35872687D01*
X52875040Y-35877612D01*
X52897863Y-35880042D01*
X52942864Y-35882266D01*
X53006134Y-35881965D01*
X53079629Y-35879529D01*
X53155306Y-35875350D01*
X53225123Y-35869819D01*
X53281037Y-35863327D01*
X53297361Y-35860615D01*
X53371880Y-35839646D01*
X53454395Y-35805447D01*
X53533760Y-35763073D01*
X53579662Y-35732597D01*
X53616293Y-35698027D01*
X53661788Y-35643064D01*
X53713791Y-35571294D01*
X53736588Y-35536790D01*
X53969984Y-35536790D01*
X53976602Y-35543408D01*
X53983220Y-35536790D01*
X53976602Y-35530172D01*
X53969984Y-35536790D01*
X53736588Y-35536790D01*
X53769948Y-35486299D01*
X53827903Y-35391665D01*
X53885301Y-35290976D01*
X53939787Y-35187815D01*
X53946821Y-35173835D01*
X53980416Y-35105700D01*
X54009394Y-35045124D01*
X54031808Y-34996324D01*
X54045712Y-34963516D01*
X54049400Y-34951613D01*
X54049080Y-34944605D01*
X54045726Y-34939700D01*
X54035751Y-34936841D01*
X54015567Y-34935973D01*
X53981584Y-34937040D01*
X53930215Y-34939987D01*
X53857871Y-34944758D01*
X53811151Y-34947916D01*
X53690134Y-34957305D01*
X53574909Y-34968544D01*
X53469443Y-34981100D01*
X53377702Y-34994441D01*
X53303652Y-35008036D01*
X53251260Y-35021352D01*
X53243388Y-35024061D01*
X53207473Y-35044194D01*
X53158468Y-35081507D01*
X53099877Y-35132554D01*
X53035202Y-35193888D01*
X52967947Y-35262062D01*
X52901615Y-35333630D01*
X52839709Y-35405145D01*
X52785732Y-35473161D01*
X52782456Y-35477547D01*
X52745353Y-35529039D01*
X52705130Y-35587491D01*
X52664597Y-35648494D01*
X52626566Y-35707638D01*
X52593849Y-35760512D01*
X52569256Y-35802707D01*
X52555600Y-35829811D01*
X52553751Y-35836328D01*
X52318788Y-35836328D01*
X52343091Y-35796218D01*
X52361488Y-35766866D01*
X52490720Y-35570873D01*
X52615057Y-35400670D01*
X52734665Y-35256065D01*
X52849708Y-35136862D01*
X52960352Y-35042870D01*
X53007835Y-35009350D01*
X53096191Y-34956056D01*
X53193184Y-34907817D01*
X53301820Y-34863624D01*
X53425103Y-34822466D01*
X53566037Y-34783335D01*
X53727628Y-34745219D01*
X53899103Y-34709794D01*
X53981195Y-34693162D01*
X54054356Y-34677238D01*
X54114629Y-34662975D01*
X54158054Y-34651324D01*
X54180674Y-34643238D01*
X54182871Y-34641560D01*
X54189668Y-34622528D01*
X54199840Y-34584710D01*
X54211506Y-34535264D01*
X54214980Y-34519397D01*
X54229530Y-34454296D01*
X54247449Y-34377762D01*
X54265402Y-34303972D01*
X54269509Y-34287594D01*
X54283143Y-34231179D01*
X54293785Y-34182432D01*
X54299945Y-34148417D01*
X54300885Y-34138688D01*
X54300336Y-34135732D01*
X54297956Y-34133021D01*
X54292650Y-34130544D01*
X54283322Y-34128291D01*
X54268875Y-34126251D01*
X54248215Y-34124413D01*
X54220244Y-34122767D01*
X54183866Y-34121303D01*
X54137986Y-34120010D01*
X54081507Y-34118876D01*
X54013334Y-34117893D01*
X53932370Y-34117048D01*
X53837519Y-34116332D01*
X53727686Y-34115734D01*
X53601773Y-34115244D01*
X53458686Y-34114850D01*
X53297327Y-34114542D01*
X53116602Y-34114310D01*
X52915413Y-34114143D01*
X52692665Y-34114031D01*
X52447262Y-34113962D01*
X52178107Y-34113927D01*
X51884106Y-34113914D01*
X51733090Y-34113913D01*
X51426711Y-34113919D01*
X51145709Y-34113942D01*
X50888986Y-34113993D01*
X50655447Y-34114083D01*
X50443997Y-34114222D01*
X50253538Y-34114422D01*
X50082975Y-34114691D01*
X49931211Y-34115042D01*
X49797151Y-34115485D01*
X49679699Y-34116030D01*
X49577758Y-34116688D01*
X49490233Y-34117469D01*
X49416027Y-34118384D01*
X49354044Y-34119444D01*
X49303189Y-34120659D01*
X49262365Y-34122039D01*
X49230476Y-34123596D01*
X49206426Y-34125340D01*
X49189119Y-34127281D01*
X49177459Y-34129430D01*
X49170350Y-34131798D01*
X49166695Y-34134395D01*
X49165400Y-34137231D01*
X49165294Y-34138688D01*
X48857393Y-34138688D01*
X48823053Y-33985043D01*
X48787589Y-33826374D01*
X48760145Y-33703595D01*
X48732740Y-33581245D01*
X48706239Y-33463399D01*
X48681386Y-33353333D01*
X48660255Y-33260187D01*
X48970919Y-33260187D01*
X49031707Y-33534824D01*
X49092496Y-33809461D01*
X51733090Y-33809461D01*
X54373684Y-33809461D01*
X54434472Y-33534824D01*
X54495260Y-33260187D01*
X53114175Y-33256817D01*
X52884073Y-33256337D01*
X52632556Y-33255958D01*
X52364684Y-33255681D01*
X52085515Y-33255505D01*
X51800106Y-33255430D01*
X51513515Y-33255457D01*
X51230802Y-33255586D01*
X50957023Y-33255816D01*
X50697237Y-33256147D01*
X50456503Y-33256580D01*
X50352004Y-33256817D01*
X48970919Y-33260187D01*
X48660255Y-33260187D01*
X48658925Y-33254322D01*
X48639600Y-33169641D01*
X48624155Y-33102564D01*
X48613333Y-33056366D01*
X48609807Y-33041792D01*
X48596301Y-32984550D01*
X48584316Y-32929022D01*
X48576398Y-32887017D01*
X48576279Y-32886269D01*
X48567344Y-32830015D01*
X50887125Y-32830015D01*
X51733090Y-32830015D01*
X52579054Y-32830015D01*
X52533300Y-32703616D01*
X52514146Y-32650153D01*
X52498933Y-32606640D01*
X52489579Y-32578630D01*
X52487545Y-32571256D01*
X52474700Y-32570161D01*
X52437730Y-32569131D01*
X52378983Y-32568184D01*
X52300805Y-32567340D01*
X52205543Y-32566616D01*
X52095545Y-32566032D01*
X51973157Y-32565606D01*
X51840728Y-32565355D01*
X51733090Y-32565294D01*
X51594512Y-32565396D01*
X51464165Y-32565688D01*
X51344394Y-32566152D01*
X51237547Y-32566770D01*
X51145972Y-32567523D01*
X51072015Y-32568392D01*
X51018024Y-32569359D01*
X50986345Y-32570405D01*
X50978634Y-32571256D01*
X50974407Y-32585430D01*
X50963004Y-32618912D01*
X50946345Y-32666152D01*
X50932880Y-32703616D01*
X50887125Y-32830015D01*
X48567344Y-32830015D01*
X49478487Y-32829771D01*
X50389630Y-32829527D01*
X50522583Y-32462471D01*
X50655536Y-32095414D01*
X51732094Y-32095414D01*
X52808652Y-32095414D01*
X52936419Y-32446170D01*
G37*
G36*
X52808284Y-36714392D02*
G01*
X52861484Y-36747656D01*
X52919805Y-36786837D01*
X52979144Y-36828841D01*
X53035394Y-36870576D01*
X53084450Y-36908947D01*
X53122207Y-36940862D01*
X53144558Y-36963227D01*
X53148882Y-36971009D01*
X53140292Y-36983321D01*
X53132803Y-36982240D01*
X53115161Y-36975222D01*
X53077656Y-36960401D01*
X53025061Y-36939661D01*
X52962148Y-36914884D01*
X52930953Y-36902608D01*
X52745648Y-36829708D01*
X52616963Y-36847904D01*
X52525196Y-36862321D01*
X52444643Y-36878771D01*
X52366740Y-36899564D01*
X52282926Y-36927014D01*
X52184636Y-36963431D01*
X52174311Y-36967411D01*
X52105165Y-36992473D01*
X52028370Y-37017574D01*
X51949417Y-37041208D01*
X51873797Y-37061871D01*
X51807001Y-37078057D01*
X51754518Y-37088261D01*
X51723272Y-37091059D01*
X51701543Y-37087475D01*
X51660448Y-37078500D01*
X51606202Y-37065553D01*
X51554403Y-37052488D01*
X51476018Y-37030309D01*
X51388605Y-37002554D01*
X51306263Y-36973799D01*
X51273126Y-36961163D01*
X51170016Y-36922401D01*
X51079196Y-36893567D01*
X50989804Y-36871759D01*
X50890975Y-36854072D01*
X50849216Y-36847904D01*
X50720531Y-36829708D01*
X50535226Y-36902608D01*
X50469161Y-36928613D01*
X50411211Y-36951450D01*
X50366148Y-36969237D01*
X50338746Y-36980090D01*
X50333376Y-36982240D01*
X50318915Y-36978451D01*
X50317297Y-36971009D01*
X50327866Y-36956229D01*
X50356420Y-36929954D01*
X50398854Y-36895280D01*
X50451062Y-36855298D01*
X50508939Y-36813102D01*
X50568379Y-36771786D01*
X50625277Y-36734442D01*
X50657895Y-36714392D01*
X50740855Y-36665099D01*
X50892188Y-36686866D01*
X50989473Y-36704505D01*
X51098687Y-36731519D01*
X51224639Y-36769151D01*
X51279108Y-36786898D01*
X51362758Y-36813947D01*
X51446491Y-36839710D01*
X51523658Y-36862235D01*
X51587614Y-36879569D01*
X51623892Y-36888197D01*
X51679785Y-36899279D01*
X51720992Y-36904291D01*
X51758592Y-36903231D01*
X51803666Y-36896101D01*
X51842287Y-36888197D01*
X51891414Y-36876235D01*
X51958910Y-36857567D01*
X52038128Y-36834146D01*
X52122420Y-36807924D01*
X52187071Y-36786898D01*
X52320822Y-36744806D01*
X52435967Y-36713816D01*
X52537313Y-36692683D01*
X52573991Y-36686866D01*
X52725324Y-36665099D01*
X52808284Y-36714392D01*
G37*
D12*
%TO.C,GND1*%
X15721320Y-37733333D02*
G75*
G02*
X14321320Y-37733333I-700000J0D01*
G01*
X14321320Y-37733333D02*
G75*
G02*
X15721320Y-37733333I700000J0D01*
G01*
%TO.C,C9*%
X19877500Y-17077500D02*
X19877500Y-20827500D01*
X19877500Y-27597500D02*
X19877500Y-23847500D01*
X29333063Y-17077500D02*
X19877500Y-17077500D01*
X29333063Y-27597500D02*
X19877500Y-27597500D01*
X29333063Y-29462500D02*
X29333063Y-28212500D01*
X29958063Y-28837500D02*
X28708063Y-28837500D01*
X30397500Y-18141937D02*
X29333063Y-17077500D01*
X30397500Y-18141937D02*
X30397500Y-20827500D01*
X30397500Y-26533063D02*
X29333063Y-27597500D01*
X30397500Y-26533063D02*
X30397500Y-23847500D01*
%TO.C,J2*%
X62202500Y-14349700D02*
X62202500Y-22169700D01*
X62202500Y-20569700D02*
X63122500Y-20569700D01*
X62202500Y-22169700D02*
X63122500Y-22169700D01*
X62962500Y-16609700D02*
X63962500Y-16609700D01*
X62962500Y-18209700D02*
X62962500Y-16609700D01*
X63122500Y-20569700D02*
X63402500Y-20569700D01*
X63122500Y-22169700D02*
X63122500Y-20569700D01*
X63962500Y-16609700D02*
X63962500Y-18209700D01*
X63962500Y-18209700D02*
X62962500Y-18209700D01*
X64762500Y-18709700D02*
X64762500Y-14349700D01*
X65762500Y-14349700D02*
X65762500Y-18709700D01*
X65762500Y-18709700D02*
X64762500Y-18709700D01*
X66562500Y-16609700D02*
X66562500Y-14349700D01*
X66562500Y-16609700D02*
X66562500Y-18209700D01*
X66562500Y-18209700D02*
X67562500Y-18209700D01*
X67062500Y-16609700D02*
X67062500Y-14349700D01*
X67122500Y-20569700D02*
X67122500Y-21784700D01*
X67122500Y-20569700D02*
X67402500Y-20569700D01*
X67402500Y-20569700D02*
X67402500Y-22169700D01*
X67402500Y-22169700D02*
X68322500Y-22169700D01*
X67562500Y-16609700D02*
X66562500Y-16609700D01*
X67562500Y-18209700D02*
X67562500Y-16609700D01*
X68322500Y-14349700D02*
X62202500Y-14349700D01*
X68322500Y-20569700D02*
X67402500Y-20569700D01*
X68322500Y-22169700D02*
X68322500Y-14349700D01*
D14*
%TO.C,D9*%
X96650300Y-25334000D02*
X98199700Y-25334000D01*
X98199700Y-24191000D02*
X96650300Y-24191000D01*
D12*
%TO.C,C18*%
X71088748Y-37852500D02*
X72511252Y-37852500D01*
X71088748Y-40572500D02*
X72511252Y-40572500D01*
%TO.C,C21*%
X85978733Y-37602500D02*
X86271267Y-37602500D01*
X85978733Y-38622500D02*
X86271267Y-38622500D01*
%TO.C,R3*%
X73967224Y-22737200D02*
X73457776Y-22737200D01*
X73967224Y-23782200D02*
X73457776Y-23782200D01*
%TO.C,J4*%
X86165000Y-14202500D02*
X86165000Y-22022500D01*
X86165000Y-20422500D02*
X87085000Y-20422500D01*
X86165000Y-22022500D02*
X87085000Y-22022500D01*
X86925000Y-16462500D02*
X87925000Y-16462500D01*
X86925000Y-18062500D02*
X86925000Y-16462500D01*
X87085000Y-20422500D02*
X87365000Y-20422500D01*
X87085000Y-22022500D02*
X87085000Y-20422500D01*
X87925000Y-16462500D02*
X87925000Y-18062500D01*
X87925000Y-18062500D02*
X86925000Y-18062500D01*
X88725000Y-18562500D02*
X88725000Y-14202500D01*
X89725000Y-14202500D02*
X89725000Y-18562500D01*
X89725000Y-18562500D02*
X88725000Y-18562500D01*
X90525000Y-16462500D02*
X90525000Y-14202500D01*
X90525000Y-16462500D02*
X90525000Y-18062500D01*
X90525000Y-18062500D02*
X91525000Y-18062500D01*
X91025000Y-16462500D02*
X91025000Y-14202500D01*
X91085000Y-20422500D02*
X91085000Y-21637500D01*
X91085000Y-20422500D02*
X91365000Y-20422500D01*
X91365000Y-20422500D02*
X91365000Y-22022500D01*
X91365000Y-22022500D02*
X92285000Y-22022500D01*
X91525000Y-16462500D02*
X90525000Y-16462500D01*
X91525000Y-18062500D02*
X91525000Y-16462500D01*
X92285000Y-14202500D02*
X86165000Y-14202500D01*
X92285000Y-20422500D02*
X91365000Y-20422500D01*
X92285000Y-22022500D02*
X92285000Y-14202500D01*
%TO.C,C12*%
X34291233Y-22390000D02*
X34583767Y-22390000D01*
X34291233Y-23410000D02*
X34583767Y-23410000D01*
D14*
%TO.C,D7*%
X87600200Y-25334000D02*
X89149600Y-25334000D01*
X89149600Y-24191000D02*
X87600200Y-24191000D01*
D12*
%TO.C,C3*%
X57740000Y-25464137D02*
X57740000Y-32919700D01*
X57740000Y-32919700D02*
X60490000Y-32919700D01*
X58804437Y-24399700D02*
X57740000Y-25464137D01*
X58804437Y-24399700D02*
X60490000Y-24399700D01*
X65195563Y-24399700D02*
X63510000Y-24399700D01*
X65195563Y-24399700D02*
X66260000Y-25464137D01*
X66260000Y-25464137D02*
X66260000Y-32919700D01*
X66260000Y-32919700D02*
X63510000Y-32919700D01*
X67500000Y-25159700D02*
X67500000Y-26159700D01*
X68000000Y-25659700D02*
X67000000Y-25659700D01*
%TO.C,C16*%
X57201248Y-42802500D02*
X58623752Y-42802500D01*
X57201248Y-44622500D02*
X58623752Y-44622500D01*
%TO.C,EN_3V3*%
X105700000Y-27666667D02*
G75*
G02*
X104300000Y-27666667I-700000J0D01*
G01*
X104300000Y-27666667D02*
G75*
G02*
X105700000Y-27666667I700000J0D01*
G01*
%TO.C,C11*%
X32338748Y-24140000D02*
X33761252Y-24140000D01*
X32338748Y-26860000D02*
X33761252Y-26860000D01*
%TO.C,SW_5V1*%
X63100000Y-35400000D02*
G75*
G02*
X61700000Y-35400000I-700000J0D01*
G01*
X61700000Y-35400000D02*
G75*
G02*
X63100000Y-35400000I700000J0D01*
G01*
%TO.C,12V1*%
X48050000Y-27900000D02*
G75*
G02*
X46650000Y-27900000I-700000J0D01*
G01*
X46650000Y-27900000D02*
G75*
G02*
X48050000Y-27900000I700000J0D01*
G01*
D10*
%TO.C,U1*%
X34446515Y-18975998D02*
X35296501Y-18975998D01*
X34446515Y-22026000D02*
X35296501Y-22026000D01*
D15*
X32546509Y-19550998D02*
G75*
G02*
X32296507Y-19550998I-125001J0D01*
G01*
X32296507Y-19550998D02*
G75*
G02*
X32546509Y-19550998I125001J0D01*
G01*
D12*
%TO.C,D6*%
X72052500Y-20499700D02*
X72052500Y-22419700D01*
X72052500Y-22419700D02*
X74912500Y-22419700D01*
X74912500Y-20499700D02*
X72052500Y-20499700D01*
%TO.C,J3*%
X76202500Y-14249700D02*
X76202500Y-22069700D01*
X76202500Y-20469700D02*
X77122500Y-20469700D01*
X76202500Y-22069700D02*
X77122500Y-22069700D01*
X76962500Y-16509700D02*
X77962500Y-16509700D01*
X76962500Y-18109700D02*
X76962500Y-16509700D01*
X77122500Y-20469700D02*
X77402500Y-20469700D01*
X77122500Y-22069700D02*
X77122500Y-20469700D01*
X77962500Y-16509700D02*
X77962500Y-18109700D01*
X77962500Y-18109700D02*
X76962500Y-18109700D01*
X78762500Y-18609700D02*
X78762500Y-14249700D01*
X79762500Y-14249700D02*
X79762500Y-18609700D01*
X79762500Y-18609700D02*
X78762500Y-18609700D01*
X80562500Y-16509700D02*
X80562500Y-14249700D01*
X80562500Y-16509700D02*
X80562500Y-18109700D01*
X80562500Y-18109700D02*
X81562500Y-18109700D01*
X81062500Y-16509700D02*
X81062500Y-14249700D01*
X81122500Y-20469700D02*
X81122500Y-21684700D01*
X81122500Y-20469700D02*
X81402500Y-20469700D01*
X81402500Y-20469700D02*
X81402500Y-22069700D01*
X81402500Y-22069700D02*
X82322500Y-22069700D01*
X81562500Y-16509700D02*
X80562500Y-16509700D01*
X81562500Y-18109700D02*
X81562500Y-16509700D01*
X82322500Y-14249700D02*
X76202500Y-14249700D01*
X82322500Y-20469700D02*
X81402500Y-20469700D01*
X82322500Y-22069700D02*
X82322500Y-14249700D01*
D14*
%TO.C,Q1*%
X28301899Y-38159100D02*
X28301899Y-44610700D01*
X28301899Y-44610700D02*
X28718459Y-44610700D01*
X28847560Y-38159100D02*
X28301899Y-38159100D01*
X31273699Y-36965300D02*
X31273699Y-38159100D01*
X31273699Y-38159100D02*
X30427440Y-38159100D01*
X32391299Y-36965300D02*
X31273699Y-36965300D01*
X32391299Y-38159100D02*
X32391299Y-36965300D01*
X33237558Y-38159100D02*
X32391299Y-38159100D01*
X34946539Y-44610700D02*
X35363099Y-44610700D01*
X35363099Y-38159100D02*
X34817438Y-38159100D01*
X35363099Y-44610700D02*
X35363099Y-38159100D01*
D12*
%TO.C,GND3*%
X80300000Y-36200000D02*
G75*
G02*
X78900000Y-36200000I-700000J0D01*
G01*
X78900000Y-36200000D02*
G75*
G02*
X80300000Y-36200000I700000J0D01*
G01*
%TO.C,R1*%
X31054724Y-31077500D02*
X30545276Y-31077500D01*
X31054724Y-32122500D02*
X30545276Y-32122500D01*
D14*
%TO.C,F6*%
X97327850Y-28836500D02*
X98719350Y-28836500D01*
X98719350Y-25788500D02*
X97327850Y-25788500D01*
%TO.C,D1*%
X21420799Y-28103000D02*
X21420799Y-28762260D01*
X21420799Y-31637740D02*
X21420799Y-32297000D01*
X21420799Y-32297000D02*
X27264801Y-32297000D01*
X27264801Y-28103000D02*
X21420799Y-28103000D01*
X27264801Y-28762260D02*
X27264801Y-28103000D01*
X27264801Y-32297000D02*
X27264801Y-31637740D01*
X27645801Y-30200000D02*
X28915801Y-30200000D01*
X27899801Y-30835000D02*
X27899801Y-29565000D01*
X28661801Y-30200000D02*
X27899801Y-29565000D01*
X28661801Y-30200000D02*
X27899801Y-29692000D01*
X28661801Y-30200000D02*
X27899801Y-29819000D01*
X28661801Y-30200000D02*
X27899801Y-29946000D01*
X28661801Y-30200000D02*
X27899801Y-30073000D01*
X28661801Y-30200000D02*
X27899801Y-30327000D01*
X28661801Y-30200000D02*
X27899801Y-30454000D01*
X28661801Y-30200000D02*
X27899801Y-30581000D01*
X28661801Y-30200000D02*
X27899801Y-30708000D01*
X28661801Y-30200000D02*
X27899801Y-30835000D01*
X28661801Y-30835000D02*
X28661801Y-29565000D01*
%TO.C,F4*%
X96829250Y-32336500D02*
X98220750Y-32336500D01*
X98220750Y-29288500D02*
X96829250Y-29288500D01*
D12*
%TO.C,C14*%
X50288748Y-21177500D02*
X51711252Y-21177500D01*
X50288748Y-22997500D02*
X51711252Y-22997500D01*
%TO.C,R4*%
X85152500Y-30556526D02*
X85152500Y-31065974D01*
X86197500Y-30556526D02*
X86197500Y-31065974D01*
D14*
%TO.C,U2*%
X57332850Y-42325601D02*
X59288650Y-42325601D01*
X59288650Y-39074401D02*
X57332850Y-39074401D01*
%TO.C,F3*%
X72488500Y-15815350D02*
X72488500Y-17206850D01*
X75536500Y-17206850D02*
X75536500Y-15815350D01*
D12*
%TO.C,C19*%
X71088748Y-41102500D02*
X72511252Y-41102500D01*
X71088748Y-43822500D02*
X72511252Y-43822500D01*
%TO.C,C23*%
X95988748Y-40852500D02*
X97411252Y-40852500D01*
X95988748Y-43572500D02*
X97411252Y-43572500D01*
%TO.C,J1*%
X19490000Y-34790000D02*
X19490000Y-43510000D01*
X20790000Y-33090000D02*
X19490000Y-34790000D01*
X23610000Y-33090000D02*
X20790000Y-33090000D01*
X23610000Y-33090000D02*
X24910000Y-34790000D01*
X24910000Y-34790000D02*
X24910000Y-43510000D01*
X24910000Y-43510000D02*
X19490000Y-43510000D01*
%TO.C,C1*%
X35867498Y-34491937D02*
X35867498Y-43947500D01*
X35867498Y-43947500D02*
X39617498Y-43947500D01*
X36931935Y-33427500D02*
X35867498Y-34491937D01*
X36931935Y-33427500D02*
X39617498Y-33427500D01*
X43887498Y-31937500D02*
X43887498Y-33187500D01*
X44512498Y-32562500D02*
X43262498Y-32562500D01*
X45323061Y-33427500D02*
X42637498Y-33427500D01*
X45323061Y-33427500D02*
X46387498Y-34491937D01*
X46387498Y-34491937D02*
X46387498Y-43947500D01*
X46387498Y-43947500D02*
X42637498Y-43947500D01*
D14*
%TO.C,L1*%
X37516850Y-15304300D02*
X37516850Y-18730550D01*
X37516850Y-22444450D02*
X37516850Y-25870700D01*
X37516850Y-25870700D02*
X48261050Y-25870700D01*
X48261050Y-15304300D02*
X37516850Y-15304300D01*
X48261050Y-18730550D02*
X48261050Y-15304300D01*
X48261050Y-25870700D02*
X48261050Y-22444450D01*
X37965150Y-26413700D02*
G75*
G02*
X37812750Y-26413700I-76200J0D01*
G01*
X37812750Y-26413700D02*
G75*
G02*
X37965150Y-26413700I76200J0D01*
G01*
D12*
%TO.C,C20*%
X84613748Y-42802500D02*
X86036252Y-42802500D01*
X84613748Y-44622500D02*
X86036252Y-44622500D01*
%TO.C,D3*%
X57940000Y-20699700D02*
X57940000Y-22619700D01*
X57940000Y-22619700D02*
X60800000Y-22619700D01*
X60800000Y-20699700D02*
X57940000Y-20699700D01*
%TO.C,C22*%
X95988748Y-37602500D02*
X97411252Y-37602500D01*
X95988748Y-40322500D02*
X97411252Y-40322500D01*
%TO.C,C5*%
X73102500Y-25264137D02*
X73102500Y-31019700D01*
X73102500Y-31019700D02*
X75452500Y-31019700D01*
X74166937Y-24199700D02*
X73102500Y-25264137D01*
X74166937Y-24199700D02*
X75452500Y-24199700D01*
X78858063Y-24199700D02*
X77572500Y-24199700D01*
X78858063Y-24199700D02*
X79922500Y-25264137D01*
X79922500Y-25264137D02*
X79922500Y-31019700D01*
X79922500Y-31019700D02*
X77572500Y-31019700D01*
X81012500Y-25215950D02*
X81012500Y-26003450D01*
X81406250Y-25609700D02*
X80618750Y-25609700D01*
D16*
%TO.C,D2*%
X30277498Y-34262500D02*
X32977498Y-34262500D01*
X32977498Y-32712500D02*
X30277498Y-32712500D01*
D11*
X28727498Y-33487500D02*
G75*
G02*
X28527498Y-33487500I-100000J0D01*
G01*
X28527498Y-33487500D02*
G75*
G02*
X28727498Y-33487500I100000J0D01*
G01*
D12*
%TO.C,R2*%
X59004724Y-22937200D02*
X58495276Y-22937200D01*
X59004724Y-23982200D02*
X58495276Y-23982200D01*
%TO.C,C13*%
X35877500Y-17133767D02*
X35877500Y-16841233D01*
X36897500Y-17133767D02*
X36897500Y-16841233D01*
%TO.C,C4*%
X65116233Y-22899700D02*
X65408767Y-22899700D01*
X65116233Y-23919700D02*
X65408767Y-23919700D01*
%TO.C,SW_3V3*%
X90300000Y-36200000D02*
G75*
G02*
X88900000Y-36200000I-700000J0D01*
G01*
X88900000Y-36200000D02*
G75*
G02*
X90300000Y-36200000I700000J0D01*
G01*
%TO.C,C6*%
X79128733Y-22749700D02*
X79421267Y-22749700D01*
X79128733Y-23769700D02*
X79421267Y-23769700D01*
%TO.C,GND2*%
X54050000Y-27900000D02*
G75*
G02*
X52650000Y-27900000I-700000J0D01*
G01*
X52650000Y-27900000D02*
G75*
G02*
X54050000Y-27900000I700000J0D01*
G01*
%TO.C,FB_3V3*%
X80300000Y-41000000D02*
G75*
G02*
X78900000Y-41000000I-700000J0D01*
G01*
X78900000Y-41000000D02*
G75*
G02*
X80300000Y-41000000I700000J0D01*
G01*
%TO.C,C17*%
X58553733Y-37602500D02*
X58846267Y-37602500D01*
X58553733Y-38622500D02*
X58846267Y-38622500D01*
D14*
%TO.C,F1*%
X24897750Y-46416000D02*
X25857450Y-46416000D01*
X25857450Y-44384000D02*
X24897750Y-44384000D01*
%TO.C,D5*%
X73237800Y-20231200D02*
X74787200Y-20231200D01*
X74787200Y-19088200D02*
X73237800Y-19088200D01*
D12*
%TO.C,R6*%
X34115000Y-17254724D02*
X34115000Y-16745276D01*
X35160000Y-17254724D02*
X35160000Y-16745276D01*
%TO.C,D8*%
X87865000Y-29952500D02*
X87865000Y-31872500D01*
X87865000Y-31872500D02*
X90725000Y-31872500D01*
X90725000Y-29952500D02*
X87865000Y-29952500D01*
%TO.C,EN_5V1*%
X105700000Y-37800000D02*
G75*
G02*
X104300000Y-37800000I-700000J0D01*
G01*
X104300000Y-37800000D02*
G75*
G02*
X105700000Y-37800000I700000J0D01*
G01*
%TO.C,3V3*%
X105650000Y-22533333D02*
G75*
G02*
X104250000Y-22533333I-700000J0D01*
G01*
X104250000Y-22533333D02*
G75*
G02*
X105650000Y-22533333I700000J0D01*
G01*
%TO.C,J5*%
X93115000Y-14202500D02*
X93115000Y-22022500D01*
X93115000Y-20422500D02*
X94035000Y-20422500D01*
X93115000Y-22022500D02*
X94035000Y-22022500D01*
X93875000Y-16462500D02*
X94875000Y-16462500D01*
X93875000Y-18062500D02*
X93875000Y-16462500D01*
X94035000Y-20422500D02*
X94315000Y-20422500D01*
X94035000Y-22022500D02*
X94035000Y-20422500D01*
X94875000Y-16462500D02*
X94875000Y-18062500D01*
X94875000Y-18062500D02*
X93875000Y-18062500D01*
X95675000Y-18562500D02*
X95675000Y-14202500D01*
X96675000Y-14202500D02*
X96675000Y-18562500D01*
X96675000Y-18562500D02*
X95675000Y-18562500D01*
X97475000Y-16462500D02*
X97475000Y-14202500D01*
X97475000Y-16462500D02*
X97475000Y-18062500D01*
X97475000Y-18062500D02*
X98475000Y-18062500D01*
X97975000Y-16462500D02*
X97975000Y-14202500D01*
X98035000Y-20422500D02*
X98035000Y-21637500D01*
X98035000Y-20422500D02*
X98315000Y-20422500D01*
X98315000Y-20422500D02*
X98315000Y-22022500D01*
X98315000Y-22022500D02*
X99235000Y-22022500D01*
X98475000Y-16462500D02*
X97475000Y-16462500D01*
X98475000Y-18062500D02*
X98475000Y-16462500D01*
X99235000Y-14202500D02*
X93115000Y-14202500D01*
X99235000Y-20422500D02*
X98315000Y-20422500D01*
X99235000Y-22022500D02*
X99235000Y-14202500D01*
%TO.C,C2*%
X40991233Y-31152500D02*
X41283767Y-31152500D01*
X40991233Y-32172500D02*
X41283767Y-32172500D01*
D14*
%TO.C,F2*%
X58376000Y-15965350D02*
X58376000Y-17356850D01*
X61424000Y-17356850D02*
X61424000Y-15965350D01*
%TO.C,L2*%
X60875700Y-36825700D02*
X60875700Y-39540560D01*
X60875700Y-41959440D02*
X60875700Y-44674300D01*
X60875700Y-44674300D02*
X68724300Y-44674300D01*
X68724300Y-36825700D02*
X60875700Y-36825700D01*
X68724300Y-39540560D02*
X68724300Y-36825700D01*
X68724300Y-44674300D02*
X68724300Y-41959440D01*
D12*
%TO.C,R5*%
X32365000Y-16745276D02*
X32365000Y-17254724D01*
X33410000Y-16745276D02*
X33410000Y-17254724D01*
%TO.C,SW_12V1*%
X39000000Y-27900000D02*
G75*
G02*
X37600000Y-27900000I-700000J0D01*
G01*
X37600000Y-27900000D02*
G75*
G02*
X39000000Y-27900000I700000J0D01*
G01*
%TO.C,EN_12V1*%
X15721320Y-22533333D02*
G75*
G02*
X14321320Y-22533333I-700000J0D01*
G01*
X14321320Y-22533333D02*
G75*
G02*
X15721320Y-22533333I700000J0D01*
G01*
D14*
%TO.C,U3*%
X84745350Y-42338099D02*
X86701150Y-42338099D01*
X86701150Y-39086899D02*
X84745350Y-39086899D01*
D12*
%TO.C,C8*%
X89078733Y-22702500D02*
X89371267Y-22702500D01*
X89078733Y-23722500D02*
X89371267Y-23722500D01*
%TO.C,FB_12V1*%
X29900000Y-15400000D02*
G75*
G02*
X28500000Y-15400000I-700000J0D01*
G01*
X28500000Y-15400000D02*
G75*
G02*
X29900000Y-15400000I700000J0D01*
G01*
%TO.C,VBAT1*%
X15721320Y-30133333D02*
G75*
G02*
X14321320Y-30133333I-700000J0D01*
G01*
X14321320Y-30133333D02*
G75*
G02*
X15721320Y-30133333I700000J0D01*
G01*
D14*
%TO.C,D4*%
X59125300Y-20381200D02*
X60674700Y-20381200D01*
X60674700Y-19238200D02*
X59125300Y-19238200D01*
%TO.C,L3*%
X88269500Y-43430500D02*
X93730500Y-43430500D01*
X93730500Y-37969500D02*
X88269500Y-37969500D01*
X88377000Y-43950000D02*
G75*
G02*
X88123000Y-43950000I-127000J0D01*
G01*
X88123000Y-43950000D02*
G75*
G02*
X88377000Y-43950000I127000J0D01*
G01*
D12*
%TO.C,C15*%
X50288748Y-17977500D02*
X51711252Y-17977500D01*
X50288748Y-20697500D02*
X51711252Y-20697500D01*
%TO.C,C10*%
X32338748Y-27390000D02*
X33761252Y-27390000D01*
X32338748Y-30110000D02*
X33761252Y-30110000D01*
%TO.C,C7*%
X89662500Y-29362500D02*
X90287500Y-29362500D01*
X89965000Y-24152500D02*
X91665000Y-24152500D01*
X89965000Y-28608063D02*
X89965000Y-24152500D01*
X89975000Y-29675000D02*
X89975000Y-29050000D01*
X91029437Y-29672500D02*
X89965000Y-28608063D01*
X91029437Y-29672500D02*
X91665000Y-29672500D01*
X94420563Y-29672500D02*
X93785000Y-29672500D01*
X94420563Y-29672500D02*
X95485000Y-28608063D01*
X95485000Y-24152500D02*
X93785000Y-24152500D01*
X95485000Y-28608063D02*
X95485000Y-24152500D01*
%TO.C,C24*%
X96078733Y-22702500D02*
X96371267Y-22702500D01*
X96078733Y-23722500D02*
X96371267Y-23722500D01*
%TO.C,5V1*%
X105700000Y-32733333D02*
G75*
G02*
X104300000Y-32733333I-700000J0D01*
G01*
X104300000Y-32733333D02*
G75*
G02*
X105700000Y-32733333I700000J0D01*
G01*
D14*
%TO.C,F5*%
X86730650Y-28836500D02*
X88122150Y-28836500D01*
X88122150Y-25788500D02*
X86730650Y-25788500D01*
D12*
%TO.C,R7*%
X30815000Y-18845276D02*
X30815000Y-19354724D01*
X31860000Y-18845276D02*
X31860000Y-19354724D01*
%TD*%
M02*
